<?xml version="1.0" encoding="UTF-8" standalone="no"?>
<svg
   version="1.1"
   x="0px"
   y="0px"
   width="1920"
   height="1080"
   viewBox="0 0 1919.9999 1080"
   enable-background="new 0 0 500 421"
   xml:space="preserve"
   id="svg235"
   sodipodi:docname="analysis__isometric.svg"
   inkscape:version="1.1 (c68e22c387, 2021-05-23)"
   xmlns:inkscape="http://www.inkscape.org/namespaces/inkscape"
   xmlns:sodipodi="http://sodipodi.sourceforge.net/DTD/sodipodi-0.dtd"
   xmlns:xlink="http://www.w3.org/1999/xlink"
   xmlns="http://www.w3.org/2000/svg"
   xmlns:svg="http://www.w3.org/2000/svg"
   xmlns:rdf="http://www.w3.org/1999/02/22-rdf-syntax-ns#"
   xmlns:cc="http://creativecommons.org/ns#"
   xmlns:dc="http://purl.org/dc/elements/1.1/"><sodipodi:namedview
   pagecolor="#ffffff"
   bordercolor="#666666"
   borderopacity="1"
   objecttolerance="10"
   gridtolerance="10"
   guidetolerance="10"
   inkscape:pageopacity="0"
   inkscape:pageshadow="2"
   inkscape:window-width="1366"
   inkscape:window-height="702"
   id="namedview246"
   showgrid="false"
   showborder="false"
   fit-margin-top="0"
   fit-margin-left="0"
   fit-margin-right="0"
   fit-margin-bottom="0"
   inkscape:zoom="0.37097297"
   inkscape:cx="36.390791"
   inkscape:cy="487.90617"
   inkscape:window-x="-8"
   inkscape:window-y="-8"
   inkscape:window-maximized="1"
   inkscape:current-layer="svg235"
   inkscape:document-rotation="0"
   inkscape:pagecheckerboard="0" /><metadata
   id="metadata241"><rdf:RDF><cc:Work
       rdf:about=""><dc:format>image/svg+xml</dc:format><dc:type
         rdf:resource="http://purl.org/dc/dcmitype/StillImage" /><dc:title /></cc:Work></rdf:RDF></metadata><defs
   id="defs239">
	
	

		
		
	
			
		
			
			
			
			
			
			
			
			
			
			
			
			
			
			
			
			
			
			
			
			
			
			
			
			
			
			
			
			
			
			
			
			
			
			
			
			
			
			
			
			
			
			
			
			
			
			
			
			
		
				
				
				
			
				
				
			
				
				
				
				
				
			<filter
   inkscape:collect="always"
   style="color-interpolation-filters:sRGB"
   id="filter2062"
   x="-0.15552"
   width="1.31104"
   y="-0.15552"
   height="1.31104"><feGaussianBlur
     inkscape:collect="always"
     stdDeviation="27.755441"
     id="feGaussianBlur2064" /></filter></defs>
<g
   id="BACKGROUND"
   transform="translate(-149.63477,-207.73894)">
</g>
<g
   id="OBJECTS"
   transform="translate(-149.63477,-207.73894)">
</g>
<g
   opacity="0.08"
   id="g196"
   transform="translate(-149.63477,-207.73894)">
				<g
   id="g194">
					<defs
   id="defs189">
						<rect
   id="SVGID_18_"
   x="188.338"
   y="198.476"
   width="25.200001"
   height="40.021" />
					</defs>
					<clipPath
   id="SVGID_1_">
						<use
   xlink:href="#SVGID_18_"
   overflow="visible"
   id="use191"
   x="0"
   y="0"
   width="100%"
   height="100%" />
					</clipPath>
				</g>
			</g>
<g
   id="g1261"><circle
     style="fill:#e4dde5;stroke-width:2.07526;stroke-linecap:round;stroke-linejoin:round;paint-order:markers fill stroke;filter:url(#filter2062)"
     id="path185"
     cx="697.7547"
     cy="48.987278"
     r="214.16235"
     transform="matrix(2.1275693,0,0,1.5585454,-937.88704,300.36319)" /><path
     id="path39"
     style="fill:#165044;fill-opacity:1;stroke-width:24.5668;stroke-linecap:round"
     d="m 330.70489,348.26535 -8.05547,4.60995 v 228.80053 h 8.05547 40.73316 v -220.1903 z m -16.62787,9.51563 -8.05551,4.60994 v 219.28491 h 8.05551 z m -16.62792,9.51562 -8.05546,4.60998 v 209.76925 h 8.05546 z m -16.62786,9.51563 -8.05551,4.60994 v 200.25366 h 8.05551 z" /><path
     id="path33"
     style="fill:#0b2228;fill-opacity:1;stroke-width:24.5668;stroke-linecap:round"
     d="m 507.38295,34.022617 v 9.22e-4 L 488.48272,44.840172 V 581.67545 h 18.90023 45.96742 V 230.02304 l 87.59852,-50.12957 v 401.78236 h 60.30527 V 310.42985 L 747.0746,284.2074 V 111.8209 Z m -39.0149,22.328534 -18.90022,10.815305 V 581.67583 h 18.90022 z M 429.35316,78.678357 410.45293,89.493699 V 581.67583 h 18.90023 z m -39.01489,22.325943 -18.90022,10.8166 v 469.85493 h 18.90022 z" /><path
     id="path35"
     style="fill:#550022;fill-opacity:1;stroke-width:24.5668;stroke-linecap:round"
     d="m 655.09456,171.79819 -14.14567,8.09528 v 401.78236 h 14.14567 46.1596 V 310.42985 l 67.56952,-38.66826 v 309.91424 h 65.66374 V 230.02304 Z m -29.19899,16.71072 -14.14562,8.09399 v 385.07293 h 14.14562 z m -29.20056,16.70942 -14.14566,8.09529 v 368.36221 h 14.14566 z m -29.19897,16.70943 -14.14567,8.09528 v 351.65279 h 14.14567 z" /><path
     id="path37"
     style="fill:#241c1f;fill-opacity:1;stroke-width:24.5668;stroke-linecap:round"
     d="m 779.73458,265.51671 v 7.3e-4 l -10.91099,6.24443 v 309.91396 h 10.91099 138.37354 V 310.42952 Z m -22.52321,12.8902 -10.91099,6.24366 v 297.02526 h 10.91099 z m -22.52312,12.88944 -10.91117,6.2437 v 284.13578 h 10.91117 z m -22.52333,12.88875 -10.91106,6.24442 v 271.24631 h 10.91106 z" /><g
     id="g659"
     style="stroke-width:0.543254"
     transform="matrix(1.8852113,0,0,1.7973372,-200.83483,-5.036347)">
				<g
   id="g657"
   style="stroke-width:0.543254">
					<path
   fill="#424773"
   d="m 315.445,309.231 c 0,0 0.438,3.047 0.493,3.504 0.055,0.457 4.882,-0.27 4.882,-0.27 l 0.392,-3.626 c -10e-4,10e-4 -5.164,-0.037 -5.767,0.392 z"
   id="path655"
   style="stroke-width:0.796088" />
				</g>
			</g><g
     id="g665"
     style="fill:#241c1c;stroke-width:0.543254"
     transform="matrix(1.8852113,0,0,1.7973372,-200.83483,-5.036347)">
				<g
   id="g663"
   style="fill:#241c1c;stroke-width:0.543254">
					<path
   fill="#0e538c"
   d="m 315.887,312.348 c 0,0 -1.529,1.835 -3.008,2.636 -1.479,0.799 -3.804,1.117 -4.679,1.944 -0.632,0.599 -2.3,3.172 3.844,3.12 6.143,-0.052 9.104,0.363 9.762,-0.623 0.659,-0.987 -0.951,-7.283 -0.951,-7.283 0,0 -1.455,0.523 -4.968,0.206 z"
   id="path661"
   style="fill:#241c1c;stroke-width:0.543254" />
				</g>
			</g><g
     id="g671"
     style="stroke-width:0.543254"
     transform="matrix(1.8852113,0,0,1.7973372,-200.83483,-5.036347)">
				<g
   id="g669"
   style="stroke-width:0.543254">
					<path
   fill="#424773"
   d="m 282.86,309.231 c 0,0 0.439,3.047 0.493,3.504 0.055,0.457 4.882,-0.27 4.882,-0.27 l 0.391,-3.626 c 0,10e-4 -5.162,-0.037 -5.766,0.392 z"
   id="path667"
   style="stroke-width:0.796088" />
				</g>
			</g><g
     id="g677"
     style="fill:#241c1c;stroke-width:0.543254"
     transform="matrix(1.8852113,0,0,1.7973372,-200.83483,-5.036347)">
				<g
   id="g675"
   style="fill:#241c1c;stroke-width:0.543254">
					<path
   fill="#0e538c"
   d="m 283.302,312.348 c 0,0 -1.529,1.835 -3.008,2.636 -1.48,0.799 -6.923,1.457 -7.797,2.285 -0.631,0.598 -1.682,3.004 6.962,2.779 6.141,-0.161 9.105,0.363 9.762,-0.623 0.659,-0.987 -0.952,-7.283 -0.952,-7.283 0,0 -1.37,0.559 -4.967,0.206 z"
   id="path673"
   style="fill:#241c1c;stroke-width:0.543254" />
				</g>
			</g><g
     id="g683"
     style="fill:#501616;stroke-width:0.543254"
     transform="matrix(1.8852113,0,0,1.7973372,-200.83483,-5.036347)">
				<g
   id="g681"
   style="fill:#501616;stroke-width:0.543254">
					<path
   fill="#0b4870"
   d="m 321.464,311.729 -6.22,0.141 c 0,0 -5.22,-31.391 -6.58,-34.601 -0.96,-2.29 -4.66,-14.59 -6.78,-22.37 -0.85,-3.109 -1.44,-5.5 -1.51,-6.229 -0.1,-1.12 2.02,-4.66 4.42,-8.28 1.73,-0.03 3.49,-0.12 5.22,-0.28 1.65,-0.149 3.54,-0.159 5.08,-0.47 0.4,1.641 0.64,3.36 0.55,5.04 -0.34,6.521 1.65,13.63 2.33,20.43 0.76,7.591 3.86,25.551 3.98,29.61 0.11,4.05 -0.49,17.009 -0.49,17.009 z"
   id="path679"
   style="fill:#501616;stroke-width:0.543254" />
				</g>
			</g><g
     id="g693"
     style="fill:#501616;stroke-width:0.543254"
     transform="matrix(1.8852113,0,0,1.7973372,-200.83483,-5.036347)">
				<g
   id="g691"
   style="fill:#501616;stroke-width:0.543254">
					<path
   fill="#0b4870"
   d="m 310.014,240.109 c -1.86,4.181 -4.15,5.62 -6.17,10.16 -0.61,1.351 -1.28,2.91 -1.96,4.63 -2.77,6.94 -5.8,16.41 -5.8,24.721 0,10.359 -6.11,32.25 -6.11,32.25 h -7.95 c 0.6,-3.78 2.48,-33.811 2.7,-36.311 0.23,-2.49 0.53,-17.79 0.98,-21.779 0.25,-2.261 1.46,-8.961 2.46,-14.351 0,0 7.98,1.14 16.63,0.96 1.73,-0.03 3.49,-0.119 5.22,-0.28 z"
   id="path685"
   style="fill:#501616;stroke-width:0.543254" />
					<path
   fill="#292c47"
   d="m 297.814,234.91 c -0.17,0.02 -0.37,0.04 -0.61,0.06 -0.03,0 -2.89,0.34 -2.92,0.34 h -0.21 c 0.4,-0.05 2.94,-0.34 2.97,-0.34 0.31,-0.031 0.57,-0.05 0.77,-0.06 z"
   id="path687"
   style="fill:#501616;stroke-width:0.543254" />
					<path
   fill="#292c47"
   d="m 298.564,234.83 c -0.11,0.02 -0.22,0.029 -0.37,0.04 0.15,-0.02 0.26,-0.03 0.37,-0.04 z"
   id="path689"
   style="fill:#501616;stroke-width:0.543254" />
				</g>
			</g><path
     fill="#2a94f4"
     d="m 393.18394,425.67753 c -2.90322,0.55898 -6.46625,0.57515 -9.57686,0.84475 -3.26142,0.28758 -6.57938,0.44935 -9.8408,0.50326 -16.30709,0.32351 -31.35107,-1.72543 -31.35107,-1.72543 v -0.0358 l 0.24504,-3.72049 0.30165,-4.61917 c 0.20747,0.0898 0.43359,0.1438 0.64097,0.21571 0.82949,0.28758 4.56221,1.04246 8.70967,0.73691 0.16962,0.0184 0.33935,0.0184 0.509,0 l 0.64097,0.0184 c 0,0 0.0376,0 0.0942,0 h 0.3959 c 0.0566,0 5.44825,-0.6111 5.50483,-0.6111 0.45243,-0.0358 0.82949,-0.0719 1.14998,-0.10799 0.13205,0 0.24504,-0.0184 0.35817,-0.0377 0.0378,0.0184 0.0566,0 0.0754,0 0.0942,-0.0184 0.20747,-0.0184 0.28278,-0.0358 0.28278,-0.0211 0.49017,-0.0377 0.69752,-0.0719 h 0.0754 c 0.16963,-0.0377 0.32049,-0.0377 0.49017,-0.054 0.22625,-0.0184 0.43358,-0.054 0.69752,-0.0719 0.0378,0 0.0942,0 0.15084,-0.0184 0.37703,-0.0377 0.82949,-0.0719 1.45162,-0.12589 0.18841,0 0.39588,-0.0184 0.60327,-0.0358 h 0.0376 c 2.37534,-0.0917 4.54333,-0.1978 6.50396,-0.32533 0.41475,-0.0358 0.81065,-0.0521 1.18769,-0.0719 0.92375,-0.0522 1.79095,-0.12406 2.62044,-0.17963 0.33933,-0.0184 0.65982,-0.054 0.98031,-0.0719 2.26224,-0.16172 4.18516,-0.3415 5.7876,-0.52123 2.62044,-0.30555 4.39255,-0.6111 5.35401,-0.91665 0.26383,-0.0719 0.45243,-0.1438 0.5844,-0.21571 0.18841,-0.10956 0.64097,-0.23361 0.92375,-0.41337 0.99917,2.39044 1.96063,5.55554 2.58276,7.90827 0.30162,0.89866 0.60327,1.8153 0.86717,2.74993 0,0.0522 0.0193,0.0898 0.0376,0.14381 0.16962,0.50506 0.28277,0.84835 0.22625,0.86631 z"
     id="path695"
     style="fill:#008080;stroke-width:0.999997" /><path
     fill="#e59a67"
     d="m 360.60751,417.17613 c -0.32049,0.0361 -0.69755,0.0719 -1.14998,0.10798 -0.0566,0 -5.44827,0.6111 -5.50482,0.6111 h -0.39591 c 0.7541,-0.0898 5.54254,-0.6111 5.59909,-0.6111 0.58442,-0.0558 1.07456,-0.0898 1.45162,-0.10798 z"
     id="path697"
     style="stroke-width:1.46539" /><path
     fill="#e59a67"
     d="m 362.0214,417.03235 c -0.20747,0.0358 -0.41475,0.0521 -0.69753,0.0719 0.28278,-0.0358 0.49017,-0.054 0.69753,-0.0719 z"
     id="path699"
     style="stroke-width:1.46539" /><g
     id="g713"
     style="fill:#a05a2c;stroke-width:0.543254"
     transform="matrix(1.8852113,0,0,1.7973372,-200.83483,-5.036347)">
					<path
   fill="#f1b99e"
   d="m 303.354,190.47 c -0.57,0.24 -1.2,0.55 -1.82,0.9 -0.38,0.21 -0.6,0.72 -0.79,1.239 -0.21,0.58 -0.39,1.171 -0.73,1.381 -0.88,0.569 -3.98,3.64 -3.98,3.64 l 0.45,-4.92 0.37,-0.48 0.71,-0.93 -0.07,-0.84 c -0.14,0.06 -0.3,0.149 -0.44,0.25 0.02,-0.26 0.03,-0.55 0.04,-0.851 0.57,-0.189 1.09,-0.399 1.56,-0.609 0.22,0.99 0.36,2.17 0.36,2.17 z"
   id="path701"
   style="fill:#a05a2c;stroke-width:0.543254" />
					<path
   fill="#f1b99e"
   d="m 304.344,190.26 v 0.03 c -0.02,-0.01 -0.03,-0.021 -0.04,-0.03 z"
   id="path703"
   style="fill:#a05a2c;stroke-width:0.543254" />
					<path
   fill="#f1b99e"
   d="m 304.344,190.29 c -0.05,0.68 -0.06,1.02 -0.06,1.02 -0.2,0.15 -0.42,0.28 -0.64,0.391 -0.89,0.489 -1.92,0.77 -2.9,0.909 -0.51,0.07 -1,0.101 -1.46,0.101 0.65,-0.41 1.45,-0.9 2.25,-1.34 0.62,-0.351 1.25,-0.66 1.82,-0.9 h 0.02 c 0.29,-0.12 0.55,-0.21 0.8,-0.28 0,0 0.04,0.021 0.13,0.07 0.01,0.009 0.02,0.019 0.04,0.029 z"
   id="path705"
   style="fill:#a05a2c;stroke-width:0.543254" />
					<path
   fill="#f1b99e"
   d="m 306.894,189.7 -2.55,0.56 h -0.04 c -0.09,-0.05 -0.13,-0.07 -0.13,-0.07 -0.25,0.07 -0.51,0.16 -0.8,0.28 h -0.02 l -4.34,0.95 c 0,0 -0.14,-1.18 -0.36,-2.17 -0.12,-0.58 -0.27,-1.101 -0.44,-1.28 -0.02,-0.02 -0.04,-0.04 -0.07,-0.05 -0.01,-0.01 -0.02,-0.021 -0.03,-0.021 -0.31,0.11 -0.57,0.2 -0.75,0.271 -0.18,0.06 -0.28,0.09 -0.28,0.09 -0.99,0.29 -1.8,0.45 -2.2,0.41 -1.33,-0.13 -2.36,-4.58 -2.7,-4.94 -0.34,-0.359 -1.96,-0.77 -1.74,-1.33 0.22,-0.56 1.9,-3.989 1.12,-4.439 -0.52,-0.311 -0.17,-1.521 0.24,-2.54 0.01,0.01 0.01,0.02 0.01,0.02 0.4,0.261 0.77,0.471 1.1,0.641 0.45,0.229 0.84,0.39 1.19,0.5 -0.11,0.66 -0.18,1.38 -0.24,2.189 -0.14,2.011 0.3,3.34 0.67,3.15 0.27,-0.14 0.32,-2.021 0.43,-3.061 0.12,-1.05 0.78,-1.42 1.53,-0.319 0.76,1.1 0.35,1.71 0.5,3.68 0.13,1.811 1.5,2.87 2.57,3.4 0.09,0.05 0.18,0.09 0.26,0.13 0.43,0.189 1.55,0.229 2.76,0.21 h 0.01 c 0.09,0.01 0.16,0 0.25,0 0.71,-0.01 1.43,-0.05 2.06,-0.08 0.56,-0.04 1.05,-0.07 1.38,-0.1 0.04,1.969 0.61,3.919 0.61,3.919 z"
   id="path707"
   style="fill:#a05a2c;stroke-width:0.543254" />
					<path
   fill="#f1b99e"
   d="m 297.094,189.439 c 0.01,-0.409 0,-0.819 -0.01,-1.18 0,0 0.1,-0.03 0.28,-0.09 0.18,-0.07 0.44,-0.16 0.75,-0.271 0.01,0 0.02,0.011 0.03,0.021 0.03,0.01 0.05,0.03 0.07,0.05 0.17,0.18 0.32,0.7 0.44,1.28 -0.47,0.21 -0.99,0.42 -1.56,0.609 z"
   id="path709"
   style="fill:#a05a2c;stroke-width:0.543254" />
					<path
   fill="#f1b99e"
   d="m 296.751,191.953 c -0.11,0.24 0.27,0.471 0.93,0.61 l -0.12,-1.26 -0.07,-0.84 c -0.14,0.06 -0.3,0.149 -0.44,0.25 -0.01,0.069 -0.01,0.14 -0.02,0.199 -0.01,0.141 -0.05,0.32 -0.11,0.49 -0.06,0.232 -0.14,0.461 -0.17,0.551 z"
   id="path711"
   style="fill:#a05a2c;stroke-width:0.543254" />
				</g><g
     id="g719"
     style="fill:#a05a2c;stroke-width:0.543254"
     transform="matrix(1.8852113,0,0,1.7973372,-200.83483,-5.036347)">
					<path
   fill="#f1b99e"
   d="m 298.144,187.92 c -0.27,0.09 -0.53,0.17 -0.78,0.25 0.18,-0.07 0.44,-0.16 0.75,-0.271 0.01,0 0.02,0.011 0.03,0.021 z"
   id="path715"
   style="fill:#a05a2c;stroke-width:0.543254" />
					<path
   fill="#f1b99e"
   d="m 301.614,177.16 c -0.01,0.029 -0.02,0.05 -0.04,0.08 -0.12,-0.021 -0.23,-0.051 -0.34,-0.07 -0.07,-0.01 -0.45,-0.08 -1.04,-0.18 0.5,0.079 0.97,0.13 1.42,0.17 z"
   id="path717"
   style="fill:#a05a2c;stroke-width:0.543254" />
				</g><g
     id="g727"
     style="fill:#241f1c;stroke-width:0.543254"
     transform="matrix(1.8852113,0,0,1.7973372,-200.83483,-5.036347)">
					<path
   fill="#0e538c"
   d="m 307.604,178.18 c -0.29,2.271 -0.98,4.561 -1.23,6.061 -0.09,0.489 -0.11,1.02 -0.09,1.54 -0.33,0.029 -0.82,0.06 -1.38,0.1 -0.63,0.03 -1.35,0.07 -2.06,0.08 -0.09,0 -0.16,0.01 -0.25,0 h -0.01 c -1.21,0.02 -2.33,-0.021 -2.76,-0.21 -0.08,-0.04 -0.17,-0.08 -0.26,-0.13 -1.07,-0.53 -2.44,-1.59 -2.57,-3.4 -0.15,-1.97 0.26,-2.58 -0.5,-3.68 -0.75,-1.101 -1.41,-0.73 -1.53,0.319 -0.11,1.04 -0.16,2.921 -0.43,3.061 -0.37,0.189 -0.81,-1.14 -0.67,-3.15 0.06,-0.81 0.13,-1.529 0.24,-2.189 -0.35,-0.11 -0.74,-0.271 -1.19,-0.5 -0.33,-0.17 -0.7,-0.38 -1.1,-0.641 0,0 0,-0.01 -0.01,-0.02 0,-0.01 0.01,-0.01 0.01,-0.021 0.38,0.101 0.79,0.19 1.22,0.28 1.2,0.25 2.54,0.51 3.77,0.73 0.73,0.14 1.43,0.26 2.04,0.359 0.04,0 0.07,0.011 0.11,0.011 0.19,0.029 0.37,0.069 0.55,0.1 0.24,0.04 0.46,0.08 0.69,0.11 0.59,0.1 0.97,0.17 1.04,0.18 0.11,0.02 0.22,0.05 0.34,0.07 0.43,0.09 0.86,0.18 1.3,0.26 0.09,0.02 0.19,0.04 0.28,0.05 0.36,0.07 0.72,0.13 1.08,0.19 0.59,0.1 1.18,0.18 1.78,0.26 0.38,0.05 0.76,0.09 1.14,0.14 0.15,0.009 0.3,0.02 0.45,0.04 z"
   id="path721"
   style="fill:#241f1c;stroke-width:0.543254" />
					<path
   fill="#0b4870"
   d="m 301.614,177.16 c -0.01,0.029 -0.02,0.05 -0.04,0.08 -0.12,-0.021 -0.23,-0.051 -0.34,-0.07 -0.07,-0.01 -0.45,-0.08 -1.04,-0.18 0.5,0.079 0.97,0.13 1.42,0.17 z"
   id="path723"
   style="fill:#241f1c;stroke-width:0.543254" />
					<path
   fill="#0b4870"
   d="m 291.814,175.399 c 0,0.011 -0.01,0.011 -0.01,0.021 0,-0.01 0,-0.01 -0.01,-0.021 0,0 0.01,0 0.02,0 z"
   id="path725"
   style="fill:#241f1c;stroke-width:0.543254" />
				</g><path
     fill="#2a94f4"
     d="m 398.62468,374.88478 c 0,0 -1.91917,23.25395 -3.8383,25.99848 -1.91726,2.74274 -11.3716,-0.91483 -11.3716,-0.91483 l 4.9336,-27.95579"
     id="path729"
     style="stroke-width:1.46539" /><path
     fill="#2a94f4"
     d="m 398.17789,379.90656 c -1.85695,0.20307 -1.73441,-2.82542 -3.08232,-2.82542 -3.07481,0 -4.8186,-0.32891 -4.8186,-0.32891 0,0 -1.75891,1.48818 -4.15879,3.49401 0.13012,-1.08199 0.29598,-2.46056 0.47508,-4.09072 0.0489,-0.39363 0.10001,-0.81422 0.1489,-1.23837 0.0166,-0.0774 0.0166,-0.17251 0.032,-0.24995 0.034,-0.29835 0.066,-0.59492 0.10001,-0.90945 0.032,-0.39181 0.0809,-0.78543 0.13011,-1.20781 0.11686,-1.05144 0.24698,-2.16399 0.37895,-3.32508 0.13205,-1.17544 0.26382,-2.39763 0.41096,-3.66837 0.0809,-0.70633 0.16409,-1.40911 0.23012,-2.13162 0.1489,-1.22401 0.29786,-2.46055 0.4298,-3.70073 0.066,-0.64165 0.14697,-1.30126 0.213,-1.95908 0.0138,-0.0466 0.0138,-0.079 0.0138,-0.11141 0.0508,-0.39184 0.0809,-0.76926 0.13205,-1.14492 0.62589,-5.70654 1.23291,-11.2082 1.66086,-15.12817 2.66379,1.53672 7.95935,5.69037 8.55132,15.112 0.0489,0.51583 0.0809,1.08199 0.0981,1.6913 0.27711,4.64611 0.0359,14.94486 -0.94638,21.72262 z"
     id="path731"
     style="fill:#d5e5ff;stroke-width:0.999997" /><path
     fill="#f1b99e"
     d="m 372.84253,336.92502 -1.75325,0.37745 c 0.54669,-0.2157 1.03686,-0.37745 1.50815,-0.50326 0,-0.002 0.0754,0.0358 0.24504,0.12589 z"
     id="path733"
     style="stroke-width:1.46539" /><path
     fill="#f1b99e"
     d="m 367.77129,313.37991 c -0.0193,0.0521 -0.0376,0.0898 -0.0754,0.14381 -0.22625,-0.0377 -0.43361,-0.0917 -0.64097,-0.1259 -0.13205,-0.0184 -0.84836,-0.1438 -1.96063,-0.32351 0.94262,0.14196 1.82866,0.23362 2.67699,0.30555 z"
     id="path735"
     style="stroke-width:1.46539" /><path
     fill="#2a94f4"
     d="m 381.43531,340.36333 c 0,0 -0.43737,-3.28734 -1.74758,-4.4538 -1.31024,-1.16646 -10.04253,-1.16467 -12.66109,-0.85554 -2.62045,0.31274 -9.07919,3.18488 -9.93319,3.7924 -0.85399,0.60569 0.8295,3.76721 0.8295,3.76721 z"
     id="path737"
     style="fill:#d5e5ff;stroke-width:0.999997" /><path
     fill="#0f2c3f"
     d="m 389.52665,411.94589 c 0.13205,0.70096 0.32049,1.25814 0.18841,1.77934 -0.0193,0.10799 -0.11327,0.21387 -0.24504,0.2858 -0.28278,0.18147 -0.73524,0.30555 -0.92375,0.41338 -0.13206,0.0719 -0.32049,0.1438 -0.5844,0.2157 -0.96146,0.30555 -2.73357,0.6111 -5.35401,0.91665 -1.60244,0.17962 -3.52536,0.35946 -5.78761,0.52123 -0.32048,0.0184 -0.64097,0.054 -0.9803,0.0719 -0.82949,0.054 -1.69669,0.1259 -2.62044,0.17963 -0.37704,0.0184 -0.77294,0.0377 -1.18769,0.0719 -1.96063,0.1259 -4.12862,0.23362 -6.50396,0.32533 h -0.0376 c -0.20747,0.0184 -0.41474,0.0358 -0.60326,0.0358 -0.62213,0.054 -1.07459,0.0898 -1.45162,0.12589 -0.0566,0.0184 -0.11299,0.0184 -0.15084,0.0184 -0.26383,0.0184 -0.4713,0.054 -0.69752,0.0719 -0.16963,0.0184 -0.32049,0.0184 -0.49017,0.054 h -0.0754 c -0.20747,0.0184 -0.41474,0.0358 -0.69752,0.0719 -0.0754,0.0184 -0.18841,0.0184 -0.28278,0.0358 -0.0193,0 -0.0376,0.0184 -0.0754,0 -0.11299,0.0184 -0.22625,0.0377 -0.35817,0.0377 -0.37706,0.0184 -0.8672,0.0521 -1.45162,0.10773 -0.0566,0 -4.84498,0.52123 -5.59908,0.61109 -0.0566,0 -0.0942,0 -0.0942,0 l -0.64097,-0.0184 h -0.50901 c -4.14745,0.30554 -7.88017,-0.44933 -8.70966,-0.73689 -0.20747,-0.0719 -0.43361,-0.1259 -0.64097,-0.21571 -0.24504,-0.0898 -0.45246,-0.23362 -0.54672,-0.50148 -0.35819,-0.79082 1.13111,-5.08646 1.22537,-6.34458 0.0942,-1.60143 0.37707,-3.34306 0.54672,-4.78091 0.22625,-3.2532 0.45245,-6.70407 0,-10.02915 -0.11299,-0.89868 -0.22626,-1.81532 -0.33933,-2.74993 1.01801,1.02447 3.186,1.9609 6.99413,2.66007 8.80395,1.65353 18.98408,2.01302 27.18474,1.92315 4.86385,-0.0377 9.04902,-0.23546 11.80143,-0.4134 -0.43359,2.33653 -0.77294,4.42145 -1.01801,6.25474 -0.33933,2.38865 0.0942,4.77912 0.3959,7.13543 0.0566,0.55358 0.24504,1.32644 0.32049,1.86563 z"
     id="path739"
     style="fill:#1c241f;stroke-width:0.999997" /><path
     fill="#0f2c3f"
     d="m 398.02895,354.24955 v 0.10957 c -0.1884,2.85776 -0.67868,6.2008 -1.30081,9.81346 -14.70465,1.52774 -39.04272,-0.80881 -39.04272,-0.80881 0,0 -21.7742,8.75304 -2.86551,12.27581 14.27104,2.66007 32.06743,1.97709 39.28779,1.47383 -0.4713,2.22691 -0.98031,4.42145 -1.4516,6.57825 v 0.0184 c -14.7612,1.52772 -38.94849,-0.80881 -38.94849,-0.80881 0,0 -8.2195,3.30711 -10.18013,6.66812 -1.24424,-11.30526 -2.16799,-24.69541 -1.64014,-33.28668 0.0566,-0.79082 0.13205,-1.5457 0.22625,-2.2287 0.92376,-6.72203 6.73023,-11.91635 18.3054,-14.03901 5.24089,-0.98852 11.65062,-1.31024 19.34228,-0.87888 0,0 19.37998,-1.58347 18.26771,15.11379 z"
     id="path741"
     style="fill:#1c241f;stroke-width:0.999997" /><path
     fill="#fcd2b1"
     d="m 396.72814,364.17266 c -0.16962,1.00651 -0.3582,2.04897 -0.56556,3.09141 -0.41474,2.13884 -0.84833,4.33159 -1.33849,6.52434 -0.22626,1.11436 -0.4713,2.21074 -0.71639,3.32687 -7.22036,0.50147 -25.01675,1.18624 -39.28779,-1.4738 -18.90869,-3.5228 2.86551,-12.27582 2.86551,-12.27582 0,0 24.33807,2.33474 39.04272,0.807 z"
     id="path743"
     style="fill:#1c241f;stroke-width:0.999997" /><path
     fill="#fcd2b1"
     d="m 392.6561,383.70973 c -0.24504,1.06042 -0.49017,2.10288 -0.71639,3.12735 -0.60327,2.62412 -1.13111,5.12242 -1.60244,7.36908 -0.16962,0.86094 -0.33932,1.68769 -0.509,2.48034 -7.39004,0.48707 -24.94133,1.11434 -38.98617,-1.50978 -3.80813,-0.70096 -5.97612,-1.63557 -6.99413,-2.66004 -0.11299,-0.95081 -0.22626,-1.92136 -0.32049,-2.92966 0,0 0,0 0,-0.0184 1.96063,-3.361 10.18013,-6.66812 10.18013,-6.66812 0,0 24.18729,2.33653 38.94849,0.80882 z"
     id="path745"
     style="fill:#1c241f;stroke-width:0.999997" /><path
     fill="#fcd2b1"
     d="m 343.52748,389.58702 c 0.0942,1.0083 0.20747,1.97885 0.32049,2.92966 -0.92375,-0.91665 -0.90491,-1.92316 -0.32049,-2.92966 z"
     id="path747"
     style="stroke-width:1.46539" /><path
     id="path749"
     fill="#2a94f4"
     d="m 355.52873,371.61902 c 0,0 -8.5777,30.15033 -15.5247,32.25683 -3.98347,1.20781 -34.73691,-17.41801 -34.73691,-17.41801 l 6.90742,-4.22552 22.20591,6.44163 5.27105,-20.71071 z"
     style="stroke-width:1.46539" /><g
     id="g761"
     style="fill:#784421;stroke-width:0.543254"
     transform="matrix(1.8852113,0,0,1.7973372,-200.83483,-5.036347)">
					<g
   id="g753"
   style="fill:#784421;stroke-width:0.543254">
						<path
   fill="#f1b99e"
   d="m 262.205,214.384 c -0.089,-0.242 -0.151,-0.497 -0.27,-0.729 -0.26,-0.504 -0.763,-0.842 -1.056,-1.327 -0.229,-0.381 -0.315,-0.827 -0.478,-1.24 -0.184,-0.47 -0.733,-1.182 -0.362,-1.365 -0.174,-0.279 -0.404,-0.583 -0.565,-0.87 -0.124,-0.217 -0.252,-0.667 0.026,-0.716 0.415,-0.071 1.024,0.32 1.358,0.487 0.445,0.222 1.238,0.921 1.653,1.189 0.939,0.608 1.842,0.699 1.842,0.699 0,0 -0.297,-0.278 -0.208,-0.495 0.138,-0.335 1.018,-0.095 1.854,-0.235 0.433,-0.074 1.837,0.846 2.286,1.095 0.449,0.25 1.464,2.342 1.702,2.766 0.623,1.112 2.554,1.994 2.554,1.994 0,0 -2.887,2.779 -2.901,2.794 -0.071,0.064 -0.604,-0.312 -0.673,-0.354 -0.286,-0.172 -0.637,-0.352 -0.976,-0.381 -1.389,-0.699 -3.124,-0.704 -4.416,-1.618 -0.592,-0.418 -1.098,-0.982 -1.358,-1.659 -0.004,-0.012 -0.008,-0.023 -0.012,-0.035 z"
   id="path751"
   style="fill:#784421;stroke-width:0.543254" />
					</g>
					<g
   id="g759"
   style="fill:#784421;stroke-width:0.543254">
						<g
   id="g757"
   style="fill:#784421;stroke-width:0.543254">
							<path
   id="path755"
   fill="#f2a19c"
   d="m 264.354,210.513 c 0.716,0.376 1.223,0.316 1.78,0.417 0.437,0.079 0.51,0.265 0.979,0.333 -0.55,0.301 -0.66,-0.066 -1.657,-0.114 -0.462,-0.023 -0.947,-0.058 -1.26,-0.404 -0.106,-0.119 0.004,-0.294 0.158,-0.232 z"
   style="fill:#784421;stroke-width:0.543254" />
						</g>
					</g>
				</g><path
     fill="#2a94f4"
     d="m 353.44934,378.30512 c -6.21741,0 -12.58567,-1.05323 -15.81126,-2.43358 1.67594,-16.478 5.98932,-26.30943 9.04335,-29.56979 1.9135,-2.04178 4.84877,-3.03931 7.64456,-2.42282 3.28592,0.72612 7.22977,3.44729 7.23165,12.32254 0.002,5.23024 -6.90175,20.1751 -8.1083,22.10365 z"
     id="path763"
     style="fill:#008080;stroke-width:0.999997" /><g
     id="g769"
     style="fill:#ffd42a;stroke-width:0.543254"
     transform="matrix(1.8852113,0,0,1.7973372,-200.83483,-5.036347)">
				<path
   fill="#0f2c3f"
   d="m 308.924,177.97 c -0.08,0.4 -0.69,0.33 -0.69,0.33 -0.47,-0.03 -0.96,-0.06 -1.43,-0.11 -0.06,0 -0.13,-0.01 -0.2,-0.01 -0.15,-0.02 -0.3,-0.03 -0.45,-0.04 -0.38,-0.05 -0.76,-0.09 -1.14,-0.14 -0.6,-0.08 -1.19,-0.16 -1.78,-0.26 -0.36,-0.061 -0.72,-0.12 -1.08,-0.19 -0.09,-0.01 -0.19,-0.03 -0.28,-0.05 -0.44,-0.08 -0.87,-0.17 -1.3,-0.26 0.02,-0.03 0.03,-0.051 0.04,-0.08 -0.45,-0.04 -0.92,-0.091 -1.42,-0.17 -0.23,-0.03 -0.45,-0.07 -0.69,-0.11 -0.18,-0.03 -0.36,-0.07 -0.55,-0.1 -0.04,0 -0.07,-0.011 -0.11,-0.011 -0.61,-0.1 -1.31,-0.22 -2.04,-0.359 -1.23,-0.221 -2.57,-0.48 -3.77,-0.73 -0.43,-0.09 -0.84,-0.18 -1.22,-0.28 -0.01,0 -0.02,0 -0.02,0 -1.37,-0.319 -2.4,-0.63 -2.63,-0.859 -0.62,-0.65 1.25,-1.07 2.15,-1.221 0.28,-0.06 0.46,-0.079 0.46,-0.079 l 0.01,0.01 c 0.11,-1.22 0.45,-3.141 1.55,-4.811 1.36,-2.08 3.86,-3.779 8.47,-3.3 0.58,0.07 1.12,0.15 1.63,0.26 l 0.01,0.011 c 7.99,1.68 6.89,8.93 6.14,11.75 0,-0.001 0.47,0.219 0.34,0.809 z"
   id="path765"
   style="fill:#ffd42a;stroke-width:0.543254" />
				<path
   fill="#ffb41d"
   d="m 300.614,177.16 c -0.01,0.029 -0.02,0.05 -0.04,0.08 -0.12,-0.021 -0.23,-0.051 -0.34,-0.07 -0.07,-0.01 -0.45,-0.08 -1.04,-0.18 0.5,0.079 0.97,0.13 1.42,0.17 z"
   id="path767"
   style="fill:#ffd42a;stroke-width:0.543254" />
			</g><path
     fill="#0f2c3f"
     d="m 360.60751,417.17613 c -0.32049,0.0361 -0.69755,0.0719 -1.14998,0.10798 -0.0566,0 -5.44827,0.6111 -5.50482,0.6111 h -0.39591 c 0.7541,-0.0898 5.54254,-0.6111 5.59909,-0.6111 0.58442,-0.0558 1.07456,-0.0898 1.45162,-0.10798 z"
     id="path771"
     style="stroke-width:1.46539" /><path
     fill="#0f2c3f"
     d="m 362.0214,417.03235 c -0.20747,0.0358 -0.41475,0.0521 -0.69753,0.0719 0.28278,-0.0358 0.49017,-0.054 0.69753,-0.0719 z"
     id="path773"
     style="stroke-width:1.46539" /><g
     id="g443"
     transform="matrix(1.8852113,0,0,1.7973372,-225.16392,6.27362)"
     style="stroke-width:0.543254"><path
       fill="#0b4870"
       d="m 192.753,310.059 c 0,0 -1.141,2.131 -1.887,2.976 -0.746,0.846 -3.604,2.357 -3.619,4.868 -0.016,2.725 4.816,1.967 6.707,1.868 1.891,-0.1 2.033,-1.554 2.83,-3.096 0.793,-1.541 1.598,-1.281 1.746,-2.524 0.148,-1.243 -0.771,-4.092 -0.771,-4.092 z"
       id="path357"
       style="fill:#241c1c;stroke-width:0.543254" /><g
       id="g361"
       style="fill:#241c1c;stroke-width:0.543254">
				<path
   fill="#0b4870"
   d="m 221.526,309.81 c 0,0 2.329,2.601 4.693,3.146 2.365,0.544 4.019,1.239 4.038,2.731 0.017,1.493 -6.806,2.476 -9.513,0.972 -4.037,-2.246 -4.447,-1.569 -4.896,-2.69 -0.447,-1.123 0.538,-4.124 0.51,-4.48 -0.036,-0.442 5.168,0.321 5.168,0.321 z"
   id="path359"
   style="fill:#241c1c;stroke-width:0.543254" />
			</g><g
       id="g365"
       style="stroke-width:0.543254">
				<path
   fill="#81807e"
   d="m 221.265,308.566 c 0,0 0.309,1.219 0.262,1.243 -0.047,0.027 -5.328,0.655 -5.168,-0.321 0.129,-0.793 0.314,-1.655 0.314,-1.655 z"
   id="path363"
   style="stroke-width:0.796088" />
			</g><g
       id="g369"
       style="stroke-width:0.543254">
				<path
   fill="#81807e"
   d="m 197.693,309.237 c 0,0 0.222,1.161 0.179,1.189 -0.043,0.028 -5.356,0.978 -5.326,0.012 0.022,-0.767 0.488,-1.66 0.488,-1.66 z"
   id="path367"
   style="stroke-width:0.796088" />
			</g><g
       id="g373"
       style="fill:#000000;stroke-width:0.543254">
				<path
   fill="#2a94f4"
   d="m 214.021,234.364 c 0,0 4.362,19.934 5.36,26.32 1.171,7.468 1.565,13.638 1.892,17.504 0.409,4.86 0.488,28.776 0.776,30.198 0.286,1.42 -6.364,0.392 -6.364,0.392 0,0 -3.271,-31.246 -4.492,-36.425 -1.137,-4.82 -5.354,-25.577 -6.392,-24.26 -1.036,1.316 -2.322,24.221 -3.091,28.023 -0.768,3.802 -3.104,33.57 -3.104,33.57 0,0 -5.292,1.053 -6.701,-0.138 0,0 -0.64,-25.653 -0.15,-32.782 0.186,-2.718 -3.184,-32.574 1.137,-44.593 2.283,-6.352 21.129,2.191 21.129,2.191 z"
   id="path371"
   style="fill:#000000;stroke-width:0.543254" />
			</g><g
       id="g385"
       style="fill:#c87137;stroke-width:0.543254">
				<g
   id="g377"
   style="fill:#c87137;stroke-width:0.543254">
					<path
   fill="#f1b99e"
   d="m 241.359,201.639 c 0,0 3.839,-4.209 4.319,-4.255 0.48,-0.047 0.687,0.194 0.343,0.603 -0.344,0.41 -3.598,4.185 -3.598,4.185 0,0 5.341,-4.15 5.725,-4.279 0.226,-0.076 0.648,0.363 0.482,0.603 -0.163,0.236 -5.232,4.677 -5.232,4.677 0,0 4.994,-3.862 5.348,-3.87 0.309,-0.005 0.603,0.503 0.251,0.816 -0.352,0.314 -4.792,4.184 -4.792,4.184 0,0 3.805,-2.563 4.111,-2.38 0.186,0.111 0.567,0.474 -0.435,1.104 -1,0.627 -3.214,2.377 -3.214,2.377 z"
   id="path375"
   style="fill:#c87137;stroke-width:0.543254" />
				</g>
				<g
   id="g383"
   style="fill:#c87137;stroke-width:0.543254">
					<g
   id="g381"
   style="fill:#c87137;stroke-width:0.543254">
						<path
   fill="#f1b99e"
   d="m 237.67,207.227 c 0,0 1.179,-1.472 0.742,-2.496 -0.373,-0.87 -0.271,-2.271 -0.239,-2.702 0.041,-0.576 -0.453,-2.408 0.229,-2.347 0.683,0.062 0.947,2.983 1.117,3.586 0.169,0.604 1.61,-1.706 2.188,-1.9 0.579,-0.194 4.07,2.648 2.907,4.106 -1.163,1.46 -3.319,2.18 -3.475,2.481 -0.155,0.3 -0.806,1.097 -0.806,1.097 z"
   id="path379"
   style="fill:#c87137;stroke-width:0.543254" />
					</g>
				</g>
			</g><g
       id="g395"
       style="fill:#c87137;stroke-width:0.543254">
					<path
   fill="#f1b99e"
   d="m 206.775,191.281 c -0.14,-0.101 -0.3,-0.19 -0.44,-0.25 l -0.07,0.84 1.075,1.41 0.456,4.918 c 0,0 -3.105,-3.076 -3.985,-3.646 -0.65,-0.41 -0.715,-2.173 -1.515,-2.613 -0.94,-0.52 -1.89,-0.979 -2.64,-1.18 0,0 -0.06,0.03 -0.17,0.101 -0.09,-1.061 -0.3,-2.961 -0.78,-5.7 0,0 0.16,-0.44 0.4,-1.04 0.27,0.64 0.56,1.149 0.86,1.46 0.23,0.24 0.54,0.479 0.91,0.72 0,0 0.95,2.48 5.86,4.13 0.009,0.299 0.019,0.59 0.039,0.85 z"
   id="path387"
   style="fill:#c87137;stroke-width:0.543254" />
					<path
   fill="#f1b99e"
   d="m 204.545,193.281 c -1.35,0 -3.01,-0.271 -4.36,-1.011 -0.22,-0.109 -0.44,-0.239 -0.64,-0.39 0,0 -0.01,-0.34 -0.06,-1.02 0.11,-0.07 0.17,-0.101 0.17,-0.101 0.75,0.2 1.7,0.66 2.64,1.18 0.8,0.442 1.6,0.932 2.25,1.342 z"
   id="path389"
   style="fill:#c87137;stroke-width:0.543254" />
					<path
   fill="#f1b99e"
   d="m 206.745,188.831 c -0.01,0.359 -0.02,0.77 -0.01,1.18 v 0.42 c -4.91,-1.649 -5.86,-4.13 -5.86,-4.13 -0.37,-0.24 -0.68,-0.479 -0.91,-0.72 -0.3,-0.311 -0.59,-0.82 -0.86,-1.46 -0.24,0.6 -0.4,1.04 -0.4,1.04 0,0 0,0 -0.01,-0.021 -0.07,-0.399 -0.15,-0.819 -0.23,-1.26 -0.04,-0.22 0.13,-0.28 0.46,-0.23 0.1,0.021 0.22,0.051 0.35,0.08 2.09,0.641 7.51,3.931 7.51,3.931 0,0 -0.02,0.5 -0.04,1.17 z"
   id="path391"
   style="fill:#c87137;stroke-width:0.543254" />
					<path
   fill="#f1b99e"
   d="m 207.075,192.521 c 0.11,0.24 -0.27,0.471 -0.93,0.61 l 0.12,-1.26 0.07,-0.84 c 0.14,0.06 0.3,0.149 0.44,0.25 0.01,0.069 0.01,0.14 0.02,0.199 0.01,0.141 0.05,0.32 0.11,0.49 0.06,0.231 0.14,0.461 0.17,0.551 z"
   id="path393"
   style="fill:#c87137;stroke-width:0.543254" />
				</g><g
       id="g399"
       style="fill:#c87137;stroke-width:0.543254">
					<path
   fill="#f1b99e"
   d="m 211.645,184.301 c -0.34,0.36 -1.37,4.811 -2.7,4.94 -0.4,0.04 -1.21,-0.12 -2.2,-0.41 0,0 -0.1,-0.03 -0.28,-0.09 -1.41,-0.42 -3.11,-1.08 -4.48,-1.801 -0.44,-0.22 -0.82,-0.439 -1.11,-0.64 -0.37,-0.24 -0.68,-0.479 -0.91,-0.72 -0.3,-0.311 -0.59,-0.82 -0.86,-1.46 -0.06,-0.15 -0.12,-0.3 -0.18,-0.471 -1.08,-2.989 -1.7,-8.189 -0.85,-10.699 1.09,-3.24 9.9,-4.58 13.24,1.529 0,0 0.37,0.69 0.71,1.511 0.41,1.02 0.76,2.229 0.24,2.54 -0.78,0.449 0.9,3.88 1.12,4.439 0.22,0.562 -1.4,0.971 -1.74,1.332 z"
   id="path397"
   style="fill:#c87137;stroke-width:0.543254" />
				</g><g
       id="g403"
       style="fill:#000000;stroke-width:0.543254">
					<path
   fill="#0b4870"
   d="m 212.025,175.991 c -0.01,0.01 -0.01,0.02 -0.01,0.02 -4.59,2.92 -4.82,0.14 -6.75,0.61 -1.93,0.46 -0.7,3.74 -0.7,3.74 0,0 -0.72,-0.061 -1.58,0.01 -0.76,0.069 -1.63,0.229 -2.19,0.64 -0.04,0.03 -0.08,0.07 -0.13,0.12 -0.43,0.45 -0.98,1.63 -1.39,2.6 -0.06,0.141 -0.11,0.271 -0.17,0.391 -0.24,0.6 -0.4,1.04 -0.4,1.04 0,0 0,0 -0.01,-0.021 -0.08,-0.14 -0.46,-1.02 -2.03,-6.46 -2.08,-7.25 2.04,-7.53 2.77,-7.72 0.73,-0.19 7.04,-3.32 11.28,-1.88 3.23,1.09 1.43,6.54 1.31,6.91 z"
   id="path401"
   style="fill:#000000;stroke-width:0.543254" />
				</g><g
       id="g407"
       style="fill:#c87137;stroke-width:0.543254">
					<path
   fill="#eea886"
   d="m 202.513,178.481 c -0.17,-0.45 -0.72,-2.383 -2.379,-1.247 -1.658,1.134 1.033,4.777 1.322,4.823 0.29,0.048 2.489,0.208 1.057,-3.576 z"
   id="path405"
   style="fill:#c87137;stroke-width:0.543254" />
				</g><path
       fill="#a77860"
       d="m 206.735,190.011 v 0.42 c -4.91,-1.649 -5.86,-4.13 -5.86,-4.13 0.29,0.2 0.67,0.42 1.11,0.64 1.54,0.761 3.72,1.53 4.48,1.801 0.18,0.06 0.28,0.09 0.28,0.09 -0.01,0.358 -0.02,0.769 -0.01,1.179 z"
       id="path409"
       style="fill:#c87137;stroke-width:0.543254" /><path
       fill="#fcd2b1"
       d="m 241.259,208.431 c 0,0 -0.154,-0.424 -0.477,-0.984 -0.492,-0.869 -1.376,-2.076 -2.684,-2.645 0,0 -6.273,4.696 -8.896,6.174 -0.231,0.122 -0.484,0.262 -0.738,0.391 0,0 -0.062,0.038 -0.177,0.102 -2.106,1.06 -4.937,2.214 -7.273,3.82 -1.83,-5.904 -4.644,-18.075 -8.71,-21.297 l -0.009,-0.008 c -1.022,-0.808 -2.114,-1.053 -3.297,-0.491 0,0 -6.082,4.135 -2.038,14.431 1.415,3.59 3.313,6.564 5.19,8.902 2.107,2.63 4.178,4.468 5.507,5.521 h -0.003 c 0,0 1.915,1.921 3.741,1.777 1.827,-0.145 3.639,-1.715 3.639,-1.715 h -0.001 c 5.053,-3.398 16.226,-13.978 16.226,-13.978"
       id="path411"
       style="fill:#cccccc;stroke-width:0.543254" /><path
       fill="#ffe3ca"
       d="m 216.704,213.59 c -0.51,10.87 -2.18,10.37 -1.99,20.07 0,0.149 0.05,0.609 0.1,0.989 0.02,0.24 0.05,0.45 0.07,0.54 0.05,0.271 0.1,0.931 -0.56,1.061 -0.02,0.18 -0.04,0.35 -0.07,0.5 -0.57,3.069 -3.65,3.12 -7.19,2.03 -5.56,-1.7 -12.25,-5.87 -12.25,-5.87 0,0 -1.25,-0.32 -0.15,-5.16 0.55,-2.45 0.34,-4.98 -0.58,-7.311 -1.55,-3.96 -3.85,-10.34 -4.8,-15.649 -0.38,-2.09 -0.61,-3.79 -0.63,-5.2 -0.04,-4.21 1.86,-5.72 7.68,-7.07 0.76,-0.18 1.52,-0.35 2.26,-0.51 0.54,-0.12 1.07,-0.22 1.59,-0.32 0.72,-0.14 0.064,0.472 0.754,0.392 0.8,0.44 1.883,1.585 2.533,1.995 0.88,0.569 2.814,1.349 2.814,1.349 l 0.459,-2.479 0.04,-1.686 c 0.14,0.01 0.08,0.04 0.22,0.06 0.07,0.01 0.167,0.111 0.237,0.131 0.29,0.05 0.222,0.04 0.492,0.1 2.42,0.53 3.93,1.41 5.8,3.14 2.971,2.738 3.691,7.738 3.171,18.898 z"
       id="path413"
       style="fill:#6c5353;stroke-width:0.543254" /><path
       fill="#f4d5b5"
       d="m 193.586,240.761 c -0.468,0.076 -1.662,-2.021 -1.662,-2.021 l 0.501,-0.664 c 0.283,-0.375 0.678,-0.652 1.128,-0.791 l 0.082,-0.025 c 0.403,-0.122 0.845,0.021 1.08,0.372 0.344,0.509 0.873,1.089 1.489,1.065 h 0.01 c 0.022,0.01 0.044,0.01 0.066,0.01 0.543,0.012 -2.226,1.978 -2.694,2.054"
       id="path415"
       style="stroke-width:0.796088" /><path
       fill="#0e538c"
       d="m 205.882,197.625 c 0,0 1.327,20.733 0.196,28.099 0,0 1.477,3.97 2.434,4.307 0.957,0.338 1.655,-2.008 2.592,-4.553 0.937,-2.544 -3.437,-28.032 -3.437,-28.032 z"
       id="path417"
       style="stroke-width:0.796088" /><path
       fill="#0e538c"
       d="m 204.777,196.319 1.104,1.306 1.785,-0.18 c 0,0 0.101,-0.624 0.128,-2.266 0,0 -1.05,-0.665 -1.717,-0.624 z"
       id="path419"
       style="stroke-width:0.796088" /><path
       fill="#fcd2b1"
       d="m 206.076,194.552 -1.02,2.1 -0.16,0.33 c 0,0 -4.01,-2.84 -4.85,-3.35 -0.5,-0.311 -1.03,-0.58 -1.42,-0.771 -0.32,-0.16 -0.54,-0.25 -0.54,-0.25 0.55,-0.84 0.886,-1.351 1.167,-1.53 0.11,-0.07 0.17,-0.101 0.17,-0.101 0.75,0.2 1.963,0.711 2.903,1.23 0.8,0.44 1.6,0.931 2.25,1.341 0.881,0.57 1.5,1.001 1.5,1.001 z"
       id="path421"
       style="stroke-width:0.796088" /><path
       fill="#fcd2b1"
       d="m 208.326,196.061 c -0.04,-0.09 -0.08,-0.17 -0.14,-0.26 v -0.01 c -0.53,-0.86 -1.802,-1.213 -1.802,-1.213 l 0.202,-1.197 0.12,-1.26 0.07,-0.84 c 0.14,0.06 0.3,0.149 0.44,0.25 0.48,0.3 0.91,0.71 0.91,0.71 0.02,0.05 0.04,0.1 0.05,0.14 0.84,2.36 0.15,3.68 0.15,3.68 z"
       id="path423"
       style="stroke-width:0.796088" /><path
       fill="#e5bb98"
       d="m 194.884,237.337 c 0,0 0.746,0.935 0.968,1.058 0.22,0.122 0.259,-0.137 0.174,-0.319 -0.083,-0.183 -1.109,-0.988 -1.142,-0.739"
       id="path425"
       style="stroke-width:0.796088" /><path
       fill="#ffe3ca"
       d="m 190.806,194.15 c 0,0 -5.86,1.19 -8.96,28.581 l 6.492,3.098 c 0,0 4.267,-20.959 6.436,-25.878 1.702,-3.863 -0.87,-6.344 -3.968,-5.801"
       id="path427"
       style="fill:#cccccc;stroke-width:0.543254" /><polygon
       fill="#d3d3d3"
       points="179.027,234.447 203.353,215.501 215.925,233.98 191.599,252.927 "
       id="polygon429"
       style="stroke-width:0.796088" /><polygon
       fill="#0b4870"
       points="201.408,245.869 201.065,246.134 192.149,253.082 178.033,234.951 187.358,227.687 189.42,226.087 202.356,216.008 216.475,234.13 "
       id="polygon431"
       style="fill:#162d50;stroke-width:0.543254" /><path
       fill="#ffe3ca"
       d="m 181.845,222.698 c 0,0 6.436,13.725 14.636,21.548 l 2.702,-1.871 c 0,0 -5.077,-13.889 -11.194,-21.839 -6.117,-7.95 -6.144,2.162 -6.144,2.162"
       id="path433"
       style="fill:#cccccc;stroke-width:0.543254" /><path
       fill="#f1b99e"
       d="m 199.571,249.401 c 0,0 -0.494,-0.26 -0.653,-0.479 0,0 -0.263,-0.42 -0.467,-0.706 -0.066,-0.091 -0.126,-0.169 -0.167,-0.216 -0.181,-0.191 -0.636,-0.564 -0.938,-1.148 -0.304,-0.585 -1.166,-2.762 -1.166,-2.762 l 1.725,-1.062 1.18,-1.303 c 0,0 3.434,2.062 3.778,2.574 0.033,0.051 0.064,0.101 0.091,0.152 0.25,0.462 0.243,0.911 0.346,1.169 0.038,0.095 0.348,1.063 0.184,1.319 -0.228,0.355 -0.528,0.511 -0.818,0.513 0,0 -0.476,0.677 -1.012,0.826 0,0 -0.419,0.638 -1.139,0.633 0.001,0.001 -0.494,0.602 -0.944,0.49 z"
       id="path435"
       style="fill:#c87137;stroke-width:0.543254" /><g
       id="g441"
       style="fill:#ffd42a;stroke-width:0.543254">
				<path
   fill="#0f2c3f"
   d="m 213.615,171.458 v 0 c -0.428,-2.165 -2.237,-8.142 -9.133,-7.55 -10.227,0.875 -10.46,7.585 -9.194,12.559 l -0.002,-0.001 c 0,0 -0.448,0.284 -0.315,0.77 0,0 0.174,0.39 0.627,0.333 0,0 1.167,-0.114 2.564,-0.488 3.822,-0.776 11.002,-2.438 15.201,-4.658 0.114,0.007 0.24,-0.041 0.374,-0.196 0.49,-0.57 -0.122,-0.769 -0.122,-0.769"
   id="path437"
   style="fill:#ffd42a;stroke-width:0.543254" />
				<path
   fill="#0f2c3f"
   d="m 202.277,175.763 c 0,0 5.485,1.812 11.415,-0.021 0,0 4.339,-1.296 0.044,-3.517 z"
   id="path439"
   style="fill:#ffd42a;stroke-width:0.543254" />
			</g></g><g
     id="g449"
     style="stroke-width:0.543254"
     transform="matrix(1.8852113,0,0,1.7973372,-264.48334,29.388052)">
				<g
   id="g447"
   style="stroke-width:0.543254">
					<path
   fill="#424773"
   d="m 315.445,309.231 c 0,0 0.438,3.047 0.493,3.504 0.055,0.457 4.882,-0.27 4.882,-0.27 l 0.392,-3.626 c -10e-4,10e-4 -5.164,-0.037 -5.767,0.392 z"
   id="path445"
   style="stroke-width:0.796088" />
				</g>
			</g><g
     id="g455"
     style="fill:#241c1c;stroke-width:0.543254"
     transform="matrix(1.8852113,0,0,1.7973372,-264.48334,29.388052)">
				<g
   id="g453"
   style="fill:#241c1c;stroke-width:0.543254">
					<path
   fill="#0e538c"
   d="m 315.887,312.348 c 0,0 -1.529,1.835 -3.008,2.636 -1.479,0.799 -3.804,1.117 -4.679,1.944 -0.632,0.599 -2.3,3.172 3.844,3.12 6.143,-0.052 9.104,0.363 9.762,-0.623 0.659,-0.987 -0.951,-7.283 -0.951,-7.283 0,0 -1.455,0.523 -4.968,0.206 z"
   id="path451"
   style="fill:#241c1c;stroke-width:0.543254" />
				</g>
			</g><g
     id="g461"
     style="stroke-width:0.543254"
     transform="matrix(1.8852113,0,0,1.7973372,-264.48334,29.388052)">
				<g
   id="g459"
   style="stroke-width:0.543254">
					<path
   fill="#424773"
   d="m 282.86,309.231 c 0,0 0.439,3.047 0.493,3.504 0.055,0.457 4.882,-0.27 4.882,-0.27 l 0.391,-3.626 c 0,10e-4 -5.162,-0.037 -5.766,0.392 z"
   id="path457"
   style="stroke-width:0.796088" />
				</g>
			</g><g
     id="g467"
     style="fill:#241c1c;stroke-width:0.543254"
     transform="matrix(1.8852113,0,0,1.7973372,-264.48334,29.388052)">
				<g
   id="g465"
   style="fill:#241c1c;stroke-width:0.543254">
					<path
   fill="#0e538c"
   d="m 283.302,312.348 c 0,0 -1.529,1.835 -3.008,2.636 -1.48,0.799 -6.923,1.457 -7.797,2.285 -0.631,0.598 -1.682,3.004 6.962,2.779 6.141,-0.161 9.105,0.363 9.762,-0.623 0.659,-0.987 -0.952,-7.283 -0.952,-7.283 0,0 -1.37,0.559 -4.967,0.206 z"
   id="path463"
   style="fill:#241c1c;stroke-width:0.543254" />
				</g>
			</g><g
     id="g473"
     style="fill:#67536c;stroke-width:0.543254"
     transform="matrix(1.8852113,0,0,1.7973372,-264.48334,29.388052)">
				<g
   id="g471"
   style="fill:#67536c;stroke-width:0.543254">
					<path
   fill="#0b4870"
   d="m 321.464,311.729 -6.22,0.141 c 0,0 -5.22,-31.391 -6.58,-34.601 -0.96,-2.29 -4.66,-14.59 -6.78,-22.37 -0.85,-3.109 -1.44,-5.5 -1.51,-6.229 -0.1,-1.12 2.02,-4.66 4.42,-8.28 1.73,-0.03 3.49,-0.12 5.22,-0.28 1.65,-0.149 3.54,-0.159 5.08,-0.47 0.4,1.641 0.64,3.36 0.55,5.04 -0.34,6.521 1.65,13.63 2.33,20.43 0.76,7.591 3.86,25.551 3.98,29.61 0.11,4.05 -0.49,17.009 -0.49,17.009 z"
   id="path469"
   style="fill:#67536c;stroke-width:0.543254" />
				</g>
			</g><g
     id="g483"
     style="fill:#67536c;stroke-width:0.543254"
     transform="matrix(1.8852113,0,0,1.7973372,-264.48334,29.388052)">
				<g
   id="g481"
   style="fill:#67536c;stroke-width:0.543254">
					<path
   fill="#0b4870"
   d="m 310.014,240.109 c -1.86,4.181 -4.15,5.62 -6.17,10.16 -0.61,1.351 -1.28,2.91 -1.96,4.63 -2.77,6.94 -5.8,16.41 -5.8,24.721 0,10.359 -6.11,32.25 -6.11,32.25 h -7.95 c 0.6,-3.78 2.48,-33.811 2.7,-36.311 0.23,-2.49 0.53,-17.79 0.98,-21.779 0.25,-2.261 1.46,-8.961 2.46,-14.351 0,0 7.98,1.14 16.63,0.96 1.73,-0.03 3.49,-0.119 5.22,-0.28 z"
   id="path475"
   style="fill:#67536c;stroke-width:0.543254" />
					<path
   fill="#292c47"
   d="m 297.814,234.91 c -0.17,0.02 -0.37,0.04 -0.61,0.06 -0.03,0 -2.89,0.34 -2.92,0.34 h -0.21 c 0.4,-0.05 2.94,-0.34 2.97,-0.34 0.31,-0.031 0.57,-0.05 0.77,-0.06 z"
   id="path477"
   style="fill:#67536c;stroke-width:0.543254" />
					<path
   fill="#292c47"
   d="m 298.564,234.83 c -0.11,0.02 -0.22,0.029 -0.37,0.04 0.15,-0.02 0.26,-0.03 0.37,-0.04 z"
   id="path479"
   style="fill:#67536c;stroke-width:0.543254" />
				</g>
			</g><path
     fill="#2a94f4"
     d="m 329.53544,460.10193 c -2.90322,0.55898 -6.46626,0.57515 -9.57687,0.84474 -3.26142,0.28759 -6.57938,0.44936 -9.8408,0.50327 -16.30709,0.32351 -31.35107,-1.72543 -31.35107,-1.72543 v -0.0358 l 0.24505,-3.72049 0.30164,-4.61917 c 0.20747,0.0898 0.43359,0.1438 0.64097,0.2157 0.8295,0.28759 4.56221,1.04247 8.70967,0.73692 0.16962,0.0184 0.33935,0.0184 0.509,0 l 0.64098,0.0184 c 0,0 0.0378,0 0.0942,0 h 0.39591 c 0.0566,0 5.44824,-0.61109 5.50482,-0.61109 0.45243,-0.0358 0.82949,-0.0719 1.14998,-0.10799 0.13205,0 0.24504,-0.0184 0.35817,-0.0377 0.0376,0.0184 0.0566,0 0.0754,0 0.0942,-0.0184 0.20747,-0.0184 0.28277,-0.0358 0.28278,-0.0211 0.49017,-0.0377 0.69753,-0.0719 h 0.0754 c 0.16963,-0.0377 0.32049,-0.0377 0.49017,-0.054 0.22625,-0.0184 0.43359,-0.054 0.69752,-0.0719 0.0378,0 0.0942,0 0.15084,-0.0184 0.37704,-0.0377 0.82949,-0.0719 1.45162,-0.12589 0.18841,0 0.39588,-0.0184 0.60327,-0.0358 h 0.0376 c 2.37535,-0.0917 4.54334,-0.1978 6.50397,-0.32533 0.41474,-0.0358 0.81065,-0.0521 1.18768,-0.0719 0.92375,-0.0521 1.79095,-0.12406 2.62045,-0.17963 0.33932,-0.0184 0.65981,-0.054 0.9803,-0.0719 2.26225,-0.16172 4.18517,-0.3415 5.7876,-0.52123 2.62044,-0.30555 4.39255,-0.6111 5.35401,-0.91665 0.26383,-0.0719 0.45243,-0.1438 0.5844,-0.21571 0.18841,-0.10956 0.64097,-0.23362 0.92375,-0.41337 0.99917,2.39044 1.96063,5.55554 2.58276,7.90827 0.30162,0.89865 0.60327,1.8153 0.86718,2.74993 0,0.0522 0.0193,0.0898 0.0378,0.14381 0.16963,0.50506 0.28278,0.84835 0.22626,0.86631 z"
     id="path485"
     style="fill:#220b28;stroke-width:0.999997" /><path
     fill="#e59a67"
     d="m 296.959,451.60053 c -0.32049,0.0361 -0.69755,0.0719 -1.14998,0.10798 -0.0566,0 -5.44827,0.6111 -5.50482,0.6111 h -0.39591 c 0.7541,-0.0898 5.54254,-0.6111 5.59909,-0.6111 0.58442,-0.0558 1.07456,-0.0898 1.45162,-0.10798 z"
     id="path487"
     style="stroke-width:1.46539" /><path
     fill="#e59a67"
     d="m 298.37289,451.45675 c -0.20747,0.0358 -0.41475,0.0521 -0.69752,0.0719 0.28277,-0.0358 0.49016,-0.054 0.69752,-0.0719 z"
     id="path489"
     style="stroke-width:1.46539" /><g
     id="g503"
     style="fill:#a05a2c;stroke-width:0.543254"
     transform="matrix(1.8852113,0,0,1.7973372,-264.48334,29.388052)">
					<path
   fill="#f1b99e"
   d="m 303.354,190.47 c -0.57,0.24 -1.2,0.55 -1.82,0.9 -0.38,0.21 -0.6,0.72 -0.79,1.239 -0.21,0.58 -0.39,1.171 -0.73,1.381 -0.88,0.569 -3.98,3.64 -3.98,3.64 l 0.45,-4.92 0.37,-0.48 0.71,-0.93 -0.07,-0.84 c -0.14,0.06 -0.3,0.149 -0.44,0.25 0.02,-0.26 0.03,-0.55 0.04,-0.851 0.57,-0.189 1.09,-0.399 1.56,-0.609 0.22,0.99 0.36,2.17 0.36,2.17 z"
   id="path491"
   style="fill:#a05a2c;stroke-width:0.543254" />
					<path
   fill="#f1b99e"
   d="m 304.344,190.26 v 0.03 c -0.02,-0.01 -0.03,-0.021 -0.04,-0.03 z"
   id="path493"
   style="fill:#a05a2c;stroke-width:0.543254" />
					<path
   fill="#f1b99e"
   d="m 304.344,190.29 c -0.05,0.68 -0.06,1.02 -0.06,1.02 -0.2,0.15 -0.42,0.28 -0.64,0.391 -0.89,0.489 -1.92,0.77 -2.9,0.909 -0.51,0.07 -1,0.101 -1.46,0.101 0.65,-0.41 1.45,-0.9 2.25,-1.34 0.62,-0.351 1.25,-0.66 1.82,-0.9 h 0.02 c 0.29,-0.12 0.55,-0.21 0.8,-0.28 0,0 0.04,0.021 0.13,0.07 0.01,0.009 0.02,0.019 0.04,0.029 z"
   id="path495"
   style="fill:#a05a2c;stroke-width:0.543254" />
					<path
   fill="#f1b99e"
   d="m 306.894,189.7 -2.55,0.56 h -0.04 c -0.09,-0.05 -0.13,-0.07 -0.13,-0.07 -0.25,0.07 -0.51,0.16 -0.8,0.28 h -0.02 l -4.34,0.95 c 0,0 -0.14,-1.18 -0.36,-2.17 -0.12,-0.58 -0.27,-1.101 -0.44,-1.28 -0.02,-0.02 -0.04,-0.04 -0.07,-0.05 -0.01,-0.01 -0.02,-0.021 -0.03,-0.021 -0.31,0.11 -0.57,0.2 -0.75,0.271 -0.18,0.06 -0.28,0.09 -0.28,0.09 -0.99,0.29 -1.8,0.45 -2.2,0.41 -1.33,-0.13 -2.36,-4.58 -2.7,-4.94 -0.34,-0.359 -1.96,-0.77 -1.74,-1.33 0.22,-0.56 1.9,-3.989 1.12,-4.439 -0.52,-0.311 -0.17,-1.521 0.24,-2.54 0.01,0.01 0.01,0.02 0.01,0.02 0.4,0.261 0.77,0.471 1.1,0.641 0.45,0.229 0.84,0.39 1.19,0.5 -0.11,0.66 -0.18,1.38 -0.24,2.189 -0.14,2.011 0.3,3.34 0.67,3.15 0.27,-0.14 0.32,-2.021 0.43,-3.061 0.12,-1.05 0.78,-1.42 1.53,-0.319 0.76,1.1 0.35,1.71 0.5,3.68 0.13,1.811 1.5,2.87 2.57,3.4 0.09,0.05 0.18,0.09 0.26,0.13 0.43,0.189 1.55,0.229 2.76,0.21 h 0.01 c 0.09,0.01 0.16,0 0.25,0 0.71,-0.01 1.43,-0.05 2.06,-0.08 0.56,-0.04 1.05,-0.07 1.38,-0.1 0.04,1.969 0.61,3.919 0.61,3.919 z"
   id="path497"
   style="fill:#a05a2c;stroke-width:0.543254" />
					<path
   fill="#f1b99e"
   d="m 297.094,189.439 c 0.01,-0.409 0,-0.819 -0.01,-1.18 0,0 0.1,-0.03 0.28,-0.09 0.18,-0.07 0.44,-0.16 0.75,-0.271 0.01,0 0.02,0.011 0.03,0.021 0.03,0.01 0.05,0.03 0.07,0.05 0.17,0.18 0.32,0.7 0.44,1.28 -0.47,0.21 -0.99,0.42 -1.56,0.609 z"
   id="path499"
   style="fill:#a05a2c;stroke-width:0.543254" />
					<path
   fill="#f1b99e"
   d="m 296.751,191.953 c -0.11,0.24 0.27,0.471 0.93,0.61 l -0.12,-1.26 -0.07,-0.84 c -0.14,0.06 -0.3,0.149 -0.44,0.25 -0.01,0.069 -0.01,0.14 -0.02,0.199 -0.01,0.141 -0.05,0.32 -0.11,0.49 -0.06,0.232 -0.14,0.461 -0.17,0.551 z"
   id="path501"
   style="fill:#a05a2c;stroke-width:0.543254" />
				</g><g
     id="g509"
     style="fill:#a05a2c;stroke-width:0.543254"
     transform="matrix(1.8852113,0,0,1.7973372,-264.48334,29.388052)">
					<path
   fill="#f1b99e"
   d="m 298.144,187.92 c -0.27,0.09 -0.53,0.17 -0.78,0.25 0.18,-0.07 0.44,-0.16 0.75,-0.271 0.01,0 0.02,0.011 0.03,0.021 z"
   id="path505"
   style="fill:#a05a2c;stroke-width:0.543254" />
					<path
   fill="#f1b99e"
   d="m 301.614,177.16 c -0.01,0.029 -0.02,0.05 -0.04,0.08 -0.12,-0.021 -0.23,-0.051 -0.34,-0.07 -0.07,-0.01 -0.45,-0.08 -1.04,-0.18 0.5,0.079 0.97,0.13 1.42,0.17 z"
   id="path507"
   style="fill:#a05a2c;stroke-width:0.543254" />
				</g><g
     id="g517"
     style="fill:#241f1c;stroke-width:0.543254"
     transform="matrix(1.8852113,0,0,1.7973372,-264.48334,29.388052)">
					<path
   fill="#0e538c"
   d="m 307.604,178.18 c -0.29,2.271 -0.98,4.561 -1.23,6.061 -0.09,0.489 -0.11,1.02 -0.09,1.54 -0.33,0.029 -0.82,0.06 -1.38,0.1 -0.63,0.03 -1.35,0.07 -2.06,0.08 -0.09,0 -0.16,0.01 -0.25,0 h -0.01 c -1.21,0.02 -2.33,-0.021 -2.76,-0.21 -0.08,-0.04 -0.17,-0.08 -0.26,-0.13 -1.07,-0.53 -2.44,-1.59 -2.57,-3.4 -0.15,-1.97 0.26,-2.58 -0.5,-3.68 -0.75,-1.101 -1.41,-0.73 -1.53,0.319 -0.11,1.04 -0.16,2.921 -0.43,3.061 -0.37,0.189 -0.81,-1.14 -0.67,-3.15 0.06,-0.81 0.13,-1.529 0.24,-2.189 -0.35,-0.11 -0.74,-0.271 -1.19,-0.5 -0.33,-0.17 -0.7,-0.38 -1.1,-0.641 0,0 0,-0.01 -0.01,-0.02 0,-0.01 0.01,-0.01 0.01,-0.021 0.38,0.101 0.79,0.19 1.22,0.28 1.2,0.25 2.54,0.51 3.77,0.73 0.73,0.14 1.43,0.26 2.04,0.359 0.04,0 0.07,0.011 0.11,0.011 0.19,0.029 0.37,0.069 0.55,0.1 0.24,0.04 0.46,0.08 0.69,0.11 0.59,0.1 0.97,0.17 1.04,0.18 0.11,0.02 0.22,0.05 0.34,0.07 0.43,0.09 0.86,0.18 1.3,0.26 0.09,0.02 0.19,0.04 0.28,0.05 0.36,0.07 0.72,0.13 1.08,0.19 0.59,0.1 1.18,0.18 1.78,0.26 0.38,0.05 0.76,0.09 1.14,0.14 0.15,0.009 0.3,0.02 0.45,0.04 z"
   id="path511"
   style="fill:#241f1c;stroke-width:0.543254" />
					<path
   fill="#0b4870"
   d="m 301.614,177.16 c -0.01,0.029 -0.02,0.05 -0.04,0.08 -0.12,-0.021 -0.23,-0.051 -0.34,-0.07 -0.07,-0.01 -0.45,-0.08 -1.04,-0.18 0.5,0.079 0.97,0.13 1.42,0.17 z"
   id="path513"
   style="fill:#241f1c;stroke-width:0.543254" />
					<path
   fill="#0b4870"
   d="m 291.814,175.399 c 0,0.011 -0.01,0.011 -0.01,0.021 0,-0.01 0,-0.01 -0.01,-0.021 0,0 0.01,0 0.02,0 z"
   id="path515"
   style="fill:#241f1c;stroke-width:0.543254" />
				</g><path
     fill="#2a94f4"
     d="m 334.97617,409.30918 c 0,0 -1.91916,23.25395 -3.8383,25.99848 -1.91726,2.74274 -11.3716,-0.91483 -11.3716,-0.91483 l 4.9336,-27.95579"
     id="path519"
     style="stroke-width:1.46539" /><path
     fill="#2a94f4"
     d="m 334.52938,414.33096 c -1.85695,0.20306 -1.7344,-2.82542 -3.08232,-2.82542 -3.07481,0 -4.8186,-0.32891 -4.8186,-0.32891 0,0 -1.75891,1.48818 -4.15879,3.49401 0.13012,-1.08199 0.29599,-2.46056 0.47508,-4.09073 0.0489,-0.39362 0.10001,-0.81421 0.14891,-1.23836 0.0166,-0.0774 0.0166,-0.17251 0.032,-0.24995 0.034,-0.29836 0.066,-0.59492 0.10001,-0.90945 0.032,-0.39181 0.0809,-0.78543 0.13012,-1.20781 0.11685,-1.05145 0.24697,-2.16399 0.37894,-3.32508 0.13205,-1.17544 0.26382,-2.39764 0.41096,-3.66837 0.0809,-0.70633 0.1641,-1.40911 0.23012,-2.13162 0.1489,-1.22401 0.29786,-2.46055 0.4298,-3.70074 0.066,-0.64164 0.14697,-1.30126 0.213,-1.95908 0.0138,-0.0466 0.0138,-0.079 0.0138,-0.11141 0.0508,-0.39183 0.0809,-0.76925 0.13205,-1.14491 0.62589,-5.70654 1.23291,-11.2082 1.66086,-15.12817 2.66379,1.53672 7.95935,5.69036 8.55132,15.112 0.0489,0.51583 0.0809,1.08199 0.0981,1.6913 0.27711,4.64611 0.0359,14.94486 -0.94638,21.72262 z"
     id="path521"
     style="fill:#d5e5ff;stroke-width:0.999997" /><path
     fill="#f1b99e"
     d="m 309.19402,371.34942 -1.75324,0.37745 c 0.54668,-0.21571 1.03685,-0.37745 1.50814,-0.50327 0,-0.002 0.0754,0.0361 0.24504,0.1259 z"
     id="path523"
     style="stroke-width:1.46539" /><path
     fill="#f1b99e"
     d="m 304.12278,347.80431 c -0.0193,0.0522 -0.0376,0.0898 -0.0754,0.14381 -0.22625,-0.0377 -0.43361,-0.0917 -0.64097,-0.1259 -0.13205,-0.0184 -0.84836,-0.14381 -1.96063,-0.32351 0.94262,0.14196 1.82866,0.23362 2.67699,0.30555 z"
     id="path525"
     style="stroke-width:1.46539" /><path
     fill="#2a94f4"
     d="m 317.7868,374.78773 c 0,0 -0.43737,-3.28734 -1.74758,-4.4538 -1.31024,-1.16646 -10.04253,-1.16467 -12.66109,-0.85554 -2.62044,0.31274 -9.07919,3.18488 -9.93318,3.79239 -0.854,0.6057 0.82949,3.76722 0.82949,3.76722 z"
     id="path527"
     style="fill:#d5e5ff;stroke-width:0.999997" /><path
     fill="#0f2c3f"
     d="m 325.87814,446.37028 c 0.13205,0.70097 0.32049,1.25815 0.18841,1.77935 -0.0193,0.10799 -0.11327,0.21387 -0.24504,0.2858 -0.28278,0.18147 -0.73523,0.30555 -0.92375,0.41337 -0.13205,0.0719 -0.32049,0.14381 -0.5844,0.21571 -0.96146,0.30555 -2.73357,0.6111 -5.35401,0.91665 -1.60244,0.17962 -3.52536,0.35946 -5.7876,0.52123 -0.32049,0.0184 -0.64098,0.054 -0.98031,0.0719 -0.82949,0.054 -1.69669,0.1259 -2.62044,0.17963 -0.37704,0.0184 -0.77294,0.0377 -1.18769,0.0719 -1.96063,0.1259 -4.12862,0.23362 -6.50396,0.32533 h -0.0376 c -0.20747,0.0184 -0.41475,0.0358 -0.60327,0.0358 -0.62213,0.054 -1.07459,0.0898 -1.45162,0.12589 -0.0566,0.0184 -0.11299,0.0184 -0.15084,0.0184 -0.26383,0.0184 -0.4713,0.054 -0.69752,0.0719 -0.16963,0.0184 -0.32049,0.0184 -0.49017,0.054 h -0.0754 c -0.20747,0.0184 -0.41474,0.0358 -0.69752,0.0719 -0.0754,0.0184 -0.18841,0.0184 -0.28278,0.0358 -0.0193,0 -0.0376,0.0184 -0.0754,0 -0.11299,0.0184 -0.22626,0.0377 -0.35817,0.0377 -0.37707,0.0184 -0.8672,0.0521 -1.45163,0.10772 -0.0566,0 -4.84498,0.52124 -5.59908,0.6111 -0.0566,0 -0.0942,0 -0.0942,0 l -0.64098,-0.0184 h -0.509 c -4.14746,0.30555 -7.88018,-0.44932 -8.70967,-0.73688 -0.20747,-0.0719 -0.43361,-0.1259 -0.64097,-0.21571 -0.24504,-0.0898 -0.45246,-0.23362 -0.54671,-0.50148 -0.3582,-0.79083 1.13111,-5.08646 1.22536,-6.34458 0.0942,-1.60143 0.37707,-3.34307 0.54672,-4.78091 0.22625,-3.2532 0.45245,-6.70407 0,-10.02915 -0.11299,-0.89868 -0.22626,-1.81533 -0.33933,-2.74993 1.01801,1.02447 3.186,1.96089 6.99413,2.66006 8.80395,1.65354 18.98408,2.01302 27.18474,1.92316 4.86385,-0.0377 9.04902,-0.23546 11.80143,-0.4134 -0.43359,2.33653 -0.77294,4.42145 -1.01801,6.25474 -0.33933,2.38865 0.0942,4.77912 0.39591,7.13543 0.0566,0.55357 0.24504,1.32644 0.32048,1.86563 z"
     id="path529"
     style="fill:#1c241f;stroke-width:0.999997" /><path
     fill="#0f2c3f"
     d="m 334.38045,388.67395 v 0.10957 c -0.18869,2.85776 -0.67869,6.2008 -1.30082,9.81346 -14.70465,1.52774 -39.04272,-0.80881 -39.04272,-0.80881 0,0 -21.7742,8.75304 -2.86551,12.27581 14.27104,2.66006 32.06743,1.97709 39.28779,1.47382 -0.4713,2.22692 -0.9803,4.42146 -1.4516,6.57826 v 0.0184 c -14.7612,1.52772 -38.94849,-0.80881 -38.94849,-0.80881 0,0 -8.2195,3.30711 -10.18013,6.66811 -1.24423,-11.30525 -2.16798,-24.6954 -1.64014,-33.28667 0.0566,-0.79083 0.13205,-1.5457 0.22626,-2.2287 0.92375,-6.72203 6.73022,-11.91635 18.30539,-14.03901 5.24089,-0.98853 11.65063,-1.31025 19.34228,-0.87888 0,0 19.37998,-1.58347 18.26771,15.11379 z"
     id="path531"
     style="fill:#1c241f;stroke-width:0.999997" /><path
     fill="#fcd2b1"
     d="m 333.07963,398.59706 c -0.16962,1.00651 -0.35819,2.04897 -0.56555,3.09141 -0.41475,2.13883 -0.84834,4.33159 -1.3385,6.52434 -0.22626,1.11436 -0.4713,2.21074 -0.71639,3.32686 -7.22036,0.50148 -25.01675,1.18624 -39.28779,-1.4738 -18.90869,-3.52279 2.86551,-12.27581 2.86551,-12.27581 0,0 24.33807,2.33474 39.04272,0.807 z"
     id="path533"
     style="fill:#1c241f;stroke-width:0.999997" /><path
     fill="#fcd2b1"
     d="m 329.00759,418.13412 c -0.24504,1.06043 -0.49016,2.10289 -0.71639,3.12736 -0.60327,2.62412 -1.13111,5.12242 -1.60243,7.36908 -0.16963,0.86094 -0.33933,1.68769 -0.50901,2.48034 -7.39004,0.48707 -24.94133,1.11433 -38.98617,-1.50978 -3.80813,-0.70096 -5.97612,-1.63557 -6.99413,-2.66004 -0.11299,-0.95081 -0.22625,-1.92137 -0.32049,-2.92967 0,0 0,0 0,-0.0184 1.96063,-3.36101 10.18013,-6.66812 10.18013,-6.66812 0,0 24.18729,2.33653 38.94849,0.80882 z"
     id="path535"
     style="fill:#1c241f;stroke-width:0.999997" /><path
     fill="#fcd2b1"
     d="m 279.87897,424.01141 c 0.0942,1.0083 0.20747,1.97886 0.32049,2.92967 -0.92375,-0.91665 -0.90491,-1.92316 -0.32049,-2.92967 z"
     id="path537"
     style="stroke-width:1.46539" /><path
     id="path539"
     fill="#2a94f4"
     d="m 291.88022,406.04342 c 0,0 -8.57769,30.15033 -15.52469,32.25682 -3.98348,1.20782 -34.73691,-17.418 -34.73691,-17.418 l 6.90741,-4.22552 22.20591,6.44163 5.27105,-20.71071 z"
     style="fill:#ff80e5;stroke-width:1.46539" /><g
     id="g551"
     style="fill:#784421;stroke-width:0.543254"
     transform="matrix(1.8852113,0,0,1.7973372,-264.48334,29.388052)">
					<g
   id="g543"
   style="fill:#784421;stroke-width:0.543254">
						<path
   fill="#f1b99e"
   d="m 262.205,214.384 c -0.089,-0.242 -0.151,-0.497 -0.27,-0.729 -0.26,-0.504 -0.763,-0.842 -1.056,-1.327 -0.229,-0.381 -0.315,-0.827 -0.478,-1.24 -0.184,-0.47 -0.733,-1.182 -0.362,-1.365 -0.174,-0.279 -0.404,-0.583 -0.565,-0.87 -0.124,-0.217 -0.252,-0.667 0.026,-0.716 0.415,-0.071 1.024,0.32 1.358,0.487 0.445,0.222 1.238,0.921 1.653,1.189 0.939,0.608 1.842,0.699 1.842,0.699 0,0 -0.297,-0.278 -0.208,-0.495 0.138,-0.335 1.018,-0.095 1.854,-0.235 0.433,-0.074 1.837,0.846 2.286,1.095 0.449,0.25 1.464,2.342 1.702,2.766 0.623,1.112 2.554,1.994 2.554,1.994 0,0 -2.887,2.779 -2.901,2.794 -0.071,0.064 -0.604,-0.312 -0.673,-0.354 -0.286,-0.172 -0.637,-0.352 -0.976,-0.381 -1.389,-0.699 -3.124,-0.704 -4.416,-1.618 -0.592,-0.418 -1.098,-0.982 -1.358,-1.659 -0.004,-0.012 -0.008,-0.023 -0.012,-0.035 z"
   id="path541"
   style="fill:#784421;stroke-width:0.543254" />
					</g>
					<g
   id="g549"
   style="fill:#784421;stroke-width:0.543254">
						<g
   id="g547"
   style="fill:#784421;stroke-width:0.543254">
							<path
   id="path545"
   fill="#f2a19c"
   d="m 264.354,210.513 c 0.716,0.376 1.223,0.316 1.78,0.417 0.437,0.079 0.51,0.265 0.979,0.333 -0.55,0.301 -0.66,-0.066 -1.657,-0.114 -0.462,-0.023 -0.947,-0.058 -1.26,-0.404 -0.106,-0.119 0.004,-0.294 0.158,-0.232 z"
   style="fill:#784421;stroke-width:0.543254" />
						</g>
					</g>
				</g><path
     fill="#2a94f4"
     d="m 289.80083,412.72952 c -6.2174,0 -12.58567,-1.05323 -15.81126,-2.43358 1.67595,-16.478 5.98933,-26.30943 9.04336,-29.56979 1.9135,-2.04178 4.84876,-3.03931 7.64455,-2.42282 3.28592,0.72612 7.22978,3.44729 7.23166,12.32254 0.002,5.23024 -6.90175,20.1751 -8.10831,22.10365 z"
     id="path553"
     style="fill:#ff80e5;stroke-width:0.999997" /><g
     id="g559"
     style="fill:#ffd42a;stroke-width:0.543254"
     transform="matrix(1.8852113,0,0,1.7973372,-264.48334,29.388052)">
				<path
   fill="#0f2c3f"
   d="m 308.924,177.97 c -0.08,0.4 -0.69,0.33 -0.69,0.33 -0.47,-0.03 -0.96,-0.06 -1.43,-0.11 -0.06,0 -0.13,-0.01 -0.2,-0.01 -0.15,-0.02 -0.3,-0.03 -0.45,-0.04 -0.38,-0.05 -0.76,-0.09 -1.14,-0.14 -0.6,-0.08 -1.19,-0.16 -1.78,-0.26 -0.36,-0.061 -0.72,-0.12 -1.08,-0.19 -0.09,-0.01 -0.19,-0.03 -0.28,-0.05 -0.44,-0.08 -0.87,-0.17 -1.3,-0.26 0.02,-0.03 0.03,-0.051 0.04,-0.08 -0.45,-0.04 -0.92,-0.091 -1.42,-0.17 -0.23,-0.03 -0.45,-0.07 -0.69,-0.11 -0.18,-0.03 -0.36,-0.07 -0.55,-0.1 -0.04,0 -0.07,-0.011 -0.11,-0.011 -0.61,-0.1 -1.31,-0.22 -2.04,-0.359 -1.23,-0.221 -2.57,-0.48 -3.77,-0.73 -0.43,-0.09 -0.84,-0.18 -1.22,-0.28 -0.01,0 -0.02,0 -0.02,0 -1.37,-0.319 -2.4,-0.63 -2.63,-0.859 -0.62,-0.65 1.25,-1.07 2.15,-1.221 0.28,-0.06 0.46,-0.079 0.46,-0.079 l 0.01,0.01 c 0.11,-1.22 0.45,-3.141 1.55,-4.811 1.36,-2.08 3.86,-3.779 8.47,-3.3 0.58,0.07 1.12,0.15 1.63,0.26 l 0.01,0.011 c 7.99,1.68 6.89,8.93 6.14,11.75 0,-0.001 0.47,0.219 0.34,0.809 z"
   id="path555"
   style="fill:#ffd42a;stroke-width:0.543254" />
				<path
   fill="#ffb41d"
   d="m 300.614,177.16 c -0.01,0.029 -0.02,0.05 -0.04,0.08 -0.12,-0.021 -0.23,-0.051 -0.34,-0.07 -0.07,-0.01 -0.45,-0.08 -1.04,-0.18 0.5,0.079 0.97,0.13 1.42,0.17 z"
   id="path557"
   style="fill:#ffd42a;stroke-width:0.543254" />
			</g><path
     fill="#0f2c3f"
     d="m 296.959,451.60053 c -0.32049,0.0361 -0.69755,0.0719 -1.14998,0.10798 -0.0566,0 -5.44827,0.6111 -5.50482,0.6111 h -0.39591 c 0.7541,-0.0898 5.54254,-0.6111 5.59909,-0.6111 0.58442,-0.0558 1.07456,-0.0898 1.45162,-0.10798 z"
     id="path561"
     style="stroke-width:1.46539" /><path
     fill="#0f2c3f"
     d="m 298.37289,451.45675 c -0.20747,0.0358 -0.41475,0.0521 -0.69752,0.0719 0.28277,-0.0358 0.49016,-0.054 0.69752,-0.0719 z"
     id="path563"
     style="stroke-width:1.46539" /><g
     id="g897"
     transform="matrix(1.8852113,0,0,1.7973372,-325.92281,37.737803)"
     style="stroke-width:0.543254"><g
       id="g781"
       style="stroke-width:0.543254">
				<g
   id="g779"
   style="stroke-width:0.543254">
					<path
   fill="#424773"
   d="m 315.445,309.231 c 0,0 0.438,3.047 0.493,3.504 0.055,0.457 4.882,-0.27 4.882,-0.27 l 0.392,-3.626 c -10e-4,10e-4 -5.164,-0.037 -5.767,0.392 z"
   id="path777"
   style="stroke-width:0.796088" />
				</g>
			</g><g
       id="g787"
       style="fill:#241c1c;stroke-width:0.543254">
				<g
   id="g785"
   style="fill:#241c1c;stroke-width:0.543254">
					<path
   fill="#0e538c"
   d="m 315.887,312.348 c 0,0 -1.529,1.835 -3.008,2.636 -1.479,0.799 -3.804,1.117 -4.679,1.944 -0.632,0.599 -2.3,3.172 3.844,3.12 6.143,-0.052 9.104,0.363 9.762,-0.623 0.659,-0.987 -0.951,-7.283 -0.951,-7.283 0,0 -1.455,0.523 -4.968,0.206 z"
   id="path783"
   style="fill:#241c1c;stroke-width:0.543254" />
				</g>
			</g><g
       id="g793"
       style="stroke-width:0.543254">
				<g
   id="g791"
   style="stroke-width:0.543254">
					<path
   fill="#424773"
   d="m 282.86,309.231 c 0,0 0.439,3.047 0.493,3.504 0.055,0.457 4.882,-0.27 4.882,-0.27 l 0.391,-3.626 c 0,10e-4 -5.162,-0.037 -5.766,0.392 z"
   id="path789"
   style="stroke-width:0.796088" />
				</g>
			</g><g
       id="g799"
       style="fill:#241c1c;stroke-width:0.543254">
				<g
   id="g797"
   style="fill:#241c1c;stroke-width:0.543254">
					<path
   fill="#0e538c"
   d="m 283.302,312.348 c 0,0 -1.529,1.835 -3.008,2.636 -1.48,0.799 -6.923,1.457 -7.797,2.285 -0.631,0.598 -1.682,3.004 6.962,2.779 6.141,-0.161 9.105,0.363 9.762,-0.623 0.659,-0.987 -0.952,-7.283 -0.952,-7.283 0,0 -1.37,0.559 -4.967,0.206 z"
   id="path795"
   style="fill:#241c1c;stroke-width:0.543254" />
				</g>
			</g><g
       id="g805"
       style="fill:#0b1728;stroke-width:0.543254">
				<g
   id="g803"
   style="fill:#0b1728;stroke-width:0.543254">
					<path
   fill="#0b4870"
   d="m 321.464,311.729 -6.22,0.141 c 0,0 -5.22,-31.391 -6.58,-34.601 -0.96,-2.29 -4.66,-14.59 -6.78,-22.37 -0.85,-3.109 -1.44,-5.5 -1.51,-6.229 -0.1,-1.12 2.02,-4.66 4.42,-8.28 1.73,-0.03 3.49,-0.12 5.22,-0.28 1.65,-0.149 3.54,-0.159 5.08,-0.47 0.4,1.641 0.64,3.36 0.55,5.04 -0.34,6.521 1.65,13.63 2.33,20.43 0.76,7.591 3.86,25.551 3.98,29.61 0.11,4.05 -0.49,17.009 -0.49,17.009 z"
   id="path801"
   style="fill:#0b1728;stroke-width:0.543254" />
				</g>
			</g><g
       id="g815"
       style="fill:#0b1728;stroke-width:0.543254">
				<g
   id="g813"
   style="fill:#0b1728;stroke-width:0.543254">
					<path
   fill="#0b4870"
   d="m 310.014,240.109 c -1.86,4.181 -4.15,5.62 -6.17,10.16 -0.61,1.351 -1.28,2.91 -1.96,4.63 -2.77,6.94 -5.8,16.41 -5.8,24.721 0,10.359 -6.11,32.25 -6.11,32.25 h -7.95 c 0.6,-3.78 2.48,-33.811 2.7,-36.311 0.23,-2.49 0.53,-17.79 0.98,-21.779 0.25,-2.261 1.46,-8.961 2.46,-14.351 0,0 7.98,1.14 16.63,0.96 1.73,-0.03 3.49,-0.119 5.22,-0.28 z"
   id="path807"
   style="fill:#0b1728;stroke-width:0.543254" />
					<path
   fill="#292c47"
   d="m 297.814,234.91 c -0.17,0.02 -0.37,0.04 -0.61,0.06 -0.03,0 -2.89,0.34 -2.92,0.34 h -0.21 c 0.4,-0.05 2.94,-0.34 2.97,-0.34 0.31,-0.031 0.57,-0.05 0.77,-0.06 z"
   id="path809"
   style="fill:#0b1728;stroke-width:0.543254" />
					<path
   fill="#292c47"
   d="m 298.564,234.83 c -0.11,0.02 -0.22,0.029 -0.37,0.04 0.15,-0.02 0.26,-0.03 0.37,-0.04 z"
   id="path811"
   style="fill:#0b1728;stroke-width:0.543254" />
				</g>
			</g><path
       fill="#2a94f4"
       d="m 315.094,239.64 c -1.54,0.311 -3.43,0.32 -5.08,0.47 -1.73,0.16 -3.49,0.25 -5.22,0.28 -8.65,0.18 -16.63,-0.96 -16.63,-0.96 v -0.02 l 0.13,-2.07 0.16,-2.57 c 0.11,0.05 0.23,0.08 0.34,0.12 0.44,0.16 2.42,0.58 4.62,0.41 0.09,0.01 0.18,0.01 0.27,0 l 0.34,0.01 c 0,0 0.02,0 0.05,0 h 0.21 c 0.03,0 2.89,-0.34 2.92,-0.34 0.24,-0.02 0.44,-0.04 0.61,-0.06 0.07,0 0.13,-0.011 0.19,-0.021 0.02,0.01 0.03,0 0.04,0 0.05,-0.01 0.11,-0.01 0.15,-0.02 0.15,-0.011 0.26,-0.021 0.37,-0.04 h 0.04 c 0.09,-0.021 0.17,-0.021 0.26,-0.03 0.12,-0.01 0.23,-0.03 0.37,-0.04 0.02,0 0.05,0 0.08,-0.01 0.2,-0.021 0.44,-0.04 0.77,-0.07 0.1,0 0.21,-0.01 0.32,-0.02 h 0.02 c 1.26,-0.051 2.41,-0.11 3.45,-0.181 0.22,-0.02 0.43,-0.029 0.63,-0.04 0.49,-0.029 0.95,-0.069 1.39,-0.1 0.18,-0.01 0.35,-0.03 0.52,-0.04 1.2,-0.09 2.22,-0.19 3.07,-0.29 1.39,-0.17 2.33,-0.34 2.84,-0.51 0.14,-0.04 0.24,-0.08 0.31,-0.12 0.1,-0.061 0.34,-0.13 0.49,-0.23 0.53,1.33 1.04,3.091 1.37,4.4 0.16,0.5 0.32,1.01 0.46,1.53 0,0.029 0.01,0.05 0.02,0.08 0.09,0.281 0.15,0.472 0.12,0.482 z"
       id="path817"
       style="fill:#d5e5ff;stroke-width:0.543254" /><path
       fill="#e59a67"
       d="m 297.814,234.91 c -0.17,0.02 -0.37,0.04 -0.61,0.06 -0.03,0 -2.89,0.34 -2.92,0.34 h -0.21 c 0.4,-0.05 2.94,-0.34 2.97,-0.34 0.31,-0.031 0.57,-0.05 0.77,-0.06 z"
       id="path819"
       style="stroke-width:0.796088" /><path
       fill="#e59a67"
       d="m 298.564,234.83 c -0.11,0.02 -0.22,0.029 -0.37,0.04 0.15,-0.02 0.26,-0.03 0.37,-0.04 z"
       id="path821"
       style="stroke-width:0.796088" /><g
       id="g835"
       style="fill:#a05a2c;stroke-width:0.543254">
					<path
   fill="#f1b99e"
   d="m 303.354,190.47 c -0.57,0.24 -1.2,0.55 -1.82,0.9 -0.38,0.21 -0.6,0.72 -0.79,1.239 -0.21,0.58 -0.39,1.171 -0.73,1.381 -0.88,0.569 -3.98,3.64 -3.98,3.64 l 0.45,-4.92 0.37,-0.48 0.71,-0.93 -0.07,-0.84 c -0.14,0.06 -0.3,0.149 -0.44,0.25 0.02,-0.26 0.03,-0.55 0.04,-0.851 0.57,-0.189 1.09,-0.399 1.56,-0.609 0.22,0.99 0.36,2.17 0.36,2.17 z"
   id="path823"
   style="fill:#a05a2c;stroke-width:0.543254" />
					<path
   fill="#f1b99e"
   d="m 304.344,190.26 v 0.03 c -0.02,-0.01 -0.03,-0.021 -0.04,-0.03 z"
   id="path825"
   style="fill:#a05a2c;stroke-width:0.543254" />
					<path
   fill="#f1b99e"
   d="m 304.344,190.29 c -0.05,0.68 -0.06,1.02 -0.06,1.02 -0.2,0.15 -0.42,0.28 -0.64,0.391 -0.89,0.489 -1.92,0.77 -2.9,0.909 -0.51,0.07 -1,0.101 -1.46,0.101 0.65,-0.41 1.45,-0.9 2.25,-1.34 0.62,-0.351 1.25,-0.66 1.82,-0.9 h 0.02 c 0.29,-0.12 0.55,-0.21 0.8,-0.28 0,0 0.04,0.021 0.13,0.07 0.01,0.009 0.02,0.019 0.04,0.029 z"
   id="path827"
   style="fill:#a05a2c;stroke-width:0.543254" />
					<path
   fill="#f1b99e"
   d="m 306.894,189.7 -2.55,0.56 h -0.04 c -0.09,-0.05 -0.13,-0.07 -0.13,-0.07 -0.25,0.07 -0.51,0.16 -0.8,0.28 h -0.02 l -4.34,0.95 c 0,0 -0.14,-1.18 -0.36,-2.17 -0.12,-0.58 -0.27,-1.101 -0.44,-1.28 -0.02,-0.02 -0.04,-0.04 -0.07,-0.05 -0.01,-0.01 -0.02,-0.021 -0.03,-0.021 -0.31,0.11 -0.57,0.2 -0.75,0.271 -0.18,0.06 -0.28,0.09 -0.28,0.09 -0.99,0.29 -1.8,0.45 -2.2,0.41 -1.33,-0.13 -2.36,-4.58 -2.7,-4.94 -0.34,-0.359 -1.96,-0.77 -1.74,-1.33 0.22,-0.56 1.9,-3.989 1.12,-4.439 -0.52,-0.311 -0.17,-1.521 0.24,-2.54 0.01,0.01 0.01,0.02 0.01,0.02 0.4,0.261 0.77,0.471 1.1,0.641 0.45,0.229 0.84,0.39 1.19,0.5 -0.11,0.66 -0.18,1.38 -0.24,2.189 -0.14,2.011 0.3,3.34 0.67,3.15 0.27,-0.14 0.32,-2.021 0.43,-3.061 0.12,-1.05 0.78,-1.42 1.53,-0.319 0.76,1.1 0.35,1.71 0.5,3.68 0.13,1.811 1.5,2.87 2.57,3.4 0.09,0.05 0.18,0.09 0.26,0.13 0.43,0.189 1.55,0.229 2.76,0.21 h 0.01 c 0.09,0.01 0.16,0 0.25,0 0.71,-0.01 1.43,-0.05 2.06,-0.08 0.56,-0.04 1.05,-0.07 1.38,-0.1 0.04,1.969 0.61,3.919 0.61,3.919 z"
   id="path829"
   style="fill:#a05a2c;stroke-width:0.543254" />
					<path
   fill="#f1b99e"
   d="m 297.094,189.439 c 0.01,-0.409 0,-0.819 -0.01,-1.18 0,0 0.1,-0.03 0.28,-0.09 0.18,-0.07 0.44,-0.16 0.75,-0.271 0.01,0 0.02,0.011 0.03,0.021 0.03,0.01 0.05,0.03 0.07,0.05 0.17,0.18 0.32,0.7 0.44,1.28 -0.47,0.21 -0.99,0.42 -1.56,0.609 z"
   id="path831"
   style="fill:#a05a2c;stroke-width:0.543254" />
					<path
   fill="#f1b99e"
   d="m 296.751,191.953 c -0.11,0.24 0.27,0.471 0.93,0.61 l -0.12,-1.26 -0.07,-0.84 c -0.14,0.06 -0.3,0.149 -0.44,0.25 -0.01,0.069 -0.01,0.14 -0.02,0.199 -0.01,0.141 -0.05,0.32 -0.11,0.49 -0.06,0.232 -0.14,0.461 -0.17,0.551 z"
   id="path833"
   style="fill:#a05a2c;stroke-width:0.543254" />
				</g><g
       id="g841"
       style="fill:#a05a2c;stroke-width:0.543254">
					<path
   fill="#f1b99e"
   d="m 298.144,187.92 c -0.27,0.09 -0.53,0.17 -0.78,0.25 0.18,-0.07 0.44,-0.16 0.75,-0.271 0.01,0 0.02,0.011 0.03,0.021 z"
   id="path837"
   style="fill:#a05a2c;stroke-width:0.543254" />
					<path
   fill="#f1b99e"
   d="m 301.614,177.16 c -0.01,0.029 -0.02,0.05 -0.04,0.08 -0.12,-0.021 -0.23,-0.051 -0.34,-0.07 -0.07,-0.01 -0.45,-0.08 -1.04,-0.18 0.5,0.079 0.97,0.13 1.42,0.17 z"
   id="path839"
   style="fill:#a05a2c;stroke-width:0.543254" />
				</g><g
       id="g849"
       style="fill:#241f1c;stroke-width:0.543254">
					<path
   fill="#0e538c"
   d="m 307.604,178.18 c -0.29,2.271 -0.98,4.561 -1.23,6.061 -0.09,0.489 -0.11,1.02 -0.09,1.54 -0.33,0.029 -0.82,0.06 -1.38,0.1 -0.63,0.03 -1.35,0.07 -2.06,0.08 -0.09,0 -0.16,0.01 -0.25,0 h -0.01 c -1.21,0.02 -2.33,-0.021 -2.76,-0.21 -0.08,-0.04 -0.17,-0.08 -0.26,-0.13 -1.07,-0.53 -2.44,-1.59 -2.57,-3.4 -0.15,-1.97 0.26,-2.58 -0.5,-3.68 -0.75,-1.101 -1.41,-0.73 -1.53,0.319 -0.11,1.04 -0.16,2.921 -0.43,3.061 -0.37,0.189 -0.81,-1.14 -0.67,-3.15 0.06,-0.81 0.13,-1.529 0.24,-2.189 -0.35,-0.11 -0.74,-0.271 -1.19,-0.5 -0.33,-0.17 -0.7,-0.38 -1.1,-0.641 0,0 0,-0.01 -0.01,-0.02 0,-0.01 0.01,-0.01 0.01,-0.021 0.38,0.101 0.79,0.19 1.22,0.28 1.2,0.25 2.54,0.51 3.77,0.73 0.73,0.14 1.43,0.26 2.04,0.359 0.04,0 0.07,0.011 0.11,0.011 0.19,0.029 0.37,0.069 0.55,0.1 0.24,0.04 0.46,0.08 0.69,0.11 0.59,0.1 0.97,0.17 1.04,0.18 0.11,0.02 0.22,0.05 0.34,0.07 0.43,0.09 0.86,0.18 1.3,0.26 0.09,0.02 0.19,0.04 0.28,0.05 0.36,0.07 0.72,0.13 1.08,0.19 0.59,0.1 1.18,0.18 1.78,0.26 0.38,0.05 0.76,0.09 1.14,0.14 0.15,0.009 0.3,0.02 0.45,0.04 z"
   id="path843"
   style="fill:#241f1c;stroke-width:0.543254" />
					<path
   fill="#0b4870"
   d="m 301.614,177.16 c -0.01,0.029 -0.02,0.05 -0.04,0.08 -0.12,-0.021 -0.23,-0.051 -0.34,-0.07 -0.07,-0.01 -0.45,-0.08 -1.04,-0.18 0.5,0.079 0.97,0.13 1.42,0.17 z"
   id="path845"
   style="fill:#241f1c;stroke-width:0.543254" />
					<path
   fill="#0b4870"
   d="m 291.814,175.399 c 0,0.011 -0.01,0.011 -0.01,0.021 0,-0.01 0,-0.01 -0.01,-0.021 0,0 0.01,0 0.02,0 z"
   id="path847"
   style="fill:#241f1c;stroke-width:0.543254" />
				</g><path
       fill="#2a94f4"
       d="m 317.98,211.38 c 0,0 -1.018,12.938 -2.036,14.465 -1.017,1.526 -6.032,-0.509 -6.032,-0.509 l 2.617,-15.554"
       id="path851"
       style="stroke-width:0.796088" /><path
       fill="#2a94f4"
       d="m 317.743,214.174 c -0.985,0.113 -0.92,-1.572 -1.635,-1.572 -1.631,0 -2.556,-0.183 -2.556,-0.183 0,0 -0.933,0.828 -2.206,1.944 0.069,-0.602 0.157,-1.369 0.252,-2.276 0.026,-0.219 0.053,-0.453 0.079,-0.689 0.009,-0.043 0.009,-0.096 0.017,-0.139 0.018,-0.166 0.035,-0.331 0.053,-0.506 0.017,-0.218 0.043,-0.437 0.069,-0.672 0.062,-0.585 0.131,-1.204 0.201,-1.85 0.07,-0.654 0.14,-1.334 0.218,-2.041 0.043,-0.393 0.087,-0.784 0.122,-1.186 0.079,-0.681 0.158,-1.369 0.228,-2.059 0.035,-0.357 0.078,-0.724 0.113,-1.09 0.008,-0.026 0.008,-0.044 0.008,-0.062 0.027,-0.218 0.043,-0.428 0.07,-0.637 0.332,-3.175 0.654,-6.236 0.881,-8.417 1.413,0.855 4.222,3.166 4.536,8.408 0.026,0.287 0.043,0.602 0.052,0.941 0.147,2.585 0.019,8.315 -0.502,12.086 z"
       id="path853"
       style="fill:#d5e5ff;stroke-width:0.543254" /><path
       fill="#f1b99e"
       d="m 304.304,190.26 -0.93,0.21 c 0.29,-0.12 0.55,-0.21 0.8,-0.28 0,-0.001 0.04,0.02 0.13,0.07 z"
       id="path855"
       style="stroke-width:0.796088" /><path
       fill="#f1b99e"
       d="m 301.614,177.16 c -0.01,0.029 -0.02,0.05 -0.04,0.08 -0.12,-0.021 -0.23,-0.051 -0.34,-0.07 -0.07,-0.01 -0.45,-0.08 -1.04,-0.18 0.5,0.079 0.97,0.13 1.42,0.17 z"
       id="path857"
       style="stroke-width:0.796088" /><path
       fill="#2a94f4"
       d="m 308.862,192.173 c 0,0 -0.232,-1.829 -0.927,-2.478 -0.695,-0.649 -5.327,-0.648 -6.716,-0.476 -1.39,0.174 -4.816,1.772 -5.269,2.11 -0.453,0.337 0.44,2.096 0.44,2.096 z"
       id="path859"
       style="fill:#d5e5ff;stroke-width:0.543254" /><path
       fill="#0f2c3f"
       d="m 313.154,232 c 0.07,0.39 0.17,0.7 0.1,0.99 -0.01,0.06 -0.06,0.119 -0.13,0.159 -0.15,0.101 -0.39,0.17 -0.49,0.23 -0.07,0.04 -0.17,0.08 -0.31,0.12 -0.51,0.17 -1.45,0.34 -2.84,0.51 -0.85,0.1 -1.87,0.2 -3.07,0.29 -0.17,0.01 -0.34,0.03 -0.52,0.04 -0.44,0.03 -0.9,0.07 -1.39,0.1 -0.2,0.011 -0.41,0.021 -0.63,0.04 -1.04,0.07 -2.19,0.13 -3.45,0.181 h -0.02 c -0.11,0.01 -0.22,0.02 -0.32,0.02 -0.33,0.03 -0.57,0.05 -0.77,0.07 -0.03,0.01 -0.06,0.01 -0.08,0.01 -0.14,0.01 -0.25,0.03 -0.37,0.04 -0.09,0.01 -0.17,0.01 -0.26,0.03 h -0.04 c -0.11,0.01 -0.22,0.02 -0.37,0.04 -0.04,0.01 -0.1,0.01 -0.15,0.02 -0.01,0 -0.02,0.01 -0.04,0 -0.06,0.01 -0.12,0.021 -0.19,0.021 -0.2,0.01 -0.46,0.029 -0.77,0.06 -0.03,0 -2.57,0.29 -2.97,0.34 -0.03,0 -0.05,0 -0.05,0 l -0.34,-0.01 h -0.27 c -2.2,0.17 -4.18,-0.25 -4.62,-0.41 -0.11,-0.04 -0.23,-0.07 -0.34,-0.12 -0.13,-0.05 -0.24,-0.13 -0.29,-0.279 -0.19,-0.44 0.6,-2.83 0.65,-3.53 0.05,-0.891 0.2,-1.86 0.29,-2.66 0.12,-1.81 0.24,-3.73 0,-5.58 -0.06,-0.5 -0.12,-1.01 -0.18,-1.53 0.54,0.57 1.69,1.091 3.71,1.48 4.67,0.92 10.07,1.12 14.42,1.07 2.58,-0.021 4.8,-0.131 6.26,-0.23 -0.23,1.3 -0.41,2.46 -0.54,3.48 -0.18,1.329 0.05,2.659 0.21,3.97 0.03,0.308 0.13,0.738 0.17,1.038 z"
       id="path861"
       style="fill:#1c241f;stroke-width:0.543254" /><path
       fill="#0f2c3f"
       d="m 317.664,199.899 v 0.061 c -0.1,1.59 -0.36,3.45 -0.69,5.46 -7.8,0.85 -20.71,-0.45 -20.71,-0.45 0,0 -11.55,4.87 -1.52,6.83 7.57,1.48 17.01,1.1 20.84,0.82 -0.25,1.239 -0.52,2.46 -0.77,3.66 v 0.01 c -7.83,0.85 -20.66,-0.45 -20.66,-0.45 0,0 -4.36,1.84 -5.4,3.71 -0.66,-6.29 -1.15,-13.74 -0.87,-18.52 0.03,-0.44 0.07,-0.86 0.12,-1.24 0.49,-3.74 3.57,-6.63 9.71,-7.811 2.78,-0.55 6.18,-0.729 10.26,-0.489 0,0 10.28,-0.881 9.69,8.409 z"
       id="path863"
       style="fill:#1c241f;stroke-width:0.543254" /><path
       fill="#fcd2b1"
       d="m 316.974,205.42 c -0.09,0.56 -0.19,1.14 -0.3,1.72 -0.22,1.19 -0.45,2.41 -0.71,3.63 -0.12,0.62 -0.25,1.23 -0.38,1.851 -3.83,0.279 -13.27,0.66 -20.84,-0.82 -10.03,-1.96 1.52,-6.83 1.52,-6.83 0,0 12.91,1.299 20.71,0.449 z"
       id="path865"
       style="fill:#1c241f;stroke-width:0.543254" /><path
       fill="#fcd2b1"
       d="m 314.814,216.29 c -0.13,0.59 -0.26,1.17 -0.38,1.74 -0.32,1.46 -0.6,2.85 -0.85,4.1 -0.09,0.479 -0.18,0.939 -0.27,1.38 -3.92,0.271 -13.23,0.62 -20.68,-0.84 -2.02,-0.39 -3.17,-0.91 -3.71,-1.48 -0.06,-0.529 -0.12,-1.069 -0.17,-1.63 0,0 0,0 0,-0.01 1.04,-1.87 5.4,-3.71 5.4,-3.71 0,0 12.83,1.3 20.66,0.45 z"
       id="path867"
       style="fill:#1c241f;stroke-width:0.543254" /><path
       fill="#fcd2b1"
       d="m 288.754,219.56 c 0.05,0.561 0.11,1.101 0.17,1.63 -0.49,-0.51 -0.48,-1.07 -0.17,-1.63 z"
       id="path869"
       style="stroke-width:0.796088" /><path
       id="path871"
       fill="#2a94f4"
       d="m 295.12,209.563 c 0,0 -4.55,16.775 -8.235,17.947 -2.113,0.672 -18.426,-9.691 -18.426,-9.691 l 3.664,-2.351 11.779,3.584 2.796,-11.523 z"
       style="stroke-width:0.796088" /><g
       id="g883"
       style="fill:#784421;stroke-width:0.543254">
					<g
   id="g875"
   style="fill:#784421;stroke-width:0.543254">
						<path
   fill="#f1b99e"
   d="m 262.205,214.384 c -0.089,-0.242 -0.151,-0.497 -0.27,-0.729 -0.26,-0.504 -0.763,-0.842 -1.056,-1.327 -0.229,-0.381 -0.315,-0.827 -0.478,-1.24 -0.184,-0.47 -0.733,-1.182 -0.362,-1.365 -0.174,-0.279 -0.404,-0.583 -0.565,-0.87 -0.124,-0.217 -0.252,-0.667 0.026,-0.716 0.415,-0.071 1.024,0.32 1.358,0.487 0.445,0.222 1.238,0.921 1.653,1.189 0.939,0.608 1.842,0.699 1.842,0.699 0,0 -0.297,-0.278 -0.208,-0.495 0.138,-0.335 1.018,-0.095 1.854,-0.235 0.433,-0.074 1.837,0.846 2.286,1.095 0.449,0.25 1.464,2.342 1.702,2.766 0.623,1.112 2.554,1.994 2.554,1.994 0,0 -2.887,2.779 -2.901,2.794 -0.071,0.064 -0.604,-0.312 -0.673,-0.354 -0.286,-0.172 -0.637,-0.352 -0.976,-0.381 -1.389,-0.699 -3.124,-0.704 -4.416,-1.618 -0.592,-0.418 -1.098,-0.982 -1.358,-1.659 -0.004,-0.012 -0.008,-0.023 -0.012,-0.035 z"
   id="path873"
   style="fill:#784421;stroke-width:0.543254" />
					</g>
					<g
   id="g881"
   style="fill:#784421;stroke-width:0.543254">
						<g
   id="g879"
   style="fill:#784421;stroke-width:0.543254">
							<path
   id="path877"
   fill="#f2a19c"
   d="m 264.354,210.513 c 0.716,0.376 1.223,0.316 1.78,0.417 0.437,0.079 0.51,0.265 0.979,0.333 -0.55,0.301 -0.66,-0.066 -1.657,-0.114 -0.462,-0.023 -0.947,-0.058 -1.26,-0.404 -0.106,-0.119 0.004,-0.294 0.158,-0.232 z"
   style="fill:#784421;stroke-width:0.543254" />
						</g>
					</g>
				</g><path
       fill="#2a94f4"
       d="m 294.017,213.283 c -3.298,0 -6.676,-0.586 -8.387,-1.354 0.889,-9.168 3.177,-14.638 4.797,-16.452 1.015,-1.136 2.572,-1.691 4.055,-1.348 1.743,0.404 3.835,1.918 3.836,6.856 0.001,2.91 -3.661,11.225 -4.301,12.298 z"
       id="path885"
       style="fill:#d5e5ff;stroke-width:0.543254" /><g
       id="g891"
       style="fill:#ffd42a;stroke-width:0.543254">
				<path
   fill="#0f2c3f"
   d="m 308.924,177.97 c -0.08,0.4 -0.69,0.33 -0.69,0.33 -0.47,-0.03 -0.96,-0.06 -1.43,-0.11 -0.06,0 -0.13,-0.01 -0.2,-0.01 -0.15,-0.02 -0.3,-0.03 -0.45,-0.04 -0.38,-0.05 -0.76,-0.09 -1.14,-0.14 -0.6,-0.08 -1.19,-0.16 -1.78,-0.26 -0.36,-0.061 -0.72,-0.12 -1.08,-0.19 -0.09,-0.01 -0.19,-0.03 -0.28,-0.05 -0.44,-0.08 -0.87,-0.17 -1.3,-0.26 0.02,-0.03 0.03,-0.051 0.04,-0.08 -0.45,-0.04 -0.92,-0.091 -1.42,-0.17 -0.23,-0.03 -0.45,-0.07 -0.69,-0.11 -0.18,-0.03 -0.36,-0.07 -0.55,-0.1 -0.04,0 -0.07,-0.011 -0.11,-0.011 -0.61,-0.1 -1.31,-0.22 -2.04,-0.359 -1.23,-0.221 -2.57,-0.48 -3.77,-0.73 -0.43,-0.09 -0.84,-0.18 -1.22,-0.28 -0.01,0 -0.02,0 -0.02,0 -1.37,-0.319 -2.4,-0.63 -2.63,-0.859 -0.62,-0.65 1.25,-1.07 2.15,-1.221 0.28,-0.06 0.46,-0.079 0.46,-0.079 l 0.01,0.01 c 0.11,-1.22 0.45,-3.141 1.55,-4.811 1.36,-2.08 3.86,-3.779 8.47,-3.3 0.58,0.07 1.12,0.15 1.63,0.26 l 0.01,0.011 c 7.99,1.68 6.89,8.93 6.14,11.75 0,-0.001 0.47,0.219 0.34,0.809 z"
   id="path887"
   style="fill:#ffd42a;stroke-width:0.543254" />
				<path
   fill="#ffb41d"
   d="m 300.614,177.16 c -0.01,0.029 -0.02,0.05 -0.04,0.08 -0.12,-0.021 -0.23,-0.051 -0.34,-0.07 -0.07,-0.01 -0.45,-0.08 -1.04,-0.18 0.5,0.079 0.97,0.13 1.42,0.17 z"
   id="path889"
   style="fill:#ffd42a;stroke-width:0.543254" />
			</g><path
       fill="#0f2c3f"
       d="m 297.814,234.91 c -0.17,0.02 -0.37,0.04 -0.61,0.06 -0.03,0 -2.89,0.34 -2.92,0.34 h -0.21 c 0.4,-0.05 2.94,-0.34 2.97,-0.34 0.31,-0.031 0.57,-0.05 0.77,-0.06 z"
       id="path893"
       style="stroke-width:0.796088" /><path
       fill="#0f2c3f"
       d="m 298.564,234.83 c -0.11,0.02 -0.22,0.029 -0.37,0.04 0.15,-0.02 0.26,-0.03 0.37,-0.04 z"
       id="path895"
       style="stroke-width:0.796088" /></g></g></svg>
