<?xml version="1.0" encoding="UTF-8" standalone="no"?>
<svg
   width="566.77954"
   height="378.94907"
   viewBox="0 0 149.96042 100.26361"
   version="1.1"
   id="svg8"
   sodipodi:docname="ANVIL-SCROLL.svg"
   inkscape:version="1.1.2 (b8e25be833, 2022-02-05)"
   xmlns:inkscape="http://www.inkscape.org/namespaces/inkscape"
   xmlns:sodipodi="http://sodipodi.sourceforge.net/DTD/sodipodi-0.dtd"
   xmlns="http://www.w3.org/2000/svg"
   xmlns:svg="http://www.w3.org/2000/svg"
   xmlns:rdf="http://www.w3.org/1999/02/22-rdf-syntax-ns#"
   xmlns:cc="http://creativecommons.org/ns#"
   xmlns:dc="http://purl.org/dc/elements/1.1/">
  <sodipodi:namedview
     id="namedview40"
     pagecolor="#ffffff"
     bordercolor="#666666"
     borderopacity="1.0"
     inkscape:pageshadow="2"
     inkscape:pageopacity="0.0"
     inkscape:pagecheckerboard="0"
     showgrid="false"
     inkscape:zoom="0.69973795"
     inkscape:cx="282.96307"
     inkscape:cy="352.98929"
     inkscape:window-width="1920"
     inkscape:window-height="974"
     inkscape:window-x="-11"
     inkscape:window-y="-11"
     inkscape:window-maximized="1"
     inkscape:current-layer="svg8" />
  <defs
     id="defs2">
    <clipPath
       clipPathUnits="userSpaceOnUse"
       id="clipPath864">
      <path
         d="M 0,0 H 504 V 656.64 H 0 Z"
         id="path862" />
    </clipPath>
    <clipPath
       clipPathUnits="userSpaceOnUse"
       id="clipPath884">
      <path
         d="M 32768,32768 H -32768 V -32768 H 32768 Z"
         id="path882" />
    </clipPath>
  </defs>
  <metadata
     id="metadata5">
    <rdf:RDF>
      <cc:Work
         rdf:about="">
        <dc:format>image/svg+xml</dc:format>
        <dc:type
           rdf:resource="http://purl.org/dc/dcmitype/StillImage" />
        <dc:title />
      </cc:Work>
    </rdf:RDF>
  </metadata>
  <g
     id="layer1"
     transform="translate(281.73165,109.82564)">
    <g
       id="g856"
       transform="matrix(0.35277777,0,0,-0.35277777,-51.10238,245.09186)">
      <g
         id="g858">
        <g
           id="g860"
           clip-path="url(#clipPath864)">
          <g
             id="g866">
            <text
               transform="matrix(1,0,0,-1,604,330.345)"
               style="font-variant:normal;font-weight:normal;font-size:9px;font-family:Helvetica;-inkscape-font-specification:Helvetica;writing-mode:lr-tb;fill:#000000;fill-opacity:1;fill-rule:nonzero;stroke:none"
               id="text870"><tspan
                 x="0 5.0040002 7.506 12.51 17.514 22.518 27.521999 32.526001 37.529999 42.534 47.537998"
                 y="0"
                 id="tspan868">ptg18144529</tspan></text>
          </g>
        </g>
      </g>
    </g>
    <g
       id="g876"
       transform="matrix(0.35277777,0,0,-0.35277777,-51.10238,245.09186)">
      <g
         id="g878">
        <g
           id="g880"
           clip-path="url(#clipPath884)">
          <g
             id="g886" />
        </g>
      </g>
    </g>
    <g
       id="g238">
      <rect
         style="fill:#ffffff;stroke:#000000;stroke-width:1.05589"
         id="rect995"
         width="148.90453"
         height="99.207718"
         x="-281.2037"
         y="-109.29769" />
      <path
         d="m -258.445,-36.602937 h 1.23718 l 3.35189,-8.63148 -0.61859,-1.424194 h 1.30911 l 3.91293,10.055674 h 1.2228 v 0.129472 h -3.7547 v -0.129472 h 1.28034 l -1.38104,-3.538907 h -3.78346 l -1.38104,3.538907 h 1.26595 v 0.129472 h -2.66137 z m 6.51677,-3.682765 -1.84139,-4.747314 h -0.0144 l -1.827,4.747314 h 3.68277 z"
         style="font-style:normal;font-variant:normal;font-weight:normal;font-stretch:normal;font-size:14.3858px;line-height:1.25;font-family:Moriarty;-inkscape-font-specification:'Moriarty, Normal';font-variant-ligatures:normal;font-variant-caps:normal;font-variant-numeric:normal;font-variant-east-asian:normal;fill:#453748;fill-opacity:1;stroke-width:0.264583"
         id="path69" />
      <path
         d="m -247.64127,-36.602937 h 1.38103 v -9.206912 l -1.38103,-0.819991 v -0.02877 h 2.30173 l 5.9701,10.041288 v -9.911816 h -1.38103 v -0.129472 h 2.90593 v 0.129472 h -1.38104 v 10.055674 h -1.38104 l -5.50976,-9.206912 v 0 9.07744 h 1.38104 v 0.129472 h -2.90593 z"
         style="font-style:normal;font-variant:normal;font-weight:normal;font-stretch:normal;font-size:14.3858px;line-height:1.25;font-family:Moriarty;-inkscape-font-specification:'Moriarty, Normal';font-variant-ligatures:normal;font-variant-caps:normal;font-variant-numeric:normal;font-variant-east-asian:normal;fill:#453748;fill-opacity:1;stroke-width:0.264583"
         id="path71" />
      <path
         d="m -227.34293,-46.658611 v 0.129472 h -1.25157 l -3.16488,10.055674 h -1.23717 l -3.15049,-10.055674 h -1.23718 v -0.129472 h 3.72592 v 0.129472 h -1.26595 l 3.07856,9.926202 3.10733,-9.926202 h -1.51051 v -0.129472 z"
         style="font-style:normal;font-variant:normal;font-weight:normal;font-stretch:normal;font-size:14.3858px;line-height:1.25;font-family:Moriarty;-inkscape-font-specification:'Moriarty, Normal';font-variant-ligatures:normal;font-variant-caps:normal;font-variant-numeric:normal;font-variant-east-asian:normal;fill:#453748;fill-opacity:1;stroke-width:0.264583"
         id="path73" />
      <path
         d="m -226.70997,-36.602937 h 1.23718 q 0.0144,0 0.0144,-0.01439 v -9.89743 q 0,-0.01439 -0.0144,-0.01439 h -1.23718 v -0.129472 h 3.69715 v 0.129472 H -224.25 q -0.0144,0 -0.0144,0.01439 v 9.89743 q 0,0.01439 0.0144,0.01439 h 1.23718 v 0.129472 h -3.69715 z"
         style="font-style:normal;font-variant:normal;font-weight:normal;font-stretch:normal;font-size:14.3858px;line-height:1.25;font-family:Moriarty;-inkscape-font-specification:'Moriarty, Normal';font-variant-ligatures:normal;font-variant-caps:normal;font-variant-numeric:normal;font-variant-east-asian:normal;fill:#453748;fill-opacity:1;stroke-width:0.264583"
         id="path75" />
      <path
         d="m -222.27915,-36.602937 h 1.23718 q 0.0144,0 0.0144,-0.01439 v -9.89743 q 0,-0.01439 -0.0144,-0.01439 h -1.23718 v -0.129472 h 3.69716 v 0.129472 h -1.23718 q -0.0144,0 -0.0144,0.01439 v 9.89743 h 3.04979 q 0.23017,0 0.41719,-0.08631 0.2014,-0.08631 0.41719,-0.34526 0.21578,-0.244558 0.5035,-0.676132 0.28772,-0.44596 0.71929,-1.150864 h 0.0288 l -0.24456,2.402428 h -7.33676 z"
         style="font-style:normal;font-variant:normal;font-weight:normal;font-stretch:normal;font-size:14.3858px;line-height:1.25;font-family:Moriarty;-inkscape-font-specification:'Moriarty, Normal';font-variant-ligatures:normal;font-variant-caps:normal;font-variant-numeric:normal;font-variant-east-asian:normal;fill:#453748;fill-opacity:1;stroke-width:0.264583"
         id="path77" />
      <path
         d="m -213.79153,-41.940069 h 3.98487 v 0.287716 h -3.98487 z"
         style="font-style:normal;font-variant:normal;font-weight:normal;font-stretch:normal;font-size:14.3858px;line-height:1.25;font-family:Moriarty;-inkscape-font-specification:'Moriarty, Normal';font-variant-ligatures:normal;font-variant-caps:normal;font-variant-numeric:normal;font-variant-east-asian:normal;stroke-width:0.264583"
         id="path79" />
      <path
         d="m -208.5695,-37.120826 -0.17263,-1.726296 h 0.0288 q 0.64737,0.791219 1.09333,1.265951 0.44596,0.474731 0.79121,0.71929 0.35965,0.258944 0.66175,0.330873 0.31649,0.08631 0.69052,0.08631 0.41719,0 0.79122,-0.143858 0.37403,-0.143858 0.66175,-0.417188 0.28771,-0.27333 0.44596,-0.661747 0.17262,-0.402803 0.17262,-0.89192 0,-0.791219 -0.5035,-1.337879 -0.5035,-0.561046 -1.22279,-0.89192 l -1.56805,-0.71929 q -0.37403,-0.172629 -0.73368,-0.402802 -0.34526,-0.244559 -0.61859,-0.575432 -0.25894,-0.330874 -0.41719,-0.733676 -0.15824,-0.417188 -0.15824,-0.935077 0,-0.647361 0.23017,-1.136478 0.24456,-0.503503 0.64736,-0.834377 0.41719,-0.345259 0.96385,-0.517889 0.54666,-0.187015 1.17964,-0.187015 0.63297,0 1.22279,0.143858 0.6042,0.143858 1.10771,0.345259 l 0.14386,1.539281 h -0.0288 q -0.5035,-0.561046 -0.87753,-0.920691 -0.37403,-0.359645 -0.67613,-0.575432 -0.3021,-0.215787 -0.56105,-0.302102 -0.24456,-0.08631 -0.47473,-0.08631 -0.24456,0 -0.57543,0.08631 -0.33088,0.08631 -0.63298,0.302102 -0.3021,0.215787 -0.51789,0.589817 -0.21578,0.374031 -0.21578,0.949463 0,0.489118 0.15824,0.848763 0.15824,0.345259 0.4028,0.604203 0.24456,0.244559 0.54666,0.431574 0.31649,0.17263 0.60421,0.302102 l 1.36665,0.632975 q 0.3021,0.143858 0.67613,0.374031 0.37403,0.215787 0.7049,0.561046 0.33088,0.345259 0.54667,0.834377 0.23017,0.489117 0.23017,1.165249 0,0.676133 -0.25895,1.194022 -0.25894,0.503503 -0.69052,0.834376 -0.41718,0.34526 -0.96384,0.503503 -0.54666,0.17263 -1.1221,0.17263 -0.46034,0 -0.89192,-0.08631 -0.43157,-0.07193 -0.83437,-0.201401 -0.38842,-0.115086 -0.73368,-0.258944 -0.34526,-0.143858 -0.61859,-0.273331 z"
         style="font-style:normal;font-variant:normal;font-weight:normal;font-stretch:normal;font-size:14.3858px;line-height:1.25;font-family:Moriarty;-inkscape-font-specification:'Moriarty, Normal';font-variant-ligatures:normal;font-variant-caps:normal;font-variant-numeric:normal;font-variant-east-asian:normal;fill:#164450;stroke-width:0.264583"
         id="path81" />
      <path
         d="m -201.53485,-41.580424 q 0,-1.150864 0.35964,-2.114712 0.37403,-0.963849 1.00701,-1.654368 0.63297,-0.704904 1.48174,-1.09332 0.86314,-0.388417 1.84138,-0.388417 0.9063,0 1.71191,0.201401 0.81999,0.187016 1.30911,0.374031 l 0.12947,1.568052 h -0.0288 q -0.63298,-0.589818 -1.06455,-0.978234 -0.41719,-0.388417 -0.74806,-0.61859 -0.33088,-0.230172 -0.63298,-0.316487 -0.28772,-0.100701 -0.66175,-0.100701 -0.64736,0 -1.26595,0.316488 -0.61859,0.316487 -1.1077,0.963848 -0.47473,0.632976 -0.76245,1.596824 -0.28772,0.949463 -0.28772,2.244185 0,1.251565 0.28772,2.215413 0.28772,0.949463 0.77683,1.61121 0.48912,0.647361 1.10771,0.978235 0.63297,0.345259 1.30911,0.345259 0.31648,0 0.57543,-0.08631 0.25894,-0.07193 0.57543,-0.287716 0.31649,-0.215787 0.76245,-0.604204 0.44596,-0.388416 1.13648,-1.021392 h 0.0288 l -0.12947,1.553667 q -0.21579,0.08631 -0.56105,0.187015 -0.34526,0.100701 -0.74806,0.187016 -0.38842,0.08632 -0.83438,0.143858 -0.43157,0.05754 -0.83437,0.05754 -1.00701,0 -1.87016,-0.359645 -0.86315,-0.359645 -1.51051,-1.035778 -0.63297,-0.690518 -0.99262,-1.668753 -0.35964,-0.978234 -0.35964,-2.215413 z"
         style="font-style:normal;font-variant:normal;font-weight:normal;font-stretch:normal;font-size:14.3858px;line-height:1.25;font-family:Moriarty;-inkscape-font-specification:'Moriarty, Normal';font-variant-ligatures:normal;font-variant-caps:normal;font-variant-numeric:normal;font-variant-east-asian:normal;fill:#0b2228;stroke-width:0.264583"
         id="path83" />
      <path
         d="m -193.01846,-36.602937 h 1.23718 q 0.0144,0 0.0144,-0.01439 v -9.89743 q 0,-0.01439 -0.0144,-0.01439 h -1.23718 v -0.129472 h 4.24381 q 0.83438,0 1.45297,0.215787 0.61859,0.201401 1.02139,0.575432 0.41719,0.359645 0.61859,0.848762 0.21578,0.489117 0.21578,1.050163 0,0.589818 -0.21578,1.078935 -0.2014,0.489118 -0.63298,0.848763 -0.41719,0.345259 -1.05016,0.54666 -0.63298,0.187015 -1.48174,0.187015 h -0.66175 l 1.66876,0.517889 2.45997,3.481364 0.99262,0.805605 v 0.02877 h -1.75507 l -3.52452,-4.819243 h -0.90631 v 4.675385 q 0,0.01439 0.0144,0.01439 h 1.23718 v 0.129472 h -3.69715 z m 3.82662,-4.804857 q 1.19402,0 1.85577,-0.575432 0.66175,-0.589818 0.66175,-1.956469 0,-0.676133 -0.17263,-1.16525 -0.17263,-0.489117 -0.48912,-0.805605 -0.3021,-0.316487 -0.71929,-0.460345 -0.4028,-0.158244 -0.87753,-0.158244 h -1.63999 v 5.121345 z"
         style="font-style:normal;font-variant:normal;font-weight:normal;font-stretch:normal;font-size:14.3858px;line-height:1.25;font-family:Moriarty;-inkscape-font-specification:'Moriarty, Normal';font-variant-ligatures:normal;font-variant-caps:normal;font-variant-numeric:normal;font-variant-east-asian:normal;fill:#0b2228;stroke-width:0.264583"
         id="path85" />
      <path
         d="m -183.35123,-41.566038 q 0,-1.150864 0.35965,-2.114713 0.35964,-0.963848 0.97823,-1.668753 0.63298,-0.704904 1.48174,-1.09332 0.86315,-0.388417 1.87015,-0.388417 1.00701,0 1.85577,0.388417 0.86315,0.388416 1.48174,1.09332 0.63297,0.704905 0.99262,1.668753 0.35964,0.963849 0.35964,2.114713 0,1.150864 -0.35964,2.114713 -0.35965,0.963848 -0.99262,1.668752 -0.61859,0.690519 -1.48174,1.078936 -0.84876,0.402802 -1.85577,0.402802 -1.007,0 -1.87015,-0.402802 -0.84876,-0.388417 -1.48174,-1.078936 -0.61859,-0.704904 -0.97823,-1.668752 -0.35965,-0.963849 -0.35965,-2.114713 z m 8.09921,0 q 0,-1.16525 -0.27333,-2.100327 -0.27333,-0.949463 -0.74806,-1.625595 -0.46035,-0.676133 -1.09333,-1.035778 -0.61858,-0.374031 -1.3091,-0.374031 -0.69052,0 -1.30911,0.374031 -0.6042,0.359645 -1.06455,1.035778 -0.46035,0.676132 -0.73368,1.639981 -0.27333,0.949463 -0.27333,2.114713 0,1.165249 0.27333,2.114712 0.27333,0.935077 0.73368,1.61121 0.47473,0.661747 1.09332,1.021392 0.63298,0.359645 1.32349,0.359645 0.67614,0 1.28034,-0.374031 0.61859,-0.359645 1.07894,-1.021392 0.47473,-0.676133 0.74806,-1.625595 0.27333,-0.949463 0.27333,-2.114713 z"
         style="font-style:normal;font-variant:normal;font-weight:normal;font-stretch:normal;font-size:14.3858px;line-height:1.25;font-family:Moriarty;-inkscape-font-specification:'Moriarty, Normal';font-variant-ligatures:normal;font-variant-caps:normal;font-variant-numeric:normal;font-variant-east-asian:normal;fill:#0b2228;stroke-width:0.264583"
         id="path87" />
      <path
         d="m -173.58329,-36.602937 h 1.23718 q 0.0144,0 0.0144,-0.01439 v -9.89743 q 0,-0.01439 -0.0144,-0.01439 h -1.23718 v -0.129472 h 3.69715 v 0.129472 h -1.23718 q -0.0144,0 -0.0144,0.01439 v 9.89743 h 3.04979 q 0.23017,0 0.41719,-0.08631 0.2014,-0.08631 0.41718,-0.34526 0.21579,-0.244558 0.50351,-0.676132 0.28771,-0.44596 0.71929,-1.150864 h 0.0288 l -0.24456,2.402428 h -7.33676 z"
         style="font-style:normal;font-variant:normal;font-weight:normal;font-stretch:normal;font-size:14.3858px;line-height:1.25;font-family:Moriarty;-inkscape-font-specification:'Moriarty, Normal';font-variant-ligatures:normal;font-variant-caps:normal;font-variant-numeric:normal;font-variant-east-asian:normal;fill:#0b2228;stroke-width:0.264583"
         id="path89" />
      <path
         d="m -165.62795,-36.602937 h 1.23718 q 0.0144,0 0.0144,-0.01439 v -9.89743 q 0,-0.01439 -0.0144,-0.01439 h -1.23718 v -0.129472 h 3.69715 v 0.129472 h -1.23718 q -0.0144,0 -0.0144,0.01439 v 9.89743 h 3.04979 q 0.23017,0 0.41718,-0.08631 0.20141,-0.08631 0.41719,-0.34526 0.21579,-0.244558 0.50351,-0.676132 0.28771,-0.44596 0.71929,-1.150864 h 0.0288 l -0.24456,2.402428 h -7.33676 z"
         style="font-style:normal;font-variant:normal;font-weight:normal;font-stretch:normal;font-size:14.3858px;line-height:1.25;font-family:Moriarty;-inkscape-font-specification:'Moriarty, Normal';font-variant-ligatures:normal;font-variant-caps:normal;font-variant-numeric:normal;font-variant-east-asian:normal;fill:#0b2228;stroke-width:0.264583"
         id="path91" />
      <circle
         style="fill:#164450;stroke:#000000;stroke-width:1.46391"
         id="path1361"
         cx="-237.0854"
         cy="-72.246559"
         r="20.140961" />
      <circle
         style="fill:#453748;stroke:#000000;stroke-width:1.46391"
         id="circle106"
         cx="-219.09373"
         cy="-72.246559"
         r="20.140961" />
      <circle
         style="fill:#453748;stroke:#000000;stroke-width:1.46391"
         id="circle108"
         cx="-219.09373"
         cy="-72.246559"
         r="20.140961" />
      <circle
         style="fill:#453748;stroke:#000000;stroke-width:1.46391"
         id="circle110"
         cx="-219.09373"
         cy="-72.246559"
         r="20.140961" />
      <circle
         style="fill:#374548;stroke:#000000;stroke-width:1.46391"
         id="circle114"
         cx="-199.51457"
         cy="-72.246559"
         r="20.140961" />
      <circle
         style="fill:#53676c;stroke:#000000;stroke-width:1.46391"
         id="circle116"
         cx="-180.72916"
         cy="-72.246559"
         r="20.140961" />
    </g>
  </g>
</svg>
