<?xml version="1.0" encoding="UTF-8" standalone="no"?>
<svg
   xmlns:dc="http://purl.org/dc/elements/1.1/"
   xmlns:cc="http://creativecommons.org/ns#"
   xmlns:rdf="http://www.w3.org/1999/02/22-rdf-syntax-ns#"
   xmlns:svg="http://www.w3.org/2000/svg"
   xmlns="http://www.w3.org/2000/svg"
   xmlns:xlink="http://www.w3.org/1999/xlink"
   xmlns:sodipodi="http://sodipodi.sourceforge.net/DTD/sodipodi-0.dtd"
   xmlns:inkscape="http://www.inkscape.org/namespaces/inkscape"
   width="210.62"
   height="133.08"
   data-name="Layer 1"
   version="1.1"
   viewBox="0 0 210.62 133.08"
   id="svg202"
   sodipodi:docname="brainstorming_session.svg"
   inkscape:version="1.0.1 (3bc2e813f5, 2020-09-07)">
  <sodipodi:namedview
     pagecolor="#ffffff"
     bordercolor="#666666"
     borderopacity="1"
     objecttolerance="10"
     gridtolerance="10"
     guidetolerance="10"
     inkscape:pageopacity="0"
     inkscape:pageshadow="2"
     inkscape:window-width="1366"
     inkscape:window-height="702"
     id="namedview204"
     showgrid="false"
     showborder="false"
     inkscape:zoom="3.5617673"
     inkscape:cx="99.414048"
     inkscape:cy="36.679022"
     inkscape:window-x="-8"
     inkscape:window-y="-8"
     inkscape:window-maximized="1"
     inkscape:current-layer="svg202" />
  <metadata
     id="metadata2">
    <rdf:RDF>
      <cc:Work
         rdf:about="">
        <dc:format>image/svg+xml</dc:format>
        <dc:type
           rdf:resource="http://purl.org/dc/dcmitype/StillImage" />
        <dc:title>14</dc:title>
      </cc:Work>
    </rdf:RDF>
  </metadata>
  <defs
     id="defs34">
    <linearGradient
       id="linear-gradient"
       x1="209.5"
       x2="203.59"
       y1="316.63"
       y2="64.92"
       gradientTransform="matrix(1,0,0,-1,-38.7,341.8)"
       gradientUnits="userSpaceOnUse">
      <stop
         offset=".01"
         id="stop4" />
      <stop
         stop-opacity=".69"
         offset=".08"
         id="stop6" />
      <stop
         stop-opacity=".32"
         offset=".21"
         id="stop8" />
      <stop
         stop-opacity="0"
         offset="1"
         id="stop10" />
    </linearGradient>
    <linearGradient
       id="linear-gradient-2"
       x1="-2957.4"
       x2="-2838.2"
       y1="672.97"
       y2="667.7"
       gradientTransform="matrix(-1,0,0,1,-2671.8,-468.99)"
       xlink:href="#linear-gradient" />
    <linearGradient
       id="linear-gradient-3"
       x1="173.97"
       x2="108.65"
       y1="180.93"
       y2="201.49"
       gradientTransform="matrix(1,0,0,-1,0,352)"
       xlink:href="#linear-gradient" />
    <linearGradient
       id="linear-gradient-4"
       x1="-743.12"
       x2="-731.16"
       y1="171.74"
       y2="171.74"
       gradientTransform="rotate(180 -273.46 176)"
       gradientUnits="userSpaceOnUse">
      <stop
         stop-color="#e5c5d5"
         offset="0"
         id="stop15" />
      <stop
         stop-color="#ead4d1"
         offset=".42"
         id="stop17" />
      <stop
         stop-color="#f0e9cb"
         offset="1"
         id="stop19" />
    </linearGradient>
    <linearGradient
       id="linear-gradient-5"
       x1="486.99"
       x2="509.86"
       y1="169.46"
       y2="102.27"
       gradientTransform="matrix(1,0,0,-1,-281.03,352)"
       gradientUnits="userSpaceOnUse">
      <stop
         stop-opacity="0"
         offset="0"
         id="stop22" />
      <stop
         offset=".99"
         id="stop24" />
    </linearGradient>
    <linearGradient
       id="linear-gradient-7"
       x1="-1953.8"
       x2="-1888.3"
       y1="118.92"
       y2="184.43"
       gradientTransform="rotate(180,-842.62,176)"
       xlink:href="#linear-gradient" />
    <linearGradient
       id="linear-gradient-8"
       x1="211.86"
       x2="261.87"
       y1="148.34"
       y2="148.34"
       gradientTransform="matrix(1,0,0,-1,0,352)"
       xlink:href="#linear-gradient" />
    <linearGradient
       id="linear-gradient-10"
       x1="-1854.6"
       x2="-1834.4"
       y1="164.4"
       y2="105.2"
       gradientTransform="rotate(180,-839.8,176)"
       xlink:href="#linear-gradient-4" />
    <linearGradient
       id="linear-gradient-11"
       x1="164.45"
       x2="185.62"
       y1="132.49"
       y2="108.49"
       gradientTransform="matrix(1,0,0,-1,0,352)"
       xlink:href="#linear-gradient-4" />
    <linearGradient
       id="linear-gradient-12"
       x1="139.63"
       x2="175.14"
       y1="132.48"
       y2="155.99"
       gradientTransform="matrix(1,0,0,-1,0,352)"
       xlink:href="#linear-gradient" />
    <linearGradient
       id="linear-gradient-14"
       x1="387.38"
       x2="442.92"
       y1="130.26"
       y2="185.8"
       gradientTransform="matrix(1,0,0,-1,-275.41,352)"
       xlink:href="#linear-gradient" />
    <linearGradient
       id="linearGradient282"
       x1="209.5"
       x2="203.59"
       y1="316.63"
       y2="64.92"
       gradientTransform="matrix(1,0,0,-1,-38.7,341.8)"
       gradientUnits="userSpaceOnUse"
       xlink:href="#linear-gradient" />
  </defs>
  <title
     id="title36">14</title>
  <g
     transform="matrix(0.29464208,0,0,0.29464208,-14.226064,13.650641)"
     id="g200"
     style="stroke-width:3.39394">
    <ellipse
       cx="165.98"
       cy="230.5"
       rx="105.31"
       ry="20.469999"
       fill="url(#linearGradient282)"
       id="ellipse38"
       style="fill:url(#linearGradient282);stroke-width:5.01161" />
    <g
       fill="#68e1fd"
       id="g48"
       style="stroke-width:5.01161">
      <path
         transform="translate(-38.7,-10.2)"
         d="m 276.92,201.68 9.16,34.4 a 1.32,1.32 0 0 1 -0.95,1.61 1.12,1.12 0 0 1 -0.32,0 1.3,1.3 0 0 1 -1.27,-1 l -9.17,-34.39 a 1.33,1.33 0 0 1 0.95,-1.62 1.3,1.3 0 0 1 1.59,0.92 z"
         id="path40"
         style="stroke-width:3.39394" />
      <path
         transform="translate(-38.7,-10.2)"
         d="m 260,201.67 -6.76,34.16 a 1.41,1.41 0 0 0 1.16,1.62 h 0.22 a 1.23,1.23 0 0 0 1.21,-1 l 6.77,-34.15 a 1.41,1.41 0 0 0 -1.06,-1.61 1.24,1.24 0 0 0 -1.52,0.85 c 0,0 -0.02,0.09 -0.02,0.13 z"
         id="path42"
         style="stroke-width:3.39394" />
      <path
         transform="translate(-38.7,-10.2)"
         d="m 270.78,201.81 5.88,34.27 a 1.45,1.45 0 0 1 -1.24,1.64 h -0.18 a 1.18,1.18 0 0 1 -1.18,-1 l -5.9,-34.27 a 1.46,1.46 0 0 1 1.1,-1.61 1.19,1.19 0 0 1 1.48,0.8 0.75,0.75 0 0 1 0.04,0.17 z"
         id="path44"
         style="stroke-width:3.39394" />
      <path
         transform="translate(-38.7,-10.2)"
         d="m 253.35,202 -12,34.12 a 1.21,1.21 0 0 0 0.68,1.56 1.33,1.33 0 0 0 0.45,0.08 1.44,1.44 0 0 0 1.35,-1 l 12,-34.11 a 1.19,1.19 0 0 0 -0.66,-1.55 h -0.15 a 1.44,1.44 0 0 0 -1.67,0.9 z"
         id="path46"
         style="stroke-width:3.39394" />
    </g>
    <path
       transform="translate(-38.7,-10.2)"
       d="m 258.47,175.59 c 3,-5.29 7.07,-10.52 12.89,-12.27 3.59,-1.09 7.46,-0.71 11.16,-0.08 a 21.33,21.33 0 0 1 7.92,2.61 8.74,8.74 0 0 1 4.35,6.79 13.38,13.38 0 0 1 -1,4.71 l -5.48,15.77 c -0.72,2.07 -1.5,4.24 -3.15,5.69 a 12.88,12.88 0 0 1 -5.56,2.37 c -6.53,1.63 -13.11,3.26 -19.83,3.46 -6.72,0.2 -13.68,-1.16 -19.17,-5 -2,-1.38 -3.84,-3.81 -2.78,-6 0.83,-1.65 3,-2.09 4.84,-2 4.85,0.2 6.26,-0.36 9.12,-4.33 2.61,-3.67 4.48,-7.81 6.69,-11.72 z"
       fill="#505365"
       id="path50"
       style="stroke-width:5.01161" />
    <path
       transform="translate(-38.7,-10.2)"
       d="m 254.69,170.22 a 9,9 0 0 1 -2.54,2.82 l -12.85,10.71 c -1.19,1 -2.51,2.29 -2.27,3.83 a 0.73,0.73 0 0 0 0.18,0.42 0.89,0.89 0 0 0 0.67,0.18 18.1,18.1 0 0 0 3.88,-0.51 c 1.34,-0.33 2.84,-1 3.11,-2.39 0.07,-0.38 0,-0.77 0.1,-1.15 a 3.46,3.46 0 0 1 1.74,-2.13 c 1,-0.67 1.89,-1.44 2.85,-2.12 1.89,-1.36 3.85,-2.63 5.86,-3.81 1.41,-0.83 3.61,-1.8 4.45,-3.29 0.84,-1.49 0.14,-3.69 -0.37,-5.21 -0.34,-1 -0.77,-1.14 -1.78,-1.28 -1.01,-0.14 -2.05,-0.45 -2.39,0.67 -0.34,1.12 -0.14,2.19 -0.64,3.26 z"
       fill="#ec9c7d"
       id="path52"
       style="stroke-width:5.01161" />
    <path
       transform="translate(-38.7,-10.2)"
       d="m 276.23,163.46 c -2.22,1.28 -4.09,-0.05 -4.67,-2.34 -0.24,-1 -0.34,-2.08 -0.67,-3.11 a 15.4,15.4 0 0 0 -2,-3.59 10.1,10.1 0 0 1 -1.77,-3.71 3.9,3.9 0 0 1 1.2,-3.76 1.19,1.19 0 0 1 0.88,-0.31 c 0.51,0.05 0.78,0.63 0.9,1.15 a 6.85,6.85 0 0 0 0.24,1.55 3,3 0 0 0 1.83,1.39 c 1.73,0.71 3.59,1.34 4.8,2.75 a 6.54,6.54 0 0 1 1.38,4.61 c -0.1,1.63 -0.58,4.5 -2.12,5.37 z"
       fill="#2f3554"
       id="path54"
       style="stroke-width:5.01161" />
    <path
       transform="translate(-38.7,-10.2)"
       d="m 253.3,174.16 -0.71,3.27 a 3.7,3.7 0 0 0 -0.13,1.48 3.49,3.49 0 0 0 0.93,1.61 c 3.32,3.8 6.24,4.12 11.15,3.71 a 34.68,34.68 0 0 0 8.43,-1.71 c -0.4,-4.19 0,-9.92 0.78,-11.69 2.06,-4.75 4.6,-11.05 1.65,-14.64 -2.39,-2.9 -6.75,-2.62 -9.41,-2.54 -2,0 -4.31,-0.72 -6.15,0.23 -1.84,0.95 -3.17,3.19 -4,4.83 a 29.5,29.5 0 0 0 -1.35,3.11 1.12,1.12 0 0 0 -0.1,0.4 0.94,0.94 0 0 0 0.23,0.52 l 1.19,1.74 c -1.69,2.46 -1.88,6.81 -2.51,9.68 z"
       fill="#ffffff"
       id="path56"
       style="stroke-width:5.01161" />
    <path
       transform="translate(-38.7,-10.2)"
       d="m 264.36,136.8 a 2.35,2.35 0 0 0 -0.8,0.59 9.59,9.59 0 0 0 -1.18,3 l -1.55,4.4 c 0,0 -5.08,0.09 -4,-5 0.55,-2.68 2.24,-5.18 5.18,-5.44 a 7.91,7.91 0 0 1 2,0.28 6.57,6.57 0 0 0 2.34,0 c 0.3,-0.06 0.66,-0.13 0.88,0.08 a 0.6,0.6 0 0 1 0.06,0.72 1.53,1.53 0 0 1 -0.58,0.49 c -0.71,0.35 -1.61,0.51 -2.35,0.88 z"
       fill="#2f3554"
       id="path58"
       style="stroke-width:5.01161" />
    <path
       transform="translate(-38.7,-10.2)"
       d="m 268.51,136.07 c 0,0 -8.5,-2.39 -9.89,3.57 a 15.83,15.83 0 0 0 -0.43,3.76 v 1.29 c 0.39,3.9 2.34,6.86 5.5,6.59 5.57,-0.45 11.47,-12.23 4.82,-15.21 z"
       fill="#ec9c7d"
       id="path60"
       style="stroke-width:5.01161" />
    <path
       transform="translate(-38.7,-10.2)"
       d="m 267.51,147.21 a 0.55,0.55 0 0 0 0.77,0 7,7 0 0 0 -1.13,3.12 c -0.43,3.21 1.13,3.35 1.13,3.35 -5.79,3.24 -6.65,1 -6.65,1 a 3.41,3.41 0 0 0 0.21,-3.62 c 2.63,0.72 5,-2.38 5.45,-4.14 a 0.58,0.58 0 0 0 0.22,0.29 z"
       fill="#d68369"
       id="path62"
       style="stroke-width:5.01161" />
    <path
       transform="translate(-38.7,-10.2)"
       d="m 262.41,135.19 c 0.45,-0.16 0.88,-0.08 1.33,-0.2 a 6.23,6.23 0 0 0 1.39,-0.75 6.42,6.42 0 0 1 3.72,-0.49 7,7 0 0 1 2.84,0.78 5.39,5.39 0 0 1 2.47,4 8.56,8.56 0 0 1 -1,4.73 3.13,3.13 0 0 0 -0.32,0.78 c -0.19,1.11 1,1.91 1.46,3 a 12.66,12.66 0 0 1 0.36,2.3 c 0.35,1.61 1.8,2.71 2.77,4 a 5.45,5.45 0 0 1 1.13,3.89 c -2.87,-1.1 -6.13,-0.71 -9.07,-1.63 a 4.57,4.57 0 0 1 -1.77,-0.93 4.17,4.17 0 0 1 -1.07,-3.37 19.46,19.46 0 0 1 0.48,-2.62 c 0.1,-0.5 0,-1.4 0.51,-1.73 a 6.06,6.06 0 0 1 0.78,-0.45 2,2 0 0 0 1,-1.75 0.86,0.86 0 0 0 -0.35,-0.78 0.77,0.77 0 0 0 -0.85,0.15 c -0.33,0.29 -0.29,0.64 -0.72,0.72 a 2.32,2.32 0 0 1 -1.3,-0.4 c -2.81,-1.56 -3.89,-5.67 -4.74,-8.57 0.37,-0.07 0.54,-0.51 0.95,-0.68 z"
       id="path64"
       style="stroke-width:3.39394" />
    <path
       transform="translate(-38.7,-10.2)"
       d="m 269.07,165.47 c 2.34,-6.79 3.9,-10.13 6.28,-9.28 0,0 3.12,1.55 1.35,7.79 -2,7 -7.22,13.55 -7.22,13.55 l -2.43,-5.35 c 0,0 0.79,-2.97 2.02,-6.71 z"
       fill="#ec9c7d"
       id="path66"
       style="stroke-width:5.01161" />
    <path
       transform="translate(-38.7,-10.2)"
       d="m 244.32,190.36 c 0.15,-0.18 0.63,-0.78 1.35,-1.56 a 1.07,1.07 0 0 0 -0.18,0.19 16.92,16.92 0 0 0 -1.17,1.37 z"
       fill="#dc9bd5"
       id="path68"
       style="stroke-width:5.01161" />
    <path
       transform="translate(-38.7,-10.2)"
       d="m 272.62,180.54 c -3.21,0.19 -6.59,0.41 -9.89,0.89 0,0 -13,10.91 -14.6,13.55 -3.83,6.13 -7.55,4.39 -2,13.35 l 11.1,17.92 c 1.88,0.63 3.89,-1 4.44,-3 a 10.45,10.45 0 0 0 -0.58,-5.88 c -1.14,-3.86 -2.25,-7.73 -3.35,-11.58 a 3.48,3.48 0 0 1 0,-2.65 3.41,3.41 0 0 1 1.2,-1 c 1.32,-0.78 2.22,-2.63 3.68,-3.08 a 24.29,24.29 0 0 0 7,-3.11 9.87,9.87 0 0 0 4.26,-6.18 c 0.54,-3.03 -0.88,-6.1 -1.26,-9.23 z"
       fill="#68e1fd"
       id="path70"
       style="stroke-width:5.01161" />
    <path
       transform="translate(-38.7,-10.2)"
       d="m 262.71,181.46 c -2.66,0.33 -7,-0.89 -7,-0.89 -3.79,1.69 -7.89,5.89 -10,8.25 -0.73,0.78 -1.21,1.38 -1.36,1.55 l -0.21,0.27 c -2.34,3.11 -3.81,6.78 -5.26,10.4 l -7.31,18.21 a 4.59,4.59 0 0 0 -0.44,1.82 c 0.11,2.25 3.12,2.85 5.37,2.81 l 9.71,-15.59 c 0,0 -1.84,-5.56 2,-13.34 1.37,-2.79 14.62,-13.55 14.62,-13.55 z"
       fill="#68e1fd"
       id="path72"
       style="stroke-width:5.01161" />
    <path
       transform="translate(-38.7,-10.2)"
       d="m 262.71,181.46 c -2.66,0.33 -7,-0.89 -7,-0.89 -3.79,1.69 -7.89,5.89 -10,8.25 -0.73,0.78 -1.21,1.38 -1.36,1.55 l -0.21,0.27 c -2.34,3.11 -3.81,6.78 -5.26,10.4 l -7.31,18.21 a 4.59,4.59 0 0 0 -0.44,1.82 c 0.11,2.25 3.12,2.85 5.37,2.81 l 9.71,-15.59 c 0,0 -1.84,-5.56 2,-13.34 1.37,-2.79 14.62,-13.55 14.62,-13.55 z"
       fill="url(#linear-gradient-2)"
       id="path74"
       style="fill:url(#linear-gradient-2);stroke-width:5.01161" />
    <path
       transform="translate(-38.7,-10.2)"
       d="m 257.43,227.78 c 0.22,-0.55 0.46,-1.09 0.73,-1.62 a 10.3,10.3 0 0 1 1.56,-1.23 c 0.23,-0.2 1.56,-1.33 1.48,-1.65 a 18.29,18.29 0 0 0 1.19,3.11 3.3,3.3 0 0 1 0.56,2 3,3 0 0 1 -1.19,1.56 c -2.08,1.71 -4.55,3.33 -7.22,3 a 0.55,0.55 0 0 1 -0.44,-0.18 0.46,0.46 0 0 1 -0.1,-0.32 c 0,-1.19 1.11,-2 2,-2.78 a 7.31,7.31 0 0 0 1.43,-1.89 z"
       fill="#ec9c7d"
       id="path76"
       style="stroke-width:5.01161" />
    <path
       transform="translate(-38.7,-10.2)"
       d="m 262.5,227.29 c -0.5,0.16 -0.93,0.89 -1.3,1.26 a 15.31,15.31 0 0 1 -1.56,1.34 2.15,2.15 0 0 1 -1.64,0.56 c -0.58,-0.12 -1,-0.64 -1.56,-0.82 a 1.75,1.75 0 0 0 -1.49,0.26 4.07,4.07 0 0 0 -1.1,1.09 7.47,7.47 0 0 0 -1.51,3.78 0.58,0.58 0 0 0 0.09,0.44 0.56,0.56 0 0 0 0.26,0.17 3.35,3.35 0 0 0 2.54,-0.46 39.86,39.86 0 0 0 5.33,-2.91 14.6,14.6 0 0 1 2.56,-1.56 0.74,0.74 0 0 0 0.44,-0.31 0.68,0.68 0 0 0 0.06,-0.4 c -0.06,-0.73 0,-2.89 -1.12,-2.44 z"
       fill="#505365"
       id="path78"
       style="stroke-width:5.01161" />
    <path
       transform="translate(-38.7,-10.2)"
       d="m 277.64,158.17 c -0.58,-1.56 -3.53,-5.13 -5.53,-3.67 a 7,7 0 0 0 -2.59,3.85 c -0.19,0.71 -0.26,1.47 -0.44,2.2 -0.24,0.9 -0.62,1.76 -0.78,2.67 a 10.9,10.9 0 0 0 -0.05,2.91 q 2.85,-0.4 5.68,-0.84 l 2.84,-0.45 c 0.53,-0.08 1.61,0.13 1.86,-0.42 a 1.71,1.71 0 0 0 0.06,-1 l -0.23,-1.61 a 17.53,17.53 0 0 0 -0.78,-3.5 0.74,0.74 0 0 0 -0.04,-0.14 z"
       fill="#ffffff"
       id="path80"
       style="stroke-width:5.01161" />
    <path
       transform="translate(-38.7,-10.2)"
       d="m 249.16,170.73 1.39,-1.6 c 0,0 14.81,2.33 16.95,3.18 2.14,0.85 2,5.21 2,5.21 -5.78,1.6 -20.34,-6.79 -20.34,-6.79 z"
       fill="#ec9c7d"
       id="path82"
       style="stroke-width:5.01161" />
    <path
       transform="translate(-38.7,-10.2)"
       d="m 251.82,171.17 a 0.93,0.93 0 0 1 -0.29,0.46 1.48,1.48 0 0 1 -0.5,0.17 c -1.05,0.25 -1.86,1.08 -2.85,1.47 a 4.69,4.69 0 0 1 -3.17,0.55 9.47,9.47 0 0 1 -2.71,-1.32 5.07,5.07 0 0 1 -1.37,-1.11 1.72,1.72 0 0 1 -0.32,-1.66 c 0.32,-0.8 1.31,-1.06 2.17,-1.18 a 17.08,17.08 0 0 1 3.5,-0.15 c 1,0.07 2,0.38 3,0.44 1.38,0.08 3.07,0.59 2.54,2.33 z"
       fill="#ec9c7d"
       id="path84"
       style="stroke-width:5.01161" />
    <g
       fill="#68e1fd"
       id="g94"
       style="stroke-width:5.01161">
      <path
         transform="translate(-38.7,-10.2)"
         d="m 155.85,186 -9.16,34.4 a 1.32,1.32 0 0 0 0.94,1.62 1.75,1.75 0 0 0 0.33,0 1.32,1.32 0 0 0 1.27,-1 l 9.17,-34.4 a 1.31,1.31 0 0 0 -0.94,-1.6 h -0.06 a 1.31,1.31 0 0 0 -1.55,0.98 z"
         id="path86"
         style="stroke-width:3.39394" />
      <path
         transform="translate(-38.7,-10.2)"
         d="m 172.81,186 6.76,34.15 a 1.41,1.41 0 0 1 -1.16,1.62 h -0.22 a 1.23,1.23 0 0 1 -1.21,-1 l -6.77,-34.15 a 1.4,1.4 0 0 1 1.06,-1.6 1.22,1.22 0 0 1 1.51,0.83 z"
         id="path88"
         style="stroke-width:3.39394" />
      <path
         transform="translate(-38.7,-10.2)"
         d="m 162,186.14 -5.88,34.27 a 1.45,1.45 0 0 0 1.24,1.64 h 0.18 a 1.18,1.18 0 0 0 1.18,-1 l 5.89,-34.27 a 1.44,1.44 0 0 0 -1.1,-1.6 A 1.19,1.19 0 0 0 162,186 Z"
         id="path90"
         style="stroke-width:3.39394" />
      <path
         transform="translate(-38.7,-10.2)"
         d="m 179.42,186.3 12,34.12 a 1.21,1.21 0 0 1 -0.68,1.56 1.33,1.33 0 0 1 -0.45,0.08 1.44,1.44 0 0 1 -1.35,-1 l -12,-34.12 a 1.19,1.19 0 0 1 0.66,-1.55 h 0.15 a 1.44,1.44 0 0 1 1.67,0.91 z"
         id="path92"
         style="stroke-width:3.39394" />
    </g>
    <path
       transform="translate(-38.7,-10.2)"
       d="m 174.3,159.92 c -3,-5.29 -7.07,-10.52 -12.89,-12.28 -3.6,-1.08 -7.46,-0.71 -11.16,-0.07 a 21.31,21.31 0 0 0 -7.92,2.6 8.74,8.74 0 0 0 -4.33,6.83 13.11,13.11 0 0 0 1,4.71 l 5.48,15.77 c 0.72,2.07 1.5,4.24 3.15,5.69 a 12.65,12.65 0 0 0 5.56,2.37 c 6.52,1.63 13.11,3.27 19.83,3.47 6.72,0.2 13.68,-1.17 19.17,-5.06 1.95,-1.38 3.84,-3.81 2.77,-5.94 -0.82,-1.66 -3,-2.1 -4.83,-2 -4.85,0.2 -6.26,-0.36 -9.12,-4.32 -2.63,-3.69 -4.5,-7.87 -6.71,-11.77 z"
       fill="#505365"
       id="path96"
       style="stroke-width:5.01161" />
    <path
       transform="translate(-38.7,-10.2)"
       d="m 152.11,153.32 c -5.79,5.39 -7,14.79 -3.45,21.85 2.62,5.17 8,9.24 13.82,8.91 a 5,5 0 0 0 2.38,-0.63 c 1.6,-1 1.93,-3.15 2.1,-5 a 33.47,33.47 0 0 0 0,-9.27 c -0.53,-2.8 -1.78,-5.45 -2.1,-8.29 -0.2,-1.8 0,-3.62 -0.11,-5.43 -0.14,-2.8 -0.76,-5.71 -3.92,-5.76 a 12.86,12.86 0 0 0 -8.72,3.62 z"
       fill="url(#linear-gradient-3)"
       id="path98"
       style="fill:url(#linear-gradient-3);stroke-width:5.01161" />
    <path
       transform="translate(-38.7,-10.2)"
       d="m 162.62,159.73 a 15.6,15.6 0 0 1 0.06,2.9 c -0.17,1.15 -0.2,2.33 -0.35,3.49 a 38.68,38.68 0 0 1 -1.63,6.88 3.54,3.54 0 0 0 -0.19,2.71 3.4,3.4 0 0 0 1.41,1.19 c 1.07,0.61 2,1.4 3,2 a 24.48,24.48 0 0 0 3.7,1.45 c 3.72,1.22 10.78,3.07 12.25,-2.22 1.68,-6 3.09,-11.86 4.18,-18 a 40,40 0 0 0 1.07,-6.43 c 0,-1.76 -1.83,-2.38 -3.42,-2.72 l -0.3,-0.06 -0.92,-0.18 a 45,45 0 0 1 -6.23,-1.84 c -2.3,-0.83 -5.93,-2.27 -8.92,-0.83 a 4.42,4.42 0 0 0 -0.6,0.34 c -3.16,1.97 -3.39,6.86 -3.11,11.32 z"
       fill="#de8787"
       id="path100"
       style="stroke-width:5.01161" />
    <path
       transform="translate(-38.7,-10.2)"
       d="m 194.34,169.7 a 31.32,31.32 0 0 0 -2.61,2.28 c -1.19,1.47 -1.76,1.69 -3.59,0.76 a 9.17,9.17 0 0 1 -4,-3.94 39.31,39.31 0 0 1 -2.49,-6.09 4.11,4.11 0 0 1 0,-3.19 c 0.47,-1.42 1,-2.83 1.58,-4.21 0.43,-1 2.92,1.56 3.18,1.89 1.49,1.85 3,3.67 4.29,5.63 a 43.25,43.25 0 0 1 7.17,-2.52 1.4,1.4 0 0 1 0.76,0 1.25,1.25 0 0 1 0.58,0.66 l 2.3,4.31 c -0.34,-0.8 -4.38,2.17 -7.17,4.42 z"
       fill="#e9afaf"
       id="path102"
       style="stroke-width:5.01161" />
    <path
       transform="translate(-38.7,-10.2)"
       d="m 170.44,161.75 a 8.33,8.33 0 0 0 1.2,3 c 0.67,1 1.84,4.4 3.4,4 a 5.35,5.35 0 0 1 -2.3,0.43 c 1.53,2 3.91,3.24 6.14,4.46 a 4.89,4.89 0 0 1 1.57,1.17 1.74,1.74 0 0 1 0.29,1.83 c -0.52,1 -2,0.89 -3.1,0.6 -2.73,-0.71 -5.44,-1.53 -8.2,-2.07 -2.35,-0.46 -5,-0.67 -7,0.68 a 1,1 0 0 1 -0.52,0.24 0.66,0.66 0 0 1 -0.61,-0.58 2,2 0 0 1 0.14,-0.9 26,26 0 0 0 1.11,-6.89 c 0,-0.94 0.28,-1.83 0.3,-2.73 0,-1.12 -0.22,-2.26 -0.24,-3.38 a 30.43,30.43 0 0 1 0.66,-6.73 c 0.32,-1.55 1,-3.32 2.56,-3.68 a 3,3 0 0 1 3,1.31 6.87,6.87 0 0 1 1,3.23 58,58 0 0 0 0.6,6.01 z"
       fill="#de8787"
       id="path104"
       style="stroke-width:5.01161" />
    <path
       transform="translate(-38.7,-10.2)"
       d="m 166.36,148 c 3,-1.44 6.62,0 8.92,0.83 a 43.13,43.13 0 0 0 6.22,1.84 c 0.31,0.05 0.62,0.11 0.92,0.18 -1,-0.91 -2.9,-1.13 -4.23,-1.52 -2,-0.58 -4,-1.1 -6.05,-1.57 -2.05,-0.47 -4.14,-0.76 -5.78,0.24 z"
       fill="#ffffff"
       id="path106"
       style="stroke-width:5.01161" />
    <path
       transform="translate(-38.7,-10.2)"
       d="m 174.93,142.51 a 4.38,4.38 0 0 0 5.29,2.73 c 0,0 -1.07,3.07 0.17,4.95 0.23,0.36 -1.37,0.68 -1.46,0.69 a 6.57,6.57 0 0 1 -2.62,-0.61 18.26,18.26 0 0 0 -4,-1.4 2.89,2.89 0 0 0 1.48,-1.48 6.94,6.94 0 0 0 0.28,-4.54 0.59,0.59 0 0 0 0.67,-0.06 0.54,0.54 0 0 0 0.19,-0.28 z"
       fill="#a05a2c"
       id="path108"
       style="stroke-width:5.01161" />
    <path
       transform="translate(-38.7,-10.2)"
       d="m 177.64,146.52 c 3,0.94 5.46,-1.49 6.64,-5.11 0.12,-0.4 0.23,-0.81 0.32,-1.23 a 15.81,15.81 0 0 0 0.4,-3.69 c -0.06,-6 -8.66,-5.53 -8.66,-5.53 -6.99,1.44 -3.88,13.94 1.3,15.56 z"
       fill="#a05a2c"
       id="path110"
       style="stroke-width:5.01161" />
    <path
       transform="translate(-38.7,-10.2)"
       d="m 182.34,130.1 a 4.59,4.59 0 0 1 2.66,1.9 11,11 0 0 0 0.9,1.52 c 0.53,0.66 1.32,1.14 1.58,1.94 a 6,6 0 0 1 -3.92,-0.78 1.12,1.12 0 0 1 -0.95,0.52 3.24,3.24 0 0 1 -1.11,-0.23 1,1 0 0 0 -0.62,-0.06 1.07,1.07 0 0 0 -0.41,0.28 2.77,2.77 0 0 1 -2.61,0.5 c -0.53,-0.17 -1.06,-0.51 -1.56,-0.35 a 1.64,1.64 0 0 0 -0.88,1.51 c 0,0.37 0.17,0.72 0.18,1.1 a 3.47,3.47 0 0 1 -0.19,1.15 2.78,2.78 0 0 0 -0.72,-0.69 1,1 0 0 0 -0.95,0 0.92,0.92 0 0 0 -0.3,0.29 1.87,1.87 0 0 0 0.26,2.39 c -0.1,0.37 -0.2,0.74 -0.28,1.12 a 5.82,5.82 0 0 1 -1.09,-1.8 11.08,11.08 0 0 0 -0.88,-2.14 5.91,5.91 0 0 1 -0.65,-1 5.41,5.41 0 0 0 -0.27,-0.77 c -0.34,-0.63 -0.81,-1.25 -0.6,-2 0.21,-0.75 1.1,-1.36 0.92,-2.14 a 2.64,2.64 0 0 0 -0.12,-0.44 1.15,1.15 0 0 1 0.15,-0.63 5.92,5.92 0 0 1 4.12,-3 13.13,13.13 0 0 1 5.26,0.14 c 1.73,0.33 3.45,0.8 5.21,1 a 0.38,0.38 0 0 1 0.37,0.17 0.31,0.31 0 0 1 0,0.19 c -0.08,0.38 -0.44,0.62 -0.73,0.88 -0.29,0.26 -0.55,0.68 -0.34,1"
       fill="#2b0000"
       id="path112"
       style="stroke-width:5.01161" />
    <path
       transform="translate(-38.7,-10.2)"
       d="m 166.74,177 c 0,0 3.64,9.1 6.56,10.05 2.92,0.95 13.7,4.3 13.7,4.3 l 5.33,10.81 c 3,6.18 6.41,12.22 8.6,18.75 a 2.84,2.84 0 0 0 0.57,1.12 2.88,2.88 0 0 0 2.51,0.44 c 1.83,-0.25 3.66,-0.5 5.46,-0.92 0.87,-0.21 1.93,-0.68 1.92,-1.58 -0.01,-0.9 -1,-1.33 -1.76,-1.61 l -2.51,-0.87 a 2.62,2.62 0 0 1 -2.22,-2.35 27,27 0 0 1 -0.94,-4.63 c -0.11,-1.46 -1.19,-2.91 -1.19,-4.29 l -3.19,-9.2 -4.86,-14 v -0.09 l -11.78,-6 z"
       fill="#2f3554"
       id="path114"
       style="stroke-width:5.01161" />
    <path
       transform="translate(-38.7,-10.2)"
       d="m 161.69,178.79 c 0,0 -0.69,8.29 2.24,9.25 2.93,0.96 13.74,4.26 13.74,4.26 l 4.17,11.35 c 1.71,4.68 4,9.46 5.25,14.29 a 27.56,27.56 0 0 1 0.44,4.16 2.26,2.26 0 0 0 0.28,1.08 2.33,2.33 0 0 0 1.71,0.76 q 4.06,0.51 8.16,0.71 a 1.64,1.64 0 0 0 1,-0.14 1.34,1.34 0 0 0 0.54,-0.83 3,3 0 0 0 -0.9,-3 c -0.88,-0.78 -2.12,-1 -3.11,-1.6 -2.14,-1.37 -2.32,-5.2 -2.91,-7.54 L 190.11,202.72 185.9,186 c -0.06,-0.26 -0.26,-2 -0.52,-2.1 l -11.78,-6 c 0,0 -6.84,-2.58 -11.91,0.89 z"
       fill="#4c506d"
       id="path116"
       style="stroke-width:5.01161" />
    <path
       transform="translate(-38.7,-10.2)"
       d="m 161.69,178.79 c 0,0 -0.69,8.29 2.24,9.25 2.93,0.96 13.74,4.26 13.74,4.26 l 4.17,11.35 c 1.71,4.68 4,9.46 5.25,14.29 a 27.56,27.56 0 0 1 0.44,4.16 2.26,2.26 0 0 0 0.28,1.08 2.33,2.33 0 0 0 1.71,0.76 q 4.06,0.51 8.16,0.71 a 1.64,1.64 0 0 0 1,-0.14 1.34,1.34 0 0 0 0.54,-0.83 3,3 0 0 0 -0.9,-3 c -0.88,-0.78 -2.12,-1 -3.11,-1.6 -2.14,-1.37 -2.32,-5.2 -2.91,-7.54 L 190.11,202.72 185.9,186 c -0.06,-0.26 -0.26,-2 -0.52,-2.1 l -11.78,-6 c 0,0 -6.84,-2.58 -11.91,0.89 z"
       fill="#2f3554"
       id="path118"
       style="stroke-width:5.01161" />
    <path
       transform="translate(-38.7,-10.2)"
       d="m 163.67,151.69 c 0,0 1.31,12.53 6,15.69 4.69,3.16 15.92,-10.13 15.92,-10.13 l -3.59,-2.91 -9.26,4.72 c 0,0 -1.32,-10.58 -3.21,-10.73 -1.89,-0.15 -5.9,1.26 -5.86,3.36 z"
       fill="#ffaaaa"
       id="path120"
       style="stroke-width:5.01161" />
    <path
       transform="translate(-38.7,-10.2)"
       d="m 186.86,149.92 a 3,3 0 0 1 1.46,-0.75 3.14,3.14 0 0 1 1.45,0.26 c 0.92,0.3 1.94,0.82 2.12,1.76 a 2.22,2.22 0 0 1 -0.85,1.93 c -0.55,0.48 -1.21,0.82 -1.77,1.3 -0.79,0.68 -1.38,1.66 -2.36,2 a 3,3 0 0 1 -1.29,0.14 c -1.45,-0.13 -3,-1.35 -2.16,-2.85 a 15,15 0 0 1 3.4,-3.79 z"
       fill="#a05a2c"
       id="path122"
       style="stroke-width:5.01161" />
    <path
       transform="translate(-38.7,-10.2)"
       d="m 194.92,179.94 a 6.22,6.22 0 0 0 -1.74,-2.52 9.24,9.24 0 0 0 -1.28,-0.68 10.59,10.59 0 0 0 -1.59,-0.77 0.57,0.57 0 0 0 -0.26,0 0.3,0.3 0 0 0 -0.2,0.33 1,1 0 0 0 0.17,0.37 5.29,5.29 0 0 0 0.95,1 3.06,3.06 0 0 1 -2.61,0 5.25,5.25 0 0 0 -3.43,-0.26 1.12,1.12 0 0 0 -0.55,0.38 1.38,1.38 0 0 0 0.29,1.56 9.23,9.23 0 0 0 1.25,1.25 4.87,4.87 0 0 0 1.46,1 4.78,4.78 0 0 0 0.93,0.18 l 1.82,0.23 a 4.92,4.92 0 0 1 1.51,0.37 c 0.91,0.45 2,2.53 3.09,2.13 0.65,-0.22 1.57,-0.89 1.45,-1.66 a 6.48,6.48 0 0 0 -0.63,-1.33 c -0.22,-0.52 -0.41,-1.07 -0.63,-1.58 z"
       fill="#c87137"
       id="path124"
       style="stroke-width:5.01161" />
    <path
       transform="translate(-38.7,-10.2)"
       d="m 202.7,210.24 a 10,10 0 0 0 0.79,4.11 h 0.08 c 1.49,0 3,0 4.48,0.09 a 63.38,63.38 0 0 1 7.39,1 c 1.13,0.21 2.26,0.44 3.38,0.67 l 3.22,0.65 c 2.05,0.4 4,0.74 5.92,1 a 18.17,18.17 0 0 0 6.44,-4.63 l 0.56,-0.66 c 0.23,-0.29 0.45,-0.6 0.66,-0.92 a 7.11,7.11 0 0 0 1.18,-3 4.42,4.42 0 0 0 -0.05,-1.31 6.17,6.17 0 0 0 -2.61,-3.61 l -0.4,-0.29 a 15.28,15.28 0 0 0 -9.28,-2.7 h -0.83 a 28.07,28.07 0 0 0 -5.22,0.89 c -2.71,0.69 -5.42,1.66 -8.1,2.52 a 21.72,21.72 0 0 0 -5.63,2.4 5,5 0 0 0 -1.29,1.22 4.56,4.56 0 0 0 -0.69,2.57 z"
       fill="#3e3e54"
       id="path126"
       style="stroke-width:5.01161" />
    <path
       transform="translate(-38.7,-10.2)"
       d="m 202.94,214.55 q 0.52,2.7 0.93,5.42 a 125.73,125.73 0 0 1 1.27,12.71 2.77,2.77 0 0 1 -0.11,1.18 c -0.46,1.12 -2,1.18 -3.18,1.17 -1.18,-0.01 -2.78,0.48 -2.76,1.68 0,0.94 1,1.49 1.93,1.79 a 23.72,23.72 0 0 0 8.23,1.25 2.62,2.62 0 0 0 1,-0.16 c 1.9,-0.83 0.4,-3 0.2,-4.32 -0.29,-1.87 0.43,-3.93 0.88,-5.71 1.06,-4.15 3.86,-7.91 3.75,-12.32 a 2.38,2.38 0 0 1 0.29,-1.63 c 0.53,-0.65 2.74,0.4 3.44,0.54 l 3.22,0.65 c 5.77,1.12 11.1,2.41 17,1.31 a 2.35,2.35 0 0 0 1,-0.35 2.2,2.2 0 0 0 0.72,-1.19 10.42,10.42 0 0 0 -0.62,-7.88 c -1.44,-2.85 -3.74,-4 -6.42,-5.34 -3.1,-1.57 -5.71,-2.75 -9.28,-2.65 h -0.83 a 28.19,28.19 0 0 0 -5.24,0.92 c -4.35,1.12 -14.38,2.71 -16,7.76 -0.53,1.59 0.13,2.87 0.45,4.42 z"
       fill="#3e3e54"
       id="path128"
       style="stroke-width:5.01161" />
    <path
       transform="translate(-38.7,-10.2)"
       d="m 202.94,214.55 q 0.52,2.7 0.93,5.42 a 125.73,125.73 0 0 1 1.27,12.71 2.77,2.77 0 0 1 -0.11,1.18 c -0.46,1.12 -2,1.18 -3.18,1.17 -1.18,-0.01 -2.78,0.48 -2.76,1.68 0,0.94 1,1.49 1.93,1.79 a 23.72,23.72 0 0 0 8.23,1.25 2.62,2.62 0 0 0 1,-0.16 c 1.9,-0.83 0.4,-3 0.2,-4.32 -0.29,-1.87 0.43,-3.93 0.88,-5.71 1.06,-4.15 3.86,-7.91 3.75,-12.32 a 2.38,2.38 0 0 1 0.29,-1.63 c 0.53,-0.65 2.74,0.4 3.44,0.54 l 3.22,0.65 c 5.77,1.12 11.1,2.41 17,1.31 a 2.35,2.35 0 0 0 1,-0.35 2.2,2.2 0 0 0 0.72,-1.19 10.42,10.42 0 0 0 -0.62,-7.88 c -1.44,-2.85 -3.74,-4 -6.42,-5.34 -3.1,-1.57 -5.71,-2.75 -9.28,-2.65 h -0.83 a 28.19,28.19 0 0 0 -5.24,0.92 c -4.35,1.12 -14.38,2.71 -16,7.76 -0.53,1.59 0.13,2.87 0.45,4.42 z"
       fill="url(#linear-gradient-5)"
       id="path130"
       style="fill:url(#linear-gradient-5);stroke-width:5.01161" />
    <path
       transform="translate(-38.7,-10.2)"
       d="m 194.73,215 a 20.4,20.4 0 0 0 -3.34,5.74 c -1,2.33 -7,27.31 -7.26,27.26 l 4.54,1.2 a 120.25,120.25 0 0 0 13,-24 c 1,-2.43 1,-2.66 3.69,-3.17 2.32,-0.46 4.64,-0.95 6.94,-1.5 a 92.24,92.24 0 0 0 13.2,-4.14 40.49,40.49 0 0 0 7.42,-3.78 4.85,4.85 0 0 0 0.9,-0.91 c 0.11,-0.15 0.22,-0.31 0.32,-0.47 a 3.86,3.86 0 0 0 0.56,-2.22 2.52,2.52 0 0 0 -0.11,-0.61 5.31,5.31 0 0 0 -2.32,-2.7 10.87,10.87 0 0 0 -5.49,-2 c -1.32,-0.08 -2.65,0.19 -4,0.12 -1.35,-0.07 -2,-0.72 -3,-0.88 a 6,6 0 0 0 -2.38,0.21 29.26,29.26 0 0 0 -5.07,2.29 l -9.51,4.75 h -0.08 l -1.9,0.95 c -2,1 -4.28,2 -5.86,3.62 z"
       fill="#3e3e54"
       id="path132"
       style="stroke-width:5.01161" />
    <path
       transform="translate(-38.7,-10.2)"
       d="m 177.44,246.84 a 5,5 0 0 0 -2.35,0.74 1.93,1.93 0 0 0 -0.79,2.17 2.62,2.62 0 0 0 1.31,1.19 21.1,21.1 0 0 0 10.69,2.06 2.39,2.39 0 0 0 1.47,-0.4 2.55,2.55 0 0 0 0.69,-1.39 5.57,5.57 0 0 0 0.2,-3 c -0.6,-2 -2.83,-1.56 -4.41,-1.65 a 36.94,36.94 0 0 0 -6.81,0.28 z"
       fill="#3e3e54"
       id="path134"
       style="stroke-width:5.01161" />
    <path
       transform="translate(-38.7,-10.2)"
       d="m 210.82,158.52 c -0.38,0.48 -1,1 -0.74,1.54 0.12,0.3 0.46,0.45 0.72,0.64 a 3.33,3.33 0 0 1 1.12,2.28 7.88,7.88 0 0 0 0.61,2.53 1.86,1.86 0 0 0 2.14,1 c 0.48,-0.19 0.93,-0.67 1.42,-0.51 0.49,0.16 0.54,0.56 0.76,0.89 a 2.59,2.59 0 0 0 2.59,0.9 7.56,7.56 0 0 0 2.62,-1.22 2,2 0 0 0 0.82,-0.79 1.56,1.56 0 0 0 0,-1 8,8 0 0 0 -1.68,-2.58 11.84,11.84 0 0 1 -2.33,-5.21 c -0.23,-1.32 -0.29,-2.8 -1.22,-3.75 -1.27,-1.3 -4,-1 -5.35,0.16 -1.35,1.16 -0.3,3.6 -1.48,5.12 z"
       fill="#a05a2c"
       id="path136"
       style="stroke-width:5.01161" />
    <path
       transform="translate(-38.7,-10.2)"
       d="m 212.53,152.22 a 1.65,1.65 0 0 0 0.2,0.64 c 0.34,0.56 1.3,0.92 1.88,1.24 a 2.73,2.73 0 0 1 1.29,1.56 c 0.37,1.22 -0.16,2.65 0.34,3.84 0.17,0.23 0.56,0 0.69,-0.21 0.13,-0.21 0.19,-0.58 0.42,-0.75 0.39,-0.28 0.94,0.08 1.16,0.51 a 2.19,2.19 0 0 1 -0.94,2.85 c 0.09,0.38 0.61,0.49 1,0.4 a 3.85,3.85 0 0 1 1.16,-0.27 c 0.91,0.08 1.37,1.35 2.28,1.39 0.91,0.04 1.58,-1.41 2.26,-2 0.68,-0.59 1.91,-0.71 2.25,-1.54 0.16,-0.4 0.07,-0.91 0.4,-1.19 a 1.62,1.62 0 0 1 0.83,-0.23 2,2 0 0 0 1.41,-1.31 3.11,3.11 0 0 0 -0.07,-2 1.53,1.53 0 0 0 -0.39,-0.66 2.55,2.55 0 0 0 -1,-0.39 c -1.59,-0.45 -2.72,-1.81 -3.91,-3 -1.19,-1.19 -2.76,-2.22 -4.38,-1.86 a 3.66,3.66 0 0 0 -2.84,-1.39 4,4 0 0 0 -1.55,0.66 6.15,6.15 0 0 0 -2,1.83 3.28,3.28 0 0 0 -0.49,1.88 z"
       fill="#241c1c"
       id="path138"
       style="stroke-width:5.01161" />
    <path
       transform="translate(-38.7,-10.2)"
       d="m 220.49,165.05 a 24.54,24.54 0 0 0 -2.74,1.76 2.31,2.31 0 0 0 -0.67,0.72 1.1,1.1 0 0 0 0,1 c 0.31,0.43 0.88,0.21 1.32,0 a 17.25,17.25 0 0 1 6.43,-1.56 0.8,0.8 0 0 0 0.76,-0.42 1.09,1.09 0 0 0 -0.18,-0.89 c -1.35,-2.2 -3.16,-1.66 -4.92,-0.61 z"
       fill="#c83737"
       id="path140"
       style="stroke-width:5.01161" />
    <path
       transform="translate(-38.7,-10.2)"
       d="m 216.62,193.58 a 41.07,41.07 0 0 1 -2.29,-6.16 c -0.14,-0.46 -0.36,-2.27 -1.1,-2.17 -0.39,0.06 -1.09,1.89 -1.31,2.26 a 27,27 0 0 1 -7.49,8.16 3.23,3.23 0 0 1 -1.82,0.77 3.43,3.43 0 0 1 -2.31,-1.37 66.41,66.41 0 0 1 -8.17,-10.57 59.3,59.3 0 0 1 4.92,-3.72 11.71,11.71 0 0 0 5.69,4.7 c 1,-2.76 1.54,-6.38 3.21,-8.75 1.13,-1.61 2.34,-3.23 3.34,-4.95 a 5.61,5.61 0 0 1 1,-1.27 5.23,5.23 0 0 1 1.92,-0.87 138.17,138.17 0 0 1 15.84,-3.64 7.69,7.69 0 0 1 2.44,-0.16 c 2.28,0.34 3.78,2.49 4.93,4.49 6,10.43 10.28,22.27 9.61,34.29 a 6.59,6.59 0 0 1 -0.31,1.92 5.51,5.51 0 0 1 -1.86,2.33 15.66,15.66 0 0 1 -9.63,2.94 c -5.1,0 -11.83,-1.49 -15.63,-5.16 -2.16,-2.07 0,-3.32 1,-5.37 1.33,-2.63 -0.83,-5.35 -1.98,-7.7 z"
       fill="#1a1a1a"
       id="path142"
       style="stroke-width:5.01161" />
    <path
       transform="translate(-38.7,-10.2)"
       d="m 242,185.14 a 24.47,24.47 0 0 0 -1.57,-4.65 c -3,2.12 -5.15,6.26 -6.25,9.74 -1.1,3.48 -2,7.15 -4.23,10 l -2.42,-0.84 -0.45,1.53 c -0.36,1.21 0.66,2.44 0.56,3.66 a 3.31,3.31 0 0 1 -2.49,2.6 8.16,8.16 0 0 1 -4.27,-0.3 6.41,6.41 0 0 1 -2.5,-1.08 2.38,2.38 0 0 1 -0.9,-2.42 1.54,1.54 0 0 0 -0.67,1.76 3.49,3.49 0 0 0 1.16,1.64 19,19 0 0 0 6,3.11 22.48,22.48 0 0 0 3.07,1 31.06,31.06 0 0 0 7.32,0.75 c 1.49,0 2.39,-0.2 3,-1.68 0.94,-2.1 1,-4.48 1.24,-6.78 a 118.88,118.88 0 0 1 3.4,-18.04 z"
       fill="url(#linear-gradient-7)"
       id="path144"
       style="fill:url(#linear-gradient-7);stroke-width:5.01161" />
    <path
       transform="translate(-38.7,-10.2)"
       d="m 263.2,191.3 a 13.16,13.16 0 0 1 -1,4.71 c -0.11,0.33 -0.23,0.66 -0.35,1 q -2.55,7.4 -5.13,14.78 c -0.72,2.07 -1.5,4.24 -3.15,5.69 a 12.88,12.88 0 0 1 -5.56,2.37 c -6.52,1.63 -13.11,3.27 -19.83,3.46 a 35.75,35.75 0 0 1 -12.9,-1.84 25.92,25.92 0 0 1 -6.26,-3.21 c -2,-1.38 -3.84,-3.81 -2.77,-5.95 0.82,-1.65 3,-2.09 4.83,-2 4.85,0.2 6.26,-0.36 9.12,-4.33 2.63,-3.65 4.5,-7.79 6.71,-11.7 3,-5.29 7.07,-10.52 12.89,-12.27 3.6,-1.09 7.46,-0.71 11.16,-0.08 a 21.33,21.33 0 0 1 7.92,2.61 8.74,8.74 0 0 1 4.32,6.76 z"
       fill="#505365"
       id="path146"
       style="stroke-width:5.01161" />
    <path
       transform="translate(-38.7,-10.2)"
       d="m 261.83,197 q -2.55,7.4 -5.13,14.78 c -0.72,2.07 -1.5,4.24 -3.15,5.69 a 12.88,12.88 0 0 1 -5.56,2.37 c -6.52,1.63 -13.11,3.27 -19.83,3.46 a 35.75,35.75 0 0 1 -12.9,-1.84 26.9,26.9 0 0 1 -2.58,-2.65 c -0.55,-0.67 -1.1,-1.6 -0.65,-2.33 0.45,-0.73 1.31,-0.71 2.08,-0.72 a 19.12,19.12 0 0 0 15.7,-9.06 49.7,49.7 0 0 0 3.34,-7.54 c 2.15,-5.34 5.15,-10.67 10.07,-13.69 a 8.49,8.49 0 0 1 5.17,-1.48 10.52,10.52 0 0 1 3.24,1 c 4.16,1.86 9.79,5.43 10.22,10.53 a 8.13,8.13 0 0 1 -0.02,1.48 z"
       fill="url(#linear-gradient-8)"
       id="path148"
       style="fill:url(#linear-gradient-8);stroke-width:5.01161" />
    <g
       fill="#68e1fd"
       id="g158"
       style="stroke-width:5.01161">
      <path
         transform="translate(-38.7,-10.2)"
         d="m 245.34,220.34 9.15,34.4 a 1.32,1.32 0 0 1 -1,1.61 1.12,1.12 0 0 1 -0.32,0 1.32,1.32 0 0 1 -1.27,-1 L 242.79,221 a 1.32,1.32 0 0 1 0.92,-1.61 1.33,1.33 0 0 1 1.63,0.95 z"
         id="path150"
         style="stroke-width:3.39394" />
      <path
         transform="translate(-38.7,-10.2)"
         d="m 228.38,220.33 -6.77,34.16 a 1.41,1.41 0 0 0 1.16,1.62 H 223 a 1.2,1.2 0 0 0 1.2,-1 L 231,221 a 1.41,1.41 0 0 0 -1.06,-1.6 1.22,1.22 0 0 0 -1.53,0.82 z"
         id="path152"
         style="stroke-width:3.39394" />
      <path
         transform="translate(-38.7,-10.2)"
         d="m 239.2,220.47 5.88,34.28 a 1.46,1.46 0 0 1 -1.27,1.63 h -0.16 a 1.18,1.18 0 0 1 -1.18,-1 l -5.89,-34.27 a 1.44,1.44 0 0 1 1.1,-1.6 1.2,1.2 0 0 1 1.49,0.81 z"
         id="path154"
         style="stroke-width:3.39394" />
      <path
         transform="translate(-38.7,-10.2)"
         d="m 221.76,220.63 -12,34.12 a 1.21,1.21 0 0 0 0.68,1.56 1.39,1.39 0 0 0 0.46,0.08 1.44,1.44 0 0 0 1.35,-1 l 12,-34.11 a 1.21,1.21 0 0 0 -0.68,-1.56 h -0.13 a 1.43,1.43 0 0 0 -1.68,0.91 z"
         id="path156"
         style="stroke-width:3.39394" />
    </g>
    <path
       transform="translate(-38.7,-10.2)"
       d="m 200.84,159.7 a 1.62,1.62 0 0 1 0.39,-0.91 c 0.3,-0.25 0.75,-0.17 1.14,-0.15 1.67,0.07 3,-1.3 4.37,-2.24 a 0.38,0.38 0 0 1 0.23,-0.08 c 0.09,0 0.15,0.11 0.2,0.19 0.76,1.4 0.19,3.15 -0.62,4.51 -0.81,1.36 -1.86,2.48 -3.31,2.54 a 12.45,12.45 0 0 0 -2.72,-0.18 c -0.58,0.13 -1,0.49 -1.27,-0.21 -0.56,-1.25 1.31,-2.37 1.59,-3.47 z"
       fill="#a05a2c"
       id="path160"
       style="stroke-width:5.01161" />
    <path
       transform="translate(-38.7,-10.2)"
       d="m 177.89,181.61 a 4.75,4.75 0 0 1 -0.31,1.75 8.7,8.7 0 0 1 3.22,-1 l 1.58,-0.29 a 1.16,1.16 0 0 1 0.93,0.09 0.92,0.92 0 0 1 0.23,0.92 3.59,3.59 0 0 1 -0.9,1.51 15.7,15.7 0 0 1 -1.6,1.56 5,5 0 0 1 -1.27,0.8 c -1.11,0.4 -2.34,0 -3.52,0.1 a 4.31,4.31 0 0 1 -0.88,0 1.37,1.37 0 0 1 -1.08,-0.9 c -0.42,-1.23 0.74,-1.69 1.39,-2.42 0.65,-0.73 1.19,-1.81 2.21,-2.12 z"
       fill="#a05a2c"
       id="path162"
       style="stroke-width:5.01161" />
    <path
       transform="translate(-38.7,-10.2)"
       d="m 167.85,202.38 a 8.34,8.34 0 0 1 -0.67,3.48 h -0.07 c -1.26,0 -2.53,0 -3.79,0.08 a 52.84,52.84 0 0 0 -6.27,0.88 c -1,0.17 -1.91,0.37 -2.86,0.56 l -2.74,0.56 c -1.73,0.34 -3.4,0.63 -5,0.86 a 15.33,15.33 0 0 1 -5.46,-3.93 c -0.17,-0.18 -0.32,-0.37 -0.48,-0.56 -0.16,-0.19 -0.38,-0.51 -0.56,-0.78 a 5.9,5.9 0 0 1 -1,-2.54 3.45,3.45 0 0 1 0,-1.11 5.25,5.25 0 0 1 2.22,-3 l 0.34,-0.25 a 13,13 0 0 1 7.87,-2.29 h 0.7 a 24.58,24.58 0 0 1 4.43,0.76 c 2.29,0.58 4.59,1.41 6.86,2.13 a 18.35,18.35 0 0 1 4.77,2 3.39,3.39 0 0 1 1.71,3.15 z"
       fill="#3e3e54"
       id="path164"
       style="stroke-width:5.01161" />
    <path
       transform="translate(-38.7,-10.2)"
       d="m 168.27,213.31 c -0.3,1.52 -0.56,3.05 -0.79,4.59 -0.32,2.11 -0.46,4.26 -0.8,6.36 -0.34,2.1 -0.28,4.18 -0.63,6.25 a 11.6,11.6 0 0 0 -0.27,2.35 10,10 0 0 0 0.83,3.18 c -0.06,0.14 -0.26,0.13 -0.41,0.09 a 10.9,10.9 0 0 1 -2.42,-0.86 3.59,3.59 0 0 1 -1.73,-1.83 c -0.66,-1.71 0.13,-3.62 -0.37,-5.41 a 22,22 0 0 1 -1.1,-6.79 44,44 0 0 0 0.32,-5 c -0.23,-2.86 -2,-5.74 -1,-8.42 a 5.64,5.64 0 0 1 4.59,-3.26 3.8,3.8 0 0 1 1.89,0.16 c 3,1.2 2.48,5.66 2,8 z"
       fill="url(#linear-gradient-10)"
       id="path166"
       style="fill:url(#linear-gradient-10);stroke-width:5.01161" />
    <path
       transform="translate(-38.7,-10.2)"
       d="m 161.34,233.4 a 0.44,0.44 0 0 1 0.15,-0.12 c 0.23,-0.1 0.45,0.17 0.58,0.39 a 5.06,5.06 0 0 0 2.44,2.08 0.56,0.56 0 0 0 0.4,0.05 c 0.15,-0.06 0.23,-0.22 0.35,-0.33 a 0.69,0.69 0 0 1 0.66,-0.11 2,2 0 0 1 0.61,0.33 12.83,12.83 0 0 1 1.64,1.3 1,1 0 0 1 0.35,1 0.82,0.82 0 0 1 -0.45,0.37 3.23,3.23 0 0 1 -2.17,-0.08 c -1.3,-0.43 -2.44,-1.21 -3.71,-1.72 a 0.67,0.67 0 0 0 -0.28,-0.06 l -0.21,0.05 a 0.75,0.75 0 0 1 -0.56,-0.36 2,2 0 0 1 0.2,-2.79 z"
       fill="#3e3e54"
       id="path168"
       style="stroke-width:5.01161" />
    <path
       transform="translate(-38.7,-10.2)"
       d="m 174.35,214.08 a 11.46,11.46 0 0 1 0.78,4.52 c 0,4 -1.1,7.82 -2.17,11.63 -0.45,1.6 -0.83,3.25 -1.36,4.83 -0.53,1.58 0.64,4.34 1.49,5.69 a 3.57,3.57 0 0 1 0.5,0.92 0.89,0.89 0 0 1 -0.29,1 1.12,1.12 0 0 1 -0.6,0.13 8.59,8.59 0 0 1 -4.78,-1.82 1.35,1.35 0 0 1 -0.76,-1.51 c 0.5,-8.78 3,-17.23 -3,-24.78 -1.38,-1.74 -3.11,-3.33 -3.7,-5.46 a 1.89,1.89 0 0 1 0,-1 1.56,1.56 0 0 1 0.63,-0.76 c 1.37,-1 3.24,-0.87 4.89,-0.49 a 11.56,11.56 0 0 1 8.37,7.1 z"
       fill="url(#linear-gradient-11)"
       id="path170"
       style="fill:url(#linear-gradient-11);stroke-width:5.01161" />
    <path
       transform="translate(-38.7,-10.2)"
       d="m 167.84,242 c 1.28,0.41 2.29,1.36 3.53,1.86 a 12.41,12.41 0 0 0 3.55,1.2 1.26,1.26 0 0 0 0.61,0 1,1 0 0 0 0.43,-1.35 4.83,4.83 0 0 0 -1,-1.25 10.45,10.45 0 0 1 -1,-1.3 c -0.26,-0.38 -0.53,-1 -1,-1.15 -0.47,-0.15 -1.09,0.2 -1.54,0.27 a 2.9,2.9 0 0 1 -1.86,-0.44 6.84,6.84 0 0 1 -1.45,-1.29 c -0.22,-0.25 -0.54,-0.54 -0.85,-0.41 -0.31,0.13 -0.34,0.44 -0.37,0.72 -0.07,0.68 -0.12,1.36 -0.13,2 a 1.06,1.06 0 0 0 0.09,0.61 c 0.15,0.32 0.61,0.42 0.99,0.53 z"
       fill="#3e3e54"
       id="path172"
       style="stroke-width:5.01161" />
    <path
       transform="translate(-38.7,-10.2)"
       d="m 168.44,198.38 a 14.87,14.87 0 0 1 7.06,12.39 35,35 0 0 1 -13.88,6.29 3.1,3.1 0 0 1 -1.76,0 3.68,3.68 0 0 1 -1.22,-1 c -4.61,-4.74 -12.73,-4.26 -17.57,-8.76 -1.83,-1.71 -3,-4.65 -1.58,-6.69 a 6.73,6.73 0 0 1 2.14,-1.75 c 3.77,-2.24 8.21,-5.59 12.76,-4.81 4.55,0.78 10.12,1.95 14.05,4.33 z"
       fill="#68e1fd"
       id="path174"
       style="stroke-width:5.01161" />
    <path
       transform="translate(-38.7,-10.2)"
       d="m 170.22,214.29 c -2.31,-2.47 -2.73,-6.09 -3,-9.46 a 8.76,8.76 0 0 1 -2.21,1.39 l -0.39,-1.05 a 0.46,0.46 0 0 0 -0.19,-0.26 0.58,0.58 0 0 0 -0.32,0 32.36,32.36 0 0 1 -10.18,1.71 6.55,6.55 0 0 1 -3.82,-0.86 2.58,2.58 0 0 1 -0.85,-3.46 59,59 0 0 1 -8.53,1.66 0.87,0.87 0 0 0 -0.63,0.24 c -0.22,0.29 0,0.7 0.19,1 a 15.36,15.36 0 0 0 9.71,6.2 c 1.09,0.19 6.87,2.35 9.47,5.74 a 1.5,1.5 0 0 0 1.52,0.48 z"
       fill="url(#linear-gradient-12)"
       id="path176"
       style="fill:url(#linear-gradient-12);stroke-width:5.01161" />
    <path
       transform="translate(-38.7,-10.2)"
       d="m 159.73,154.19 a 3.52,3.52 0 0 0 -1,-0.56 3.4,3.4 0 0 0 -3.52,0.45 c -0.79,0.81 -0.84,2.07 -1,3.19 a 9.91,9.91 0 0 1 -2,4.41 6.91,6.91 0 0 0 -1.43,2.19 1.37,1.37 0 0 0 0,0.85 1.88,1.88 0 0 0 0.7,0.67 6.55,6.55 0 0 0 2.14,1 c 0.49,0.14 1.12,0.67 1.6,0.51 0.48,-0.16 0.72,-0.74 1.16,-1 a 2.19,2.19 0 0 1 1.72,0.07 1.69,1.69 0 0 0 1.68,-0.16 1.81,1.81 0 0 0 0.33,-0.61 8.45,8.45 0 0 0 0.4,-1.86 2.82,2.82 0 0 1 0.55,-1.84 1.64,1.64 0 0 0 0.29,-0.3 c 0.22,-0.38 -0.15,-0.82 -0.33,-1.22 a 2.89,2.89 0 0 1 -0.16,-1.17 c -0.04,-1.53 0.27,-3.54 -1.13,-4.62 z"
       fill="#a05a2c"
       id="path178"
       style="stroke-width:5.01161" />
    <path
       transform="translate(-38.7,-10.2)"
       d="m 148.6,164.6 a 0.9,0.9 0 0 0 -0.15,0.76 0.7,0.7 0 0 0 0.64,0.35 14.45,14.45 0 0 1 5.45,1.32 c 0.37,0.18 0.86,0.37 1.12,0 a 0.9,0.9 0 0 0 0,-0.87 2,2 0 0 0 -0.57,-0.61 23.45,23.45 0 0 0 -2.32,-1.49 c -1.49,-0.88 -3.02,-1.34 -4.17,0.54 z"
       fill="#ffffff"
       id="path180"
       style="stroke-width:5.01161" />
    <path
       transform="translate(-38.7,-10.2)"
       d="m 154.35,194.74 c 0.87,1.74 2.7,2.8 0.87,4.55 -3.22,3.11 -8.93,4.41 -13.25,4.37 a 13.27,13.27 0 0 1 -8.17,-2.49 4.67,4.67 0 0 1 -1.57,-2 5.23,5.23 0 0 1 -0.26,-1.62 c -0.57,-10.19 3,-20.23 8.14,-29.07 1,-1.7 2.25,-3.52 4.18,-3.81 a 6.86,6.86 0 0 1 2.07,0.13 120,120 0 0 1 13,3 c 3.2,0.93 5.51,4.36 6.53,7.41 0.89,2.62 1.23,5.4 2,8 a 2.14,2.14 0 0 0 0.82,1.31 2,2 0 0 0 1.5,0.06 32.47,32.47 0 0 0 4.53,-1.29 19.31,19.31 0 0 1 1.55,5.43 26.89,26.89 0 0 0 -3.08,2.86 10.64,10.64 0 0 1 -7.92,2.69 3.94,3.94 0 0 1 -2.7,-1.11 4.55,4.55 0 0 1 -0.81,-1.79 q -0.67,-2.38 -1.18,-4.81 c -0.18,-0.88 -0.35,-1.76 -0.5,-2.65 -0.1,-0.56 0,-2.16 -0.41,-2.57 -1.08,-1.25 -1.53,1.46 -1.72,2.06 a 34.69,34.69 0 0 1 -1.92,4.79 c -0.97,2.05 -2.8,4.36 -1.7,6.55 z"
       fill="#008080"
       id="path182"
       style="stroke-width:5.01161" />
    <path
       transform="translate(-38.7,-10.2)"
       d="m 161,154.5 a 3.58,3.58 0 0 0 0.07,-2 6.76,6.76 0 0 0 -1.47,-2.61 8.58,8.58 0 0 0 -5,-3.25 c -5.4,-0.88 -11.68,4.63 -13.73,9.18 -1.29,2.86 -1.68,6 -2.4,9.09 -0.72,3.09 -1.89,6.18 -4.31,8.19 -1,0.82 -2.17,1.46 -2.76,2.59 a 4.16,4.16 0 0 0 0.66,4.36 11.12,11.12 0 0 0 3.1,2.3 7.13,7.13 0 0 1 2.33,2.83 c 1.24,2.4 1.73,5.14 3.26,7.4 l 2.21,-1.22 a 20.39,20.39 0 0 0 5.18,-3.6 7,7 0 0 0 2.08,-5.74 27.21,27.21 0 0 0 -1.29,-3.61 c -1.24,-3.83 1.47,-5.37 3.83,-7.64 a 7.1,7.1 0 0 0 2,-6.16 4,4 0 0 1 -0.13,-1.51 4.64,4.64 0 0 1 1.22,-1.86 c 1,-1.22 0.21,-2.8 1.4,-3.92 0.92,-0.87 2.33,-1 3.2,-2 A 2.42,2.42 0 0 0 161,154.5 Z"
       fill="#241c1c"
       id="path184"
       style="stroke-width:5.01161" />
    <path
       transform="translate(-38.7,-10.2)"
       d="m 134.5,181.1 a 20.08,20.08 0 0 1 1.33,-3.94 c 2.52,1.79 4.37,5.3 5.3,8.26 0.93,2.96 1.69,6.05 3.59,8.5 l 2.05,-0.71 0.38,1.3 c 0.3,1 -0.56,2.07 -0.47,3.1 a 2.79,2.79 0 0 0 2.11,2.21 7.07,7.07 0 0 0 3.62,-0.26 5.32,5.32 0 0 0 2.11,-0.92 2,2 0 0 0 0.77,-2 1.33,1.33 0 0 1 0.56,1.5 3,3 0 0 1 -1,1.39 16.3,16.3 0 0 1 -5,2.63 26.74,26.74 0 0 1 -2.61,0.89 27,27 0 0 1 -6.2,0.63 c -1.27,0 -2,-0.17 -2.59,-1.42 a 18.2,18.2 0 0 1 -1,-5.75 102.08,102.08 0 0 0 -2.95,-15.41 z"
       fill="url(#linear-gradient-14)"
       id="path186"
       style="fill:url(#linear-gradient-14);stroke-width:5.01161" />
    <g
       fill="#68e1fd"
       id="g196"
       style="stroke-width:5.01161">
      <path
         transform="translate(-38.7,-10.2)"
         d="m 126,209.33 -12.63,33.29 a 1.33,1.33 0 0 0 0.78,1.7 1.65,1.65 0 0 0 0.32,0.07 1.31,1.31 0 0 0 1.36,-0.84 l 12.64,-33.28 a 1.3,1.3 0 0 0 -0.76,-1.69 1.3,1.3 0 0 0 -1.69,0.76 z"
         id="path188"
         style="stroke-width:3.39394" />
      <path
         transform="translate(-38.7,-10.2)"
         d="m 142.89,211.06 3.24,34.67 a 1.42,1.42 0 0 1 -1.34,1.49 h -0.21 a 1.22,1.22 0 0 1 -1.1,-1.09 l -3.24,-34.66 a 1.41,1.41 0 0 1 1.22,-1.49 1.22,1.22 0 0 1 1.42,1 c 0,0 0.01,0.02 0.01,0.08 z"
         id="path190"
         style="stroke-width:3.39394" />
      <path
         transform="translate(-38.7,-10.2)"
         d="m 132.12,210.1 -9.36,33.49 a 1.45,1.45 0 0 0 1.07,1.75 h 0.18 a 1.16,1.16 0 0 0 1.27,-0.85 L 134.65,211 a 1.45,1.45 0 0 0 -0.93,-1.71 1.19,1.19 0 0 0 -1.55,0.66 0.88,0.88 0 0 0 -0.05,0.15 z"
         id="path192"
         style="stroke-width:3.39394" />
      <path
         transform="translate(-38.7,-10.2)"
         d="m 149.44,212 8.48,35.17 a 1.19,1.19 0 0 1 -0.8,1.48 1.17,1.17 0 0 1 -0.49,0 1.45,1.45 0 0 1 -1.24,-1.1 l -8.5,-35.18 a 1.19,1.19 0 0 1 0.83,-1.47 h 0.17 a 1.44,1.44 0 0 1 1.55,1.1 z"
         id="path194"
         style="stroke-width:3.39394" />
    </g>
    <path
       transform="translate(-38.7,-10.2)"
       d="m 147,185.27 c -2.44,-5.57 -5.94,-11.18 -11.56,-13.53 -3.46,-1.44 -7.34,-1.47 -11.09,-1.21 a 21.58,21.58 0 0 0 -8.15,1.77 8.77,8.77 0 0 0 -5,6.32 13.14,13.14 0 0 0 0.53,4.79 l 3.84,16.24 c 0.5,2.14 1.06,4.37 2.55,6 a 12.86,12.86 0 0 0 5.29,2.94 c 6.32,2.28 12.71,4.59 19.37,5.47 6.66,0.88 13.73,0.24 19.58,-3.06 2.09,-1.18 4.22,-3.4 3.38,-5.64 -0.66,-1.73 -2.76,-2.39 -4.61,-2.5 -4.84,-0.3 -6.18,-1 -8.62,-5.24 -2.23,-3.93 -3.66,-8.23 -5.51,-12.35 z"
       fill="#505365"
       id="path198"
       style="stroke-width:5.01161" />
  </g>
</svg>
