<?xml version="1.0" encoding="UTF-8" standalone="no"?>
<svg
   width="1189.7991"
   height="1212.7991"
   version="1.1"
   viewBox="0 0 314.80103 320.88637"
   id="svg24"
   sodipodi:docname="CEENERGY.svg"
   inkscape:version="1.1.2 (b8e25be833, 2022-02-05)"
   xmlns:inkscape="http://www.inkscape.org/namespaces/inkscape"
   xmlns:sodipodi="http://sodipodi.sourceforge.net/DTD/sodipodi-0.dtd"
   xmlns="http://www.w3.org/2000/svg"
   xmlns:svg="http://www.w3.org/2000/svg"
   xmlns:rdf="http://www.w3.org/1999/02/22-rdf-syntax-ns#"
   xmlns:cc="http://creativecommons.org/ns#"
   xmlns:dc="http://purl.org/dc/elements/1.1/">
  <defs
     id="defs28" />
  <sodipodi:namedview
     id="namedview26"
     pagecolor="#ffffff"
     bordercolor="#666666"
     borderopacity="1.0"
     inkscape:pageshadow="2"
     inkscape:pageopacity="0.0"
     inkscape:pagecheckerboard="0"
     inkscape:document-units="mm"
     showgrid="false"
     inkscape:zoom="0.32442453"
     inkscape:cx="-377.59167"
     inkscape:cy="705.86524"
     inkscape:window-width="1920"
     inkscape:window-height="974"
     inkscape:window-x="-11"
     inkscape:window-y="-11"
     inkscape:window-maximized="1"
     inkscape:current-layer="svg24"
     units="px"
     fit-margin-top="-4"
     fit-margin-left="0"
     fit-margin-right="0"
     fit-margin-bottom="0"
     height="1212.7991px" />
  <metadata
     id="metadata2">
    <rdf:RDF>
      <cc:Work
         rdf:about="">
        <dc:format>image/svg+xml</dc:format>
        <dc:type
           rdf:resource="http://purl.org/dc/dcmitype/StillImage" />
      </cc:Work>
    </rdf:RDF>
  </metadata>
  <rect
     x="1270.2777"
     y="50.368309"
     width="305.82999"
     height="305.82999"
     id="rect4" />
  <path
     d="m 1414.5777,104.91391 -9.3115,21.921 18.623,6.9837 -5.8196,-16.683 8.9239,1.7457 0.1936,-2.5218 -9.1175,-7.5657 z m -29.098,12.804 0.194,16.489 6.5957,9.3114 1.1637,-5.044 -6.5957,-5.8196 0.9701,-10.476 12.609,11.834 3.1038,-6.0136 z m 19.399,10.669 -0.5821,1.1641 -9.5054,28.711 43.454,0.38804 9.8935,-12.416 z m 46.17,10.67 -8.1474,2.9098 5.6256,2.9103 z m -1.7457,8.1478 -9.3115,11.639 c 0.5867,-0.33524 8.8692,-6.1124 11.922,15.381 0.3097,2.1805 8.8351,-2.7717 8.8351,-2.7717 -4.1068,-9.3951 -4.3326,-17.265 -11.446,-24.249 z m -54.512,12.609 1.1641,7.3717 -8.5359,22.309 6.0137,-0.38801 7.7597,-22.891 -1.5516,-6.4016 z m 19.399,0.38802 12.61,11.64 -8.5359,17.653 6.4017,0.19355 6.9837,-16.683 -2.9098,-12.803 z m 46.798,12.937 -6.8062,3.6464 2.4076,12.696 3.7832,0.12308 z"
     fill="#ffffff"
     stroke="#000000"
     stroke-width="0.067897px"
     id="path6" />
  <circle
     cx="1423.1777"
     cy="155.57091"
     fill="none"
     stroke="#ffffff"
     stroke-width="2.5312"
     id="ellipse8"
     r="65.684998" />
  <g
     transform="matrix(1.0293333,0,0,1.0293333,77.499219,-183.30439)"
     id="g22"
     inkscape:export-filename="C:\Users\negus\OneDrive\Documents\FEMI'S FILES\BEINGTAN LIMITED\images\ceenergyjpg.png"
     inkscape:export-xdpi="96"
     inkscape:export-ydpi="96">
    <rect
       x="-76.083"
       y="72.446999"
       width="305.82999"
       height="305.82999"
       fill="#221c24"
       id="rect10" />
    <path
       d="m 68.173,136.83 -9.3114,21.921 18.623,6.9837 -5.8196,-16.683 8.9239,1.7457 0.19355,-2.5218 -9.1174,-7.5657 z m -29.098,12.804 0.19402,16.489 6.5957,9.3114 1.1636,-5.044 -6.5957,-5.8196 0.97009,-10.476 12.609,11.834 3.1038,-6.0136 z m 19.399,10.669 -0.58205,1.1641 -9.5055,28.711 43.454,0.38804 9.8935,-12.416 z m 46.17,10.67 -8.1473,2.9098 5.6256,2.9103 z m -1.7457,8.1478 -9.3114,11.639 c 0.58667,-0.33524 8.8692,-6.1124 11.922,15.381 0.3097,2.1805 8.8351,-2.7717 8.8351,-2.7717 -4.1068,-9.3951 -4.3326,-17.265 -11.446,-24.249 z m -54.511,12.609 1.1641,7.3717 -8.5358,22.309 6.0136,-0.38801 7.7598,-22.891 -1.5517,-6.4016 z m 19.399,0.38802 12.61,11.64 -8.5358,17.653 6.4016,0.19355 6.9837,-16.683 -2.9098,-12.803 z m 46.798,12.937 -6.8061,3.6464 2.4076,12.696 3.7831,0.12308 z"
       fill="#ffffff"
       stroke="#000000"
       stroke-width="0.067897px"
       id="path12" />
    <path
       d="M 142.51,187.49 A 65.685,65.685 0 0 1 76.825,253.175 65.685,65.685 0 0 1 11.14,187.49 65.685,65.685 0 0 1 76.825,121.805 65.685,65.685 0 0 1 142.51,187.49 Z"
       fill="none"
       stroke="#ffffff"
       stroke-width="2.5312"
       id="path14" />
    <text
       x="1.2385653"
       y="293.93823"
       fill="#ffffff"
       font-family="Cinzel"
       font-size="28.188px"
       letter-spacing="-0.11953px"
       stroke-width="0.26458"
       style="line-height:0.85;font-variant-ligatures:normal;font-variant-caps:normal;font-variant-numeric:normal;font-variant-east-asian:normal"
       xml:space="preserve"
       id="text20"><tspan
         x="1.2385653"
         y="293.93823"
         style="font-variant-ligatures:normal;font-variant-caps:normal;font-variant-numeric:normal;font-variant-east-asian:normal"
         id="tspan16">CEENERGY</tspan><tspan
         x="1.2385653"
         y="317.89828"
         style="font-variant-ligatures:normal;font-variant-caps:normal;font-variant-numeric:normal;font-variant-east-asian:normal"
         id="tspan18">   MOVERS</tspan></text>
  </g>
</svg>
