<?xml version="1.0" encoding="UTF-8" standalone="no"?>
<svg
   xmlns:dc="http://purl.org/dc/elements/1.1/"
   xmlns:cc="http://creativecommons.org/ns#"
   xmlns:rdf="http://www.w3.org/1999/02/22-rdf-syntax-ns#"
   xmlns:svg="http://www.w3.org/2000/svg"
   xmlns="http://www.w3.org/2000/svg"
   xmlns:sodipodi="http://sodipodi.sourceforge.net/DTD/sodipodi-0.dtd"
   xmlns:inkscape="http://www.inkscape.org/namespaces/inkscape"
   viewBox="0 0 338.92667 255.8909"
   version="1.1"
   id="svg193"
   sodipodi:docname="construction worker.svg"
   width="338.92667"
   height="255.8909"
   inkscape:version="1.0.1 (3bc2e813f5, 2020-09-07)">
  <sodipodi:namedview
     pagecolor="#ffffff"
     bordercolor="#666666"
     borderopacity="1"
     objecttolerance="10"
     gridtolerance="10"
     guidetolerance="10"
     inkscape:pageopacity="0"
     inkscape:pageshadow="2"
     inkscape:window-width="1366"
     inkscape:window-height="702"
     id="namedview99"
     showgrid="false"
     showborder="false"
     inkscape:zoom="1.1172287"
     inkscape:cx="241.62045"
     inkscape:cy="122.68229"
     inkscape:window-x="-8"
     inkscape:window-y="-8"
     inkscape:window-maximized="1"
     inkscape:current-layer="svg193"
     inkscape:document-rotation="0"
     fit-margin-top="0"
     fit-margin-left="0"
     fit-margin-right="0"
     fit-margin-bottom="0" />
  <metadata
     id="metadata199">
    <rdf:RDF>
      <cc:Work
         rdf:about="">
        <dc:format>image/svg+xml</dc:format>
        <dc:type
           rdf:resource="http://purl.org/dc/dcmitype/StillImage" />
        <dc:title>-</dc:title>
      </cc:Work>
    </rdf:RDF>
  </metadata>
  <defs
     id="defs197" />
  <title
     id="title2">-</title>
  <g
     id="g1433"
     transform="matrix(0.24058101,0,0,0.24058101,2.0589877,96.589931)"
     style="stroke-width:4.1566">
    <path
       d="m 12.72,181.54 165.54,95.57 a 13.88,13.88 0 0 0 13.79,0 L 383,168.63 a 7.74,7.74 0 0 0 0.05,-13.42 L 213,56.84 a 5.36,5.36 0 0 0 -5.42,0 L 12.67,172.29 a 5.36,5.36 0 0 0 0.05,9.25 z"
       fill="#ededf7"
       id="path4"
       style="isolation:isolate;fill:#164450;stroke-width:4.1566" />
    <path
       d="m 269.65,145.78 c 0,0 0.47,7.4 1.17,8.22 0.7,0.82 8,3.43 9.16,5.42 1.16,1.99 -1.27,7.54 -6.8,6.17 a 59.47,59.47 0 0 1 -14.24,-6.17 c -1,-0.84 0,-16 0,-16 z"
       fill="#454859"
       id="path6"
       style="isolation:isolate;fill:#000000;stroke-width:4.1566" />
    <path
       d="m 244.45,133.18 c 0,0 -3,6.8 -2.7,7.85 0.3,1.05 5.78,4.19 5.93,6.49 0.16,2.64 -1.47,5.22 -4.1,4.52 a 8,8 0 0 1 -2.06,-1 c -3.24,-2 -6.7,-3.77 -9.65,-6.17 -3.28,-2.68 -0.56,-7.43 0.51,-10.7 q 1.52,-4.66 3.12,-9.29 v 0 z"
       fill="#454859"
       id="path8"
       style="isolation:isolate;fill:#000000;stroke-width:4.1566" />
    <path
       d="m 246.49,69.34 c 0,0 -6,32.63 -8.92,39.54 -2.92,6.91 -6.58,19.3 -6.58,19.3 0,0 5.44,10.24 16.11,6.54 l 13.33,-43.58"
       fill="#68e1fd"
       id="path10"
       style="isolation:isolate;stroke-width:4.62185" />
    <path
       d="m 246.49,69.34 c 0,0 -6,32.63 -8.92,39.54 -2.92,6.91 -6.58,19.3 -6.58,19.3 0,0 5.44,10.24 16.11,6.54 l 13.33,-43.58"
       opacity="0.25"
       id="path12"
       style="isolation:isolate;stroke-width:4.62185" />
    <path
       d="m 267.48,73.15 c 0,0 1.82,26.42 2.92,36.17 1.31,11.51 2.78,38 2.78,38 a 18.64,18.64 0 0 1 -17,0 c 0,0 -3.74,-32 -5.62,-37.38 C 248.68,104.56 246,74.49 246,74.49 Z"
       fill="#68e1fd"
       id="path14"
       style="isolation:isolate;stroke-width:4.62185" />
    <path
       d="m 246,74.49 2.1,-23.83 19.34,1.41 V 73.15 C 261.34,81 246,74.49 246,74.49"
       fill="#68e1fd"
       id="path16"
       style="isolation:isolate;stroke-width:4.62185" />
    <polyline
       points="101 203.06 113.07 195.94 109.76 192.39 100.45 198.47"
       fill="#c65517"
       id="polyline18"
       style="isolation:isolate;stroke-width:4.62185" />
    <polyline
       points="93.33 193.89 107.38 185.87 112.46 191.68 101 198.43"
       fill="#ea6c0f"
       id="polyline20"
       style="isolation:isolate;stroke-width:4.62185" />
    <polygon
       points="93.33,193.89 93.33,198.43 101,203.06 101,198.43 "
       fill="#ff7c28"
       id="polygon22"
       style="isolation:isolate;stroke-width:4.62185" />
    <polyline
       points="79.54 190.88 91.61 183.77 88.31 180.22 79 186.3"
       fill="#c65517"
       id="polyline24"
       style="isolation:isolate;stroke-width:4.62185" />
    <polyline
       points="71.88 181.72 85.93 173.7 91.01 179.51 79.54 186.26"
       fill="#ea6c0f"
       id="polyline26"
       style="isolation:isolate;stroke-width:4.62185" />
    <polygon
       points="71.88,181.72 71.88,186.26 79.54,190.88 79.54,186.26 "
       fill="#ff7c28"
       id="polygon28"
       style="isolation:isolate;stroke-width:4.62185" />
    <polyline
       points="57.93 178.62 70 171.51 66.69 167.95 57.39 174.03"
       fill="#c65517"
       id="polyline30"
       style="isolation:isolate;stroke-width:4.62185" />
    <polyline
       points="50.26 169.45 64.32 161.44 69.4 167.24 57.93 173.99"
       fill="#ea6c0f"
       id="polyline32"
       style="isolation:isolate;stroke-width:4.62185" />
    <polygon
       points="50.26,169.45 50.26,173.99 57.93,178.62 57.93,173.99 "
       fill="#ff7c28"
       id="polygon34"
       style="isolation:isolate;stroke-width:4.62185" />
    <polyline
       points="125.45 217.31 137.52 210.19 134.21 206.64 124.91 212.72"
       fill="#c65517"
       id="polyline36"
       style="isolation:isolate;stroke-width:4.62185" />
    <polyline
       points="117.78 208.14 131.84 200.13 136.92 205.93 125.45 212.68"
       fill="#ea6c0f"
       id="polyline38"
       style="isolation:isolate;stroke-width:4.62185" />
    <polygon
       points="117.78,208.14 117.78,212.68 125.45,217.31 125.45,212.68 "
       fill="#ff7c28"
       id="polygon40"
       style="isolation:isolate;stroke-width:4.62185" />
    <polyline
       points="186.5 201.78 174.43 194.66 177.74 191.11 187.04 197.19"
       fill="#c65517"
       id="polyline42"
       style="isolation:isolate;stroke-width:4.62185" />
    <polyline
       points="194.17 192.61 180.11 184.59 175.03 190.4 186.5 197.15"
       fill="#ea6c0f"
       id="polyline44"
       style="isolation:isolate;stroke-width:4.62185" />
    <polygon
       points="194.17,192.61 194.17,197.15 186.5,201.78 186.5,197.15 "
       fill="#ff7c28"
       id="polygon46"
       style="isolation:isolate;stroke-width:4.62185" />
    <polyline
       points="207.08 189.84 195.01 182.73 198.32 179.18 207.62 185.26"
       fill="#c65517"
       id="polyline48"
       style="isolation:isolate;stroke-width:4.62185" />
    <polyline
       points="214.75 180.67 200.69 172.66 195.61 178.47 207.08 185.22"
       fill="#ea6c0f"
       id="polyline50"
       style="isolation:isolate;stroke-width:4.62185" />
    <polygon
       points="214.75,180.67 214.75,185.22 207.08,189.84 207.08,185.22 "
       fill="#ff7c28"
       id="polygon52"
       style="isolation:isolate;stroke-width:4.62185" />
    <polyline
       points="229.6 176.25 217.52 169.14 220.83 165.59 230.14 171.67"
       fill="#c65517"
       id="polyline54"
       style="isolation:isolate;stroke-width:4.62185" />
    <polyline
       points="237.26 167.09 223.21 159.07 218.13 164.88 229.6 171.63"
       fill="#ea6c0f"
       id="polyline56"
       style="isolation:isolate;stroke-width:4.62185" />
    <polygon
       points="237.26,167.09 237.26,171.63 229.6,176.25 229.6,171.63 "
       fill="#ff7c28"
       id="polygon58"
       style="isolation:isolate;stroke-width:4.62185" />
    <polyline
       points="162.35 216.27 150.28 209.16 153.59 205.6 162.89 211.68"
       fill="#c65517"
       id="polyline60"
       style="isolation:isolate;stroke-width:4.62185" />
    <polyline
       points="170.01 207.1 155.96 199.08 150.88 204.89 162.35 211.64"
       fill="#ea6c0f"
       id="polyline62"
       style="isolation:isolate;stroke-width:4.62185" />
    <polygon
       points="170.01,207.1 170.01,211.64 162.35,216.27 162.35,211.64 "
       fill="#ff7c28"
       id="polygon64"
       style="isolation:isolate;stroke-width:4.62185" />
    <path
       d="m 53.57,160.75 v 2.63 l 91.05,52.88 c 0,0 93.95,-55.64 93.89,-55.93 -0.06,-0.29 0,-2.93 0,-2.93"
       fill="#68e1fd"
       id="path66"
       style="isolation:isolate;stroke-width:4.62185" />
    <path
       d="m 53.57,160.75 v 2.63 l 91.05,52.88 c 0,0 93.95,-55.64 93.89,-55.93 -0.06,-0.29 0,-2.93 0,-2.93"
       opacity="0.25"
       id="path68"
       style="isolation:isolate;stroke-width:4.62185" />
    <polygon
       points="238.51,157.41 146.14,104.08 53.57,160.75 144.87,212.96 "
       fill="#68e1fd"
       id="polygon70"
       style="isolation:isolate;stroke-width:4.62185" />
    <polyline
       points="117.2 122.28 117.2 125.89 197.37 171.71 213.75 162.5 213.75 158.78"
       fill="#ea6c0f"
       id="polyline72"
       style="isolation:isolate;stroke-width:4.62185" />
    <polygon
       points="198.11,168.04 117.2,122.28 133.88,112.4 213.75,158.78 "
       fill="#ff8522"
       id="polygon74"
       style="isolation:isolate;stroke-width:4.62185" />
    <polyline
       points="115.73 118.31 115.73 121.92 195.89 167.74 212.28 158.53 212.28 154.81"
       fill="#ea6c0f"
       id="polyline76"
       style="isolation:isolate;stroke-width:4.62185" />
    <polygon
       points="196.64,164.07 115.73,118.31 132.41,108.43 212.28,154.81 "
       fill="#ff8522"
       id="polygon78"
       style="isolation:isolate;stroke-width:4.62185" />
    <polyline
       points="95.97 134.39 95.97 138 176.13 183.81 192.51 174.61 192.51 170.88"
       fill="#ea6c0f"
       id="polyline80"
       style="isolation:isolate;stroke-width:4.62185" />
    <polygon
       points="176.87,180.15 95.97,134.39 112.65,124.5 192.51,170.88 "
       fill="#ff8522"
       id="polygon82"
       style="isolation:isolate;stroke-width:4.62185" />
    <polyline
       points="94.5 130.42 94.5 134.03 174.66 179.84 191.04 170.64 191.04 166.91"
       fill="#ea6c0f"
       id="polyline84"
       style="isolation:isolate;stroke-width:4.62185" />
    <polygon
       points="175.4,176.18 94.5,130.42 111.18,120.54 191.04,166.91 "
       fill="#ff8522"
       id="polygon86"
       style="isolation:isolate;stroke-width:4.62185" />
    <polyline
       points="76.77 147.33 76.77 150.94 156.93 196.75 173.31 187.55 173.31 183.82"
       fill="#ea6c0f"
       id="polyline88"
       style="isolation:isolate;stroke-width:4.62185" />
    <polygon
       points="157.67,193.09 76.77,147.33 93.45,137.44 173.31,183.82 "
       fill="#ff8522"
       id="polygon90"
       style="isolation:isolate;stroke-width:4.62185" />
    <polyline
       points="76.27 142.95 76.27 146.56 156.43 192.37 172.81 183.17 172.81 179.44"
       fill="#ea6c0f"
       id="polyline92"
       style="isolation:isolate;stroke-width:4.62185" />
    <polygon
       points="157.18,188.71 76.27,142.95 92.95,133.07 172.81,179.44 "
       fill="#ff8522"
       id="polygon94"
       style="isolation:isolate;stroke-width:4.62185" />
    <polyline
       points="114.7 113.97 114.7 117.58 194.86 163.39 211.24 154.19 211.24 150.46"
       fill="#ea6c0f"
       id="polyline96"
       style="isolation:isolate;stroke-width:4.62185" />
    <polygon
       points="195.6,159.72 114.7,113.97 131.38,104.08 211.24,150.46 "
       fill="#ff8522"
       id="polygon98"
       style="isolation:isolate;stroke-width:4.62185" />
    <polyline
       points="113.23 110 113.23 113.61 193.39 159.42 209.77 150.22 209.77 146.49"
       fill="#ea6c0f"
       id="polyline100"
       style="isolation:isolate;stroke-width:4.62185" />
    <polygon
       points="194.13,155.75 113.23,110 129.91,100.11 209.77,146.49 "
       fill="#ff8522"
       id="polygon102"
       style="isolation:isolate;stroke-width:4.62185" />
    <polyline
       points="94.03 126.75 94.03 130.36 174.19 176.18 190.57 166.97 190.57 163.25"
       fill="#ea6c0f"
       id="polyline104"
       style="isolation:isolate;stroke-width:4.62185" />
    <polygon
       points="174.93,172.51 94.03,126.75 110.71,116.87 190.57,163.25 "
       fill="#ff8522"
       id="polygon106"
       style="isolation:isolate;stroke-width:4.62185" />
    <polyline
       points="92.56 122.78 92.56 126.39 172.72 172.21 189.1 163 189.1 159.28"
       fill="#ea6c0f"
       id="polyline108"
       style="isolation:isolate;stroke-width:4.62185" />
    <polygon
       points="173.46,168.54 92.56,122.78 109.24,112.9 189.1,159.28 "
       fill="#ff8522"
       id="polygon110"
       style="isolation:isolate;stroke-width:4.62185" />
    <polyline
       points="114.7 110 114.7 113.61 194.86 159.42 211.24 150.22 211.24 146.49"
       fill="#ea6c0f"
       id="polyline112"
       style="isolation:isolate;stroke-width:4.62185" />
    <polygon
       points="195.6,155.75 114.7,110 131.38,100.11 211.24,146.49 "
       fill="#ff8522"
       id="polygon114"
       style="isolation:isolate;stroke-width:4.62185" />
    <polyline
       points="92.28 123.24 92.28 126.85 172.44 172.66 188.83 163.46 188.83 159.73"
       fill="#ea6c0f"
       id="polyline116"
       style="isolation:isolate;stroke-width:4.62185" />
    <polygon
       points="173.19,169 92.28,123.24 108.97,113.36 188.83,159.73 "
       fill="#ff8522"
       id="polygon118"
       style="isolation:isolate;stroke-width:4.62185" />
    <polyline
       points="90.81 119.27 90.81 122.88 170.97 168.69 187.35 159.49 187.35 155.76"
       fill="#ea6c0f"
       id="polyline120"
       style="isolation:isolate;stroke-width:4.62185" />
    <polygon
       points="171.72,165.03 90.81,119.27 107.49,109.39 187.35,155.76 "
       fill="#ff8522"
       id="polygon122"
       style="isolation:isolate;stroke-width:4.62185" />
    <polyline
       points="184.69 227.41 240.94 193.26 246.57 209.02 188.41 244.17"
       fill="#ffba93"
       id="polyline124"
       style="isolation:isolate;stroke-width:4.62185" />
    <ellipse
       cx="157.3764"
       cy="256.02811"
       rx="5.4400001"
       ry="8.6899996"
       transform="rotate(-6.69)"
       fill="#e59a76"
       id="ellipse126"
       style="isolation:isolate;stroke-width:4.62185" />
    <ellipse
       cx="218.57361"
       cy="228.21136"
       rx="5.4400001"
       ry="8.6899996"
       transform="rotate(-6.69)"
       fill="#ffba93"
       id="ellipse128"
       style="isolation:isolate;stroke-width:4.62185" />
    <polyline
       points="197.07 236.09 253.32 201.95 258.95 217.7 200.78 252.86"
       fill="#f4a57d"
       id="polyline130"
       style="isolation:isolate;stroke-width:4.62185" />
    <ellipse
       cx="168.64799"
       cy="266.08954"
       rx="5.4400001"
       ry="8.6899996"
       transform="rotate(-6.69)"
       fill="#e59a76"
       id="ellipse132"
       style="isolation:isolate;stroke-width:4.62185" />
    <ellipse
       cx="229.85519"
       cy="238.28279"
       rx="5.4400001"
       ry="8.6899996"
       transform="rotate(-6.69)"
       fill="#f4a57d"
       id="ellipse134"
       style="isolation:isolate;stroke-width:4.62185" />
    <polyline
       points="195.63 218.18 251.88 184.03 257.51 199.79 199.34 234.95"
       fill="#ffba93"
       id="polyline136"
       style="isolation:isolate;stroke-width:4.62185" />
    <ellipse
       cx="169.30762"
       cy="248.13382"
       rx="5.4400001"
       ry="8.6899996"
       transform="rotate(-6.69)"
       fill="#e59a76"
       id="ellipse138"
       style="isolation:isolate;stroke-width:4.62185" />
    <ellipse
       cx="230.51482"
       cy="220.31708"
       rx="5.4400001"
       ry="8.6899996"
       transform="rotate(-6.69)"
       fill="#ffba93"
       id="ellipse140"
       style="isolation:isolate;stroke-width:4.62185" />
    <path
       d="m 329.86,174.87 22.3,-13.23 a 3.41,3.41 0 0 0 0.12,-5.8 l -18.43,-12 a 5.71,5.71 0 0 0 -6.31,0 l -21.9,14.74 a 3.41,3.41 0 0 0 0.15,5.75 l 17.43,10.46 a 6.47,6.47 0 0 0 6.64,0.08 z"
       fill="#b24800"
       id="path142"
       style="isolation:isolate;stroke-width:4.62185" />
    <path
       d="m 329.86,172.87 22.3,-13.23 a 3.41,3.41 0 0 0 0.12,-5.8 l -18.43,-12 a 5.71,5.71 0 0 0 -6.31,0 l -21.9,14.74 a 3.41,3.41 0 0 0 0.15,5.75 l 17.43,10.46 a 6.47,6.47 0 0 0 6.64,0.08 z"
       fill="#df5d00"
       id="path144"
       style="isolation:isolate;stroke-width:4.62185" />
    <path
       d="m 326.15,119.86 -11.84,37.45 c 0,0 -2.89,9.5 14.87,8.54 17.76,-0.96 15.42,-9.78 15.42,-9.78 l -11.84,-36.21"
       fill="#ff8522"
       id="path146"
       style="isolation:isolate;stroke-width:4.62185" />
    <path
       d="m 321.76,133.73 c 0,0 2.35,2.43 7.76,2.43 6.76,0 7.48,-3.33 7.48,-3.33 l 2.48,7.57 c 0,0 -1.78,4.27 -10,4.13 -7.4,-0.12 -10.3,-2.78 -10.3,-2.78"
       fill="#ffffff"
       id="path148"
       style="isolation:isolate;stroke-width:4.62185" />
    <g
       id="g1202"
       transform="translate(200.91437,130.4712)"
       style="stroke-width:4.1566">
      <path
         d="m 110.11234,-9.2806968 c 0,0 0.47,7.4 1.17,8.22 0.7,0.81999998 8,3.43 9.16,5.42 1.16,1.99 -1.27,7.5399998 -6.8,6.1699998 A 59.47,59.47 0 0 1 99.402342,4.3593032 c -1,-0.84 0,-16.0000002 0,-16.0000002 z"
         fill="#454859"
         id="path6-7"
         style="isolation:isolate;fill:#000000;stroke-width:4.1566" />
      <path
         d="m 84.912342,-21.880697 c 0,0 -3,6.8 -2.7,7.85 0.3,1.05 5.78,4.1900002 5.93,6.4900002 0.16,2.64 -1.47,5.22 -4.1,4.52 a 8,8 0 0 1 -2.06,-1 c -3.24,-2 -6.7,-3.77 -9.65,-6.1700002 -3.28,-2.68 -0.56,-7.43 0.51,-10.7 q 1.52,-4.66 3.12,-9.29 v 0 z"
         fill="#454859"
         id="path8-4"
         style="isolation:isolate;fill:#000000;stroke-width:4.1566" />
      <path
         d="m 86.952342,-85.720697 c 0,0 -6,32.63 -8.92,39.54 -2.92,6.91 -6.58,19.3 -6.58,19.3 0,0 5.44,10.24 16.11,6.54 l 13.329998,-43.58"
         fill="#68e1fd"
         id="path10-15"
         style="isolation:isolate;stroke-width:4.62185" />
      <path
         d="m 86.952342,-85.720697 c 0,0 -6,32.63 -8.92,39.54 -2.92,6.91 -6.58,19.3 -6.58,19.3 0,0 5.44,10.24 16.11,6.54 l 13.329998,-43.58"
         opacity="0.25"
         id="path12-8"
         style="isolation:isolate;stroke-width:4.62185" />
      <path
         d="m 107.94234,-81.910697 c 0,0 1.82,26.42 2.92,36.17 1.31,11.51 2.78,38.0000002 2.78,38.0000002 a 18.64,18.64 0 0 1 -16.999998,0 c 0,0 -3.74,-32.0000002 -5.62,-37.3800002 -1.88,-5.38 -4.56,-35.45 -4.56,-35.45 z"
         fill="#68e1fd"
         id="path14-2"
         style="isolation:isolate;stroke-width:4.62185" />
      <path
         d="m 86.462342,-80.570697 2.1,-23.830003 19.339998,1.41 v 21.080003 c -6.1,7.85 -21.439998,1.34 -21.439998,1.34"
         fill="#68e1fd"
         id="path16-5"
         style="isolation:isolate;stroke-width:4.62185" />
      <path
         d="m 110.38234,-123.7307 c 0,0 0.72,10 -5,12.2 -5.719998,2.2 -10.919998,-10.82 -6.919998,-15.78"
         fill="#f54e5f"
         id="path172-3"
         style="isolation:isolate;fill:#a05a2c;stroke-width:4.1566" />
      <path
         d="m 104.61234,-120.2207 c -0.74,-0.07 -0.67,1.63 -2.92,1.77 -2.249998,0.14 -1.879998,1 -2.249998,2.18 -0.37,1.18 -0.72,2.18 -2.4,2 a 2.5,2.5 0 0 1 -2.24,-3.37 c 0.7,-1.55 -0.84,-2.25 -0.7,-3.51 0.14,-1.26 1.13,-5.06 3.62,-5.48"
         fill="#454859"
         id="path174-9"
         style="isolation:isolate;stroke-width:4.62185" />
      <path
         d="m 111.19234,-126.7407 a 5.73,5.73 0 0 1 3,4.76 c 0,3.23 -6.58,5.06 -12.65,2.37 -6.069998,-2.69 -6.519998,-4.57 -6.519998,-4.57"
         fill="#ff9948"
         id="path176-04"
         style="isolation:isolate;stroke-width:4.62185" />
      <path
         d="m 112.74234,-124.1807 c 0,0 0.13,-7.82 -6.07,-9.3 -6.2,-1.48 -10.269998,1.55 -10.999998,4.65 a 14.26,14.26 0 0 0 -0.58,4.65 11.65,11.65 0 0 0 8.839998,4.52 c 6.16,0.46 8.95,-2.75 8.81,-4.52 z"
         fill="#ffc759"
         id="path178-9"
         style="isolation:isolate;stroke-width:4.62185" />
      <path
         d="m 97.712342,-131.9707 c 0.18,-0.16 1.22,0 1.49,0 a 10.75,10.75 0 0 1 5.539998,1.46 c 1.94,1.27 2.77,3.39 3.23,5.58 a 6.87,6.87 0 0 1 0.17,1.14 1.16,1.16 0 0 0 1.51,0.62 c 1.06,-0.4 0.75,-2.12 0.75,-2.13 a 9.61,9.61 0 0 0 -10.27,-8 15.58,15.58 0 0 0 -2.419998,1.33 z"
         fill="#ff9948"
         id="path180-3"
         style="isolation:isolate;stroke-width:4.62185" />
      <polyline
         points="205.71 27.88 205.71 31.12 277.72 72.27 292.44 64.01 292.44 60.66"
         fill="#ea6c0f"
         id="polyline182-2"
         style="isolation:isolate;stroke-width:4.62185"
         transform="translate(-159.53766,-155.0607)" />
      <polygon
         points="292.44,60.66 278.39,68.98 205.71,27.88 220.69,19 "
         fill="#ff8522"
         id="polygon184-6"
         style="isolation:isolate;stroke-width:4.62185"
         transform="translate(-159.53766,-155.0607)" />
      <path
         d="m 84.392342,-109.3007 3.41,-4.93 c 0,0 0.65,-6 1.68,-5.39 1.03,0.61 1.83,3.56 1.83,3.56 l 3.5,-1.56 c 0,0 5.999998,3.48 6.079998,4.63 0.08,1.15 -4.239998,6.35 -5.859998,6.21 -1.62,-0.14 -6.11,4.93 -6.11,4.93 0,0 -4.28,-4.63 -4.53,-7.45 z"
         fill="#f54e5f"
         id="path186-7"
         style="isolation:isolate;fill:#a05a2c;stroke-width:4.1566" />
      <path
         d="m 89.942342,-103.8007 c -2.45,-1.06 -4.89,-2.85 -5.55,-5.49 -1.07,1.6 -10.53,16.230003 -2.93,22.430003 6.74,5.54 11.37,-10.48 12.67,-15.710003 a 17.82,17.82 0 0 1 -4.19,-1.23 z"
         fill="#68e1fd"
         id="path188-6"
         style="isolation:isolate;stroke-width:4.62185" />
    </g>
    <path
       d="m 317.37,148 a 16.92,16.92 0 0 0 12,4.76 c 8.79,-0.1 12.09,-6.35 12.09,-6.35 l 2.61,8 c 0,0 -3.77,5.85 -14.61,6.63 -10.22,0.73 -14.61,-5 -14.61,-5"
       fill="#ffffff"
       id="path150"
       style="isolation:isolate;stroke-width:4.62185" />
    <path
       d="m 328.7,120.14 h -2.54 l -11.84,37.45 c 0,0 -2.69,8.86 13.11,8.6 0.35,-15.36 1.12,-30.7 1.27,-46.05 z"
       fill="#ff8522"
       opacity="0.15"
       style="isolation:isolate;mix-blend-mode:multiply;stroke-width:4.62185"
       id="path152" />
    <ellipse
       cx="329.51999"
       cy="120.14"
       rx="3.3699999"
       ry="1.9299999"
       fill="#ff9f57"
       id="ellipse154"
       style="isolation:isolate;stroke-width:4.62185" />
    <polyline
       points="169.01 76.07 167.15 74.93 167.15 68.32 214.27 39.95 216.49 40.85"
       fill="#ffba93"
       id="polyline156"
       style="isolation:isolate;stroke-width:4.62185" />
    <polyline
       points="198.76 75.46 198.76 78.3 215.11 87.78 220.04 84.83 220.41 81.38"
       fill="#ca5a00"
       id="polyline158"
       style="isolation:isolate;stroke-width:4.62185" />
    <polygon
       points="220.41,81.38 215.44,84.89 198.76,75.46 204.08,71.95 "
       fill="#ff8522"
       id="polygon160"
       style="isolation:isolate;stroke-width:4.62185" />
    <polyline
       points="164.61 95.86 164.61 98.69 180.95 108.17 185.89 105.22 186.26 101.77"
       fill="#ca5a00"
       id="polyline162"
       style="isolation:isolate;stroke-width:4.62185" />
    <polygon
       points="186.26,101.77 181.28,105.28 164.61,95.86 169.93,92.34 "
       fill="#ff8522"
       id="polygon164"
       style="isolation:isolate;stroke-width:4.62185" />
    <path
       d="m 208.47,51.63 v 27.22 c 0,0 0.79,1.43 3.59,0 V 50.17"
       fill="#ffba93"
       id="path166"
       style="isolation:isolate;stroke-width:4.62185" />
    <path
       d="M 173.17,71.82 V 99 c 0,0 0.79,1.43 3.59,0 V 70.36"
       fill="#ffba93"
       id="path168"
       style="isolation:isolate;stroke-width:4.62185" />
    <polygon
       points="169.01,76.07 216.49,48.45 216.49,40.85 169.01,68.9 "
       fill="#ff8522"
       id="polygon170"
       style="isolation:isolate;stroke-width:4.62185" />
    <path
       d="m 269.92,31.33 c 0,0 0.72,10 -5,12.2 C 259.2,45.73 254,32.71 258,27.75"
       fill="#f54e5f"
       id="path172"
       style="isolation:isolate;fill:#a05a2c;stroke-width:4.1566" />
    <path
       d="m 264.15,34.84 c -0.74,-0.07 -0.67,1.63 -2.92,1.77 -2.25,0.14 -1.88,1 -2.25,2.18 -0.37,1.18 -0.72,2.18 -2.4,2 a 2.5,2.5 0 0 1 -2.24,-3.37 c 0.7,-1.55 -0.84,-2.25 -0.7,-3.51 0.14,-1.26 1.13,-5.06 3.62,-5.48"
       fill="#454859"
       id="path174"
       style="isolation:isolate;stroke-width:4.62185" />
    <path
       d="m 270.73,28.32 a 5.73,5.73 0 0 1 3,4.76 c 0,3.23 -6.58,5.06 -12.65,2.37 -6.07,-2.69 -6.52,-4.57 -6.52,-4.57"
       fill="#ff9948"
       id="path176"
       style="isolation:isolate;stroke-width:4.62185" />
    <path
       d="m 272.28,30.88 c 0,0 0.13,-7.82 -6.07,-9.3 -6.2,-1.48 -10.27,1.55 -11,4.65 a 14.26,14.26 0 0 0 -0.58,4.65 11.65,11.65 0 0 0 8.84,4.52 c 6.16,0.46 8.95,-2.75 8.81,-4.52 z"
       fill="#ffc759"
       id="path178"
       style="isolation:isolate;stroke-width:4.62185" />
    <path
       d="m 257.25,23.09 c 0.18,-0.16 1.22,0 1.49,0 a 10.75,10.75 0 0 1 5.54,1.46 c 1.94,1.27 2.77,3.39 3.23,5.58 a 6.87,6.87 0 0 1 0.17,1.14 1.16,1.16 0 0 0 1.51,0.62 c 1.06,-0.4 0.75,-2.12 0.75,-2.13 a 9.61,9.61 0 0 0 -10.27,-8 15.58,15.58 0 0 0 -2.42,1.33 z"
       fill="#ff9948"
       id="path180"
       style="isolation:isolate;stroke-width:4.62185" />
    <polyline
       points="205.71 27.88 205.71 31.12 277.72 72.27 292.44 64.01 292.44 60.66"
       fill="#ea6c0f"
       id="polyline182"
       style="isolation:isolate;stroke-width:4.62185" />
    <polygon
       points="278.39,68.98 205.71,27.88 220.69,19 292.44,60.66 "
       fill="#ff8522"
       id="polygon184"
       style="isolation:isolate;stroke-width:4.62185" />
    <path
       d="m 243.93,45.76 3.41,-4.93 c 0,0 0.65,-6 1.68,-5.39 1.03,0.61 1.83,3.56 1.83,3.56 l 3.5,-1.56 c 0,0 6,3.48 6.08,4.63 0.08,1.15 -4.24,6.35 -5.86,6.21 -1.62,-0.14 -6.11,4.93 -6.11,4.93 0,0 -4.28,-4.63 -4.53,-7.45 z"
       fill="#f54e5f"
       id="path186"
       style="isolation:isolate;fill:#a05a2c;stroke-width:4.1566" />
    <path
       d="m 249.48,51.26 c -2.45,-1.06 -4.89,-2.85 -5.55,-5.49 -1.07,1.6 -10.53,16.23 -2.93,22.43 6.74,5.54 11.37,-10.48 12.67,-15.71 a 17.82,17.82 0 0 1 -4.19,-1.23 z"
       fill="#68e1fd"
       id="path188"
       style="isolation:isolate;stroke-width:4.62185" />
    <g
       id="g14"
       transform="translate(62.513864,-121.68888)"
       style="stroke-width:4.1566">
      <g
         id="g12"
         style="stroke-width:4.1566">
        <path
           fill="#424773"
           d="m 315.445,309.231 c 0,0 0.438,3.047 0.493,3.504 0.055,0.457 4.882,-0.27 4.882,-0.27 l 0.392,-3.626 c -10e-4,10e-4 -5.164,-0.037 -5.767,0.392 z"
           id="path10-1"
           style="stroke-width:4.62185" />
      </g>
    </g>
    <g
       id="g20"
       style="fill:#241c1c;stroke-width:4.1566"
       transform="translate(62.513864,-121.68888)">
      <g
         id="g18"
         style="fill:#241c1c;stroke-width:4.1566">
        <path
           fill="#0e538c"
           d="m 315.887,312.348 c 0,0 -1.529,1.835 -3.008,2.636 -1.479,0.799 -3.804,1.117 -4.679,1.944 -0.632,0.599 -2.3,3.172 3.844,3.12 6.143,-0.052 9.104,0.363 9.762,-0.623 0.659,-0.987 -0.951,-7.283 -0.951,-7.283 0,0 -1.455,0.523 -4.968,0.206 z"
           id="path16-2"
           style="fill:#241c1c;stroke-width:4.1566" />
      </g>
    </g>
    <g
       id="g26"
       transform="translate(62.513864,-121.68888)"
       style="stroke-width:4.1566">
      <g
         id="g24"
         style="stroke-width:4.1566">
        <path
           fill="#424773"
           d="m 282.86,309.231 c 0,0 0.439,3.047 0.493,3.504 0.055,0.457 4.882,-0.27 4.882,-0.27 l 0.391,-3.626 c 0,10e-4 -5.162,-0.037 -5.766,0.392 z"
           id="path22"
           style="stroke-width:4.62185" />
      </g>
    </g>
    <g
       id="g32"
       style="fill:#241c1c;stroke-width:4.1566"
       transform="translate(62.513864,-121.68888)">
      <g
         id="g30"
         style="fill:#241c1c;stroke-width:4.1566">
        <path
           fill="#0e538c"
           d="m 283.302,312.348 c 0,0 -1.529,1.835 -3.008,2.636 -1.48,0.799 -6.923,1.457 -7.797,2.285 -0.631,0.598 -1.682,3.004 6.962,2.779 6.141,-0.161 9.105,0.363 9.762,-0.623 0.659,-0.987 -0.952,-7.283 -0.952,-7.283 0,0 -1.37,0.559 -4.967,0.206 z"
           id="path28"
           style="fill:#241c1c;stroke-width:4.1566" />
      </g>
    </g>
    <g
       id="g38"
       style="fill:#0b1728;stroke-width:4.1566"
       transform="translate(62.513864,-121.68888)">
      <g
         id="g36"
         style="fill:#0b1728;stroke-width:4.1566">
        <path
           fill="#0b4870"
           d="m 321.464,311.729 -6.22,0.141 c 0,0 -5.22,-31.391 -6.58,-34.601 -0.96,-2.29 -4.66,-14.59 -6.78,-22.37 -0.85,-3.109 -1.44,-5.5 -1.51,-6.229 -0.1,-1.12 2.02,-4.66 4.42,-8.28 1.73,-0.03 3.49,-0.12 5.22,-0.28 1.65,-0.149 3.54,-0.159 5.08,-0.47 0.4,1.641 0.64,3.36 0.55,5.04 -0.34,6.521 1.65,13.63 2.33,20.43 0.76,7.591 3.86,25.551 3.98,29.61 0.11,4.05 -0.49,17.009 -0.49,17.009 z"
           id="path34"
           style="fill:#0b1728;stroke-width:4.1566" />
      </g>
    </g>
    <g
       id="g48"
       style="fill:#0b1728;stroke-width:4.1566"
       transform="translate(62.513864,-121.68888)">
      <g
         id="g46"
         style="fill:#0b1728;stroke-width:4.1566">
        <path
           fill="#0b4870"
           d="m 310.014,240.109 c -1.86,4.181 -4.15,5.62 -6.17,10.16 -0.61,1.351 -1.28,2.91 -1.96,4.63 -2.77,6.94 -5.8,16.41 -5.8,24.721 0,10.359 -6.11,32.25 -6.11,32.25 h -7.95 c 0.6,-3.78 2.48,-33.811 2.7,-36.311 0.23,-2.49 0.53,-17.79 0.98,-21.779 0.25,-2.261 1.46,-8.961 2.46,-14.351 0,0 7.98,1.14 16.63,0.96 1.73,-0.03 3.49,-0.119 5.22,-0.28 z"
           id="path40"
           style="fill:#0b1728;stroke-width:4.1566" />
        <path
           fill="#292c47"
           d="m 297.814,234.91 c -0.17,0.02 -0.37,0.04 -0.61,0.06 -0.03,0 -2.89,0.34 -2.92,0.34 h -0.21 c 0.4,-0.05 2.94,-0.34 2.97,-0.34 0.31,-0.031 0.57,-0.05 0.77,-0.06 z"
           id="path42"
           style="fill:#0b1728;stroke-width:4.1566" />
        <path
           fill="#292c47"
           d="m 298.564,234.83 c -0.11,0.02 -0.22,0.029 -0.37,0.04 0.15,-0.02 0.26,-0.03 0.37,-0.04 z"
           id="path44"
           style="fill:#0b1728;stroke-width:4.1566" />
      </g>
    </g>
    <path
       fill="#2a94f4"
       d="m 377.60786,117.95112 c -1.54,0.311 -3.43,0.32 -5.08,0.47 -1.73,0.16 -3.49,0.25 -5.22,0.28 -8.65,0.18 -16.63,-0.96 -16.63,-0.96 v -0.02 l 0.13,-2.07 0.16,-2.57 c 0.11,0.05 0.23,0.08 0.34,0.12 0.44,0.16 2.42,0.58 4.62,0.41 0.09,0.01 0.18,0.01 0.27,0 l 0.34,0.01 c 0,0 0.02,0 0.05,0 h 0.21 c 0.03,0 2.89,-0.34 2.92,-0.34 0.24,-0.02 0.44,-0.04 0.61,-0.06 0.07,0 0.13,-0.011 0.19,-0.021 0.02,0.01 0.03,0 0.04,0 0.05,-0.01 0.11,-0.01 0.15,-0.02 0.15,-0.011 0.26,-0.021 0.37,-0.04 h 0.04 c 0.09,-0.021 0.17,-0.021 0.26,-0.03 0.12,-0.01 0.23,-0.03 0.37,-0.04 0.02,0 0.05,0 0.08,-0.01 0.2,-0.021 0.44,-0.04 0.77,-0.07 0.1,0 0.21,-0.01 0.32,-0.02 h 0.02 c 1.26,-0.051 2.41,-0.11 3.45,-0.181 0.22,-0.02 0.43,-0.029 0.63,-0.04 0.49,-0.029 0.95,-0.069 1.39,-0.1 0.18,-0.01 0.35,-0.03 0.52,-0.04 1.2,-0.09 2.22,-0.19 3.07,-0.29 1.39,-0.17 2.33,-0.34 2.84,-0.51 0.14,-0.04 0.24,-0.08 0.31,-0.12 0.1,-0.061 0.34,-0.13 0.49,-0.23 0.53,1.33 1.04,3.091 1.37,4.4 0.16,0.5 0.32,1.01 0.46,1.53 0,0.029 0.01,0.05 0.02,0.08 0.09,0.281 0.15,0.472 0.12,0.482 z"
       id="path50"
       style="fill:#241c1c;stroke-width:4.1566" />
    <path
       fill="#e59a67"
       d="m 360.32786,113.22112 c -0.17,0.02 -0.37,0.04 -0.61,0.06 -0.03,0 -2.89,0.34 -2.92,0.34 h -0.21 c 0.4,-0.05 2.94,-0.34 2.97,-0.34 0.31,-0.031 0.57,-0.05 0.77,-0.06 z"
       id="path52"
       style="stroke-width:4.62185" />
    <path
       fill="#e59a67"
       d="m 361.07786,113.14112 c -0.11,0.02 -0.22,0.029 -0.37,0.04 0.15,-0.02 0.26,-0.03 0.37,-0.04 z"
       id="path54"
       style="stroke-width:4.62185" />
    <g
       id="g126"
       style="fill:#a05a2c;stroke-width:4.1566"
       transform="translate(62.513864,-121.68888)">
      <path
         fill="#f1b99e"
         d="m 303.354,190.47 c -0.57,0.24 -1.2,0.55 -1.82,0.9 -0.38,0.21 -0.6,0.72 -0.79,1.239 -0.21,0.58 -0.39,1.171 -0.73,1.381 -0.88,0.569 -3.98,3.64 -3.98,3.64 l 0.45,-4.92 0.37,-0.48 0.71,-0.93 -0.07,-0.84 c -0.14,0.06 -0.3,0.149 -0.44,0.25 0.02,-0.26 0.03,-0.55 0.04,-0.851 0.57,-0.189 1.09,-0.399 1.56,-0.609 0.22,0.99 0.36,2.17 0.36,2.17 z"
         id="path114"
         style="fill:#a05a2c;stroke-width:4.1566" />
      <path
         fill="#f1b99e"
         d="m 304.344,190.26 v 0.03 c -0.02,-0.01 -0.03,-0.021 -0.04,-0.03 z"
         id="path116"
         style="fill:#a05a2c;stroke-width:4.1566" />
      <path
         fill="#f1b99e"
         d="m 304.344,190.29 c -0.05,0.68 -0.06,1.02 -0.06,1.02 -0.2,0.15 -0.42,0.28 -0.64,0.391 -0.89,0.489 -1.92,0.77 -2.9,0.909 -0.51,0.07 -1,0.101 -1.46,0.101 0.65,-0.41 1.45,-0.9 2.25,-1.34 0.62,-0.351 1.25,-0.66 1.82,-0.9 h 0.02 c 0.29,-0.12 0.55,-0.21 0.8,-0.28 0,0 0.04,0.021 0.13,0.07 0.01,0.009 0.02,0.019 0.04,0.029 z"
         id="path118"
         style="fill:#a05a2c;stroke-width:4.1566" />
      <path
         fill="#f1b99e"
         d="m 306.894,189.7 -2.55,0.56 h -0.04 c -0.09,-0.05 -0.13,-0.07 -0.13,-0.07 -0.25,0.07 -0.51,0.16 -0.8,0.28 h -0.02 l -4.34,0.95 c 0,0 -0.14,-1.18 -0.36,-2.17 -0.12,-0.58 -0.27,-1.101 -0.44,-1.28 -0.02,-0.02 -0.04,-0.04 -0.07,-0.05 -0.01,-0.01 -0.02,-0.021 -0.03,-0.021 -0.31,0.11 -0.57,0.2 -0.75,0.271 -0.18,0.06 -0.28,0.09 -0.28,0.09 -0.99,0.29 -1.8,0.45 -2.2,0.41 -1.33,-0.13 -2.36,-4.58 -2.7,-4.94 -0.34,-0.359 -1.96,-0.77 -1.74,-1.33 0.22,-0.56 1.9,-3.989 1.12,-4.439 -0.52,-0.311 -0.17,-1.521 0.24,-2.54 0.01,0.01 0.01,0.02 0.01,0.02 0.4,0.261 0.77,0.471 1.1,0.641 0.45,0.229 0.84,0.39 1.19,0.5 -0.11,0.66 -0.18,1.38 -0.24,2.189 -0.14,2.011 0.3,3.34 0.67,3.15 0.27,-0.14 0.32,-2.021 0.43,-3.061 0.12,-1.05 0.78,-1.42 1.53,-0.319 0.76,1.1 0.35,1.71 0.5,3.68 0.13,1.811 1.5,2.87 2.57,3.4 0.09,0.05 0.18,0.09 0.26,0.13 0.43,0.189 1.55,0.229 2.76,0.21 h 0.01 c 0.09,0.01 0.16,0 0.25,0 0.71,-0.01 1.43,-0.05 2.06,-0.08 0.56,-0.04 1.05,-0.07 1.38,-0.1 0.04,1.969 0.61,3.919 0.61,3.919 z"
         id="path120"
         style="fill:#a05a2c;stroke-width:4.1566" />
      <path
         fill="#f1b99e"
         d="m 297.094,189.439 c 0.01,-0.409 0,-0.819 -0.01,-1.18 0,0 0.1,-0.03 0.28,-0.09 0.18,-0.07 0.44,-0.16 0.75,-0.271 0.01,0 0.02,0.011 0.03,0.021 0.03,0.01 0.05,0.03 0.07,0.05 0.17,0.18 0.32,0.7 0.44,1.28 -0.47,0.21 -0.99,0.42 -1.56,0.609 z"
         id="path122"
         style="fill:#a05a2c;stroke-width:4.1566" />
      <path
         fill="#f1b99e"
         d="m 296.751,191.953 c -0.11,0.24 0.27,0.471 0.93,0.61 l -0.12,-1.26 -0.07,-0.84 c -0.14,0.06 -0.3,0.149 -0.44,0.25 -0.01,0.069 -0.01,0.14 -0.02,0.199 -0.01,0.141 -0.05,0.32 -0.11,0.49 -0.06,0.232 -0.14,0.461 -0.17,0.551 z"
         id="path124"
         style="fill:#a05a2c;stroke-width:4.1566" />
    </g>
    <g
       id="g132"
       style="fill:#a05a2c;stroke-width:4.1566"
       transform="translate(62.513864,-121.68888)">
      <path
         fill="#f1b99e"
         d="m 298.144,187.92 c -0.27,0.09 -0.53,0.17 -0.78,0.25 0.18,-0.07 0.44,-0.16 0.75,-0.271 0.01,0 0.02,0.011 0.03,0.021 z"
         id="path128"
         style="fill:#a05a2c;stroke-width:4.1566" />
      <path
         fill="#f1b99e"
         d="m 301.614,177.16 c -0.01,0.029 -0.02,0.05 -0.04,0.08 -0.12,-0.021 -0.23,-0.051 -0.34,-0.07 -0.07,-0.01 -0.45,-0.08 -1.04,-0.18 0.5,0.079 0.97,0.13 1.42,0.17 z"
         id="path130"
         style="fill:#a05a2c;stroke-width:4.1566" />
    </g>
    <g
       id="g140"
       style="fill:#241f1c;stroke-width:4.1566"
       transform="translate(62.513864,-121.68888)">
      <path
         fill="#0e538c"
         d="m 307.604,178.18 c -0.29,2.271 -0.98,4.561 -1.23,6.061 -0.09,0.489 -0.11,1.02 -0.09,1.54 -0.33,0.029 -0.82,0.06 -1.38,0.1 -0.63,0.03 -1.35,0.07 -2.06,0.08 -0.09,0 -0.16,0.01 -0.25,0 h -0.01 c -1.21,0.02 -2.33,-0.021 -2.76,-0.21 -0.08,-0.04 -0.17,-0.08 -0.26,-0.13 -1.07,-0.53 -2.44,-1.59 -2.57,-3.4 -0.15,-1.97 0.26,-2.58 -0.5,-3.68 -0.75,-1.101 -1.41,-0.73 -1.53,0.319 -0.11,1.04 -0.16,2.921 -0.43,3.061 -0.37,0.189 -0.81,-1.14 -0.67,-3.15 0.06,-0.81 0.13,-1.529 0.24,-2.189 -0.35,-0.11 -0.74,-0.271 -1.19,-0.5 -0.33,-0.17 -0.7,-0.38 -1.1,-0.641 0,0 0,-0.01 -0.01,-0.02 0,-0.01 0.01,-0.01 0.01,-0.021 0.38,0.101 0.79,0.19 1.22,0.28 1.2,0.25 2.54,0.51 3.77,0.73 0.73,0.14 1.43,0.26 2.04,0.359 0.04,0 0.07,0.011 0.11,0.011 0.19,0.029 0.37,0.069 0.55,0.1 0.24,0.04 0.46,0.08 0.69,0.11 0.59,0.1 0.97,0.17 1.04,0.18 0.11,0.02 0.22,0.05 0.34,0.07 0.43,0.09 0.86,0.18 1.3,0.26 0.09,0.02 0.19,0.04 0.28,0.05 0.36,0.07 0.72,0.13 1.08,0.19 0.59,0.1 1.18,0.18 1.78,0.26 0.38,0.05 0.76,0.09 1.14,0.14 0.15,0.009 0.3,0.02 0.45,0.04 z"
         id="path134"
         style="fill:#241f1c;stroke-width:4.1566" />
      <path
         fill="#0b4870"
         d="m 301.614,177.16 c -0.01,0.029 -0.02,0.05 -0.04,0.08 -0.12,-0.021 -0.23,-0.051 -0.34,-0.07 -0.07,-0.01 -0.45,-0.08 -1.04,-0.18 0.5,0.079 0.97,0.13 1.42,0.17 z"
         id="path136"
         style="fill:#241f1c;stroke-width:4.1566" />
      <path
         fill="#0b4870"
         d="m 291.814,175.399 c 0,0.011 -0.01,0.011 -0.01,0.021 0,-0.01 0,-0.01 -0.01,-0.021 0,0 0.01,0 0.02,0 z"
         id="path138"
         style="fill:#241f1c;stroke-width:4.1566" />
    </g>
    <path
       fill="#2a94f4"
       d="m 380.49386,89.69112 c 0,0 -1.018,12.938 -2.036,14.465 -1.017,1.526 -6.032,-0.509 -6.032,-0.509 l 2.617,-15.554"
       id="path144-9"
       style="fill:#2b0000;stroke-width:4.1566" />
    <path
       fill="#2a94f4"
       d="m 380.25686,92.48512 c -0.985,0.113 -0.92,-1.572 -1.635,-1.572 -1.631,0 -2.556,-0.183 -2.556,-0.183 0,0 -0.933,0.828 -2.206,1.944 0.069,-0.602 0.157,-1.369 0.252,-2.276 0.026,-0.219 0.053,-0.453 0.079,-0.689 0.009,-0.043 0.009,-0.096 0.017,-0.139 0.018,-0.166 0.035,-0.331 0.053,-0.506 0.017,-0.218 0.043,-0.437 0.069,-0.672 0.062,-0.585 0.131,-1.204 0.201,-1.85 0.07,-0.654 0.14,-1.334 0.218,-2.041 0.043,-0.393 0.087,-0.784 0.122,-1.186 0.079,-0.681 0.158,-1.369 0.228,-2.059 0.035,-0.357 0.078,-0.724 0.113,-1.09 0.008,-0.026 0.008,-0.044 0.008,-0.062 0.027,-0.218 0.043,-0.428 0.07,-0.637 0.332,-3.175 0.654,-6.236 0.881,-8.417 1.413,0.855 4.222,3.166 4.536,8.408 0.026,0.287 0.043,0.602 0.052,0.941 0.147,2.585 0.019,8.315 -0.502,12.086 z"
       id="path146-4"
       style="fill:#2b0000;stroke-width:4.1566" />
    <path
       fill="#f1b99e"
       d="m 366.81786,68.57112 -0.93,0.21 c 0.29,-0.12 0.55,-0.21 0.8,-0.28 0,-0.001 0.04,0.02 0.13,0.07 z"
       id="path148-9"
       style="stroke-width:4.62185" />
    <path
       fill="#f1b99e"
       d="m 364.12786,55.47112 c -0.01,0.029 -0.02,0.05 -0.04,0.08 -0.12,-0.021 -0.23,-0.051 -0.34,-0.07 -0.07,-0.01 -0.45,-0.08 -1.04,-0.18 0.5,0.079 0.97,0.13 1.42,0.17 z"
       id="path150-8"
       style="stroke-width:4.62185" />
    <path
       fill="#2a94f4"
       d="m 371.37586,70.48412 c 0,0 -0.232,-1.829 -0.927,-2.478 -0.695,-0.649 -5.327,-0.648 -6.716,-0.476 -1.39,0.174 -4.816,1.772 -5.269,2.11 -0.453,0.337 0.44,2.096 0.44,2.096 z"
       id="path152-7"
       style="fill:#2b0000;stroke-width:4.1566" />
    <path
       fill="#0f2c3f"
       d="m 375.66786,110.31112 c 0.07,0.39 0.17,0.7 0.1,0.99 -0.01,0.06 -0.06,0.119 -0.13,0.159 -0.15,0.101 -0.39,0.17 -0.49,0.23 -0.07,0.04 -0.17,0.08 -0.31,0.12 -0.51,0.17 -1.45,0.34 -2.84,0.51 -0.85,0.1 -1.87,0.2 -3.07,0.29 -0.17,0.01 -0.34,0.03 -0.52,0.04 -0.44,0.03 -0.9,0.07 -1.39,0.1 -0.2,0.011 -0.41,0.021 -0.63,0.04 -1.04,0.07 -2.19,0.13 -3.45,0.181 h -0.02 c -0.11,0.01 -0.22,0.02 -0.32,0.02 -0.33,0.03 -0.57,0.05 -0.77,0.07 -0.03,0.01 -0.06,0.01 -0.08,0.01 -0.14,0.01 -0.25,0.03 -0.37,0.04 -0.09,0.01 -0.17,0.01 -0.26,0.03 h -0.04 c -0.11,0.01 -0.22,0.02 -0.37,0.04 -0.04,0.01 -0.1,0.01 -0.15,0.02 -0.01,0 -0.02,0.01 -0.04,0 -0.06,0.01 -0.12,0.021 -0.19,0.021 -0.2,0.01 -0.46,0.029 -0.77,0.06 -0.03,0 -2.57,0.29 -2.97,0.34 -0.03,0 -0.05,0 -0.05,0 l -0.34,-0.01 h -0.27 c -2.2,0.17 -4.18,-0.25 -4.62,-0.41 -0.11,-0.04 -0.23,-0.07 -0.34,-0.12 -0.13,-0.05 -0.24,-0.13 -0.29,-0.279 -0.19,-0.44 0.6,-2.83 0.65,-3.53 0.05,-0.891 0.2,-1.86 0.29,-2.66 0.12,-1.81 0.24,-3.73 0,-5.58 -0.06,-0.5 -0.12,-1.01 -0.18,-1.53 0.54,0.57 1.69,1.091 3.71,1.48 4.67,0.92 10.07,1.12 14.42,1.07 2.58,-0.021 4.8,-0.131 6.26,-0.23 -0.23,1.3 -0.41,2.46 -0.54,3.48 -0.18,1.329 0.05,2.659 0.21,3.97 0.03,0.308 0.13,0.738 0.17,1.038 z"
       id="path154"
       style="fill:#1c241f;stroke-width:4.1566" />
    <path
       fill="#0f2c3f"
       d="m 380.17786,78.21012 v 0.061 c -0.1,1.59 -0.36,3.45 -0.69,5.46 -7.8,0.85 -20.71,-0.45 -20.71,-0.45 0,0 -11.55,4.87 -1.52,6.83 7.57,1.48 17.01,1.1 20.84,0.82 -0.25,1.239 -0.52,2.46 -0.77,3.66 v 0.01 c -7.83,0.85 -20.66,-0.45 -20.66,-0.45 0,0 -4.36,1.84 -5.4,3.71 -0.66,-6.29 -1.15,-13.74 -0.87,-18.52 0.03,-0.44 0.07,-0.86 0.12,-1.24 0.49,-3.74 3.57,-6.63 9.71,-7.811 2.78,-0.55 6.18,-0.729 10.26,-0.489 0,0 10.28,-0.881 9.69,8.409 z"
       id="path156"
       style="fill:#1c241f;stroke-width:4.1566" />
    <path
       fill="#fcd2b1"
       d="m 379.48786,83.73112 c -0.09,0.56 -0.19,1.14 -0.3,1.72 -0.22,1.19 -0.45,2.41 -0.71,3.63 -0.12,0.62 -0.25,1.23 -0.38,1.851 -3.83,0.279 -13.27,0.66 -20.84,-0.82 -10.03,-1.96 1.52,-6.83 1.52,-6.83 0,0 12.91,1.299 20.71,0.449 z"
       id="path158"
       style="fill:#1c241f;stroke-width:4.1566" />
    <path
       fill="#fcd2b1"
       d="m 377.32786,94.60112 c -0.13,0.59 -0.26,1.17 -0.38,1.74 -0.32,1.46 -0.6,2.85 -0.85,4.1 -0.09,0.479 -0.18,0.939 -0.27,1.38 -3.92,0.271 -13.23,0.62 -20.68,-0.84 -2.02,-0.39 -3.17,-0.91 -3.71,-1.48 -0.06,-0.529 -0.12,-1.069 -0.17,-1.63 0,0 0,0 0,-0.01 1.04,-1.87 5.4,-3.71 5.4,-3.71 0,0 12.83,1.3 20.66,0.45 z"
       id="path160"
       style="fill:#1c241f;stroke-width:4.1566" />
    <path
       fill="#fcd2b1"
       d="m 351.26786,97.87112 c 0.05,0.561 0.11,1.101 0.17,1.63 -0.49,-0.51 -0.48,-1.07 -0.17,-1.63 z"
       id="path162"
       style="stroke-width:4.62185" />
    <path
       id="XMLID_56_"
       fill="#2a94f4"
       d="m 357.63386,87.87412 c 0,0 -4.55,16.775 -8.235,17.947 -2.113,0.672 -18.426,-9.691 -18.426,-9.691 l 3.664,-2.351 11.779,3.584 2.796,-11.523 z"
       style="fill:#2b0000;stroke-width:4.1566" />
    <g
       id="g173"
       style="fill:#784421;stroke-width:4.1566"
       transform="translate(62.513864,-121.68888)">
      <g
         id="g167"
         style="fill:#784421;stroke-width:4.1566">
        <path
           fill="#f1b99e"
           d="m 262.205,214.384 c -0.089,-0.242 -0.151,-0.497 -0.27,-0.729 -0.26,-0.504 -0.763,-0.842 -1.056,-1.327 -0.229,-0.381 -0.315,-0.827 -0.478,-1.24 -0.184,-0.47 -0.733,-1.182 -0.362,-1.365 -0.174,-0.279 -0.404,-0.583 -0.565,-0.87 -0.124,-0.217 -0.252,-0.667 0.026,-0.716 0.415,-0.071 1.024,0.32 1.358,0.487 0.445,0.222 1.238,0.921 1.653,1.189 0.939,0.608 1.842,0.699 1.842,0.699 0,0 -0.297,-0.278 -0.208,-0.495 0.138,-0.335 1.018,-0.095 1.854,-0.235 0.433,-0.074 1.837,0.846 2.286,1.095 0.449,0.25 1.464,2.342 1.702,2.766 0.623,1.112 2.554,1.994 2.554,1.994 0,0 -2.887,2.779 -2.901,2.794 -0.071,0.064 -0.604,-0.312 -0.673,-0.354 -0.286,-0.172 -0.637,-0.352 -0.976,-0.381 -1.389,-0.699 -3.124,-0.704 -4.416,-1.618 -0.592,-0.418 -1.098,-0.982 -1.358,-1.659 -0.004,-0.012 -0.008,-0.023 -0.012,-0.035 z"
           id="path165"
           style="fill:#784421;stroke-width:4.1566" />
      </g>
      <g
         id="XMLID_37_"
         style="fill:#784421;stroke-width:4.1566">
        <g
           id="g170"
           style="fill:#784421;stroke-width:4.1566">
          <path
             id="XMLID_10_"
             fill="#f2a19c"
             d="m 264.354,210.513 c 0.716,0.376 1.223,0.316 1.78,0.417 0.437,0.079 0.51,0.265 0.979,0.333 -0.55,0.301 -0.66,-0.066 -1.657,-0.114 -0.462,-0.023 -0.947,-0.058 -1.26,-0.404 -0.106,-0.119 0.004,-0.294 0.158,-0.232 z"
             style="fill:#784421;stroke-width:4.1566" />
        </g>
      </g>
    </g>
    <path
       fill="#2a94f4"
       d="m 356.53086,91.59412 c -3.298,0 -6.676,-0.586 -8.387,-1.354 0.889,-9.168 3.177,-14.638 4.797,-16.452 1.015,-1.136 2.572,-1.691 4.055,-1.348 1.743,0.404 3.835,1.918 3.836,6.856 10e-4,2.91 -3.661,11.225 -4.301,12.298 z"
       id="path176-0"
       style="fill:#2b0000;stroke-width:4.1566" />
    <g
       id="g182"
       style="fill:#ffd42a;stroke-width:4.1566"
       transform="translate(62.513864,-121.68888)">
      <path
         fill="#0f2c3f"
         d="m 308.924,177.97 c -0.08,0.4 -0.69,0.33 -0.69,0.33 -0.47,-0.03 -0.96,-0.06 -1.43,-0.11 -0.06,0 -0.13,-0.01 -0.2,-0.01 -0.15,-0.02 -0.3,-0.03 -0.45,-0.04 -0.38,-0.05 -0.76,-0.09 -1.14,-0.14 -0.6,-0.08 -1.19,-0.16 -1.78,-0.26 -0.36,-0.061 -0.72,-0.12 -1.08,-0.19 -0.09,-0.01 -0.19,-0.03 -0.28,-0.05 -0.44,-0.08 -0.87,-0.17 -1.3,-0.26 0.02,-0.03 0.03,-0.051 0.04,-0.08 -0.45,-0.04 -0.92,-0.091 -1.42,-0.17 -0.23,-0.03 -0.45,-0.07 -0.69,-0.11 -0.18,-0.03 -0.36,-0.07 -0.55,-0.1 -0.04,0 -0.07,-0.011 -0.11,-0.011 -0.61,-0.1 -1.31,-0.22 -2.04,-0.359 -1.23,-0.221 -2.57,-0.48 -3.77,-0.73 -0.43,-0.09 -0.84,-0.18 -1.22,-0.28 -0.01,0 -0.02,0 -0.02,0 -1.37,-0.319 -2.4,-0.63 -2.63,-0.859 -0.62,-0.65 1.25,-1.07 2.15,-1.221 0.28,-0.06 0.46,-0.079 0.46,-0.079 l 0.01,0.01 c 0.11,-1.22 0.45,-3.141 1.55,-4.811 1.36,-2.08 3.86,-3.779 8.47,-3.3 0.58,0.07 1.12,0.15 1.63,0.26 l 0.01,0.011 c 7.99,1.68 6.89,8.93 6.14,11.75 0,-0.001 0.47,0.219 0.34,0.809 z"
         id="path178-3"
         style="fill:#ffd42a;stroke-width:4.1566" />
      <path
         fill="#ffb41d"
         d="m 300.614,177.16 c -0.01,0.029 -0.02,0.05 -0.04,0.08 -0.12,-0.021 -0.23,-0.051 -0.34,-0.07 -0.07,-0.01 -0.45,-0.08 -1.04,-0.18 0.5,0.079 0.97,0.13 1.42,0.17 z"
         id="path180-5"
         style="fill:#ffd42a;stroke-width:4.1566" />
    </g>
    <path
       fill="#0f2c3f"
       d="m 360.32786,113.22112 c -0.17,0.02 -0.37,0.04 -0.61,0.06 -0.03,0 -2.89,0.34 -2.92,0.34 h -0.21 c 0.4,-0.05 2.94,-0.34 2.97,-0.34 0.31,-0.031 0.57,-0.05 0.77,-0.06 z"
       id="path226"
       style="stroke-width:4.62185" />
    <path
       fill="#0f2c3f"
       d="m 361.07786,113.14112 c -0.11,0.02 -0.22,0.029 -0.37,0.04 0.15,-0.02 0.26,-0.03 0.37,-0.04 z"
       id="path228"
       style="stroke-width:4.62185" />
  </g>
</svg>
