<?xml version="1.0" encoding="UTF-8" standalone="no"?>
<svg
   width="595.05029"
   height="911.58667"
   version="1.1"
   viewBox="0 0 157.44039 241.19062"
   id="svg618"
   sodipodi:docname="ENGINEER THINKING.svg"
   inkscape:version="1.1.2 (b8e25be833, 2022-02-05)"
   xmlns:inkscape="http://www.inkscape.org/namespaces/inkscape"
   xmlns:sodipodi="http://sodipodi.sourceforge.net/DTD/sodipodi-0.dtd"
   xmlns="http://www.w3.org/2000/svg"
   xmlns:svg="http://www.w3.org/2000/svg"
   xmlns:rdf="http://www.w3.org/1999/02/22-rdf-syntax-ns#"
   xmlns:cc="http://creativecommons.org/ns#"
   xmlns:dc="http://purl.org/dc/elements/1.1/">
  <sodipodi:namedview
     pagecolor="#ffffff"
     bordercolor="#666666"
     borderopacity="1"
     objecttolerance="10"
     gridtolerance="10"
     guidetolerance="10"
     inkscape:pageopacity="0"
     inkscape:pageshadow="2"
     inkscape:window-width="1920"
     inkscape:window-height="974"
     id="namedview620"
     showgrid="false"
     inkscape:zoom="0.15517065"
     inkscape:cx="551.00626"
     inkscape:cy="528.45045"
     inkscape:window-x="-11"
     inkscape:window-y="-11"
     inkscape:window-maximized="1"
     inkscape:current-layer="svg618"
     fit-margin-top="0"
     fit-margin-left="0"
     fit-margin-right="0"
     fit-margin-bottom="0"
     showborder="false"
     inkscape:document-rotation="0"
     inkscape:pagecheckerboard="0" />
  <defs
     id="defs152">
    <clipPath
       id="clipPath2690">
      <path
         d="m 173.67,72.126 h 2.533 V 38.138 h -2.533 z"
         id="path2" />
    </clipPath>
    <clipPath
       id="clipPath2710">
      <path
         d="m 143.88,101.15 h 39.693 V 41.218 H 143.88 Z"
         id="path5" />
    </clipPath>
    <clipPath
       id="clipPath2746">
      <path
         d="m 95.05,90.444 h 197 v -5.1841 h -197 z"
         id="path8" />
    </clipPath>
    <clipPath
       id="clipPath2770">
      <path
         d="M 168.42,75.077 H 388.38 V 39.187 H 168.42 Z"
         id="path11" />
    </clipPath>
    <clipPath
       id="clipPath2790">
      <path
         d="m 343.24,67.439 h 27.078 V 60.9125 H 343.24 Z"
         id="path14" />
    </clipPath>
    <clipPath
       id="clipPath2806">
      <path
         d="m 212.13,61.376 h 88.247 V 50.082 H 212.13 Z"
         id="path17" />
    </clipPath>
    <clipPath
       id="clipPath2830">
      <path
         d="m 250.94,68.643 h 91.123 V 60.0238 H 250.94 Z"
         id="path20" />
    </clipPath>
    <clipPath
       id="clipPath2846">
      <path
         d="m 188.65,74.348 h 47.777 V 64.7086 H 188.65 Z"
         id="path23" />
    </clipPath>
    <clipPath
       id="clipPath2862">
      <path
         d="m 278.03,149.38 h 16.61 v -38.39 h -16.61 z"
         id="path26" />
    </clipPath>
    <clipPath
       id="clipPath2878">
      <path
         d="m 209.75,114.98 h 18.145 V 78.818 H 209.75 Z"
         id="path29" />
    </clipPath>
    <clipPath
       id="clipPath2894">
      <path
         d="m 188.5,154.46 h 67.602 V 86.816 H 188.5 Z"
         id="path32" />
    </clipPath>
    <clipPath
       id="clipPath2914">
      <path
         d="m 237.08,70.934 h 3.24 v -4.999 h -3.24 z"
         id="path35" />
    </clipPath>
    <clipPath
       id="clipPath2938">
      <path
         d="m 250.3,153.12 h 24.478 V 117.248 H 250.3 Z"
         id="path38" />
    </clipPath>
    <clipPath
       id="clipPath2966">
      <path
         d="m 251.33,168.07 h 29.286 V 145.313 H 251.33 Z"
         id="path41" />
    </clipPath>
    <clipPath
       id="clipPath2982">
      <path
         d="m 259.74,123.12 h 21.384 V 77.833 H 259.74 Z"
         id="path44" />
    </clipPath>
    <clipPath
       id="clipPath2998">
      <path
         d="m 281.13,151.98 h 4.426 v -4.645 h -4.426 z"
         id="path47" />
    </clipPath>
    <clipPath
       id="clipPath3022">
      <path
         d="m 252.72,140.8 h 23.852 v -7.273 H 252.72 Z"
         id="path50" />
    </clipPath>
    <clipPath
       id="clipPath3038">
      <path
         d="m 252.09,168.07 h 9.578 v -28.078 h -9.578 z"
         id="path53" />
    </clipPath>
    <clipPath
       id="clipPath3070">
      <path
         d="m 263.79,118.78 h 32.909 V 75.958 H 263.79 Z"
         id="path56" />
    </clipPath>
    <clipPath
       id="clipPath3090">
      <path
         d="m 265.54,189.81 h 11.884 V 165.253 H 265.54 Z"
         id="path59" />
    </clipPath>
    <clipPath
       id="clipPath3110">
      <path
         d="m 251.02,73.347 h 34.785 V 62.238 H 251.02 Z"
         id="path62" />
    </clipPath>
    <clipPath
       id="clipPath3134">
      <path
         d="m 251.02,69.32 h 34.895 V 60.566 H 251.02 Z"
         id="path65" />
    </clipPath>
    <clipPath
       id="clipPath3154">
      <path
         d="m 284.28,119.74 h 63.217 V 60.438 H 284.28 Z"
         id="path68" />
    </clipPath>
    <clipPath
       id="clipPath3194">
      <path
         d="m 233.89,78.016 h 2.255 v -2.0309 h -2.255 z"
         id="path71" />
    </clipPath>
    <clipPath
       id="clipPath3210">
      <path
         d="m 225.31,78.461 h 12.292 V 69.4925 H 225.31 Z"
         id="path74" />
    </clipPath>
    <clipPath
       id="clipPath3226">
      <path
         d="m 187.57,89.611 h 47.026 V 65.279 H 187.57 Z"
         id="path77" />
    </clipPath>
    <clipPath
       id="clipPath3242">
      <path
         d="m 252.42,131.66 h 5.516 v -2.112 h -5.516 z"
         id="path80" />
    </clipPath>
    <clipPath
       id="clipPath3258">
      <path
         d="m 254.09,135.33 h 6.107 v -2.589 h -6.107 z"
         id="path83" />
    </clipPath>
    <clipPath
       id="clipPath3274">
      <path
         d="m 256.69,139.6 h 6.306 v -2.835 h -6.306 z"
         id="path86" />
    </clipPath>
    <clipPath
       id="clipPath3290">
      <path
         d="m 283.81,154.03 h 2.09 v -3.643 h -2.09 z"
         id="path89" />
    </clipPath>
    <clipPath
       id="clipPath3306">
      <path
         d="m 252.22,166.63 h 1.389 v -3.745 h -1.389 z"
         id="path92" />
    </clipPath>
    <clipPath
       id="clipPath3322">
      <path
         d="m 252.05,162.72 h 1.722 v -4.655 h -1.722 z"
         id="path95" />
    </clipPath>
    <clipPath
       id="clipPath3338">
      <path
         d="m 192.9,89.915 h 27.062 V 79.888 H 192.9 Z"
         id="path98" />
    </clipPath>
    <clipPath
       id="clipPath3354">
      <path
         d="m 224.44,82.603 h 15.376 V 71.666 H 224.44 Z"
         id="path101" />
    </clipPath>
    <clipPath
       id="clipPath3370">
      <path
         d="m 205.7,116.76 h 22.774 V 85.446 H 205.7 Z"
         id="path104" />
    </clipPath>
    <clipPath
       id="clipPath3386">
      <path
         d="m 260.54,140.47 h 27.318 V 106.622 H 260.54 Z"
         id="path107" />
    </clipPath>
    <clipPath
       id="clipPath3402">
      <path
         d="m 266.84,155.24 h 2.204 v -8.002 h -2.204 z"
         id="path110" />
    </clipPath>
    <clipPath
       id="clipPath3418">
      <path
         d="m 263.6,148.21 h 0.606 v -0.812 H 263.6 Z"
         id="path113" />
    </clipPath>
    <clipPath
       id="clipPath3434">
      <path
         d="m 267.31,146.52 h 0.947 v -0.357 h -0.947 z"
         id="path116" />
    </clipPath>
    <clipPath
       id="clipPath3450">
      <path
         d="m 257.62,144.91 h 11.207 V 141.3 H 257.62 Z"
         id="path119" />
    </clipPath>
    <clipPath
       id="clipPath3466">
      <path
         d="m 265.51,155.87 h 18.075 V 140.564 H 265.51 Z"
         id="path122" />
    </clipPath>
    <clipPath
       id="clipPath3482">
      <path
         d="m 261.77,142.88 h 6.984 v -2.476 h -6.984 z"
         id="path125" />
    </clipPath>
    <clipPath
       id="clipPath3498">
      <path
         d="m 263.47,143.9 h 5.254 v -2.514 h -5.254 z"
         id="path128" />
    </clipPath>
    <clipPath
       id="clipPath3518">
      <path
         d="m 274.68,181.43 h 3.215 v -9.717 h -3.215 z"
         id="path131" />
    </clipPath>
    <clipPath
       id="clipPath3534">
      <path
         d="m 253.83,183.65 h 5.574 v -15.982 h -5.574 z"
         id="path134" />
    </clipPath>
    <clipPath
       id="clipPath3550">
      <path
         d="m 220.21,95.065 h 14.211 V 77.264 H 220.21 Z"
         id="path137" />
    </clipPath>
    <clipPath
       id="clipPath3570">
      <path
         d="m 220.51,95.833 h 13.185 V 78.376 H 220.51 Z"
         id="path140" />
    </clipPath>
    <clipPath
       id="clipPath3586">
      <path
         d="m 284.28,118.24 h 49.025 V 60.44 H 284.28 Z"
         id="path143" />
    </clipPath>
    <clipPath
       id="clipPath3608">
      <path
         d="m 95.05,226.53 h 197 v -5.184 h -197 z"
         id="path146" />
    </clipPath>
    <clipPath
       id="clipPath3624">
      <path
         d="m 95.05,226.53 h 197 v -5.184 h -197 z"
         id="path149" />
    </clipPath>
    <filter
       inkscape:collect="always"
       style="color-interpolation-filters:sRGB"
       id="filter2062"
       x="-0.15552"
       width="1.31104"
       y="-0.15552"
       height="1.31104">
      <feGaussianBlur
         inkscape:collect="always"
         stdDeviation="27.755441"
         id="feGaussianBlur2064" />
    </filter>
  </defs>
  <metadata
     id="metadata154">
    <rdf:RDF>
      <cc:Work
         rdf:about="">
        <dc:format>image/svg+xml</dc:format>
        <dc:type
           rdf:resource="http://purl.org/dc/dcmitype/StillImage" />
        <dc:title />
      </cc:Work>
    </rdf:RDF>
  </metadata>
  <g
     id="g796"
     transform="matrix(1.5815278,0,0,1.5928961,-53.912051,-38.100166)"
     style="stroke-width:0.585324">
    <circle
       style="fill:#e4dde5;stroke-width:3.42557;stroke-linecap:round;stroke-linejoin:round;paint-order:markers fill stroke;filter:url(#filter2062)"
       id="path185"
       cx="697.7547"
       cy="48.987278"
       r="214.16235"
       transform="matrix(0.19495971,0,0,0.14971022,-73.953251,53.083487)" />
    <g
       id="g1274"
       transform="matrix(0.44927505,0,0,0.43240153,25.328775,3.910871)"
       style="stroke-width:1.32799">
      <g
         transform="matrix(0.65466144,0,0,-0.65466144,-61.248657,223.64215)"
         stroke-width="0.715641"
         id="g170">
        <g
           clip-path="url(#clipPath2690)"
           opacity="0.5"
           stroke-width="0.240309"
           id="g168">
          <g
             transform="translate(173.67,38.138)"
             stroke-width="0.715641"
             id="g166">
            <path
               d="M 0,0 C 0.841,0.045 1.686,0.094 2.533,0.146 V 33.988 H 0 Z"
               fill="#9a9391"
               id="path164"
               style="stroke-width:0.911712" />
          </g>
        </g>
      </g>
      <path
         d="m 56.369814,157.42825 -24.919633,36.54538 c 0.244835,1.12008 0.909959,2.00119 1.908277,2.68794 l 25.565196,-37.49192 z"
         fill="#677786"
         id="path172"
         style="stroke-width:1.69182" />
      <g
         transform="matrix(0.65466144,0,0,-0.65466144,-61.248657,223.64215)"
         stroke-width="0.715641"
         id="g180">
        <g
           clip-path="url(#clipPath2710)"
           stroke-width="0.715641"
           id="g178">
          <g
             transform="translate(179.67,101.15)"
             stroke-width="0.715641"
             id="g176">
            <path
               d="M 0,0 -0.309,-0.452 2.929,-2.66 -35.792,-59.444 c 0.203,-0.169 0.414,-0.333 0.64,-0.488 L 3.901,-2.66 Z"
               fill="#677786"
               id="path174"
               style="stroke-width:0.911712" />
          </g>
        </g>
      </g>
      <g
         id="g188"
         style="stroke-width:2.13115"
         transform="matrix(0.62313101,0,0,0.62313101,36.81347,66.482276)">
        <path
           d="M 147.5,158.95 H -55.18 V 17.35 H 147.5 Z"
           fill="#afdde9"
           id="path182"
           style="stroke-width:2.71503" />
        <path
           d="M 149.44,162.45 H -57.52 v -5.446 h 206.96 z"
           fill="#677786"
           id="path184"
           style="stroke-width:2.71503" />
        <path
           d="m 19.56,179.47 v -6.1268 l 2.8628,6.941 z"
           fill="#9a9391"
           id="path186"
           style="stroke-width:2.71503" />
      </g>
      <g
         fill="none"
         stroke="#9a9391"
         stroke-linecap="round"
         stroke-miterlimit="10"
         stroke-width="0.104503"
         id="g202"
         transform="matrix(0.62313101,0,0,0.62313101,36.81347,66.482276)">
        <path
           d="M -28.155,102.57 H -42.926 V 70.918 h 14.771 z"
           id="path190"
           style="stroke-width:0.104503" />
        <path
           d="M 84.316,101.93 H 4.553 V 70.7 h 79.763 z"
           id="path192"
           style="stroke-width:0.104503" />
        <path
           d="M 92.967,96.024 H -1.568 V 75.977 h 94.535 z"
           id="path194"
           style="stroke-width:0.104503" />
        <path
           d="M 114.49,90.748 H -19.29 v -8.0189 h 133.78 z"
           id="path196"
           style="stroke-width:0.104503" />
        <path
           d="M 141.71,88.428 H 107.104 V 84.8404 H 141.71 Z"
           id="path198"
           style="stroke-width:0.104503" />
        <path
           d="m 122.72,90.748 h -2.9542 v -8.23 h 2.9542 z"
           id="path200"
           style="stroke-width:0.104503" />
      </g>
      <g
         transform="matrix(0.65466144,0,0,-0.65466144,-61.248657,223.64215)"
         stroke-width="0.715641"
         id="g210">
        <g
           clip-path="url(#clipPath2746)"
           stroke-width="0.715641"
           id="g208">
          <g
             transform="translate(95.05,85.26)"
             stroke-width="0.715641"
             id="g206">
            <path
               d="M 0,0 H 197 V 0.448 H 0.49 V 5.184 H 0.004 V 0.448 H 0.001 Z"
               fill="#677786"
               id="path204"
               style="stroke-width:0.911712" />
          </g>
        </g>
      </g>
      <path
         d="m 192.99503,186.6157 v 3.8178 l -6.93109,-3.44267 z"
         fill="#9a9391"
         id="path212"
         style="stroke-width:1.69182" />
      <path
         d="m 192.99503,190.4355 -27.9979,-15.2717 -32.36169,0.60619 -83.630412,2.54518 8.088241,19.67661 z"
         fill="#9a9391"
         id="path214"
         style="stroke-width:1.69182" />
      <g
         transform="matrix(0.65466144,0,0,-0.65466144,-61.248657,223.64215)"
         fill="#0b2228"
         stroke-width="0.715641"
         id="g222">
        <g
           clip-path="url(#clipPath2770)"
           fill="#0b2228"
           opacity="0.5"
           stroke-width="0.240309"
           id="g220">
          <g
             transform="translate(378.64,56.036)"
             fill="#0b2228"
             stroke-width="0.715641"
             id="g218">
            <path
               d="m 0,0 -33.042,18.023 -49.435,-0.926 -125.38,-3.816 -2.376,5.76 v -5.832 l 12.355,-30.058 207.6,11.543 v 5.832 z"
               fill="#0b2228"
               id="path216"
               style="stroke-width:0.911712" />
          </g>
        </g>
      </g>
      <path
         d="m 192.99503,186.6157 -27.9979,-15.27169 -32.36169,0.60618 -83.630412,2.54518 8.088241,19.67661 z"
         fill="#164450"
         id="path224"
         style="stroke-width:1.69182" />
      <g
         transform="matrix(0.65466144,0,0,-0.65466144,-61.248657,223.64215)"
         stroke-width="0.240309"
         id="g238">
        <g
           clip-path="url(#clipPath2790)"
           opacity="0.5"
           id="g230"
           style="stroke-width:0.306147">
          <g
             transform="translate(363.17,66.143)"
             stroke-width="0.715641"
             id="g228">
            <path
               d="m 0,0 -1.227,1.296 -18.7,-6.526 27.078,3.633 z"
               fill="#9a9391"
               id="path226"
               style="stroke-width:0.911712" />
          </g>
        </g>
        <g
           clip-path="url(#clipPath2806)"
           opacity="0.5"
           id="g236"
           style="stroke-width:0.306147">
          <g
             transform="translate(212.13,50.082)"
             stroke-width="0.715641"
             id="g234">
            <path
               d="m 0,0 88.247,7.036 c 0,0 -38.789,3.61 -39.159,3.61 -0.371,0 -43.696,0.648 -44.066,0.648 C 4.652,11.294 0,0 0,0"
               fill="#9a9391"
               id="path232"
               style="stroke-width:0.911712" />
          </g>
        </g>
      </g>
      <path
         d="m 88.484116,180.81435 c 0,0 -7.393449,0.37117 -8.915758,-0.90142 -1.522683,-1.27262 0.500131,-1.18164 -1.499752,-1.4317 -1.999876,-0.25007 -16.73356,0.5152 -16.521695,-7.84834 0.212101,-8.36304 13.362421,-37.87639 25.422499,-43.02782 12.059454,-5.15061 18.48331,-5.07534 18.48331,-5.07534 0,0 20.1801,1.13647 23.99802,10.31781 3.81849,9.18121 2.54587,38.6335 -3.18152,40.8157 -5.7267,2.18183 -10.45364,-17.54425 -10.45364,-17.54425 0,0 -2.4843,7.95364 -0.36332,16.54475 l -20.089743,0.54532 c 0,0 0.303085,0.89357 0.09093,2.68139 0,0 0.576085,0.98524 0.151976,1.4094 -0.42487,0.4242 -0.743022,0.90865 -1.606494,0.59047 0,0 0.52305,1.18164 -0.04509,1.95476 -0.568221,0.77243 -1.931831,0.15903 -1.931831,0.15903 0,0 -0.0681,0.31815 -0.704387,0.54532 -0.636279,0.22715 -1.61366,0.47721 -2.318048,0 0,0 -0.257932,0.28016 -0.515204,0.26511"
         fill="#cd7b3d"
         id="path240"
         style="stroke-width:1.69182" />
      <path
         d="m 179.87189,179.82981 -57.16293,-7.27257 -52.11805,1.69679 -15.816935,1.15148 4.181147,2.7272 18.665266,12.72683 c 0,0 6.155475,-4.42461 11.393328,-3.75755 5.712304,0.72726 71.392124,-0.60618 83.268994,-5.21149 z"
         fill="#ffffff"
         id="path242"
         style="stroke-width:1.69182" />
      <g
         transform="matrix(0.65466144,0,0,-0.65466144,-61.248657,223.64215)"
         stroke-width="0.240309"
         id="g274">
        <g
           clip-path="url(#clipPath2830)"
           opacity="0.10001"
           id="g248"
           style="stroke-width:0.306147">
          <g
             transform="translate(342.06,68.643)"
             stroke-width="0.715641"
             id="g246">
            <path
               d="m 0,0 c 0,0 -51.101,-9.581 -58.114,-8.54 -7.012,1.041 -38.117,7.568 -32.285,8.054 C -84.567,0 0,0 0,0"
               fill="#423e3e"
               id="path244"
               style="stroke-width:0.911712" />
          </g>
        </g>
        <g
           clip-path="url(#clipPath2846)"
           opacity="0.10001"
           id="g254"
           style="stroke-width:0.306147">
          <g
             transform="translate(236.42,66.363)"
             stroke-width="0.715641"
             id="g252">
            <path
               d="m 0,0 c 0,0 -0.845,-0.775 -1.169,-0.775 -0.324,0 -0.833,0.324 -0.833,0.324 0,0 -2.916,-1.481 -4.027,-1.157 -1.111,0.324 -4.351,0.324 -6.619,0.324 -2.268,0 -10.322,0.138 -10.044,2.592 0.277,2.453 -14.581,0.972 -18.7,2.036 -3.799,0.982 -7.823,3.796 -5.879,4.305 1.944,0.509 2.546,0.324 3.703,0.185 1.157,-0.139 18.006,-3.888 18.978,-3.888 0.972,0 7.915,-0.972 8.563,-1.296 C -15.379,2.326 0,0 0,0"
               fill="#423e3e"
               id="path250"
               style="stroke-width:0.911712" />
          </g>
        </g>
        <g
           clip-path="url(#clipPath2862)"
           opacity="0.5"
           id="g260"
           style="stroke-width:0.306147">
          <g
             transform="translate(278.33,149.38)"
             stroke-width="0.715641"
             id="g258">
            <path
               d="m 0,0 c -1.237,-1.577 1.777,-4.229 1.777,-4.229 0,0 8.888,-3.703 10.832,-13.979 1.144,-6.048 2.543,-12.555 3.691,-20.182 0.143,11.101 -0.941,21.981 -3.321,27.704 C 10.93,-5.76 5.797,-2.351 0,0"
               fill="#cd7b3d"
               id="path256"
               style="stroke-width:0.911712" />
          </g>
        </g>
        <g
           clip-path="url(#clipPath2878)"
           opacity="0.5"
           id="g266"
           style="stroke-width:0.306147">
          <g
             transform="translate(227.89,114.98)"
             stroke-width="0.715641"
             id="g264">
            <path
               d="m 0,0 c 0,0 -14.257,-27.032 -18.145,-29.531 0,0 0.371,-5.184 0.648,-5.184 0.278,0 13.25,-1.447 13.25,-1.447 0,0 -0.289,28.108 4.247,36.162"
               fill="#cd7b3d"
               id="path262"
               style="stroke-width:0.911712" />
          </g>
        </g>
        <g
           clip-path="url(#clipPath2894)"
           opacity="0.5"
           id="g272"
           style="stroke-width:0.306147">
          <g
             transform="translate(226.41,146.71)"
             stroke-width="0.715641"
             id="g270">
            <path
               d="m 0,0 c -16.225,-6.93 -33.739,-42.722 -37.909,-59.891 1.863,0.945 4.113,2.243 6.156,3.282 0,0 -3.125,0 -1.944,4.096 1.18,4.096 10.414,21.871 10.414,21.871 0,0 20.76,34.021 48.741,36.59 l 4.235,1.041 c 0,0 -0.533,0.324 -1.292,0.754 -0.106,0.007 -0.166,0.01 -0.166,0.01 0,0 -9.813,0.116 -28.235,-7.753"
               fill="#cd7b3d"
               id="path268"
               style="stroke-width:0.911712" />
          </g>
        </g>
      </g>
      <path
         d="m 93.953337,177.93549 2.121014,2.54518 c 0,0 -1.242461,-3.2725 -1.151484,-3.2725 0.09093,0 -0.96953,0.72732 -0.96953,0.72732"
         fill="#e6685a"
         id="path276"
         style="stroke-width:1.69182" />
      <g
         transform="matrix(0.65466144,0,0,-0.65466144,-61.248657,223.64215)"
         stroke-width="0.715641"
         id="g284">
        <g
           clip-path="url(#clipPath2914)"
           opacity="0.5"
           stroke-width="0.240309"
           id="g282">
          <g
             transform="translate(237.08,69.823)"
             stroke-width="0.715641"
             id="g280">
            <path
               d="m 0,0 3.24,-3.888 c 0,0 -1.898,4.999 -1.759,4.999 C 1.62,1.111 0,0 0,0"
               fill="#e6685a"
               id="path278"
               style="stroke-width:0.911712" />
          </g>
        </g>
      </g>
      <path
         d="m 92.877813,172.43947 c -1.060506,-0.0203 -1.605808,-0.4242 -2.029974,-0.72732 -0.424202,-0.30307 -1.621511,-1.18158 -3.348456,-1.95407 -1.726946,-0.77312 -3.635845,1.0906 -4.13597,1.59073 -0.500131,0.49948 -3.954639,-1.77275 -3.954639,-1.77275 0,0 -4.954265,-3.00019 -9.590609,-4.45414 -2.837178,-0.89033 -5.705762,0.15978 -7.50686,1.10892 -0.468719,1.79568 -0.736478,3.3183 -0.765267,4.45084 -0.212101,8.36367 14.521445,7.59846 16.521696,7.84834 1.999877,0.25009 -0.02282,0.15903 1.499752,1.4317 1.522683,1.27262 8.916381,0.90142 8.916381,0.90142 0.257914,0.0148 0.51518,-0.26511 0.51518,-0.26511 0.704387,0.47722 1.681768,0.22715 2.318047,0 0.636279,-0.22715 0.704388,-0.5453 0.704388,-0.5453 0,0 1.363597,0.61339 1.93183,-0.15903 0.568221,-0.77312 0.04583,-1.9547 0.04583,-1.9547 0.863472,0.31815 1.181581,-0.16626 1.605808,-0.59048 0.424203,-0.4242 -0.151794,-1.4094 -0.151794,-1.4094 0.212101,-1.78783 -0.09037,-2.6814 -0.09037,-2.6814 0,0 -0.125068,-0.77311 -2.484984,-0.81829"
         fill="#f7c4a7"
         id="path286"
         style="stroke-width:1.69182" />
      <path
         d="m 104.14901,123.40966 c 0,0 -4.651178,6.54474 2.21199,19.27157 0,0 0.0681,0.53025 -0.22717,1.25754 -0.29523,0.72732 0.0228,0.97669 0.40915,1.3636 0.38623,0.38623 0.31815,1.59073 0.31815,1.59073 l 4.29499,-5.31824 7.47633,-8.74191 -6.02979,-1.0605 z"
         fill="#f7c4a7"
         id="path288"
         style="stroke-width:1.69182" />
      <g
         transform="matrix(0.65466144,0,0,-0.65466144,-61.248657,223.64215)"
         stroke-width="0.715641"
         id="g296">
        <g
           clip-path="url(#clipPath2938)"
           opacity="0.5"
           stroke-width="0.240309"
           id="g294">
          <g
             transform="translate(252.66,153.12)"
             stroke-width="0.715641"
             id="g292">
            <path
               d="m 0,0 c 0,0 -7.105,-9.998 3.379,-29.439 0,0 0.104,-0.81 -0.347,-1.921 -0.451,-1.111 0.035,-1.492 0.625,-2.083 0.59,-0.59 0.486,-2.43 0.486,-2.43 l 6.561,8.124 11.421,13.354 -9.211,1.62 z"
               fill="#f7c4a7"
               id="path290"
               style="stroke-width:0.911712" />
          </g>
        </g>
      </g>
      <g
         id="g304"
         style="stroke-width:2.13115"
         transform="matrix(0.62313101,0,0,0.62313101,36.81347,66.482276)">
        <path
           d="m 108.06,91.357 c 0,0 -3.7568,3.3796 -4.9113,5.5196 -2.4803,4.5951 3.9879,30.173 3.9879,30.173 l 4.4732,-4.7653 c 0,0 -8.4612,-21.98 -3.5498,-30.927"
           fill="#b8602f"
           id="path298"
           style="stroke-width:2.71503" />
        <path
           d="m 73.974,152.62 9.4455,14.175 c 0,0 3.1002,1.9204 5.4828,4.2547 l -12.74,-19.403 c 0,0 -0.77846,-0.58305 -2.1883,0.97281"
           fill="#e6685a"
           id="path300"
           style="stroke-width:2.71503" />
        <path
           d="m 110.95,75.651 c 0,0 -0.31623,4.3283 -0.65661,2.8207 -0.34037,-1.5076 -1.5075,-3.9396 -2.3826,-1.7513 -0.8751,2.1883 -2.285,9.9687 -0.0482,11.72 0,0 0.34038,1.5559 0.19446,2.9174 -0.14592,1.3615 -3.0151,16.095 5.2034,19.84 8.2174,3.7442 21.103,-7.0996 22.465,-8.9959 1.3615,-1.8962 1.3615,-4.1822 2.2376,-4.6686 0.87513,-0.48642 5.9808,-5.7864 5.6404,-7.1479 -0.34037,-1.3615 -1.2155,-1.8963 -2.577,-0.68076 -1.3615,1.2155 1.1672,-2.5287 1.1672,-2.5287 z"
           fill="#f7c4a7"
           id="path302"
           style="stroke-width:2.71503" />
      </g>
      <g
         transform="matrix(0.65466144,0,0,-0.65466144,-61.248657,223.64215)"
         id="g324"
         style="stroke-width:2.13115">
        <g
           clip-path="url(#clipPath2966)"
           opacity="0.5"
           stroke-width="0.240309"
           id="g310">
          <g
             transform="translate(254.79,165.38)"
             stroke-width="0.715641"
             id="g308">
            <path
               d="m 0,0 c -0.324,1.435 -1.435,3.749 -2.268,1.666 -0.833,-2.083 -2.176,-9.489 -0.046,-11.155 0,0 0.324,-1.481 0.185,-2.777 -0.063,-0.582 -0.646,-3.735 -0.563,-7.353 1.041,-0.705 2.164,-0.607 3.039,0.433 2.222,2.638 0,11.248 2.222,14.164 2.222,2.916 23.259,-4.166 23.259,-4.166 L 22.668,-5.446 0.625,2.685 C 0.625,2.685 0.324,-1.435 0,0"
               fill="#f7c4a7"
               id="path306"
               style="stroke-width:0.911712" />
          </g>
        </g>
        <g
           clip-path="url(#clipPath2982)"
           opacity="0.5"
           stroke-width="0.240309"
           id="g316">
          <g
             transform="translate(261.41,123.12)"
             stroke-width="0.715641"
             id="g314">
            <path
               d="m 0,0 -1.666,-1.944 c 0,0 5.462,-3.148 5.832,-5.462 0.37,-2.314 2.638,-5.323 1.435,-9.859 -1.139,-4.293 -1.323,-22.998 1.413,-28.022 l 1.503,0.041 c -3.24,13.123 0.555,25.273 0.555,25.273 0,0 2.413,-10.067 6.138,-17.92 1.906,6.619 4.508,15.727 4.508,16.138 0,0.648 -13.238,16.849 -13.238,16.849 z"
               fill="#cd7b3d"
               id="path312"
               style="stroke-width:0.911712" />
          </g>
        </g>
        <g
           clip-path="url(#clipPath2998)"
           stroke-width="0.715641"
           id="g322">
          <g
             transform="translate(285.56,151.98)"
             stroke-width="0.715641"
             id="g320">
            <path
               d="m 0,0 c -0.53,-0.32 -0.726,-0.249 -1.322,-1.076 -0.665,-0.923 -0.949,-0.613 -0.775,0.116 0.173,0.729 -1.024,-0.66 -1.024,-0.66 -1.333,-1.878 -1.475,-2.708 -1.17,-3.025 C -3.536,-4.095 -1.296,-1.816 0,0"
               fill="#f7c4a7"
               id="path318"
               style="stroke-width:0.911712" />
          </g>
        </g>
      </g>
      <path
         d="m 124.69364,122.37962 c -0.6723,0.6003 0.1748,-0.73579 0.55708,-1.31911 l 0.0459,-0.30243 -0.417,-0.15383 c -0.14269,0.23567 -0.30636,0.46413 -0.48902,0.65398 -0.72725,0.75804 -1.15148,3.60637 -1.78776,5.63634 -0.63628,2.02998 -3.30259,3.48461 -4.45414,4.12089 -1.15148,0.63628 -1.69678,0.63628 -2.24215,-0.3332 -0.54595,-0.96947 -0.81044,-1.12139 -3.56836,-2.4241 -2.75729,-1.30334 -5.64357,-0.63628 -6.4008,-0.42421 -0.75742,0.21211 -1.48467,-5.51527 -1.48467,-6.66625 0,-1.15148 0.33322,-3.09117 1.27262,-3.93956 0.71161,-0.6422 1.56063,-2.23885 1.93183,-2.97726 l -1.70464,-0.62843 c 0,0 -0.19705,2.6971 -0.40915,1.75767 -0.001,-0.007 -0.004,-0.013 -0.004,-0.0189 -0.61012,2.59104 -1.51022,6.23075 -1.51022,6.23075 0,0 0.2121,0.96952 0.12118,1.81792 -0.0909,0.84839 -1.8788,10.02929 3.2424,12.36292 5.12052,2.33312 13.15118,-4.42398 13.99926,-5.60563 0.84839,-1.18158 0.84839,-2.60606 1.39369,-2.90915 0.0451,-0.0249 0.11394,-0.0772 0.1918,-0.1401 0.25336,-1.1574 1.14563,-3.36416 1.73088,-4.75 -0.004,0.004 -0.009,0.007 -0.013,0.0111"
         fill="#373231"
         id="path326"
         style="stroke-width:1.69182" />
      <path
         d="m 107.66347,128.80161 c 0,0 3.03751,0.36331 3.5147,0.61338 0.47724,0.25007 0.68215,0.43207 1.29549,0.50013 0.61339,0.0681 1.49976,0.65922 2.13603,1.11354 0.63628,0.45432 -2.77237,1.15934 -4.20401,0.29523 -1.43171,-0.86347 -3.89376,-2.43127 -2.74228,-2.52231"
         fill="#f7c4a7"
         id="path328"
         style="stroke-width:1.69182" />
      <g
         transform="matrix(0.65466144,0,0,-0.65466144,-61.248657,223.64215)"
         stroke-width="0.240309"
         id="g342">
        <g
           clip-path="url(#clipPath3022)"
           opacity="0.5"
           id="g334"
           style="stroke-width:0.306147">
          <g
             transform="translate(272.46,138.7)"
             stroke-width="0.715641"
             id="g332">
            <path
               d="m 0,0 c -0.729,-0.608 -2.326,-2.656 -2.864,-2.361 -0.538,0.295 -6.214,2.517 -6.284,2.639 -0.066,0.116 -9.734,1.69 -10.59,1.829 0.676,-2.647 2.003,-5.031 4.439,-6.339 1.341,-0.386 2.734,-0.776 2.975,-0.802 0.178,-0.019 1.024,-0.073 2.04,-0.133 5.259,0.416 11.095,4.25 14.358,6.928 l 0.04,0.062 c 0,0 -0.011,-0.004 -0.032,-0.012 C 3.736,1.686 0.687,0.573 0,0"
               fill="#373231"
               id="path330"
               style="stroke-width:0.911712" />
          </g>
        </g>
        <g
           clip-path="url(#clipPath3038)"
           opacity="0.5"
           id="g340"
           style="stroke-width:0.306147">
          <g
             transform="translate(261.04,141.31)"
             stroke-width="0.715641"
             id="g338">
            <path
               d="m 0,0 c -2.337,2.824 -3.888,1.296 -6.064,5.277 -0.012,0.022 -0.02,0.05 -0.032,0.073 -0.979,1.54 -1.819,8.349 -1.819,9.879 0,1.758 0.509,4.721 1.944,6.017 1.087,0.981 2.384,3.421 2.951,4.548 l -2.604,0.96 c 0,0 -0.301,-4.119 -0.625,-2.685 -0.002,0.01 -0.005,0.02 -0.007,0.029 -0.932,-3.958 -2.307,-9.517 -2.307,-9.517 0,0 0.324,-1.482 0.185,-2.778 -0.091,-0.853 -1.305,-7.224 0.108,-12.494 2.038,0.077 4.994,0.436 5.284,0.436 0.417,0 5.324,-2.569 2.986,0.255"
               fill="#373231"
               id="path336"
               style="stroke-width:0.911712" />
          </g>
        </g>
      </g>
      <g
         id="g352"
         style="stroke-width:2.13115"
         transform="matrix(0.62313101,0,0,0.62313101,36.81347,66.482276)">
        <path
           d="m 113.7,100.01 c 0,0 4.8746,0.58305 5.6404,0.98435 0.76586,0.40131 1.0947,0.69339 2.079,0.80262 0.98436,0.10929 2.4068,1.0579 3.4279,1.787 1.0211,0.72909 -4.4491,1.8605 -6.7466,0.47379 -2.2976,-1.3857 -6.2487,-3.9017 -4.4008,-4.0478"
           fill="#f7c4a7"
           id="path344"
           style="stroke-width:2.71503" />
        <path
           d="m 106.21,102.15 c 0,0 4.717,-1.3132 7.0996,-0.48642 2.3826,0.82679 7.6344,3.5982 10.892,6.4672 3.2588,2.8691 3.1128,0.0494 4.9607,-1.1672 1.8479,-1.2155 4.5037,-2.9688 4.0173,-2.0938 -0.48642,0.87512 -2.6558,5.3032 -2.6558,7.3454 0,2.0433 -0.73013,6.4683 2.1389,9.5317 2.8691,3.0634 18.406,25.091 21.251,36.324 2.8449,11.234 -4.8147,14.808 -11.234,14.297 -6.4178,-0.51057 -14.734,-7.6585 -17.067,-31.875 0,0 -0.58409,-8.6072 -3.2094,-10.723 -2.6264,-2.1148 -7.8781,-7.44 -9.1913,-8.4611 -1.3121,-1.0211 -3.9017,-2.4436 -5.1782,-2.6989 -1.2764,-0.25521 -2.4436,-0.65658 -2.4436,-2.2975 0,-1.64092 1.5317,-1.8238 2.5528,-1.6777 0,0 -0.36453,-2.0055 0.25521,-3.0266 0.6198,-1.0211 1.0211,-1.3857 1.5317,-1.2764 0,0 0.4013,-2.4068 2.0423,-2.2975 1.6409,0.10929 4.8504,0.91188 3.8292,0 -1.0211,-0.91187 -4.5226,-3.9028 -7.732,-3.3922 -3.2084,0.51057 -2.6621,-2.3217 -1.8595,-2.4919"
           fill="#f7c4a7"
           id="path346"
           style="stroke-width:2.71503" />
        <path
           d="m 114.09,82.984 c 0,0 0.55679,-0.10304 1.4025,-0.09976 0.84675,-0.01489 1.9845,0.10304 3.0991,0.41286 0.55366,0.15545 1.1283,0.3078 1.6157,0.57045 0.24479,0.12716 0.46751,0.27635 0.65765,0.44752 0.19863,0.15872 0.37716,0.31727 0.519,0.4927 0.2994,0.32778 0.50321,0.6377 0.6072,0.88561 0.11971,0.23109 0.16825,0.37296 0.16825,0.37296 0.0119,0.03365 -0.006,0.06939 -0.0399,0.081 -0.0149,0.003 -0.0298,0.003 -0.0411,0 l -0.006,-0.0021 c 0,0 -0.148,-0.05152 -0.37191,-0.16081 -0.11674,-0.05033 -0.24896,-0.11763 -0.39288,-0.19744 -0.15247,-0.07236 -0.3257,-0.14711 -0.49901,-0.2427 -0.35509,-0.18076 -0.75851,-0.38767 -1.1871,-0.61143 -0.40973,-0.25729 -0.86041,-0.53576 -1.3437,-0.75532 -0.96545,-0.45175 -2.0244,-0.70914 -2.8249,-0.87933 -0.8058,-0.15962 -1.3584,-0.19744 -1.3584,-0.19744 -0.0325,-0.0021 -0.0566,-0.03038 -0.0545,-0.06313 0.002,-0.0268 0.0238,-0.04824 0.0494,-0.0536"
           fill="#373231"
           id="path348"
           style="stroke-width:2.71503" />
        <path
           d="m 135.81,91.286 c 0,0 -0.39606,-0.30676 -1.0422,-0.66185 -0.15336,-0.09887 -0.34458,-0.17034 -0.53156,-0.26265 -0.19446,-0.081 -0.37716,-0.2028 -0.59568,-0.27427 -0.43177,-0.1492 -0.86562,-0.35613 -1.3415,-0.44228 -0.46435,-0.1209 -0.9329,-0.19446 -1.3741,-0.23734 -0.2153,-0.04318 -0.4223,-0.09351 -0.61667,-0.16498 -0.19327,-0.07683 -0.38448,-0.09887 -0.55887,-0.15039 -0.69966,-0.18076 -1.205,-0.46328 -1.205,-0.46328 l -0.006,-0.003 c -0.0304,-0.01787 -0.042,-0.05569 -0.0238,-0.08606 0.006,-0.01191 0.0149,-0.02085 0.0268,-0.0268 0,0 0.49166,-0.23853 1.2869,-0.35089 0.19743,-0.0268 0.41601,-0.06939 0.63981,-0.03663 0.22572,0.01191 0.46327,0.04735 0.70595,0.09351 0.23853,0.06939 0.4927,0.10601 0.72804,0.22156 0.23526,0.1081 0.47484,0.21739 0.71438,0.32671 0.4885,0.18493 0.92236,0.48746 1.3415,0.72278 0.21024,0.11882 0.39083,0.27308 0.56837,0.40342 0.17242,0.13967 0.34562,0.25432 0.48219,0.39291 0.58096,0.50425 0.88352,0.91712 0.88352,0.91712 0.0209,0.02382 0.0149,0.06313 -0.009,0.08308 -0.0208,0.01787 -0.0515,0.01489 -0.0724,0"
           fill="#373231"
           id="path350"
           style="stroke-width:2.71503" />
      </g>
      <g
         transform="matrix(0.65466144,0,0,-0.65466144,-61.248657,223.64215)"
         stroke-width="0.715641"
         id="g360">
        <g
           clip-path="url(#clipPath3070)"
           opacity="0.5"
           stroke-width="0.240309"
           id="g358">
          <g
             transform="translate(296.7,83.238)"
             stroke-width="0.715641"
             id="g356">
            <path
               d="m 0,0 c -0.721,2.042 -2.661,3.265 -6.64,2.415 -11.387,-2.43 -14.164,19.858 -14.164,22.079 0,2.222 -1.25,7.013 -1.458,5.069 -0.209,-1.944 -1.736,1.458 -4.375,4.096 -1.586,1.587 -4.248,1.891 -6.273,1.882 0.944,-0.875 1.831,-1.671 2.524,-2.229 2.5,-2.013 3.055,-10.206 3.055,-10.206 C -25.109,0.055 -17.194,-6.75 -11.084,-7.236 -6.411,-7.607 -1.052,-5.7 0,0"
               fill="#f7c4a7"
               id="path354"
               style="stroke-width:0.911712" />
          </g>
        </g>
      </g>
      <path
         d="m 104.57274,110.06468 c 0,0 -1.72433,4.92348 11.63634,9.39869 13.35993,4.47507 12.2196,-0.75412 12.23269,-1.6065 0.013,-0.85169 2.37562,-13.19729 -6.67249,-16.94978 0,0 -0.24615,-0.0412 -0.38885,-0.48573 -0.1427,-0.444509 -0.0792,-0.662517 -0.5584,-0.928283 -0.47853,-0.266432 -0.6756,-0.03804 -0.91974,0.285419 -0.24352,0.323404 -0.68869,0.312914 -1.70856,0.01299 -1.01988,-0.299166 -8.82354,-1.596649 -13.6204,10.272314"
         fill="#fccd40"
         id="path362"
         style="stroke-width:1.69182" />
      <g
         transform="matrix(0.65466144,0,0,-0.65466144,-61.248657,223.64215)"
         stroke-width="0.715641"
         id="g370">
        <g
           clip-path="url(#clipPath3090)"
           opacity="0.5"
           stroke-width="0.240309"
           id="g368">
          <g
             transform="translate(273.65,177.6)"
             stroke-width="0.715641"
             id="g366">
            <path
               d="M 0,0 C 0.172,0.816 2.85,9.067 3.771,12.215 3.492,12.153 3.293,11.914 3.071,11.619 2.757,11.204 2.22,11.153 1.132,11.418 0.881,8.342 -0.468,0.298 -1.126,-0.321 -1.854,-1.006 -5.491,-1.827 -5.59,-2.393 c -0.099,-0.565 -2.524,-9.95 -2.524,-9.95 0,0 2.696,9.593 2.968,9.8 C -4.875,-2.336 -0.209,-0.992 0,0"
               fill="#fccd40"
               id="path364"
               style="stroke-width:0.911712" />
          </g>
        </g>
      </g>
      <path
         d="m 103.07722,178.26575 22.77108,-2.63622 -1.00025,7.27256 c 0,0 -19.58937,-2.63622 -21.77095,-4.63609"
         fill="#f2f7fd"
         id="path372"
         style="stroke-width:1.69182" />
      <g
         transform="matrix(0.65466144,0,0,-0.65466144,-61.248657,223.64215)"
         stroke-width="0.715641"
         id="g380">
        <g
           clip-path="url(#clipPath3110)"
           stroke-width="0.715641"
           id="g378">
          <g
             transform="translate(251.02,69.32)"
             stroke-width="0.715641"
             id="g376">
            <path
               d="M 0,0 34.785,4.027 33.257,-7.082 C 33.257,-7.082 3.333,-3.055 0,0"
               fill="#f2f7fd"
               id="path374"
               style="stroke-width:0.911712" />
          </g>
        </g>
      </g>
      <path
         d="m 125.63456,178.16605 -8.58986,1.27262 8.1356,1.36359 z"
         fill="#423e3e"
         id="path382"
         style="stroke-width:1.69182" />
      <path
         d="m 103.07722,178.26575 c 0,0 20.3284,4.67012 21.78279,4.48816 l 1.16657,1.28832 c 0,0 -2.54518,-0.15178 -3.90878,-0.48508 -1.3636,-0.3332 -19.04039,-3.82172 -19.04039,-5.29138"
         fill="#f2f7fd"
         id="path384"
         style="stroke-width:1.69182" />
      <g
         transform="matrix(0.65466144,0,0,-0.65466144,-61.248657,223.64215)"
         stroke-width="0.715641"
         id="g392">
        <g
           clip-path="url(#clipPath3134)"
           opacity="0.5"
           stroke-width="0.240309"
           id="g390">
          <g
             transform="translate(251.02,69.32)"
             stroke-width="0.715641"
             id="g388">
            <path
               d="m 0,0 c 0,0 31.053,-7.134 33.275,-6.856 l 1.62,-1.898 c 0,0 -3.726,0.162 -5.809,0.671 C 27.003,-7.574 0,-2.245 0,0"
               fill="#f2f7fd"
               id="path386"
               style="stroke-width:0.911712" />
          </g>
        </g>
      </g>
      <path
         d="m 164.40578,145.30212 -31.77034,0.95445 c 0,0 -3.45451,-0.18204 -3.8178,3.31829 -0.36398,3.49963 -3.95464,33.17924 -3.95464,33.17924 0,0 -0.31815,1.63659 2.54518,1.27262 2.86335,-0.36332 34.86169,-5.1814 34.86169,-5.1814 0,0 1.45457,0.0451 1.77274,-3.95395 0.31816,-3.99982 3.63585,-28.04401 3.63585,-28.04401 0,0 0.40914,-1.59073 -1.45458,-1.59073 -2.09085,0 -1.81792,0.0451 -1.81792,0.0451"
         fill="#5fbcd3"
         id="path394"
         style="stroke-width:1.69182" />
      <g
         transform="matrix(0.65466144,0,0,-0.65466144,-61.248657,223.64215)"
         stroke-width="0.715641"
         id="g402">
        <g
           clip-path="url(#clipPath3154)"
           stroke-width="0.715641"
           id="g400">
          <g
             transform="translate(284.94,62.464)"
             stroke-width="0.715641"
             id="g398">
            <path
               d="m 0,0 c 0,0 5.485,45.338 6.04,50.685 0.556,5.346 5.833,5.068 5.833,5.068 l 48.532,1.458 c 0,0 -0.354,0.06 2.149,0.068 -0.007,0 -0.013,0.002 -0.02,0.002 -3.194,0 -2.777,-0.07 -2.777,-0.07 L 11.225,55.753 c 0,0 -5.277,0.278 -5.833,-5.068 C 4.837,45.338 -0.648,0 -0.648,0 c 0,0 -0.416,-2.161 3.05,-2.014 C -0.361,-1.88 0,0 0,0"
               fill="#f2f7fd"
               id="path396"
               style="stroke-width:0.911712" />
          </g>
        </g>
      </g>
      <g
         id="g416"
         style="stroke-width:2.13115"
         transform="matrix(0.62313101,0,0,0.62313101,36.81347,66.482276)">
        <path
           d="m 118.69,87.348 c -0.22484,0.85199 -0.85726,1.4235 -1.414,1.2775 -0.55678,-0.14711 -0.82572,-0.95601 -0.60092,-1.808 0.22484,-0.85202 0.85726,-1.4246 1.414,-1.2775 0.55678,0.14592 0.82572,0.95601 0.60092,1.808"
           fill="#ffffff"
           id="path404"
           style="stroke-width:2.71503" />
        <path
           d="m 131.94,92.092 c -0.24896,0.8457 -0.89821,1.3993 -1.4498,1.2365 -0.55259,-0.1617 -0.79842,-0.97912 -0.54946,-1.8248 0.24806,-0.84463 0.89719,-1.3993 1.4498,-1.2365 0.55154,0.1617 0.79841,0.97909 0.54943,1.8248"
           fill="#ffffff"
           id="path406"
           style="stroke-width:2.71503" />
        <path
           d="m 131.29,92.533 c -0.15218,0.51897 -0.5505,0.8583 -0.88877,0.75851 -0.33933,-0.09976 -0.48954,-0.60092 -0.33722,-1.1188 0.15247,-0.51896 0.55047,-0.8583 0.88877,-0.75851 0.33826,0.09887 0.48954,0.59988 0.33722,1.1188"
           fill="#373231"
           id="path408"
           style="stroke-width:2.71503" />
        <path
           d="m 118.13,87.951 c -0.15456,0.52632 -0.5589,0.8709 -0.90244,0.76899 -0.3435,-0.10095 -0.49585,-0.60827 -0.34142,-1.1346 0.15456,-0.52632 0.5589,-0.8709 0.90244,-0.77004 0.34246,0.10184 0.49585,0.60932 0.34142,1.1356"
           fill="#373231"
           id="path410"
           style="stroke-width:2.71503" />
        <path
           d="m 117.33,87.853 c -0.0179,0.12507 -0.0989,0.21739 -0.18076,0.20578 -0.0819,-0.01191 -0.13341,-0.12299 -0.11555,-0.24806 0.0179,-0.12507 0.0989,-0.21739 0.18076,-0.20578 0.081,0.01191 0.13342,0.12299 0.11555,0.24806"
           fill="#ffffff"
           id="path412"
           style="stroke-width:2.71503" />
        <path
           d="m 130.47,92.503 c -0.0179,0.12507 -0.0989,0.21739 -0.18076,0.20578 -0.0819,-0.01191 -0.13341,-0.12299 -0.11554,-0.24776 0.0179,-0.12507 0.0989,-0.21739 0.18076,-0.20607 0.081,0.01191 0.13341,0.12299 0.11554,0.24806"
           fill="#ffffff"
           id="path414"
           style="stroke-width:2.71503" />
      </g>
      <g
         transform="matrix(0.65466144,0,0,-0.65466144,-61.248657,223.64215)"
         stroke-width="0.715641"
         id="g424">
        <g
           clip-path="url(#clipPath3194)"
           opacity="0.5"
           stroke-width="0.240309"
           id="g422">
          <g
             transform="translate(233.92,78.016)"
             stroke-width="0.715641"
             id="g420">
            <path
               d="M 0,0 C 0,0 2.534,-0.59 2.187,-1.215 1.84,-1.84 1.545,-2.031 1.545,-2.031 l -1.58,1.944"
               fill="#f7c4a7"
               id="path418"
               style="stroke-width:0.911712" />
          </g>
        </g>
      </g>
      <g
         transform="matrix(0.65466144,0,0,-0.65466144,-61.248657,223.64215)"
         fill="#a05a2c"
         stroke-width="0.240309"
         id="g438">
        <g
           clip-path="url(#clipPath3210)"
           opacity="0.5"
           id="g430"
           style="stroke-width:0.306147">
          <g
             transform="translate(237.57,69.615)"
             fill="#a05a2c"
             stroke-width="0.715641"
             id="g428">
            <path
               d="m 0,0 c 0,0 -1.296,0.972 -2.754,2.5 -1.458,1.527 -1.435,1.203 -2.986,1.851 -1.55,0.648 -5.832,3.749 -6.318,4.305 -0.486,0.555 0,-0.232 0.394,-0.718 0.393,-0.486 2.337,-2.106 3.471,-2.592 C -7.059,4.86 -5.416,4.143 -4.212,3.078 -3.009,2.013 -0.069,-0.417 0,-0.093 0.069,0.231 0,0 0,0"
               fill="#a05a2c"
               id="path426"
               style="stroke-width:0.911712" />
          </g>
        </g>
        <g
           clip-path="url(#clipPath3226)"
           opacity="0.5"
           id="g436"
           style="stroke-width:0.306147">
          <g
             transform="translate(234.13,66.595)"
             fill="#a05a2c"
             stroke-width="0.715641"
             id="g434">
            <path
               d="m 0,0 c 0,0 0.187,-0.083 0.469,-0.169 -0.453,0.228 -0.984,0.543 -1.568,0.991 -1.69,1.296 -3.703,2.175 -4.282,2.985 -0.579,0.81 -4.953,2.754 -4.305,2.199 0.648,-0.556 3.079,-2.731 3.889,-2.824 0.81,-0.092 4.513,-2.453 4.096,-3.24 -0.417,-0.787 -1.227,-1.226 -2.523,-0.81 -1.296,0.417 -6.225,3.842 -6.457,3.194 -0.231,-0.648 0.509,-0.231 1.065,-0.556 0.555,-0.324 4.212,-2.522 3.402,-2.522 -0.81,0 -8.193,0.694 -8.517,1.828 -0.324,1.134 0.139,1.759 0.231,2.338 0.093,0.578 -0.416,1.805 0,2.36 0.417,0.556 0.232,2.002 0.926,2.002 0.695,0 -0.625,2.396 0.347,2.882 0.972,0.486 1.701,1.84 1.701,1.84 0,0 -3.784,-1.111 -5.103,-2.674 -1.319,-1.562 -4.964,-2.36 -8.609,-2.603 -3.645,-0.243 -20.621,3.02 -18.608,11.977 0,0 1.424,3.089 3.854,3.818 0,0 -0.744,-0.103 -1.832,-0.414 -1.348,-0.418 -2.563,-0.962 -3.561,-1.488 -0.715,-2.743 -1.125,-5.069 -1.168,-6.8 -0.324,-12.775 22.183,-11.606 25.238,-11.988 3.055,-0.382 -0.035,-0.243 2.291,-2.187 2.326,-1.944 13.62,-1.377 13.62,-1.377 0.393,-0.023 0.787,0.405 0.787,0.405 1.076,-0.729 2.569,-0.347 3.541,0 C -0.104,-0.486 0,0 0,0"
               fill="#a05a2c"
               id="path432"
               style="stroke-width:0.911712" />
          </g>
        </g>
      </g>
      <g
         transform="matrix(0.65466144,0,0,-0.65466144,-61.248657,223.64215)"
         id="g546"
         style="stroke-width:2.13115">
        <g
           stroke-width="0.240309"
           id="g476">
          <g
             clip-path="url(#clipPath3242)"
             opacity="0.5"
             id="g444"
             style="stroke-width:0.306147">
            <g
               transform="translate(255.97,130.92)"
               stroke-width="0.715641"
               id="g442">
              <path
                 d="m 0,0 c -1.782,0.978 -2.851,0.757 -3.298,0.589 0.029,-0.33 0.069,-0.554 0.069,-0.554 -0.101,0.014 -0.209,0.024 -0.32,0.031 1.889,-0.313 4.53,-1.159 5.1,-1.362 C 2.199,-1.527 2.361,-1.296 0,0"
                 fill="#f7c4a7"
                 id="path440"
                 style="stroke-width:0.911712" />
            </g>
          </g>
          <g
             clip-path="url(#clipPath3258)"
             opacity="0.5"
             id="g450"
             style="stroke-width:0.306147">
            <g
               transform="translate(259.72,133.58)"
               stroke-width="0.715641"
               id="g448">
              <path
                 d="M 0,0 C -0.199,0.254 -3.682,1.361 -5.213,1.749 -5.257,1.581 -5.277,1.47 -5.277,1.47 -5.398,1.496 -5.513,1.493 -5.626,1.46 -4.934,1.353 -1.649,0.794 -0.347,-0.301 1.111,-1.527 0.255,-0.324 0,0"
                 fill="#f7c4a7"
                 id="path446"
                 style="stroke-width:0.911712" />
            </g>
          </g>
          <g
             clip-path="url(#clipPath3274)"
             opacity="0.5"
             id="g456"
             style="stroke-width:0.306147">
            <g
               transform="translate(262.63,137.31)"
               stroke-width="0.715641"
               id="g454">
              <path
                 d="m 0,0 c -0.648,-0.255 -0.648,-0.231 -2.523,0.833 -1.07,0.608 -2.44,1.124 -3.42,1.456 1.538,-0.792 2.801,-1.878 3.339,-2.358 0.308,-0.275 0.211,-0.386 -0.112,-0.406 0.756,-0.099 1.655,-0.094 2.23,0.012 C 0.393,-0.301 0.648,0.255 0,0"
                 fill="#f7c4a7"
                 id="path452"
                 style="stroke-width:0.911712" />
            </g>
          </g>
          <g
             clip-path="url(#clipPath3290)"
             opacity="0.5"
             id="g462"
             style="stroke-width:0.306147">
            <g
               transform="translate(284.04,152.79)"
               stroke-width="0.715641"
               id="g460">
              <path
                 d="m 0,0 c 0,0 1.99,1.921 1.851,0.972 -0.138,-0.949 -2.082,-3.379 -2.082,-3.379 0,0 1.666,2.893 0.786,2.569 C -0.324,-0.162 0,0 0,0"
                 fill="#f7c4a7"
                 id="path458"
                 style="stroke-width:0.911712" />
            </g>
          </g>
          <g
             clip-path="url(#clipPath3306)"
             opacity="0.5"
             id="g468"
             style="stroke-width:0.306147">
            <g
               transform="translate(253.61,164.74)"
               stroke-width="0.715641"
               id="g466">
              <path
                 d="M 0,0 C 0,0 -0.44,2.754 -0.833,1.62 -1.227,0.486 -1.389,-1.852 -1.389,-1.852 -1.389,-1.852 -1.203,0 0,0"
                 fill="#f7c4a7"
                 id="path464"
                 style="stroke-width:0.911712" />
            </g>
          </g>
          <g
             clip-path="url(#clipPath3322)"
             opacity="0.5"
             id="g474"
             style="stroke-width:0.306147">
            <g
               transform="translate(253.77,162.51)"
               stroke-width="0.715641"
               id="g472">
              <path
                 d="m 0,0 c 0,0 -0.995,0.741 -1.389,-0.555 -0.393,-1.296 -0.648,-3.958 0.486,-3.889 0,0 -0.879,2.986 0.903,4.444"
                 fill="#f7c4a7"
                 id="path470"
                 style="stroke-width:0.911712" />
            </g>
          </g>
        </g>
        <g
           clip-path="url(#clipPath3338)"
           stroke-width="0.715641"
           id="g482">
          <g
             transform="translate(214.86,82.598)"
             stroke-width="0.715641"
             id="g480">
            <path
               d="m 0,0 c 0,0 -7.568,4.582 -14.65,6.804 -2.312,0.725 -4.634,0.604 -6.719,0.116 -0.347,-0.325 -0.594,-0.555 -0.594,-0.555 0,0 7.313,0.786 13.932,-2.917 C -2.746,0.492 2.476,-2.697 5.099,-2.71 3.353,-2.204 0,0 0,0"
               fill="#f7c4a7"
               id="path478"
               style="stroke-width:0.911712" />
          </g>
        </g>
        <g
           clip-path="url(#clipPath3354)"
           stroke-width="0.715641"
           id="g488">
          <g
             transform="translate(239.3,72.276)"
             stroke-width="0.715641"
             id="g486">
            <path
               d="m 0,0 c 0.181,-0.254 0.355,-0.451 0.515,-0.61 -0.093,0.608 -0.446,1.212 -0.446,1.212 0.324,2.731 -0.138,4.096 -0.138,4.096 0,0 -0.193,1.148 -3.665,1.245 0.332,-0.11 0.711,-0.25 1.119,-0.435 1.226,-0.555 0.74,-0.949 0.902,-1.435 0.162,-0.486 0.718,-1.226 1.042,-1.55 0.324,-0.324 0.555,-2.153 0.324,-1.69 -0.232,0.463 -3.402,2.592 -3.958,3.472 -0.249,0.395 -1.018,1.087 -1.99,1.978 -0.346,0.184 -0.603,0.502 -0.856,0.683 -0.648,0.463 -2.292,1.898 -4.93,3.078 -0.662,0.296 -1.341,0.339 -1.999,0.225 -0.6,-0.562 -1.042,-1.341 -0.605,-2.238 0,0 0.695,1.597 2.292,1.354 1.596,-0.243 7.811,-4.93 8.158,-5.624 C -3.888,3.067 -0.625,0.879 0,0"
               fill="#f7c4a7"
               id="path484"
               style="stroke-width:0.911712" />
          </g>
        </g>
        <g
           clip-path="url(#clipPath3370)"
           opacity="0.5"
           stroke-width="0.240309"
           id="g494">
          <g
             transform="translate(205.7,87.285)"
             stroke-width="0.715641"
             id="g492">
            <path
               d="m 0,0 c 0,0 3.263,-1.458 6.665,2.916 3.402,4.374 16.108,26.557 16.108,26.557 0,0 -12.046,-25.029 -18.723,-31.313 z"
               fill="#cd7b3d"
               id="path490"
               style="stroke-width:0.911712" />
          </g>
        </g>
        <g
           clip-path="url(#clipPath3386)"
           stroke-width="0.715641"
           id="g500">
          <g
             transform="translate(274.04,133.26)"
             stroke-width="0.715641"
             id="g498">
            <path
               d="M 0,0 C 0,1.928 2.028,6.083 2.514,6.966 2.499,7.057 2.486,7.139 2.473,7.213 2.007,7.175 0.111,5.925 -1.296,4.999 -3.055,3.842 -2.916,1.157 -6.017,3.888 -6.6,4.401 -7.25,4.911 -7.935,5.406 -9.099,5.322 -10.207,4.946 -10.403,4.258 -10.75,3.043 -12.451,2.349 -11.965,0.995 c 0.486,-1.354 -1.771,-2.812 -1.424,-3.541 0.348,-0.729 -0.486,-1.354 0.105,-3.159 0.59,-1.805 1.18,-4.825 3.749,-5.693 2.569,-0.868 8.123,-0.764 8.956,-2.708 0.834,-1.944 0.868,-2.534 1.944,-0.729 1.077,1.805 1.077,2.465 2.535,1.111 1.458,-1.354 10.6,-15.97 9.875,-12.331 C 8.91,-18.046 3.571,-10.71 2.037,-9.072 -0.694,-6.156 0,-1.944 0,0"
               fill="#f7c4a7"
               id="path496"
               style="stroke-width:0.911712" />
          </g>
        </g>
        <g
           clip-path="url(#clipPath3402)"
           stroke-width="0.715641"
           id="g506">
          <g
             transform="translate(268.95,155.22)"
             stroke-width="0.715641"
             id="g504">
            <path
               d="m 0,0 c 0,0 -2.534,-5.867 -2.048,-6.804 0.486,-0.938 0.035,-1.181 0.359,-1.181 0.324,0 -0.232,0.672 -0.162,1.134 0.069,0.463 -0.186,0.625 0.069,1.111 C -1.527,-5.254 0.555,0.37 0,0"
               fill="#f7c4a7"
               id="path502"
               style="stroke-width:0.911712" />
          </g>
        </g>
        <g
           stroke-width="0.240309"
           id="g532">
          <g
             clip-path="url(#clipPath3418)"
             opacity="0.5"
             id="g512"
             style="stroke-width:0.306147">
            <g
               transform="translate(264.03,147.9)"
               stroke-width="0.715641"
               id="g510">
              <path
                 d="M 0,0 C 0.15,-0.218 0.212,-0.436 0.138,-0.487 0.064,-0.538 -0.117,-0.402 -0.267,-0.184 -0.417,0.035 -0.479,0.253 -0.405,0.303 -0.331,0.354 -0.15,0.218 0,0"
                 fill="#f7c4a7"
                 id="path508"
                 style="stroke-width:0.911712" />
            </g>
          </g>
          <g
             clip-path="url(#clipPath3434)"
             opacity="0.5"
             id="g518"
             style="stroke-width:0.306147">
            <g
               transform="translate(267.76,146.51)"
               stroke-width="0.715641"
               id="g516">
              <path
                 d="M 0,0 C 0.261,0.044 0.485,0.008 0.5,-0.08 0.515,-0.168 0.315,-0.275 0.054,-0.319 -0.207,-0.364 -0.431,-0.328 -0.446,-0.24 -0.461,-0.151 -0.261,-0.044 0,0"
                 fill="#f7c4a7"
                 id="path514"
                 style="stroke-width:0.911712" />
            </g>
          </g>
          <g
             clip-path="url(#clipPath3450)"
             opacity="0.5"
             id="g524"
             style="stroke-width:0.306147">
            <g
               transform="translate(257.67,144.83)"
               stroke-width="0.715641"
               id="g522">
              <path
                 d="m 0,0 c 0,0 3.038,-0.833 4.548,-1.632 1.51,-0.798 1.926,-0.746 2.846,-0.92 0.92,-0.173 3.767,-0.972 3.767,-0.972 0,0 -1.996,0.851 -2.482,1.094 -0.486,0.243 -1.684,0 -2.118,0.364 C 6.127,-1.701 5.155,-1.284 3.94,-1.041 2.725,-0.798 -0.469,0.417 0,0"
                 fill="#f7c4a7"
                 id="path520"
                 style="stroke-width:0.911712" />
            </g>
          </g>
          <g
             clip-path="url(#clipPath3466)"
             opacity="0.3"
             id="g530"
             style="stroke-width:0.306147">
            <g
               transform="translate(283.39,154.25)"
               stroke-width="0.715641"
               id="g528">
              <path
                 d="m 0,0 c 0.134,0.241 -0.082,1.191 -0.189,1.615 -0.893,-1.631 -1.499,-5.336 -2.357,-8.072 -0.972,-3.101 -5.045,-5.323 -6.804,-6.295 -1.759,-0.972 -2.592,-0.972 -3.425,0.509 -0.787,1.399 -1.196,1.685 -4.786,3.388 -0.2,-0.108 -0.317,-0.171 -0.317,-0.171 0,0 2.846,-1.163 3.506,-2.5 0.659,-1.336 2.083,-2.916 4.738,-1.77 1.959,0.845 4.604,2.292 5.928,3.071 0.643,1.454 0.789,2.852 1.438,3.212 0.069,0.039 0.174,0.118 0.293,0.215 0.324,1.477 1.328,4.072 2.171,6.121 C 0.07,-0.333 -0.112,-0.201 0,0"
                 fill="#373231"
                 id="path526"
                 style="stroke-width:0.911712" />
            </g>
          </g>
        </g>
        <g
           clip-path="url(#clipPath3482)"
           stroke-width="0.715641"
           id="g538">
          <g
             transform="translate(268.72,141.39)"
             stroke-width="0.715641"
             id="g536">
            <path
               d="M 0,0 C -1.12,0.29 -4.252,1.084 -4.806,1.041 -5.483,0.989 -5.553,1.215 -6.091,1.458 -6.629,1.701 -7.132,0.451 -6.889,0.26 -6.753,0.153 -6.535,-0.231 -5.956,-0.625 -3.664,-1.481 0.429,-0.636 0,0"
               fill="#f7c4a7"
               id="path534"
               style="stroke-width:0.911712" />
          </g>
        </g>
        <g
           clip-path="url(#clipPath3498)"
           stroke-width="0.715641"
           id="g544">
          <g
             transform="translate(268.73,141.39)"
             stroke-width="0.715641"
             id="g542">
            <path
               d="M 0,0 C -0.02,0.03 -0.046,0.061 -0.087,0.09 -1.059,0.784 -2.413,1.687 -3.35,1.791 -4.253,1.891 -4.58,2.154 -5.254,2.514 -5.19,2.238 -5.024,1.885 -4.577,1.745 -3.801,1.502 -3.003,1.293 -2.714,1.178 -2.484,1.086 -0.833,0.302 0,0"
               fill="#f7c4a7"
               id="path540"
               style="stroke-width:0.911712" />
          </g>
        </g>
      </g>
      <path
         d="m 103.80005,130.60869 c 0,-0.20555 0.0347,-0.49752 0.0707,-0.67361 -0.51911,0.10615 -0.87394,0.20425 -0.87394,0.20425 -0.16961,0.0353 -0.31815,0.26382 -0.36593,0.53549 0.11653,0.39211 1.16918,0.15309 1.16918,-0.0661"
         fill="#fef2f9"
         id="path548"
         style="stroke-width:1.69182" />
      <g
         transform="matrix(0.65466144,0,0,-0.65466144,-61.248657,223.64215)"
         stroke-width="0.240309"
         id="g568">
        <g
           clip-path="url(#clipPath3518)"
           opacity="0.5"
           id="g554"
           style="stroke-width:0.306147">
          <g
             transform="translate(275.76,181.02)"
             stroke-width="0.715641"
             id="g552">
            <path
               d="m 0,0 c 0,0 -1.665,-4.171 -0.86,-5.245 0.805,-1.074 2.995,-4.058 2.995,-4.058 0,0 -2.466,3.867 -2.51,4.421 C -0.418,-4.328 0.74,2.078 0,0"
               fill="#fccd40"
               id="path550"
               style="stroke-width:0.911712" />
          </g>
        </g>
        <g
           clip-path="url(#clipPath3534)"
           opacity="0.5"
           id="g560"
           style="stroke-width:0.306147">
          <g
             transform="translate(259.41,183.65)"
             stroke-width="0.715641"
             id="g558">
            <path
               d="m 0,0 c -1.958,-2.13 -3.87,-5.016 -5.568,-8.889 -0.032,-0.894 0.057,-2.433 0.843,-3.861 1.201,-2.18 1.984,-3.233 1.984,-3.233 0,0 -2.005,4.021 -1.698,5.345 C -4.215,-9.67 -2.359,-4.033 0,0"
               fill="#fccd40"
               id="path556"
               style="stroke-width:0.911712" />
          </g>
        </g>
        <g
           clip-path="url(#clipPath3550)"
           opacity="0.5"
           id="g566"
           style="stroke-width:0.306147">
          <g
             transform="translate(234.42,77.264)"
             stroke-width="0.715641"
             id="g564">
            <path
               d="m 0,0 -0.311,0.473 c -0.426,0.386 -1.154,1.039 -1.888,1.668 -1.134,0.972 -2.754,1.874 -3.078,2.592 -0.287,0.635 -7.126,10.763 -8.684,13.068 -0.081,-0.078 -0.164,-0.164 -0.249,-0.258 L -5.219,4.05 c 0,0 2.951,-1.828 5.219,-4.05"
               fill="#e6685a"
               id="path562"
               style="stroke-width:0.911712" />
          </g>
        </g>
      </g>
      <path
         d="m 95.850771,179.88589 c -0.08777,0.009 -0.162369,0.0282 -0.222563,0.059 l 0.446448,0.53549 c 0,0 -0.09297,-0.24417 -0.223885,-0.59441"
         fill="#423e3e"
         id="path570"
         style="stroke-width:1.69182" />
      <g
         transform="matrix(0.65466144,0,0,-0.65466144,-61.248657,223.64215)"
         stroke-width="0.240309"
         id="g584">
        <g
           clip-path="url(#clipPath3570)"
           opacity="0.5"
           id="g576"
           style="stroke-width:0.306147">
          <g
             transform="translate(233.69,78.376)"
             stroke-width="0.715641"
             id="g574">
            <path
               d="m 0,0 -11.397,17.357 c 0,0 -0.633,0.47 -1.788,-0.625 0.404,0.239 1.205,0.656 1.562,0.44 0.486,-0.295 11.56,-17.167 11.56,-17.167 z"
               fill="#e6685a"
               id="path572"
               style="stroke-width:0.911712" />
          </g>
        </g>
        <g
           clip-path="url(#clipPath3586)"
           opacity="0.5"
           id="g582"
           style="stroke-width:0.306147">
          <g
             transform="translate(296.92,118.24)"
             stroke-width="0.715641"
             id="g580">
            <path
               d="m 0,0 -0.749,-0.022 c 0,0 -5.276,0.277 -5.832,-5.069 -0.555,-5.346 -6.04,-50.685 -6.04,-50.685 0,0 -0.486,-2.499 3.888,-1.944 3.248,0.413 31.028,4.576 45.121,6.693 C -1.887,-52.241 -1.05,-11.769 0,0"
               fill="#f2f7fd"
               id="path578"
               style="stroke-width:0.911712" />
          </g>
        </g>
      </g>
      <path
         d="m 97.559397,180.67726 c 0,0 -1.090604,0.37904 -3.802782,0.27299 -2.712116,-0.10614 -5.984613,0.31815 -6.893075,0.42421"
         fill="none"
         stroke="#9a9391"
         stroke-linecap="round"
         stroke-miterlimit="10"
         stroke-width="0.0651195"
         id="path586" />
      <path
         d="M 129.93417,78.746117 H 0.9709743 V 75.352484 H 129.93417 Z"
         fill="#677786"
         id="path588"
         style="stroke-width:1.69182" />
      <g
         transform="matrix(0.65466144,0,0,-0.65466144,-61.248657,223.64215)"
         stroke-width="0.715641"
         id="g602">
        <g
           clip-path="url(#clipPath3608)"
           id="g594"
           style="stroke-width:0.715641">
          <g
             transform="translate(292.05,226.53)"
             stroke-width="0.715641"
             id="g592">
            <path
               d="M 0,0 H -197 V -0.448 H -0.49 v -4.736 h 0.486 v 4.736 h 0.003 z"
               fill="#677786"
               id="path590"
               style="stroke-width:0.911712" />
          </g>
        </g>
        <g
           clip-path="url(#clipPath3624)"
           id="g600"
           style="stroke-width:0.715641">
          <g
             transform="translate(95.05,221.34)"
             stroke-width="0.715641"
             id="g598">
            <path
               d="M 0,0 H 197 V 0.448 H 0.49 V 5.184 H 0.004 V 0.448 H 0.001 Z"
               fill="#677786"
               id="path596"
               style="stroke-width:0.911712" />
          </g>
        </g>
      </g>
      <g
         fill="none"
         stroke="#9a9391"
         stroke-linecap="round"
         stroke-miterlimit="10"
         stroke-width="0.104503"
         id="g616"
         transform="matrix(0.62313101,0,0,0.62313101,36.81347,66.482276)">
        <path
           d="m -42.926,70.913 14.782,14.803"
           id="path604"
           style="stroke-width:0.104503" />
        <path
           d="m -42.926,74.342 14.782,14.803"
           id="path606"
           style="stroke-width:0.104503" />
        <path
           d="m -42.926,77.806 14.782,14.803"
           id="path608"
           style="stroke-width:0.104503" />
        <path
           d="m -42.926,81.235 14.782,14.803"
           id="path610"
           style="stroke-width:0.104503" />
        <path
           d="m -42.926,84.335 14.782,14.803"
           id="path612"
           style="stroke-width:0.104503" />
        <path
           d="m -42.926,87.763 14.782,14.803"
           id="path614"
           style="stroke-width:0.104503" />
      </g>
    </g>
  </g>
</svg>
