<?xml version="1.0" encoding="UTF-8" standalone="no"?>
<svg
   xmlns:dc="http://purl.org/dc/elements/1.1/"
   xmlns:cc="http://creativecommons.org/ns#"
   xmlns:rdf="http://www.w3.org/1999/02/22-rdf-syntax-ns#"
   xmlns:svg="http://www.w3.org/2000/svg"
   xmlns="http://www.w3.org/2000/svg"
   xmlns:sodipodi="http://sodipodi.sourceforge.net/DTD/sodipodi-0.dtd"
   xmlns:inkscape="http://www.inkscape.org/namespaces/inkscape"
   version="1.1"
   id="Layer_1"
   x="0px"
   y="0px"
   viewBox="0 0 1920 1080"
   xml:space="preserve"
   sodipodi:docname="group presentation.svg"
   width="1920"
   height="1080"
   inkscape:version="1.0.1 (3bc2e813f5, 2020-09-07)"><sodipodi:namedview
   pagecolor="#ffffff"
   bordercolor="#666666"
   borderopacity="1"
   objecttolerance="10"
   gridtolerance="10"
   guidetolerance="10"
   inkscape:pageopacity="0"
   inkscape:pageshadow="2"
   inkscape:window-width="1366"
   inkscape:window-height="702"
   id="namedview224"
   showgrid="false"
   fit-margin-top="0"
   fit-margin-left="0"
   fit-margin-right="0"
   fit-margin-bottom="0"
   showborder="false"
   inkscape:zoom="0.4069368"
   inkscape:cx="621.35762"
   inkscape:cy="487.0495"
   inkscape:window-x="-8"
   inkscape:window-y="-8"
   inkscape:window-maximized="1"
   inkscape:current-layer="Layer_1"
   inkscape:document-rotation="0" /><metadata
   id="metadata488"><rdf:RDF><cc:Work
       rdf:about=""><dc:format>image/svg+xml</dc:format><dc:type
         rdf:resource="http://purl.org/dc/dcmitype/StillImage" /><dc:title /></cc:Work></rdf:RDF></metadata><defs
   id="defs486">
	
	
	

		
		
		
		
		
		
		
		
	
		
		
		
	
			
			
		
			
			
		
	
	
	
	
	
	
	
	
	
	
	
	
	
	
	
	

		
		
	
			
			
		
	

		
		
	
			
			
			
		
				
				
				
				
				
				
				
				
				
				
				
				
				
			
				
				
				
			
					
					
				
						
						
					
					
					
				
						
						
					
				
				
			
					
					
				
						
						
					
							
							
						
								
								
							
						
						
					
							
							
						
	
	
	
	
	
	
	
	
	
	
	
	
	
	
	
	
	
	
	
	
	
	
	
	
	
	
	
	
	
	

		
		
		
		
		
		
		
	
	
	
	
	
	
<filter
   inkscape:collect="always"
   style="color-interpolation-filters:sRGB"
   id="filter2062"
   x="-0.15552001"
   width="1.31104"
   y="-0.15552001"
   height="1.31104"><feGaussianBlur
     inkscape:collect="always"
     stdDeviation="27.755441"
     id="feGaussianBlur2064" /></filter></defs>
<style
   type="text/css"
   id="style2">
	.st0{fill:#E1E0E0;}
	.st1{fill:none;stroke:#E1E0E0;stroke-miterlimit:10;}
	.st2{fill:#FFFFFF;}
	.st3{fill:#004970;}
	.st4{fill:#F5F5F5;}
	.st5{fill:#2A94F4;}
	.st6{fill:#01384F;}
	.st7{fill:#FACBB6;}
	.st8{fill:none;stroke:#B66050;stroke-width:0.7049;stroke-linecap:round;stroke-linejoin:round;stroke-miterlimit:10;}
	.st9{fill:#0f2c3f;}
	.st10{fill:#0f2c3f;stroke:#2A94F4;stroke-width:0.7049;stroke-miterlimit:10;}
	.st11{fill:none;stroke:#2A94F4;stroke-width:0.7049;stroke-miterlimit:10;}
	.st12{fill:#EABEAC;}
	.st13{fill:none;stroke:#000000;stroke-width:0.4579;stroke-linecap:round;stroke-linejoin:round;stroke-miterlimit:10;}
	.st14{fill:#01384F;stroke:#1F120C;stroke-width:1.9084;stroke-miterlimit:10;}
	.st15{fill:#020102;}
	.st16{fill:#ECECEC;}
	.st17{fill:#EFBEAB;}
	.st18{fill:#DAD8DE;}
	.st19{fill:#010102;}
	.st20{fill:#ECA646;}
	.st21{fill:#EFBEAA;}
	.st22{fill:none;stroke:#000000;stroke-width:0.4771;stroke-linecap:round;stroke-linejoin:round;stroke-miterlimit:10;}
	.st23{fill:#F6B69A;}
	.st24{fill:#CDEAFB;}
	.st25{fill:#F19180;}
	.st26{fill:#1E3058;}
	.st27{opacity:0.34;fill:url(#SVGID_1_);}
	.st28{fill:#A9CCEA;}
	.st29{fill:#FCD286;}
	.st30{fill:#F9B751;}
	.st31{fill:none;stroke:#FFEBD4;stroke-width:0.1;stroke-miterlimit:10;}
	.st32{fill:#F3EFEA;}
</style>






<circle
   style="fill:#e4dde5;stroke-width:2.18959;stroke-linecap:round;stroke-linejoin:round;paint-order:markers fill stroke;filter:url(#filter2062)"
   id="path185"
   cx="697.7547"
   cy="48.987278"
   r="214.16235"
   transform="matrix(2.0403493,0,0,1.4598996,-865.83719,311.06535)" /><g
   id="g2258"
   transform="matrix(1.5612254,0,0,1.565471,94.729862,-146.60707)"
   style="stroke-width:0.639653"><g
     id="g12"
     style="stroke-width:0.639653">
	<rect
   x="35.700001"
   y="177.2"
   class="st0"
   width="179"
   height="167.7"
   id="rect4"
   style="stroke-width:0.639653" />
	<rect
   x="42.599998"
   y="184.2"
   class="st1"
   width="179"
   height="167.7"
   id="rect6"
   style="stroke-width:0.639653" />
	<polygon
   class="st2"
   points="35.4,344.5 187.1,177.4 214.5,177.4 62.7,344.5 "
   id="polygon8"
   style="stroke-width:0.639653" />
	<polygon
   class="st2"
   points="214.7,208.6 91.2,344.7 85.3,344.7 214.7,202.1 "
   id="polygon10"
   style="stroke-width:0.639653" />
</g><g
     id="g22"
     style="stroke-width:0.639653">
	<rect
   x="350.20001"
   y="176.5"
   class="st0"
   width="179"
   height="167.7"
   id="rect14"
   style="stroke-width:0.639653" />
	<rect
   x="357.20001"
   y="183.5"
   class="st1"
   width="179"
   height="167.7"
   id="rect16"
   style="stroke-width:0.639653" />
	<polygon
   class="st2"
   points="350,343.9 501.7,176.7 529,176.7 377.3,343.9 "
   id="polygon18"
   style="stroke-width:0.639653" />
	<polygon
   class="st2"
   points="529.2,208 405.7,344.1 399.8,344.1 529.2,201.5 "
   id="polygon20"
   style="stroke-width:0.639653" />
</g><path
     class="st3"
     d="m 132.1,433.5 c 0,-0.5 0,-1 -0.1,-1.5 -0.9,-0.1 -1.9,-0.2 -2.9,-0.3 -0.8,-90.3 -1.4,-177.9 0.4,-237.1 0.8,0.1 1.7,0.1 2.5,0.2 0.2,-0.5 0.4,-1.1 0.5,-1.6 7.3,12.3 15.5,24.1 23.3,35 l 0.7,-0.5 c -7.9,-11.1 -16.3,-23.2 -23.7,-35.7 0.1,-0.8 0.2,-1.6 0.1,-2.4 -1,-0.3 -2.1,-0.6 -3.2,-0.9 0.2,-6.7 0.5,-13 0.8,-18.9 h -10.1 c 0.7,5.4 1.3,11.3 1.9,17.5 -0.6,0 -1.2,-0.1 -1.8,-0.1 -0.3,1.4 -0.5,2.8 -0.7,4.2 v 0 l -22.1,25.3 0.7,0.6 21.3,-24.4 c 0,0.6 -0.1,1.2 -0.1,1.8 1.1,0 2.2,-0.1 3.3,-0.1 4.4,58.7 3,146.7 1.8,237 -1.2,0 -2.5,0 -3.7,0 -0.1,0.7 -0.1,1.4 -0.1,2.1 -11.5,11.1 -25.6,19.7 -40.7,24.8 5.6,0.2 11.4,0.2 17,-0.1 -0.6,-0.3 -0.9,-1 -0.7,-1.6 0.2,-0.6 0.8,-1.1 1.2,-1.5 7.5,-6.5 15.4,-12.6 23.4,-18.4 0.2,0.9 0.4,1.8 0.6,2.6 1.2,0.1 2.4,0.1 3.6,0.1 -0.1,8.2 0.2,17.7 -3,19 3.1,0.3 5.9,0.3 9,-0.1 -2.6,-1.9 -3.3,-11 -3.8,-18.9 1.2,-0.1 2.4,-0.1 3.7,-0.2 0.2,-0.8 0.4,-1.6 0.5,-2.4 8.1,5.8 15.9,11.9 23.4,18.4 0.5,0.4 1,0.9 1.2,1.5 0.2,0.6 -0.1,1.3 -0.7,1.6 5.6,0.3 11.4,0.3 17,0.1 -14.9,-5.4 -29,-13.9 -40.5,-25.1 z"
     id="path24"
     style="stroke-width:0.639653" /><g
     id="g30"
     style="stroke-width:0.639653">
		<path
   class="st4"
   d="m 69.8,221.7 16.6,162.6 92.5,-1.3 3.7,-141.4 C 145.8,232.3 108.2,225.8 69.8,221.7 Z"
   id="path26"
   style="stroke-width:0.639653" />
		<path
   class="st3"
   d="m 187,235 c 1.3,0.9 -2.5,6.7 -4.4,6.7 -37.6,-6 -75.2,-13.9 -112.8,-19.9 -1.8,0.2 -3,-9.5 -1.2,-9.7 40.8,3.8 81,11.2 118.4,22.9 z M 91.5,397.6 c 28.4,-6.7 57.5,-10.3 86.6,-10.9 1.3,0 1.9,-3.5 0.8,-3.8 -30.7,-4.1 -61.9,-3.6 -92.5,1.3 -3.4,1.4 1.7,14.7 5.1,13.4 z"
   id="path28"
   style="stroke-width:0.639653" />
	</g><g
     id="g34"
     style="fill:#916f6f;stroke-width:0.639653">
		<path
   class="st5"
   d="m 169.2,376.8 c -13.5,-2.2 -26.8,-3.3 -40.1,-3.4 -6.6,0 -13.2,0.2 -19.7,0.6 l -4.9,0.4 -4.9,0.5 -4.9,0.6 -5.3,0.7 c -0.7,-6.2 -1.3,-12.4 -2,-18.6 -0.6,-6.1 -1.2,-12.1 -1.8,-18.2 -1.2,-12.1 -2.3,-24.2 -3.5,-36.4 -2.3,-24.3 -4.7,-48.9 -7.5,-74.2 3.2,25.3 5.9,49.9 8.4,74.2 2.4,24.2 4.8,48.1 7.2,72.1 l 4.4,-0.6 4.9,-0.5 4.9,-0.4 4.9,-0.3 c 6.6,-0.4 13.2,-0.5 19.8,-0.4 13.4,0.2 26.7,1.5 40.1,3.9 z"
   id="path32"
   style="fill:#916f6f;stroke-width:0.639653" />
	</g><g
     id="g38"
     style="stroke-width:0.639653">
		<path
   class="st6"
   d="m 174.4,233.7 c -16.9,-4.1 -33.2,-7.4 -49.6,-10.1 -16.4,-2.8 -32.8,-5 -50.2,-6.7 17.5,1 34.1,3 50.5,5.7 16.5,2.8 32.7,6.4 49.3,11.1 z"
   id="path36"
   style="stroke-width:0.639653" />
	</g><g
     id="g42"
     style="stroke-width:0.639653">
		<path
   class="st6"
   d="m 172.1,384.2 c -14.2,-0.5 -27.7,-1.1 -41.2,-0.7 -13.5,0.4 -27,1.7 -40.7,5.4 13.6,-4.4 27.3,-6 40.8,-6.4 13.6,-0.4 27.1,0.5 41.1,1.7 z"
   id="path40"
   style="stroke-width:0.639653" />
	</g><g
     id="g76"
     style="stroke-width:0.639653">
		<g
   id="g58"
   style="stroke-width:0.639653">
			<g
   id="g54"
   style="stroke-width:0.639653">
				<polygon
   class="st7"
   points="171.8,454 173.5,426.3 185.5,430.3 181.6,458.6 171.3,455 "
   id="polygon46"
   style="stroke-width:0.639653" />
				<g
   id="g52"
   style="stroke-width:0.639653">
					<path
   class="st6"
   d="m 183.9,453.4 c 0,0 -9.3,2.3 -12.6,-4.2 l -23,8 37,5.6 z"
   id="path48"
   style="stroke-width:0.639653" />
					<polygon
   class="st2"
   points="147.8,460.4 184.9,466 185.3,462.8 148.3,457.2 "
   id="polygon50"
   style="stroke-width:0.639653" />
				</g>
			</g>
			<path
   class="st6"
   d="m 199.5,324 -0.6,1.8 c -6.1,10.1 -11.8,22.7 -15.7,34 l -10.3,29.7 c -1.1,3.1 -1.8,6.3 -2,9.5 l -3.8,43.8 20.5,1.5 5.2,-44.1 24.2,-47 -1.3,-27.5 z"
   id="path56"
   style="stroke-width:0.639653" />
		</g>
		<g
   id="g74"
   style="stroke-width:0.639653">
			<g
   id="g68"
   style="stroke-width:0.639653">
				<polygon
   class="st7"
   points="241.5,446.4 226.7,423.2 238.6,418.9 252,443.9 241.7,447.5 "
   id="polygon60"
   style="stroke-width:0.639653" />
				<g
   id="g66"
   style="stroke-width:0.639653">
					<path
   class="st6"
   d="m 250.8,438.3 c 0,0 -6.1,7.7 -12.5,4.5 l -13.7,20.7 32.8,-18.6 z"
   id="path62"
   style="stroke-width:0.639653" />
					<polygon
   class="st2"
   points="226.2,466.4 259,447.8 257.4,444.9 224.6,463.6 "
   id="polygon64"
   style="stroke-width:0.639653" />
				</g>
			</g>
			<g
   id="g72"
   style="stroke-width:0.639653">
				<path
   class="st6"
   d="m 205.6,350.1 4.5,44.3 c 0.2,2.1 0.8,4.1 1.6,6 l 18.4,40.9 18.4,-10.4 -15.9,-37 0.7,-32 c 0,0 1.8,-29.2 -7.6,-40.3 l -17.7,2.9 z"
   id="path70"
   style="stroke-width:0.639653" />
			</g>
		</g>
	</g><g
     id="g88"
     style="fill:#a05a2c;stroke-width:0.639653">
				<g
   id="g82"
   style="fill:#a05a2c;stroke-width:0.639653">
					<polygon
   class="st7"
   points="169.4,311.4 160.2,301.4 164.2,297.3 172.9,305.7 "
   id="polygon78"
   style="fill:#a05a2c;stroke-width:0.639653" />
					<path
   class="st7"
   d="m 164.2,297.3 v -10.6 c 0,-0.5 -0.4,-1 -0.9,-1.1 v 0 c -0.6,-0.1 -1.2,0.2 -1.3,0.8 l -0.8,2.9 -6.8,-7.4 c -0.6,-0.6 -1.6,-0.5 -2,0.3 l -2.3,4.2 c -0.2,0.3 -0.2,0.8 0,1.1 1.2,2.5 6.1,12.2 10.2,14 z"
   id="path80"
   style="fill:#a05a2c;stroke-width:0.639653" />
				</g>
				<path
   class="st8"
   d="M 156.1,294.9"
   id="path84"
   style="fill:#a05a2c" />
				<path
   class="st8"
   d="M 159,289.3"
   id="path86"
   style="fill:#a05a2c" />
			</g><g
     id="g96"
     style="stroke-width:0.639653">
				<path
   class="st9"
   d="m 203.4,279.8 c 0,0 2.3,5.2 -8.7,31.7 0,0 -6,11 -8.7,11.4 -4.3,0.6 -16.3,-5.9 -25.5,-19.1 l 6.9,-5.1 13.5,7.8 7.9,-20.5 c 0.1,-0.1 4.7,-13.7 14.6,-6.2 z"
   id="path90"
   style="stroke-width:0.639653" />
				<path
   class="st10"
   d="M 183.9,312.5"
   id="path92" />
				<path
   class="st11"
   d="M 181,306.4"
   id="path94" />
			</g><g
     id="g106"
     style="stroke-width:0.639653">
			<path
   class="st9"
   d="m 214.6,270.9 18.1,8 c 1.3,0.6 2,1.9 1.9,3.3 l -4.5,47.1 c 0,0 -18.2,5.4 -34.5,2.1 l -3.4,-48.5 c -0.2,-1.4 0.3,-2.8 1.4,-3.8 l 11.6,-8.1 z"
   id="path100"
   style="stroke-width:0.639653" />
			<path
   class="st11"
   d="M 194.6,311.5"
   id="path102" />
			<path
   class="st11"
   d="M 195.5,283.5"
   id="path104" />
		</g><g
     id="g112"
     style="fill:#a05a2c;stroke-width:0.639653">
				<polygon
   class="st7"
   points="213.9,322.7 213.8,316.9 225.9,316.7 227.5,323.2 "
   id="polygon108"
   style="fill:#a05a2c;stroke-width:0.639653" />
				<path
   class="st7"
   d="m 213.8,316.9 -7.6,-7.5 c -0.4,-0.4 -1,-0.4 -1.4,-0.1 v 0 c -0.5,0.3 -0.7,1 -0.4,1.5 l 1.5,2.6 -6.6,0.8 c -0.8,0 -1.5,0.8 -1.2,1.6 l 1.4,4.6 c 0.1,0.4 0.4,0.7 0.8,0.8 2.6,0.9 9.4,3.1 13.6,1.4 z"
   id="path110"
   style="fill:#a05a2c;stroke-width:0.639653" />
			</g><g
     id="g120"
     style="stroke-width:0.639653">
				<path
   class="st9"
   d="m 233.4,279.3 c 0,0 5.2,2.3 14.6,28.3 0,0 3.5,10 1.8,11.9 -2.8,3.1 -16.8,8 -32.4,4.3 l -0.2,-8.5 17.2,-2.6 -7.7,-19.8 c 0,0.1 -5.6,-12.7 6.7,-13.6 z"
   id="path114"
   style="stroke-width:0.639653" />
				<path
   class="st11"
   d="M 234.4,312.7"
   id="path116" />
				<path
   class="st11"
   d="M 229.5,325.6"
   id="path118" />
			</g><path
     class="st7"
     d="m 203,253.3 c 0.1,2.3 -1.6,4.2 -3.8,4.3 -2.2,0.1 -4.1,-1.7 -4.2,-4 -0.1,-2.3 1.6,-4.2 3.8,-4.3 2.2,-0.1 4.1,1.7 4.2,4 z"
     id="path126"
     style="fill:#a05a2c;stroke-width:0.639653" /><path
     class="st7"
     d="m 204.9,263.1 -0.3,7.5 c -0.1,3.5 1.9,5.4 5.2,5.4 v 0 c 2.8,0.1 6.9,-1.9 6.8,-4.9 v -12.5 z"
     id="path128"
     style="fill:#a05a2c;stroke-width:0.639653" /><path
     class="st12"
     d="m 204.7,269.6 c 0,0 9.8,-0.2 12.5,-9.2 0.9,-2.8 -12.3,1.6 -12.3,1.6 z"
     id="path130"
     style="fill:#a05a2c;stroke-width:0.639653" /><path
     class="st7"
     d="m 207.7,266 v 0 c -5.6,-0.1 -10.2,-4.9 -10.2,-9.6 v -10 c 0,-6 4.5,-10.9 10.3,-11.1 v 0 c 5.9,-0.3 11.9,4.4 12.2,10.5 l -0.1,7.8 c -0.1,7 -5.4,12.1 -12.2,12.4 z"
     id="path132"
     style="fill:#a05a2c;stroke-width:0.639653" /><g
     id="g138"
     style="fill:#a05a2c;stroke-width:0.639653">
			<path
   class="st13"
   d="M 207.5,258.1"
   id="path134"
   style="fill:#a05a2c" />
			<path
   class="st13"
   d="M 202.7,257.7"
   id="path136"
   style="fill:#a05a2c" />
		</g><path
     class="st3"
     d="m 200.6,230.1 c 2.2,-0.8 7.8,-1.6 8.7,3.3 5.5,-0.2 14.2,0.3 14.9,5.1 1,7 -4.3,13.7 -4.3,13.7 l -1.4,0.6 c 0,0 -3.5,-2 -2.1,-10.3 0,0 -12.8,2.5 -18.6,-1 -5.8,-3.4 -3.8,-8.9 2.8,-11.4 z"
     id="path140"
     style="fill:#1a1a1a;stroke-width:0.639653" /><g
     id="g144"
     style="fill:#a05a2c;stroke-width:0.639653">
			<path
   class="st7"
   d="m 225.1,253.6 c 0.1,2.3 -1.6,4.2 -3.8,4.3 -2.2,0.1 -4,-1.7 -4.1,-3.9 -0.1,-2.3 1.6,-4.2 3.8,-4.3 2.1,-0.2 4,1.6 4.1,3.9 z"
   id="path142"
   style="fill:#a05a2c;stroke-width:0.639653" />
		</g><path
     class="st7"
     d="m 205.1,270.9 -3,2.1 c 0,0 -1.8,5 6.7,5.6 8.5,0.6 11,-5.5 11,-5.5 l -6,-3.1 z"
     id="path146"
     style="fill:#a05a2c;stroke-width:0.639653" /><g
     id="g164"
     style="stroke-width:0.639653">
			<g
   id="g156"
   style="stroke-width:0.639653">
				<line
   class="st14"
   x1="262.89999"
   y1="353.79999"
   x2="262.89999"
   y2="463.10001"
   id="line152" />
				
					<rect
   x="221"
   y="350.79999"
   transform="rotate(180,262.862,353.772)"
   class="st9"
   width="83.800003"
   height="6"
   id="rect154"
   style="stroke-width:0.639653" />
			</g>
			<g
   id="g162"
   style="stroke-width:0.639653">
				<path
   class="st15"
   d="m 244.3,350.4 h 41.4 c 1.2,0 2.2,-1.1 2.2,-2.4 v 0 c 0,-1.3 -1,-2.4 -2.2,-2.4 h -41.4 c -1.2,0 -2.2,1.1 -2.2,2.4 v 0 c 0,1.3 1,2.4 2.2,2.4 z"
   id="path158"
   style="stroke-width:0.639653" />
				<path
   class="st15"
   d="m 244,348.7 c 0.1,0 0.2,0 0.3,-0.1 0.3,-0.2 0.4,-0.6 0.2,-1 l -21,-36.4 c -0.2,-0.3 -0.6,-0.4 -0.9,-0.2 -0.3,0.2 -0.4,0.6 -0.2,1 l 21,36.4 c 0.1,0.2 0.3,0.3 0.6,0.3 z"
   id="path160"
   style="stroke-width:0.639653" />
			</g>
		</g><path
     class="st16"
     d="m 331.7,369.4 -43.6,1.2 c -7.4,0.3 -12.9,7.5 -11.9,15.5 v 0 c 0.9,6.6 6.2,11.6 12.3,11.6 h 51.9 c 0,0 18.7,-7.2 12.8,-24.7 z"
     id="path166"
     style="stroke-width:0.639653" /><g
     id="g176"
     style="stroke-width:0.639653">
								<g
   id="g172"
   style="stroke-width:0.639653">
									<path
   d="m 286.3,455.6 -7.3,3.9 c -0.8,0.4 -1.2,1.4 -1,2.3 0.2,0.7 0.8,1.3 2.4,1.3 3.6,0.1 19.6,-2.5 19.6,-2.5 v 1.8 l 7.4,-0.9 c 0,0 0.5,-9.2 -1.7,-10.5 z"
   id="path168"
   style="stroke-width:0.639653" />
									<path
   class="st17"
   d="m 298,446.4 -11.8,9.2 c 0,0 1.3,3.5 6.8,1.2 5.6,-2.3 12.5,-5.9 12.5,-5.9 l -1,-5.5 z"
   id="path170"
   style="stroke-width:0.639653" />
								</g>
								<polygon
   class="st17"
   points="296.7,449.7 305.7,450.9 298.6,416.3 286.8,417.5 "
   id="polygon174"
   style="stroke-width:0.639653" />
							</g><polygon
     class="st16"
     points="286.1,442.9 308.6,442.9 299.9,387 276.2,386.1 "
     id="polygon178"
     transform="translate(8.8,12.7)"
     style="fill:#d38d5f;stroke-width:0.639653" /><path
     class="st16"
     d="m 329.6,369.4 -32.9,1.2 c -7.4,0.3 -12.9,7.5 -11.9,15.5 v 0 c 0.9,6.6 6.2,11.6 12.3,11.6 H 349 c 0,0 18.7,-7.2 12.8,-24.7 z"
     id="path184"
     style="stroke-width:0.639653" /><g
     id="g190"
     style="stroke-width:0.639653">
									<path
   d="m 294.9,455.6 -7.3,3.9 c -0.8,0.4 -1.2,1.4 -1,2.3 0.2,0.7 0.8,1.3 2.4,1.3 3.6,0.1 19.6,-2.5 19.6,-2.5 v 1.8 l 7.4,-0.9 c 0,0 0.5,-9.2 -1.7,-10.5 z"
   id="path186"
   style="stroke-width:0.639653" />
									<path
   class="st7"
   d="m 306.7,446.4 -11.8,9.2 c 0,0 1.3,3.5 6.8,1.2 5.6,-2.3 12.5,-5.9 12.5,-5.9 l -1,-5.5 z"
   id="path188"
   style="stroke-width:0.639653" />
								</g><polygon
     class="st7"
     points="295.4,417.5 305.4,449.7 314.3,450.9 307.2,416.3 "
     id="polygon192"
     style="fill:#d38d5f;stroke-width:0.639653" /><polygon
     class="st16"
     points="284.9,386.1 294.7,442.9 317.2,442.9 308.5,387 "
     id="polygon196"
     style="stroke-width:0.639653" /><g
     id="g218"
     style="stroke-width:0.639653">
					<g
   id="g210"
   style="stroke-width:0.639653">
						
							<rect
   x="343.10001"
   y="403.39999"
   transform="rotate(180,346.59675,424.35565)"
   class="st18"
   width="7"
   height="42"
   id="rect204"
   style="stroke-width:0.639653" />
						<polygon
   class="st18"
   points="348.3,440 368.5,449.9 368.2,452.7 347.1,445.4 "
   id="polygon206"
   style="stroke-width:0.639653" />
						<polygon
   class="st18"
   points="344.9,440 324.7,449.9 325,452.7 346,445.4 "
   id="polygon208"
   style="stroke-width:0.639653" />
					</g>
					<ellipse
   class="st19"
   cx="367.60001"
   cy="457.70001"
   rx="4.8000002"
   ry="5.1999998"
   id="ellipse212"
   style="stroke-width:0.639653" />
					<ellipse
   class="st19"
   cx="324.70001"
   cy="457.70001"
   rx="4.8000002"
   ry="5.1999998"
   id="ellipse214"
   style="stroke-width:0.639653" />
					<path
   class="st9"
   d="m 326.8,406.3 h 40.7 c 2.3,0 4.1,-2 4.1,-4.4 v 0 c 0,-2.4 -1.8,-4.4 -4.1,-4.4 h -40.7 c -2.3,0 -4.1,2 -4.1,4.4 v 0 c 0,2.4 1.8,4.4 4.1,4.4 z"
   id="path216"
   style="stroke-width:0.639653" />
				</g><path
     class="st20"
     d="m 332,318.5 -17.3,25.3 c -2.6,3.8 -2.2,9 0.9,12.3 v 0 c 3.7,3.9 9.8,3.4 12.9,-1.2 L 344,332.2 Z"
     id="path222"
     style="stroke-width:0.639653" /><path
     class="st7"
     d="m 299.8,331.4 c 0,0 -3.1,-6.3 -8.4,-7.8 -4.1,-1.1 -7.5,5.6 -8.8,8.6 -0.3,0.7 0,1.6 0.7,1.8 v 0 c 0.4,0.1 0.8,-0.1 1.1,-0.4 l 1.4,-2.1 c 0,0 -0.3,4.5 3.3,4.1 3.6,-0.4 4.7,-1.9 4.7,-1.9 l 4,3 z"
     id="path224"
     style="fill:#d38d5f;stroke-width:0.639653" /><polygon
     class="st5"
     points="292.7,336.7 318.7,358.4 324.6,344.2 299.4,325.8 "
     id="polygon226"
     style="stroke-width:0.639653" /><path
     class="st5"
     d="m 331.3,313 c 0,0 11.3,4.8 19.4,21.8 8.1,17 11.2,38.1 11.2,38.1 0,0 -15,4.5 -32.3,-3.6 l -6.1,-21.2 c 0,0 -5.4,-6.8 0,-28.1 z"
     id="path232"
     style="stroke-width:0.639653" /><path
     class="st7"
     d="m 293.9,338.2 c 0,0 -4.3,-5.3 -9.7,-5.3 -4.2,0 -6.1,7.4 -6.8,10.7 -0.2,0.8 0.4,1.5 1.1,1.5 v 0 c 0.4,0 0.8,-0.3 1,-0.7 l 1,-2.4 c 0,0 0.6,4.5 4,3.1 3.4,-1.4 4.2,-3.1 4.2,-3.1 l 4.5,1.8 z"
     id="path234"
     style="fill:#d38d5f;stroke-width:0.639653" /><polygon
     class="st5"
     points="287.1,346.6 317,361.1 319.7,345.8 291.2,334.2 "
     id="polygon236"
     style="stroke-width:0.639653" /><g
     id="g242"
     style="stroke-width:0.639653">
						<path
   class="st5"
   d="m 329.8,321.3 -17.3,25.3 c -2.6,3.8 -2.2,9 0.9,12.3 v 0 c 3.7,3.9 9.8,3.4 12.9,-1.2 L 341.8,335 Z"
   id="path240"
   style="stroke-width:0.639653" />
					</g><path
     d="m 316.6,301.4 -7.6,0.3 c -4.1,4.6 -2.5,13.5 -2.5,13.5 l 12.4,-3.9 z"
     id="path248"
     style="fill:#d38d5f;stroke-width:0.639653" /><polygon
     class="st7"
     points="331.3,313 319.9,295.2 315.7,307.9 323.5,320.1 "
     id="polygon250"
     style="fill:#d38d5f;stroke-width:0.639653" /><polygon
     class="st21"
     points="319.9,314.4 319.8,306.1 316.5,309.2 "
     id="polygon252"
     style="fill:#d38d5f;stroke-width:0.639653" /><path
     class="st7"
     d="m 305.7,283.1 c 0,0 -5.2,2.7 -3.5,10.2 0,0 1.3,5.4 3.2,13.2 1,4.1 5.3,6.3 8.7,4.3 2.1,-1.2 4.3,-3 6.1,-5.6 l 2.3,-4.2 c 5,-11.2 -5.5,-23.3 -16,-18.3 -0.3,0.2 -0.5,0.3 -0.8,0.4 z"
     id="path254"
     style="fill:#d38d5f;stroke-width:0.639653" /><path
     class="st7"
     d="m 304.9,300.8 -1.8,3.3 c -0.2,0.5 0.1,1 0.6,0.9 l 2.5,-0.5 z"
     id="path256"
     style="fill:#d38d5f;stroke-width:0.639653" /><g
     id="g264"
     style="fill:#d38d5f;stroke-width:0.639653">
					<g
   id="g262"
   style="fill:#d38d5f;stroke-width:0.639653">
						<path
   class="st22"
   d="M 307.8,305.2"
   id="path258"
   style="fill:#d38d5f" />
						<path
   class="st22"
   d="M 305.9,306.6"
   id="path260"
   style="fill:#d38d5f" />
					</g>
				</g><path
     d="m 316.5,294.1 c 0,0 -1.6,-18.9 -13.9,-7.2 0,0 2.9,-11.5 17.1,-9.6 3,0.4 6.6,3 7.9,6 2.1,4.7 0.7,9.7 -1.3,18.8 l -6.4,-4.5 c -0.6,-1.1 -3.4,-3.5 -3.4,-3.5 z"
     id="path266"
     style="stroke-width:0.639653" /><path
     d="m 319.7,287.4 -0.9,8.3 c -20,-0.5 -14.1,-12.4 -14.1,-12.4 0,0 13.5,-9.4 15,4.1 z"
     id="path268"
     style="stroke-width:0.639653" /><polygon
     points="311.4,293.8 315.1,297.2 317,291.3 "
     id="polygon270"
     style="fill:#d38d5f;stroke-width:0.639653" /><path
     d="m 307.6,283.5 c 0,0 -6,3.1 -5.6,8.1 0,0 -6.4,-4 3.2,-9.5 5.7,-3.2 2.4,1.4 2.4,1.4 z"
     id="path272"
     style="stroke-width:0.639653" /><path
     d="m 318.7,298 c 0,0 3.6,8.6 3.6,12.1 l 15.1,-5.7 c 0,0 -4.4,-5 -5.8,-9.4 -1.1,-3.5 -1.6,-12.2 -8.2,-16.1 l 0.3,11.5 z"
     id="path274"
     style="stroke-width:0.639653" /><g
     id="g282"
     style="fill:#d38d5f;stroke-width:0.639653">
					<path
   class="st7"
   d="m 322.2,295 c 0.7,2.1 -0.2,4.5 -2.2,5.3 -1.9,0.8 -4.1,-0.3 -4.9,-2.4 -0.7,-2.1 0.2,-4.5 2.2,-5.3 2,-0.8 4.2,0.3 4.9,2.4 z"
   id="path276"
   style="fill:#d38d5f;stroke-width:0.639653" />
					<path
   class="st22"
   d="M 319,294.5"
   id="path278"
   style="fill:#d38d5f" />
					<path
   class="st22"
   d="M 317.4,297.8"
   id="path280"
   style="fill:#d38d5f" />
				</g><path
     class="st7"
     d="m 331.3,313 c 0,0 -2.4,7.6 -8.6,10.5 l 1.8,-8.5 z"
     id="path284"
     style="fill:#d38d5f;stroke-width:0.639653" /><g
     id="g302"
     style="stroke-width:0.639653">
		<path
   class="st23"
   d="m 345.2,275.1 6.6,3.8 -0.5,3.9 5.2,4.7 -6.9,7.9 -16,-10.9 c 0,0 4.3,-13.6 5.3,-13.3 1,0.5 6.3,3.9 6.3,3.9 z"
   id="path292"
   style="stroke-width:0.639653" />
		<polygon
   class="st24"
   points="352.4,271.3 335.7,271.3 338.5,291.5 349.7,291.8 "
   id="polygon294"
   style="stroke-width:0.639653" />
		<polyline
   class="st5"
   points="333.3,271.6 354.4,271.6 354.4,269.6 352.4,269.6 352.4,266.5 335.3,268.8 335.2,269.9 333.3,269.9     333.3,271.8   "
   id="polyline296"
   style="stroke-width:0.639653" />
		<path
   class="st7"
   d="m 334.8,285 c -3.9,0.3 1,-9.3 1,-9.3 0,0 10.5,-0.6 10.6,-0.1 0.1,0.5 0.1,1.4 -0.8,1.6 -0.8,0.2 -7.4,1 -7.4,1 0,0 6.8,0.3 6.7,1 -0.2,1 -1,1.1 -3,1.4 -1.7,0.2 -5.5,0.3 -5.5,0.3 0,0 7.2,0.1 7.1,0.6 -0.2,0.4 0.3,1.8 -2.2,1.4 -5.7,-0.8 -6.5,2.1 -6.5,2.1 z"
   id="path298"
   style="stroke-width:0.639653" />
		<path
   class="st23"
   d="m 351.7,276.7 c 0,0 2.5,-4.6 5.6,-4.4 0,0 -3.7,4.1 -4.2,6.9 -0.5,2.8 -0.7,4.7 -0.7,4.7 h -1.6 z"
   id="path300"
   style="stroke-width:0.639653" />
	</g><path
     class="st3"
     d="m 382.1,323.9 c 0,0 -10.7,68.3 -5.7,82.8 5,14.5 6.9,27.6 6.9,27.6 l 24.8,-6.6 c 0,0 -8.2,-34.2 -9.4,-40.7 -1.2,-6.6 11.5,-59.9 11.5,-59.9 z"
     id="path304"
     style="stroke-width:0.639653" /><path
     class="st3"
     d="m 393.8,328.8 11.7,109.8 h 23.7 c 0,0 -7.7,-116.2 -6.3,-117.2 1.4,-0.9 -29.1,7.4 -29.1,7.4 z"
     id="path306"
     style="stroke-width:0.639653" /><path
     class="st6"
     d="m 384.4,261.9 c 0,0 -2.5,36.8 -8,35.5 -5.5,-1.3 -20.1,-10.9 -20.1,-10.9 l -8.9,8.8 c 0,0 27.1,27.3 38.2,16.1 11.3,-11.1 -1.2,-49.5 -1.2,-49.5 z"
     id="path308"
     style="stroke-width:0.639653" /><path
     class="st6"
     d="m 391.8,456.9 -1.6,-7.4 17.3,-6.3 2.7,11 -1,0.1 c -3.9,1.6 -22.7,9.5 -25.7,9.8 -3.3,0.3 8.3,-7.2 8.3,-7.2 z"
     id="path310"
     style="stroke-width:0.639653" /><g
     id="g314"
     style="fill:#c87137;stroke-width:0.639653">
		<path
   class="st7"
   d="m 432.9,348.9 -1.9,2.5 c 0,0 -0.9,1.7 -3.1,4.2 -0.6,0.7 -1.3,1.2 -2.1,1.7 -1,0.5 -2.3,1.2 -3.1,1.4 -1,0.2 -1.3,1.4 -0.4,1.8 0.9,0.4 3.8,-0.2 6.5,-2 2.7,-1.9 1.5,2.9 1,4.6 -0.4,1.7 -1.5,7.1 -1,7.7 0.7,0.8 1.8,0.3 2.2,-1.5 0.4,-1.8 1.9,-6.9 2.9,-6.6 1,0.2 -1.3,9 -1.3,9 0,0 -0.8,1.8 0.3,2.1 2.1,0.6 3.8,-8.9 3.9,-9.8 0.1,-0.6 1.2,-0.4 1,0.3 -0.1,0.7 -2.5,8.7 -0.4,9.3 1.6,0.5 1.5,-7.8 3,-9.2 1.5,-1.4 -0.6,6.3 0.9,6.7 0.6,0.1 1,0.2 1.6,-4.4 0.5,-4.7 -0.3,-17.6 -0.3,-17.6 l -9.9,0.1"
   id="path312"
   style="fill:#c87137;stroke-width:0.639653" />
	</g><g
     id="g320"
     style="fill:#d38d5f;stroke-width:0.639653">
				<path
   class="st23"
   d="m 398.5,249.5 c 0.2,-1.5 -0.6,-7.6 -0.6,-7.6 0,0 -6.2,-0.4 -6.8,-6 -0.6,-5.6 -0.7,-18.4 -0.7,-18.4 l 11.1,-5.3 12.7,8.2 2.9,6.1 -3.8,14.5 v 7.3 z"
   id="path316"
   style="fill:#d38d5f;stroke-width:0.639653" />
				<path
   class="st25"
   d="m 397.9,241.9 c 0,0 4.1,-0.1 8.1,-2.7 0,0 -1.7,4.1 -7.9,4.1 z"
   id="path318"
   style="fill:#d38d5f;stroke-width:0.639653" />
			</g><path
     class="st6"
     d="m 416.9,232.6 c -1.7,3.4 -2.7,8.3 -2.7,8.3 -0.9,1.5 -1.2,-3.3 -1.2,-3.3 0,0 -0.8,-4.7 -0.1,-6.5 0,0 3.1,0.9 3.8,-4.2 0.3,-2.5 -3.8,-3.7 -5,-0.7 l -2.6,0.2 c 0,0 -0.2,-9.5 -6.2,-7.8 0,0 -4.4,2.4 -7,0.9 -2.6,-1.5 -2.4,-2 -2.4,-2 0,0 -1.3,2.5 -4.6,0.9 -3.4,-1.6 -3.8,-4.6 -2.6,-6 0.7,-0.8 1.3,-1.7 2.4,-1.9 1.1,-0.2 2.3,0.2 3,1 -0.8,-1.1 -0.2,-2.7 1,-3.5 1.2,-0.7 2.9,-0.7 4.2,-0.2 1.3,0.5 2.5,1.3 3.6,2.2 0.8,-2 3.1,-3.4 5.5,-3.2 2.3,0.2 4.4,1.9 4.8,4 1.3,-1.4 3.7,-1.7 5.5,-1 1.8,0.7 3,2.5 3.4,4.3 0.3,1.8 -0.1,3.7 -0.8,5.4 1.4,-0.7 3.4,-0.2 4.3,1 0.9,1.2 1,2.9 0.3,4.2 -0.7,1.3 -2,2.3 -3.4,3 1.1,0.8 1.4,2.3 0.7,3.4 -0.7,1.1 -2.2,1.7 -3.5,1.3"
     id="path322"
     style="fill:#241c1c;stroke-width:0.639653" /><g
     id="g328"
     style="stroke-width:0.639653">
			<path
   class="st25"
   d="m 412.5,229.2 c 0,0 0.1,0.1 0.2,0.1 0.1,0.1 0.4,0.1 0.7,0.1 0.6,-0.2 1.1,-0.9 1.2,-1.8 0,-0.4 0,-0.8 -0.2,-1.2 -0.1,-0.4 -0.4,-0.6 -0.6,-0.7 -0.3,-0.1 -0.5,0.1 -0.6,0.2 -0.1,0.1 -0.1,0.2 -0.1,0.2 0,0 -0.1,-0.1 -0.1,-0.3 0,-0.1 0.1,-0.2 0.2,-0.3 0.1,-0.1 0.3,-0.1 0.5,-0.1 0.4,0 0.7,0.4 0.9,0.8 0.2,0.4 0.3,0.9 0.2,1.3 -0.1,1 -0.7,1.8 -1.5,2 -0.4,0.1 -0.7,-0.1 -0.8,-0.2 0,0 0,-0.1 0,-0.1 z"
   id="path326"
   style="stroke-width:0.639653" />
		</g><path
     class="st24"
     d="m 438.2,264.1 c 0,0 -4.2,-17.7 -24.8,-15.9 -18.8,1.7 -18.8,1.7 -18.8,1.7 0,0 -12.9,4.9 -11.1,18.9 1.8,13.9 2.7,26.7 2.2,29.1 -0.5,2.5 -5,24.4 -3.6,25.9 13.6,14.9 48.2,-8.9 48.2,-8.9 z"
     id="path332"
     style="stroke-width:0.639653" /><path
     class="st6"
     d="m 413.4,248.3 4.8,103.7 14.3,-7 -1.5,-92 c -0.1,0 -3.9,-6 -17.6,-4.7 z"
     id="path334"
     style="stroke-width:0.639653" /><path
     class="st6"
     d="m 443.1,350.8 -4.9,-86.6 c -1.5,-5.3 -4.8,-9.4 -9,-12.8 V 352 Z"
     id="path336"
     style="stroke-width:0.639653" /><path
     class="st6"
     d="m 398.5,249.5 c 0,0 -12.8,5.8 -12.2,25.2 0.6,19.5 -7.7,74.5 -7.7,74.5 l -10.7,-2 c 0,0 12.4,-52.1 12.9,-61.3 0.5,-9.3 -0.4,-22.5 6.6,-31.6 4.9,-6.4 11.1,-4.8 11.1,-4.8 z"
     id="path338"
     style="stroke-width:0.639653" /><path
     class="st26"
     d="m 413.4,248.3 c 0,0 4.2,8.5 3.8,11.7 -0.4,3.1 -1.9,9.7 -1.9,9.7 0,0 3.1,1.7 2.9,3.2 -0.2,1.5 -3.2,16.5 -3.2,16.5 z"
     id="path340"
     style="stroke-width:0.639653" /><g
     id="g348"
     style="stroke-width:0.639653">
		<g
   id="g346"
   style="stroke-width:0.639653">
			<g
   id="g344"
   style="stroke-width:0.639653">
				<path
   class="st26"
   d="m 426.9,269.4 c 0.1,0 0.2,1.1 0.4,3.2 0.2,2.1 0.4,5.1 0.5,8.8 0.3,7.5 0.6,17.8 0.8,29.2 0.2,11.4 0.3,21.7 0.5,29.2 0.1,3.7 0.1,6.7 0.2,8.8 0.1,2.1 0,3.2 0,3.2 -0.1,0 -0.2,-1.1 -0.4,-3.2 -0.2,-2.1 -0.4,-5.1 -0.5,-8.8 -0.3,-7.5 -0.6,-17.8 -0.8,-29.2 -0.2,-11.4 -0.3,-21.7 -0.5,-29.2 -0.1,-3.7 -0.1,-6.7 -0.2,-8.8 -0.1,-2 -0.1,-3.2 0,-3.2 z"
   id="path342"
   style="stroke-width:0.639653" />
			</g>
		</g>
	</g><path
     class="st23"
     d="m 391.6,449 c 0.2,-0.1 -4.3,-15.7 -4.3,-15.7 l 15.2,-4 3.2,14.7 z"
     id="path350"
     style="fill:#d38d5f;stroke-width:0.639653" /><rect
     x="409.29999"
     y="438.60001"
     class="st23"
     width="17.299999"
     height="12.3"
     id="rect352"
     style="fill:#d38d5f;stroke-width:0.639653" /><path
     class="st6"
     d="m 407.7,457.5 1.6,-7.4 h 18.6 l -2,10.9 h -1 c -4.3,0.2 -25,1.2 -27.9,0.4 -3.1,-0.8 10.7,-3.9 10.7,-3.9 z"
     id="path354"
     style="stroke-width:0.639653" /><g
     id="g2039"
     transform="translate(-30.2,-5.7)"
     style="stroke-width:0.639653"><g
       id="g366"
       style="stroke-width:0.639653">
		<path
   class="st25"
   d="m 436.9,286 -2,-2.2 c 0,0 -1.4,-1.1 -3.4,-3.6 -0.5,-0.6 -0.9,-1.4 -1.2,-2.2 -0.3,-0.9 -0.7,-2.2 -0.7,-3 0,-0.9 -1.1,-1.4 -1.7,-0.7 -0.5,0.7 -0.7,3.2 0.5,6 1.2,2.8 -3.1,0.6 -4.7,-0.2 -1.6,-0.8 -6.6,-2.9 -7.3,-2.7 -0.9,0.4 -0.6,1.5 1,2.2 1.6,0.7 6.3,3.3 5.8,4.1 -0.5,0.8 -8.5,-3.3 -8.5,-3.3 0,0 -1.6,-1.1 -2.1,-0.2 -1,1.6 7.9,5.3 8.7,5.7 0.6,0.2 0.1,1.1 -0.5,0.8 -0.6,-0.3 -7.9,-4.2 -9,-2.6 -0.8,1.3 7.3,3.1 8.3,4.7 1,1.6 -6,-2 -6.7,-0.8 -0.3,0.5 -0.4,0.8 3.9,2.4 4.5,1.6 17.2,3.9 17.2,3.9 l 2.1,-8.5"
   id="path362"
   style="stroke-width:0.639653" />
		<path
   class="st7"
   d="m 473,266 c 0,0 -7.3,20.4 -9.5,20.6 -15.3,1.4 -32,-5.1 -32,-5.1 l -4.2,11.5 c 0,0 43.5,18.8 52.8,0.7 9.9,-19.3 9.4,-22.3 9.4,-22.3 z"
   id="path364"
   style="stroke-width:0.639653" />
	</g><g
       id="g1974"
       style="stroke-width:0.639653"><g
         id="g395"
         style="stroke-width:0.639653">
		
			<linearGradient
   id="SVGID_1_"
   gradientUnits="userSpaceOnUse"
   x1="826.24512"
   y1="526.82672"
   x2="779.17273"
   y2="511.0575"
   gradientTransform="matrix(-0.9978,0.0667,0.0667,0.9978,1212.3431,-295.0086)">
			<stop
   offset="0"
   style="stop-color:#FFFFFF"
   id="stop384" />
			<stop
   offset="0.2316"
   style="stop-color:#FFFFFF;stop-opacity:0.7684"
   id="stop386" />
			<stop
   offset="1"
   style="stop-color:#FFFFFF;stop-opacity:0"
   id="stop388" />
		</linearGradient>
		<polygon
   class="st27"
   points="449.7,297.6 490.8,285.5 458.3,243.7 397.3,270.4 421.9,293.2 "
   id="polygon391"
   style="fill:url(#SVGID_1_);stroke-width:0.639653" />
		<polygon
   class="st28"
   points="473.7,289.7 451.4,298.8 415,299.6 397.3,270.4 434.8,268 451,296.2 473.6,287.7 "
   id="polygon393"
   style="stroke-width:0.639653" />
	</g><path
         class="st32"
         d="m 419.9,284.4 c 0.5,1.3 1.7,2.1 2.7,1.8 1,-0.3 1.4,-1.7 0.9,-3 -0.5,-1.3 -1.7,-2.1 -2.7,-1.8 -1,0.4 -1.4,1.7 -0.9,3 z"
         id="path451"
         style="stroke-width:0.639653" /><g
         id="g1913"
         style="stroke-width:0.639653"><g
           id="g360"
           style="stroke-width:0.639653">
		<path
   class="st6"
   d="m 514.4,230.1 c 1.3,4.2 2.6,8.5 3.9,12.7 0.2,0.6 0.4,1.2 0.3,1.8 0,1.8 -1.8,3.2 -3.6,3.5 -1.8,0.3 -3.7,-0.1 -5.5,-0.6 -0.5,1.8 -2.7,2.6 -4.6,2.9 -8.5,1.6 -17.5,0.5 -25.3,-3.1 3.4,-4.7 6.1,-9.8 8.2,-15.1 6.7,0.3 13.3,0.6 20,0.9 1.2,0.1 2.4,0.1 3.5,-0.3 1.1,-0.4 2.1,-1.3 2.2,-2.5"
   id="path358"
   style="stroke-width:0.639653" />
	</g><path
           class="st5"
           d="m 474,381.3 c 7.8,34.6 59,66.9 59,66.9 l 8.7,-10.4 c 0,0 -41.2,-35.6 -42.9,-51.4 -1.8,-15.8 11.9,-40.6 11.9,-40.6 L 496.5,340 Z"
           id="path368"
           style="stroke-width:0.639653" /><path
           class="st23"
           d="m 491.3,255 c 0.3,-1.4 -0.3,-7.4 -0.3,-7.4 0,0 -5.6,-0.6 -6,-6 -0.4,-5.4 0,-17.9 0,-17.9 l 10.3,-4.9 11.3,8.3 -1.7,27.1 z"
           id="path370"
           style="fill:#d38d5f;stroke-width:0.639653" /><path
           class="st6"
           d="m 505.7,231.3 c 0,0 -9.2,-0.8 -10.8,-8.9 l -10,8.9 c 0,0 -3,-6 2.5,-11.6 5.5,-5.6 9.3,-4.4 11.5,-4.4 2,0 12.3,2.1 15.3,13.4 0.2,0.8 0.4,2.8 0.5,3.8 z"
           id="path372"
           style="fill:#241c1c;stroke-width:0.639653" /><path
           class="st25"
           d="m 491,247.6 c 0,0 3.8,0 7.4,-2.4 0,0 -1.7,4 -7.3,3.8 z"
           id="path374"
           style="stroke-width:0.639653" /><path
           class="st9"
           d="m 479.4,316.1 c 0,1.9 0.7,4.6 0.7,4.6 l 39.6,11.1 c 0,0 2.8,-17.4 -4.4,-27 -3.3,-4.4 -2.6,-10.7 -1.2,-16 l 4.7,-18.2 -6.2,-17.1 -25,1.6 c 0,0 -14.5,-1.4 -19.5,17.1 l 9.3,13.5 0.1,5.1 z"
           id="path376"
           style="stroke-width:0.639653" /><path
           class="st5"
           d="m 518.1,309.3 c 0.4,0 7.6,15.6 1.1,24.9 -0.6,0.9 -2.1,3 -4.1,6 -9.6,14.3 -31.5,47.9 -32.3,52.8 -0.9,5.9 -18.6,68.6 -18.6,68.6 l -13.2,-2 10.8,-71 17.6,-72.4 z"
           id="path378"
           style="stroke-width:0.639653" /><path
           class="st6"
           d="m 495.2,221.7 c 0,0 -2,3.8 -1.2,6.7 l -9,2.2 c 0,0.1 -2,-10.9 10.2,-8.9 z"
           id="path380"
           style="stroke-width:0.639653" /><path
           class="st6"
           d="m 514.8,231.7 c 0,0 1.1,12.5 -9.8,14.7 l 0.7,-15 z"
           id="path382"
           style="fill:#241c1c;stroke-width:0.639653" /><path
           class="st29"
           d="M 512.6,253.4"
           id="path397"
           style="stroke-width:0.639653" /><polygon
           class="st9"
           points="463.5,283.1 477.5,289.9 478.8,276.9 469.7,268.3 "
           id="polygon399"
           style="stroke-width:0.639653" /><polygon
           class="st30"
           points="506,250.9 495.9,253.4 497.1,256.3 508.4,253.6 "
           id="polygon401"
           style="stroke-width:0.639653" /><polyline
           class="st23"
           points="497.1,256.3 493.1,263.9 493,256.3 493.4,254 496.1,254 497.1,256.3  "
           id="polyline403"
           style="stroke-width:0.639653" /><polygon
           class="st30"
           points="493.5,253.4 491,252.4 488.1,255 493,256.3 "
           id="polygon405"
           style="stroke-width:0.639653" /><g
           id="g409"
           style="stroke-width:0.639653">
		<path
   class="st31"
   d="M 475.1,284.2"
   id="path407" />
	</g><g
           id="g413"
           style="stroke-width:0.639653">
		<path
   class="st30"
   d="m 477.4,290.1 c 0,0 0.2,-0.3 0.2,-1 0,-0.7 -0.4,-1.6 -1.2,-2.5 -0.7,-0.9 -1.9,-1.8 -2.1,-3.2 -0.1,-0.7 -0.1,-1.4 0.2,-2.2 0.3,-0.7 0.8,-1.4 1.4,-1.8 0.6,-0.4 1.4,-0.7 2.1,-0.7 h 0.2 v -0.2 c 0.4,-2.8 0.9,-5.4 1.1,-7.2 0.2,-1.8 0,-2.9 -0.1,-2.9 -0.1,0 -0.1,1.1 -0.3,2.9 -0.2,1.8 -0.8,4.3 -1.3,7.2 l 0.3,-0.3 c -0.8,0 -1.7,0.3 -2.4,0.8 -0.8,0.5 -1.4,1.3 -1.7,2.1 -0.3,0.8 -0.3,1.7 -0.1,2.5 0.2,0.8 0.6,1.5 1,2 0.5,0.5 0.9,1 1.3,1.4 0.8,0.8 1.2,1.6 1.3,2.2 0.2,0.5 0,0.9 0.1,0.9 z"
   id="path411"
   style="stroke-width:0.639653" />
	</g><g
           id="g417"
           style="stroke-width:0.639653">
		<path
   class="st30"
   d="m 477.4,270.5 c -0.1,0.1 0.2,0.8 0.6,1.6 0.4,0.8 0.6,1.6 0.8,1.6 0.2,0 0.2,-0.9 -0.2,-1.8 -0.4,-0.9 -1.1,-1.5 -1.2,-1.4 z"
   id="path415"
   style="stroke-width:0.639653" />
	</g><g
           id="g421"
           style="stroke-width:0.639653">
		<path
   class="st30"
   d="m 463,283.1 c -0.1,0.1 3.1,1.9 7.2,3.7 4.1,1.8 7.5,3 7.5,2.9 0.1,-0.2 -3.2,-1.6 -7.3,-3.4 -4,-1.8 -7.3,-3.3 -7.4,-3.2 z"
   id="path419"
   style="stroke-width:0.639653" />
	</g><g
           id="g425"
           style="stroke-width:0.639653">
		<path
   class="st30"
   d="m 463.8,281 c -0.1,0.1 2.8,1.8 6.4,3.6 3.6,1.9 6.6,3.2 6.7,3.1 0.1,-0.1 -2.8,-1.8 -6.4,-3.6 -3.6,-1.9 -6.6,-3.2 -6.7,-3.1 z"
   id="path423"
   style="stroke-width:0.639653" />
	</g><g
           id="g429"
           style="stroke-width:0.639653">
		<path
   class="st30"
   d="m 482.6,271 c 0,0.2 0.8,0.3 1.9,0.4 1.1,0.1 1.9,0 1.9,-0.2 0,-0.2 -0.8,-0.3 -1.9,-0.4 -1,0 -1.9,0 -1.9,0.2 z"
   id="path427"
   style="stroke-width:0.639653" />
	</g><g
           id="g433"
           style="stroke-width:0.639653">
		<path
   class="st30"
   d="m 482.3,271.7 c 0,0.2 0.9,0.5 2.2,0.8 1.2,0.3 2.3,0.4 2.3,0.3 0,-0.2 -0.9,-0.5 -2.2,-0.8 -1.3,-0.4 -2.3,-0.5 -2.3,-0.3 z"
   id="path431"
   style="stroke-width:0.639653" />
	</g><g
           id="g439"
           style="stroke-width:0.639653">
		<path
   class="st6"
   d="m 449.8,459.5 c 0,0 -11.6,3 -8.7,3.9 2.9,0.8 23,-1.3 23,-1.3 l 0.7,-2.2 z"
   id="path435"
   style="stroke-width:0.639653" />
		<polygon
   class="st6"
   points="464.1,462.1 468.1,451.3 450.4,451.3 449.8,459.5 "
   id="polygon437"
   style="stroke-width:0.639653" />
	</g><g
           id="g445"
           style="stroke-width:0.639653">
		<path
   class="st6"
   d="m 533.1,448.9 c 0,0 -2.9,11.3 -0.8,9.2 2.2,-2 10.1,-20.1 10.1,-20.1 l -1.7,-1.6 z"
   id="path441"
   style="stroke-width:0.639653" />
		<polygon
   class="st6"
   points="542.4,438 534.7,429.4 526.1,444.4 533.1,448.9 "
   id="polygon443"
   style="stroke-width:0.639653" />
	</g><g
           id="g449"
           style="fill:#241c1c;stroke-width:0.639653">
		<path
   class="st6"
   d="m 494.4,218.2 c 0,-0.1 -1.1,-0.1 -2.8,0.3 -1.7,0.4 -3.9,1.5 -5.7,3.4 -1.8,1.9 -2.7,4.1 -3.1,5.8 -0.3,1.6 -0.2,2.7 -0.1,2.7 0.1,0 0.1,-1 0.6,-2.6 0.4,-1.6 1.4,-3.7 3.1,-5.5 1.7,-1.8 3.8,-2.9 5.4,-3.4 1.5,-0.5 2.6,-0.6 2.6,-0.7 z"
   id="path447"
   style="fill:#241c1c;stroke-width:0.639653" />
	</g><path
           class="st6"
           d="m 500.9,316.8 c 0,0 -0.5,-50 1.3,-53.8 0,0 1.9,-9.4 9.3,-9.6 l -3.3,0.2 c 0,0 -6.7,-0.5 -8.7,12.4 -1.9,12.8 -1.8,51.2 -1.8,51.2 z"
           id="path453"
           style="stroke-width:0.639653" /><path
           class="st6"
           d="m 486.5,318.6 c 0,0 -2,-57.5 -0.4,-63.5 h -2 c 0,0 -1.8,4.9 -1.4,18.7 0.2,8.3 0,44.8 0,44.8 z"
           id="path455"
           style="stroke-width:0.639653" /><path
           class="st23"
           d="m 462.8,293 c 0,0 -9.7,6 -11.8,5.9 -2.1,0 -8.2,-0.2 -7.6,0.6 0.6,0.8 7.6,1.9 7.6,1.9 z"
           id="path457"
           style="stroke-width:0.639653" /><path
           class="st23"
           d="m 463.6,305.6 c 0,0 46,12 52.3,-7.4 6.7,-20.5 6.8,-15.2 6.8,-15.2 l -14.4,-13.5 c 0,0 -7.7,23.7 -9.9,24.2 -12.1,3 -25.8,1.1 -30.6,0.2 -0.5,-0.4 -1.2,-1 -1.9,-1.6 -0.6,-0.6 -1.1,-1.2 -1.5,-2 -0.5,-0.9 -1,-2.1 -1.1,-2.8 -0.1,-0.9 -1.4,-1.2 -1.8,-0.5 -0.4,0.7 -0.1,3.3 1.5,5.9 0,0 -10.9,6.8 -11.8,8.5 z"
           id="path459"
           style="fill:#c87137;stroke-width:0.639653" /><path
           class="st9"
           d="m 512.6,253.4 c 0,0 10.5,1.9 10.9,18 0.4,16 -6.3,28.2 -6.3,28.2 l -17.8,-9 13.2,-37.2"
           id="path461"
           style="stroke-width:0.639653" /><g
           id="g465"
           style="stroke-width:0.639653">
			<path
   class="st30"
   d="m 499.5,290.7 c 0,0.1 1,0.5 2.7,1.3 1.7,0.7 3.9,1.8 6.4,3 2.5,1.3 4.7,2.5 6.2,3.4 1.6,0.9 2.6,1.5 2.6,1.4 0,-0.1 -0.8,-0.8 -2.4,-1.7 -1.5,-1 -3.7,-2.3 -6.2,-3.5 -2.5,-1.3 -4.8,-2.3 -6.5,-2.9 -1.7,-0.8 -2.8,-1.1 -2.8,-1 z"
   id="path463"
   style="stroke-width:0.639653" />
		</g><g
           id="g469"
           style="stroke-width:0.639653">
			<path
   class="st30"
   d="m 500.2,289.5 c 0,0.1 1,0.5 2.7,1.1 1.7,0.6 4,1.6 6.4,2.7 2.5,1.2 4.6,2.3 6.2,3.2 1.6,0.9 2.5,1.4 2.6,1.3 0,-0.1 -0.8,-0.7 -2.3,-1.7 -1.5,-1 -3.7,-2.2 -6.1,-3.4 -2.5,-1.2 -4.8,-2 -6.5,-2.6 -1.9,-0.4 -3,-0.7 -3,-0.6 z"
   id="path467"
   style="stroke-width:0.639653" />
		</g><g
           id="g473"
           style="stroke-width:0.639653">
			<path
   class="st30"
   d="m 505.3,272.3 c 0.2,0 0.5,-1.3 0.3,-3 -0.1,-1.7 -0.7,-3 -0.8,-2.9 -0.2,0 0.1,1.4 0.2,3 0.2,1.5 0.1,2.9 0.3,2.9 z"
   id="path471"
   style="stroke-width:0.639653" />
		</g><g
           id="g477"
           style="stroke-width:0.639653">
			<path
   class="st30"
   d="m 499.5,290.6 c 0.1,0 0.8,-1.2 1.7,-3.2 1,-2 2.1,-4.9 3.1,-8.1 1,-3.3 1.6,-6.3 1.9,-8.5 0.3,-2.2 0.4,-3.6 0.3,-3.6 -0.1,0 -0.3,1.3 -0.8,3.5 -0.4,2.2 -1.1,5.1 -2.1,8.4 -1,3.2 -2.1,6.1 -2.9,8.1 -0.7,2.1 -1.3,3.3 -1.2,3.4 z"
   id="path475"
   style="stroke-width:0.639653" />
		</g></g></g></g></g>
</svg>
