<?xml version="1.0" encoding="UTF-8" standalone="no"?>
<svg
   xmlns:dc="http://purl.org/dc/elements/1.1/"
   xmlns:cc="http://creativecommons.org/ns#"
   xmlns:rdf="http://www.w3.org/1999/02/22-rdf-syntax-ns#"
   xmlns:svg="http://www.w3.org/2000/svg"
   xmlns="http://www.w3.org/2000/svg"
   xmlns:xlink="http://www.w3.org/1999/xlink"
   xmlns:sodipodi="http://sodipodi.sourceforge.net/DTD/sodipodi-0.dtd"
   xmlns:inkscape="http://www.inkscape.org/namespaces/inkscape"
   width="210.62"
   height="133.08"
   data-name="Layer 1"
   version="1.1"
   viewBox="0 0 210.62001 133.08"
   id="svg159"
   sodipodi:docname="idea_generation.svg"
   inkscape:version="1.0.1 (3bc2e813f5, 2020-09-07)">
  <sodipodi:namedview
     pagecolor="#ffffff"
     bordercolor="#666666"
     borderopacity="1"
     objecttolerance="10"
     gridtolerance="10"
     guidetolerance="10"
     inkscape:pageopacity="0"
     inkscape:pageshadow="2"
     inkscape:window-width="1366"
     inkscape:window-height="702"
     id="namedview161"
     showgrid="false"
     showborder="false"
     inkscape:zoom="2.1138066"
     inkscape:cx="205.56996"
     inkscape:cy="129.05982"
     inkscape:window-x="-8"
     inkscape:window-y="-8"
     inkscape:window-maximized="1"
     inkscape:current-layer="svg159"
     inkscape:document-rotation="0"
     units="in" />
  <metadata
     id="metadata2">
    <rdf:RDF>
      <cc:Work
         rdf:about="">
        <dc:format>image/svg+xml</dc:format>
        <dc:type
           rdf:resource="http://purl.org/dc/dcmitype/StillImage" />
        <dc:title>4</dc:title>
      </cc:Work>
    </rdf:RDF>
  </metadata>
  <defs
     id="defs15">
    <linearGradient
       id="linear-gradient"
       x1="152.44"
       x2="152.44"
       y1="92.529999"
       y2="3.5599999"
       gradientTransform="matrix(1,0,0,-1,0,352)"
       gradientUnits="userSpaceOnUse">
      <stop
         offset=".01"
         id="stop4" />
      <stop
         stop-opacity=".69"
         offset=".08"
         id="stop6" />
      <stop
         stop-opacity=".32"
         offset=".21"
         id="stop8" />
      <stop
         stop-opacity="0"
         offset="1"
         id="stop10" />
    </linearGradient>
    <linearGradient
       id="linear-gradient-5"
       x1="51.82"
       x2="103.06"
       y1="139.52"
       y2="143.17999"
       gradientTransform="matrix(0.57382987,0,0,0.57382987,449.23901,75.528315)"
       xlink:href="#linear-gradient" />
    <linearGradient
       id="linear-gradient-6"
       x1="120.05"
       x2="215.78"
       y1="139.00999"
       y2="4.98"
       gradientTransform="matrix(0.57382987,0,0,0.57382987,449.23901,75.528315)"
       xlink:href="#linear-gradient" />
  </defs>
  <title
     id="title17">4</title>
  <g
     id="g297"
     style="stroke-width:3.27046"
     transform="matrix(0.30464353,0,0,0.30689345,-131.71205,5.611993)">
    <path
       d="m 552.85489,217.87083 c -2.93801,-0.66564 -2.36418,3.5061 -3.13885,5.0497 a 8.2746267,8.2746267 0 0 1 -1.8133,2.08301 3.7184176,3.7184176 0 0 0 -1.31981,2.36417 0.83779161,0.83779161 0 0 0 0.10329,0.49924 0.96403418,0.96403418 0 0 0 0.57383,0.35577 6.7711925,6.7711925 0 0 0 5.02675,-0.49923 3.9364729,3.9364729 0 0 0 1.72149,-1.60099 5.4972902,5.4972902 0 0 0 0.44185,-2.36991 c 0.0861,-1.73871 0.85501,-5.34236 -1.59525,-5.88176 z"
       fill="#fdb9a9"
       id="path19"
       style="stroke-width:5.04959" />
    <path
       d="m 550.23249,226.44385 c 0,0 -8.3607,0.35577 -4.82017,2.98391 3.54053,2.62814 8.83698,-0.63695 9.3649,-1.26242 0.52793,-0.62548 0.0975,-1.62394 0.0975,-1.62394 z"
       fill="#68e1fd"
       id="path21"
       style="stroke-width:5.04959" />
    <path
       d="m 554.41571,227.59151 c -0.74598,0.90665 -4.67671,2.12891 -6.40968,2.00266 -1.73297,-0.12624 -3.29952,-0.93534 -3.13311,-2.06004 0.16641,-1.12471 3.24214,-3.73564 3.82171,-3.7299 0.57956,0.006 1.03289,1.34276 2.19776,1.6182 a 3.0699898,3.0699898 0 0 0 2.82325,-1.00994 0.77467032,0.77467032 0 0 1 0.95255,-0.24675 3.7012027,3.7012027 0 0 1 -0.25248,3.42577 z"
       fill="#ffffff"
       id="path23"
       style="stroke-width:5.04959" />
    <path
       d="m 562.93134,219.51772 c -2.938,-0.68286 -2.36417,3.48315 -3.13884,5.02675 a 8.2057671,8.2057671 0 0 1 -1.81331,2.08874 3.7700622,3.7700622 0 0 0 -1.31981,2.36418 0.83779161,0.83779161 0 0 0 0.10329,0.49923 0.96403418,0.96403418 0 0 0 0.57383,0.35578 6.799884,6.799884 0 0 0 5.02675,-0.49923 4.0168091,4.0168091 0 0 0 1.72149,-1.60099 5.4972902,5.4972902 0 0 0 0.44185,-2.36992 c 0.0861,-1.75592 0.85501,-5.34235 -1.59525,-5.86454 z"
       fill="#fdb9a9"
       id="path25"
       style="stroke-width:5.04959" />
    <path
       d="m 560.3319,228.05631 c 0,0 -8.36071,0.35004 -4.82018,2.98392 3.54053,2.63388 8.83125,-0.64269 9.34195,-1.23948 0.51071,-0.59678 0.0976,-1.62967 0.0976,-1.62967 z"
       fill="#68e1fd"
       id="path27"
       style="stroke-width:5.04959" />
    <path
       d="m 564.49216,229.19249 c -0.74598,0.91239 -4.67097,2.12891 -6.40968,2.00841 -1.7387,-0.12051 -3.29952,-0.93534 -3.13311,-2.06005 0.16641,-1.12471 3.24214,-3.74137 3.82171,-3.7299 0.57957,0.0115 1.03863,1.34277 2.19777,1.61247 a 3.0814664,3.0814664 0 0 0 2.82898,-1.00994 0.76893203,0.76893203 0 0 1 0.94682,-0.24675 3.7012027,3.7012027 0 0 1 -0.25249,3.42576 z"
       fill="#e9c6af"
       id="path29"
       style="stroke-width:5.04959" />
    <path
       d="m 555.35679,181.59904 3.93073,41.31576 5.65797,-0.70008 c 2.23793,-10.08219 1.68706,-40.2599 1.68706,-40.2599 z"
       fill="#473f47"
       id="path31"
       style="stroke-width:5.04959" />
    <path
       d="m 559.28752,180.48008 -3.93073,41.31575 -5.69813,-0.68286 c -3.2364,-26.15517 -0.57383,-42.46341 -0.57383,-42.46341 z"
       fill="#473f47"
       id="path33"
       style="stroke-width:5.04959" />
    <path
       d="m 549.61275,165.53181 c -0.0689,-0.75746 -0.2697,-1.50917 -0.35003,-2.29532 a 17.381307,17.381307 0 0 1 0.0861,-4.69393 17.788726,17.788726 0 0 1 1.48048,-4.76853 c 0.65416,-1.31407 1.83052,-1.87068 3.1618,-2.52485 a 11.166729,11.166729 0 0 1 3.55775,-1.21078 9.049297,9.049297 0 0 1 2.63961,0.1492 c 2.66831,0.50497 6.18589,1.88216 8.03362,4.01681 1.37146,1.57803 1.53213,3.84466 1.5723,5.93914 q 0.0861,4.32667 -0.17789,8.65335 c 0,0.4189 -0.0459,0.83779 -0.0803,1.25669 -0.24675,3.1618 -0.50497,6.44411 -1.40588,9.50262 -0.28118,0.9583 -0.57383,1.92233 -1.46901,2.43878 -2.08874,1.21078 -5.28497,0.57383 -7.54012,0.22953 -2.98966,-0.42464 -6.06539,-0.86648 -8.71648,-2.29532 a 2.5076365,2.5076365 0 0 1 -1.26243,-1.21652 c -0.22953,-0.64843 0.0516,-1.35424 0.25249,-2.01414 0.89517,-2.95523 0.20084,-6.05965 0.20084,-9.07225 0,-0.54514 0.0689,-1.10176 0.0689,-1.64689 -0.006,-0.17215 -0.0516,-0.30987 -0.0516,-0.44759 z"
       fill="#ffffff"
       id="path35"
       style="fill:#ffd5d5;stroke-width:5.04959" />
    <path
       d="m 556.87744,153.86183 a 9.4395014,9.4395014 0 0 1 1.05585,-1.58951 0.51070858,0.51070858 0 0 1 0.1951,-0.15493 0.441849,0.441849 0 0 1 0.21232,0 l 2.55928,0.40742 a 0.62547456,0.62547456 0 0 1 0.33282,0.11476 0.57382987,0.57382987 0 0 1 0.17215,0.26396 2.4732067,2.4732067 0 0 1 -0.24101,1.82478 25.191131,25.191131 0 0 1 -2.63388,4.05698 13.513693,13.513693 0 0 0 -1.46327,2.48468 c -0.18936,0.44185 -0.25248,0.94108 -0.43611,1.38293 -0.18362,0.44185 -0.57383,0.21232 -0.90091,0.13772 l -3.94795,-0.83205 -1.97397,-0.41316 c -0.28692,-0.0574 -0.51071,-0.0574 -0.36152,-0.39594 a 0.85500651,0.85500651 0 0 1 0.50497,-0.4189 5.2505433,5.2505433 0 0 1 0.94682,-0.14919 4.8259092,4.8259092 0 0 0 1.80183,-0.87222 10.116621,10.116621 0 0 0 1.1993,-0.90665 c 1.4231,-1.3026 2.07153,-3.23067 2.97818,-4.94068 z"
       fill="#020202"
       opacity="0.1"
       style="isolation:isolate;stroke-width:5.04959"
       id="path37" />
    <path
       d="m 552.57945,151.34272 a 2.5650195,2.5650195 0 0 1 1.03864,-0.82632 c 0.93534,-0.32134 1.86494,0.46481 2.82898,0.6886 0.72302,0.16067 1.62394,0.0689 2.05431,0.67712 a 1.882162,1.882162 0 0 1 0,1.66411 56.109085,56.109085 0 0 1 -2.98392,7.57455 c -0.47054,0.98125 -1.08454,1.85921 -1.58377,2.80029 -0.57383,1.03863 -0.69433,2.13464 -1.50343,3.06425 -0.8091,0.9296 -2.29532,1.58377 -3.49463,1.10749 a 3.3339515,3.3339515 0 0 1 -1.46326,-1.25095 c -1.4977,-2.16334 -0.45333,-4.47013 0.37299,-6.63921 0.59678,-1.52639 4.4357,-8.52711 4.73409,-8.85993 z"
       fill="#de87aa"
       id="path39"
       style="stroke-width:5.04959" />
    <path
       d="m 565.48489,182.33928 c -1.0042,0.18363 -2.19777,0.90666 -3.2364,0.71155 a 10.328938,10.328938 0 0 0 -3.67251,-0.98125 c -1.72149,-0.20084 -3.51758,-0.98124 -5.16447,-1.50917 a 4.303724,4.303724 0 0 1 -1.87643,-0.95829 c -1.0042,-1.04437 -0.70581,-2.71996 -0.49923,-4.15453 a 19.579075,19.579075 0 0 0 -0.13198,-6.31213 13.771917,13.771917 0 0 0 -0.76319,-2.86915 c -0.31561,-0.72303 -0.8091,-1.19357 -0.6886,-2.05431 0.10329,-0.75746 0.62548,-1.64689 1.47474,-1.72149 a 2.5478046,2.5478046 0 0 1 1.26817,0.3902 11.832372,11.832372 0 0 0 3.44298,1.21079 7.7926096,7.7926096 0 0 0 7.53438,-3.55775 c 0.78615,-1.23947 1.56656,-6.96056 3.76433,-6.16867 a 5.302188,5.302188 0 0 1 2.98965,3.32247 13.944066,13.944066 0 0 1 0.52792,4.59064 c -0.0459,4.01681 -0.84353,8.1197 -1.35423,12.10781 -0.20084,1.50918 -0.43612,7.11549 -2.43304,7.60899 -0.40742,0.0803 -0.79189,0.26396 -1.18209,0.34429 z"
       fill="#020202"
       opacity="0.1"
       style="isolation:isolate;stroke-width:5.04959"
       id="path41" />
    <path
       d="m 551.23669,159.98459 a 2.6109259,2.6109259 0 0 0 -2.4732,-0.15493 2.3756557,2.3756557 0 0 0 -1.30834,2.07726 3.2306622,3.2306622 0 0 0 0.57383,1.64116 2.5879727,2.5879727 0 0 0 0.72877,0.8091 2.4502535,2.4502535 0 0 0 1.56655,0.32708 3.1847558,3.1847558 0 0 0 1.40589,-0.38446 c 0.64269,-0.36152 1.47474,-1.39441 1.26242,-2.20351 a 4.7398347,4.7398347 0 0 0 -1.75592,-2.1117 z"
       fill="#a05a2c"
       id="path43"
       style="stroke-width:5.04959" />
    <path
       d="m 568.93934,155.02097 c 2.42157,4.01681 3.2651,8.73943 4.06272,13.35302 a 4.3496304,4.3496304 0 0 1 0.0746,1.72149 3.0298217,3.0298217 0 0 1 -2.18629,2.083 8.9173162,8.9173162 0 0 1 -3.14459,0.16641 c -2.25515,-0.14346 -4.9292,-0.33856 -6.84005,-1.64689 -0.65991,-0.44759 -1.23948,-1.0042 -1.91086,-1.43458 a 16.841907,16.841907 0 0 0 -2.03709,-1.01568 23.44095,23.44095 0 0 1 -3.81023,-2.22646 2.9322706,2.9322706 0 0 1 -0.99847,-1.02141 c -0.3902,-0.78041 -0.0861,-1.72149 0.21806,-2.52485 a 0.95829588,0.95829588 0 0 1 0.35577,-0.52219 0.98698738,0.98698738 0 0 1 0.74598,0 73.082972,73.082972 0 0 0 9.84692,2.20351 c 0.91239,0.14346 0.51071,-0.86075 0.39021,-1.38293 a 20.967743,20.967743 0 0 1 -0.48202,-2.22072 6.6392116,6.6392116 0 0 1 2.29532,-5.77847 2.7830749,2.7830749 0 0 1 1.53786,-0.72303 2.5707578,2.5707578 0 0 1 1.88217,0.96978 z"
       fill="#de87aa"
       id="path45"
       style="stroke-width:5.04959" />
    <path
       d="m 556.69381,145.62163 a 9.6403418,9.6403418 0 0 1 -0.18362,-1.21078 c -0.1951,-1.72149 -0.36151,-3.51184 0.48202,-4.99232 a 4.0168091,4.0168091 0 0 1 7.00646,0 5.4341689,5.4341689 0 0 1 0.614,3.02409 16.509085,16.509085 0 0 1 -0.57383,3.07572 c -0.27544,1.06733 -0.97551,1.72149 -1.3772,2.70274 a 3.9077814,3.9077814 0 0 0 -0.18936,1.30833 11.476597,11.476597 0 0 1 0,1.99119 4.8660773,4.8660773 0 0 1 -2.18055,0.77467 3.5692218,3.5692218 0 0 1 -1.07306,-0.18362 0.76893203,0.76893203 0 0 1 -0.48202,-0.31561 0.84926821,0.84926821 0 0 1 -0.0344,-0.44758 c 0,-0.14346 0.0344,-0.28118 0.0344,-0.42464 a 8.4410374,8.4410374 0 0 0 -0.0344,-2.15186 3.2421388,3.2421388 0 0 0 -1.10749,-1.38867 3.2536154,3.2536154 0 0 1 -0.90092,-1.76166 z"
       fill="#a05a2c"
       id="path47"
       style="stroke-width:5.04959" />
    <path
       d="m 557.11845,146.40204 a 15.642602,15.642602 0 0 0 2.29532,-0.4648 c 0.25822,-0.0746 0.57383,-0.13772 0.76893,0.0459 a 0.76319373,0.76319373 0 0 1 0.17215,0.35577 2.1231705,2.1231705 0 0 1 0.12624,0.80337 4.4816113,4.4816113 0 0 1 -0.18936,0.67138 0.82057671,0.82057671 0 0 0 0.0631,0.66564 c 0.18362,0.25248 0.57383,0.33282 0.6599,0.63695 0.0861,0.30413 -0.13772,0.42463 -0.20658,0.63695 a 4.475873,4.475873 0 0 0 -0.15493,0.78041 3.4429792,3.4429792 0 0 1 -0.13772,0.90091 1.0615853,1.0615853 0 0 1 -0.70581,0.61974 1.0902768,1.0902768 0 0 1 -0.92387,-0.1951 2.1633386,2.1633386 0 0 1 -0.57383,-1.3026 l -0.30987,-1.5436 a 9.2501375,9.2501375 0 0 0 -0.41315,-1.57803 7.2130415,7.2130415 0 0 0 -0.64269,-1.01568 z"
       fill="#020202"
       opacity="0.1"
       style="isolation:isolate;stroke-width:5.04959"
       id="path49" />
    <path
       d="m 508.26888,176.00994 c 0,0 0.35578,1.44031 -3.05851,2.51911 -3.41429,1.0788 -4.67671,-2.51911 -4.67671,-2.51911 0,0 6.4728,-2.51911 7.73522,0 z"
       fill="#2f3554"
       id="path51"
       style="stroke-width:5.04959" />
    <path
       d="m 490.70969,212.40797 0.39594,-1.52065 1.0329,-3.91926 a 0.96977248,0.96977248 0 0 1 0.24101,-0.49923 c 0.15493,-0.13198 0.63695,1.35424 0.84353,1.33702 a 12.980032,12.980032 0 0 1 3.36264,0.24675 c 0.29839,0.0574 -0.91239,16.90503 -1.01568,18.55766 -0.24675,3.78728 -0.0459,11.27576 0.51071,11.22985 -1.10749,0.0918 -3.37412,0.21806 -3.8504,-0.28118 -0.86074,-0.86074 0.614,-6.40968 -0.99273,-12.92265 a 22.677756,22.677756 0 0 1 -0.65416,-4.88903 c -0.0631,-2.39287 -0.4648,-5.00953 0.12624,-7.33928 z"
       fill="#784421"
       id="path53"
       style="stroke-width:5.04959" />
    <path
       d="m 498.62854,231.14925 a 4.1086219,4.1086219 0 0 0 0.30987,-0.71155 c 0.26396,-0.84353 0.0631,-1.72148 0.12051,-2.57075 a 8.8140268,8.8140268 0 0 0 0,-1.3485 c -0.0918,-1.14766 -0.24101,-2.29532 -0.38447,-3.44298 -0.24675,-1.93381 -0.70007,-3.94795 -0.70007,-5.90471 0,-1.50917 1.21652,-6.24901 1.21652,-6.24901 l -1.21652,-6.18015 h 6.17441 c 0,0 0.79188,5.16447 0.57383,5.7383 a 12.14224,12.14224 0 0 0 -0.78615,3.66104 c 0,2.22072 -0.29839,4.47013 -0.47054,6.68511 q -0.29265,3.63235 -0.57383,7.26469 c -0.0689,0.87222 -0.14346,1.72149 -0.21232,2.61093 a 8.5213736,8.5213736 0 0 0 0.69434,3.73563 c 0.1951,0.53366 0.41315,1.19356 0.0402,1.62968 -0.37299,0.43611 -1.18783,0.28691 -1.72149,0 a 15.195015,15.195015 0 0 0 -2.39861,-1.31407 3.1273728,3.1273728 0 0 1 -0.94108,-0.38447 c -0.57383,-0.43611 -0.57383,-1.30833 -0.30987,-1.97971 a 12.216838,12.216838 0 0 1 0.58531,-1.23948 z"
       fill="#784421"
       id="path55"
       style="stroke-width:5.04959" />
    <path
       d="m 502.60518,158.85415 c 0,0 -0.70007,-1.84773 0.88944,0 1.58951,1.84773 4.14305,12.77345 4.14305,12.77345 0,0 -3.57496,3.28231 -4.59064,2.63388 -1.01568,-0.64843 -0.44185,-15.40733 -0.44185,-15.40733 z"
       fill="#2f3554"
       id="path57"
       style="stroke-width:5.04959" />
    <path
       d="m 501.07306,141.42694 c 2.00266,0.82631 2.49042,3.79301 2.34696,5.66944 -0.17788,2.34696 -2.14612,4.69392 -1.469,7.05237 a 10.087929,10.087929 0 0 1 0.60826,3.7758 c -0.12624,1.27964 -0.91813,2.58797 -2.16334,2.86914 a 3.4429792,3.4429792 0 0 0 -0.86648,0.22954 2.2953195,2.2953195 0 0 0 -0.79189,1.01568 9.8870887,9.8870887 0 0 1 -5.68091,4.98084 c -2.47321,0.75172 -5.39974,0.17215 -7.14992,-1.72149 -1.75019,-1.89364 -2.02562,-5.11282 -0.36152,-7.0868 0.47628,-0.57383 1.11897,-1.09601 1.14766,-1.83052 a 4.9406752,4.9406752 0 0 0 -0.15493,-1.0042 3.0699898,3.0699898 0 0 1 1.65263,-3.17902 c 0.9296,-0.44758 2.11169,-0.42463 2.82898,-1.14766 0.80336,-0.83205 0.60826,-2.1576 0.57383,-3.31099 -0.36151,-6.03096 4.18896,-8.48695 9.47967,-6.31213 z"
       fill="#241f1c"
       id="path59"
       style="stroke-width:5.04959" />
    <path
       d="m 488.02417,191.81895 c -0.48202,4.70541 0.35577,9.51984 1.1993,14.21377 0.1951,1.10175 0.43611,2.29532 1.25669,3.05278 a 4.8488624,4.8488624 0 0 0 2.22646,0.99846 24.62304,24.62304 0 0 0 15.94673,-1.66411 l -1.26816,-11.70613 c -0.33282,-3.11589 -0.69434,-6.31213 -1.81331,-9.25013 -0.20657,-0.54514 -3.44297,-5.9621 -2.67404,-6.4269 -1.52639,0.94108 -3.29952,0.80336 -5.04971,1.21078 a 22.884335,22.884335 0 0 0 -5.92192,2.29532 5.9620923,5.9620923 0 0 0 -3.51758,4.77427 23.108129,23.108129 0 0 0 -0.38446,2.50189 z"
       fill="#68e1fd"
       id="path61"
       style="stroke-width:5.04959" />
    <path
       d="m 488.02417,191.81895 c -0.48202,4.70541 0.35577,9.51984 1.1993,14.21377 0.1951,1.10175 0.43611,2.29532 1.25669,3.05278 a 4.8488624,4.8488624 0 0 0 2.22646,0.99846 24.62304,24.62304 0 0 0 15.94673,-1.66411 l -1.26816,-11.70613 c -0.33282,-3.11589 -0.69434,-6.31213 -1.81331,-9.25013 -0.20657,-0.54514 -3.44297,-5.9621 -2.67404,-6.4269 -1.52639,0.94108 -3.29952,0.80336 -5.04971,1.21078 a 22.884335,22.884335 0 0 0 -5.92192,2.29532 5.9620923,5.9620923 0 0 0 -3.51758,4.77427 23.108129,23.108129 0 0 0 -0.38446,2.50189 z"
       fill="url(#linear-gradient-5)"
       id="path63"
       style="fill:url(#linear-gradient-5);stroke-width:5.04959" />
    <path
       d="m 500.96977,153.86183 c 0,0 -1.55508,1.97397 -1.56082,3.18476 a 10.328938,10.328938 0 0 1 -0.32708,2.37565 c 0,0 -0.24675,1.44605 -1.05011,0.8837 -0.80336,-0.56235 -3.6266,-4.34963 -3.6266,-4.34963 l 3.08146,-4.10862 z"
       fill="#a05a2c"
       id="path65"
       style="stroke-width:5.04959" />
    <path
       d="m 505.75551,188.73175 c 0,0 -0.63121,-7.02942 -1.80183,-9.84692 a 6.7884074,6.7884074 0 0 1 -0.22953,-3.1618 c 0.23527,-2.49043 0.99273,-4.87756 1.40015,-7.33929 a 8.9460077,8.9460077 0 0 0 -0.24101,-3.28804 q -0.64269,-3.20197 -1.50344,-6.35804 a 1.6813215,1.6813215 0 0 0 -0.33856,-0.74024 1.7559194,1.7559194 0 0 0 -0.68285,-0.38446 l -3.06999,-1.14766 c 0.32134,0.98698 0.62547,2.08874 0.18362,3.02982 a 1.2222576,1.2222576 0 0 1 -0.57383,0.63695 c -0.57383,0.23527 -1.14766,-0.14346 -1.60672,-0.57383 a 6.5760903,6.5760903 0 0 1 -1.57229,-2.40435 7.0867989,7.0867989 0 0 1 -0.36152,-1.46326 c -0.0459,-0.35578 0.0574,-0.87222 -0.21231,-1.11897 -0.43611,0.76893 -1.33703,1.14766 -2.01988,1.68132 -0.68286,0.53366 -1.56082,1.14766 -2.38714,1.72149 a 3.9364729,3.9364729 0 0 0 -1.61246,1.64115 3.1101579,3.1101579 0 0 0 0,1.80183 c 0.14346,0.65416 0.36725,1.29112 0.48776,1.95102 a 23.263063,23.263063 0 0 1 0.20658,2.53059 27.543834,27.543834 0 0 0 0.67138,3.73563 18.804405,18.804405 0 0 1 0.21231,2.26663 c 0,0 1.14766,4.26929 0.91813,5.31366 -0.22953,1.04437 -2.37565,5.0784 -2.49616,6.84579 -0.1205,1.7674 0.6886,5.48008 0.6886,5.48008 0,0 1.98545,0.13198 4.18895,0.21806 2.59372,0.0975 7.29912,-0.99847 7.64916,-1.34851 0.45906,-0.45906 0.71155,-3.73563 0.67138,-5.92192 1.04437,3.39707 1.86494,6.24327 1.86494,6.24327 z"
       fill="#2f3554"
       id="path67"
       style="stroke-width:5.04959" />
    <path
       d="m 490.48016,193.02974 c 0.43037,0.12624 0.57383,0.5107 0.89517,0.99272 a 23.859846,23.859846 0 0 1 1.18783,2.07153 0.26396174,0.26396174 0 0 1 0,0.37299 0.25822344,0.25822344 0 0 1 -0.15493,0.0689 2.2321982,2.2321982 0 0 1 -1.14766,0.0976 4.5103028,4.5103028 0 0 0 0.40168,2.697 c 0.0976,0.20084 0.20084,0.47054 0.0402,0.63121 a 0.47627879,0.47627879 0 0 1 -0.25823,0.0976 4.0168091,4.0168091 0 0 1 -2.34122,-0.57383 3.7585856,3.7585856 0 0 1 -1.10176,-0.74024 4.7111432,4.7111432 0 0 1 -0.93534,-1.77313 6.3752499,6.3752499 0 0 1 0.12051,-1.23374 c 0,-0.18936 0.1951,-2.66257 0.25248,-2.66257 l 2.66257,-0.10329 a 1.3198087,1.3198087 0 0 1 0.37873,0.0574 z"
       fill="#784421"
       id="path69"
       style="stroke-width:5.04959" />
    <polygon
       transform="matrix(0.57382987,0,0,0.57382987,455.29266,104.78765)"
       points="61.72,153.94 55.27,155.06 55.27,152.91 61.35,152.07 "
       fill="#ffffff"
       id="polygon71"
       style="stroke-width:8.79982" />
    <path
       d="m 490.49737,177.93801 c 0,0 2.94375,-7.08106 2.54207,-9.57722 -0.40168,-2.49616 -2.09448,-8.32053 -3.34543,-8.26889 -1.25095,0.0516 -1.64689,1.72149 -1.64689,3.27083 0,1.54934 -2.51337,15.5221 -2.67405,16.81322 -0.16067,1.29111 1.41736,13.19808 1.41736,13.19808 l 4.18896,-0.92386 z"
       fill="#2f3554"
       id="path73"
       style="stroke-width:5.04959" />
    <path
       d="m 501.76165,143.39517 a 0.57382987,0.57382987 0 0 1 0.17215,0.15494 4.590639,4.590639 0 0 1 0.57383,1.67558 c 0.8091,2.86915 1.91086,5.60058 0.33282,8.44678 a 1.824779,1.824779 0 0 1 -0.47627,0.60826 1.6755832,1.6755832 0 0 1 -0.6886,0.27543 4.8832922,4.8832922 0 0 1 -3.40281,-0.5394 17.857586,17.857586 0 0 1 -1.72149,-0.94108 1.8534705,1.8534705 0 0 1 -0.57383,-0.65416 c -0.12624,-0.2697 -0.33282,-0.53366 -0.24675,-0.84927 0.0631,-0.21806 0.18937,-0.40742 0.23527,-0.63121 a 1.6813215,1.6813215 0 0 0 -0.18362,-1.01568 0.57382987,0.57382987 0 0 1 -0.0574,-0.44759 c 0.10329,-0.24675 0.44758,-0.22953 0.71155,-0.29265 a 1.6124619,1.6124619 0 0 0 0.94108,-0.94682 7.2933776,7.2933776 0 0 0 0.57383,-1.61246 5.9506158,5.9506158 0 0 1 0.41315,-1.40015 3.7356325,3.7356325 0 0 1 1.59525,-1.41162 c 0.45333,-0.26396 1.3026,-0.72876 1.80183,-0.4189 z"
       fill="#a05a2c"
       id="path75"
       style="stroke-width:5.04959" />
    <path
       d="m 503.04129,147.56692 0.25823,-0.2238 c 0,0 0.0746,0.16068 0.16641,0.14346 a 1.1763512,1.1763512 0 0 0 0.23527,-0.0918 c 0,0 -0.14346,0.20658 -0.24101,0.22379 a 1.6124619,1.6124619 0 0 1 -0.40742,0 z"
       fill="#8a3c1f"
       id="path77"
       style="stroke-width:5.04959" />
    <path
       d="m 503.26509,147.36034 0.10903,-0.1951 c 0,0 0.0861,0.0803 0.14345,0.0459 a 0.74024053,0.74024053 0 0 0 0.12051,-0.10903 c 0,0 -0.0344,0.16067 -0.0918,0.1951 a 1.4575279,1.4575279 0 0 1 -0.2697,0.0803 z"
       fill="#8a3c1f"
       id="path79"
       style="stroke-width:5.04959" />
    <polygon
       transform="matrix(0.57382987,0,0,0.57382987,455.29266,104.78765)"
       points="86.86,106.57 70.82,126.85 88.47,126.14 105.57,106.57 "
       fill="#68e1fd"
       id="polygon81"
       style="stroke-width:8.79982" />
    <path
       d="m 509.49114,175.45906 a 2.4158238,2.4158238 0 0 1 0.0631,-0.33282 5.1644688,5.1644688 0 0 0 -0.0574,-2.17481 2.9093174,2.9093174 0 0 0 -1.23373,-1.75018 0.70581074,0.70581074 0 0 0 -0.1492,-0.0689 0.32134473,0.32134473 0 0 0 -0.32134,0.30413 1.055847,1.055847 0 0 0 0.10903,0.47628 6.4670626,6.4670626 0 0 1 0.39594,1.469 l -0.5394,-0.614 a 1.4632662,1.4632662 0 0 0 -0.57383,-0.4648 0.48775539,0.48775539 0 0 0 -0.62548,0.26396 0.65990435,0.65990435 0 0 0 0.0574,0.4189 l 0.50497,1.46326 a 2.5076365,2.5076365 0 0 0 -1.07306,-1.09601 0.74024053,0.74024053 0 0 0 0,0.87222 4.7857411,4.7857411 0 0 1 0.4648,0.83779 3.6380814,3.6380814 0 0 1 -0.32708,-0.45332 c -0.1205,-0.14346 -0.35003,-0.23527 -0.48775,-0.10903 -0.13772,0.12624 -0.0918,0.30413 -0.0516,0.45906 a 9.1812779,9.1812779 0 0 1 0.40168,3.39708 l 0.64269,-0.14346 a 5.5604114,5.5604114 0 0 0 1.42883,-0.71729 2.8691493,2.8691493 0 0 0 1.37146,-2.0371 z"
       fill="#efac88"
       id="path83"
       style="stroke-width:5.04959" />
    <path
       d="m 576.46799,174.50077 c 0.1951,-0.16641 0.49923,-0.29265 0.69434,-0.12624 a 0.63121286,0.63121286 0 0 1 0.15493,0.49923 v 1.02715 c 1.75018,-0.53366 3.06999,-1.93954 4.35537,-3.2364 0.2697,-0.27544 0.66564,-0.57383 0.99846,-0.37872 a 0.73450223,0.73450223 0 0 1 0.2697,0.79188 3.9422112,3.9422112 0 0 0 -0.20084,0.85501 c 0,0.47054 0.33856,0.87796 0.38447,1.34276 0.0516,0.57383 -0.33856,1.09028 -0.39021,1.66411 v 0.57383 a 2.1977684,2.1977684 0 0 1 -0.49923,0.94108 6.9376031,6.9376031 0 0 1 -2.24367,2.13464 6.8515286,6.8515286 0 0 1 -1.93381,0.52219 l -2.083,0.35577 a 1.2566874,1.2566874 0 0 1 -0.61974,0 c -0.62547,-0.21231 -0.82058,-1.23373 -0.79762,-1.79608 a 4.0168091,4.0168091 0 0 1 0.57383,-1.47475 c 0.43037,-1.19356 0.29839,-2.82324 1.33702,-3.69546 z"
       fill="#a67c52"
       id="path85"
       style="stroke-width:5.04959" />
    <path
       d="m 514.82719,168.17716 c -0.13772,-0.21805 -0.39021,-0.42463 -0.62548,-0.32708 a 0.64268945,0.64268945 0 0 0 -0.29839,0.43037 l -0.31561,0.97551 c -1.51491,-1.02715 -2.35844,-2.76012 -3.19623,-4.38406 -0.17789,-0.34429 -0.4648,-0.74024 -0.84353,-0.65416 a 0.71154904,0.71154904 0 0 0 -0.45906,0.67712 4.4299666,4.4299666 0 0 1 -0.0631,0.87222 c -0.13772,0.44759 -0.57383,0.74024 -0.76893,1.14766 -0.21806,0.52792 0,1.14766 -0.12051,1.72149 -0.0402,0.18362 -0.1205,0.36151 -0.14919,0.57383 a 2.1174322,2.1174322 0 0 0 0.20084,1.04437 6.8859584,6.8859584 0 0 0 1.50343,2.70847 7.012201,7.012201 0 0 0 1.68706,1.07307 l 1.8879,0.95829 a 1.3485002,1.3485002 0 0 0 0.57383,0.18363 c 0.6599,0 1.14766,-0.92961 1.29686,-1.47474 a 4.2750325,4.2750325 0 0 0 -0.0861,-1.5723 c -0.10329,-1.29112 0.49923,-2.78881 -0.2238,-3.95369 z"
       fill="#a67c52"
       id="path87"
       style="stroke-width:5.04959" />
    <path
       d="m 532.75363,261.53928 a 0.4533256,0.4533256 0 0 0 0.0459,0.13198 c 0.25823,0.66565 1.0788,0.88944 1.79035,0.96978 a 14.500681,14.500681 0 0 0 1.99693,0.0976 2.8691493,2.8691493 0 0 0 0.93534,-0.13198 3.3454281,3.3454281 0 0 0 0.78615,-0.47628 l 1.91659,-1.4231 a 7.6721054,7.6721054 0 0 0 1.46327,-1.29686 2.5879727,2.5879727 0 0 0 0.63121,-1.80182 1.5665555,1.5665555 0 0 0 -1.14766,-1.4231 4.7054049,4.7054049 0 0 0 -1.20504,0.0344 c -0.82058,0.0402 -1.96824,-0.29839 -2.29532,-1.14766 a 1.7214896,1.7214896 0 0 0 -0.57383,-0.92387 1.4862194,1.4862194 0 0 0 -0.88944,-0.10328 6.512969,6.512969 0 0 0 -1.95676,0.38446 2.2264599,2.2264599 0 0 0 -1.35424,1.37719 2.9667004,2.9667004 0 0 0 -0.0861,0.90092 16.847645,16.847645 0 0 1 0,1.86494 18.936386,18.936386 0 0 0 -0.13198,2.35271 3.150326,3.150326 0 0 0 0.0746,0.61399 z"
       fill="#262836"
       id="path89"
       style="stroke-width:5.04959" />
    <path
       d="m 551.38015,261.78029 a 32.593537,32.593537 0 0 1 -3.97664,1.51491 2.5076365,2.5076365 0 0 1 -1.72149,0.0975 1.7214896,1.7214896 0 0 1 -0.90665,-1.14766 5.1931603,5.1931603 0 0 1 -0.1492,-1.48622 c 0,-0.83205 0.3443,-1.47474 0.47628,-2.26662 0.1205,-0.6886 0.21806,-1.38293 0.31561,-2.07153 0.13772,-0.98699 0.26396,-1.97397 0.3902,-2.9667 l 3.44298,0.74024 c 0.36151,0.0746 0.70581,1.46901 0.91813,1.76166 a 1.8534705,1.8534705 0 0 0 1.38867,0.72876 c 0.57383,0.0287 1.18782,-0.24101 1.77887,-0.14345 a 1.7960875,1.7960875 0 0 1 1.36571,1.68706 2.8691493,2.8691493 0 0 1 -0.9296,2.07726 7.0753223,7.0753223 0 0 1 -1.96824,1.25095 z"
       fill="#262836"
       id="path91"
       style="stroke-width:5.04959" />
    <path
       d="m 551.40884,257.92989 a 22.184263,22.184263 0 0 1 -2.81176,1.3485 l -0.0976,0.0402 c -1.59524,0.61974 -3.37985,-1.88216 -3.37985,-1.88216 0,0 -2.25516,-13.93259 -2.15187,-19.70532 0.0689,-3.96516 -0.86648,-9.61739 -2.29532,-19.87173 -0.35577,10.4724 -2.1289,15.07451 -1.67558,18.82736 0.6886,5.70961 -0.13198,19.88895 -0.13198,19.88895 0,0 -1.50917,2.76012 -3.16754,2.38713 h -0.0975 a 20.77838,20.77838 0 0 1 -2.92653,-0.90092 c 0,0 -1.92807,-19.51021 -1.92807,-24.67468 0,-5.16447 0.21232,-9.75511 0.21232,-9.75511 l -1.00421,-16.31398 4.29799,-6.23753 0.35004,-0.1492 0.33282,-0.32708 4.76279,-3.49462 c 0,0 0,0.81483 -0.0861,2.20924 l 3.69546,1.98545 0.36151,0.2697 0.36152,0.0918 6.2031,1.08454 c 0,0 1.62967,25.00751 2.15186,30.12607 0.52218,5.11856 -0.97551,25.05341 -0.97551,25.05341 z"
       fill="#68e1fd"
       id="path93"
       style="stroke-width:5.04959" />
    <path
       d="m 551.40884,257.92989 a 22.184263,22.184263 0 0 1 -2.81176,1.3485 l -0.0976,0.0402 c -1.59524,0.61974 -3.37985,-1.88216 -3.37985,-1.88216 0,0 -2.25516,-13.93259 -2.15187,-19.70532 0.0689,-3.96516 -0.86648,-9.61739 -2.29532,-19.87173 -0.35577,10.4724 -2.1289,15.07451 -1.67558,18.82736 0.6886,5.70961 -0.13198,19.88895 -0.13198,19.88895 0,0 -1.50917,2.76012 -3.16754,2.38713 h -0.0975 a 20.77838,20.77838 0 0 1 -2.92653,-0.90092 c 0,0 -1.92807,-19.51021 -1.92807,-24.67468 0,-5.16447 0.21232,-9.75511 0.21232,-9.75511 l -1.00421,-16.31398 4.29799,-6.23753 0.35004,-0.1492 0.33282,-0.32708 4.76279,-3.49462 c 0,0 0,0.81483 -0.0861,2.20924 l 3.69546,1.98545 0.36151,0.2697 0.36152,0.0918 6.2031,1.08454 c 0,0 1.62967,25.00751 2.15186,30.12607 0.52218,5.11856 -0.97551,25.05341 -0.97551,25.05341 z"
       fill="url(#linear-gradient-6)"
       id="path95"
       style="fill:url(#linear-gradient-6);stroke-width:5.04959" />
    <path
       d="m 546.26733,159.23288 c 0.3902,0.3902 0.97551,0.79188 0.81483,1.30833 -0.0861,0.27544 -0.37872,0.43611 -0.57383,0.63121 a 2.9953919,2.9953919 0 0 0 -0.86648,2.15186 6.7597159,6.7597159 0 0 1 -0.32708,2.29532 1.7214896,1.7214896 0 0 1 -1.85921,1.11897 c -0.45333,-0.12624 -0.90665,-0.51644 -1.34276,-0.33282 -0.33282,0.14346 -0.43611,0.57383 -0.60826,0.86075 a 2.3756557,2.3756557 0 0 1 -2.29532,1.03289 7.126967,7.126967 0 0 1 -2.49616,-0.85501 1.7960875,1.7960875 0 0 1 -0.82058,-0.63695 1.3198087,1.3198087 0 0 1 -0.0918,-0.88943 c 0.16067,-0.91239 0.79189,-1.66411 1.3026,-2.45026 a 10.392059,10.392059 0 0 0 1.65263,-4.84886 c 0.0918,-1.20504 0,-2.53059 0.77467,-3.44298 1.0501,-1.26816 3.58643,-1.25669 4.88903,-0.32708 1.49769,0.95829 0.64842,3.13885 1.84773,4.38406 z"
       fill="#a67c52"
       id="path97"
       style="stroke-width:5.04959" />
    <path
       d="m 544.71225,153.77576 a 1.8649471,1.8649471 0 0 1 -0.67138,0.72876 c -0.57383,0.33856 -1.06733,0.7345 -1.62394,1.10749 a 2.4674684,2.4674684 0 0 0 -1.0329,1.51491 c -0.23527,1.14766 0.38447,2.34697 0,3.44298 -0.13198,0.21806 -0.49923,0.0861 -0.64842,-0.13198 -0.1492,-0.21806 -0.2238,-0.49349 -0.44759,-0.62547 -0.37873,-0.21806 -0.84353,0.14919 -1.0042,0.57383 a 1.9510216,1.9510216 0 0 0 1.10749,2.46173 c -0.0516,0.35003 -0.51071,0.49349 -0.86649,0.44184 a 3.8561367,3.8561367 0 0 0 -1.08453,-0.13771 c -0.82058,0.15493 -1.14766,1.32554 -1.95103,1.44605 a 1.8706854,1.8706854 0 0 1 -1.41735,-0.82058 l -0.99847,-1.14766 a 4.9578901,4.9578901 0 0 0 -0.52218,-0.57383 c -0.2238,-0.17789 -0.57383,-0.18936 -0.78041,-0.40168 -0.20658,-0.21232 0,-0.70007 -0.20084,-0.96403 a 1.0042023,1.0042023 0 0 0 -0.3443,-0.20658 1.4001449,1.4001449 0 0 1 -0.72303,-1.61247 0.4303724,0.4303724 0 0 0 0,-0.241 c -0.0344,-0.10329 -0.16067,-0.15494 -0.26396,-0.20658 a 1.497696,1.497696 0 0 1 -0.57383,-1.87643 3.1044196,3.1044196 0 0 1 0.69434,-1.02141 1.0501087,1.0501087 0 0 1 0.99846,-0.44185 l 0.15493,-1.43458 a 2.2494131,2.2494131 0 0 1 0.20658,-0.84353 c 0.32708,-0.57383 1.0788,-0.72302 1.72149,-0.79762 l -0.27544,-1.19357 a 0.57382987,0.57382987 0 0 1 0,-0.4648 0.57382987,0.57382987 0 0 1 0.3443,-0.20084 6.2776988,6.2776988 0 0 1 1.18209,-0.1951 5.0611795,5.0611795 0 0 1 -0.33856,-1.03289 0.41889581,0.41889581 0 0 1 0,-0.20658 0.36151282,0.36151282 0 0 1 0.36151,-0.18937 1.1476597,1.1476597 0 0 0 0.44185,0 c 0,0 -0.21805,-0.99846 -0.22953,-1.09027 a 1.2050427,1.2050427 0 0 1 0.16641,-0.91813 1.0501087,1.0501087 0 0 1 0.96977,-0.36151 3.2191856,3.2191856 0 0 1 1.01568,0.36725 c -0.0344,-0.38447 0.45907,-0.57383 0.85501,-0.60826 a 4.3725836,4.3725836 0 0 1 3.81023,1.82478 1.4862194,1.4862194 0 0 0 0.24101,0.29265 1.9051152,1.9051152 0 0 0 0.57383,0.25248 2.2953195,2.2953195 0 0 1 1.27964,1.48622 6.6965946,6.6965946 0 0 1 0.20084,1.99693 5.9850455,5.9850455 0 0 1 -0.14346,1.53213 2.3297493,2.3297493 0 0 1 -0.18362,0.47628 z"
       fill="#1a1a1a"
       id="path99"
       style="stroke-width:5.04959" />
    <path
       d="m 539.2666,166.19171 a 22.844167,22.844167 0 0 1 2.65109,1.32555 2.0256194,2.0256194 0 0 1 0.67139,0.57383 0.94108099,0.94108099 0 0 1 0.0918,0.91813 c -0.24101,0.41315 -0.78041,0.25822 -1.19931,0.11476 -1.93381,-0.76893 -4.01681,-0.83779 -6.00226,-0.83205 a 0.75745543,0.75745543 0 0 1 -0.72302,-0.30413 0.94681929,0.94681929 0 0 1 0.0803,-0.81484 c 1.05011,-2.083 2.73717,-1.75018 4.42997,-0.98125 z"
       fill="#ffffff"
       id="path101"
       style="stroke-width:5.04959" />
    <path
       d="m 576.77212,182.34502 a 8.1024778,8.1024778 0 0 1 -1.72149,2.64536 c -0.70581,0.79762 -1.44031,1.56655 -2.20351,2.29532 a 63.327864,63.327864 0 0 1 -5.68665,4.90051 c -1.41736,1.09601 -2.93227,2.17481 -4.69967,2.51911 a 3.649558,3.649558 0 0 1 -2.11743,-0.13198 5.0611795,5.0611795 0 0 1 -1.48048,-1.14766 c -0.51071,-0.50497 -6.36377,-7.24173 -6.46132,-7.24173 a 1.5493406,1.5493406 0 0 0 -0.71729,0.82057 16.015592,16.015592 0 0 0 -1.5436,5.57189 16.451702,16.451702 0 0 0 0,2.60519 c 0.22953,2.94374 1.26242,5.9793 0.24101,8.75664 a 3.9422112,3.9422112 0 0 1 -0.98125,1.56082 4.7111432,4.7111432 0 0 1 -1.46327,0.86074 13.375974,13.375974 0 0 1 -2.93227,0.83779 12.343081,12.343081 0 0 1 -1.72149,0.18937 c -2.14039,0.0803 -4.27503,-0.33856 -6.41542,-0.22953 -1.82478,0.0918 -3.6266,0.57383 -5.45138,0.49923 a 2.2953195,2.2953195 0 0 1 -1.82478,-0.6886 2.381394,2.381394 0 0 1 -0.37299,-1.05584 67.511084,67.511084 0 0 1 -1.09602,-11.8209 c 0,-1.83052 -0.29839,-8.52137 -0.91238,-9.75511 -0.0746,-0.14919 -0.15494,-0.22379 -0.23528,-0.20084 -2.04283,0.57383 -6.42689,1.72149 -8.50415,2.08874 a 2.4732067,2.4732067 0 0 1 -0.91813,0.0459 2.2264599,2.2264599 0 0 1 -0.86075,-0.43611 c -2.57075,-1.8879 -4.01681,-4.69967 -4.92919,-7.66063 -0.17789,-0.57383 -0.33856,-1.14766 -0.48776,-1.72149 a 1.3025938,1.3025938 0 0 1 0.57383,-1.75592 0.63695116,0.63695116 0 0 1 0.10903,-0.0516 l 3.8504,-2.47895 2.86914,3.66104 c 0.57383,0.71154 1.228,1.48048 2.14039,1.58377 1.25095,0.12624 2.19203,-1.00994 2.96096,-1.97972 a 25.426402,25.426402 0 0 1 9.33048,-7.29337 7.511433,7.511433 0 0 1 1.67558,-0.57383 l 0.14346,-0.0344 a 1.7903492,1.7903492 0 0 1 0.25248,-0.0516 7.5171713,7.5171713 0 0 1 2.23794,0.13198 127.43614,127.43614 0 0 1 14.47773,3.32248 3.6667729,3.6667729 0 0 1 2.70273,1.91659 c 1.33703,2.01414 2.63962,4.05124 3.98238,6.06538 1.14766,1.72149 2.29532,3.90204 4.01681,5.16447 a 46.910592,46.910592 0 0 0 10.45518,-5.89323 c 0.45333,-0.33856 1.02716,-0.70581 1.54934,-0.48202 a 1.4690045,1.4690045 0 0 1 0.44185,0.33282 c 1.23374,1.23374 2.34697,2.43878 1.72723,4.30946 z"
       fill="#164450"
       id="path103"
       style="stroke-width:5.04959" />
    <path
       d="m 604.62009,168.85428 a 3.861875,3.861875 0 0 1 -1.78462,0.85501 4.2061729,4.2061729 0 0 1 -1.76165,-0.30987 l -8.53859,-2.86915 a 3.2306622,3.2306622 0 0 0 -0.70007,4.34389 c 0.72302,1.00421 1.96823,1.48049 3.13311,1.89938 l 5.85306,2.10596 a 13.284161,13.284161 0 0 0 3.59791,0.92386 c 1.72149,0.11477 3.40282,-0.43611 5.03823,-0.98125 1.75018,-0.57383 3.66677,-1.30259 4.50457,-2.94948 0.83779,-1.64689 0.22953,-3.81597 0.47627,-5.7383 0.16641,-1.25095 0.71729,-2.45025 0.69434,-3.71268 -0.0287,-1.0788 -0.88944,-2.70274 -2.17482,-2.47894 -1.10749,0.1951 -1.84773,2.12317 -2.43304,2.93227 a 27.268395,27.268395 0 0 1 -5.9047,5.9793 z"
       fill="#ffffff"
       id="path105"
       style="stroke-width:5.04959" />
    <path
       d="m 591.4679,166.06547 a 1.9969279,1.9969279 0 0 0 -0.40168,-0.614 0.64268945,0.64268945 0 0 0 -0.68285,-0.14346 0.70007244,0.70007244 0 0 0 -0.32709,0.67139 0.38446601,0.38446601 0 0 1 -0.0574,0.25822 0.27543834,0.27543834 0 0 1 -0.26396,0.0344 c -0.96977,-0.18937 -1.95102,-0.33282 -2.93801,-0.43037 a 0.8894363,0.8894363 0 0 0 -0.24675,0 0.66564265,0.66564265 0 0 0 -0.41889,0.81483 3.0814664,3.0814664 0 0 0 0.47628,0.90092 c 0.49923,0.82057 0.68859,1.90511 1.49195,2.43877 a 2.651094,2.651094 0 0 0 1.6182,0.33856 c 0.57383,-0.0287 1.11897,-0.13198 1.68132,-0.10902 a 1.7731343,1.7731343 0 0 0 1.11323,-0.12051 0.97551078,0.97551078 0 0 0 0.38447,-0.84353 3.0757281,3.0757281 0 0 0 -0.53366,-1.41162 c -0.30987,-0.58531 -0.60826,-1.18209 -0.89518,-1.78461 z"
       fill="#fdb9a9"
       id="path107"
       style="fill:#a05a2c;stroke-width:5.04959" />
    <path
       d="m 615.28184,230.35163 c -3.27083,-0.74024 -2.62814,3.90204 -3.48888,5.62353 a 9.4165482,9.4165482 0 0 1 -2.01988,2.29532 c -0.74024,0.72303 -1.43458,1.60673 -1.47475,2.63388 a 0.95255758,0.95255758 0 0 0 0.11477,0.57383 1.1476597,1.1476597 0 0 0 0.64843,0.39021 7.5401245,7.5401245 0 0 0 5.60058,-0.57383 4.4127517,4.4127517 0 0 0 1.92233,-1.78462 6.1227647,6.1227647 0 0 0 0.49349,-2.63961 c 0.0746,-1.90512 0.92961,-5.91045 -1.79609,-6.51871 z"
       fill="#c87137"
       id="path109"
       style="stroke-width:5.04959" />
    <path
       d="m 612.38974,239.90016 c 0,0 -9.30752,0.39594 -5.36531,3.32247 3.94221,2.92654 9.82397,-0.71728 10.3978,-1.38293 0.57383,-0.66564 0.10903,-1.80756 0.10903,-1.80756 z"
       fill="#68e1fd"
       id="path111"
       style="stroke-width:5.04959" />
    <path
       d="m 617.02055,241.18554 c -0.83205,1.00994 -5.20464,2.36992 -7.13845,2.2322 -1.9338,-0.13772 -3.67251,-1.04437 -3.48314,-2.29532 0.18936,-1.25095 3.60939,-4.16027 4.25208,-4.15453 0.64269,0.006 1.14766,1.49769 2.44451,1.80756 a 3.4429792,3.4429792 0 0 0 3.15033,-1.14766 0.8607448,0.8607448 0 0 1 1.05585,-0.27544 c 0.44758,0.65991 0.55087,2.82325 -0.28118,3.83319 z"
       fill="#ffffff"
       id="path113"
       style="stroke-width:5.04959" />
    <path
       d="m 626.50022,232.18215 c -3.27083,-0.75746 -2.62814,3.87909 -3.48889,5.60058 a 9.2099694,9.2099694 0 0 1 -2.01988,2.32401 c -0.74024,0.72302 -1.42884,1.60672 -1.469,2.63388 a 0.94108099,0.94108099 0 0 0 0.10902,0.57383 1.1074916,1.1074916 0 0 0 0.65417,0.3902 7.5516011,7.5516011 0 0 0 5.59484,-0.57383 4.4127517,4.4127517 0 0 0 1.92233,-1.78461 6.1227647,6.1227647 0 0 0 0.4935,-2.63962 c 0.0746,-1.9338 0.9296,-5.95061 -1.79609,-6.52444 z"
       fill="#c87137"
       id="path115"
       style="stroke-width:5.04959" />
    <path
       d="m 623.60812,241.69051 c 0,0 -9.30753,0.3902 -5.36531,3.31674 3.94221,2.92653 9.8297,-0.70582 10.39779,-1.3772 0.56809,-0.67138 0.10903,-1.8133 0.10903,-1.8133 z"
       fill="#68e1fd"
       id="path117"
       style="stroke-width:5.04959" />
    <path
       d="m 628.23892,242.95293 c -0.83205,1.02142 -5.20463,2.37566 -7.13844,2.23794 -1.93381,-0.13772 -3.67251,-1.03863 -3.48315,-2.29532 0.18937,-1.25669 3.60939,-4.166 4.25208,-4.16027 0.64269,0.006 1.14766,1.4977 2.44452,1.80183 a 3.4429792,3.4429792 0 0 0 3.15032,-1.14766 0.8607448,0.8607448 0 0 1 1.05585,-0.27544 c 0.44759,0.68286 0.55088,2.82325 -0.28118,3.83892 z"
       fill="#ffffff"
       id="path119"
       style="stroke-width:5.04959" />
    <path
       d="m 618.07066,189.97122 4.37258,46.01542 6.31213,-0.78041 c 2.49042,-11.22411 1.88216,-44.82185 1.88216,-44.82185 z"
       fill="#473f47"
       id="path121"
       style="fill:#0b280b;stroke-width:5.04959" />
    <path
       d="m 622.44324,188.72601 -4.37258,46.01542 -6.31213,-0.78041 c -3.60365,-29.11613 -0.63695,-47.24341 -0.63695,-47.24341 z"
       fill="#473f47"
       id="path123"
       style="fill:#0b280b;stroke-width:5.04959" />
    <path
       d="m 611.67245,172.08495 c -0.0746,-0.84353 -0.29839,-1.68133 -0.3902,-2.54207 a 19.177394,19.177394 0 0 1 0.0975,-5.22185 19.83156,19.83156 0 0 1 1.64689,-5.31367 c 0.72877,-1.45753 2.04284,-2.07726 3.51758,-2.80603 a 12.434893,12.434893 0 0 1 3.96516,-1.3485 10.093667,10.093667 0 0 1 2.93801,0.16068 c 2.9667,0.57383 6.88596,2.10021 8.91158,4.44144 1.52639,1.76166 1.72149,4.28077 1.75592,6.61052 q 0.0976,4.82591 -0.20084,9.64034 c 0,0.4648 -0.0574,0.92961 -0.0918,1.39441 -0.27544,3.52331 -0.57383,7.17861 -1.56656,10.58142 -0.3156,1.06732 -0.64843,2.14039 -1.63541,2.71422 -2.29532,1.35423 -5.88176,0.60826 -8.3894,0.25822 -3.33395,-0.47628 -6.75397,-0.96977 -9.7092,-2.58223 a 2.8347196,2.8347196 0 0 1 -1.40588,-1.35424 c -0.25822,-0.72303 0.0574,-1.50918 0.28118,-2.24368 0.99846,-3.28804 0.22379,-6.7425 0.22379,-10.0994 0,-0.60826 0.0803,-1.228 0.0803,-1.83626 -0.006,-0.1492 -0.0287,-0.30413 -0.0287,-0.45332 z"
       fill="#9955ff"
       id="path125"
       style="stroke-width:5.04959" />
    <path
       d="m 620.99145,187.53245 a 1.7214896,1.7214896 0 0 1 0.24675,-1.00421 c 0.37873,-0.4648 1.10175,-0.36725 1.68132,-0.22379 l 3.74711,0.9296 c 1.41736,0.35004 3.59217,1.72149 3.95942,3.15033 1.44032,-1.00994 1.81331,-2.70848 2.08301,-4.44718 0.2697,-1.73871 0.28117,-5.13004 0.57383,-6.88596 a 11.36757,11.36757 0 0 1 -6.27196,2.13465 c -2.12891,0.0574 -4.80296,0 -5.57763,-2.29532 -0.88944,-2.68553 -1.1993,-5.50303 -1.79035,-8.25741 a 0.41889581,0.41889581 0 0 0 -0.51071,-0.4189 l -8.091,0.0861 a 0.80910012,0.80910012 0 0 0 -0.36725,0.0689 c -0.23527,0.14346 -0.23527,0.48202 -0.1951,0.75172 a 8.1196927,8.1196927 0 0 0 2.59945,4.7341 c 0.6599,0.57383 1.09027,0.95255 1.21652,1.80756 0.15493,1.00994 0.11476,2.083 0.21805,3.11016 a 23.613099,23.613099 0 0 0 1.40589,6.31213 c 1.15913,2.88636 4.8546,5.14151 5.07265,0.44759 z"
       fill="#020202"
       opacity="0.1"
       style="isolation:isolate;stroke-width:5.04959"
       id="path127" />
    <polygon
       transform="matrix(0.57382987,0,0,0.57382987,455.29266,104.78765)"
       points="263.92,148.27 261.31,115.63 282.31,115.63 284.91,148.27 "
       fill="#68e1fd"
       id="polygon129"
       style="stroke-width:8.79982" />
    <path
       d="m 618.08213,150.23523 a 23.808201,23.808201 0 0 1 0.16641,-2.64536 c 0.0803,-0.76319 0.20084,-1.53213 0.35004,-2.29532 a 1.5436024,1.5436024 0 0 1 0.57383,-1.14766 7.2474713,7.2474713 0 0 1 3.93647,-1.0788 3.1675409,3.1675409 0 0 1 3.62087,2.63388 2.8691493,2.8691493 0 0 1 0.0402,0.49349 c 0.20658,1.93381 -0.29266,3.86188 -0.57383,5.78421 a 24.066425,24.066425 0 0 0 -0.23527,4.49882 5.2849731,5.2849731 0 0 1 -2.43304,0.86075 3.6725112,3.6725112 0 0 1 -1.19357,-0.20084 0.82631501,0.82631501 0 0 1 -0.53366,-0.35004 0.92386609,0.92386609 0 0 1 -0.0402,-0.49923 4.3381538,4.3381538 0 0 0 0.0402,-0.47054 14.494943,14.494943 0 0 0 -0.0516,-2.63962 0.25822344,0.25822344 0 0 0 -0.0746,-0.20084 0.33282132,0.33282132 0 0 0 -0.18363,0 h -0.24674 a 8.3721778,8.3721778 0 0 1 -1.31407,0 2.2149833,2.2149833 0 0 1 -1.37146,-0.68286 2.8691493,2.8691493 0 0 1 -0.47628,-2.06004 z"
       fill="#c87137"
       id="path131"
       style="stroke-width:5.04959" />
    <path
       d="m 619.86674,144.56579 a 1.2452108,1.2452108 0 0 1 -0.95255,0 1.9108535,1.9108535 0 0 1 -0.7632,-0.74598 2.4559918,2.4559918 0 0 1 0.66565,-3.39134 3.7987537,3.7987537 0 0 1 2.86915,-0.63121 2.2035067,2.2035067 0 0 1 0.86074,-0.32134 7.8844224,7.8844224 0 0 1 3.6553,-0.2238 5.9563541,5.9563541 0 0 1 1.91659,0.9583 4.8086943,4.8086943 0 0 1 1.3944,1.41162 6.8285755,6.8285755 0 0 1 0.64843,2.29532 13.198087,13.198087 0 0 1 0.30413,2.59371 3.092943,3.092943 0 0 1 -0.21231,1.11323 3.2995218,3.2995218 0 0 1 -0.72877,1.04437 6.6449499,6.6449499 0 0 1 -1.53212,1.14766 c -0.39021,0.21806 -0.84353,0.44185 -0.97552,0.87222 a 3.0757281,3.0757281 0 0 0 -0.0574,0.60826 1.3714534,1.3714534 0 0 1 -0.3443,0.8091 c -0.13772,0.1492 -0.37299,0.51071 -0.57383,0.57383 -0.20084,0.0631 -0.37299,-0.18936 -0.43037,-0.39594 a 3.9422112,3.9422112 0 0 1 0.17215,-2.62814 2.8691493,2.8691493 0 0 0 0.43037,-1.34276 c -0.0459,-0.46481 -0.68285,-0.83779 -0.98698,-0.57383 -0.30413,0.26396 -0.36152,0.95255 -0.74024,0.82057 0.43037,-1.34276 -0.12625,-3.02982 -1.41736,-3.55774 a 7.0179393,7.0179393 0 0 0 -2.12891,-0.29839 5.8186349,5.8186349 0 0 0 -1.04437,-0.11477 z"
       fill="#24221c"
       id="path133"
       style="stroke-width:5.04959" />
    <path
       d="m 621.25541,152.9437 a 15.321258,15.321258 0 0 0 2.97818,-0.88369 c 0.0861,3.10442 -2.43878,3.7471 -2.43878,3.7471 a 14.494943,14.494943 0 0 0 -0.0516,-2.63961 0.28117664,0.28117664 0 0 0 -0.0746,-0.20084 0.33282132,0.33282132 0 0 0 -0.18363,0 h -0.22953 z"
       fill="#c87137"
       id="path135"
       style="stroke-width:5.04959" />
    <path
       d="m 636.17499,170.4897 1.43457,6.2777 a 5.0783943,5.0783943 0 0 1 0.18937,1.60672 c -0.10329,1.01568 -0.79763,1.85347 -1.46327,2.6224 a 10.145312,10.145312 0 0 1 -3.02408,2.67405 8.6590927,8.6590927 0 0 1 -2.57076,0.6886 37.557165,37.557165 0 0 1 -7.0868,0.39594 1.268164,1.268164 0 0 1 -0.54514,-0.10903 1.2566874,1.2566874 0 0 1 -0.41315,-0.43611 24.565657,24.565657 0 0 1 -2.12891,-3.95943 22.212954,22.212954 0 0 1 6.18014,-2.89784 2.5650195,2.5650195 0 0 0 1.19931,-0.57383 2.1002173,2.1002173 0 0 0 0.43037,-0.96403 c 0.93534,-4.01681 -1.22226,-8.49268 0.50497,-12.23979 0.98125,-2.13465 3.07573,-4.42423 4.59064,-1.5723 1.42884,2.59945 2.04857,5.62928 2.70274,8.48695 z"
       fill="#9955ff"
       id="path137"
       style="fill:#241c1c;stroke-width:5.04959" />
    <path
       d="m 618.91993,180.29645 a 5.80142,5.80142 0 0 0 -0.82058,-0.51645 0.95829588,0.95829588 0 0 0 -0.92961,0.0402 c -0.12624,0.0918 -0.22379,0.24101 -0.37872,0.29266 a 0.70581074,0.70581074 0 0 1 -0.30987,0 l -1.91659,-0.19511 a 1.0099406,1.0099406 0 0 0 -0.87796,0.19511 c -0.24675,0.28117 -0.0975,0.72302 0.0689,1.06158 a 29.460426,29.460426 0 0 0 1.64115,2.90358 2.2149833,2.2149833 0 0 0 0.40742,0.51645 1.8764237,1.8764237 0 0 0 0.74598,0.33856 5.6063178,5.6063178 0 0 0 2.98391,-0.12625 8.4180842,8.4180842 0 0 0 2.63962,-1.42883 1.3140704,1.3140704 0 0 0 0.29265,-0.29839 1.0960151,1.0960151 0 0 0 0.13772,-0.45907 c 0.0918,-0.74024 -0.14345,-1.93381 -1.10749,-1.88216 a 3.8733516,3.8733516 0 0 1 -2.57649,-0.44185 z"
       fill="#fdb9a9"
       id="path139"
       style="fill:#a05a2c;stroke-width:5.04959" />
    <path
       d="m 498.01455,232.55514 a 0.36725112,0.36725112 0 0 1 0.16641,-0.14346 c 0.16067,-0.0516 0.30986,0.0918 0.41889,0.21805 0.99273,1.14766 2.47895,1.72149 3.90204,2.23794 0.0861,0.0287 0.19511,0.0574 0.26397,0 0.0689,-0.0574 0.0689,-0.1205 0.0976,-0.17789 a 0.38446601,0.38446601 0 0 1 0.47054,-0.1205 1.6296768,1.6296768 0 0 1 0.41889,0.32134 c 0.57383,0.52793 1.39441,0.74024 2.02562,1.21079 a 0.8664831,0.8664831 0 0 1 0.36152,0.44758 0.62547456,0.62547456 0 0 1 -0.17215,0.57383 1.0902768,1.0902768 0 0 1 -0.57383,0.29839 3.6610346,3.6610346 0 0 1 -1.19931,0.0459 q -2.97818,-0.22379 -5.9334,-0.63121 a 1.1763512,1.1763512 0 0 1 -0.44185,-0.12051 1.1476597,1.1476597 0 0 1 -0.41889,-1.03289 10.541255,10.541255 0 0 1 0.17788,-1.52639 2.9265323,2.9265323 0 0 1 0.43611,-1.60098 z"
       fill="#262836"
       id="path141"
       style="stroke-width:5.04959" />
    <path
       d="m 492.40249,236.11862 a 1.9911896,1.9911896 0 0 0 0.74024,0.25249 3.3798579,3.3798579 0 0 0 1.37719,0.0516 1.210781,1.210781 0 0 0 0.95256,-0.89517 c 0,-0.13772 0.10329,-0.33283 0.22379,-0.2697 a 0.20084045,0.20084045 0 0 1 0.0631,0.0746 4.4357049,4.4357049 0 0 1 0.4935,1.98545 2.1862918,2.1862918 0 0 1 -0.0918,1.10176 1.4345747,1.4345747 0 0 1 -1.01568,0.75172 3.4888856,3.4888856 0 0 1 -1.29112,0 c -0.36725,-0.0574 -0.72876,-0.12622 -1.08454,-0.21803 a 0.92386609,0.92386609 0 0 1 -0.43611,-0.18363 0.97551078,0.97551078 0 0 1 -0.24101,-0.36725 4.2520793,4.2520793 0 0 1 -0.31561,-2.16907 3.2823069,3.2823069 0 0 1 0.0803,-0.46481 c 0,-0.0689 0.0459,-0.37299 0.14346,-0.33856 0.0976,0.0344 0.0746,0.0746 0.0746,0.14346 a 0.66564265,0.66564265 0 0 0 0.0402,0.21232 0.76893203,0.76893203 0 0 0 0.28692,0.33282 z"
       fill="#262836"
       id="path143"
       style="stroke-width:5.04959" />
    <path
       d="m 555.66092,137.92084 a 1.7214896,1.7214896 0 0 1 0.20084,-1.25669 1.5378641,1.5378641 0 0 1 0.70581,-0.4648 4.2578176,4.2578176 0 0 1 0.8837,-0.22953 1.1476597,1.1476597 0 0 0 0.43037,-0.12625 1.3427619,1.3427619 0 0 0 0.27544,-0.32134 2.1116939,2.1116939 0 0 1 1.78461,-0.68286 c 0.65991,0 1.30833,0.1951 1.96824,0.22379 0.6599,0.0287 1.45753,-0.0918 2.05431,0.27544 a 2.2953195,2.2953195 0 0 1 0.87796,1.40015 0.93534269,0.93534269 0 0 1 0.6599,0.15493 c 0.36152,0.33282 0,1.00994 0.31561,1.40588 0.14919,0.18937 0.41316,0.2697 0.57383,0.47054 a 0.90665119,0.90665119 0 0 1 0.0861,0.62548 4.7054049,4.7054049 0 0 1 -0.0976,0.69433 c -0.16067,0.63122 -0.57383,1.14766 -0.76893,1.78461 -0.0975,0.33283 -0.12051,0.68286 -0.20084,1.01568 a 6.1973626,6.1973626 0 0 1 -1.06159,2.03136 11.998783,11.998783 0 0 0 0.10903,-4.59064 0.34429792,0.34429792 0 0 0 -0.20084,-0.33856 0.36725112,0.36725112 0 0 0 -0.2697,0.0402 7.2474713,7.2474713 0 0 1 -4.78574,0.18937 2.8175047,2.8175047 0 0 0 -1.4231,-0.22954 4.7800028,4.7800028 0 0 0 -0.57383,0.21232 0.85500651,0.85500651 0 0 1 -0.60826,0 0.64268945,0.64268945 0 0 0 -0.0631,0.2697 c -0.37299,-0.0861 -0.35004,-0.62547 -0.45333,-0.92386 a 8.8255034,8.8255034 0 0 1 -0.41889,-1.62968 z"
       fill="#2f3554"
       id="path145"
       style="stroke-width:5.04959" />
    <path
       d="m 565.57096,143.38944 a 0.47627879,0.47627879 0 0 1 0.0746,0.1951 1.6067236,1.6067236 0 0 1 -0.20084,1.14766 2.0198811,2.0198811 0 0 1 -0.86648,0.80336 0.74597883,0.74597883 0 0 1 -0.62548,0.0574 0.78040862,0.78040862 0 0 1 -0.33856,-0.60826 1.7214896,1.7214896 0 0 1 0.30987,-1.41736 1.3599768,1.3599768 0 0 1 0.99847,-0.40168 0.81483842,0.81483842 0 0 1 0.64842,0.22379 z"
       fill="#784421"
       id="path147"
       style="stroke-width:5.04959" />
    <path
       d="m 559.86709,148.84082 c 0.0287,0.23527 -0.15493,0.44185 -0.17788,0.67712 -0.023,0.23527 0,0.51645 0,0.77467 a 1.6583683,1.6583683 0 0 1 -0.30987,0.90665 1.7214896,1.7214896 0 0 1 -0.83206,0.4648 5.7956817,5.7956817 0 0 1 -2.01988,0.36725 6.0309519,6.0309519 0 0 1 -0.84927,-0.10902 c -0.45332,-0.0746 -1.62967,-0.0344 -1.72148,-0.65417 a 2.6396174,2.6396174 0 0 1 0.27543,-0.97551 c 0.0516,-0.16641 0.0975,-0.33282 0.14346,-0.49923 0.0459,-0.16641 0.10903,-0.41316 0.15494,-0.61974 0.21805,-0.98699 0.36725,-2.08874 1.14765,-2.76012 0.19511,-0.17789 0.52219,-0.30413 0.70008,-0.10903 0.17788,0.1951 0.11476,0.47628 0.32134,0.52792 a 0.4475873,0.4475873 0 0 0 0.21232,-0.0344 5.1644688,5.1644688 0 0 1 2.45025,-0.45332 0.94108099,0.94108099 0 0 1 0.76893,0.47628 c 0.2238,0.57383 -0.5107,1.14766 -0.33282,1.72149 a 1.325547,1.325547 0 0 1 0.0689,0.29839 z"
       fill="#a05a2c"
       id="path149"
       style="stroke-width:5.04959" />
    <path
       d="m 558.16856,170.89712 a 3.1732792,3.1732792 0 0 0 -0.50497,-0.41316 c 0.11476,2.12891 0.4648,4.35537 1.76739,6.04243 a 13.0202,13.0202 0 0 1 0.94682,1.21652 c 0.57383,0.96403 0.61974,2.21498 1.35424,3.06425 a 4.2807708,4.2807708 0 0 0 2.3527,1.14766 3.2364005,3.2364005 0 0 0 2.36418,-0.0918 3.5462686,3.5462686 0 0 0 1.25669,-1.77888 c 0.49923,-1.18782 1.41736,-2.90358 0.6599,-4.18895 -0.5394,-0.91239 -2.23793,-1.63542 -3.27083,-1.63542 a 26.396174,26.396174 0 0 1 -4.14305,-1.42884 6.5416605,6.5416605 0 0 1 -1.85921,-0.99846 c -0.33282,-0.28118 -0.60826,-0.63121 -0.92386,-0.93534 z"
       fill="#ffffff"
       id="path151"
       style="fill:#ffd5d5;stroke-width:5.04959" />
    <path
       d="m 527.7441,179.68819 a 11.757774,11.757774 0 0 0 -0.51071,4.01681 2.7543834,2.7543834 0 0 1 -0.0631,0.614 c -0.0746,-0.1492 -0.15494,-0.2238 -0.23527,-0.20084 -2.04284,0.57383 -6.4269,1.72149 -8.50416,2.08874 a 2.4732067,2.4732067 0 0 1 -0.91813,0.0459 2.2264599,2.2264599 0 0 1 -0.86074,-0.43611 c -2.57076,-1.8879 -4.01681,-4.69966 -4.9292,-7.66062 a 8.0795246,8.0795246 0 0 1 0.33856,-1.50918 c 1.22226,0.65991 1.85921,2.01415 2.6224,3.17902 a 13.117751,13.117751 0 0 0 2.68552,3.00113 1.9567599,1.9567599 0 0 0 0.72303,0.42463 2.0830024,2.0830024 0 0 0 0.9583,-0.0402 c 3.12163,-0.59105 6.42689,-1.3026 8.69352,-3.52332 z"
       fill="#020202"
       opacity="0.1"
       style="isolation:isolate;stroke-width:5.04959"
       id="path153" />
    <path
       d="m 572.84712,187.29718 a 63.327864,63.327864 0 0 1 -5.68665,4.9005 c -1.41736,1.09602 -2.93227,2.17482 -4.69967,2.51912 a 3.649558,3.649558 0 0 1 -2.11743,-0.13199 5.0611795,5.0611795 0 0 1 -1.48048,-1.14766 c -0.51071,-0.50497 -6.36377,-7.24173 -6.46132,-7.24173 a 1.5493406,1.5493406 0 0 0 -0.71729,0.82058 16.015592,16.015592 0 0 0 -1.5436,5.57189 16.451702,16.451702 0 0 0 0,2.60518 c 0.22953,2.94375 1.26242,5.97931 0.24101,8.75665 a 3.9422112,3.9422112 0 0 1 -0.98125,1.56082 4.7914794,4.7914794 0 0 1 -1.46327,0.84926 33.041124,33.041124 0 0 1 -3.52905,1.17635 3.9364729,3.9364729 0 0 1 -1.79035,0.10903 c -0.3443,-0.0689 -1.21078,-0.68286 -1.45179,-0.65416 a 4.7570496,4.7570496 0 0 0 3.83892,-3.21919 c 0.40742,-1.32555 0.20658,-2.74864 0.21232,-4.13731 a 27.457759,27.457759 0 0 1 0.57383,-4.79148 l 1.22799,-6.71955 c 0.41316,-2.29532 1.25095,-5.55467 3.63808,-6.58757 0.47628,-0.20658 0.99847,0.13198 1.41163,0.45333 2.76586,2.16908 5.58336,4.3898 7.56881,7.29911 0.57383,0.8091 1.09602,1.72149 2.00267,2.08875 0.90665,0.36725 2.09448,0.0402 3.07573,-0.35578 a 36.816924,36.816924 0 0 0 4.26355,-2.04857 c 1.0329,-0.57383 2.39861,-1.87643 3.68399,-1.72149 a 0.95829588,0.95829588 0 0 1 0.18362,0.0459 z"
       fill="#020202"
       opacity="0.1"
       style="isolation:isolate;stroke-width:5.04959"
       id="path155" />
  </g>
</svg>
