<?xml version="1.0" encoding="UTF-8" standalone="no"?>
<svg
   width="909.19"
   height="657.68"
   version="1.1"
   viewBox="0 0 240.56 174.01"
   id="svg236"
   sodipodi:docname="KOMO.svg"
   inkscape:version="1.1.2 (b8e25be833, 2022-02-05)"
   xmlns:inkscape="http://www.inkscape.org/namespaces/inkscape"
   xmlns:sodipodi="http://sodipodi.sourceforge.net/DTD/sodipodi-0.dtd"
   xmlns="http://www.w3.org/2000/svg"
   xmlns:svg="http://www.w3.org/2000/svg"
   xmlns:rdf="http://www.w3.org/1999/02/22-rdf-syntax-ns#"
   xmlns:cc="http://creativecommons.org/ns#"
   xmlns:dc="http://purl.org/dc/elements/1.1/">
  <defs
     id="defs240">
    <rect
       x="-194.67328"
       y="-189.41184"
       width="1253.9766"
       height="982.13548"
       id="rect24713" />
  </defs>
  <sodipodi:namedview
     id="namedview238"
     pagecolor="#ffffff"
     bordercolor="#666666"
     borderopacity="1.0"
     inkscape:pageshadow="2"
     inkscape:pageopacity="0.0"
     inkscape:pagecheckerboard="0"
     showgrid="false"
     inkscape:zoom="0.5701861"
     inkscape:cx="313.05568"
     inkscape:cy="392.85419"
     inkscape:window-width="1920"
     inkscape:window-height="974"
     inkscape:window-x="-11"
     inkscape:window-y="-11"
     inkscape:window-maximized="1"
     inkscape:current-layer="svg236" />
  <metadata
     id="metadata2">
    <rdf:RDF>
      <cc:Work
         rdf:about="">
        <dc:format>image/svg+xml</dc:format>
        <dc:type
           rdf:resource="http://purl.org/dc/dcmitype/StillImage" />
      </cc:Work>
    </rdf:RDF>
  </metadata>
  <g
     id="g34673">
    <rect
       x="40.253967"
       y="10.863886"
       width="155.95076"
       height="112.81522"
       fill="#ffffff"
       id="rect4"
       transform="rotate(-0.05604628)"
       style="stroke-width:0.992306" />
    <rect
       x="-3.3199294"
       y="-15.365207"
       width="243.09012"
       height="165.25948"
       fill="#ffaaaa"
       id="rect6"
       transform="matrix(0.99999958,-9.1926723e-4,0.00104089,0.99999946,0,0)"
       style="stroke-width:0.979641" />
    <g
       transform="matrix(0.99669025,-9.162273e-4,9.7496031e-4,0.93665356,-64.93275,-106.24265)"
       stroke-width="2.1743"
       id="g224">
      <g
         transform="matrix(0,-0.46708,-0.46708,0,256.88,239.25)"
         id="g24">
        <path
           d="m 166.17,141.66 c 0.94059,0.61336 1.0711,2.0762 0.3171,3.2664 -0.75466,1.1912 -2.1323,1.6975 -3.0861,1.1112 -0.95335,-0.58605 -1.1223,-2.0548 -0.34795,-3.2822 0.77497,-1.2284 2.1759,-1.709 3.117,-1.0954 z"
           fill="#005544"
           id="path8" />
        <path
           d="m 274.02,145.73 c -2.6181,2.1082 -6.875,1.1593 -9.5971,-2.0066 -2.6817,-3.119 -3.0107,-7.4847 -0.55501,-9.7785 2.4626,-2.3002 6.9412,-1.5308 9.8187,1.8271 2.9043,3.3891 2.9418,7.8575 0.3334,9.958 z"
           fill="#280b17"
           id="path10" />
        <g
           id="g22">
          <path
             d="m 177.2,126.98 c 0.53622,0.47415 0.81136,1.2004 0.77982,2.0099 -0.0316,0.80982 -0.36692,1.6455 -0.93242,2.3319 -1.1803,1.4326 -3.0579,1.8891 -4.2399,0.97301 -0.56792,-0.44016 -0.88936,-1.1512 -0.87982,-1.9819 0.01,-0.83169 0.35054,-1.7107 0.94926,-2.4344 0.5992,-0.72427 1.3993,-1.2244 2.2147,-1.3903 l 4.5e-4,3.9e-4 c 0.8157,-0.16594 1.5714,0.0169 2.1079,0.4914 z"
             fill="#06483c"
             id="path12" />
          <path
             d="m 192.17,113.72 c 0.48775,0.75083 0.57765,1.7185 0.29629,2.6755 -0.28174,0.95832 -0.91682,1.8497 -1.7758,2.5018 -0.72981,0.55405 -1.5499,0.88746 -2.3531,0.99928 -1.1664,0.16341 -2.3172,-0.14068 -3.0384,-0.97568 l -3.9e-4,-4.5e-4 c -0.58525,-0.6776 -0.80286,-1.6288 -0.56954,-2.6509 0.042,-0.18387 0.0979,-0.36713 0.16695,-0.54843 0.31773,-0.82907 0.91222,-1.612 1.7015,-2.2119 l 6.3e-4,-4.8e-4 c 0.96385,-0.73257 2.1156,-1.1145 3.1727,-1.0648 1.0578,0.0497 1.9102,0.5234 2.3992,1.276 z"
             fill="#0d3c35"
             id="path14" />
          <path
             d="m 212.52,106.58 c 0.009,0.14106 0.009,0.28201 5.6e-4,0.42229 -0.0586,0.9249 -0.50281,1.8248 -1.2009,2.5606 l 6e-5,5.9e-4 c -0.80397,0.84746 -1.9057,1.4413 -3.0996,1.6884 -2.2e-4,4e-5 -4.4e-4,9e-5 -6.6e-4,1.3e-4 -2.5071,0.51885 -5.0749,-0.48317 -5.8043,-2.6024 -0.34967,-1.0183 -0.16409,-2.1829 0.60853,-3.2123 2e-4,-2.7e-4 4e-4,-5.3e-4 6e-4,-8e-4 0.77645,-1.0336 2.0636,-1.8208 3.5574,-2.1281 1.4931,-0.30716 2.9949,-0.0933 4.1207,0.55325 0.97714,0.5612 1.5751,1.3889 1.7613,2.2998 0.0282,0.13778 0.047,0.27745 0.0564,0.41852 z"
             fill="#14302d"
             id="path16" />
          <path
             d="m 235.24,111.53 c -0.54996,1.1292 -1.6397,1.9301 -2.9765,2.3002 -1.3326,0.36807 -2.8206,0.28381 -4.1772,-0.20451 -1.0237,-0.36849 -1.9036,-0.93519 -2.6002,-1.6265 -1.2103,-1.2066 -1.9461,-2.8886 -1.5875,-4.5097 0.27114,-1.226 1.169,-2.2726 2.5712,-2.8213 0.38032,-0.14869 0.7875,-0.25673 1.2133,-0.32258 1.1438,-0.17758 2.4061,-0.0505 3.6069,0.38191 1.6535,0.5954 2.9958,1.6967 3.7249,3.0012 l -2.4e-4,5.3e-4 c 0.72924,1.3047 0.77481,2.6728 0.22545,3.8007 z"
             fill="#1a2326"
             id="path18" />
          <path
             d="m 255.82,125.97 c -0.9647,1.0603 -2.4201,1.5878 -4.0255,1.5227 -1.6028,-0.0654 -3.2379,-0.71483 -4.5805,-1.7951 -2.736,-2.2014 -3.8221,-5.8812 -2.1285,-8.3243 0.81618,-1.1774 2.1985,-1.891 3.8842,-1.9211 1.6842,-0.0301 3.4987,0.62984 5.0007,1.8346 1.5025,1.2052 2.5321,2.826 2.867,4.4697 0.33422,1.6402 -0.0527,3.1532 -1.0174,4.2135 z"
             fill="#21171e"
             id="path20" />
        </g>
      </g>
      <g
         transform="matrix(0.23354,-0.4045,-0.4045,-0.23354,209.9,265.89)"
         id="g42">
        <path
           d="m 166.17,141.66 c 0.94059,0.61336 1.0711,2.0762 0.3171,3.2664 -0.75466,1.1912 -2.1323,1.6975 -3.0861,1.1112 -0.95335,-0.58605 -1.1223,-2.0548 -0.34795,-3.2822 0.77497,-1.2284 2.1759,-1.709 3.117,-1.0954 z"
           fill="#005544"
           id="path26" />
        <path
           d="m 274.02,145.73 c -2.6181,2.1082 -6.875,1.1593 -9.5971,-2.0066 -2.6817,-3.119 -3.0107,-7.4847 -0.55501,-9.7785 2.4626,-2.3002 6.9412,-1.5308 9.8187,1.8271 2.9043,3.3891 2.9418,7.8575 0.3334,9.958 z"
           fill="#280b17"
           id="path28" />
        <g
           id="g40">
          <path
             d="m 177.2,126.98 c 0.53622,0.47415 0.81136,1.2004 0.77982,2.0099 -0.0316,0.80982 -0.36692,1.6455 -0.93242,2.3319 -1.1803,1.4326 -3.0579,1.8891 -4.2399,0.97301 -0.56792,-0.44016 -0.88936,-1.1512 -0.87982,-1.9819 0.01,-0.83169 0.35054,-1.7107 0.94926,-2.4344 0.5992,-0.72427 1.3993,-1.2244 2.2147,-1.3903 l 4.5e-4,3.9e-4 c 0.8157,-0.16594 1.5714,0.0169 2.1079,0.4914 z"
             fill="#06483c"
             id="path30" />
          <path
             d="m 192.17,113.72 c 0.48775,0.75083 0.57765,1.7185 0.29629,2.6755 -0.28174,0.95832 -0.91682,1.8497 -1.7758,2.5018 -0.72981,0.55405 -1.5499,0.88746 -2.3531,0.99928 -1.1664,0.16341 -2.3172,-0.14068 -3.0384,-0.97568 l -3.9e-4,-4.5e-4 c -0.58525,-0.6776 -0.80286,-1.6288 -0.56954,-2.6509 0.042,-0.18387 0.0979,-0.36713 0.16695,-0.54843 0.31773,-0.82907 0.91222,-1.612 1.7015,-2.2119 l 6.3e-4,-4.8e-4 c 0.96385,-0.73257 2.1156,-1.1145 3.1727,-1.0648 1.0578,0.0497 1.9102,0.5234 2.3992,1.276 z"
             fill="#0d3c35"
             id="path32" />
          <path
             d="m 212.52,106.58 c 0.009,0.14106 0.009,0.28201 5.6e-4,0.42229 -0.0586,0.9249 -0.50281,1.8248 -1.2009,2.5606 l 6e-5,5.9e-4 c -0.80397,0.84746 -1.9057,1.4413 -3.0996,1.6884 -2.2e-4,4e-5 -4.4e-4,9e-5 -6.6e-4,1.3e-4 -2.5071,0.51885 -5.0749,-0.48317 -5.8043,-2.6024 -0.34967,-1.0183 -0.16409,-2.1829 0.60853,-3.2123 2e-4,-2.7e-4 4e-4,-5.3e-4 6e-4,-8e-4 0.77645,-1.0336 2.0636,-1.8208 3.5574,-2.1281 1.4931,-0.30716 2.9949,-0.0933 4.1207,0.55325 0.97714,0.5612 1.5751,1.3889 1.7613,2.2998 0.0282,0.13778 0.047,0.27745 0.0564,0.41852 z"
             fill="#14302d"
             id="path34" />
          <path
             d="m 235.24,111.53 c -0.54996,1.1292 -1.6397,1.9301 -2.9765,2.3002 -1.3326,0.36807 -2.8206,0.28381 -4.1772,-0.20451 -1.0237,-0.36849 -1.9036,-0.93519 -2.6002,-1.6265 -1.2103,-1.2066 -1.9461,-2.8886 -1.5875,-4.5097 0.27114,-1.226 1.169,-2.2726 2.5712,-2.8213 0.38032,-0.14869 0.7875,-0.25673 1.2133,-0.32258 1.1438,-0.17758 2.4061,-0.0505 3.6069,0.38191 1.6535,0.5954 2.9958,1.6967 3.7249,3.0012 l -2.4e-4,5.3e-4 c 0.72924,1.3047 0.77481,2.6728 0.22545,3.8007 z"
             fill="#1a2326"
             id="path36" />
          <path
             d="m 255.82,125.97 c -0.9647,1.0603 -2.4201,1.5878 -4.0255,1.5227 -1.6028,-0.0654 -3.2379,-0.71483 -4.5805,-1.7951 -2.736,-2.2014 -3.8221,-5.8812 -2.1285,-8.3243 0.81618,-1.1774 2.1985,-1.891 3.8842,-1.9211 1.6842,-0.0301 3.4987,0.62984 5.0007,1.8346 1.5025,1.2052 2.5321,2.826 2.867,4.4697 0.33422,1.6402 -0.0527,3.1532 -1.0174,4.2135 z"
             fill="#21171e"
             id="path38" />
        </g>
      </g>
      <g
         transform="matrix(0.4045,-0.23354,-0.23354,-0.4045,155.88,265.47)"
         id="g60">
        <path
           d="m 166.17,141.66 c 0.94059,0.61336 1.0711,2.0762 0.3171,3.2664 -0.75466,1.1912 -2.1323,1.6975 -3.0861,1.1112 -0.95335,-0.58605 -1.1223,-2.0548 -0.34795,-3.2822 0.77497,-1.2284 2.1759,-1.709 3.117,-1.0954 z"
           fill="#005544"
           id="path44" />
        <path
           d="m 274.02,145.73 c -2.6181,2.1082 -6.875,1.1593 -9.5971,-2.0066 -2.6817,-3.119 -3.0107,-7.4847 -0.55501,-9.7785 2.4626,-2.3002 6.9412,-1.5308 9.8187,1.8271 2.9043,3.3891 2.9418,7.8575 0.3334,9.958 z"
           fill="#280b17"
           id="path46" />
        <g
           id="g58">
          <path
             d="m 177.2,126.98 c 0.53622,0.47415 0.81136,1.2004 0.77982,2.0099 -0.0316,0.80982 -0.36692,1.6455 -0.93242,2.3319 -1.1803,1.4326 -3.0579,1.8891 -4.2399,0.97301 -0.56792,-0.44016 -0.88936,-1.1512 -0.87982,-1.9819 0.01,-0.83169 0.35054,-1.7107 0.94926,-2.4344 0.5992,-0.72427 1.3993,-1.2244 2.2147,-1.3903 l 4.5e-4,3.9e-4 c 0.8157,-0.16594 1.5714,0.0169 2.1079,0.4914 z"
             fill="#06483c"
             id="path48" />
          <path
             d="m 192.17,113.72 c 0.48775,0.75083 0.57765,1.7185 0.29629,2.6755 -0.28174,0.95832 -0.91682,1.8497 -1.7758,2.5018 -0.72981,0.55405 -1.5499,0.88746 -2.3531,0.99928 -1.1664,0.16341 -2.3172,-0.14068 -3.0384,-0.97568 l -3.9e-4,-4.5e-4 c -0.58525,-0.6776 -0.80286,-1.6288 -0.56954,-2.6509 0.042,-0.18387 0.0979,-0.36713 0.16695,-0.54843 0.31773,-0.82907 0.91222,-1.612 1.7015,-2.2119 l 6.3e-4,-4.8e-4 c 0.96385,-0.73257 2.1156,-1.1145 3.1727,-1.0648 1.0578,0.0497 1.9102,0.5234 2.3992,1.276 z"
             fill="#0d3c35"
             id="path50" />
          <path
             d="m 212.52,106.58 c 0.009,0.14106 0.009,0.28201 5.6e-4,0.42229 -0.0586,0.9249 -0.50281,1.8248 -1.2009,2.5606 l 6e-5,5.9e-4 c -0.80397,0.84746 -1.9057,1.4413 -3.0996,1.6884 -2.2e-4,4e-5 -4.4e-4,9e-5 -6.6e-4,1.3e-4 -2.5071,0.51885 -5.0749,-0.48317 -5.8043,-2.6024 -0.34967,-1.0183 -0.16409,-2.1829 0.60853,-3.2123 2e-4,-2.7e-4 4e-4,-5.3e-4 6e-4,-8e-4 0.77645,-1.0336 2.0636,-1.8208 3.5574,-2.1281 1.4931,-0.30716 2.9949,-0.0933 4.1207,0.55325 0.97714,0.5612 1.5751,1.3889 1.7613,2.2998 0.0282,0.13778 0.047,0.27745 0.0564,0.41852 z"
             fill="#14302d"
             id="path52" />
          <path
             d="m 235.24,111.53 c -0.54996,1.1292 -1.6397,1.9301 -2.9765,2.3002 -1.3326,0.36807 -2.8206,0.28381 -4.1772,-0.20451 -1.0237,-0.36849 -1.9036,-0.93519 -2.6002,-1.6265 -1.2103,-1.2066 -1.9461,-2.8886 -1.5875,-4.5097 0.27114,-1.226 1.169,-2.2726 2.5712,-2.8213 0.38032,-0.14869 0.7875,-0.25673 1.2133,-0.32258 1.1438,-0.17758 2.4061,-0.0505 3.6069,0.38191 1.6535,0.5954 2.9958,1.6967 3.7249,3.0012 l -2.4e-4,5.3e-4 c 0.72924,1.3047 0.77481,2.6728 0.22545,3.8007 z"
             fill="#1a2326"
             id="path54" />
          <path
             d="m 255.82,125.97 c -0.9647,1.0603 -2.4201,1.5878 -4.0255,1.5227 -1.6028,-0.0654 -3.2379,-0.71483 -4.5805,-1.7951 -2.736,-2.2014 -3.8221,-5.8812 -2.1285,-8.3243 0.81618,-1.1774 2.1985,-1.891 3.8842,-1.9211 1.6842,-0.0301 3.4987,0.62984 5.0007,1.8346 1.5025,1.2052 2.5321,2.826 2.867,4.4697 0.33422,1.6402 -0.0527,3.1532 -1.0174,4.2135 z"
             fill="#21171e"
             id="path56" />
        </g>
      </g>
      <g
         transform="matrix(0.46708,0,0,-0.46708,109.32,238.1)"
         id="g78">
        <path
           d="m 166.17,141.66 c 0.94059,0.61336 1.0711,2.0762 0.3171,3.2664 -0.75466,1.1912 -2.1323,1.6975 -3.0861,1.1112 -0.95335,-0.58605 -1.1223,-2.0548 -0.34795,-3.2822 0.77497,-1.2284 2.1759,-1.709 3.117,-1.0954 z"
           fill="#005544"
           id="path62" />
        <path
           d="m 274.02,145.73 c -2.6181,2.1082 -6.875,1.1593 -9.5971,-2.0066 -2.6817,-3.119 -3.0107,-7.4847 -0.55501,-9.7785 2.4626,-2.3002 6.9412,-1.5308 9.8187,1.8271 2.9043,3.3891 2.9418,7.8575 0.3334,9.958 z"
           fill="#280b17"
           id="path64" />
        <g
           id="g76">
          <path
             d="m 177.2,126.98 c 0.53622,0.47415 0.81136,1.2004 0.77982,2.0099 -0.0316,0.80982 -0.36692,1.6455 -0.93242,2.3319 -1.1803,1.4326 -3.0579,1.8891 -4.2399,0.97301 -0.56792,-0.44016 -0.88936,-1.1512 -0.87982,-1.9819 0.01,-0.83169 0.35054,-1.7107 0.94926,-2.4344 0.5992,-0.72427 1.3993,-1.2244 2.2147,-1.3903 l 4.5e-4,3.9e-4 c 0.8157,-0.16594 1.5714,0.0169 2.1079,0.4914 z"
             fill="#06483c"
             id="path66" />
          <path
             d="m 192.17,113.72 c 0.48775,0.75083 0.57765,1.7185 0.29629,2.6755 -0.28174,0.95832 -0.91682,1.8497 -1.7758,2.5018 -0.72981,0.55405 -1.5499,0.88746 -2.3531,0.99928 -1.1664,0.16341 -2.3172,-0.14068 -3.0384,-0.97568 l -3.9e-4,-4.5e-4 c -0.58525,-0.6776 -0.80286,-1.6288 -0.56954,-2.6509 0.042,-0.18387 0.0979,-0.36713 0.16695,-0.54843 0.31773,-0.82907 0.91222,-1.612 1.7015,-2.2119 l 6.3e-4,-4.8e-4 c 0.96385,-0.73257 2.1156,-1.1145 3.1727,-1.0648 1.0578,0.0497 1.9102,0.5234 2.3992,1.276 z"
             fill="#0d3c35"
             id="path68" />
          <path
             d="m 212.52,106.58 c 0.009,0.14106 0.009,0.28201 5.6e-4,0.42229 -0.0586,0.9249 -0.50281,1.8248 -1.2009,2.5606 l 6e-5,5.9e-4 c -0.80397,0.84746 -1.9057,1.4413 -3.0996,1.6884 -2.2e-4,4e-5 -4.4e-4,9e-5 -6.6e-4,1.3e-4 -2.5071,0.51885 -5.0749,-0.48317 -5.8043,-2.6024 -0.34967,-1.0183 -0.16409,-2.1829 0.60853,-3.2123 2e-4,-2.7e-4 4e-4,-5.3e-4 6e-4,-8e-4 0.77645,-1.0336 2.0636,-1.8208 3.5574,-2.1281 1.4931,-0.30716 2.9949,-0.0933 4.1207,0.55325 0.97714,0.5612 1.5751,1.3889 1.7613,2.2998 0.0282,0.13778 0.047,0.27745 0.0564,0.41852 z"
             fill="#14302d"
             id="path70" />
          <path
             d="m 235.24,111.53 c -0.54996,1.1292 -1.6397,1.9301 -2.9765,2.3002 -1.3326,0.36807 -2.8206,0.28381 -4.1772,-0.20451 -1.0237,-0.36849 -1.9036,-0.93519 -2.6002,-1.6265 -1.2103,-1.2066 -1.9461,-2.8886 -1.5875,-4.5097 0.27114,-1.226 1.169,-2.2726 2.5712,-2.8213 0.38032,-0.14869 0.7875,-0.25673 1.2133,-0.32258 1.1438,-0.17758 2.4061,-0.0505 3.6069,0.38191 1.6535,0.5954 2.9958,1.6967 3.7249,3.0012 l -2.4e-4,5.3e-4 c 0.72924,1.3047 0.77481,2.6728 0.22545,3.8007 z"
             fill="#1a2326"
             id="path72" />
          <path
             d="m 255.82,125.97 c -0.9647,1.0603 -2.4201,1.5878 -4.0255,1.5227 -1.6028,-0.0654 -3.2379,-0.71483 -4.5805,-1.7951 -2.736,-2.2014 -3.8221,-5.8812 -2.1285,-8.3243 0.81618,-1.1774 2.1985,-1.891 3.8842,-1.9211 1.6842,-0.0301 3.4987,0.62984 5.0007,1.8346 1.5025,1.2052 2.5321,2.826 2.867,4.4697 0.33422,1.6402 -0.0527,3.1532 -1.0174,4.2135 z"
             fill="#21171e"
             id="path74" />
        </g>
      </g>
      <g
         transform="matrix(0.4045,0.23354,0.23354,-0.4045,82.673,191.11)"
         id="g96">
        <path
           d="m 166.17,141.66 c 0.94059,0.61336 1.0711,2.0762 0.3171,3.2664 -0.75466,1.1912 -2.1323,1.6975 -3.0861,1.1112 -0.95335,-0.58605 -1.1223,-2.0548 -0.34795,-3.2822 0.77497,-1.2284 2.1759,-1.709 3.117,-1.0954 z"
           fill="#005544"
           id="path80" />
        <path
           d="m 274.02,145.73 c -2.6181,2.1082 -6.875,1.1593 -9.5971,-2.0066 -2.6817,-3.119 -3.0107,-7.4847 -0.55501,-9.7785 2.4626,-2.3002 6.9412,-1.5308 9.8187,1.8271 2.9043,3.3891 2.9418,7.8575 0.3334,9.958 z"
           fill="#280b17"
           id="path82" />
        <g
           id="g94">
          <path
             d="m 177.2,126.98 c 0.53622,0.47415 0.81136,1.2004 0.77982,2.0099 -0.0316,0.80982 -0.36692,1.6455 -0.93242,2.3319 -1.1803,1.4326 -3.0579,1.8891 -4.2399,0.97301 -0.56792,-0.44016 -0.88936,-1.1512 -0.87982,-1.9819 0.01,-0.83169 0.35054,-1.7107 0.94926,-2.4344 0.5992,-0.72427 1.3993,-1.2244 2.2147,-1.3903 l 4.5e-4,3.9e-4 c 0.8157,-0.16594 1.5714,0.0169 2.1079,0.4914 z"
             fill="#06483c"
             id="path84" />
          <path
             d="m 192.17,113.72 c 0.48775,0.75083 0.57765,1.7185 0.29629,2.6755 -0.28174,0.95832 -0.91682,1.8497 -1.7758,2.5018 -0.72981,0.55405 -1.5499,0.88746 -2.3531,0.99928 -1.1664,0.16341 -2.3172,-0.14068 -3.0384,-0.97568 l -3.9e-4,-4.5e-4 c -0.58525,-0.6776 -0.80286,-1.6288 -0.56954,-2.6509 0.042,-0.18387 0.0979,-0.36713 0.16695,-0.54843 0.31773,-0.82907 0.91222,-1.612 1.7015,-2.2119 l 6.3e-4,-4.8e-4 c 0.96385,-0.73257 2.1156,-1.1145 3.1727,-1.0648 1.0578,0.0497 1.9102,0.5234 2.3992,1.276 z"
             fill="#0d3c35"
             id="path86" />
          <path
             d="m 212.52,106.58 c 0.009,0.14106 0.009,0.28201 5.6e-4,0.42229 -0.0586,0.9249 -0.50281,1.8248 -1.2009,2.5606 l 6e-5,5.9e-4 c -0.80397,0.84746 -1.9057,1.4413 -3.0996,1.6884 -2.2e-4,4e-5 -4.4e-4,9e-5 -6.6e-4,1.3e-4 -2.5071,0.51885 -5.0749,-0.48317 -5.8043,-2.6024 -0.34967,-1.0183 -0.16409,-2.1829 0.60853,-3.2123 2e-4,-2.7e-4 4e-4,-5.3e-4 6e-4,-8e-4 0.77645,-1.0336 2.0636,-1.8208 3.5574,-2.1281 1.4931,-0.30716 2.9949,-0.0933 4.1207,0.55325 0.97714,0.5612 1.5751,1.3889 1.7613,2.2998 0.0282,0.13778 0.047,0.27745 0.0564,0.41852 z"
             fill="#14302d"
             id="path88" />
          <path
             d="m 235.24,111.53 c -0.54996,1.1292 -1.6397,1.9301 -2.9765,2.3002 -1.3326,0.36807 -2.8206,0.28381 -4.1772,-0.20451 -1.0237,-0.36849 -1.9036,-0.93519 -2.6002,-1.6265 -1.2103,-1.2066 -1.9461,-2.8886 -1.5875,-4.5097 0.27114,-1.226 1.169,-2.2726 2.5712,-2.8213 0.38032,-0.14869 0.7875,-0.25673 1.2133,-0.32258 1.1438,-0.17758 2.4061,-0.0505 3.6069,0.38191 1.6535,0.5954 2.9958,1.6967 3.7249,3.0012 l -2.4e-4,5.3e-4 c 0.72924,1.3047 0.77481,2.6728 0.22545,3.8007 z"
             fill="#1a2326"
             id="path90" />
          <path
             d="m 255.82,125.97 c -0.9647,1.0603 -2.4201,1.5878 -4.0255,1.5227 -1.6028,-0.0654 -3.2379,-0.71483 -4.5805,-1.7951 -2.736,-2.2014 -3.8221,-5.8812 -2.1285,-8.3243 0.81618,-1.1774 2.1985,-1.891 3.8842,-1.9211 1.6842,-0.0301 3.4987,0.62984 5.0007,1.8346 1.5025,1.2052 2.5321,2.826 2.867,4.4697 0.33422,1.6402 -0.0527,3.1532 -1.0174,4.2135 z"
             fill="#21171e"
             id="path92" />
        </g>
      </g>
      <g
         transform="matrix(0.23354,0.4045,0.4045,-0.23354,83.094,137.1)"
         id="g114">
        <path
           d="m 166.17,141.66 c 0.94059,0.61336 1.0711,2.0762 0.3171,3.2664 -0.75466,1.1912 -2.1323,1.6975 -3.0861,1.1112 -0.95335,-0.58605 -1.1223,-2.0548 -0.34795,-3.2822 0.77497,-1.2284 2.1759,-1.709 3.117,-1.0954 z"
           fill="#005544"
           id="path98" />
        <path
           d="m 274.02,145.73 c -2.6181,2.1082 -6.875,1.1593 -9.5971,-2.0066 -2.6817,-3.119 -3.0107,-7.4847 -0.55501,-9.7785 2.4626,-2.3002 6.9412,-1.5308 9.8187,1.8271 2.9043,3.3891 2.9418,7.8575 0.3334,9.958 z"
           fill="#280b17"
           id="path100" />
        <g
           id="g112">
          <path
             d="m 177.2,126.98 c 0.53622,0.47415 0.81136,1.2004 0.77982,2.0099 -0.0316,0.80982 -0.36692,1.6455 -0.93242,2.3319 -1.1803,1.4326 -3.0579,1.8891 -4.2399,0.97301 -0.56792,-0.44016 -0.88936,-1.1512 -0.87982,-1.9819 0.01,-0.83169 0.35054,-1.7107 0.94926,-2.4344 0.5992,-0.72427 1.3993,-1.2244 2.2147,-1.3903 l 4.5e-4,3.9e-4 c 0.8157,-0.16594 1.5714,0.0169 2.1079,0.4914 z"
             fill="#06483c"
             id="path102" />
          <path
             d="m 192.17,113.72 c 0.48775,0.75083 0.57765,1.7185 0.29629,2.6755 -0.28174,0.95832 -0.91682,1.8497 -1.7758,2.5018 -0.72981,0.55405 -1.5499,0.88746 -2.3531,0.99928 -1.1664,0.16341 -2.3172,-0.14068 -3.0384,-0.97568 l -3.9e-4,-4.5e-4 c -0.58525,-0.6776 -0.80286,-1.6288 -0.56954,-2.6509 0.042,-0.18387 0.0979,-0.36713 0.16695,-0.54843 0.31773,-0.82907 0.91222,-1.612 1.7015,-2.2119 l 6.3e-4,-4.8e-4 c 0.96385,-0.73257 2.1156,-1.1145 3.1727,-1.0648 1.0578,0.0497 1.9102,0.5234 2.3992,1.276 z"
             fill="#0d3c35"
             id="path104" />
          <path
             d="m 212.52,106.58 c 0.009,0.14106 0.009,0.28201 5.6e-4,0.42229 -0.0586,0.9249 -0.50281,1.8248 -1.2009,2.5606 l 6e-5,5.9e-4 c -0.80397,0.84746 -1.9057,1.4413 -3.0996,1.6884 -2.2e-4,4e-5 -4.4e-4,9e-5 -6.6e-4,1.3e-4 -2.5071,0.51885 -5.0749,-0.48317 -5.8043,-2.6024 -0.34967,-1.0183 -0.16409,-2.1829 0.60853,-3.2123 2e-4,-2.7e-4 4e-4,-5.3e-4 6e-4,-8e-4 0.77645,-1.0336 2.0636,-1.8208 3.5574,-2.1281 1.4931,-0.30716 2.9949,-0.0933 4.1207,0.55325 0.97714,0.5612 1.5751,1.3889 1.7613,2.2998 0.0282,0.13778 0.047,0.27745 0.0564,0.41852 z"
             fill="#14302d"
             id="path106" />
          <path
             d="m 235.24,111.53 c -0.54996,1.1292 -1.6397,1.9301 -2.9765,2.3002 -1.3326,0.36807 -2.8206,0.28381 -4.1772,-0.20451 -1.0237,-0.36849 -1.9036,-0.93519 -2.6002,-1.6265 -1.2103,-1.2066 -1.9461,-2.8886 -1.5875,-4.5097 0.27114,-1.226 1.169,-2.2726 2.5712,-2.8213 0.38032,-0.14869 0.7875,-0.25673 1.2133,-0.32258 1.1438,-0.17758 2.4061,-0.0505 3.6069,0.38191 1.6535,0.5954 2.9958,1.6967 3.7249,3.0012 l -2.4e-4,5.3e-4 c 0.72924,1.3047 0.77481,2.6728 0.22545,3.8007 z"
             fill="#1a2326"
             id="path108" />
          <path
             d="m 255.82,125.97 c -0.9647,1.0603 -2.4201,1.5878 -4.0255,1.5227 -1.6028,-0.0654 -3.2379,-0.71483 -4.5805,-1.7951 -2.736,-2.2014 -3.8221,-5.8812 -2.1285,-8.3243 0.81618,-1.1774 2.1985,-1.891 3.8842,-1.9211 1.6842,-0.0301 3.4987,0.62984 5.0007,1.8346 1.5025,1.2052 2.5321,2.826 2.867,4.4697 0.33422,1.6402 -0.0527,3.1532 -1.0174,4.2135 z"
             fill="#21171e"
             id="path110" />
        </g>
      </g>
      <g
         transform="matrix(0,0.46708,0.46708,0,110.47,90.534)"
         id="g132">
        <path
           d="m 166.17,141.66 c 0.94059,0.61336 1.0711,2.0762 0.3171,3.2664 -0.75466,1.1912 -2.1323,1.6975 -3.0861,1.1112 -0.95335,-0.58605 -1.1223,-2.0548 -0.34795,-3.2822 0.77497,-1.2284 2.1759,-1.709 3.117,-1.0954 z"
           fill="#005544"
           id="path116" />
        <path
           d="m 274.02,145.73 c -2.6181,2.1082 -6.875,1.1593 -9.5971,-2.0066 -2.6817,-3.119 -3.0107,-7.4847 -0.55501,-9.7785 2.4626,-2.3002 6.9412,-1.5308 9.8187,1.8271 2.9043,3.3891 2.9418,7.8575 0.3334,9.958 z"
           fill="#280b17"
           id="path118" />
        <g
           id="g130">
          <path
             d="m 177.2,126.98 c 0.53622,0.47415 0.81136,1.2004 0.77982,2.0099 -0.0316,0.80982 -0.36692,1.6455 -0.93242,2.3319 -1.1803,1.4326 -3.0579,1.8891 -4.2399,0.97301 -0.56792,-0.44016 -0.88936,-1.1512 -0.87982,-1.9819 0.01,-0.83169 0.35054,-1.7107 0.94926,-2.4344 0.5992,-0.72427 1.3993,-1.2244 2.2147,-1.3903 l 4.5e-4,3.9e-4 c 0.8157,-0.16594 1.5714,0.0169 2.1079,0.4914 z"
             fill="#06483c"
             id="path120" />
          <path
             d="m 192.17,113.72 c 0.48775,0.75083 0.57765,1.7185 0.29629,2.6755 -0.28174,0.95832 -0.91682,1.8497 -1.7758,2.5018 -0.72981,0.55405 -1.5499,0.88746 -2.3531,0.99928 -1.1664,0.16341 -2.3172,-0.14068 -3.0384,-0.97568 l -3.9e-4,-4.5e-4 c -0.58525,-0.6776 -0.80286,-1.6288 -0.56954,-2.6509 0.042,-0.18387 0.0979,-0.36713 0.16695,-0.54843 0.31773,-0.82907 0.91222,-1.612 1.7015,-2.2119 l 6.3e-4,-4.8e-4 c 0.96385,-0.73257 2.1156,-1.1145 3.1727,-1.0648 1.0578,0.0497 1.9102,0.5234 2.3992,1.276 z"
             fill="#0d3c35"
             id="path122" />
          <path
             d="m 212.52,106.58 c 0.009,0.14106 0.009,0.28201 5.6e-4,0.42229 -0.0586,0.9249 -0.50281,1.8248 -1.2009,2.5606 l 6e-5,5.9e-4 c -0.80397,0.84746 -1.9057,1.4413 -3.0996,1.6884 -2.2e-4,4e-5 -4.4e-4,9e-5 -6.6e-4,1.3e-4 -2.5071,0.51885 -5.0749,-0.48317 -5.8043,-2.6024 -0.34967,-1.0183 -0.16409,-2.1829 0.60853,-3.2123 2e-4,-2.7e-4 4e-4,-5.3e-4 6e-4,-8e-4 0.77645,-1.0336 2.0636,-1.8208 3.5574,-2.1281 1.4931,-0.30716 2.9949,-0.0933 4.1207,0.55325 0.97714,0.5612 1.5751,1.3889 1.7613,2.2998 0.0282,0.13778 0.047,0.27745 0.0564,0.41852 z"
             fill="#14302d"
             id="path124" />
          <path
             d="m 235.24,111.53 c -0.54996,1.1292 -1.6397,1.9301 -2.9765,2.3002 -1.3326,0.36807 -2.8206,0.28381 -4.1772,-0.20451 -1.0237,-0.36849 -1.9036,-0.93519 -2.6002,-1.6265 -1.2103,-1.2066 -1.9461,-2.8886 -1.5875,-4.5097 0.27114,-1.226 1.169,-2.2726 2.5712,-2.8213 0.38032,-0.14869 0.7875,-0.25673 1.2133,-0.32258 1.1438,-0.17758 2.4061,-0.0505 3.6069,0.38191 1.6535,0.5954 2.9958,1.6967 3.7249,3.0012 l -2.4e-4,5.3e-4 c 0.72924,1.3047 0.77481,2.6728 0.22545,3.8007 z"
             fill="#1a2326"
             id="path126" />
          <path
             d="m 255.82,125.97 c -0.9647,1.0603 -2.4201,1.5878 -4.0255,1.5227 -1.6028,-0.0654 -3.2379,-0.71483 -4.5805,-1.7951 -2.736,-2.2014 -3.8221,-5.8812 -2.1285,-8.3243 0.81618,-1.1774 2.1985,-1.891 3.8842,-1.9211 1.6842,-0.0301 3.4987,0.62984 5.0007,1.8346 1.5025,1.2052 2.5321,2.826 2.867,4.4697 0.33422,1.6402 -0.0527,3.1532 -1.0174,4.2135 z"
             fill="#21171e"
             id="path128" />
        </g>
      </g>
      <g
         transform="matrix(-0.23354,0.4045,0.4045,0.23354,157.45,63.892)"
         id="g150">
        <path
           d="m 166.17,141.66 c 0.94059,0.61336 1.0711,2.0762 0.3171,3.2664 -0.75466,1.1912 -2.1323,1.6975 -3.0861,1.1112 -0.95335,-0.58605 -1.1223,-2.0548 -0.34795,-3.2822 0.77497,-1.2284 2.1759,-1.709 3.117,-1.0954 z"
           fill="#005544"
           id="path134" />
        <path
           d="m 274.02,145.73 c -2.6181,2.1082 -6.875,1.1593 -9.5971,-2.0066 -2.6817,-3.119 -3.0107,-7.4847 -0.55501,-9.7785 2.4626,-2.3002 6.9412,-1.5308 9.8187,1.8271 2.9043,3.3891 2.9418,7.8575 0.3334,9.958 z"
           fill="#280b17"
           id="path136" />
        <g
           id="g148">
          <path
             d="m 177.2,126.98 c 0.53622,0.47415 0.81136,1.2004 0.77982,2.0099 -0.0316,0.80982 -0.36692,1.6455 -0.93242,2.3319 -1.1803,1.4326 -3.0579,1.8891 -4.2399,0.97301 -0.56792,-0.44016 -0.88936,-1.1512 -0.87982,-1.9819 0.01,-0.83169 0.35054,-1.7107 0.94926,-2.4344 0.5992,-0.72427 1.3993,-1.2244 2.2147,-1.3903 l 4.5e-4,3.9e-4 c 0.8157,-0.16594 1.5714,0.0169 2.1079,0.4914 z"
             fill="#06483c"
             id="path138" />
          <path
             d="m 192.17,113.72 c 0.48775,0.75083 0.57765,1.7185 0.29629,2.6755 -0.28174,0.95832 -0.91682,1.8497 -1.7758,2.5018 -0.72981,0.55405 -1.5499,0.88746 -2.3531,0.99928 -1.1664,0.16341 -2.3172,-0.14068 -3.0384,-0.97568 l -3.9e-4,-4.5e-4 c -0.58525,-0.6776 -0.80286,-1.6288 -0.56954,-2.6509 0.042,-0.18387 0.0979,-0.36713 0.16695,-0.54843 0.31773,-0.82907 0.91222,-1.612 1.7015,-2.2119 l 6.3e-4,-4.8e-4 c 0.96385,-0.73257 2.1156,-1.1145 3.1727,-1.0648 1.0578,0.0497 1.9102,0.5234 2.3992,1.276 z"
             fill="#0d3c35"
             id="path140" />
          <path
             d="m 212.52,106.58 c 0.009,0.14106 0.009,0.28201 5.6e-4,0.42229 -0.0586,0.9249 -0.50281,1.8248 -1.2009,2.5606 l 6e-5,5.9e-4 c -0.80397,0.84746 -1.9057,1.4413 -3.0996,1.6884 -2.2e-4,4e-5 -4.4e-4,9e-5 -6.6e-4,1.3e-4 -2.5071,0.51885 -5.0749,-0.48317 -5.8043,-2.6024 -0.34967,-1.0183 -0.16409,-2.1829 0.60853,-3.2123 2e-4,-2.7e-4 4e-4,-5.3e-4 6e-4,-8e-4 0.77645,-1.0336 2.0636,-1.8208 3.5574,-2.1281 1.4931,-0.30716 2.9949,-0.0933 4.1207,0.55325 0.97714,0.5612 1.5751,1.3889 1.7613,2.2998 0.0282,0.13778 0.047,0.27745 0.0564,0.41852 z"
             fill="#14302d"
             id="path142" />
          <path
             d="m 235.24,111.53 c -0.54996,1.1292 -1.6397,1.9301 -2.9765,2.3002 -1.3326,0.36807 -2.8206,0.28381 -4.1772,-0.20451 -1.0237,-0.36849 -1.9036,-0.93519 -2.6002,-1.6265 -1.2103,-1.2066 -1.9461,-2.8886 -1.5875,-4.5097 0.27114,-1.226 1.169,-2.2726 2.5712,-2.8213 0.38032,-0.14869 0.7875,-0.25673 1.2133,-0.32258 1.1438,-0.17758 2.4061,-0.0505 3.6069,0.38191 1.6535,0.5954 2.9958,1.6967 3.7249,3.0012 l -2.4e-4,5.3e-4 c 0.72924,1.3047 0.77481,2.6728 0.22545,3.8007 z"
             fill="#1a2326"
             id="path144" />
          <path
             d="m 255.82,125.97 c -0.9647,1.0603 -2.4201,1.5878 -4.0255,1.5227 -1.6028,-0.0654 -3.2379,-0.71483 -4.5805,-1.7951 -2.736,-2.2014 -3.8221,-5.8812 -2.1285,-8.3243 0.81618,-1.1774 2.1985,-1.891 3.8842,-1.9211 1.6842,-0.0301 3.4987,0.62984 5.0007,1.8346 1.5025,1.2052 2.5321,2.826 2.867,4.4697 0.33422,1.6402 -0.0527,3.1532 -1.0174,4.2135 z"
             fill="#21171e"
             id="path146" />
        </g>
      </g>
      <g
         transform="matrix(-0.4045,0.23354,0.23354,0.4045,211.47,64.313)"
         id="g168">
        <path
           d="m 166.17,141.66 c 0.94059,0.61336 1.0711,2.0762 0.3171,3.2664 -0.75466,1.1912 -2.1323,1.6975 -3.0861,1.1112 -0.95335,-0.58605 -1.1223,-2.0548 -0.34795,-3.2822 0.77497,-1.2284 2.1759,-1.709 3.117,-1.0954 z"
           fill="#005544"
           id="path152" />
        <path
           d="m 274.02,145.73 c -2.6181,2.1082 -6.875,1.1593 -9.5971,-2.0066 -2.6817,-3.119 -3.0107,-7.4847 -0.55501,-9.7785 2.4626,-2.3002 6.9412,-1.5308 9.8187,1.8271 2.9043,3.3891 2.9418,7.8575 0.3334,9.958 z"
           fill="#280b17"
           id="path154" />
        <g
           id="g166">
          <path
             d="m 177.2,126.98 c 0.53622,0.47415 0.81136,1.2004 0.77982,2.0099 -0.0316,0.80982 -0.36692,1.6455 -0.93242,2.3319 -1.1803,1.4326 -3.0579,1.8891 -4.2399,0.97301 -0.56792,-0.44016 -0.88936,-1.1512 -0.87982,-1.9819 0.01,-0.83169 0.35054,-1.7107 0.94926,-2.4344 0.5992,-0.72427 1.3993,-1.2244 2.2147,-1.3903 l 4.5e-4,3.9e-4 c 0.8157,-0.16594 1.5714,0.0169 2.1079,0.4914 z"
             fill="#06483c"
             id="path156" />
          <path
             d="m 192.17,113.72 c 0.48775,0.75083 0.57765,1.7185 0.29629,2.6755 -0.28174,0.95832 -0.91682,1.8497 -1.7758,2.5018 -0.72981,0.55405 -1.5499,0.88746 -2.3531,0.99928 -1.1664,0.16341 -2.3172,-0.14068 -3.0384,-0.97568 l -3.9e-4,-4.5e-4 c -0.58525,-0.6776 -0.80286,-1.6288 -0.56954,-2.6509 0.042,-0.18387 0.0979,-0.36713 0.16695,-0.54843 0.31773,-0.82907 0.91222,-1.612 1.7015,-2.2119 l 6.3e-4,-4.8e-4 c 0.96385,-0.73257 2.1156,-1.1145 3.1727,-1.0648 1.0578,0.0497 1.9102,0.5234 2.3992,1.276 z"
             fill="#0d3c35"
             id="path158" />
          <path
             d="m 212.52,106.58 c 0.009,0.14106 0.009,0.28201 5.6e-4,0.42229 -0.0586,0.9249 -0.50281,1.8248 -1.2009,2.5606 l 6e-5,5.9e-4 c -0.80397,0.84746 -1.9057,1.4413 -3.0996,1.6884 -2.2e-4,4e-5 -4.4e-4,9e-5 -6.6e-4,1.3e-4 -2.5071,0.51885 -5.0749,-0.48317 -5.8043,-2.6024 -0.34967,-1.0183 -0.16409,-2.1829 0.60853,-3.2123 2e-4,-2.7e-4 4e-4,-5.3e-4 6e-4,-8e-4 0.77645,-1.0336 2.0636,-1.8208 3.5574,-2.1281 1.4931,-0.30716 2.9949,-0.0933 4.1207,0.55325 0.97714,0.5612 1.5751,1.3889 1.7613,2.2998 0.0282,0.13778 0.047,0.27745 0.0564,0.41852 z"
             fill="#14302d"
             id="path160" />
          <path
             d="m 235.24,111.53 c -0.54996,1.1292 -1.6397,1.9301 -2.9765,2.3002 -1.3326,0.36807 -2.8206,0.28381 -4.1772,-0.20451 -1.0237,-0.36849 -1.9036,-0.93519 -2.6002,-1.6265 -1.2103,-1.2066 -1.9461,-2.8886 -1.5875,-4.5097 0.27114,-1.226 1.169,-2.2726 2.5712,-2.8213 0.38032,-0.14869 0.7875,-0.25673 1.2133,-0.32258 1.1438,-0.17758 2.4061,-0.0505 3.6069,0.38191 1.6535,0.5954 2.9958,1.6967 3.7249,3.0012 l -2.4e-4,5.3e-4 c 0.72924,1.3047 0.77481,2.6728 0.22545,3.8007 z"
             fill="#1a2326"
             id="path162" />
          <path
             d="m 255.82,125.97 c -0.9647,1.0603 -2.4201,1.5878 -4.0255,1.5227 -1.6028,-0.0654 -3.2379,-0.71483 -4.5805,-1.7951 -2.736,-2.2014 -3.8221,-5.8812 -2.1285,-8.3243 0.81618,-1.1774 2.1985,-1.891 3.8842,-1.9211 1.6842,-0.0301 3.4987,0.62984 5.0007,1.8346 1.5025,1.2052 2.5321,2.826 2.867,4.4697 0.33422,1.6402 -0.0527,3.1532 -1.0174,4.2135 z"
             fill="#21171e"
             id="path164" />
        </g>
      </g>
      <g
         transform="matrix(-0.46708,0,0,0.46708,258.03,91.684)"
         id="g186">
        <path
           d="m 166.17,141.66 c 0.94059,0.61336 1.0711,2.0762 0.3171,3.2664 -0.75466,1.1912 -2.1323,1.6975 -3.0861,1.1112 -0.95335,-0.58605 -1.1223,-2.0548 -0.34795,-3.2822 0.77497,-1.2284 2.1759,-1.709 3.117,-1.0954 z"
           fill="#005544"
           id="path170" />
        <path
           d="m 274.02,145.73 c -2.6181,2.1082 -6.875,1.1593 -9.5971,-2.0066 -2.6817,-3.119 -3.0107,-7.4847 -0.55501,-9.7785 2.4626,-2.3002 6.9412,-1.5308 9.8187,1.8271 2.9043,3.3891 2.9418,7.8575 0.3334,9.958 z"
           fill="#280b17"
           id="path172" />
        <g
           id="g184">
          <path
             d="m 177.2,126.98 c 0.53622,0.47415 0.81136,1.2004 0.77982,2.0099 -0.0316,0.80982 -0.36692,1.6455 -0.93242,2.3319 -1.1803,1.4326 -3.0579,1.8891 -4.2399,0.97301 -0.56792,-0.44016 -0.88936,-1.1512 -0.87982,-1.9819 0.01,-0.83169 0.35054,-1.7107 0.94926,-2.4344 0.5992,-0.72427 1.3993,-1.2244 2.2147,-1.3903 l 4.5e-4,3.9e-4 c 0.8157,-0.16594 1.5714,0.0169 2.1079,0.4914 z"
             fill="#06483c"
             id="path174" />
          <path
             d="m 192.17,113.72 c 0.48775,0.75083 0.57765,1.7185 0.29629,2.6755 -0.28174,0.95832 -0.91682,1.8497 -1.7758,2.5018 -0.72981,0.55405 -1.5499,0.88746 -2.3531,0.99928 -1.1664,0.16341 -2.3172,-0.14068 -3.0384,-0.97568 l -3.9e-4,-4.5e-4 c -0.58525,-0.6776 -0.80286,-1.6288 -0.56954,-2.6509 0.042,-0.18387 0.0979,-0.36713 0.16695,-0.54843 0.31773,-0.82907 0.91222,-1.612 1.7015,-2.2119 l 6.3e-4,-4.8e-4 c 0.96385,-0.73257 2.1156,-1.1145 3.1727,-1.0648 1.0578,0.0497 1.9102,0.5234 2.3992,1.276 z"
             fill="#0d3c35"
             id="path176" />
          <path
             d="m 212.52,106.58 c 0.009,0.14106 0.009,0.28201 5.6e-4,0.42229 -0.0586,0.9249 -0.50281,1.8248 -1.2009,2.5606 l 6e-5,5.9e-4 c -0.80397,0.84746 -1.9057,1.4413 -3.0996,1.6884 -2.2e-4,4e-5 -4.4e-4,9e-5 -6.6e-4,1.3e-4 -2.5071,0.51885 -5.0749,-0.48317 -5.8043,-2.6024 -0.34967,-1.0183 -0.16409,-2.1829 0.60853,-3.2123 2e-4,-2.7e-4 4e-4,-5.3e-4 6e-4,-8e-4 0.77645,-1.0336 2.0636,-1.8208 3.5574,-2.1281 1.4931,-0.30716 2.9949,-0.0933 4.1207,0.55325 0.97714,0.5612 1.5751,1.3889 1.7613,2.2998 0.0282,0.13778 0.047,0.27745 0.0564,0.41852 z"
             fill="#14302d"
             id="path178" />
          <path
             d="m 235.24,111.53 c -0.54996,1.1292 -1.6397,1.9301 -2.9765,2.3002 -1.3326,0.36807 -2.8206,0.28381 -4.1772,-0.20451 -1.0237,-0.36849 -1.9036,-0.93519 -2.6002,-1.6265 -1.2103,-1.2066 -1.9461,-2.8886 -1.5875,-4.5097 0.27114,-1.226 1.169,-2.2726 2.5712,-2.8213 0.38032,-0.14869 0.7875,-0.25673 1.2133,-0.32258 1.1438,-0.17758 2.4061,-0.0505 3.6069,0.38191 1.6535,0.5954 2.9958,1.6967 3.7249,3.0012 l -2.4e-4,5.3e-4 c 0.72924,1.3047 0.77481,2.6728 0.22545,3.8007 z"
             fill="#1a2326"
             id="path180" />
          <path
             d="m 255.82,125.97 c -0.9647,1.0603 -2.4201,1.5878 -4.0255,1.5227 -1.6028,-0.0654 -3.2379,-0.71483 -4.5805,-1.7951 -2.736,-2.2014 -3.8221,-5.8812 -2.1285,-8.3243 0.81618,-1.1774 2.1985,-1.891 3.8842,-1.9211 1.6842,-0.0301 3.4987,0.62984 5.0007,1.8346 1.5025,1.2052 2.5321,2.826 2.867,4.4697 0.33422,1.6402 -0.0527,3.1532 -1.0174,4.2135 z"
             fill="#21171e"
             id="path182" />
        </g>
      </g>
      <g
         transform="matrix(-0.4045,-0.23354,-0.23354,0.4045,284.68,138.67)"
         id="g204">
        <path
           d="m 166.17,141.66 c 0.94059,0.61336 1.0711,2.0762 0.3171,3.2664 -0.75466,1.1912 -2.1323,1.6975 -3.0861,1.1112 -0.95335,-0.58605 -1.1223,-2.0548 -0.34795,-3.2822 0.77497,-1.2284 2.1759,-1.709 3.117,-1.0954 z"
           fill="#005544"
           id="path188" />
        <path
           d="m 274.02,145.73 c -2.6181,2.1082 -6.875,1.1593 -9.5971,-2.0066 -2.6817,-3.119 -3.0107,-7.4847 -0.55501,-9.7785 2.4626,-2.3002 6.9412,-1.5308 9.8187,1.8271 2.9043,3.3891 2.9418,7.8575 0.3334,9.958 z"
           fill="#280b17"
           id="path190" />
        <g
           id="g202">
          <path
             d="m 177.2,126.98 c 0.53622,0.47415 0.81136,1.2004 0.77982,2.0099 -0.0316,0.80982 -0.36692,1.6455 -0.93242,2.3319 -1.1803,1.4326 -3.0579,1.8891 -4.2399,0.97301 -0.56792,-0.44016 -0.88936,-1.1512 -0.87982,-1.9819 0.01,-0.83169 0.35054,-1.7107 0.94926,-2.4344 0.5992,-0.72427 1.3993,-1.2244 2.2147,-1.3903 l 4.5e-4,3.9e-4 c 0.8157,-0.16594 1.5714,0.0169 2.1079,0.4914 z"
             fill="#06483c"
             id="path192" />
          <path
             d="m 192.17,113.72 c 0.48775,0.75083 0.57765,1.7185 0.29629,2.6755 -0.28174,0.95832 -0.91682,1.8497 -1.7758,2.5018 -0.72981,0.55405 -1.5499,0.88746 -2.3531,0.99928 -1.1664,0.16341 -2.3172,-0.14068 -3.0384,-0.97568 l -3.9e-4,-4.5e-4 c -0.58525,-0.6776 -0.80286,-1.6288 -0.56954,-2.6509 0.042,-0.18387 0.0979,-0.36713 0.16695,-0.54843 0.31773,-0.82907 0.91222,-1.612 1.7015,-2.2119 l 6.3e-4,-4.8e-4 c 0.96385,-0.73257 2.1156,-1.1145 3.1727,-1.0648 1.0578,0.0497 1.9102,0.5234 2.3992,1.276 z"
             fill="#0d3c35"
             id="path194" />
          <path
             d="m 212.52,106.58 c 0.009,0.14106 0.009,0.28201 5.6e-4,0.42229 -0.0586,0.9249 -0.50281,1.8248 -1.2009,2.5606 l 6e-5,5.9e-4 c -0.80397,0.84746 -1.9057,1.4413 -3.0996,1.6884 -2.2e-4,4e-5 -4.4e-4,9e-5 -6.6e-4,1.3e-4 -2.5071,0.51885 -5.0749,-0.48317 -5.8043,-2.6024 -0.34967,-1.0183 -0.16409,-2.1829 0.60853,-3.2123 2e-4,-2.7e-4 4e-4,-5.3e-4 6e-4,-8e-4 0.77645,-1.0336 2.0636,-1.8208 3.5574,-2.1281 1.4931,-0.30716 2.9949,-0.0933 4.1207,0.55325 0.97714,0.5612 1.5751,1.3889 1.7613,2.2998 0.0282,0.13778 0.047,0.27745 0.0564,0.41852 z"
             fill="#14302d"
             id="path196" />
          <path
             d="m 235.24,111.53 c -0.54996,1.1292 -1.6397,1.9301 -2.9765,2.3002 -1.3326,0.36807 -2.8206,0.28381 -4.1772,-0.20451 -1.0237,-0.36849 -1.9036,-0.93519 -2.6002,-1.6265 -1.2103,-1.2066 -1.9461,-2.8886 -1.5875,-4.5097 0.27114,-1.226 1.169,-2.2726 2.5712,-2.8213 0.38032,-0.14869 0.7875,-0.25673 1.2133,-0.32258 1.1438,-0.17758 2.4061,-0.0505 3.6069,0.38191 1.6535,0.5954 2.9958,1.6967 3.7249,3.0012 l -2.4e-4,5.3e-4 c 0.72924,1.3047 0.77481,2.6728 0.22545,3.8007 z"
             fill="#1a2326"
             id="path198" />
          <path
             d="m 255.82,125.97 c -0.9647,1.0603 -2.4201,1.5878 -4.0255,1.5227 -1.6028,-0.0654 -3.2379,-0.71483 -4.5805,-1.7951 -2.736,-2.2014 -3.8221,-5.8812 -2.1285,-8.3243 0.81618,-1.1774 2.1985,-1.891 3.8842,-1.9211 1.6842,-0.0301 3.4987,0.62984 5.0007,1.8346 1.5025,1.2052 2.5321,2.826 2.867,4.4697 0.33422,1.6402 -0.0527,3.1532 -1.0174,4.2135 z"
             fill="#21171e"
             id="path200" />
        </g>
      </g>
      <g
         transform="matrix(-0.23354,-0.4045,-0.4045,0.23354,284.26,192.69)"
         id="g222">
        <path
           d="m 166.17,141.66 c 0.94059,0.61336 1.0711,2.0762 0.3171,3.2664 -0.75466,1.1912 -2.1323,1.6975 -3.0861,1.1112 -0.95335,-0.58605 -1.1223,-2.0548 -0.34795,-3.2822 0.77497,-1.2284 2.1759,-1.709 3.117,-1.0954 z"
           fill="#005544"
           id="path206" />
        <path
           d="m 274.02,145.73 c -2.6181,2.1082 -6.875,1.1593 -9.5971,-2.0066 -2.6817,-3.119 -3.0107,-7.4847 -0.55501,-9.7785 2.4626,-2.3002 6.9412,-1.5308 9.8187,1.8271 2.9043,3.3891 2.9418,7.8575 0.3334,9.958 z"
           fill="#280b17"
           id="path208" />
        <g
           id="g220">
          <path
             d="m 177.2,126.98 c 0.53622,0.47415 0.81136,1.2004 0.77982,2.0099 -0.0316,0.80982 -0.36692,1.6455 -0.93242,2.3319 -1.1803,1.4326 -3.0579,1.8891 -4.2399,0.97301 -0.56792,-0.44016 -0.88936,-1.1512 -0.87982,-1.9819 0.01,-0.83169 0.35054,-1.7107 0.94926,-2.4344 0.5992,-0.72427 1.3993,-1.2244 2.2147,-1.3903 l 4.5e-4,3.9e-4 c 0.8157,-0.16594 1.5714,0.0169 2.1079,0.4914 z"
             fill="#06483c"
             id="path210" />
          <path
             d="m 192.17,113.72 c 0.48775,0.75083 0.57765,1.7185 0.29629,2.6755 -0.28174,0.95832 -0.91682,1.8497 -1.7758,2.5018 -0.72981,0.55405 -1.5499,0.88746 -2.3531,0.99928 -1.1664,0.16341 -2.3172,-0.14068 -3.0384,-0.97568 l -3.9e-4,-4.5e-4 c -0.58525,-0.6776 -0.80286,-1.6288 -0.56954,-2.6509 0.042,-0.18387 0.0979,-0.36713 0.16695,-0.54843 0.31773,-0.82907 0.91222,-1.612 1.7015,-2.2119 l 6.3e-4,-4.8e-4 c 0.96385,-0.73257 2.1156,-1.1145 3.1727,-1.0648 1.0578,0.0497 1.9102,0.5234 2.3992,1.276 z"
             fill="#0d3c35"
             id="path212" />
          <path
             d="m 212.52,106.58 c 0.009,0.14106 0.009,0.28201 5.6e-4,0.42229 -0.0586,0.9249 -0.50281,1.8248 -1.2009,2.5606 l 6e-5,5.9e-4 c -0.80397,0.84746 -1.9057,1.4413 -3.0996,1.6884 -2.2e-4,4e-5 -4.4e-4,9e-5 -6.6e-4,1.3e-4 -2.5071,0.51885 -5.0749,-0.48317 -5.8043,-2.6024 -0.34967,-1.0183 -0.16409,-2.1829 0.60853,-3.2123 2e-4,-2.7e-4 4e-4,-5.3e-4 6e-4,-8e-4 0.77645,-1.0336 2.0636,-1.8208 3.5574,-2.1281 1.4931,-0.30716 2.9949,-0.0933 4.1207,0.55325 0.97714,0.5612 1.5751,1.3889 1.7613,2.2998 0.0282,0.13778 0.047,0.27745 0.0564,0.41852 z"
             fill="#14302d"
             id="path214" />
          <path
             d="m 235.24,111.53 c -0.54996,1.1292 -1.6397,1.9301 -2.9765,2.3002 -1.3326,0.36807 -2.8206,0.28381 -4.1772,-0.20451 -1.0237,-0.36849 -1.9036,-0.93519 -2.6002,-1.6265 -1.2103,-1.2066 -1.9461,-2.8886 -1.5875,-4.5097 0.27114,-1.226 1.169,-2.2726 2.5712,-2.8213 0.38032,-0.14869 0.7875,-0.25673 1.2133,-0.32258 1.1438,-0.17758 2.4061,-0.0505 3.6069,0.38191 1.6535,0.5954 2.9958,1.6967 3.7249,3.0012 l -2.4e-4,5.3e-4 c 0.72924,1.3047 0.77481,2.6728 0.22545,3.8007 z"
             fill="#1a2326"
             id="path216" />
          <path
             d="m 255.82,125.97 c -0.9647,1.0603 -2.4201,1.5878 -4.0255,1.5227 -1.6028,-0.0654 -3.2379,-0.71483 -4.5805,-1.7951 -2.736,-2.2014 -3.8221,-5.8812 -2.1285,-8.3243 0.81618,-1.1774 2.1985,-1.891 3.8842,-1.9211 1.6842,-0.0301 3.4987,0.62984 5.0007,1.8346 1.5025,1.2052 2.5321,2.826 2.867,4.4697 0.33422,1.6402 -0.0527,3.1532 -1.0174,4.2135 z"
             fill="#21171e"
             id="path218" />
        </g>
      </g>
    </g>
    <text
       x="42.356724"
       y="129.85193"
       fill="#14302d"
       font-family="Cinzel"
       font-size="16.4735px"
       stroke-width="0.235496"
       style="font-style:normal;font-variant:normal;font-weight:normal;font-stretch:normal;font-size:16.5698px;line-height:0.95;font-family:'Californian FB';-inkscape-font-specification:'Californian FB';font-variant-ligatures:normal;font-variant-caps:normal;font-variant-numeric:normal;font-variant-east-asian:normal;fill:#28220b;stroke-width:0.236873"
       xml:space="preserve"
       id="text230"
       transform="matrix(1.0315503,-9.482718e-4,0.00100906,0.96941375,0,0)"><tspan
         sodipodi:role="line"
         id="tspan548"
         x="42.356724"
         y="129.85193"
         style="font-style:normal;font-variant:normal;font-weight:normal;font-stretch:normal;font-family:'Californian FB';-inkscape-font-specification:'Californian FB';fill:#28220b;stroke-width:0.236873">         Nexus Emfo </tspan><tspan
         sodipodi:role="line"
         id="tspan550"
         x="42.356724"
         y="145.59323"
         style="font-style:normal;font-variant:normal;font-weight:normal;font-stretch:normal;font-family:'Californian FB';-inkscape-font-specification:'Californian FB';fill:#28220b;stroke-width:0.236873">    Technology limited</tspan></text>
  </g>
  <text
     xml:space="preserve"
     transform="matrix(0.26458716,0,0,0.26458716,0,-0.00184049)"
     id="text24711"
     style="fill:black;fill-opacity:1;line-height:1.25;stroke:none;font-family:sans-serif;font-style:normal;font-weight:normal;font-size:40px;white-space:pre;shape-inside:url(#rect24713)" />
</svg>
