<?xml version="1.0" encoding="UTF-8" standalone="no"?>
<svg
   xmlns:dc="http://purl.org/dc/elements/1.1/"
   xmlns:cc="http://creativecommons.org/ns#"
   xmlns:rdf="http://www.w3.org/1999/02/22-rdf-syntax-ns#"
   xmlns:svg="http://www.w3.org/2000/svg"
   xmlns="http://www.w3.org/2000/svg"
   xmlns:sodipodi="http://sodipodi.sourceforge.net/DTD/sodipodi-0.dtd"
   xmlns:inkscape="http://www.inkscape.org/namespaces/inkscape"
   version="1.1"
   x="0px"
   y="0px"
   width="273.60181"
   height="191.74927"
   viewBox="0 0 273.60181 191.74927"
   enable-background="new 0 0 500 421"
   xml:space="preserve"
   id="svg556"
   sodipodi:docname="office group talk.svg"
   inkscape:version="1.0.1 (3bc2e813f5, 2020-09-07)"><sodipodi:namedview
   pagecolor="#ffffff"
   bordercolor="#666666"
   borderopacity="1"
   objecttolerance="10"
   gridtolerance="10"
   guidetolerance="10"
   inkscape:pageopacity="0"
   inkscape:pageshadow="2"
   inkscape:window-width="1366"
   inkscape:window-height="702"
   id="namedview193"
   showgrid="false"
   inkscape:zoom="0.43888889"
   inkscape:cx="79.737789"
   inkscape:cy="202.07516"
   inkscape:window-x="-8"
   inkscape:window-y="-8"
   inkscape:window-maximized="1"
   inkscape:current-layer="svg556"
   inkscape:document-rotation="0"
   inkscape:snap-global="false"
   fit-margin-top="0"
   fit-margin-left="0"
   fit-margin-right="0"
   fit-margin-bottom="0"
   showborder="false" /><metadata
   id="metadata562"><rdf:RDF><cc:Work
       rdf:about=""><dc:format>image/svg+xml</dc:format><dc:type
         rdf:resource="http://purl.org/dc/dcmitype/StillImage" /><dc:title></dc:title></cc:Work></rdf:RDF></metadata><defs
   id="defs560">
	

		
		
		
		
		
		
		
		
		
		
		
		
		
		
		
		
		
		
		
		
		
		
		
		
		
		
		
		
		
		
		
		
		
		
		
		
		
		
		
		
		
		
		
		
		
		
		
		
		
		
		
		
		
		
	
			
			
			
			
			
			
			
			
			
			
			
			
			
			
			
		
			
			
			
			
			
			
			
			
			
			
		
			
			
		
			
		
			
		
			
		
			
		
			
		
			
			
			
		
			
			
			
		
			
		
			
		
			
		
			
		
			
		
			
		
			
		
			
		
			
		
			
		
			
		
			
			
			
			
			
			
		
			
			
			
			
			
			
		
			
			
		
			
			
		
			
		
			
		
			
		
			
		
			
		
			
		
			
			
			
			
		
			
			
			
			
			
			
			
			
			
			
			
			
			
			
			
			
			
			
			
			
			
			
			
			
			
			
			
			
		
			
			
			
		
			
			
			
		</defs>
<g
   id="BACKGROUND"
   transform="translate(-736.71791,-337.92484)">
</g>

<g
   id="g1964"
   transform="matrix(0.13443931,0,0,0.15849986,-348.63353,108.64441)"
   style="stroke-width:6.8505"><g
     id="g123"
     transform="matrix(1.9575632,0,0,1.9575632,-533.18434,-342.02762)"
     style="fill:#00222b;stroke-width:3.49948"><path
       opacity="0.7"
       fill="#0b141a"
       d="m 168.352,146.535 v 8.82 c 0,1.6 -1.29,2.9 -2.9,2.9 h -8.819 c -1.601,0 -2.9,-1.301 -2.9,-2.9 v -8.82 c 0,-1.6 1.3,-2.9 2.9,-2.9 h 8.819 c 1.38,0 2.53,0.961 2.82,2.25 0.049,0.211 0.08,0.429 0.08,0.65 z"
       id="path41"
       style="fill:#00222b;stroke-width:2.25048" /><path
       opacity="0.7"
       fill="#0b141a"
       d="m 168.352,123.695 v 8.82 c 0,1.609 -1.29,2.91 -2.9,2.91 h -8.819 c -1.601,0 -2.9,-1.301 -2.9,-2.91 v -8.82 c 0,-1.6 1.3,-2.9 2.9,-2.9 h 8.819 c 1.61,0 2.9,1.301 2.9,2.9 z"
       id="path43"
       style="fill:#00222b;stroke-width:2.25048" /><path
       opacity="0.7"
       fill="#0b141a"
       d="m 168.352,169.545 v 8.82 c 0,1.609 -1.29,2.91 -2.9,2.91 h -8.819 c -1.601,0 -2.9,-1.301 -2.9,-2.91 v -8.82 c 0,-1.6 1.3,-2.9 2.9,-2.9 h 8.819 c 1.61,0 2.9,1.3 2.9,2.9 z"
       id="path45"
       style="fill:#00222b;stroke-width:2.25048" /><path
       opacity="0.7"
       fill="#0b141a"
       d="m 168.352,192.564 v 8.82 c 0,1.6 -1.29,2.9 -2.9,2.9 h -8.819 c -1.601,0 -2.9,-1.301 -2.9,-2.9 v -8.82 c 0,-1.609 1.3,-2.91 2.9,-2.91 h 8.819 c 1.61,0 2.9,1.301 2.9,2.91 z"
       id="path47"
       style="fill:#00222b;stroke-width:2.25048" /><path
       opacity="0.6"
       fill="#0b141a"
       d="m 304.831,110.926 c -0.029,-6.361 -5.22,-11.5 -11.58,-11.461 l -54.72,0.279 -42.92,0.221 -9.89,0.051 -45.431,0.229 c -6.369,0.041 -11.5,5.221 -11.47,11.592 l 0.34,65.439 0.13,25.91 v 0.24 l 0.051,8.619 v 0.471 c 0.01,1.58 0.33,3.09 0.909,4.459 0.08,0.17 0.16,0.34 0.23,0.5 1.88,3.871 5.86,6.531 10.44,6.51 l 8.319,-0.039 80.62,-0.42 41.48,-0.211 11.38,-0.059 11.17,-0.061 c 6.26,-0.031 11.34,-5.061 11.46,-11.281 v -0.299 z m -136.479,90.459 c 0,1.6 -1.29,2.9 -2.9,2.9 h -8.819 c -1.601,0 -2.9,-1.301 -2.9,-2.9 v -8.82 c 0,-1.609 1.3,-2.91 2.9,-2.91 h 8.819 c 1.61,0 2.9,1.301 2.9,2.91 z m 0,-23.02 c 0,1.609 -1.29,2.91 -2.9,2.91 h -8.819 c -1.601,0 -2.9,-1.301 -2.9,-2.91 v -8.82 c 0,-1.6 1.3,-2.9 2.9,-2.9 h 8.819 c 1.61,0 2.9,1.301 2.9,2.9 z m 0,-23.01 c 0,1.6 -1.29,2.9 -2.9,2.9 h -8.819 c -1.601,0 -2.9,-1.301 -2.9,-2.9 v -8.82 c 0,-1.6 1.3,-2.9 2.9,-2.9 h 8.819 c 1.38,0 2.53,0.961 2.82,2.25 0.05,0.211 0.08,0.43 0.08,0.65 z m 0,-22.839 c 0,1.609 -1.29,2.91 -2.9,2.91 h -8.819 c -1.601,0 -2.9,-1.301 -2.9,-2.91 v -8.82 c 0,-1.6 1.3,-2.9 2.9,-2.9 h 8.819 c 1.61,0 2.9,1.301 2.9,2.9 z m 112.089,65.759 h -103.07 v -3.59 h 103.07 z m 0,-22.98 h -103.07 v -3.6 h 103.07 z m 0,-24.85 h -103.07 v -3.59 h 103.07 z m 0,-22.98 h -103.07 v -3.59 h 103.07 z"
       id="path49"
       style="fill:#00222b;stroke-width:2.25048" /><rect
       x="177.371"
       y="123.875"
       opacity="0.7"
       fill="#0b141a"
       width="103.07"
       height="3.5899999"
       id="rect51"
       style="fill:#00222b;stroke-width:2.25048" /><rect
       x="177.371"
       y="146.855"
       opacity="0.7"
       fill="#0b141a"
       width="103.07"
       height="3.5899999"
       id="rect53"
       style="fill:#00222b;stroke-width:2.25048" /><rect
       x="177.371"
       y="171.69501"
       opacity="0.7"
       fill="#0b141a"
       width="103.07"
       height="3.5999999"
       id="rect55"
       style="fill:#00222b;stroke-width:2.25048" /><rect
       x="177.371"
       y="194.686"
       opacity="0.7"
       fill="#0b141a"
       width="103.07"
       height="3.5899999"
       id="rect57"
       style="fill:#00222b;stroke-width:2.25048" /><g
       id="g121"
       style="fill:#00222b;stroke-width:3.49948"><g
         id="g67"
         style="fill:#00222b;stroke-width:3.49948"><rect
           x="177.371"
           y="123.875"
           fill="#ffffff"
           width="103.07"
           height="3.5899999"
           id="rect59"
           style="fill:#00222b;stroke-width:2.25048" /><rect
           x="177.371"
           y="146.855"
           fill="#ffffff"
           width="103.07"
           height="3.5899999"
           id="rect61"
           style="fill:#00222b;stroke-width:2.25048" /><rect
           x="177.371"
           y="171.69501"
           fill="#ffffff"
           width="103.07"
           height="3.5999999"
           id="rect63"
           style="fill:#00222b;stroke-width:2.25048" /><rect
           x="177.371"
           y="194.686"
           fill="#ffffff"
           width="103.07"
           height="3.5899999"
           id="rect65"
           style="fill:#00222b;stroke-width:2.25048" /></g><path
         fill="#0b141a"
         d="m 168.352,123.695 v 8.82 c 0,1.609 -1.29,2.91 -2.9,2.91 h -8.819 c -1.601,0 -2.9,-1.301 -2.9,-2.91 v -8.82 c 0,-1.6 1.3,-2.9 2.9,-2.9 h 8.819 c 1.61,0 2.9,1.301 2.9,2.9 z"
         id="path69"
         style="fill:#00222b;stroke-width:2.25048" /><g
         id="g85"
         style="fill:#00222b;stroke-width:3.49948"><path
           fill="#0b141a"
           d="m 168.352,169.545 v 8.82 c 0,1.609 -1.29,2.91 -2.9,2.91 h -8.819 c -1.601,0 -2.9,-1.301 -2.9,-2.91 v -8.82 c 0,-1.6 1.3,-2.9 2.9,-2.9 h 8.819 c 1.61,0 2.9,1.3 2.9,2.9 z"
           id="path71"
           style="fill:#00222b;stroke-width:2.25048" /><g
           id="g83"
           style="fill:#00222b;stroke-width:3.49948"><g
             id="g81"
             style="fill:#00222b;stroke-width:3.49948"><g
               id="g79"
               style="fill:#00222b;stroke-width:3.49948"><g
                 id="g77"
                 style="fill:#00222b;stroke-width:3.49948"><g
                   id="g75"
                   style="fill:#00222b;stroke-width:3.49948"><path
                     fill="#ffffff"
                     d="m 160.544,177.494 -4.059,-3.527 c -0.333,-0.291 -0.367,-0.793 -0.079,-1.127 0.288,-0.332 0.792,-0.367 1.126,-0.078 l 2.869,2.494 4.084,-4.566 c 0.291,-0.33 0.795,-0.357 1.125,-0.064 0.33,0.295 0.359,0.799 0.063,1.129 z"
                     id="path73"
                     style="fill:#00222b;stroke-width:2.25048" /></g></g></g></g></g></g><g
         id="g115"
         style="fill:#00222b;stroke-width:3.49948"><path
           fill="#0b141a"
           d="m 168.352,146.535 v 8.82 c 0,1.6 -1.29,2.9 -2.9,2.9 h -8.819 c -1.601,0 -2.9,-1.301 -2.9,-2.9 v -8.82 c 0,-1.6 1.3,-2.9 2.9,-2.9 h 8.819 c 1.38,0 2.53,0.961 2.82,2.25 0.049,0.211 0.08,0.429 0.08,0.65 z"
           id="path87"
           style="fill:#00222b;stroke-width:2.25048" /><g
           id="g99"
           style="fill:#00222b;stroke-width:3.49948"><g
             id="g97"
             style="fill:#00222b;stroke-width:3.49948"><g
               id="g95"
               style="fill:#00222b;stroke-width:3.49948"><g
                 id="g93"
                 style="fill:#00222b;stroke-width:3.49948"><g
                   id="g91"
                   style="fill:#00222b;stroke-width:3.49948"><path
                     fill="#ffffff"
                     d="m 160.544,154.479 -4.059,-3.525 c -0.333,-0.291 -0.367,-0.795 -0.079,-1.127 0.288,-0.334 0.792,-0.369 1.126,-0.08 l 2.869,2.494 4.084,-4.566 c 0.291,-0.328 0.795,-0.355 1.125,-0.062 0.33,0.295 0.359,0.799 0.063,1.125 z"
                     id="path89"
                     style="fill:#00222b;stroke-width:2.25048" /></g></g></g></g></g><path
           fill="#0b141a"
           d="m 168.352,192.564 v 8.82 c 0,1.6 -1.29,2.9 -2.9,2.9 h -8.819 c -1.601,0 -2.9,-1.301 -2.9,-2.9 v -8.82 c 0,-1.609 1.3,-2.91 2.9,-2.91 h 8.819 c 1.61,0 2.9,1.301 2.9,2.91 z"
           id="path101"
           style="fill:#00222b;stroke-width:2.25048" /><g
           id="g113"
           style="fill:#00222b;stroke-width:3.49948"><g
             id="g111"
             style="fill:#00222b;stroke-width:3.49948"><g
               id="g109"
               style="fill:#00222b;stroke-width:3.49948"><g
                 id="g107"
                 style="fill:#00222b;stroke-width:3.49948"><g
                   id="g105"
                   style="fill:#00222b;stroke-width:3.49948"><path
                     fill="#ffffff"
                     d="m 160.544,200.508 -4.059,-3.525 c -0.333,-0.289 -0.367,-0.793 -0.079,-1.129 0.288,-0.332 0.792,-0.367 1.126,-0.078 l 2.869,2.494 4.084,-4.566 c 0.291,-0.328 0.795,-0.355 1.125,-0.061 0.33,0.293 0.359,0.797 0.063,1.123 z"
                     id="path103"
                     style="fill:#00222b;stroke-width:2.25048" /></g></g></g></g></g></g><g
         id="g119"
         style="fill:#00222b;stroke-width:3.49948"><path
           fill="#ffffff"
           d="m 159.338,129.225 c 0,-0.189 0.009,-0.371 0.036,-0.545 0.023,-0.174 0.071,-0.338 0.141,-0.5 0.07,-0.162 0.173,-0.312 0.303,-0.453 0.133,-0.141 0.307,-0.268 0.52,-0.383 0.108,-0.059 0.251,-0.135 0.428,-0.23 0.18,-0.092 0.353,-0.203 0.521,-0.326 0.168,-0.123 0.314,-0.268 0.438,-0.43 0.124,-0.16 0.188,-0.338 0.188,-0.535 0,-0.271 -0.102,-0.484 -0.298,-0.637 -0.2,-0.156 -0.425,-0.23 -0.683,-0.23 -0.162,0 -0.312,0.031 -0.438,0.094 -0.127,0.061 -0.244,0.137 -0.345,0.221 -0.105,0.088 -0.194,0.186 -0.268,0.293 -0.072,0.105 -0.14,0.201 -0.196,0.285 l -1.275,-0.893 c 0.216,-0.504 0.556,-0.895 1.022,-1.176 0.465,-0.279 0.992,-0.418 1.576,-0.418 0.314,0 0.628,0.043 0.939,0.133 0.313,0.094 0.596,0.238 0.84,0.434 0.252,0.197 0.451,0.453 0.609,0.768 0.155,0.312 0.235,0.693 0.235,1.139 0,0.469 -0.099,0.865 -0.292,1.182 -0.193,0.317 -0.479,0.596 -0.859,0.834 -0.172,0.117 -0.35,0.221 -0.526,0.311 -0.175,0.092 -0.34,0.186 -0.489,0.285 -0.146,0.1 -0.266,0.211 -0.358,0.334 -0.089,0.123 -0.137,0.271 -0.137,0.445 h -1.632 z m 0.036,3.031 v -1.857 h 1.62 v 1.857 z"
           id="path117"
           style="fill:#00222b;stroke-width:2.25048" /></g></g></g><g
     id="g255"
     transform="matrix(0.52929823,0,0,0.4070049,-1135.587,74.238399)"
     style="stroke-width:14.7595"><path
       d="m 1368.9384,655.29065 a 11.351941,11.351941 0 0 1 -4.6542,-1.02167 l -0.7191,4.72997 75.6796,1.92983 v -5.63813 z"
       fill="#808080"
       id="path58"
       style="stroke-width:14.7595" /><path
       d="m 1364.2462,654.45818 -0.6811,4.54077 41.813,24.14181 v -5.86518 c -14.0764,-6.84901 -27.6988,-14.71968 -41.1319,-22.8174 z"
       fill="#808080"
       id="path60"
       style="stroke-width:14.7595" /><path
       d="m 1406.4754,327.86283 a 12.070898,12.070898 0 0 1 -7.2652,-1.05951 l -47.9809,370.30032 c 2.9138,1.77847 5.941,3.36774 8.8924,5.0327 l 48.5485,-374.61407 z"
       fill="#808080"
       id="path62"
       style="stroke-width:14.7595" /><path
       d="m 1417.5247,327.44658 a 24.141795,24.141795 0 0 1 -5.2598,0 c -1.4,0 -2.8379,0 -4.238,0.22705 l 32.4288,379.6846 a 76.928322,76.928322 0 0 1 7.5679,-3.21639 l 1.2865,-0.64328 h 0.2271 z"
       fill="#808080"
       id="path64"
       style="stroke-width:14.7595" /><path
       d="m 1412.2649,327.48442 a 43.553615,43.553615 0 0 0 -5.7895,0.41625 14.416965,14.416965 0 0 1 -2.2703,0 l -3.1785,401.10192 v 0 a 9.876189,9.876189 0 0 1 5.0704,-0.41624 h 2.7245 1.5893 l 3.1785,-401.10193 z"
       fill="#808080"
       id="path66"
       style="stroke-width:14.7595" /><path
       d="m 1359.8947,333.87935 v 82.90702 c 0,0 95.432,2.83799 95.432,0 v -82.90702"
       fill="#68e1fd"
       id="path68"
       style="fill:#2c5aa0;stroke-width:14.7595" /><ellipse
       cx="1407.611"
       cy="333.69019"
       rx="47.715992"
       ry="22.098446"
       fill="#68e1fd"
       id="ellipse70"
       style="stroke-width:14.7595" /><ellipse
       cx="1407.611"
       cy="333.69019"
       rx="47.715992"
       ry="22.098446"
       opacity="0.19"
       id="ellipse72"
       style="stroke-width:14.7595" /><ellipse
       cx="1407.611"
       cy="418.07291"
       rx="47.715992"
       ry="22.098446"
       fill="#68e1fd"
       id="ellipse74"
       style="fill:#2c5aa0;stroke-width:14.7595" /></g><g
     id="g1203"
     transform="matrix(1.1328918,0,0,1.1328918,-176.44693,-54.101906)"
     style="stroke-width:6.04689"><path
       fill="#0b141a"
       d="m -66.883369,146.72982 -1.928955,6.34432 -7.985867,1.48723 c -0.270055,1.54124 -0.86803,3.52999 -2.063981,5.32391 -2.12185,3.17892 -22.086518,5.57275 -27.410438,6.15144 0.50154,6.80728 0.96448,11.82642 0.96448,11.82642 l -1.13808,0.65583 c 3.91577,14.46716 12.01738,63.88503 12.01738,63.88503 -0.462948,0.27198 -0.945186,0.52082 -1.446715,0.77158 0.615337,5.55346 1.174733,10.88123 1.599103,15.06705 -7.098548,0.44174 -14.040858,0.67514 -20.813418,0.57677 -7.48434,-0.11768 -14.77385,-0.61728 -21.87433,-1.60104 -6.47935,-0.88539 -12.78896,-2.17779 -18.9404,-3.91384 -0.0984,-1.17474 -0.19482,-2.33596 -0.28934,-3.45476 -2.43048,-0.24884 -3.8174,-0.44173 -3.8174,-0.44173 -4.72593,-34.16371 0.1331,-57.27256 4.66807,-70.07889 l -1.25382,-0.38772 c 0,0 7.04068,-17.74445 5.78686,-26.75267 -1.4853,0.15432 -2.89343,0.28935 -4.16654,0.36458 0,0 -4.74523,0.56132 -8.66101,0.56132 -2.52692,0 -4.70471,-0.2334 -5.07314,-0.98762 -0.96448,-1.9058 0.30863,-14.15852 2.3919,-25.19021 2.08327,-11.03554 4.22442,-17.37987 6.75134,-20.79605 v -0.0193 c -0.11573,-0.81015 0.0964,-1.98489 0.71371,-3.6052 0.73301,-1.94825 1.31169,-3.684307 1.77465,-5.304632 0,-0.03855 0.0193,-0.09839 0.0193,-0.135019 0.0579,-0.192906 0.0964,-0.364579 0.13502,-0.538186 0.15432,-0.655839 0.38579,-1.643469 0.69443,-2.874137 1.4062,-7.098549 0.48224,-12.462978 1.13808,-24.518932 0.75229,-0.268127 1.52387,-0.538175 2.31475,-0.810157 0.3472,-0.117675 0.69249,-0.22955 1.03971,-0.36458 5.17152,-1.736055 10.63045,-3.300436 16.35752,-4.704711 3.81933,-0.945187 7.7544,-1.797787 11.82448,-2.565513 1.46601,-0.271982 2.91272,-0.561325 4.32087,-0.869958 0.27004,-0.03858 0.54009,-0.09452 0.81015,-0.154316 0.38579,1.487219 0.50153,3.067034 0.32793,4.727869 0,0 -0.3665,3.529986 -1.21525,6.307681 -0.82944,2.775761 1.71677,10.95645 1.08022,11.363461 -0.65585,0.403157 -3.33516,0.941332 -3.33516,0.941332 0,0 -2.81627,8.952268 -5.94118,8.894403 -0.52275,-0.01933 -1.25382,-0.07905 -2.16043,-0.233405 0.1736,0.790868 0.3665,1.581748 0.57868,2.372616 0.2122,0.810157 0.46296,1.581737 0.69443,2.335962 l 2.89343,2.505713 c 2.68125,0.462943 11.01433,1.988749 15.64381,4.301569 1.2924,0.63655 2.85293,1.90966 4.49254,3.49333 v 0.46295 l 0.0984,16.62565 v 0.90855 c 0.0193,3.04774 0.63655,5.96045 1.75342,8.60119 0.15432,0.32793 0.30862,0.65585 0.44365,0.96448 3.626443,7.46698 11.303674,12.598 20.138282,12.55749 z"
       id="path19"
       style="opacity:0.3;stroke-width:3.00612" /><g
       id="g427"
       transform="matrix(1.9289538,0,0,1.9289538,-354.76236,-285.24973)"
       style="stroke-width:3.13482">
				<path
   fill="#e8734d"
   d="m 114.611,172.395 -0.11,1 -1.189,11.23 c -2.8,-2.051 -5.1,-0.27 -6.84,2.619 -0.05,0.08 -0.101,0.16 -0.15,0.25 -1.53,-2.77 -3.359,-7.779 0.05,-12.139 1.681,-2.15 4.16,-3.08 6.69,-3.08 0.15,0 0.31,0 0.46,0.01 0.07,0 0.13,0.01 0.2,0.01 0.109,0.01 0.229,0.02 0.34,0.029 0.09,0.012 0.18,0.021 0.27,0.031 0.051,0.01 0.101,0.01 0.15,0.02 0.039,0.01 0.089,0.01 0.129,0.02 z"
   id="path425"
   style="stroke-width:1.55842" />
			</g><g
       id="g431"
       transform="matrix(1.9289538,0,0,1.9289538,-354.76236,-285.24973)"
       style="stroke-width:3.13482">
				<path
   fill="#a77860"
   d="m 122.621,190.426 c -0.34,0.209 -1.729,0.488 -1.729,0.488 0,0 -1.46,4.641 -3.08,4.611 -0.271,-0.01 -0.65,-0.041 -1.12,-0.121 -1.11,-0.189 -2.71,-0.639 -4.36,-1.539 l 0.42,-3.93 0.431,-4.08 c 0,-0.01 0.01,-0.01 0.01,-0.01 l 0.08,-0.84 0.04,-0.381 c -2.8,-2.051 -5.1,-0.27 -6.84,2.619 -0.561,-1.309 -1,-2.719 -1.221,-4.129 -0.76,-4.701 0.87,-9.32 8.25,-9.74 0.29,-0.02 0.631,-0.01 1,0.02 2.4,0.17 6.061,1.4 7.601,5.5 0.27,0.701 0.47,1.49 0.59,2.371 0,0 -0.19,1.83 -0.63,3.27 -0.431,1.44 0.888,5.68 0.558,5.891 z"
   id="path429"
   style="stroke-width:1.55842" />
			</g><g
       id="g435"
       transform="matrix(1.9289538,0,0,1.9289538,-354.76236,-285.24973)"
       style="fill:#1c1f24;stroke-width:3.13482">
				<path
   fill="#0e538c"
   d="m 122.691,181.266 c 0,0 -4.14,2.859 -8.26,3.469 -0.271,0.041 -0.521,0.09 -0.771,0.16 h -0.01 c -0.13,0.031 -0.26,0.07 -0.38,0.111 l 0.04,-0.381 c -2.8,-2.051 -5.1,-0.27 -6.84,2.619 -0.05,0.08 -0.101,0.16 -0.15,0.25 -0.3,-0.549 -0.62,-1.189 -0.899,-1.898 -0.061,-0.15 -0.12,-0.301 -0.181,-0.461 -0.21,-0.57 -0.39,-1.189 -0.529,-1.83 0,-0.01 0,-0.02 -0.011,-0.029 -0.04,-0.18 -0.069,-0.361 -0.1,-0.551 -0.04,-0.189 -0.07,-0.389 -0.09,-0.6 -0.021,-0.189 -0.04,-0.391 -0.05,-0.58 -0.011,-0.199 -0.021,-0.4 -0.021,-0.6 0,-1.84 0.51,-3.77 1.93,-5.59 1.681,-2.15 4.16,-3.08 6.69,-3.08 0.15,0 0.31,0 0.46,0.01 0.07,0 0.13,0.01 0.2,0.01 0.109,0.01 0.229,0.02 0.34,0.029 0.09,0.012 0.18,0.021 0.27,0.031 0.051,0.01 0.101,0.01 0.15,0.02 0.04,0.01 0.09,0.01 0.13,0.02 3.65,0.551 7.07,2.971 7.91,6.42 0.203,0.771 0.262,1.589 0.172,2.451 z"
   id="path433"
   style="fill:#1c1f24;stroke-width:3.13482" />
			</g><g
       id="g439"
       transform="matrix(1.9289538,0,0,1.9289538,-354.76236,-285.24973)"
       style="stroke-width:3.13482">
				<path
   fill="#e8734d"
   d="m 102.922,196.436 c -0.091,0.469 -0.21,0.969 -0.36,1.49 0.08,-0.34 0.2,-0.852 0.36,-1.49 z"
   id="path437"
   style="stroke-width:1.55842" />
			</g><g
       id="g445"
       transform="matrix(1.9289538,0,0,1.9289538,-354.76236,-285.24973)"
       style="stroke-width:3.13482">
				<path
   fill="#0b141a"
   d="m 145.611,334.256 c 0,0 3.819,5.363 3.296,6.215 -0.522,0.85 -4.54,0.971 -6.983,0 -2.444,-0.971 -2.501,-7.26 -3.607,-9.959 -0.463,-1.131 0.525,-4.469 1.92,-4.713 1.394,-0.242 2.907,0.471 2.907,0.471 0,0 -1.446,3.804 2.467,7.986 z"
   id="path443"
   style="stroke-width:1.55842" />
			</g><g
       id="g451"
       transform="matrix(1.9289538,0,0,1.9289538,-354.76236,-285.24973)"
       style="stroke-width:3.13482">
				<g
   id="g449"
   style="stroke-width:3.13482">
					<path
   fill="#a77860"
   d="m 143.171,326.227 c 0,0 0.802,2.283 1.096,4.465 0.243,1.809 2.72,5.648 2.604,6.137 -0.117,0.486 -3.259,0.926 -4.541,-0.328 -1.278,-1.254 -2.104,-4.895 -2.385,-7.072 -0.264,-2.029 -0.594,-3.031 -0.594,-3.031 0,0 2.596,-1.507 3.82,-0.171 z"
   id="path447"
   style="stroke-width:1.55842" />
				</g>
			</g><g
       id="g455"
       transform="matrix(1.9289538,0,0,1.9289538,-354.76236,-285.24973)"
       style="stroke-width:3.13482">
				<path
   fill="#0b141a"
   d="m 112.378,334.346 c 0,0 3.681,5.273 3.156,6.125 -0.524,0.85 -4.538,0.971 -6.983,0 -2.443,-0.971 -2.504,-7.26 -3.608,-9.959 -0.464,-1.131 0.528,-4.469 1.921,-4.713 1.393,-0.242 3.025,0.521 3.025,0.521 0,0 -1.425,3.842 2.489,8.026 z"
   id="path453"
   style="stroke-width:1.55842" />
			</g><g
       id="g461"
       transform="matrix(1.9289538,0,0,1.9289538,-354.76236,-285.24973)"
       style="stroke-width:3.13482">
				<g
   id="g459"
   style="stroke-width:3.13482">
					<path
   fill="#a77860"
   d="m 109.889,326.32 c 0,0 0.291,2.49 0.756,4.252 0.467,1.76 2.969,5.768 2.853,6.256 -0.116,0.486 -3.261,0.926 -4.539,-0.328 -1.281,-1.254 -2.271,-4.879 -2.386,-7.072 -0.116,-2.197 0.291,-3.629 0.291,-3.629 0,0 1.803,-0.813 3.025,0.521 z"
   id="path457"
   style="stroke-width:1.55842" />
				</g>
			</g><g
       id="g467"
       transform="matrix(1.9289538,0,0,1.9289538,-354.76236,-285.24973)"
       style="stroke-width:3.13482">
				<g
   id="g465"
   style="stroke-width:3.13482">
					<path
   fill="#a77860"
   d="m 143.401,327.346 c 0,0 -0.189,0.16 -0.51,0.318 -0.62,0.32 -1.75,0.65 -2.92,-0.199 -0.101,-0.07 -0.29,-0.379 -0.57,-0.879 0,0 0,0 0,-0.012 v -0.01 c -0.03,-0.039 -0.05,-0.08 -0.08,-0.129 -2.41,-4.43 -10.07,-21.811 -10.07,-27.01 0,-5.932 -3.06,-13.17 -5,-17.371 -0.729,-1.57 -1.31,-2.709 -1.51,-3.209 -0.21,-0.51 -0.41,-1.01 -0.6,-1.5 -6.24,-15.73 -4.98,-20.631 -5.86,-21.701 -0.899,-1.1 -0.979,0.68 -1.51,3.121 -0.35,1.648 -0.99,11.91 -1.58,19.139 -0.09,1.211 -0.19,2.34 -0.28,3.32 -0.17,1.801 -0.33,3.131 -0.47,3.68 -0.68,2.682 -0.15,11.701 -0.52,16.26 -0.381,4.551 -2.03,25.16 -2.03,25.16 0,0 -1.28,2.09 -3.08,0.051 -0.01,-0.02 -0.03,-0.061 -0.05,-0.141 -0.03,-0.09 -0.05,-0.219 -0.09,-0.389 -0.66,-3.471 -2.96,-22.861 -3.03,-27.84 -0.08,-5.42 -0.16,-12.891 -0.3,-15.23 -0.08,-1.25 -0.16,-2.439 -0.25,-3.58 -0.051,-0.609 -0.101,-1.211 -0.15,-1.791 -1.52,-17.719 -3.96,-21.648 0.97,-36.18 0.021,-0.061 0.04,-0.129 0.07,-0.189 0.88,-2.58 1.8,-4.721 2.74,-6.49 0.02,-0.039 0.04,-0.08 0.06,-0.119 0.01,-0.012 0,-0.012 0,-0.012 1.97,-3.67 4.03,-5.67 6.05,-6.52 0.61,-0.25 1.221,-0.4 1.82,-0.469 0.37,-0.031 0.74,-0.041 1.11,-0.012 0.04,0 0.09,0 0.13,0.012 0.8,0.068 1.58,0.289 2.33,0.619 0,0 0.01,0 0.01,0.01 0.31,0.121 0.61,0.281 0.91,0.439 l 0.02,0.012 c 1.12,0.629 2.19,1.479 3.16,2.42 0.11,0.1 0.2,0.189 0.3,0.299 l 0.011,0.01 c 0.43,0.42 0.83,0.861 1.22,1.301 0.37,0.43 0.729,0.869 1.06,1.301 0.301,0.379 0.561,0.729 0.83,1.09 v 0.01 c 1.12,1.57 1.92,2.949 2.311,3.619 0.029,0.051 0.06,0.1 0.08,0.15 0.06,0.131 0.109,0.209 0.13,0.26 0.01,0.01 0.02,0.02 0.02,0.029 0,0.012 0.01,0.021 0.01,0.031 0.021,0.119 0.131,0.66 0.301,1.48 0.84,4.059 3.109,15.148 3.72,18.398 0.41,2.17 1.21,8.852 1.9,15.041 0.319,2.879 0.609,5.641 0.829,7.811 0.181,1.789 0.311,3.17 0.36,3.85 0.22,3.299 3.41,15.719 3.26,16.9 -0.13,1.029 3.54,19.02 4.511,23.719 0,0.01 0,0.02 0.01,0.031 0.01,0.029 0.01,0.049 0.02,0.068 0.127,0.652 0.197,1.023 0.197,1.023 z"
   id="path463"
   style="stroke-width:1.55842" />
				</g>
			</g><g
       id="g471"
       transform="matrix(1.9289538,0,0,1.9289538,-354.76236,-285.24973)"
       style="fill:#8a6f91;stroke-width:3.13482">
				<path
   fill="#0e538c"
   d="m 134.962,273.545 c -0.24,0.141 -0.49,0.27 -0.75,0.4 -3.49,1.82 -7.771,2.85 -12.07,3.4 -3.061,0.398 -6.141,0.549 -8.95,0.559 -4.35,0.021 -8.09,-0.279 -10.25,-0.5 -1.26,-0.129 -1.979,-0.229 -1.979,-0.229 -2.45,-17.711 0.069,-29.691 2.42,-36.33 1.489,-4.23 2.899,-6.301 2.899,-6.301 0,0 0.16,0 0.44,0 h 0.06 c 1.181,0 4.28,0.041 7.78,0.301 3.17,0.24 6.67,0.67 9.36,1.439 0.689,0.199 1.329,0.42 1.89,0.66 1.03,0.449 1.81,0.98 2.24,1.609 0.029,0.051 0.06,0.1 0.08,0.15 0.06,0.09 0.1,0.17 0.13,0.26 0.01,0.01 0.02,0.02 0.02,0.029 0,0.012 0.01,0.021 0.01,0.031 0.131,0.34 0.271,0.82 0.44,1.4 2.03,7.503 6.23,33.122 6.23,33.122 z"
   id="path469"
   style="fill:#8a6f91;stroke-width:1.55842" />
			</g><g
       id="g475"
       transform="matrix(1.9289538,0,0,1.9289538,-354.76236,-285.24973)"
       style="stroke-width:3.13482">
				<polygon
   fill="#0b141a"
   points="138.913,331.314 138.213,330.039 138.213,335.654 138.913,335.654 "
   id="polygon473"
   style="stroke-width:1.55842" />
			</g><g
       id="g479"
       transform="matrix(1.9289538,0,0,1.9289538,-354.76236,-285.24973)"
       style="stroke-width:3.13482">
				<polygon
   fill="#0b141a"
   points="105.539,331.314 104.84,330.039 104.84,335.654 105.539,335.654 "
   id="polygon477"
   style="stroke-width:1.55842" />
			</g><path
       fill="#0e538c"
       d="m -136.18875,70.883358 -0.0771,0.734925 -0.15432,1.620325 c 0,0 -0.0193,0 -0.0193,0.01933 l -0.83138,7.87013 -0.81016,7.580793 -0.78895,7.580781 c 0,0 -0.58061,0.462955 -1.52387,1.174737 -0.0213,0.01933 -0.0213,0.0405 -0.0405,0.0405 -0.13503,0.113831 -0.28741,0.22955 -0.44173,0.347214 -0.21218,0.154318 -0.4263,0.327925 -0.65777,0.501531 -0.71178,0.538175 -1.54316,1.138082 -2.44977,1.811286 -0.0193,0.0193 -0.0193,0.0193 -0.0405,0.0193 -0.0386,0.0193 -0.0964,0.0598 -0.15238,0.0984 -1.77657,1.27312 -3.81933,2.68318 -5.82738,3.89649 -4.43659,2.71982 -8.68028,4.57355 -9.47115,2.37261 -0.0559,-0.13502 -0.0772,-0.27199 -0.0964,-0.407 v -0.0193 c -0.11574,-0.81017 0.0964,-1.98489 0.71371,-3.60522 0.73301,-1.94825 1.31169,-3.684303 1.77463,-5.304627 0,-0.03855 0.0193,-0.09839 0.0193,-0.135019 0.0579,-0.192895 0.0964,-0.36458 0.13503,-0.538186 0.28935,-1.004985 0.52082,-1.96946 0.69442,-2.874137 1.40621,-7.09855 0.48224,-12.462966 1.13809,-24.518932 0.0771,-1.521939 0.19289,-3.142263 0.32792,-4.897607 1.25189,-15.585951 12.61535,-17.304649 18.09359,-17.186983 -4.88026,0 -9.66406,1.793927 -12.90471,5.941177 -3.95436,5.051931 -4.26298,10.589956 -3.20013,15.333256 0.67514,3.146118 1.92895,5.960468 3.10369,8.08038 0.0964,-0.173596 0.19482,-0.327914 0.28934,-0.482232 3.36024,-5.574678 7.79682,-9.010145 13.1979,-5.053858 z"
       id="path481"
       style="fill:#1c1f24;stroke-width:6.04689" /><path
       fill="#a77860"
       d="m -126.04438,102.73038 c 0,0 -0.40508,0.0984 -1.06093,0.25269 -1.36955,0.30864 -3.91578,0.82946 -6.50057,1.19403 -0.38579,0.0559 -0.77158,0.11766 -1.15738,0.15431 -0.0771,0.0193 -0.17359,0.0193 -0.25076,0.0386 -0.83138,0.0984 -1.6589,0.17361 -2.43241,0.19675 -1.06092,0.0559 -2.04468,0.0386 -2.81627,-0.0791 -1.60103,-0.2527 -2.43049,-0.90854 -1.69748,-2.27617 0.15432,-0.27198 0.27198,-0.58062 0.38579,-0.90853 0.21219,-0.53818 0.3665,-1.17473 0.48224,-1.869162 v -0.02311 c 0,-0.01933 0,-0.01933 0,-0.03855 0.0964,-0.482243 0.15432,-1.003063 0.21218,-1.521949 0.15432,-0.117664 0.30671,-0.233406 0.44174,-0.347214 0.0193,0 0.0193,-0.02311 0.0405,-0.0405 0.94325,-0.711793 1.52387,-1.174737 1.52387,-1.174737 l 0.78893,-7.580793 0.81017,-7.580781 c 3.8579,-0.617273 8.54719,-0.69636 7.3686,2.739107 -0.65584,1.967538 -0.40508,4.822386 0.21218,7.715822 0,0.03855 0.0193,0.05594 0.0193,0.0945 0.1736,0.790869 0.3665,1.581737 0.57869,2.372605 0.21219,0.810169 0.46295,1.581749 0.69442,2.335962 l 0.79088,2.370683 0.0193,0.07905 c 0.85452,2.312807 1.54702,3.896477 1.54702,3.896477 z"
       id="path483"
       style="stroke-width:3.00612" /><path
       fill="#0b141a"
       d="m -168.57782,151.48083 c 0.23149,1.88459 9.03523,1.49108 18.42923,0.53046 0.009,0.0386 0.0193,0.0714 0.0309,0.10994 0.20061,0.82945 0.37614,1.56631 0.50346,2.08713 0.13695,0.56904 0.26619,1.17088 0.37615,1.80164 0.94325,5.37599 0.86802,12.94521 -0.9259,19.43229 0,0 23.67983,8.82689 38.4479,0.78315 0,0 -1.56824,-12.84298 0.78702,-21.14326 2.36104,-8.30415 14.679331,-37.22688 14.679331,-37.22688 0,0 -8.931061,-12.91049 -15.746051,-15.27346 -6.81499,-2.36296 -15.60137,-3.823181 -15.60137,-3.823181 l -12.77161,0.470665 c 0,0 -10.63239,2.769976 -13.01465,3.518406 -4.25335,1.34448 -5.89874,2.75841 -8.1016,7.15063 -3.02847,6.03955 -8.13248,33.09507 -7.09277,41.58246 z m 13.42938,-14.22603 c 0,0 1.16317,2.57322 2.20673,5.48594 -0.85067,0.0791 -1.65698,0.083 -2.0389,0.13889 -3.3641,0.50539 -0.83525,-3.7711 -0.16783,-5.62483 z"
       id="path485"
       style="stroke-width:3.00612" /><path
       fill="#a77860"
       d="m -129.09213,94.050092 c -7.84892,-1.099505 -8.95034,-5.225531 -8.98892,-5.343206 8.39287,2.874148 8.39287,2.874148 8.39287,2.874148 0,0.03855 0.0193,0.05594 0.0193,0.0945 0.17168,0.790868 0.3665,1.58367 0.57676,2.374538 z"
       id="path487"
       style="stroke-width:3.00612" /><path
       fill="#cfbeb8"
       d="m -154.98061,137.35703 c 0,0 0.57675,1.21331 2.15463,5.98362 1.60104,-13.40431 0.76387,-20.38518 0.76387,-20.38518 -0.17554,7.16412 -2.9185,14.40156 -2.9185,14.40156 z"
       id="path489"
       style="stroke-width:3.00612" /><path
       fill="#cfbeb8"
       d="m -150.11965,152.12125 c 0.20061,0.82944 0.37615,1.5663 0.50345,2.08712 0.13696,0.56904 0.2662,1.17088 0.37615,1.80164 5.28919,-2.87414 9.09115,-5.1233 9.09115,-5.1233 -1.42356,0.31635 -9.97075,1.23454 -9.97075,1.23454 z"
       id="path491"
       style="stroke-width:3.00612" /><path
       fill="#a77860"
       d="m -141.09022,99.414509 15.04005,12.258501 -1.55087,-12.91434 c 0.002,0 -8.7671,-1.890373 -13.48918,0.655839 z"
       id="path493"
       style="stroke-width:3.00612" /><polygon
       fill="#fcd2b1"
       points="118.568,205.771 110.912,198.182 116.315,204.693 "
       id="polygon495"
       transform="matrix(1.9289538,0,0,1.9289538,-354.76236,-285.24973)"
       style="stroke-width:1.55842" /><path
       fill="#0b4870"
       d="m -129.09213,135.17538 c -0.0964,2.20095 -0.30863,4.70473 -0.61534,7.3879 -0.25269,2.20093 -0.55939,4.53304 -0.90853,6.92494 -0.0385,0.21025 -0.0559,0.4263 -0.0964,0.63655 -0.17361,1.09951 -0.32792,2.20095 -0.50153,3.31974 -0.0193,0.0193 -0.0193,0.0386 -0.0193,0.0559 -0.0579,0.30864 -0.11766,0.63657 -0.1543,0.96448 -0.0579,0.28935 -0.0984,0.59991 -0.15432,0.90854 -0.0405,0.26813 -0.0964,0.55747 -0.13503,0.82945 -0.67514,3.97172 -1.40621,7.90872 -2.10256,11.55443 -0.84874,4.29965 -1.63961,8.19806 -2.29546,11.16671 -0.1331,0.67514 -0.27005,1.2924 -0.38386,1.87302 -0.48224,2.23759 -2.77769,3.56856 -4.95741,2.89344 l -12.76967,-3.99294 -1.15737,-0.36457 -1.25383,-0.38772 c 0,0 7.04069,-17.74445 5.78687,-26.75267 0.0193,-0.0386 0,-0.079 0,-0.0984 -0.0579,-0.36456 -0.11575,-0.69249 -0.1929,-1.02041 -0.71371,-2.932 -1.50458,-5.69234 -2.2183,-8.08038 -0.0193,-0.0791 -0.0579,-0.15432 -0.0771,-0.23341 0,-0.0385 -0.0193,-0.0753 -0.0385,-0.11766 -0.25269,-0.81017 -0.50346,-1.54124 -0.71371,-2.25688 l -0.34915,-1.05899 c -0.21025,-0.59991 -0.40508,-1.13809 -0.5594,-1.62033 -0.0193,-0.079 -0.0385,-0.13503 -0.0771,-0.19675 0,0 -0.0193,-0.0193 0,-0.0193 -0.50153,-1.46601 -0.82945,-2.31282 -0.82945,-2.31282 0,0 -3.80004,-20.94651 5.86402,-30.99829 1.56439,-1.62032 3.49334,-2.96866 5.82738,-3.89648 0.1736,-0.0559 0.3472,-0.13503 0.5208,-0.1929 0.0579,-0.0193 0.0772,-0.0193 0.0772,-0.0193 0.42436,-0.154321 0.86802,-0.289351 1.33097,-0.407015 0.38386,-0.117663 0.75229,-0.210261 1.15737,-0.289348 0.0386,0 0.0772,-0.01933 0.11574,-0.01933 0.19482,-0.03855 0.36651,-0.07528 0.5594,-0.0945 0.0212,-0.02311 0.0212,-0.02311 0.0405,-0.02311 0,0 0.32791,0.522741 0.86802,1.469863 0.50153,0.90468 1.23454,2.21444 2.06206,3.85791 1.0995,2.19708 2.41119,4.95355 3.64765,8.06302 2.66002,6.67225 5.05192,14.93011 4.70279,22.54754 z"
       id="path497"
       style="fill:#ddafe9;stroke-width:3.00612" /><path
       fill="#0b4870"
       d="m -93.674608,120.30122 -8.005162,10.57066 -1.83251,2.4112 -4.06816,5.38371 c 0,2.02347 0.0386,4.26106 0.11574,6.63368 v 0.0193 c 0.0213,0.69249 0.0579,1.37149 0.0771,2.06398 0.0964,2.43048 0.23147,4.94005 0.3665,7.44383 0.0964,1.54509 0.1929,3.08633 0.28742,4.59284 0.0213,0.15431 0.0213,0.30863 0.0405,0.46295 v 0.21025 c 0.13503,1.92896 0.27004,3.78268 0.40507,5.53417 0,0.13503 0,0.27198 0.0193,0.40701 0.50153,6.80728 0.96447,11.82642 0.96447,11.82642 l -1.13808,0.65585 -0.27005,0.1543 -4.95741,2.85293 c -1.71677,0.98376 -3.8579,-0.22954 -3.89841,-2.19708 0,-0.44365 -0.0193,-0.92589 -0.0193,-1.42743 -0.0386,-2.06398 -0.0772,-4.59283 -0.13309,-7.36859 -0.0405,-1.50267 -0.0579,-3.10369 -0.0984,-4.74716 0,-0.81016 -0.0193,-1.63961 -0.0386,-2.48642 -0.0193,-0.56132 -0.0193,-1.13809 -0.0405,-1.7187 v -0.0559 l -0.0559,-3.12684 c -0.0212,-0.45909 -0.0212,-0.92396 -0.0405,-1.36762 -0.0193,-1.48529 -0.0386,-2.94938 -0.0771,-4.41924 -0.0193,-1.42356 -0.056,-2.83363 -0.0772,-4.20511 -0.0386,-1.81129 -0.0771,-3.56857 -0.0964,-5.22555 -0.0579,-2.62529 -0.11574,-5.01527 -0.15431,-7.02331 -0.15432,-7.77176 -3.29852,-18.2074 -6.07428,-26.0023 -2.2781,-6.32503 -4.28421,-10.917882 -4.28421,-10.917882 0.0771,0.02311 0.13503,0.0405 0.21218,0.07905 0.15432,0.03855 0.30864,0.0945 0.46296,0.154318 l -0.17361,-0.462943 -0.0984,-0.252694 c 0,0 0.30864,0.0405 0.84874,0.13503 2.68125,0.462944 11.01432,1.988751 15.64381,4.301571 1.2924,0.63655 2.85293,1.90966 4.49254,3.49333 2.58672,2.44977 5.34513,5.65183 7.563427,8.33308 2.393832,2.95323 4.131819,5.28533 4.131819,5.28533 z"
       id="path499"
       style="fill:#ddafe9;stroke-width:3.00612" /><path
       fill="#a77860"
       d="m -106.27454,165.62777 c 0,0 -10.48578,0.40702 -12.11769,0 -1.62803,-0.407 -12.50926,-5.12715 -13.1651,-9.7875 -0.65198,-4.66036 25.28279,4.17425 25.28279,4.17425 z"
       id="path501"
       style="stroke-width:3.00612" /><polygon
       fill="#d3d3d3"
       points="134.016,223.609 124.05,231.719 111.953,226.191 "
       id="polygon503"
       transform="matrix(1.9289538,0,0,1.9289538,-354.76236,-285.24973)"
       style="stroke-width:1.55842" /><polygon
       fill="#f2f2f2"
       points="111.953,226.191 124.457,230.203 124.05,231.719 111.953,227.596 "
       id="polygon505"
       transform="matrix(1.9289538,0,0,1.9289538,-354.76236,-285.24973)"
       style="stroke-width:1.55842" /><g
       id="g509"
       transform="matrix(1.9289538,0,0,1.9289538,-354.76236,-285.24973)"
       style="stroke-width:3.13482">
				<path
   fill="#a77860"
   d="m 118.362,222.141 c 0,0 1.824,0 2.847,-0.207 0.791,-0.162 2.756,0.061 3.259,0.504 0.499,0.443 2.093,3.535 2.395,3.725 0.3,0.188 -0.154,0.627 -0.684,0.406 0,0 -0.485,1.352 -1.685,0.848 -1.199,-0.508 -2.014,-1.615 -2.641,-1.809 -0.627,-0.195 -4.282,-1.178 -4.282,-1.178 0,0 -0.151,-2.619 0.791,-2.289 z"
   id="path507"
   style="stroke-width:1.55842" />
			</g><polygon
       fill="#0b141a"
       points="118.172,199.145 117.352,197.846 118.852,199.145 118.951,199.295 123.571,205.775 121.552,204.494 118.312,199.365 "
       id="polygon511"
       transform="matrix(1.9289538,0,0,1.9289538,-354.76236,-285.24973)"
       style="stroke-width:1.55842" /><polygon
       fill="#fcd2b1"
       points="117.765,199.076 117.348,197.842 121.548,204.492 118.568,205.771 "
       id="polygon513"
       transform="matrix(1.9289538,0,0,1.9289538,-354.76236,-285.24973)"
       style="stroke-width:1.55842" /><path
       fill="#0b4870"
       d="m -76.508849,151.76439 c 0,0 0.02122,1.15737 -0.287414,2.79891 -0.270054,1.54123 -0.868029,3.52998 -2.063981,5.32391 -2.121848,3.17892 -22.086526,5.57275 -27.410426,6.15143 -0.82946,0.0984 -1.2924,0.13503 -1.2924,0.13503 0.0579,-0.11766 0.0771,-0.28934 0.11766,-0.50153 0.17361,-1.31169 0.0193,-4.16654 -0.0771,-5.42228 -0.0213,-0.38387 -0.0405,-0.61726 -0.0405,-0.61726 l 0.0771,-0.0193 0.75229,-0.19289 z"
       id="path515"
       style="stroke-width:3.00612" /><polygon
       fill="#f2f2f2"
       points="128.821,230.836 128.602,230.875 128.172,230.955 125.861,231.375 124.052,231.715 124.462,230.205 124.642,229.525 125.182,227.506 125.932,224.715 125.981,224.545 129.342,212.045 130.481,207.795 132.951,207.535 133.212,207.506 154.941,205.215 149.241,223.945 148.241,227.234 144.102,228.006 "
       id="polygon517"
       style="fill:#aaccff;stroke-width:3.13482"
       transform="matrix(1.9289538,0,0,1.9289538,-354.76236,-285.24973)" /><polygon
       fill="#0b141a"
       points="113.357,207.328 110.168,199.535 110.912,198.182 116.315,204.693 "
       id="polygon519"
       transform="matrix(1.9289538,0,0,1.9289538,-354.76236,-285.24973)"
       style="stroke-width:1.55842" /><path
       fill="#0b4870"
       d="m -126.35302,142.75618 -0.0964,0.50152 -0.86803,4.57356 -0.23148,1.17472 c 0,0 -1.17473,0.1929 -3.06703,0.48224 -2.33404,0.36457 -5.78686,0.8661 -9.52711,1.39078 -0.0212,0 -0.0212,0 -0.0405,0.0193 -0.1736,0.0193 -0.36456,0.0386 -0.53817,0.0753 -2.18164,0.28934 -4.43852,0.58061 -6.61824,0.85067 -0.48223,0.0386 -0.94519,0.0945 -1.40621,0.15046 -0.19482,0.0231 -0.38579,0.0405 -0.5594,0.0598 -0.27198,0.0193 -0.5401,0.0559 -0.81015,0.0945 -0.23147,0.0231 -0.46296,0.0405 -0.69443,0.0598 -1.48529,0.15432 -2.89342,0.28935 -4.16654,0.36458 0,0 -4.74523,0.56132 -8.661,0.56132 -2.52693,0 -4.70472,-0.2334 -5.07315,-0.98762 -0.96448,-1.9058 0.30864,-14.15852 2.3919,-25.19021 2.08327,-11.03554 4.22442,-17.37987 6.75134,-20.79605 v -0.0193 c 0.61727,-0.82944 1.87108,-1.60102 3.43354,-2.3128 0.21025,-0.0984 0.40508,-0.17361 0.61533,-0.27199 0.44367,-0.1929 0.90855,-0.38386 1.36957,-0.53818 3.97557,-1.50651 8.75745,-2.56551 10.16751,-2.8375 0.15431,-0.0386 0.27005,-0.0753 0.32792,-0.0753 0.0579,-0.0193 0.0772,-0.0193 0.0772,-0.0193 l -8.27521,27.06129 v 0.0193 l -1.69749,5.51488 -0.0405,0.1736 -1.32905,4.32086 -0.0579,0.19675 c 0,0 -0.0193,0.0559 -0.0579,0.13117 -0.0193,0 0,0.0193 0,0.0193 -0.32791,0.67899 -1.56245,3.37566 -1.50265,4.61212 0.0385,0.44366 0.34721,0.63656 0.75229,0.71565 0.28935,-0.0231 0.90661,-0.079 1.77465,-0.13503 l 0.61726,-0.0598 h 0.0579 c 0.0964,-0.0193 0.1736,-0.0193 0.27006,-0.0193 0.0386,0 0.0579,0 0.0964,-0.0193 h 0.23147 c 2.83557,-0.21026 7.04068,-0.46296 10.5128,-0.48224 2.43049,0 5.57468,0.0984 8.42953,0.2334 1.50265,0.0559 2.91271,0.13116 4.08938,0.21025 2.00419,0.10228 3.35252,0.19676 3.35252,0.19676 z"
       id="path521"
       style="fill:#cd87de;stroke-width:3.00612" /></g><g
     id="g1233"
     transform="matrix(1.1099898,0,0,1.1099898,7.1033891,-65.27528)"
     style="stroke-width:6.17168"><g
       id="g1152"
       style="stroke-width:6.17168"><path
         fill="#eea987"
         d="m 268.52541,72.58026 c 0,0 -3.5456,0.473751 -3.51363,-1.028326 0.0263,-1.498331 0.26695,-3.455361 0.26695,-3.455361 z"
         id="path367"
         style="stroke-width:3.06816" /><path
         fill="#eea987"
         d="m 288.45295,56.314887 -11.63881,9.003112 c 1.48329,-0.278241 3.9667,-0.63919 4.02687,0.139115 0.077,1.105415 -4.42542,2.442065 -5.8523,3.447835 -1.30846,0.924946 -2.6827,2.569907 -3.04742,2.646985 l -2.54357,2.180749 -4.11711,-5.63611 c 0,0 6.79416,-7.689022 8.4316,-9.326463 2.66201,-2.665777 13.4304,-4.23366 14.01695,-3.84451 1.06405,0.699344 0.72379,1.389287 0.72379,1.389287 z"
         id="path369"
         style="stroke-width:3.06816" /><path
         fill="#0b141a"
         d="m 274.08633,74.112431 -9.38663,-7.952217 -32.19047,32.532638 c -5.04205,3.462878 9.83028,15.402468 14.02634,18.009978 10.79095,6.69076 23.52013,22.17031 36.72494,12.72917 14.31211,-10.23635 -6.52533,-17.52118 -13.47177,-17.34259 -6.02526,0.15416 -19.13795,-11.68768 -19.13795,-11.68768 z"
         id="path373"
         style="fill:#000000;stroke-width:6.17168" /><path
         fill="#0b4870"
         d="m 257.09716,366.01881 c 0,0 -5.35035,5.61354 -10.77778,6.79228 -5.42744,1.17496 -14.79714,5.18115 -14.84038,8.40528 -0.0433,3.22412 21.19651,2.83873 27.40976,-0.40796 9.27383,-4.85029 10.21756,-3.38955 11.24401,-5.81282 1.03023,-2.41951 -1.23324,-8.90723 -1.16745,-9.67425 0.0827,-0.95126 -11.86816,0.69747 -11.86816,0.69747 z"
         id="path377"
         style="fill:#000000;stroke-width:6.17168" /><path
         fill="#2f6b8c"
         d="m 257.69874,363.33234 c 0,0 -0.70874,2.62819 -0.60158,2.68834 0.10525,0.0545 12.23664,1.41373 11.86816,-0.69746 -0.29703,-1.71452 -0.7219,-3.57568 -0.7219,-3.57568 z"
         id="path381"
         style="stroke-width:3.06816" /><path
         fill="#0b4870"
         d="m 317.51518,367.4814 c 0,0 -3.93475,5.47068 -9.19862,6.73401 -5.18868,1.24453 -12.8683,6.10234 -13.1221,9.23435 -0.25379,3.12824 16.55114,4.73936 25.32489,-0.75951 5.76582,-3.61703 7.91649,-3.40648 9.07643,-5.70566 1.16181,-2.29919 -0.60723,-8.73428 -0.49067,-9.48062 0.14099,-0.9193 -11.58993,-0.0225 -11.58993,-0.0225 z"
         id="path385"
         style="fill:#000000;stroke-width:6.17168" /><path
         fill="#2f6b8c"
         d="m 317.6731,364.77803 c 0,0 -0.25755,2.64322 -0.15792,2.70337 0.0978,0.0621 11.65761,2.10367 11.58993,0.0225 -0.0564,-1.65625 -0.73695,-3.71668 -0.73695,-3.71668 z"
         id="path389"
         style="stroke-width:3.06816" /><path
         fill="#0e538c"
         d="m 269.9335,205.31642 c 0,0 -5.61919,40.8082 -7.91273,54.60331 -2.68082,16.12627 -3.59072,29.4514 -4.3427,37.80404 -0.93997,10.49768 -2.1845,64.22681 -2.84438,67.30054 -0.66174,3.0662 16.35938,1.47201 16.35938,1.47201 0,0 8.91851,-70.04716 11.71964,-81.23102 2.61126,-10.40932 10.21005,-55.38537 12.58819,-52.54288 2.3819,2.8425 9.67237,53.79117 11.43389,62.00093 1.76716,8.20978 6.48961,72.85581 6.48961,72.85581 0,0 16.05858,2.57367 19.2921,0 0,0 -2.53605,-57.6432 -3.65651,-73.03627 -0.43051,-5.87111 3.71104,-70.24455 -6.21138,-96.20486 -5.24131,-13.71616 -52.91511,6.97839 -52.91511,6.97839 z"
         id="path393"
         style="fill:#1f1c24;stroke-width:6.17168" /><path
         fill="#0b141a"
         d="m 288.29691,107.45156 c 0,0 -14.86293,3.07373 -16.62821,4.63785 -1.9138,1.66376 -5.29396,17.94042 -5.49324,22.47864 -0.2049,4.53821 1.79161,23.48065 3.7054,30.53424 1.9138,7.0536 -2.50973,37.225 -3.72043,46.99889 0,0 33.08159,6.2095 62.50853,2.38003 0,0 -4.01182,-29.68638 -2.8331,-39.35124 1.51149,-12.38515 5.13792,-40.92287 5.13792,-40.92287 0,0 0.0244,-16.06046 -2.25218,-18.6266 -4.88036,-5.51204 -23.64796,-8.12894 -23.64796,-8.12894 z"
         id="path397"
         style="stroke-width:3.06816" /><path
         fill="#0b141a"
         d="m 308.73766,137.23759 c 0.69747,14.70125 5.37668,18.27505 9.98446,17.13203 1.44568,-0.35531 2.86505,-1.17873 4.11333,-2.26535 1.95892,-1.70324 3.49485,-4.0607 4.04568,-6.30161 2.01718,-8.18721 2.0341,-30.76923 -8.29813,-33.67376 0,0.002 -11.20642,-3.62268 -9.84534,25.10869 z"
         id="path399"
         style="fill:#1a1a1a;stroke-width:6.17168" /><path
         fill="#d3d3d3"
         d="m 264.28047,143.91707 c 0,0 8.29437,-1.37613 8.7982,10.65182 0.50758,12.02796 5.71695,34.37124 14.19743,43.27659 l -33.37298,1.26709 c -8.48424,-8.90347 -12.65023,-30.22969 -13.28189,-42.25201 -0.58654,-11.05601 -8.80572,-10.65183 -8.80572,-10.65183 z"
         id="path401"
         style="stroke-width:3.06816" /><path
         fill="#0b141a"
         d="m 283.7493,116.36632 c 0.19175,0.12783 0.39103,0.25003 0.61474,0.35531 0.75386,0.38539 1.71076,0.66174 2.91581,0.79334 0.43803,0.0507 0.87983,0.0658 1.3235,0.0545 0.27071,-0.003 0.54141,-0.0225 0.81777,-0.0469 7.86761,-0.76703 15.67507,-9.77014 15.67507,-9.77014 -15.79727,-2.39318 -22.57075,0.55083 -22.57075,0.55083 0,0 -2.52853,5.53459 1.22386,8.06314 z"
         id="path403"
         style="fill:#d38d5f;stroke-width:6.17168" /><path
         fill="#eea886"
         d="m 284.07829,110.67193 c 0,0 3.67907,2.43078 17.6321,-3.71668 0,0 -1.39117,-8.286838 0.75763,-17.378309 2.07547,-8.749309 -17.1358,10.790949 -17.1358,10.790949 0.22371,0.16168 0.26508,1.05466 0.13536,2.29919 -0.0338,0.33839 -0.0808,0.69747 -0.13913,1.07157 -0.0997,0.64671 -0.23499,1.33665 -0.40418,2.04539 -0.0433,0.19176 -0.0902,0.38164 -0.14476,0.57339 -0.78394,2.98913 -0.70122,1.707 -0.70122,4.3145 z"
         id="path405"
         style="fill:#d38d5f;stroke-width:6.17168" /><path
         fill="#0b4870"
         d="m 301.70664,104.31204 c 0,0 -7.29423,4.39909 -14.51326,5.38983 l 3.84075,6.12866 12.16143,-8.37897 z"
         id="path407"
         style="fill:#d38d5f;stroke-width:6.17168" /><path
         fill="#0b4870"
         d="m 284.77951,106.35743 c 0,0 0.7689,2.5229 2.41387,3.34444 l -3.60576,5.027 0.1316,-6.66444 z"
         id="path409"
         style="fill:#d38d5f;stroke-width:6.17168" /><path
         fill="#a77860"
         d="m 284.84343,103.93793 c 8.2718,0.43614 13.56389,-8.140211 13.72556,-8.394001 -5.1962,5.673711 -13.24054,6.010221 -13.24054,6.010221 -0.0997,0.6467 -0.31771,1.67504 -0.48502,2.38378 z"
         id="path411"
         style="fill:#d38d5f;stroke-width:6.17168" /><path
         fill="#eea886"
         d="m 289.83471,169.82474 c 0,0 -1.27649,0.60158 -2.38754,0.30079 -1.91755,-0.52074 -3.55312,-3.18653 -6.0591,-1.81792 -2.50222,1.37049 -0.39855,10.53715 0.8723,11.88133 1.27274,1.34416 5.17175,0.55834 10.05213,-2.94026 4.8766,-3.49483 -2.47779,-7.42394 -2.47779,-7.42394 z"
         id="path415"
         style="fill:#d38d5f;stroke-width:6.17168" /><path
         fill="#eea886"
         d="m 282.29985,167.9711 c 0,0 -4.23366,0.31584 -8.90159,1.24453 -4.09454,0.8159 -9.06515,2.39694 -8.87339,3.4328 0.29139,1.56789 4.2205,-0.19739 8.33384,-0.7313 3.79187,-0.49255 3.12448,0.24627 3.12448,0.24627 0,0 0.17673,-0.21995 -3.84638,1.12797 -4.33141,1.44945 -8.91475,3.18277 -8.77563,4.03439 0.17859,1.05089 0.28763,1.16745 1.94387,0.90051 -0.91742,0.35906 -0.95126,0.6655 -0.83658,1.07156 0.58655,2.07547 7.27355,0.95126 9.92804,0.50008 -2.03786,0.35906 -3.49483,0.84034 -2.31234,1.88371 1.34981,1.19001 10.73642,-0.83282 14.16923,-1.23325 3.73923,-0.43427 -3.95355,-12.47727 -3.95355,-12.47727 z"
         id="path417"
         style="fill:#d38d5f;stroke-width:6.17168" /><path
         fill="#0b141a"
         d="m 315.28367,112.42029 c -3.03425,0.99826 -4.65477,5.28644 -2.81053,14.19554 2.04351,9.85097 4.32954,14.63922 5.64927,16.95909 1.31785,2.31986 8.43159,14.1993 7.13255,16.08301 -1.30093,1.87997 -18.49688,6.35238 -19.6681,6.68701 -2.32927,0.66174 -17.92913,3.77495 -17.92913,3.77495 l 3.81631,13.36084 c 0,0 47.49895,-8.10636 49.81319,-10.41682 2.31234,-2.31235 3.51738,-5.44436 0.96065,-13.52254 -2.59998,-8.206 -7.26791,-27.42479 -8.10074,-28.92687 -0.82529,-1.50208 -5.17738,-22.69295 -18.86347,-18.19421 z"
         id="path419"
         style="fill:#000000;stroke-width:6.17168" /><path
         opacity="0.3"
         fill="#a77860"
         d="m 312.89613,128.55783 c 0,0 1.55097,19.90122 8.441,34.0366 2.09428,-0.46999 4.15471,-1.55284 5.96322,-2.98538 0,0 -7.9635,-13.07885 -8.67599,-14.56588 -0.7125,-1.48705 -4.9236,-13.02246 -5.72823,-16.48534 z"
         id="path421"
         style="fill:#1a1a1a;stroke:#000000;stroke-width:3.06816" /><path
         opacity="0.3"
         fill="#a77860"
         d="m 290.06783,180.66456 c 0,0 19.12103,3.43281 35.58568,1.38741 -0.24628,-1.59045 -0.0244,-3.33317 0.48691,-5.37103 0,0 -15.4382,3.0286 -17.16964,3.2354 -1.73332,0.20492 -14.98701,0.87606 -18.90295,0.74822 z"
         id="path423"
         style="fill:#000000;stroke-width:3.06816" /><g
         id="g527"
         style="fill:#d38d5f;stroke-width:3.28288"
         transform="matrix(1.8799558,0,0,1.8799558,-477.87343,-260.13807)">
				<path
   fill="#eea987"
   d="m 401.209,176.688 c 0,0 -2.116,3.924 -1.067,4.533 0.866,0.506 -1.016,4.359 -1.262,4.988 -0.247,0.627 1.57,1.086 1.955,1.49 0.387,0.406 1.531,5.389 3.028,5.539 1.495,0.15 8.237,-2.195 10.073,-4.104 1.836,-1.909 3.342,-10.529 2.116,-14.168 -1.223,-3.636 -11.106,-5.136 -14.843,1.722 z"
   id="path525"
   style="fill:#d38d5f;stroke-width:3.28288" />
			</g><g
         id="g531"
         style="fill:#1c1f24;stroke-width:3.28288"
         transform="matrix(1.8799558,0,0,1.8799558,-477.87343,-260.13807)">
				<path
   fill="#0b4870"
   d="m 400.787,177.537 c 0,0 -4.302,-4.354 -0.593,-6.428 10.584,-5.922 13.52,1.42 14.336,1.629 0.816,0.211 5.443,0.529 3.108,8.656 -2.008,6.98 -3.702,7.74 -3.702,7.74 0,0 -0.084,-4.51 -0.933,-5.129 -1.326,-0.961 -4.231,-0.729 -4.231,-0.729 0,0 1.385,-3.676 -0.779,-4.199 -2.163,-0.518 -5.015,-2.352 -7.206,-1.54 z"
   id="path529"
   style="fill:#1c1f24;stroke-width:3.28288" />
			</g><g
         id="g535"
         style="fill:#d38d5f;stroke-width:3.28288"
         transform="matrix(1.8799558,0,0,1.8799558,-477.87343,-260.13807)">
				<path
   fill="#eea987"
   d="m 410.655,182.266 c 0.192,-0.506 0.811,-2.67 2.668,-1.398 1.86,1.273 -1.156,5.357 -1.481,5.41 -0.325,0.053 -2.792,0.234 -1.187,-4.012 z"
   id="path533"
   style="fill:#d38d5f;stroke-width:3.28288" />
			</g></g></g><g
     id="g1047"
     transform="matrix(1.2814526,0,0,1.2814526,-18.426113,-114.51118)"
     style="stroke-width:5.34589"><path
       fill="#0b141a"
       d="m 141.2723,136.6409 c -3.38907,11.76732 -6.2369,13.04707 -6.2369,13.04707 -3.10243,3.22046 -14.46676,7.18617 -16.99592,6.93157 -2.51229,-0.25292 -4.453,-8.66826 -5.10889,-9.3427 -0.64072,-0.6913 -3.70943,-1.46522 -3.2879,-2.51229 0.40466,-1.06056 3.5914,-7.57061 2.12449,-8.41366 -1.24603,-0.72502 0.15343,-4.21526 1.09597,-6.22003 0,0 -7.26711,-7.33455 -1.01167,-10.82479 17.85584,-9.98173 22.79612,2.39427 24.17872,2.75004 1.38261,0.35239 9.17072,0.87509 5.2421,14.58479 z"
       id="path15"
       style="opacity:0.3;stroke-width:2.65764" /><path
       fill="#0b141a"
       d="m 44.896322,187.60843 v 31.41379 c 0,2.78207 -2.261065,5.04145 -5.041449,5.04145 H 11.562059 l -2.8478281,6.76128 H 32.892952 v 2.69776 H -8.7217633 l 4.1663612,-9.45735 H -20.000108 c -2.782071,0 -5.041449,-2.25938 -5.041449,-5.04145 v -31.05802 z"
       id="path27"
       style="opacity:0.3;stroke-width:2.65764" /><path
       fill="#0b141a"
       d="m 204.26512,233.82621 v 11.85499 h -8.16074 v 15.56105 c -2.25938,1.28144 -4.45131,2.58142 -6.59266,3.89658 -1.26458,0.7773 -2.49375,1.55122 -3.72629,2.32851 -25.42644,16.21863 -43.7038,34.24307 -60.9695,48.81101 -5.04145,4.24898 -9.98173,8.20963 -15.00463,11.75382 -8.80315,6.20486 -17.806938,11.09456 -27.839253,13.95925 -5.444427,1.56808 -11.178865,2.52916 -17.366864,2.78207 -21.666427,0.89195 -48.659255,-6.94843 -86.699432,-28.42938 -2.866375,-1.61698 -5.631585,-3.18505 -8.295628,-4.73627 -1.264577,-0.70816 -2.493747,-1.43319 -3.726288,-2.14135 -1.922158,-1.09597 -3.810594,-2.19362 -5.648446,-3.25755 V 245.6812 h -7.606012 V 233.82621 H 103.87284 c 0.18547,-5.52873 0.40467,-11.80272 0.53956,-14.95405 0.30349,-6.94843 -0.1703,-18.17788 -0.59183,-28.19333 -6.491494,4.61992 -14.583104,9.8637 -19.641414,13.10102 -2.748348,1.75523 -6.37347,1.14992 -8.396794,-1.41633 l -11.699871,-14.85288 18.833774,-0.10285 c 10.555007,-0.0523 19.120415,-8.53337 19.322745,-19.02094 0.96108,-0.50414 2.05704,-0.9088 3.18673,-1.22916 3.18843,-2.90179 9.76254,-6.13911 15.29296,-7.13222 0,0 0,0.0169 -0.0169,0.0489 0.15175,-0.0489 0.23605,-0.0826 0.23605,-0.0826 l 15.32668,0.85991 c 0,0 15.42785,8.63116 18.96867,10.82478 2.2931,1.41633 0.0506,13.20219 -1.92216,22.9799 19.32274,0.89532 20.77279,4.61993 20.77279,4.61993 0,0 -2.26106,16.50863 -4.95714,34.54825 h 35.13839 z"
       id="path37"
       style="opacity:0.3;stroke-width:2.65764" /><path
       fill="#eea886"
       d="m 201.24868,179.51851 c 0,0 4.25404,-0.73851 4.17311,-2.46677 -0.086,-1.73163 0.64409,-4.09049 0.91049,-4.82057 0.35914,-0.97457 0.39455,-4.42939 1.56976,-3.93874 1.17185,0.49403 0.19559,5.70746 0.19728,6.84727 0.002,1.14318 3.68582,-2.05199 4.80539,-2.06211 1.11789,-0.0101 5.87607,6.88268 3.10581,8.75594 -2.77364,1.87663 -6.94169,1.91035 -7.3649,2.342 -0.42322,0.43164 -4.09386,1.88 -4.09386,1.88 z"
       id="path125"
       style="fill:#d38d5f;stroke-width:5.34589" /><path
       fill="#eea886"
       d="m 212.1544,173.34906 c 0,0 8.86216,-5.13419 9.7305,-4.94366 0.8734,0.18716 1.11451,0.71828 0.30687,1.23423 -0.80933,0.51763 -8.4204,5.23029 -8.4204,5.23029 0,0 11.48574,-4.18153 12.22593,-4.19502 0.43671,-0.007 0.96614,0.99817 0.55473,1.31684 -0.40803,0.31868 -11.55655,5.16117 -11.55655,5.16117 0,0 10.73205,-3.8831 11.35759,-3.69426 0.54967,0.16524 0.81945,1.21231 0.0455,1.55796 -0.7773,0.34565 -10.53646,4.5508 -10.53646,4.5508 0,0 7.99044,-2.29816 8.43894,-1.81088 0.27484,0.30013 0.76887,1.14318 -1.31178,1.66924 -2.07897,0.52438 -6.85401,2.31165 -6.85401,2.31165 z"
       id="path127"
       style="fill:#d38d5f;stroke-width:5.34589" /><g
       id="g133"
       style="stroke-width:3.17058"
       transform="matrix(1.6861033,0,0,1.6861033,-412.61432,-188.92204)">
				<polygon
   fill="#858585"
   points="332.459,283.844 342.775,326.863 345.048,326.863 336.298,283.75 "
   id="polygon131"
   style="stroke-width:1.57619" />
			</g><g
       id="g139"
       style="stroke-width:3.17058"
       transform="matrix(1.6861033,0,0,1.6861033,-412.61432,-188.92204)">
				<polygon
   fill="#858585"
   points="321.201,283.844 331.521,326.863 333.793,326.863 325.043,283.75 "
   id="polygon137"
   style="stroke-width:1.57619" />
			</g><g
       id="g145"
       style="stroke-width:3.17058"
       transform="matrix(1.6861033,0,0,1.6861033,-412.61432,-188.92204)">
				<polygon
   fill="#858585"
   points="308.624,283.844 298.307,326.863 296.032,326.863 304.782,283.75 "
   id="polygon143"
   style="stroke-width:1.57619" />
			</g><g
       id="g151"
       style="stroke-width:3.17058"
       transform="matrix(1.6861033,0,0,1.6861033,-412.61432,-188.92204)">
				<path
   fill="#e2d2ca"
   d="m 347.962,230.234 c 0,0 -1.341,9.791 -2.94,20.49 -0.14,0.91 -0.28,1.82 -0.42,2.74 v 0.01 c -0.19,1.25 -0.38,2.5 -0.57,3.74 -0.03,0.18 -0.06,0.359 -0.09,0.541 -0.4,2.58 -0.8,5.1 -1.2,7.439 -0.45,2.699 -0.88,5.15 -1.27,7.17 -0.2,1 -0.38,1.891 -0.55,2.65 -0.41,1.799 -0.851,3.24 -1.311,4.41 -1.85,4.789 -3.86,4.84 -3.86,4.84 h -44.46 c -0.31,-4.26 0.881,-11.42 0.881,-11.42 l 0.5,-0.65 11.13,-14.439 0.42,-0.541 1.979,-2.57 v -0.01 l 1.63,-2.109 0.86,-1.111 0.53,-0.689 0.149,-0.189 0.811,-1.061 16.99,-22.039 c 3.319,-0.07 6.119,-0.031 8.47,0.059 11.461,0.53 12.321,2.739 12.321,2.739 z"
   id="path149"
   style="stroke-width:1.57619" />
			</g><g
       id="g157"
       style="stroke-width:3.17058"
       transform="matrix(1.6861033,0,0,1.6861033,-412.61432,-188.92204)">
				<polygon
   fill="#24263d"
   points="312.808,256.096 308.944,246.367 307.013,257.107 "
   id="polygon155"
   style="stroke-width:1.57619" />
			</g><g
       id="g167"
       style="fill:#1c2224;stroke-width:3.17058"
       transform="matrix(1.6861033,0,0,1.6861033,-412.61432,-188.92204)">
				<g
   id="g165"
   style="fill:#1c2224;stroke-width:3.17058">
					<g
   id="g163"
   style="fill:#1c2224;stroke-width:3.17058">
						<path
   fill="#0e538c"
   d="m 283.65,322.596 c 0,0 -3.809,2.264 -5.532,3.107 -1.728,0.842 -8.438,1.1 -9.1,1.732 -0.661,0.631 -0.414,2.637 0.697,2.838 1.114,0.203 9.274,0.92 11.995,0.275 2.72,-0.643 7.813,0.416 8.94,0.031 1.126,-0.387 0.383,-6.463 -0.056,-7.826 -0.439,-1.363 -6.944,-0.157 -6.944,-0.157 z"
   id="path161"
   style="fill:#1c2224;stroke-width:3.17058" />
					</g>
				</g>
			</g><g
       id="g175"
       style="stroke-width:3.17058"
       transform="matrix(1.6861033,0,0,1.6861033,-412.61432,-188.92204)">
				<g
   id="g173"
   style="stroke-width:3.17058">
					<g
   id="g171"
   style="stroke-width:3.17058">
						<path
   fill="#1c1e30"
   d="m 283.71,320.023 -0.06,2.572 c 0,0 5.103,0.941 6.945,0.158 l -0.128,-2.824 z"
   id="path169"
   style="stroke-width:1.57619" />
					</g>
				</g>
			</g><g
       id="g181"
       style="stroke-width:3.17058"
       transform="matrix(1.6861033,0,0,1.6861033,-412.61432,-188.92204)">
				<g
   id="g179"
   style="stroke-width:3.17058">
					<path
   fill="#282b45"
   d="m 331.051,262.16 c 0,0 -29.126,6.184 -33.672,8.115 -4.545,1.93 -7.272,2.727 -7.612,3.691 -0.343,0.967 -7.443,47.158 -7.443,47.158 h 9.659 c 0,0 7.499,-34.885 8.408,-37.045 0.909,-2.158 36.931,-2.273 39.543,-4.887 2.614,-2.613 4.887,-9.771 2.046,-16.191 -2.841,-6.42 -10.929,-0.841 -10.929,-0.841 z"
   id="path177"
   style="stroke-width:1.57619" />
				</g>
			</g><g
       id="g191"
       style="fill:#1c2224;stroke-width:3.17058"
       transform="matrix(1.6861033,0,0,1.6861033,-412.61432,-188.92204)">
				<g
   id="g189"
   style="fill:#1c2224;stroke-width:3.17058">
					<g
   id="g187"
   style="fill:#1c2224;stroke-width:3.17058">
						<path
   fill="#0e538c"
   d="m 319.165,324.42 c 0,0 -3.419,2.82 -4.994,3.918 -1.576,1.096 -8.17,2.377 -8.727,3.104 -0.557,0.725 -0.006,2.67 1.126,2.699 1.132,0.029 9.303,-0.512 11.894,-1.564 2.591,-1.049 7.785,-0.783 8.839,-1.338 1.056,-0.553 -0.607,-6.443 -1.251,-7.723 -0.642,-1.282 -6.887,0.904 -6.887,0.904 z"
   id="path185"
   style="fill:#1c2224;stroke-width:3.17058" />
					</g>
				</g>
			</g><g
       id="g199"
       style="stroke-width:3.17058"
       transform="matrix(1.6861033,0,0,1.6861033,-412.61432,-188.92204)">
				<g
   id="g197"
   style="stroke-width:3.17058">
					<g
   id="g195"
   style="stroke-width:3.17058">
						<path
   fill="#0e538c"
   d="m 318.83,321.871 0.335,2.549 c 0,0 5.188,0.148 6.887,-0.904 l -0.559,-2.771 z"
   id="path193"
   style="stroke-width:1.57619" />
					</g>
				</g>
			</g><g
       id="g205"
       style="stroke-width:3.17058"
       transform="matrix(1.6861033,0,0,1.6861033,-412.61432,-188.92204)">
				<g
   id="g203"
   style="stroke-width:3.17058">
					<path
   fill="#282b45"
   d="m 332.873,257.855 c 0,0 -31.569,14.395 -33.615,19.059 -2.082,4.75 18.427,46.246 18.427,46.246 l 9.432,-1.459 c 0,0 -15.422,-39.467 -14.577,-41.438 0.845,-1.971 50.86,-7.93 39.319,-21.205 -11.541,-13.279 -18.986,-1.203 -18.986,-1.203 z"
   id="path201"
   style="stroke-width:1.57619" />
				</g>
			</g><g
       id="g211"
       style="stroke-width:3.17058"
       transform="matrix(1.6861033,0,0,1.6861033,-412.61432,-188.92204)">
				<path
   fill="#0b4870"
   d="m 332.735,213.375 c 1.516,-0.787 6.57,0.938 8.062,3.262 3.471,5.404 10.028,12.08 10.028,12.08 l 14.621,-12.293 2.931,7.328 -17.356,14.629 c -1.479,1.246 -3.661,1.17 -5.049,-0.178 -4.56,-4.426 -13.943,-13.734 -14.668,-16.062 -0.959,-3.08 -1.465,-7.26 1.431,-8.766 z"
   id="path209"
   style="stroke-width:1.57619" />
			</g><g
       id="g217"
       style="stroke-width:3.17058"
       transform="matrix(1.6861033,0,0,1.6861033,-412.61432,-188.92204)">
				<path
   fill="#ffffff"
   d="m 335.642,227.494 c -0.641,3.201 -1.24,6.041 -1.3,7.281 -0.101,1.939 -2.011,9.59 -3.67,15.949 -0.58,2.211 -1.131,4.27 -1.561,5.871 l -0.17,0.619 -0.14,0.541 h -0.011 l -0.59,2.189 -9.95,-2.189 -2.449,-0.541 -4.16,-0.92 -2.021,-0.439 c 0.12,-0.43 0.08,-1.541 -0.04,-3.07 -0.05,-0.621 -0.119,-1.32 -0.189,-2.061 -0.01,-0.061 -0.021,-0.129 -0.021,-0.189 -0.1,-0.939 -0.22,-1.949 -0.35,-3 v -0.01 c -0.04,-0.311 -0.07,-0.631 -0.12,-0.961 -0.479,-3.9 -1.06,-8.139 -1.38,-10.879 -0.28,-2.43 -0.58,-6.65 -0.75,-10.9 -0.23,-6.01 -0.21,-12.061 0.49,-13.131 0.13,-0.199 0.34,-0.41 0.609,-0.629 2.03,-1.631 7.49,-3.689 8.431,-4.041 0.09,-0.029 0.14,-0.049 0.14,-0.049 l 9.09,0.51 c 0,0 9.15,5.119 11.25,6.42 1.362,0.84 0.032,7.83 -1.138,13.629 z"
   id="path215"
   style="stroke-width:1.57619" />
			</g><g
       id="g223"
       style="stroke-width:3.17058"
       transform="matrix(1.6861033,0,0,1.6861033,-412.61432,-188.92204)">
				<polygon
   fill="#1f2136"
   points="328.204,259.945 329.114,256.592 309.584,252.789 309.626,255.854 "
   id="polygon221"
   style="stroke-width:1.57619" />
			</g><g
       id="g229"
       style="stroke-width:3.17058"
       transform="matrix(1.6861033,0,0,1.6861033,-412.61432,-188.92204)">
				<polygon
   fill="#4f558a"
   points="318.49,254.35 313.858,253.383 313.858,257.047 318.49,258.127 "
   id="polygon227"
   style="stroke-width:1.57619" />
			</g><g
       id="g235"
       style="stroke-width:3.17058"
       transform="matrix(1.6861033,0,0,1.6861033,-412.61432,-188.92204)">
				<path
   fill="#0b4870"
   d="m 320.566,244.809 c 0.05,0.959 0.112,1.932 0.161,2.914 l 0.014,0.012 c 0.659,10.783 1.643,22.064 1.643,22.064 1.355,1.133 18.565,-2.865 18.565,-2.865 0,0 -2.118,-2.875 -4.16,-10.844 -2.054,-7.957 -0.448,-15.602 1.681,-28.549 2.116,-12.949 0.361,-12.877 0.361,-12.877 l -13.297,-7.221 c -0.871,3.312 -4.396,15.328 -5.23,22.213 -0.297,2.514 -0.112,8.53 0.262,15.153 z"
   id="path233"
   style="stroke-width:1.57619" />
			</g><g
       id="g241"
       style="stroke-width:3.17058"
       transform="matrix(1.6861033,0,0,1.6861033,-412.61432,-188.92204)">
				<path
   fill="#0b4870"
   d="m 316.312,206.955 c 0,0 0,0.01 -0.01,0.029 -0.12,0.301 -1.141,2.99 -2.32,6.861 -0.57,1.869 -1.17,4.01 -1.73,6.289 0,0 0,0.01 -0.01,0.01 -0.55,2.24 -1.06,4.631 -1.439,7.02 -0.891,5.48 -1.28,13.311 -1.721,19.551 -0.02,0.279 -0.04,0.541 -0.06,0.811 v 0.01 c -0.08,1.141 -0.17,2.209 -0.26,3.189 -0.021,0.24 -0.04,0.471 -0.07,0.689 -0.31,3.16 -0.7,5.291 -1.3,5.441 -0.13,0.029 -0.25,0.059 -0.351,0.09 -1.39,0.33 -0.909,0.061 -0.909,0.061 0,0 0.029,-0.941 0.069,-2.361 v -0.01 c 0.04,-1.09 0.08,-2.449 0.12,-3.91 0.11,-3.279 0.24,-7 0.32,-8.869 0.18,-4.121 -0.101,-10.781 -0.351,-16.721 -0.27,-6.189 -1.31,-12.541 -0.939,-13.52 0.159,-0.422 -0.37,0.059 0.159,-0.422 1.891,-1.718 7.521,-3.648 10.802,-4.238 z"
   id="path239"
   style="stroke-width:1.57619" />
			</g><g
       id="g247"
       style="fill:#d38d5f;stroke-width:3.17058"
       transform="matrix(1.6861033,0,0,1.6861033,-412.61432,-188.92204)">
				<path
   fill="#eea987"
   d="m 316.632,205.389 c 0,0.611 -0.051,1.172 -0.187,1.545 0,0 1.021,3.984 9.089,0.51 0,0 -1.595,-5.939 0,-10.92 l -9.089,5.641 c 0,0 0.112,0.896 0.161,1.943 0.026,0.421 0.038,0.871 0.026,1.281 z"
   id="path245"
   style="fill:#d38d5f;stroke-width:3.17058" />
			</g><g
       id="g253"
       style="fill:#d38d5f;stroke-width:3.17058"
       transform="matrix(1.6861033,0,0,1.6861033,-412.61432,-188.92204)">
				<path
   fill="#d3d3d3"
   d="m 325.205,205.865 c 0,0 -3.171,1.533 -6.371,1.83 l 1.56,3.316 5.141,-3.564 z"
   id="path251"
   style="fill:#d38d5f;stroke-width:3.17058" />
			</g><g
       id="g259"
       style="fill:#d38d5f;stroke-width:3.17058"
       transform="matrix(1.6861033,0,0,1.6861033,-412.61432,-188.92204)">
				<path
   fill="#d3d3d3"
   d="m 318.834,207.695 c 0,0 -2.232,-0.738 -2.216,-1.83 l -0.303,1.094 0.91,3.5 z"
   id="path257"
   style="fill:#d38d5f;stroke-width:3.17058" />
			</g><g
       id="g265"
       style="fill:#d38d5f;stroke-width:3.17058"
       transform="matrix(1.6861033,0,0,1.6861033,-412.61432,-188.92204)">
				<path
   fill="#0b141a"
   d="m 318.834,207.695 -1.167,2.004 c 0,0 0.541,0.617 2.272,0.35 z"
   id="path263"
   style="fill:#d38d5f;stroke-width:3.17058" />
			</g><g
       id="g271"
       style="stroke-width:3.17058"
       transform="matrix(1.6861033,0,0,1.6861033,-412.61432,-188.92204)">
				<path
   fill="#0b141a"
   d="m 317.918,209.873 c 0,0 -4.769,14.031 -4.807,23.994 -0.038,9.961 0.747,15.908 0.747,15.908 l 1.051,1.961 1.534,-1.791 c 0,0 -1.083,-28.926 3.16,-39.855 10e-4,0 -1.508,-0.719 -1.685,-0.217 z"
   id="path269"
   style="stroke-width:1.57619" />
			</g><path
       fill="#a77860"
       d="m 121.2161,155.22345 c 0.0422,0.71153 0.0624,1.46859 0.0422,2.15989 10.8113,0.17199 10.97991,-6.00421 10.97991,-6.00421 -1.68105,4.47323 -11.02206,3.84432 -11.02206,3.84432 z"
       id="path275"
       style="fill:#d38d5f;stroke-width:5.34589" /><g
       id="g285"
       style="stroke-width:3.17058"
       transform="matrix(1.6861033,0,0,1.6861033,-412.61432,-188.92204)">
				<g
   id="g283"
   style="stroke-width:3.17058">
					<g
   id="g281"
   style="stroke-width:3.17058">
						<g
   id="g279"
   style="stroke-width:3.17058">
							<path
   fill="#eea886"
   d="m 279.514,209.045 c 0,0 -1.583,-3.146 -1.838,-3.617 -0.256,-0.473 -1.505,-1.125 -2.999,-1.74 -1.492,-0.611 -3.752,-0.695 -3.973,-0.514 -0.221,0.18 -0.52,0.246 -0.744,0.988 -0.226,0.74 -0.051,1.506 -0.051,1.506 0,0 -0.664,0.766 -0.385,1.691 0,0 -0.596,0.752 -0.121,1.746 0,0 -0.564,0.752 -0.165,1.441 0,0 1.249,0.658 1.652,1.051 0.399,0.393 3.087,1.561 5.817,2.242 0.001,0.001 2.772,-0.325 2.807,-4.794 z"
   id="path277"
   style="stroke-width:1.57619" />
						</g>
					</g>
				</g>
			</g><g
       id="g295"
       style="stroke-width:3.17058"
       transform="matrix(1.6861033,0,0,1.6861033,-412.61432,-188.92204)">
				<g
   id="g293"
   style="stroke-width:3.17058">
					<g
   id="g291"
   style="stroke-width:3.17058">
						<g
   id="g289"
   style="stroke-width:3.17058">
							<path
   fill="#eea886"
   d="m 279.514,209.045 c 0,0 3.02,3.012 2.952,3.732 -0.114,1.189 -1.581,4.66 -1.656,4.59 -0.076,-0.07 -4.728,-3.691 -4.728,-3.691 z"
   id="path287"
   style="stroke-width:1.57619" />
						</g>
					</g>
				</g>
			</g><g
       id="g301"
       style="stroke-width:3.17058"
       transform="matrix(1.6861033,0,0,1.6861033,-412.61432,-188.92204)">
				<g
   id="g299"
   style="stroke-width:3.17058">
					<path
   fill="#0b4870"
   d="m 310.944,220.053 c 0,0 0,0.01 -0.01,0.01 -0.5,0.879 -2.689,2.639 -5.47,4.639 -0.16,0.121 -0.32,0.23 -0.48,0.352 -3.85,2.738 -8.649,5.85 -11.649,7.77 -1.63,1.039 -3.78,0.68 -4.98,-0.84 l -6.939,-8.811 -7.11,-9.02 0.39,-0.59 3.301,-5.01 0.66,-0.99 11.84,14.99 c 0,0 7.77,-5.221 12.26,-9.811 0.34,-0.35 0.78,-0.65 1.29,-0.91 0.57,-0.301 1.22,-0.541 1.89,-0.73 0.21,-0.061 0.42,-0.109 0.63,-0.16 1.971,-0.43 3.99,-0.379 4.74,0.23 0.84,0.68 1.26,1.58 1.37,2.59 0.248,2 -0.693,4.4 -1.733,6.291 z"
   id="path297"
   style="stroke-width:1.57619" />
				</g>
			</g><g
       id="g307"
       style="stroke-width:3.17058"
       transform="matrix(1.6861033,0,0,1.6861033,-412.61432,-188.92204)">
				
					<rect
   x="270.961"
   y="196.98399"
   transform="matrix(-0.8238,0.5669,-0.5669,-0.8238,610.0791,216.076)"
   fill="#eb4747"
   width="0.99199998"
   height="11.745"
   id="rect303"
   style="stroke-width:1.57619" />
				<polygon
   fill="#eea886"
   points="267.164,196.582 267.729,198.289 268.55,197.729 "
   id="polygon305"
   style="stroke-width:1.57619" />
			</g><g
       id="g317"
       style="stroke-width:3.17058"
       transform="matrix(1.6861033,0,0,1.6861033,-412.61432,-188.92204)">
				<g
   id="g315"
   style="stroke-width:3.17058">
					<g
   id="g313"
   style="stroke-width:3.17058">
						<g
   id="g311"
   style="stroke-width:3.17058">
							<path
   fill="#d69779"
   d="m 271.103,203.318 c 0,0 3.75,1.652 3.588,2.357 -0.164,0.703 -0.606,0.852 -0.606,0.852 l 1.271,1.459 c 0,0 0.35,1.492 -1.212,1.475 0,0 0.46,1.357 -1.049,1.143 0,0 -0.055,1.043 -0.769,1.082 -0.714,0.037 -3.087,-1.139 -3.087,-1.139 0,0 -0.401,-0.498 0.165,-1.441 0,0 -0.503,-0.924 0.121,-1.746 0,0 -0.298,-0.809 0.385,-1.691 0,0 -0.54,-1.859 0.795,-2.494 -10e-4,-0.001 0.238,0.073 0.398,0.143 z"
   id="path309"
   style="stroke-width:1.57619" />
						</g>
					</g>
				</g>
			</g><g
       id="g327"
       style="fill:#c87137;stroke-width:3.17058"
       transform="matrix(1.6861033,0,0,1.6861033,-412.61432,-188.92204)">
				<g
   id="g325"
   style="fill:#c87137;stroke-width:3.17058">
					<g
   id="g323"
   style="fill:#c87137;stroke-width:3.17058">
						<g
   id="g321"
   style="fill:#c87137;stroke-width:3.17058">
							<path
   fill="#eea886"
   d="m 277.564,205.359 c 0,0 -2.751,0.297 -4.19,1.191 -0.323,0.201 -0.604,0.463 -0.556,0.877 0.047,0.414 0.644,0.863 1.842,0.803 1.196,-0.059 2.773,0.475 2.773,0.475 0,0 1.214,-0.465 0.131,-3.346 z"
   id="path319"
   style="fill:#c87137;stroke-width:3.17058" />
						</g>
					</g>
				</g>
			</g><path
       fill="#12131f"
       d="m 60.9025,291.08459 c 0,0 3.444709,-21.48433 3.625122,-22.35436 0.183786,-0.87002 3.687508,-4.00112 20.428828,-9.4877 0,0 -18.611208,3.61838 -23.490791,6.79668 -3.761697,2.44991 -0.563159,25.04538 -0.563159,25.04538 z"
       id="path331"
       style="stroke-width:2.65764" /><rect
       x="-34.122902"
       y="251.28918"
       fill="#0e538c"
       width="3.7279744"
       height="122.38412"
       id="rect333"
       style="stroke-width:2.65764" /><rect
       x="185.78543"
       y="251.28918"
       fill="#0e538c"
       width="3.7296603"
       height="122.38412"
       id="rect335"
       style="stroke-width:2.65764" /><rect
       x="-39.76292"
       y="244.76901"
       fill="#cce9ff"
       width="235.86899"
       height="110.87816"
       id="rect337"
       style="fill:#87aade;stroke-width:5.34589" /><rect
       x="-47.368935"
       y="233.52271"
       fill="#0e538c"
       width="251.63406"
       height="11.854993"
       id="rect339"
       style="stroke-width:2.65764" /><rect
       x="-35.537548"
       y="371.26556"
       fill="#0e538c"
       width="6.5589418"
       height="2.4077554"
       id="rect341"
       style="stroke-width:2.65764" /><rect
       x="184.50397"
       y="371.26556"
       fill="#0e538c"
       width="6.2959099"
       height="2.4077554"
       id="rect343"
       style="stroke-width:2.65764" /><g
       id="g357"
       style="fill:#aaccff;stroke-width:3.17058"
       transform="matrix(1.6861033,0,0,1.6861033,-412.61432,-188.92204)">
				<path
   fill="#f7f7f7"
   d="m 271.342,218.025 v 23.92 c 0,1.65 -1.341,2.99 -2.99,2.99 h -35.5 c -1.65,0 -2.99,-1.34 -2.99,-2.99 v -23.92 c 0,-1.65 1.34,-2.99 2.99,-2.99 h 35.5 c 1.649,0 2.99,1.34 2.99,2.99 z"
   id="path347"
   style="fill:#aaccff;stroke-width:3.17058" />
				<polygon
   fill="#f7f7f7"
   points="257.071,248.945 257.071,250.545 239.541,250.545 242.012,244.936 246.441,234.875 246.611,234.484 255.991,234.484 251.602,244.875 251.571,244.936 249.882,248.945 "
   id="polygon349"
   style="fill:#aaccff;stroke-width:3.17058" />
				<polygon
   fill="#f2f2f2"
   points="239.571,250.545 242.041,244.936 246.462,234.875 246.632,234.484 255.451,234.484 255.271,234.926 251.031,244.936 248.661,250.545 "
   id="polygon351"
   style="fill:#aaccff;stroke-width:3.17058" />
				<polygon
   fill="#d3d3d3"
   points="264.222,248.945 264.222,250.545 249.262,250.545 249.882,248.945 "
   id="polygon353"
   style="fill:#aaccff;stroke-width:3.17058" />
				<polygon
   fill="#d3d3d3"
   points="255.992,234.436 255.992,244.877 251.581,244.877 "
   id="polygon355"
   style="fill:#aaccff;stroke-width:3.17058" />
			</g><g
       id="g363"
       style="stroke-width:3.17058"
       transform="matrix(1.6861033,0,0,1.6861033,-412.61432,-188.92204)">
				<path
   fill="#ffffff"
   d="m 247.487,239.338 c 0.489,-1.262 1.662,-2.027 2.812,-1.932 -0.093,-0.055 -0.19,-0.102 -0.292,-0.141 -1.329,-0.514 -2.876,0.285 -3.456,1.787 -0.583,1.502 0.023,3.137 1.352,3.65 0.211,0.082 0.428,0.127 0.645,0.145 -1.12,-0.626 -1.598,-2.122 -1.061,-3.509 z"
   id="path359"
   style="stroke-width:1.57619" />
				<path
   fill="#d3d3d3"
   d="m 249.271,242.791 c 0.891,-0.199 1.704,-0.879 2.09,-1.875 0.426,-1.102 0.211,-2.27 -0.456,-3.02 -0.099,-0.111 -0.206,-0.215 -0.324,-0.305 -0.089,-0.068 -0.183,-0.131 -0.28,-0.186 -1.15,-0.096 -2.323,0.67 -2.812,1.932 -0.537,1.387 -0.06,2.883 1.061,3.51 0.083,0.006 0.163,0.01 0.244,0.008 0.159,-0.003 0.318,-0.029 0.477,-0.064 z"
   id="path361"
   style="stroke-width:1.57619" />
			</g><g
       id="g541"
       style="fill:#d38d5f;stroke-width:3.17058"
       transform="matrix(1.6861033,0,0,1.6861033,-412.61432,-188.92204)">
				<path
   fill="#eea987"
   d="m 324.802,200.824 c -1.84,1.91 -8.58,4.262 -10.08,4.111 -1.49,-0.15 -2.641,-5.141 -3.03,-5.541 -0.38,-0.41 -2.2,-0.869 -1.95,-1.49 0.24,-0.629 2.13,-4.49 1.26,-4.99 -0.739,-0.43 0.091,-2.5 0.65,-3.689 0.23,-0.51 0.42,-0.85 0.42,-0.85 3.74,-6.85 13.62,-5.35 14.84,-1.721 1.23,3.641 -0.28,12.26 -2.11,14.17 z"
   id="path539"
   style="fill:#d38d5f;stroke-width:3.17058" />
			</g><g
       id="g545"
       style="fill:#241f1c;stroke-width:3.17058"
       transform="matrix(1.6861033,0,0,1.6861033,-412.61432,-188.92204)">
				<path
   fill="#0b4870"
   d="m 328.501,193.086 c -2.01,6.979 -3.699,7.738 -3.699,7.738 0,0 -0.07,-3.59 -0.69,-4.799 -0.08,-0.15 -0.16,-0.26 -0.25,-0.33 -0.68,-0.49 -1.77,-0.67 -2.68,-0.721 -0.86,-0.061 -1.55,-0.01 -1.55,-0.01 0,0 1.39,-3.67 -0.78,-4.189 -2.16,-0.52 -5.01,-2.361 -7.2,-1.551 0,0 -4.31,-4.35 -0.6,-6.42 10.59,-5.92 13.52,1.42 14.34,1.631 0.82,0.21 5.439,0.52 3.109,8.651 z"
   id="path543"
   style="fill:#241f1c;stroke-width:3.17058" />
			</g><g
       id="g549"
       style="fill:#d38d5f;stroke-width:3.17058"
       transform="matrix(1.6861033,0,0,1.6861033,-412.61432,-188.92204)">
				<path
   fill="#eea987"
   d="m 321.516,193.959 c 0.192,-0.506 0.811,-2.672 2.668,-1.398 1.86,1.273 -1.156,5.357 -1.481,5.41 -0.325,0.053 -2.793,0.232 -1.187,-4.012 z"
   id="path547"
   style="fill:#d38d5f;stroke-width:3.17058" />
			</g></g><ellipse
     cx="-339.39313"
     cy="528.8938"
     rx="3.6659074"
     ry="2.5862222"
     transform="rotate(-84.55)"
     fill="#ffb883"
     id="ellipse124"
     style="stroke-width:6.8505" /></g></svg>
