<?xml version="1.0" encoding="UTF-8" standalone="no"?>
<svg
   xmlns:dc="http://purl.org/dc/elements/1.1/"
   xmlns:cc="http://creativecommons.org/ns#"
   xmlns:rdf="http://www.w3.org/1999/02/22-rdf-syntax-ns#"
   xmlns:svg="http://www.w3.org/2000/svg"
   xmlns="http://www.w3.org/2000/svg"
   xmlns:xlink="http://www.w3.org/1999/xlink"
   xmlns:sodipodi="http://sodipodi.sourceforge.net/DTD/sodipodi-0.dtd"
   xmlns:inkscape="http://www.inkscape.org/namespaces/inkscape"
   width="700"
   height="1100"
   data-name="Layer 1"
   version="1.1"
   viewBox="0 0 700.00004 1100"
   id="svg247"
   sodipodi:docname="office meeting.svg"
   inkscape:version="1.0.1 (3bc2e813f5, 2020-09-07)">
  <sodipodi:namedview
     pagecolor="#ffffff"
     bordercolor="#666666"
     borderopacity="1"
     objecttolerance="10"
     gridtolerance="10"
     guidetolerance="10"
     inkscape:pageopacity="0"
     inkscape:pageshadow="2"
     inkscape:window-width="1366"
     inkscape:window-height="702"
     id="namedview249"
     showgrid="false"
     showborder="false"
     inkscape:zoom="0.3029296"
     inkscape:cx="96.502303"
     inkscape:cy="678.05926"
     inkscape:window-x="-8"
     inkscape:window-y="-8"
     inkscape:window-maximized="1"
     inkscape:current-layer="g455"
     inkscape:document-rotation="0" />
  <metadata
     id="metadata2">
    <rdf:RDF>
      <cc:Work
         rdf:about="">
        <dc:format>image/svg+xml</dc:format>
        <dc:type
           rdf:resource="http://purl.org/dc/dcmitype/StillImage" />
        <dc:title>3</dc:title>
      </cc:Work>
    </rdf:RDF>
  </metadata>
  <defs
     id="defs35">
    <linearGradient
       id="linear-gradient"
       x1="-1580.6"
       x2="-1594"
       y1="-199.82001"
       y2="-19.26"
       gradientTransform="matrix(-1,0,0,1,-1467.2,372.53)"
       gradientUnits="userSpaceOnUse">
      <stop
         offset=".01"
         id="stop4" />
      <stop
         stop-opacity=".69"
         offset=".08"
         id="stop6" />
      <stop
         stop-opacity=".32"
         offset=".21"
         id="stop8" />
      <stop
         stop-opacity="0"
         offset="1"
         id="stop10" />
    </linearGradient>
    <linearGradient
       id="linear-gradient-2"
       x1="-758.72998"
       x2="-743.73999"
       y1="223.85001"
       y2="5.9099998"
       gradientTransform="matrix(-0.64978804,0,0,-0.64978804,-325.69554,215.47176)"
       xlink:href="#linear-gradient" />
    <linearGradient
       id="linear-gradient-3"
       x1="-746.19"
       x2="-724.79999"
       y1="113.84"
       y2="73.489998"
       gradientTransform="matrix(-0.56961904,0,0,-0.56961904,-278.55456,210.77871)"
       xlink:href="#linear-gradient" />
    <linearGradient
       id="linear-gradient-4"
       x1="-748.08002"
       x2="-713.16998"
       y1="143.53"
       y2="95.949997"
       gradientTransform="matrix(-0.56961904,0,0,-0.56961904,-278.54317,210.77871)"
       xlink:href="#linear-gradient" />
    <linearGradient
       id="linear-gradient-5"
       x1="-788.96002"
       x2="-756.10999"
       y1="95.660004"
       y2="87.220001"
       gradientTransform="matrix(-0.56961904,0,0,-0.56961904,-278.55456,210.77871)"
       xlink:href="#linear-gradient" />
    <linearGradient
       id="linear-gradient-6"
       x1="-735.59998"
       x2="-728.63"
       y1="250.19"
       y2="33.209999"
       gradientTransform="matrix(-0.56961904,0,0,-0.56961904,-278.55456,210.77871)"
       xlink:href="#linear-gradient" />
    <linearGradient
       id="linear-gradient-7"
       x1="-804.58002"
       x2="-771.72998"
       y1="87.760002"
       y2="79.309998"
       gradientTransform="matrix(-0.56961904,0,0,-0.56961904,-278.55456,210.77871)"
       xlink:href="#linear-gradient" />
    <linearGradient
       id="linear-gradient-8"
       x1="278.32999"
       x2="276.07999"
       y1="77.279999"
       y2="100.37"
       gradientTransform="matrix(1,0,0,-1,-11.22,323.86)"
       gradientUnits="userSpaceOnUse">
      <stop
         stop-opacity="0"
         offset="0"
         id="stop19" />
      <stop
         offset=".99"
         id="stop21" />
    </linearGradient>
    <linearGradient
       id="linear-gradient-9"
       x1="248.56"
       x2="278.59"
       y1="151.16"
       y2="62.939999"
       gradientTransform="matrix(0.56961904,0,0,-0.56961904,18.991637,210.77871)"
       xlink:href="#linear-gradient-8" />
    <linearGradient
       id="linear-gradient-10"
       x1="-819.5"
       x2="-765.73999"
       y1="183.63"
       y2="122.27"
       gradientTransform="matrix(-0.56961904,0,0,-0.56961904,-278.55456,210.77871)"
       xlink:href="#linear-gradient" />
    <linearGradient
       id="linear-gradient-12"
       x1="-853.17999"
       x2="-767.17999"
       y1="84.809998"
       y2="170.81"
       gradientTransform="matrix(-0.56961904,0,0,-0.56961904,-278.55456,210.77871)"
       xlink:href="#linear-gradient" />
    <linearGradient
       id="linear-gradient-13"
       x1="-845.08002"
       x2="-807.54999"
       y1="131.33"
       y2="131.33"
       gradientTransform="matrix(-0.56961904,0,0,-0.56961904,-278.55456,210.77871)"
       xlink:href="#linear-gradient-8" />
    <linearGradient
       id="linear-gradient-15"
       x1="-914.44"
       x2="-916.69"
       y1="77.730003"
       y2="100.82"
       gradientTransform="matrix(-0.56961904,0,0,-0.56961904,-435.42765,210.77871)"
       xlink:href="#linear-gradient-8" />
    <linearGradient
       id="linear-gradient-18"
       x1="107.02"
       x2="162.02"
       y1="88.690002"
       y2="125.1"
       gradientTransform="matrix(0.56961904,0,0,-0.56961904,18.991637,210.77871)"
       xlink:href="#linear-gradient" />
    <linearGradient
       id="linear-gradient-19"
       x1="126.49"
       x2="102.84"
       y1="116.53"
       y2="94.849998"
       gradientTransform="matrix(0.56961904,0,0,-0.56961904,18.991637,210.77871)"
       xlink:href="#linear-gradient-8" />
    <linearGradient
       id="linear-gradient-21"
       x1="339.54999"
       x2="425.56"
       y1="85.290001"
       y2="171.28999"
       gradientTransform="matrix(0.56961904,0,0,-0.56961904,-137.88714,210.77871)"
       xlink:href="#linear-gradient" />
    <linearGradient
       id="linear-gradient-22"
       x1="347.66"
       x2="385.14999"
       y1="131.78999"
       y2="131.78999"
       gradientTransform="matrix(0.56961904,0,0,-0.56961904,-137.88714,210.77871)"
       xlink:href="#linear-gradient-8" />
    <linearGradient
       id="linearGradient373"
       x1="-1580.6"
       x2="-1594"
       y1="-199.82001"
       y2="-19.26"
       gradientTransform="matrix(-0.64978804,0,0,0.64978804,-939.64127,228.81191)"
       gradientUnits="userSpaceOnUse"
       xlink:href="#linear-gradient" />
    <linearGradient
       id="linearGradient375"
       x1="278.32999"
       x2="276.07999"
       y1="77.279999"
       y2="100.37"
       gradientTransform="matrix(0.56961904,0,0,-0.56961904,18.991637,210.77871)"
       gradientUnits="userSpaceOnUse"
       xlink:href="#linear-gradient-8" />
  </defs>
  <title
     id="title37">3</title>
  <g
     id="g455"
     transform="matrix(3.9037912,0,0,4.5647175,88.96401,-64.213115)"
     style="stroke-width:0.236892">
    <g
       id="g342"
       transform="matrix(0.87595731,0,0,1.0823251,-53.418557,-48.610864)"
       style="stroke-width:0.243294">
      <path
         d="m 85.563013,146.32631 c 2.922146,-0.66075 2.346831,3.47468 3.115817,5.01266 a 8.5442856,8.5442856 0 0 0 1.799996,2.06771 3.7082199,3.7082199 0 0 1 1.31582,2.34683 0.88860566,0.88860566 0 0 1 -0.102531,0.49557 0.95126377,0.95126377 0 0 1 -0.569619,0.34747 6.6930237,6.6930237 0 0 1 -4.989864,-0.48988 3.8734095,3.8734095 0 0 1 -1.708857,-1.58924 5.4626466,5.4626466 0 0 1 -0.444303,-2.35252 c -0.05127,-1.72595 -0.843036,-5.29746 1.583541,-5.8386 z"
         fill="#fdb9a9"
         id="path41"
         style="stroke-width:0.336213" />
      <path
         d="m 88.143388,154.84212 c 0,0 8.299349,0.35316 4.7848,2.95632 -3.51455,2.60316 -8.760741,-0.63227 -9.273398,-1.23037 -0.512657,-0.59811 -0.09114,-1.61203 -0.09114,-1.61203 z"
         fill="#68e1fd"
         id="path43"
         style="stroke-width:0.336213" />
      <path
         d="m 84.019346,155.98706 c 0.740505,0.89999 4.636699,2.10758 6.362645,1.98797 1.725945,-0.11963 3.275309,-0.92849 3.104424,-2.04494 -0.170887,-1.11645 -3.218349,-3.71391 -3.787968,-3.70253 -0.569619,0.0114 -1.03101,1.32722 -2.18164,1.60634 a 3.0759428,3.0759428 0 0 1 -2.808222,-1.00823 0.77468189,0.77468189 0 0 0 -0.945568,-0.24494 3.6854352,3.6854352 0 0 0 0.256329,3.40633 z"
         fill="#ffffff"
         id="path45"
         style="stroke-width:0.336213" />
      <path
         d="m 75.560503,147.96112 c 2.922146,-0.67785 2.346831,3.45189 3.115817,4.98987 a 8.1170713,8.1170713 0 0 0 1.799996,2.06771 3.6911314,3.6911314 0 0 1 1.310124,2.35253 0.88290954,0.88290954 0 0 1 -0.09683,0.49557 0.95126377,0.95126377 0 0 1 -0.569619,0.34747 6.7613779,6.7613779 0 0 1 -4.99556,-0.48988 3.9873333,3.9873333 0 0 1 -1.708857,-1.58924 5.4626466,5.4626466 0 0 1 -0.444302,-2.35252 c -0.07405,-1.74304 -0.837341,-5.30315 1.589236,-5.82151 z"
         fill="#fdb9a9"
         id="path47"
         style="stroke-width:0.336213" />
      <path
         d="m 78.140877,156.43136 c 0,0 8.29935,0.35316 4.784801,2.96202 -3.51455,2.60885 -8.760741,-0.63228 -9.250614,-1.23038 -0.489872,-0.5981 -0.09684,-1.61202 -0.09684,-1.61202 z"
         fill="#68e1fd"
         id="path49"
         style="stroke-width:0.336213" />
      <path
         d="m 74.016836,157.5649 c 0.740504,0.90569 4.636698,2.11328 6.362644,1.98797 1.725946,-0.12531 3.27531,-0.92279 3.104424,-2.03924 -0.170886,-1.11645 -3.218348,-3.71391 -3.787967,-3.70822 -0.569619,0.005 -1.03101,1.33291 -2.181641,1.60633 a 3.081639,3.081639 0 0 1 -2.808221,-1.02532 0.77468189,0.77468189 0 0 0 -0.945568,-0.23924 3.6740428,3.6740428 0 0 0 0.256329,3.41772 z"
         fill="#ffffff"
         id="path51"
         style="stroke-width:0.336213" />
      <path
         d="m 83.079474,110.3207 -3.896194,41.01257 -5.62214,-0.69494 c -2.221514,-10.0139 -1.67468,-39.96447 -1.67468,-39.96447 z"
         fill="#473f47"
         id="path53"
         style="stroke-width:0.336213" />
      <path
         d="m 79.18328,109.20994 3.896194,41.01257 5.633533,-0.69494 c 3.218348,-25.96323 0.569619,-42.12332 0.569619,-42.12332 z"
         fill="#473f47"
         id="path55"
         style="stroke-width:0.336213" />
      <path
         d="m 88.781361,94.371362 c 0.07405,-0.751897 0.273417,-1.498098 0.353164,-2.278476 a 16.980343,16.980343 0 0 0 -0.09114,-4.653787 17.726545,17.726545 0 0 0 -1.463921,-4.739231 c -0.649364,-1.298731 -1.82278,-1.851262 -3.1386,-2.500627 a 11.164533,11.164533 0 0 0 -3.537334,-1.201897 8.9544113,8.9544113 0 0 0 -2.614551,0.142405 c -2.648729,0.506961 -6.140494,1.874047 -7.974667,3.987333 -1.355693,1.572149 -1.515187,3.816448 -1.560756,5.895558 -0.05696,2.848095 0,5.730367 0.176581,8.595551 0,0.415821 0.05127,0.831644 0.08544,1.241769 0.23924,3.1443 0.501264,6.40252 1.395566,9.43859 0.279114,0.95126 0.569619,1.90822 1.458225,2.41518 2.067717,1.20759 5.240495,0.54114 7.479098,0.23355 2.973411,-0.42152 6.020873,-0.86582 8.658209,-2.30696 a 2.4892352,2.4892352 0 0 0 1.247466,-1.2019 c 0.233544,-0.64936 -0.04557,-1.3443 -0.244936,-2.00506 -0.894302,-2.92784 -0.205063,-6.009477 -0.205063,-8.999977 0,-0.541138 -0.06835,-1.099365 -0.06835,-1.640503 a 2.2158181,2.2158181 0 0 0 0.04557,-0.421518 z"
         fill="#d5ffe6"
         id="path57"
         style="stroke-width:0.336213" />
      <path
         d="m 83.461119,81.7543 a 19.799957,19.799957 0 0 1 -0.113923,3.018982 c 0,0.922782 0.08544,1.839869 0.03987,2.756956 A 7.9746666,7.9746666 0 0 1 81.8377,91.836557 l 7.291124,-1.532274 a 0.56961904,0.56961904 0 0 0 0.387341,-0.199367 0.56961904,0.56961904 0 0 0 0,-0.415822 L 88.883889,86.840998 A 11.238584,11.238584 0 0 0 87.43136,82.802399 8.6809941,8.6809941 0 0 0 84.332632,80.250507 c -0.273417,-0.142405 -1.201896,-0.814556 -1.463921,-0.364557 -0.07975,0.19367 0.55253,1.532275 0.592404,1.86835 z"
         fill="#020202"
         opacity="0.1"
         style="isolation:isolate;stroke-width:0.336213"
         id="path59" />
      <path
         d="m 87.175035,88.880235 a 2.574678,2.574678 0 0 1 2.455059,-0.148101 2.3582228,2.3582228 0 0 1 1.293035,2.06202 3.1556894,3.1556894 0 0 1 -0.569619,1.623415 2.5063238,2.5063238 0 0 1 -0.71772,0.808859 2.4607542,2.4607542 0 0 1 -1.560757,0.324682 3.2923981,3.2923981 0 0 1 -1.38987,-0.381644 c -0.637973,-0.35886 -1.469617,-1.384174 -1.253162,-2.187337 a 4.6879647,4.6879647 0 0 1 1.743034,-2.101894 z"
         fill="#fdb9a9"
         id="path61"
         style="stroke-width:0.336213" />
      <path
         d="m 76.995943,107.97387 a 9.5582072,9.5582072 0 0 0 0.660758,-3.52025 19.987932,19.987932 0 0 0 -0.518353,-3.38354 L 75.241517,92.024532 C 74.894049,90.36694 74.142152,82.341008 71.613043,83.280879 a 5.2291028,5.2291028 0 0 0 -2.967715,3.320879 13.670857,13.670857 0 0 0 -0.529745,4.556953 c 0.04557,3.987333 0.837339,8.065805 1.349996,12.024659 0.193671,1.4981 0.427215,7.06328 2.409489,7.55314 0.387342,0.10254 0.768985,0.29621 1.139238,0.36457 0.666455,0.11961 2.665818,0.91708 3.537334,0.65505 a 0.5354419,0.5354419 0 0 0 0.341772,-0.25632 c 0.512657,-1.00823 -0.31329,-2.9905 -0.31329,-4.12405 a 7.7069456,7.7069456 0 0 1 2.113286,-4.93859 22.152484,22.152484 0 0 1 4.716445,-3.702526 l 2.329743,-1.509491 a 2.4436657,2.4436657 0 0 1 1.310123,-0.512657 5.1265714,5.1265714 0 0 0 0.979745,0.09114 c 0.506961,-0.08544 0.808859,-0.609492 0.991137,-1.087972 a 9.0170696,9.0170696 0 0 0 0.615189,-3.617081 0.56961904,0.56961904 0 0 0 -0.153797,-0.438607 0.56961904,0.56961904 0 0 0 -0.529746,0 l -7.325301,2.278476 a 7.5303637,7.5303637 0 0 1 -3.417714,0.512658 c -1.139238,-0.187976 -2.278477,-1.087974 -2.278477,-2.2443"
         fill="#020202"
         opacity="0.1"
         style="isolation:isolate;stroke-width:0.336213"
         id="path63" />
      <path
         d="M 69.596592,83.930245 C 67.1928,87.917579 66.35546,92.611239 65.563689,97.190976 a 4.3177123,4.3177123 0 0 0 -0.06835,1.708857 3.0075886,3.0075886 0 0 0 2.164552,2.067717 8.8518797,8.8518797 0 0 0 3.121512,0.16519 c 2.244299,-0.1481 4.893028,-0.34177 6.795555,-1.634806 0.649366,-0.444303 1.230377,-0.996833 1.896832,-1.424048 a 16.684142,16.684142 0 0 1 2.016451,-1.013922 23.268937,23.268937 0 0 0 3.78227,-2.210122 2.9278418,2.9278418 0 0 0 0.996833,-1.013922 c 0.387341,-0.768985 0.08544,-1.708857 -0.222151,-2.500627 a 0.70632761,0.70632761 0 0 0 -0.79747,-0.609492 0.66075809,0.66075809 0 0 0 -0.290506,0.102531 73.628957,73.628957 0 0 1 -9.774662,2.187337 c -0.911391,0.136709 -0.512657,-0.854428 -0.393038,-1.372782 0.193671,-0.723416 0.353164,-1.452529 0.47848,-2.193033 a 6.5904922,6.5904922 0 0 0 -2.278476,-5.736064 2.7683485,2.7683485 0 0 0 -1.526579,-0.723416 2.5689819,2.5689819 0 0 0 -1.86835,0.939871 z"
         fill="#005544"
         id="path65"
         style="stroke-width:0.336213" />
      <path
         d="m 83.068083,74.884695 a 22.978432,22.978432 0 0 0 -0.142405,-2.352526 c -0.07405,-0.683544 -0.182279,-1.372782 -0.318987,-2.044933 a 1.3670857,1.3670857 0 0 0 -0.518354,-1.036707 6.4651761,6.4651761 0 0 0 -3.508853,-0.962656 2.8480952,2.8480952 0 0 0 -3.195563,2.34683 2.9164495,2.9164495 0 0 0 -0.03418,0.444303 c -0.187974,1.708857 0.262024,3.417714 0.512657,5.155053 a 21.719574,21.719574 0 0 1 0.210758,3.987333 4.6765723,4.6765723 0 0 0 2.164553,0.768986 3.3664485,3.3664485 0 0 0 1.065188,-0.176582 0.77468189,0.77468189 0 0 0 0.472784,-0.313291 0.84303618,0.84303618 0 0 0 0.03987,-0.444302 3.5145495,3.5145495 0 0 1 -0.03987,-0.421519 13.03858,13.03858 0 0 1 0.04557,-2.358222 0.26772095,0.26772095 0 0 1 0.06835,-0.176582 0.27341714,0.27341714 0 0 1 0.16519,0 h 0.216455 a 5.7702408,5.7702408 0 0 0 1.173415,0 1.9196162,1.9196162 0 0 0 1.224681,-0.609493 2.5405009,2.5405009 0 0 0 0.398734,-1.805692 z"
         fill="#552200"
         id="path67"
         style="stroke-width:0.336213" />
      <path
         d="m 82.219349,74.998619 c -0.07975,-0.125316 -0.205062,-0.267721 -0.34177,-0.222151 -0.13671,0.04557 -0.148101,0.148101 -0.187974,0.250631 a 3.4177142,3.4177142 0 0 1 -0.683544,1.139238 5.3772037,5.3772037 0 0 1 -0.569619,0.56962 l -0.387341,0.341771 a 4.1866999,4.1866999 0 0 0 1.087973,0.244936 1.3443009,1.3443009 0 0 0 1.019618,-0.353163 1.9537933,1.9537933 0 0 0 0.353163,-0.569619 1.9936666,1.9936666 0 0 0 0.222152,-0.615189 0.67784666,0.67784666 0 0 0 -0.19367,-0.569619"
         fill="#de9f93"
         id="path69"
         style="stroke-width:0.336213" />
      <path
         d="m 81.495934,69.752427 c 0.643669,-0.153797 1.566452,-0.222151 1.891135,-0.831643 A 1.4810095,1.4810095 0 0 0 82.8915,67.211926 3.9873333,3.9873333 0 0 0 79.416824,66.072688 10.577826,10.577826 0 0 1 78.232016,66.29484 c -0.535442,0.02848 -1.059491,-0.131013 -1.594932,-0.148101 a 4.1240418,4.1240418 0 0 0 -2.568982,0.979744 7.1430227,7.1430227 0 0 1 -1.532276,1.139238 1.4183514,1.4183514 0 0 1 -1.708857,-0.34177 2.7056904,2.7056904 0 0 0 0.336076,2.238603 0.6550619,0.6550619 0 0 1 -0.837341,0.07405 7.0689723,7.0689723 0 0 0 0.620885,2.643032 3.6398657,3.6398657 0 0 1 -1.025314,-0.05696 3.7879666,3.7879666 0 0 0 2.044932,2.056324 c 1.253162,0.518354 2.648729,0.56962 3.565815,1.651896 0.113924,0.136708 0.227848,0.461391 0.421518,0.495568 0.193671,0.03418 0.330379,-0.170886 0.387341,-0.353164 a 3.5202457,3.5202457 0 0 0 -0.159493,-2.34113 2.6430323,2.6430323 0 0 1 -0.381645,-1.196201 c 0.03987,-0.421518 0.609492,-0.751897 0.88291,-0.501264 0.273417,0.250632 0.318986,0.848732 0.655062,0.729112 -0.381645,-1.1962 0.113924,-2.699994 1.27025,-3.172778 0.88291,-0.353164 1.856958,-0.142405 2.756956,-0.40443 z"
         fill="#241f1c"
         id="path71"
         style="stroke-width:0.336213" />
      <path
         d="m 80.237076,77.29988 a 13.101238,13.101238 0 0 1 -2.648729,-0.786075 c -0.07975,2.768349 2.170249,3.343664 2.170249,3.343664 a 13.03858,13.03858 0 0 1 0.04557,-2.358223 0.26772095,0.26772095 0 0 1 0.06836,-0.176582 0.27341714,0.27341714 0 0 1 0.165189,0 h 0.199367 z"
         fill="#552200"
         id="path73"
         style="stroke-width:0.336213" />
      <path
         d="m 130.36355,158.83515 c 0,1.32151 4.51138,2.3924 10.07656,2.3924 5.56518,0 10.07087,-1.07089 10.07087,-2.3924 a 9.3246634,9.3246634 0 0 0 0,-1.4924 c -0.71772,-1.13925 -5.01265,-0.9057 -10.07087,-0.9057 -4.87024,0 -9.1139,-0.18797 -10.07656,0.9057 a 6.2316323,6.2316323 0 0 0 0,1.4924 z"
         fill="#68e1fd"
         id="path77"
         style="stroke-width:0.336213" />
      <ellipse
         cx="140.44012"
         cy="157.34274"
         rx="10.070865"
         ry="2.3980961"
         fill="#68e1fd"
         id="ellipse79"
         style="stroke-width:0.336213" />
      <ellipse
         cx="140.44012"
         cy="157.34274"
         rx="10.070865"
         ry="2.3980961"
         fill="url(#linear-gradient-3)"
         id="ellipse81"
         style="fill:url(#linear-gradient-3);stroke-width:0.336213" />
      <ellipse
         cx="196.5134"
         cy="160.0997"
         rx="10.070865"
         ry="2.3980961"
         fill="#4c506d"
         id="ellipse83"
         style="stroke-width:0.336213" />
      <rect
         x="139.261"
         y="134.8485"
         width="2.335438"
         height="22.659445"
         fill="#68e1fd"
         id="rect85"
         style="stroke-width:0.336213" />
      <rect
         x="139.261"
         y="134.8485"
         width="2.335438"
         height="7.8265653"
         fill="url(#linear-gradient-4)"
         id="rect87"
         style="fill:url(#linear-gradient-4);stroke-width:0.336213" />
      <path
         d="m 169.54195,156.2092 v 3.4519 H 157.1926 c 0,0 0.72343,-2.64874 5.61645,-3.4519 l 1.60063,-1.30442 z"
         fill="#68e1fd"
         id="path89"
         style="stroke-width:0.336213" />
      <path
         d="m 169.54195,156.2092 v 3.4519 H 157.1926 c 0,0 0.72343,-2.64874 5.61645,-3.4519 l 1.60063,-1.30442 z"
         fill="url(#linear-gradient-5)"
         id="path91"
         style="fill:url(#linear-gradient-5);stroke-width:0.336213" />
      <rect
         x="156.79387"
         y="159.6554"
         width="13.311997"
         height="0.88290942"
         fill="#68e1fd"
         id="rect93"
         style="stroke-width:0.336213" />
      <rect
         x="195.55075"
         y="140.1972"
         width="1.9367046"
         height="17.886038"
         fill="#4c506d"
         id="rect95"
         style="stroke-width:0.336213" />
      <path
         d="m 186.45963,160.08261 c 0,1.32152 4.51139,2.3981 10.07087,2.3981 5.55948,0 10.07656,-1.07658 10.07656,-2.3981 a 10.874028,10.874028 0 0 0 0,-1.49239 c -0.71772,-1.13925 -5.01265,-0.90571 -10.07656,-0.90571 -4.86455,0 -9.1139,-0.18797 -10.07087,0.90571 a 5.9468227,5.9468227 0 0 0 0,1.49239 z"
         fill="#2f3554"
         id="path97"
         style="stroke-width:0.336213" />
      <ellipse
         cx="196.5134"
         cy="158.6073"
         rx="10.070865"
         ry="2.3980961"
         fill="#4c506d"
         id="ellipse99"
         style="stroke-width:0.336213" />
      <path
         d="m 193.44317,136.93899 h 16.66135 l 3.98733,-21.64552 a 2.5974628,2.5974628 0 0 0 -2.0848,-3.01898 2.7341714,2.7341714 0 0 0 -0.48418,-0.0399 h -11.39238 a 2.5974628,2.5974628 0 0 0 -2.55189,2.11898 z"
         fill="#4c506d"
         id="path101"
         style="stroke-width:0.336213" />
      <path
         d="m 189.00583,136.93899 h 16.66136 l 3.98733,-21.64552 a 2.5974628,2.5974628 0 0 0 -2.0848,-3.01898 2.5461971,2.5461971 0 0 0 -0.46709,-0.0399 h -11.39238 a 2.5974628,2.5974628 0 0 0 -2.5519,2.11898 z"
         fill="#2f3554"
         id="path103"
         style="stroke-width:0.336213" />
      <rect
         x="191.67734"
         y="133.67508"
         width="18.535404"
         height="6.5278339"
         rx="3.263917"
         fill="#4c506d"
         id="rect105"
         style="stroke-width:0.336213" />
      <rect
         x="184.34065"
         y="133.67508"
         width="18.535404"
         height="6.5278339"
         rx="3.263917"
         fill="#2f3554"
         id="rect107"
         style="stroke-width:0.336213" />
      <path
         d="m 202.14695,106.44729 a 5.1664446,5.1664446 0 0 0 -0.38165,-0.41013 c -1.9481,-1.86835 -5.12657,-1.66898 -7.10885,-1.61202 a 35.544228,35.544228 0 0 1 -5.28037,-0.1538 l -0.75759,-0.0911 h -0.25064 c -1.31582,-0.1424 -2.89366,-0.13101 -3.33227,1.23038 -0.51265,1.62341 -0.56961,3.56581 -0.80316,5.25189 -0.70632,5.03543 -1.09936,9.94554 -1.31012,14.99237 -0.19937,4.46011 5.73037,4.81328 8.91453,4.81328 a 19.1392,19.1392 0 0 0 3.22975,-0.19367 c 0.97975,-0.16519 1.86835,-0.56961 2.84809,-0.7519 a 2.6601209,2.6601209 0 0 0 1.38987,-0.56961 c 0.54114,-0.52406 0.54114,-1.38418 0.54114,-2.13608 a 31.670818,31.670818 0 0 1 0.46709,-5.73037 c 0.17658,-0.93987 0.45,-1.85696 0.61519,-2.79113 a 12.218328,12.218328 0 0 1 0.77468,-2.22151 c 1.35,-3.41202 2.41518,-7.25695 0.44431,-9.62656 z"
         fill="#ffffff"
         id="path109"
         style="stroke-width:0.336213" />
      <path
         d="m 178.20586,106.90298 a 3.6455619,3.6455619 0 0 1 0.56961,-1.2019 c 0.61519,-0.76898 1.70886,-0.93417 2.6886,-1.00822 0.4614,-0.0399 1.01393,0 1.23608,0.39304 a 1.1905038,1.1905038 0 0 1 0.0855,0.71772 15.681612,15.681612 0 0 0 -0.21646,2.5291 7.9404894,7.9404894 0 0 1 2.07911,-0.93417 c 0.19368,-0.0627 2.15885,-0.28481 2.18734,0 0.10822,1.21898 0.1538,2.44367 0.1538,3.66265 a 3.3379675,3.3379675 0 0 1 -0.78038,2.47214 31.556894,31.556894 0 0 1 -3.46898,4.07848 7.3537818,7.3537818 0 0 1 -5.12657,2.14177 1.8341733,1.8341733 0 0 1 -1.63481,-0.56962 1.9367047,1.9367047 0 0 1 -0.23354,-1.08228 20.950588,20.950588 0 0 1 0.26202,-3.21265 47.238507,47.238507 0 0 1 2.19873,-7.98606 z"
         fill="#ffffff"
         id="path111"
         style="stroke-width:0.336213" />
      <path
         d="m 179.84066,109.24981 c 0.0968,-0.70633 0,-2.35822 0.56962,-2.79683 l 0.10253,-0.057 a 1.048099,1.048099 0 0 1 1.40127,0.49557 2.1873371,2.1873371 0 0 1 0.057,0.93987 12.189847,12.189847 0 0 0 0.0627,2.27848 c 0.057,0.45569 0.20506,0.99114 0.64367,1.13923 a 1.2246809,1.2246809 0 0 0 0.93417,-0.15379 9.6379544,9.6379544 0 0 0 2.13038,-1.40127 c 0.1424,-0.11961 0.32468,-0.25633 0.50126,-0.19367 a 0.56961904,0.56961904 0 0 1 0.25063,0.23924 l 4.69366,7.24556 c 0.39304,0.60949 0.74621,1.52088 0.3019,2.00505 -0.4443,0.48418 -1.26455,0.31899 -1.87974,0.0513 a 14.132248,14.132248 0 0 1 -4.76771,-3.41772 0.78607428,0.78607428 0 0 0 -0.35886,-0.26202 0.74050475,0.74050475 0 0 0 -0.54114,0.21076 16.22275,16.22275 0 0 1 -2.71708,1.63481 c -0.71202,0.32468 -1.70886,0.56961 -2.15316,-0.11393 a 1.7088571,1.7088571 0 0 1 -0.11962,-1.1905 z"
         fill="#d8dae1"
         id="path113"
         style="stroke-width:0.336213" />
      <path
         d="m 197.11721,111.09538 a 5.4341656,5.4341656 0 0 1 1.61202,-2.23291 2.4151847,2.4151847 0 0 1 2.62594,-0.27342 c 1.10506,0.67215 1.19621,2.21582 1.0538,3.50316 a 24.710074,24.710074 0 0 1 -1.19621,5.36581 c -0.2962,0.86012 -0.77468,1.70886 -1.0367,2.55759 -0.21076,0.70063 -0.23924,1.45253 -0.45569,2.18734 a 21.041727,21.041727 0 0 0 -0.87721,5.61075 1.7088571,1.7088571 0 0 1 -0.12533,0.72911 0.5354419,0.5354419 0 0 1 -0.61518,0.2962 0.79177047,0.79177047 0 0 1 -0.34177,-0.31329 c -1.19621,-1.54367 -3.28671,-2.05063 -5.22341,-2.27848 -2.27848,-0.27911 -4.55695,-0.33038 -6.86391,-0.46708 -0.93987,-0.057 -2.10189,-0.33608 -2.25,-1.25317 a 1.4297438,1.4297438 0 0 1 0.68925,-1.3443 4.0841685,4.0841685 0 0 1 1.50949,-0.50696 c 2.03923,-0.38165 4.1753,-0.70063 5.87277,-1.89114 a 4.3518894,4.3518894 0 0 1 -1.66329,-0.92277 c 1.09367,0.71771 2.84809,-1.62342 3.63417,-2.22152 a 6.8354285,6.8354285 0 0 0 1.70885,-2.01646 c 0.78608,-1.38417 1.28164,-3.03607 1.94241,-4.52846 z"
         fill="#d8dae1"
         id="path115"
         style="stroke-width:0.336213" />
      <path
         d="m 191.19317,105.71817 a 1.0594914,1.0594914 0 0 1 0.73481,0.0968 1.5379714,1.5379714 0 0 0 0.72911,0.18228 0.21075904,0.21075904 0 0 1 0.0285,0.0627 1.3101238,1.3101238 0 0 1 -0.63228,1.74303 1.7999962,1.7999962 0 0 0 -0.39303,0.19367 1.0253143,1.0253143 0 0 0 -0.21646,0.80316 c 0.0456,2.36392 -0.64937,4.67088 -1.1962,6.97214 -0.64367,2.67721 -1.08797,5.45695 -0.67784,8.18542 a 1.1392381,1.1392381 0 0 1 0,0.43861 0.95126377,0.95126377 0 0 1 -0.18798,0.26772 l -1.21329,1.36139 c -0.35886,-0.56961 -1.18481,-0.7462 -1.37848,-1.37847 a 1.6063257,1.6063257 0 0 1 -0.0399,-0.56962 43.239781,43.239781 0 0 1 1.31582,-7.53037 59.439747,59.439747 0 0 1 2.43797,-8.29935 0.56961904,0.56961904 0 0 0 0.0627,-0.31898 0.72341618,0.72341618 0 0 0 -0.11962,-0.25063 c -0.33608,-0.56962 0.21075,-1.75443 0.74619,-1.95949 z"
         fill="#68e1fd"
         id="path117"
         style="stroke-width:0.336213" />
      <path
         d="m 197.36214,104.40235 c -1.70886,-0.15379 -3.38923,-0.25633 -5.081,-0.31329 -1.13924,-0.0342 -2.60885,-0.33038 -3.65695,0.10823 a 5.6164437,5.6164437 0 0 1 0.75759,0.0911 37.150554,37.150554 0 0 0 5.28037,0.1538 c 1.98797,-0.0627 5.16075,-0.26203 7.11454,1.60632 -1.04241,-1.21898 -2.78544,-1.50379 -4.41455,-1.6462 z"
         fill="#ffffff"
         id="path119"
         style="stroke-width:0.336213" />
      <path
         d="m 195.89252,99.298567 a 0.48987237,0.48987237 0 0 0 0.56962,0.05696 c -0.23924,1.293033 -0.43861,2.426583 0.16519,3.696833 a 2.2784762,2.2784762 0 0 0 1.18481,1.22468 14.656298,14.656298 0 0 0 -3.26392,1.08797 5.3031533,5.3031533 0 0 1 -2.13607,0.45 c -0.0741,0 -1.37278,-0.29051 -1.17911,-0.56962 1.03101,-1.51519 0.20506,-4.02721 0.20506,-4.02721 a 3.5772076,3.5772076 0 0 0 4.34619,-2.147462 0.42721428,0.42721428 0 0 0 0.10823,0.227846 z"
         fill="#8c6239"
         id="path121"
         style="stroke-width:0.336213" />
      <path
         d="m 194.78177,89.64922 c 0,0 -6.99492,-0.489872 -7.12594,4.374675 a 12.947441,12.947441 0 0 0 0.26773,3.001892 c 0.0684,0.347467 0.15379,0.683543 0.25063,1.008225 0.89999,2.967718 2.88796,4.972778 5.32024,4.255058 4.24366,-1.24177 6.94935,-11.369599 1.28734,-12.63985 z"
         fill="#a05a2c"
         id="path123"
         style="stroke-width:0.336213" />
      <path
         d="m 196.78113,97.891608 a 1.5208829,1.5208829 0 0 0 0.24494,-1.936705 0.82025142,0.82025142 0 0 0 -0.23924,-0.244936 0.78607428,0.78607428 0 0 0 -0.77468,0.03418 c -0.18798,0.102532 -0.43861,0.484177 -0.67215,0.244937 a 0.56961904,0.56961904 0 0 1 -0.10823,-0.495568 2.3753114,2.3753114 0 0 1 0.56962,-1.275948 1.2645542,1.2645542 0 0 1 -0.79747,-0.780377 6.8980866,6.8980866 0 0 1 -1.96518,0.119619 1.1392381,1.1392381 0 0 1 -0.4557,-0.102531 c -0.33608,-0.165189 -0.47279,-0.569619 -0.77469,-0.803163 a 2.1987295,2.1987295 0 0 0 -1.36138,-0.182278 c -0.46709,0 -1.0424,-0.170885 -1.11076,-0.632277 a 1.7088571,1.7088571 0 0 1 -2.23291,-0.905695 1.4525285,1.4525285 0 0 1 -1.32151,-0.153796 1.3044276,1.3044276 0 0 1 -0.19367,-1.179112 c 0.16519,-0.871517 0.56962,-1.805692 1.40126,-2.118982 -0.48417,-0.256329 -0.47848,-0.939872 -0.40443,-1.48101 a 1.0253143,1.0253143 0 0 1 0.12532,-0.449999 c 0.22785,-0.370253 0.75189,-0.35886 1.13924,-0.506961 0.38733,-0.148101 0.70063,-0.455695 1.08227,-0.637973 0.38164,-0.182279 0.92848,-0.16519 1.11076,0.210759 a 4.3803704,4.3803704 0 0 1 1.6291,-0.569619 1.5208829,1.5208829 0 0 1 1.47533,0.706327 2.2784762,2.2784762 0 0 1 0.92277,-0.284809 0.7689857,0.7689857 0 0 1 0.7633,0.489872 0.21645524,0.21645524 0 0 0 0.0911,0.187974 0.20506285,0.20506285 0 0 0 0.19937,0 2.3753114,2.3753114 0 0 1 1.40696,-0.09114 1.2132885,1.2132885 0 0 1 0.88861,1.008225 3.7879666,3.7879666 0 0 1 1.4924,0.831644 1.4411361,1.4411361 0 0 1 0.56962,1.486706 2.1189828,2.1189828 0 0 1 0.10253,2.848095 0.52974571,0.52974571 0 0 1 0.2962,0.569619 1.5379714,1.5379714 0 0 1 -0.27912,0.632277 0.38164476,0.38164476 0 0 0 -0.0798,0.205063 c 0,0.09114 0.10254,0.159493 0.17089,0.222151 a 0.92847903,0.92847903 0 0 1 -0.0399,1.310124 0.78607428,0.78607428 0 0 1 -0.22784,0.159493 1.3101238,1.3101238 0 0 1 0.51835,0.968353 0.63227713,0.63227713 0 0 1 -0.75189,0.620885 1.3272123,1.3272123 0 0 1 -0.18798,1.281642 c -0.34746,0.444304 -0.71772,0.296202 -1.13924,0.489873 -0.42151,0.193671 -0.61519,0.820251 -0.90569,1.139238 -0.0285,-0.318987 -0.0968,-0.626581 -0.17659,-0.934176 z"
         fill="#2f3554"
         id="path125"
         style="stroke-width:0.336213" />
      <path
         d="m 181.99951,126.77699 -9.59238,4.91582 -7.97466,23.06956 4.81328,2.96202 9.43859,-19.15059 c 0,0 8.8063,-2.68291 11.18731,-3.46329 2.38101,-0.78038 5.34303,-8.18542 5.34303,-8.18542 -10.76011,-0.0741 -13.21517,-0.1481 -13.21517,-0.1481 z"
         fill="#2f3554"
         id="path127"
         style="stroke-width:0.336213" />
      <path
         d="m 189.60393,127.55736 -9.58669,4.91582 -6.70441,26.93728 5.12657,1.30443 7.84935,-21.3721 c 0,0 8.80061,-2.68291 11.18162,-3.46329 2.38101,-0.78037 1.82278,-7.53036 1.82278,-7.53036 -4.11835,-2.81962 -9.68922,-0.79178 -9.68922,-0.79178 z"
         fill="#4c506d"
         id="path129"
         style="stroke-width:0.336213" />
      <path
         d="m 199.27606,105.49033 c -1.4981,-0.35886 -5.19492,7.49049 -5.19492,7.49049 l -5.96391,-5.9924 -3.55443,1.33861 c 0,0 5.33164,13.10124 9.76328,11.85947 4.43163,-1.24177 8.60693,-10.6291 8.60693,-10.6291 0.56393,-1.61202 -2.15315,-3.70821 -3.65695,-4.06707 z"
         fill="#ffffff"
         id="path131"
         style="stroke-width:0.336213" />
      <path
         d="m 181.25331,101.41185 a 4.0442952,4.0442952 0 0 0 -1.00253,1.31582 8.5442856,8.5442856 0 0 0 -0.62657,1.6462 3.320879,3.320879 0 0 0 -0.14811,1.3557 1.463921,1.463921 0 0 0 0.71203,1.10506 1.5379714,1.5379714 0 0 0 1.75442,-0.46139 3.9873333,3.9873333 0 0 0 0.7519,-1.77722 6.1063161,6.1063161 0 0 1 0.56962,-1.85695 1.8911352,1.8911352 0 0 0 0.43861,-0.99114 c -0.13101,-1.28734 -1.83988,-0.83734 -2.44937,-0.33608 z"
         fill="#8c6239"
         id="path133"
         style="stroke-width:0.336213" />
      <path
         d="m 187.09761,106.13969 c 0.27341,1.37848 -1.23607,1.93101 -2.3924,1.66329 a 2.2784762,2.2784762 0 0 1 -0.95697,-0.43291 c -0.66645,-0.52975 -0.87721,-1.44114 -1.31582,-2.17025 -0.30758,-0.51266 -0.7348,-0.93987 -1.0367,-1.45253 a 1.765819,1.765819 0 0 1 -0.17089,-1.70886 c 0.37595,-0.68354 1.29304,-0.82594 2.07912,-0.82594 a 2.5461971,2.5461971 0 0 1 1.1848,0.16519 2.4322733,2.4322733 0 0 1 0.94557,0.94556 12.195544,12.195544 0 0 1 1.66329,3.81645 z"
         fill="#a67c52"
         id="path135"
         style="stroke-width:0.336213" />
      <path
         d="m 83.256057,128.87318 c 0,4.87025 24.704373,8.8234 55.178993,8.8234 30.47462,0 55.1733,-3.95315 55.1733,-8.8234 0,-0.20506 0.0855,-2.64872 0,-2.84809 -1.92531,-4.59113 -25.96324,-5.9753 -55.1733,-5.9753 -28.57208,0 -52.353683,1.52658 -55.178993,5.9753 -0.187974,0.2962 0,2.5405 0,2.84809 z"
         fill="#68e1fd"
         id="path137"
         style="stroke-width:0.336213" />
      <path
         d="m 193.60835,128.87318 c 0,4.87025 -24.69868,8.8234 -55.1733,8.8234 -30.47462,0 -55.178993,-3.95315 -55.178993,-8.8234 0,-0.56961 -0.05696,-1.13923 0,-1.70885 a 2.5234123,2.5234123 0 0 1 0.398733,-0.97405 2.5518933,2.5518933 0 0 1 2.739868,-1.76012 q 1.91392,0 3.822144,0.0798 a 52.404952,52.404952 0 0 1 5.251885,0.4443 c 1.298734,0.18798 2.59177,0.45001 3.901892,0.52975 2.705691,0.1538 5.388601,-0.47848 8.094291,-0.56962 a 2.1132866,2.1132866 0 0 1 0.5981,0.0342 3.0246771,3.0246771 0 0 1 0.62088,0.27341 5.3202418,5.3202418 0 0 0 3.17277,0.53544 c 9.81454,0.66646 19.6006,0 29.36957,-1.13923 8.16264,-0.95127 16.31958,-2.10759 24.53349,-2.31835 a 106.86053,106.86053 0 0 1 25.5702,2.42658 c 1.13924,0.24493 2.51202,0.79176 2.56898,1.95379 0.0399,0.77468 -0.80317,1.56076 -0.29051,2.19303 z"
         fill="url(#linear-gradient-6)"
         id="path139"
         style="fill:url(#linear-gradient-6);stroke-width:0.336213" />
      <ellipse
         cx="138.43506"
         cy="126.0251"
         rx="55.178997"
         ry="8.8233995"
         fill="#68e1fd"
         id="ellipse141"
         style="stroke-width:0.336213" />
      <path
         d="m 178.4451,160.71489 v 3.44619 h -12.34935 c 0,0 0.72342,-2.64302 5.61645,-3.44619 l 1.60063,-1.30443 z"
         fill="#68e1fd"
         id="path143"
         style="stroke-width:0.336213" />
      <path
         d="m 178.4451,160.71489 v 3.44619 h -12.34935 c 0,0 0.72342,-2.64302 5.61645,-3.44619 l 1.60063,-1.30443 z"
         fill="url(#linear-gradient-7)"
         id="path145"
         style="fill:url(#linear-gradient-7);stroke-width:0.336213" />
      <rect
         x="165.69133"
         y="164.16109"
         width="13.311997"
         height="0.88290942"
         fill="#68e1fd"
         id="rect147"
         style="stroke-width:0.336213" />
      <g
         fill="#ffffff"
         id="g157"
         style="stroke-width:0.590242"
         transform="matrix(0.56961904,0,0,0.56961904,25.382763,26.301888)">
        <path
           transform="translate(-11.22,-28.14)"
           d="m 312,164 a 1.7,1.7 0 0 1 1,0 c 0.51,0.22 0.73,0.86 1.25,1.06 -1.2,1.09 -2.82,1.6 -4.19,2.46 a 18.15,18.15 0 0 0 -3.78,3.54 c -1.29,-0.71 -1.21,-2.72 -2.34,-3.67 a 7.94,7.94 0 0 0 2.27,-1 11.2,11.2 0 0 0 1.62,-0.91 A 12.38,12.38 0 0 1 312,164 Z"
           id="path149"
           style="stroke-width:0.427116" />
        <path
           transform="translate(-11.22,-28.14)"
           d="m 300.92,164.76 a 7.43,7.43 0 0 0 -1.1,1.21 l -1.28,1.63 a 0.65,0.65 0 0 0 -0.19,0.49 0.46,0.46 0 0 0 0.53,0.29 4.62,4.62 0 0 0 0.62,-0.23 5.34,5.34 0 0 1 1.44,-0.08 5.75,5.75 0 0 0 1.72,-0.45 0.25,0.25 0 0 0 0.17,-0.11 0.31,0.31 0 0 0 0,-0.19 4.2,4.2 0 0 1 0.26,-1.68 c 0.14,-0.4 0.41,-0.86 0.14,-1.27 -0.49,-0.79 -1.8,-0.02 -2.31,0.39 z"
           id="path151"
           style="stroke-width:0.427116" />
        <polygon
           points="261.54,167.27 236.34,168.4 244.07,177.4 271.81,175.07 "
           id="polygon153"
           style="stroke-width:0.427116" />
        <path
           transform="translate(-11.22,-28.14)"
           d="m 168,195.41 c 1.41,0.14 24.78,6.9 24.78,6.9 l -13.52,10.41 -26.74,-7.18 z"
           id="path155"
           style="stroke-width:0.427116" />
      </g>
      <rect
         x="175.72232"
         y="149.14023"
         width="1.9367046"
         height="17.886038"
         fill="#4c506d"
         id="rect159"
         style="stroke-width:0.336213" />
      <rect
         x="175.72232"
         y="149.14023"
         width="1.9367046"
         height="17.886038"
         fill="url(#linearGradient375)"
         id="rect161"
         style="fill:url(#linearGradient375);stroke-width:0.336213" />
      <path
         d="m 166.61411,169.04272 c 0,1.32721 4.51138,2.3981 10.07656,2.3981 5.56518,0 10.07086,-1.07089 10.07086,-2.3981 a 10.874028,10.874028 0 0 0 0,-1.4924 c -0.71772,-1.13924 -5.01264,-0.9 -10.07086,-0.9 -4.87025,0 -9.11391,-0.18797 -10.07656,0.9 a 5.9468227,5.9468227 0 0 0 0,1.4924 z"
         fill="#2f3554"
         id="path163"
         style="stroke-width:0.336213" />
      <ellipse
         cx="176.69067"
         cy="167.55032"
         rx="10.070865"
         ry="2.3980961"
         fill="#4c506d"
         id="ellipse165"
         style="stroke-width:0.336213" />
      <path
         d="m 167.70208,112.60487 c -6.51074,-1.50949 -9.78036,-9.40441 -16.13731,-11.47213 a 0.88290954,0.88290954 0 0 0 -0.63797,0 0.93987144,0.93987144 0 0 0 -0.37026,0.47848 l -1.45253,3.18987 8.72088,10.11073 a 15.134778,15.134778 0 0 0 2.18734,2.21013 c 1.86834,1.42405 4.27783,1.89113 6.59048,2.31265 1.37278,0.25633 2.80253,0.50126 4.14113,0.11392 1.74873,-0.50696 3.75949,-2.92214 3.18418,-4.88163 -0.62659,-2.14747 -4.43164,-1.6462 -6.22594,-2.06202 z"
         fill="#916f6f"
         id="path167"
         style="stroke-width:0.336213" />
      <path
         d="m 158.13817,145.40353 a 7.4677056,7.4677056 0 0 0 0.56962,3.07025 h 0.057 c 1.13925,-0.0285 2.23291,0 3.34936,0.0684 a 47.398,47.398 0 0 1 5.52531,0.77468 c 0.84303,0.1595 1.70885,0.33038 2.52911,0.50127 0.82025,0.17088 1.60632,0.33038 2.40949,0.48417 1.52657,0.3019 2.99619,0.56962 4.42024,0.7633 a 13.425921,13.425921 0 0 0 4.81897,-3.46329 c 0.14811,-0.16519 0.28482,-0.33038 0.42152,-0.49557 a 8.4417542,8.4417542 0 0 0 0.49557,-0.68924 5.2291028,5.2291028 0 0 0 0.87721,-2.2386 3.531638,3.531638 0 0 0 -0.0342,-0.97975 4.6366989,4.6366989 0 0 0 -1.95379,-2.69429 l -0.3019,-0.21646 a 11.392381,11.392381 0 0 0 -6.93796,-2.02215 3.7822704,3.7822704 0 0 0 -0.62088,0.0342 21.075904,21.075904 0 0 0 -3.9019,0.66076 c -2.02784,0.51835 -4.05568,1.24747 -6.05505,1.88544 a 15.977814,15.977814 0 0 0 -4.20948,1.79429 3.622777,3.622777 0 0 0 -0.96835,0.91709 3.4177142,3.4177142 0 0 0 -0.48988,1.84556 z"
         fill="#3e3e54"
         id="path169"
         style="stroke-width:0.336213" />
      <path
         d="m 158.31476,148.62757 c 0.26202,1.33861 0.48987,2.6943 0.69493,4.0443 a 95.194736,95.194736 0 0 1 0.95126,9.51264 1.9367047,1.9367047 0 0 1 -0.0855,0.88291 c -0.33608,0.83734 -1.48101,0.87721 -2.38101,0.87152 -0.89999,-0.006 -2.07911,0.35885 -2.05632,1.25885 0,0.70064 0.77468,1.11076 1.43543,1.33861 a 17.703759,17.703759 0 0 0 6.16328,0.95127 1.8797428,1.8797428 0 0 0 0.7519,-0.11963 c 1.41835,-0.62658 0.2962,-2.27847 0.1481,-3.23544 -0.21645,-1.39556 0.32468,-2.93353 0.66076,-4.26644 0.79177,-3.10442 2.88796,-5.91265 2.79683,-9.21644 a 1.8569581,1.8569581 0 0 1 0.22215,-1.21898 c 0.39304,-0.48417 2.05063,0.2962 2.57468,0.40442 0.80316,0.16519 1.60632,0.33039 2.40949,0.48418 4.31202,0.84304 8.29934,1.80569 12.73668,0.97975 a 1.7942999,1.7942999 0 0 0 0.74051,-0.25633 1.7088571,1.7088571 0 0 0 0.53544,-0.8886 7.8037808,7.8037808 0 0 0 -0.46139,-5.88986 c -1.08228,-2.13608 -2.79683,-2.97911 -4.80759,-3.98734 -2.31265,-1.17341 -4.26645,-2.05632 -6.93796,-1.98227 a 3.7822704,3.7822704 0 0 0 -0.62088,0.0342 21.736663,21.736663 0 0 0 -3.91328,0.68353 c -3.25823,0.84304 -10.76011,2.02785 -12.00758,5.80442 -0.39303,1.19051 0.10254,2.14746 0.34178,3.30379 0.0342,0.14811 0.0684,0.32468 0.10822,0.50696 z"
         fill="#3e3e54"
         id="path171"
         style="stroke-width:0.336213" />
      <path
         d="m 158.31476,148.62757 c 0.26202,1.33861 0.48987,2.6943 0.69493,4.0443 a 95.194736,95.194736 0 0 1 0.95126,9.51264 1.9367047,1.9367047 0 0 1 -0.0855,0.88291 c -0.33608,0.83734 -1.48101,0.87721 -2.38101,0.87152 -0.89999,-0.006 -2.07911,0.35885 -2.05632,1.25885 0,0.70064 0.77468,1.11076 1.43543,1.33861 a 17.703759,17.703759 0 0 0 6.16328,0.95127 1.8797428,1.8797428 0 0 0 0.7519,-0.11963 c 1.41835,-0.62658 0.2962,-2.27847 0.1481,-3.23544 -0.21645,-1.39556 0.32468,-2.93353 0.66076,-4.26644 0.79177,-3.10442 2.88796,-5.91265 2.79683,-9.21644 a 1.8569581,1.8569581 0 0 1 0.22215,-1.21898 c 0.39304,-0.48417 2.05063,0.2962 2.57468,0.40442 0.80316,0.16519 1.60632,0.33039 2.40949,0.48418 4.31202,0.84304 8.29934,1.80569 12.73668,0.97975 a 1.7942999,1.7942999 0 0 0 0.74051,-0.25633 1.7088571,1.7088571 0 0 0 0.53544,-0.8886 7.8037808,7.8037808 0 0 0 -0.46139,-5.88986 c -1.08228,-2.13608 -2.79683,-2.97911 -4.80759,-3.98734 -2.31265,-1.17341 -4.26645,-2.05632 -6.93796,-1.98227 a 3.7822704,3.7822704 0 0 0 -0.62088,0.0342 21.736663,21.736663 0 0 0 -3.91328,0.68353 c -3.25823,0.84304 -10.76011,2.02785 -12.00758,5.80442 -0.39303,1.19051 0.10254,2.14746 0.34178,3.30379 0.0342,0.14811 0.0684,0.32468 0.10822,0.50696 z"
         fill="url(#linear-gradient-9)"
         id="path173"
         style="fill:url(#linear-gradient-9);stroke-width:0.336213" />
      <path
         d="m 152.17426,148.98074 a 15.533511,15.533511 0 0 0 -2.50063,4.29492 c -0.78037,1.74304 -5.26327,20.42654 -5.42277,20.38667 l 3.38924,0.89431 a 89.937147,89.937147 0 0 0 9.712,-17.93731 c 0.73481,-1.81708 0.77469,-1.98797 2.75126,-2.37531 1.73733,-0.33608 3.47468,-0.70633 5.19493,-1.13924 a 69.590358,69.590358 0 0 0 9.87149,-3.09873 30.423353,30.423353 0 0 0 5.55379,-2.84809 3.9474599,3.9474599 0 0 0 0.66645,-0.67785 2.4550581,2.4550581 0 0 0 0.23924,-0.35886 2.813918,2.813918 0 0 0 0.42152,-1.65189 1.7772114,1.7772114 0 0 0 -0.0798,-0.4557 3.799359,3.799359 0 0 0 -0.50696,-0.93417 3.9873333,3.9873333 0 0 0 -1.22468,-1.08798 8.1341598,8.1341598 0 0 0 -4.10695,-1.51518 c -0.99684,-0.057 -1.98797,0.1424 -2.97342,0.0911 -0.88291,-0.0513 -1.4924,-0.53544 -2.27847,-0.65505 a 4.3632818,4.3632818 0 0 0 -1.77722,0.15949 21.189828,21.189828 0 0 0 -3.79366,1.70885 l -7.11454,3.55443 h -0.0513 l -1.42405,0.71202 c -1.4924,0.75189 -3.20126,1.4981 -4.38607,2.70569 z"
         fill="#3e3e54"
         id="path175"
         style="stroke-width:0.336213" />
      <path
         d="m 139.24391,172.76803 a 3.7822704,3.7822704 0 0 0 -1.75442,0.56962 1.4297438,1.4297438 0 0 0 -0.56962,1.62342 1.9879705,1.9879705 0 0 0 0.97974,0.8886 15.62465,15.62465 0 0 0 7.97467,1.54367 1.7942999,1.7942999 0 0 0 1.09936,-0.29621 1.8740467,1.8740467 0 0 0 0.51835,-1.0424 4.2094847,4.2094847 0 0 0 0.15381,-2.22152 c -0.4557,-1.49809 -2.11899,-1.17341 -3.30379,-1.23607 a 28.236016,28.236016 0 0 0 -5.0981,0.17089 z"
         fill="#3e3e54"
         id="path177"
         style="stroke-width:0.336213" />
      <path
         d="m 123.60787,131.80103 v 2.04493 h 82.59476 c 0.13101,-0.68354 0.25063,-1.36709 0.36455,-2.04493 z"
         fill="#68e1fd"
         id="path179"
         style="stroke-width:0.336213" />
      <path
         d="m 123.60787,131.80103 v 2.04493 h 82.59476 c 0.13101,-0.68354 0.25063,-1.36709 0.36455,-2.04493 z"
         fill="url(#linear-gradient-10)"
         id="path181"
         style="fill:url(#linear-gradient-10);stroke-width:0.336213" />
      <path
         d="m 164.21031,106.7264 c -0.2848,0.35316 -0.7348,0.73481 -0.56962,1.13924 0.0968,0.22215 0.34748,0.33038 0.54114,0.47848 a 2.5348047,2.5348047 0 0 1 0.83734,1.70886 5.8556837,5.8556837 0 0 0 0.4557,1.89113 1.4012629,1.4012629 0 0 0 1.60063,0.78037 c 0.35885,-0.14239 0.69493,-0.50126 1.05949,-0.38733 0.36456,0.11392 0.40443,0.42151 0.56962,0.66645 a 1.9253124,1.9253124 0 0 0 1.9367,0.67785 5.656317,5.656317 0 0 0 1.95949,-0.91139 1.5208829,1.5208829 0 0 0 0.61519,-0.56962 1.0993647,1.0993647 0 0 0 0,-0.74051 6.0208732,6.0208732 0 0 0 -1.25886,-1.93101 8.7835259,8.7835259 0 0 1 -1.73733,-3.89619 c -0.17659,-0.98544 -0.22216,-2.0962 -0.91709,-2.80822 -0.95127,-0.96835 -3.01329,-0.75759 -3.98734,0.11962 -1.10506,0.90569 -0.22784,2.64873 -1.10506,3.78227 z"
         fill="#784421"
         id="path183"
         style="stroke-width:0.336213" />
      <path
         d="m 165.02487,102.06692 a 1.4924019,1.4924019 0 0 0 0.6038,0.56961 c 0.49556,0.23924 0.92847,0.52975 1.41265,0.79177 a 2.0791094,2.0791094 0 0 1 0.96835,1.17342 c 0.27342,0.91139 -0.12531,1.98227 0.25064,2.8481 0.13101,0.17088 0.41582,0 0.51835,-0.1595 0.10253,-0.15949 0.1424,-0.42721 0.31329,-0.56962 0.29051,-0.21076 0.70063,0.0627 0.86582,0.38165 a 1.6405029,1.6405029 0 0 1 -0.70632,2.13037 c 0.0741,0.28481 0.45569,0.36456 0.74619,0.2962 a 3.0360695,3.0360695 0 0 1 0.86583,-0.19936 c 0.67784,0.0627 1.02531,1.00822 1.70885,1.0424 0.46139,0 0.82026,-0.41013 1.08798,-0.79746 l 0.71771,-1.01962 a 3.531638,3.531638 0 0 1 0.37595,-0.54114 c 0.17089,-0.16519 0.47278,-0.20506 0.60379,-0.39304 0.13102,-0.18797 -0.0741,-0.56962 0.0798,-0.81455 a 0.78607428,0.78607428 0 0 1 0.26772,-0.20507 1.1791114,1.1791114 0 0 0 0.45569,-1.39556 0.32468285,0.32468285 0 0 1 -0.0456,-0.19367 c 0,-0.0911 0.11962,-0.14241 0.19937,-0.19367 a 1.2645542,1.2645542 0 0 0 0.3019,-1.60633 3.8221437,3.8221437 0 0 0 -1.24747,-1.25886 c -1.0481,-0.77468 -2.14177,-1.67468 -2.44936,-2.939232 a 3.622777,3.622777 0 0 0 -0.28481,-0.996834 0.67215047,0.67215047 0 0 0 -0.87722,-0.296202 5.1265714,5.1265714 0 0 0 -0.1367,-1.976578 1.1392381,1.1392381 0 0 0 -0.19937,-0.432911 0.83733999,0.83733999 0 0 0 -0.81456,-0.227847 2.4664504,2.4664504 0 0 0 -0.79746,0.387341 c 0,-0.318987 -0.42152,-0.444303 -0.74051,-0.432911 a 3.5145495,3.5145495 0 0 0 -2.95063,1.817085 1.1392381,1.1392381 0 0 1 -0.17088,0.262025 1.6405029,1.6405029 0 0 1 -0.4443,0.256328 1.8797428,1.8797428 0 0 0 -0.91709,1.332909 5.5025199,5.5025199 0 0 0 0,1.674677 5.3316342,5.3316342 0 0 0 0.23924,1.26456 1.7088571,1.7088571 0 0 0 0.19937,0.42152 z"
         fill="#241c1c"
         id="path185"
         style="stroke-width:0.336213" />
      <path
         d="m 171.43878,111.60803 a 19.241731,19.241731 0 0 0 -2.05063,1.31013 1.646199,1.646199 0 0 0 -0.49557,0.56962 0.79177047,0.79177047 0 0 0 0,0.76329 c 0.22785,0.32468 0.65507,0.15379 0.98544,0 a 12.87339,12.87339 0 0 1 4.80758,-1.13924 0.60949237,0.60949237 0 0 0 0.56962,-0.3076 0.80885904,0.80885904 0 0 0 -0.13101,-0.67215 c -1.01961,-1.71455 -2.3753,-1.30442 -3.68543,-0.52405 z"
         fill="#ffffff"
         id="path187"
         style="stroke-width:0.336213" />
      <path
         d="m 168.53942,132.94596 c -1.13924,-2.36391 -1.70886,-4.81328 -2.52341,-7.27973 -1.87405,1.46392 -2.06202,4.14113 -3.75949,5.92973 a 3.6683466,3.6683466 0 0 1 -0.85443,0.71203 c -1.13924,0.64937 -2.76834,0.36456 -4.02151,0.27911 a 2.7911333,2.7911333 0 0 1 -1.70886,-0.7519 2.1873371,2.1873371 0 0 1 -0.45569,-1.31012 c -0.10253,-1.62342 0.82025,-3.11012 1.70885,-4.46581 l 6.1462,-9.4158 a 3.0018924,3.0018924 0 0 1 2.19873,-1.60063 102.73079,102.73079 0 0 1 11.83099,-2.76835 5.9411266,5.9411266 0 0 1 1.82278,-0.11393 c 1.70885,0.25064 2.84809,1.86266 3.68543,3.35507 4.49999,7.79807 7.68986,16.65565 7.18859,25.63285 a 5.354419,5.354419 0 0 1 -0.22784,1.43543 4.1753075,4.1753075 0 0 1 -1.39557,1.74304 c -2.00506,1.58355 -4.64809,2.17594 -7.19999,2.19873 -3.81644,0.0342 -8.84618,-1.13924 -11.69427,-3.85632 -1.60634,-1.54936 0,-2.48353 0.77468,-3.98734 0.96265,-1.95379 -0.64937,-3.98732 -1.51519,-5.73606 z"
         fill="#916f6f"
         id="path189"
         style="stroke-width:0.336213" />
      <path
         d="m 187.5533,126.62889 a 18.193632,18.193632 0 0 0 -1.16772,-3.47468 c -2.20442,1.61202 -3.85631,4.68227 -4.67657,7.30821 -0.82025,2.62595 -1.4924,5.34304 -3.16708,7.50189 l -1.81139,-0.62658 -0.33607,1.13923 c -0.26203,0.90569 0.49556,1.82848 0.41581,2.73987 a 2.4778428,2.4778428 0 0 1 -1.85695,1.9481 6.2202399,6.2202399 0 0 1 -3.19557,-0.22785 4.7506228,4.7506228 0 0 1 -1.86265,-0.81456 1.7715152,1.7715152 0 0 1 -0.67784,-1.80568 1.1392381,1.1392381 0 0 0 -0.49558,1.31582 2.5689819,2.5689819 0 0 0 0.86583,1.22467 c 1.26455,1.13925 2.84809,1.70887 4.44303,2.32405 a 22.887293,22.887293 0 0 0 2.27847,0.78607 23.582228,23.582228 0 0 0 5.47404,0.56962 c 1.13924,0.0285 1.78291,-0.14809 2.27848,-1.24746 0.70632,-1.57785 0.75759,-3.35506 0.92848,-5.07531 a 90.227659,90.227659 0 0 1 2.56328,-13.58541 z"
         fill="url(#linear-gradient-12)"
         id="path191"
         style="fill:url(#linear-gradient-12);stroke-width:0.336213" />
      <path
         d="m 181.46407,143.12505 c 0,0.48988 0,0.99114 0.0342,1.4981 0.0342,0.50697 0.0684,1.01962 0.13101,1.54367 a 2.5291085,2.5291085 0 0 0 0.0456,0.34747 c 0.0456,0.35886 0.10253,0.71772 0.16519,1.08798 a 0.05126571,0.05126571 0 0 1 0,0.0399 l 0.11962,0.61519 a 5.9980885,5.9980885 0 0 0 0.41013,3.29809 30.110062,30.110062 0 0 0 3.04176,-0.0456 25.803742,25.803742 0 0 0 5.81011,-1.03671 23.200583,23.200583 0 0 0 5.30886,-3.7367 3.8961942,3.8961942 0 0 0 1.0253,-1.36708 4.5968256,4.5968256 0 0 0 0.17089,-1.76013 33.25436,33.25436 0 0 1 1.26456,-9.72909 c 0.19937,-0.68924 0.42151,-1.37279 0.66075,-2.04494 0.27342,-0.76898 0.56962,-1.52088 0.9114,-2.27847 0.78038,-1.76012 1.70885,-3.47468 2.07911,-5.36012 a 8.9771965,8.9771965 0 0 0 0.0342,-3.1215 0.86012475,0.86012475 0 0 0 -0.19937,-0.50127 0.87721333,0.87721333 0 0 0 -0.64936,-0.17658 c -2.37531,0.0627 -4.55695,1.42404 -6.88099,1.82278 -1.20191,0.20506 -2.45506,0.1481 -3.62279,0.49557 a 7.6271989,7.6271989 0 0 0 -3.95884,3.14999 17.65819,17.65819 0 0 0 -1.38418,2.37531 c -0.60949,1.24177 -1.17911,2.42658 -1.70886,3.57721 -0.30759,0.68923 -0.5981,1.37278 -0.86582,2.04493 a 28.082218,28.082218 0 0 0 -1.81139,6.61898 v 0.0399 a 20.329703,20.329703 0 0 0 -0.13101,2.60316 z"
         fill="#3e3e54"
         id="path193"
         style="stroke-width:0.336213" />
      <path
         d="m 181.46407,143.12505 c 0,0.48988 0,0.99114 0.0342,1.4981 0.0342,0.50697 0.0684,1.01962 0.13101,1.54367 a 2.5291085,2.5291085 0 0 0 0.0456,0.34747 c 0.0456,0.35886 0.10253,0.71772 0.16519,1.08798 a 0.05126571,0.05126571 0 0 1 0,0.0399 l 0.11962,0.61519 a 5.9980885,5.9980885 0 0 0 0.41013,3.29809 30.110062,30.110062 0 0 0 3.04176,-0.0456 25.803742,25.803742 0 0 0 5.81011,-1.03671 23.200583,23.200583 0 0 0 5.30886,-3.7367 3.8961942,3.8961942 0 0 0 1.0253,-1.36708 4.5968256,4.5968256 0 0 0 0.17089,-1.76013 33.25436,33.25436 0 0 1 1.26456,-9.72909 c 0.19937,-0.68924 0.42151,-1.37279 0.66075,-2.04494 0.27342,-0.76898 0.56962,-1.52088 0.9114,-2.27847 0.78038,-1.76012 1.70885,-3.47468 2.07911,-5.36012 a 8.9771965,8.9771965 0 0 0 0.0342,-3.1215 0.86012475,0.86012475 0 0 0 -0.19937,-0.50127 0.87721333,0.87721333 0 0 0 -0.64936,-0.17658 c -2.37531,0.0627 -4.55695,1.42404 -6.88099,1.82278 -1.20191,0.20506 -2.45506,0.1481 -3.62279,0.49557 a 7.6271989,7.6271989 0 0 0 -3.95884,3.14999 17.65819,17.65819 0 0 0 -1.38418,2.37531 c -0.60949,1.24177 -1.17911,2.42658 -1.70886,3.57721 -0.30759,0.68923 -0.5981,1.37278 -0.86582,2.04493 a 28.082218,28.082218 0 0 0 -1.81139,6.61898 v 0.0399 a 20.329703,20.329703 0 0 0 -0.13101,2.60316 z"
         fill="url(#linear-gradient-13)"
         id="path195"
         style="fill:url(#linear-gradient-13);stroke-width:0.336213" />
      <path
         d="m 149.02997,98.922619 c -1.27595,-1.082277 -2.59746,-2.193034 -4.1924,-2.717083 a 0.72341618,0.72341618 0 0 0 -0.66645,0 0.56961904,0.56961904 0 0 0 -0.18798,0.341771 1.8683505,1.8683505 0 0 0 0.56962,1.55506 8.6354246,8.6354246 0 0 1 1.10507,1.304427 4.0613837,4.0613837 0 0 0 -1.79431,0.07975 0.56961904,0.56961904 0 0 0 -0.30189,0.16519 0.47847999,0.47847999 0 0 0 0.0285,0.484176 2.5689819,2.5689819 0 0 0 2.0962,1.13923 0.86582094,0.86582094 0 0 1 0.4386,0.13671 c 0.27911,0.23355 0.0968,0.68355 0.1481,1.03671 a 1.1392381,1.1392381 0 0 0 0.64367,0.77468 c 0.30759,0.15949 0.65506,0.23924 0.97974,0.37595 a 4.9158123,4.9158123 0 0 0 1.53797,0.66076 c 1.07658,0.0456 2.15316,-1.38418 2.16456,-2.3981 0.0228,-1.10506 -1.82279,-2.306952 -2.56899,-2.939228 z"
         fill="#784421"
         id="path197"
         style="stroke-width:0.336213" />
      <rect
         x="85.329468"
         y="148.8896"
         width="1.9367046"
         height="17.886038"
         fill="#4c506d"
         id="rect199"
         style="stroke-width:0.336213" />
      <rect
         x="85.329468"
         y="148.8896"
         width="1.9367046"
         height="17.886038"
         fill="url(#linear-gradient-15)"
         id="rect201"
         style="fill:url(#linear-gradient-15);stroke-width:0.336213" />
      <path
         d="m 96.368689,168.79209 c 0,1.32152 -4.511385,2.3924 -10.076563,2.3924 -5.565178,0 -10.070865,-1.07088 -10.070865,-2.3924 a 10.874028,10.874028 0 0 1 0,-1.4924 c 0.71772,-1.13924 5.012648,-0.9057 10.070865,-0.9057 4.870243,0 9.113908,-0.18797 10.076563,0.9057 a 5.9468227,5.9468227 0 0 1 0,1.4924 z"
         fill="#2f3554"
         id="path203"
         style="stroke-width:0.336213" />
      <ellipse
         cx="86.29213"
         cy="167.29968"
         rx="10.070865"
         ry="2.3980961"
         fill="#4c506d"
         id="ellipse205"
         style="stroke-width:0.336213" />
      <path
         d="m 104.84462,145.1472 a 7.4677056,7.4677056 0 0 1 -0.56962,3.07025 h -0.057 c -1.13924,0 -2.22721,0 -3.34366,0.0684 a 47.665721,47.665721 0 0 0 -5.531004,0.77468 c -0.843037,0.15949 -1.708858,0.33038 -2.523413,0.50127 l -2.415185,0.48987 c -1.526579,0.2962 -2.996197,0.56962 -4.420244,0.75759 a 13.596807,13.596807 0 0 1 -4.818977,-3.46328 l -0.421518,-0.49557 c -0.170886,-0.21645 -0.336076,-0.4443 -0.489872,-0.68354 a 5.1664446,5.1664446 0 0 1 -0.88291,-2.23861 3.3265752,3.3265752 0 0 1 0.03418,-0.97974 4.6480913,4.6480913 0 0 1 1.953793,-2.7 l 0.301898,-0.21645 a 11.392381,11.392381 0 0 1 6.93796,-2.02215 3.7822704,3.7822704 0 0 1 0.620885,0.0342 21.144259,21.144259 0 0 1 3.907586,0.66076 c 2.022146,0.51835 4.049993,1.24746 6.049351,1.88543 a 16.188573,16.188573 0 0 1 4.20949,1.8 3.5145495,3.5145495 0 0 1 0.96835,0.9114 3.4177142,3.4177142 0 0 1 0.48987,1.84556 z"
         fill="#3e3e54"
         id="path207"
         style="stroke-width:0.336213" />
      <path
         d="m 104.67373,148.37125 c -0.26772,1.3443 -0.49557,2.6943 -0.70063,4.04999 -0.27911,1.86265 -0.39873,3.75948 -0.70633,5.61074 -0.3076,1.85127 -0.23924,3.68544 -0.56962,5.50822 a 10.680357,10.680357 0 0 0 -0.23924,2.08481 8.857576,8.857576 0 0 0 0.72912,2.80253 c -0.0513,0.11961 -0.22786,0.10822 -0.35887,0.0741 a 9.3987144,9.3987144 0 0 1 -2.13037,-0.75759 3.2468285,3.2468285 0 0 1 -1.532271,-1.61203 c -0.40443,-1.0424 -0.04558,-2.14176 -0.09114,-3.21264 a 16.632876,16.632876 0 0 0 -0.70633,-3.32659 c -0.791766,-3.10441 -2.882266,-5.91264 -2.796831,-9.21073 a 1.8056924,1.8056924 0 0 0 -0.222145,-1.22468 c -0.393042,-0.48418 -2.050631,0.30189 -2.568984,0.40443 l -2.415185,0.48987 c -4.312016,0.83734 -8.293653,1.79999 -12.730985,0.97974 a 1.9480971,1.9480971 0 0 1 -0.746202,-0.26202 1.7088571,1.7088571 0 0 1 -0.535441,-0.8886 7.8835275,7.8835275 0 0 1 0.461391,-5.88987 c 1.082276,-2.13037 2.796829,-2.9791 4.807585,-3.98733 2.312653,-1.13924 4.266446,-2.05632 6.937959,-1.98228 a 3.7822704,3.7822704 0 0 1 0.620885,0.0342 21.708181,21.708181 0 0 1 3.918979,0.68354 c 3.252522,0.84304 10.754405,2.02785 12.001875,5.80442 0.39303,1.1962 -0.0968,2.14746 -0.33608,3.30949 -0.0228,0.16519 -0.057,0.34177 -0.0911,0.51835 z"
         fill="#784421"
         id="path209"
         style="stroke-width:0.336213" />
      <path
         d="m 98.8921,165.60792 a 0.47847999,0.47847999 0 0 1 0.131012,-0.10254 c 0.205059,-0.0855 0.393034,0.14811 0.512658,0.34178 a 4.5569523,4.5569523 0 0 0 2.15316,1.83987 0.50696095,0.50696095 0 0 0 0.35317,0.0456 c 0.13101,-0.0513 0.19936,-0.19936 0.30759,-0.29619 a 0.62088475,0.62088475 0 0 1 0.56962,-0.10254 2.005059,2.005059 0 0 1 0.54114,0.2962 10.646179,10.646179 0 0 1 1.44113,1.13924 c 0.22785,0.22785 0.44999,0.56962 0.31329,0.85443 a 0.74050475,0.74050475 0 0 1 -0.40443,0.32468 2.8480952,2.8480952 0 0 1 -1.90822,-0.0684 c -1.13924,-0.37595 -2.15886,-1.07658 -3.275317,-1.51519 a 0.51835333,0.51835333 0 0 0 -0.244928,-0.057 1.1392381,1.1392381 0 0 0 -0.187974,0.0456 0.67215047,0.67215047 0 0 1 -0.495573,-0.31898 1.765819,1.765819 0 0 1 0.193672,-2.42658 z"
         fill="#3e3e54"
         id="path211"
         style="stroke-width:0.336213" />
      <path
         d="m 110.03385,149.0491 a 10.36137,10.36137 0 0 1 0.68924,3.98732 c 0,3.48608 -0.96835,6.8924 -1.91392,10.25315 -0.39873,1.41265 -0.73481,2.8481 -1.2019,4.26645 -0.34177,1.01392 -0.79747,1.76581 -0.1424,2.81961 a 7.0177066,7.0177066 0 0 1 0.39303,0.61519 0.63797332,0.63797332 0 0 1 -0.0798,0.68354 c -0.25633,0.23354 -0.66076,0.0798 -0.97974,-0.0456 a 20.010717,20.010717 0 0 1 -2.27848,-0.80317 c -1.40126,-0.79177 -0.86013,-1.7943 -0.63798,-3.00759 0.27342,-1.46392 0.4557,-2.96201 0.60949,-4.44302 a 30.21829,30.21829 0 0 0 -0.22784,-9.06264 1.9025276,1.9025276 0 0 0 -0.40443,-0.96836 1.8113886,1.8113886 0 0 0 -1.01392,-0.41012 c -5.126568,-0.9057 -10.13922,-1.17911 -15.032248,-3.16139 a 30.372087,30.372087 0 0 1 -5.548089,-2.84809 3.6056885,3.6056885 0 0 1 -0.67215,-0.67785 c -0.08544,-0.11393 -0.16519,-0.23354 -0.23924,-0.35316 a 2.9221456,2.9221456 0 0 1 -0.421519,-1.65759 2.4607542,2.4607542 0 0 1 0.07975,-0.4557 4.1012571,4.1012571 0 0 1 0.512657,-0.92848 4.0158142,4.0158142 0 0 1 1.224681,-1.09367 8.2196027,8.2196027 0 0 1 4.101257,-1.51519 c 0.996834,-0.0513 1.98797,0.14811 2.973412,0.0911 0.882909,-0.0456 1.492401,-0.53544 2.278476,-0.65506 a 4.3632818,4.3632818 0 0 1 1.777212,0.15949 21.599953,21.599953 0 0 1 3.793661,1.70886 l 4.41455,2.20443 c 2.04493,1.01962 4.55694,1.70885 6.35125,3.1272 a 5.2860647,5.2860647 0 0 1 1.59493,2.17026 z"
         fill="#784421"
         id="path213"
         style="stroke-width:0.336213" />
      <path
         d="m 105.36867,141.61556 a 13.141111,13.141111 0 0 1 6.22593,10.93669 30.981579,30.981579 0 0 1 -12.246805,5.54809 2.7569561,2.7569561 0 0 1 -1.54936,0 3.2753094,3.2753094 0 0 1 -1.076581,-0.87721 c -4.067084,-4.17531 -11.227194,-3.75949 -15.499338,-7.72974 -1.617718,-1.50379 -2.671513,-4.09555 -1.395566,-5.90124 a 5.9753037,5.9753037 0 0 1 1.896831,-1.53798 c 3.320879,-1.97657 7.234162,-4.9329 11.249977,-4.24936 4.015817,0.68355 8.925932,1.72025 12.394912,3.81075 z"
         fill="#68e1fd"
         id="path215"
         style="stroke-width:0.336213" />
      <path
         d="m 106.93512,155.65098 c -2.03354,-2.17025 -2.40949,-5.37151 -2.68291,-8.33923 a 7.359478,7.359478 0 0 1 -1.94239,1.22469 l -0.34747,-0.92279 a 0.2962019,0.2962019 0 0 0 -0.32468,-0.25632 0.30759428,0.30759428 0 0 0 -0.11963,0.0456 28.885382,28.885382 0 0 1 -8.988586,1.5038 c -1.139238,0 -2.409488,-0.0855 -3.366448,-0.7576 -0.95696,-0.67215 -1.452529,-2.11898 -0.751898,-3.05315 a 51.949256,51.949256 0 0 1 -7.524667,1.46391 0.78607428,0.78607428 0 0 0 -0.569619,0.21646 c -0.193671,0.25063 0,0.61519 0.16519,0.87152 a 13.562629,13.562629 0 0 0 8.544286,5.45125 c 0.962655,0.17658 6.06644,2.07912 8.356311,5.06961 a 1.3215162,1.3215162 0 0 0 1.338603,0.42721 z"
         fill="url(#linear-gradient-18)"
         id="path217"
         style="fill:url(#linear-gradient-18);stroke-width:0.336213" />
      <path
         d="m 76.1643,147.46556 c -0.768986,0 -1.663289,0.12531 -2.056325,0.78037 a 1.4069591,1.4069591 0 0 0 0,1.34431 2.2784762,2.2784762 0 0 0 1.013921,0.93987 6.1234046,6.1234046 0 0 0 1.708858,0.48986 c 2.443665,0.4614 4.887331,0.92279 7.336693,1.3557 1.236074,0.21646 2.483539,0.42721 3.725308,0.62089 0.991138,0.15379 1.902528,0.63797 2.910754,0.83164 1.008225,0.19367 2.34683,0.33038 3.189866,-0.38735 a 1.9993628,1.9993628 0 0 0 0.660762,-1.86834 1.1791114,1.1791114 0 0 0 -0.307598,-0.63797 1.6632876,1.6632876 0 0 0 -0.444303,-0.29052 22.613876,22.613876 0 0 0 -5.633532,-1.65189 l -3.987333,-0.80316 a 23.764506,23.764506 0 0 0 -3.685435,-0.70063 c -1.475313,-0.057 -2.933539,-0.0627 -4.431636,-0.0228 z"
         fill="#3e3e54"
         id="path219"
         style="stroke-width:0.336213" />
      <path
         d="m 76.1643,147.46556 c -0.768986,0 -1.663289,0.12531 -2.056325,0.78037 a 1.4069591,1.4069591 0 0 0 0,1.34431 2.2784762,2.2784762 0 0 0 1.013921,0.93987 6.1234046,6.1234046 0 0 0 1.708858,0.48986 c 2.443665,0.4614 4.887331,0.92279 7.336693,1.3557 1.236074,0.21646 2.483539,0.42721 3.725308,0.62089 0.991138,0.15379 1.902528,0.63797 2.910754,0.83164 1.008225,0.19367 2.34683,0.33038 3.189866,-0.38735 a 1.9993628,1.9993628 0 0 0 0.660762,-1.86834 1.1791114,1.1791114 0 0 0 -0.307598,-0.63797 1.6632876,1.6632876 0 0 0 -0.444303,-0.29052 22.613876,22.613876 0 0 0 -5.633532,-1.65189 l -3.987333,-0.80316 a 23.764506,23.764506 0 0 0 -3.685435,-0.70063 c -1.475313,-0.057 -2.933539,-0.0627 -4.431636,-0.0228 z"
         fill="url(#linear-gradient-19)"
         id="path221"
         style="fill:url(#linear-gradient-19);stroke-width:0.336213" />
      <path
         d="m 139.37492,131.5447 v 2.05063 H 56.757379 c -0.131012,-0.68355 -0.250633,-1.36708 -0.364556,-2.05063 z"
         fill="#68e1fd"
         id="path223"
         style="stroke-width:0.336213" />
      <path
         d="m 97.690207,102.64223 a 3.5430304,3.5430304 0 0 0 -0.911399,-0.49557 c -0.974042,-0.36455 -2.335433,-0.38734 -3.110116,0.39874 -0.774682,0.78607 -0.740504,1.82278 -0.91139,2.81391 a 8.9145381,8.9145381 0 0 1 -1.743034,3.8962 5.9297342,5.9297342 0 0 0 -1.258858,1.92531 1.1962,1.1962 0 0 0 0,0.7462 1.498098,1.498098 0 0 0 0.620884,0.56962 5.6335323,5.6335323 0 0 0 1.953794,0.91139 1.4810095,1.4810095 0 0 0 1.349997,-0.2905 1.1392381,1.1392381 0 0 1 1.048101,-0.39305 5.3088494,5.3088494 0 0 0 1.230375,0.21646 1.7088571,1.7088571 0 0 0 1.378481,-1.21329 7.4961865,7.4961865 0 0 0 0.301891,-1.91391 c 0.193672,-1.70886 0.848738,-3.34937 0.951267,-5.06962 a 2.3468304,2.3468304 0 0 0 -0.899993,-2.10189 z"
         fill="#784421"
         id="path225"
         style="stroke-width:0.336213" />
      <path
         d="m 87.864275,111.81879 a 0.80885904,0.80885904 0 0 0 -0.131013,0.67215 0.61518856,0.61518856 0 0 0 0.569619,0.31329 12.765163,12.765163 0 0 1 4.807585,1.16772 c 0.330379,0.1538 0.757593,0.31899 0.985441,0 a 0.80316285,0.80316285 0 0 0 0,-0.76898 1.5379714,1.5379714 0 0 0 -0.495569,-0.53544 18.432872,18.432872 0 0 0 -2.050628,-1.31583 c -1.31582,-0.77468 -2.671513,-1.1848 -3.685435,0.46709 z"
         fill="#ffffff"
         id="path227"
         style="stroke-width:0.336213" />
      <path
         d="m 92.93958,138.43709 c 0.768986,1.53797 2.38101,2.47215 0.768986,4.01581 -2.848095,2.74557 -7.877831,3.8905 -11.694279,3.85633 -2.551894,0 -5.194925,-0.6095 -7.199985,-2.19304 a 4.1411304,4.1411304 0 0 1 -1.38987,-1.74873 4.8702427,4.8702427 0 0 1 -0.227848,-1.42974 c -0.501265,-8.99429 2.682906,-17.84616 7.182896,-25.63286 0.854429,-1.4924 1.976579,-3.09872 3.685436,-3.34936 a 5.6050513,5.6050513 0 0 1 1.82278,0.11393 101.53459,101.53459 0 0 1 11.830992,2.76265 3.7879666,3.7879666 0 0 1 1.429737,0.64937 4.0215104,4.0215104 0 0 1 0.77468,0.95125 l 6.140495,9.41581 c 0.89431,1.36139 1.81139,2.84809 1.70886,4.46581 a 2.1930333,2.1930333 0 0 1 -0.4557,1.31582 2.7854371,2.7854371 0 0 1 -1.70885,0.7462 14.924019,14.924019 0 0 1 -6.704422,-0.45569 c 1.213292,-0.92848 0.831643,-2.8481 0.03419,-4.16961 a 10.355674,10.355674 0 0 0 -1.98797,-2.35253 30.434745,30.434745 0 0 1 -2.506323,7.3367 c -0.831644,1.71455 -2.477843,3.74808 -1.503794,5.70188 z"
         fill="#808080"
         id="path229"
         style="stroke-width:0.336213" />
      <path
         d="m 98.823741,102.92134 a 3.1556894,3.1556894 0 0 0 0.05698,-1.76581 6.0265694,6.0265694 0 0 0 -1.28164,-2.306962 C 96.45984,97.475786 94.973141,96.27389 93.213015,96.000473 88.451,95.220094 82.914303,100.07894 81.102914,104.09476 c -1.139238,2.52341 -1.481009,5.32024 -2.118983,8.02023 -0.637973,2.7 -1.668984,5.45126 -3.793663,7.22277 -0.865821,0.72342 -1.919616,1.29304 -2.437969,2.27848 -0.632278,1.21329 -0.262025,2.76266 0.569619,3.84493 0.768986,0.98544 1.748731,1.37848 2.739868,2.02215 a 6.4082142,6.4082142 0 0 1 2.056325,2.50062 c 1.093668,2.1133 1.520882,4.55696 2.848095,6.52784 l 1.948097,-1.07658 a 17.925911,17.925911 0 0 0 4.556952,-3.17278 c 1.281642,-1.34999 2.147464,-3.23543 1.828477,-5.06961 -0.187974,-1.11076 -0.786075,-2.11328 -1.139238,-3.18417 -1.093668,-3.37784 1.298731,-4.72784 3.377841,-6.7329 a 6.2658094,6.2658094 0 0 0 1.788603,-5.43416 2.5291085,2.5291085 0 0 1 0.962657,-2.97341 c 0.888605,-1.07658 0.187974,-2.46645 1.236072,-3.46329 0.814558,-0.76898 2.056329,-0.86012 2.819614,-1.70885 a 2.1816409,2.1816409 0 0 0 0.478478,-0.77469 z"
         fill="#241c1c"
         id="path231"
         style="stroke-width:0.336213" />
      <path
         d="m 75.429491,126.37825 a 18.108189,18.108189 0 0 1 1.139238,-3.47467 c 2.22721,1.58354 3.856321,4.67658 4.676572,7.27973 0.820252,2.60316 1.492403,5.34873 3.167082,7.50758 l 1.811388,-0.62658 0.336076,1.13923 c 0.262025,0.90001 -0.495568,1.82278 -0.415822,2.73418 a 2.4778428,2.4778428 0 0 0 1.856958,1.9481 6.2202399,6.2202399 0 0 0 3.195563,-0.22785 4.6594838,4.6594838 0 0 0 1.845565,-0.80317 1.7829076,1.7829076 0 0 0 0.677847,-1.81138 1.1392381,1.1392381 0 0 1 0.495569,1.32152 2.5689819,2.5689819 0 0 1 -0.865821,1.22467 c -1.258858,1.13924 -2.848095,1.70886 -4.443029,2.32405 a 22.853116,22.853116 0 0 1 -2.278476,0.78038 23.924,23.924 0 0 1 -5.474039,0.56961 c -1.139238,0 -1.782908,-0.14809 -2.278476,-1.25316 -0.706328,-1.57784 -0.757593,-3.35505 -0.928479,-5.0696 a 89.794748,89.794748 0 0 0 -2.517716,-13.56264 z"
         fill="url(#linear-gradient-21)"
         id="path233"
         style="fill:url(#linear-gradient-21);stroke-width:0.336213" />
      <path
         d="m 81.524415,142.87442 c 0,0.48987 0,0.98545 -0.03418,1.49241 -0.03418,0.50696 -0.07405,1.01961 -0.136708,1.54936 a 1.0025295,1.0025295 0 0 1 -0.03988,0.34177 c -0.05127,0.35886 -0.102531,0.71772 -0.170885,1.08797 v 0.0399 c -0.03418,0.19936 -0.07405,0.40443 -0.113924,0.61519 a 6.134797,6.134797 0 0 1 -0.410126,3.30379 30.110062,30.110062 0 0 1 -3.041765,-0.0513 25.490452,25.490452 0 0 1 -5.810115,-1.03671 23.354381,23.354381 0 0 1 -5.308849,-3.7367 3.8677133,3.8677133 0 0 1 -1.025314,-1.37278 4.5569523,4.5569523 0 0 1 -0.170886,-1.75442 33.25436,33.25436 0 0 0 -1.270251,-9.75758 c -0.19367,-0.68924 -0.415821,-1.37278 -0.660758,-2.05063 -0.273417,-0.76329 -0.569619,-1.52088 -0.905694,-2.27847 -0.780378,-1.76013 -1.708857,-3.46898 -2.084805,-5.36012 a 8.9771965,8.9771965 0 0 1 -0.05127,-3.12721 0.86012475,0.86012475 0 0 1 0.199367,-0.50127 0.87721333,0.87721333 0 0 1 0.649365,-0.17657 c 2.375311,0.0627 4.556952,1.42974 6.880998,1.82278 1.201896,0.20506 2.455058,0.15379 3.622777,0.50126 a 7.5759332,7.5759332 0 0 1 3.987333,3.14429 17.65819,17.65819 0 0 1 1.384175,2.37532 c 0.609492,1.24177 1.179111,2.42658 1.708857,3.57721 0.307594,0.69493 0.569619,1.37278 0.865821,2.05063 a 27.432853,27.432853 0 0 1 1.811388,6.61328 v 0.0399 a 21.554384,21.554384 0 0 1 0.125316,2.64873 z"
         fill="#3e3e54"
         id="path235"
         style="stroke-width:0.336213" />
      <path
         d="m 81.524415,142.87442 c 0,0.48987 0,0.98545 -0.03418,1.49241 -0.03418,0.50696 -0.07405,1.01961 -0.136708,1.54936 a 1.0025295,1.0025295 0 0 1 -0.03988,0.34177 c -0.05127,0.35886 -0.102531,0.71772 -0.170885,1.08797 v 0.0399 c -0.03418,0.19936 -0.07405,0.40443 -0.113924,0.61519 a 6.134797,6.134797 0 0 1 -0.410126,3.30379 30.110062,30.110062 0 0 1 -3.041765,-0.0513 25.490452,25.490452 0 0 1 -5.810115,-1.03671 23.354381,23.354381 0 0 1 -5.308849,-3.7367 3.8677133,3.8677133 0 0 1 -1.025314,-1.37278 4.5569523,4.5569523 0 0 1 -0.170886,-1.75442 33.25436,33.25436 0 0 0 -1.270251,-9.75758 c -0.19367,-0.68924 -0.415821,-1.37278 -0.660758,-2.05063 -0.273417,-0.76329 -0.569619,-1.52088 -0.905694,-2.27847 -0.780378,-1.76013 -1.708857,-3.46898 -2.084805,-5.36012 a 8.9771965,8.9771965 0 0 1 -0.05127,-3.12721 0.86012475,0.86012475 0 0 1 0.199367,-0.50127 0.87721333,0.87721333 0 0 1 0.649365,-0.17657 c 2.375311,0.0627 4.556952,1.42974 6.880998,1.82278 1.201896,0.20506 2.455058,0.15379 3.622777,0.50126 a 7.5759332,7.5759332 0 0 1 3.987333,3.14429 17.65819,17.65819 0 0 1 1.384175,2.37532 c 0.609492,1.24177 1.179111,2.42658 1.708857,3.57721 0.307594,0.69493 0.569619,1.37278 0.865821,2.05063 a 27.432853,27.432853 0 0 1 1.811388,6.61328 v 0.0399 a 21.554384,21.554384 0 0 1 0.125316,2.64873 z"
         fill="url(#linear-gradient-22)"
         id="path237"
         style="fill:url(#linear-gradient-22);stroke-width:0.336213" />
      <path
         d="m 103.50031,169.09399 a 0.31329047,0.31329047 0 0 1 0.12533,-0.10253 c 0.21075,-0.0855 0.39873,0.1481 0.51265,0.34177 a 4.5569523,4.5569523 0 0 0 2.15316,1.83986 0.50696095,0.50696095 0 0 0 0.35316,0.0456 c 0.13671,-0.0513 0.20507,-0.19937 0.3076,-0.2962 a 0.62088475,0.62088475 0 0 1 0.56962,-0.10253 1.7601228,1.7601228 0 0 1 0.53544,0.2962 10.298712,10.298712 0 0 1 1.44113,1.13923 c 0.22786,0.22785 0.45,0.56962 0.3133,0.85443 a 0.67784666,0.67784666 0 0 1 -0.39874,0.31899 2.8480952,2.8480952 0 0 1 -1.91391,-0.0627 c -1.13925,-0.37595 -2.15316,-1.07658 -3.26962,-1.51519 a 0.56961904,0.56961904 0 0 0 -0.25063,-0.057 1.0651876,1.0651876 0 0 0 -0.18228,0.0456 0.67215047,0.67215047 0 0 1 -0.49557,-0.31899 1.765819,1.765819 0 0 1 0.19936,-2.42658 z"
         fill="#3e3e54"
         id="path239"
         style="stroke-width:0.336213" />
      <path
         d="m 82.458589,78.422029 a 3.0588543,3.0588543 0 0 1 0.444304,0.187974 l 1.378478,0.757594 a 0.68354285,0.68354285 0 0 0 0.210759,0.08544 0.56961904,0.56961904 0 0 0 0.23924,0 c 1.948097,-0.404429 1.965185,-2.956322 0.381645,-3.839232 a 4.4031551,4.4031551 0 0 1 -0.848732,-0.506961 7.2512503,7.2512503 0 0 1 -0.56962,-0.712023 0.84303618,0.84303618 0 0 0 -0.825947,-0.290506 0.87721333,0.87721333 0 0 0 -0.484177,0.649365 3.9873333,3.9873333 0 0 1 -0.205063,0.814556 2.4778428,2.4778428 0 0 1 -0.318986,0.449999 6.7727704,6.7727704 0 0 0 -0.489873,0.706327 1.1734152,1.1734152 0 0 0 -0.227847,0.797467 0.99113713,0.99113713 0 0 0 0.655061,0.677847 c 0.199367,0.08544 0.421518,0.142404 0.660758,0.222151 z"
         fill="#803300"
         id="path241"
         style="stroke-width:0.336213" />
      <path
         d="m 94.95034,88.720741 a 4.0784723,4.0784723 0 0 1 0.495563,1.446832 3.2411323,3.2411323 0 0 1 -1.287338,2.563287 6.4139103,6.4139103 0 0 1 -3.87341,1.566452 2.2158181,2.2158181 0 0 1 -1.070883,-0.159494 2.4949314,2.4949314 0 0 1 -1.008226,-1.258857 c -1.765819,-3.63417 -3.696828,-8.128465 -3.87341,-12.224025 -0.05696,-1.270251 1.053796,-3.508853 2.546198,-2.665817 1.640502,0.928479 3.161385,3.206955 4.289231,4.682268 a 36.723339,36.723339 0 0 1 3.782275,6.049354 z"
         fill="#005544"
         id="path243"
         style="stroke-width:0.336213" />
    </g>
  </g>
</svg>
