<?xml version="1.0" encoding="UTF-8" standalone="no"?>
<svg
   xmlns:dc="http://purl.org/dc/elements/1.1/"
   xmlns:cc="http://creativecommons.org/ns#"
   xmlns:rdf="http://www.w3.org/1999/02/22-rdf-syntax-ns#"
   xmlns:svg="http://www.w3.org/2000/svg"
   xmlns="http://www.w3.org/2000/svg"
   xmlns:sodipodi="http://sodipodi.sourceforge.net/DTD/sodipodi-0.dtd"
   xmlns:inkscape="http://www.inkscape.org/namespaces/inkscape"
   version="1.1"
   id="Layer_1"
   x="0px"
   y="0px"
   viewBox="0 0 722.13672 679.26752"
   xml:space="preserve"
   sodipodi:docname="stock people.svg"
   width="722.13672"
   height="679.26752"
   inkscape:version="1.0.1 (3bc2e813f5, 2020-09-07)"><sodipodi:namedview
   pagecolor="#ffffff"
   bordercolor="#666666"
   borderopacity="1"
   objecttolerance="10"
   gridtolerance="10"
   guidetolerance="10"
   inkscape:pageopacity="0"
   inkscape:pageshadow="2"
   inkscape:window-width="1366"
   inkscape:window-height="702"
   id="namedview206"
   showgrid="false"
   fit-margin-top="0"
   fit-margin-left="0"
   fit-margin-right="0"
   fit-margin-bottom="0"
   showborder="false"
   inkscape:zoom="0.43888889"
   inkscape:cx="514.09831"
   inkscape:cy="513.06836"
   inkscape:window-x="-8"
   inkscape:window-y="-8"
   inkscape:window-maximized="1"
   inkscape:current-layer="Layer_1"
   inkscape:document-rotation="0" /><metadata
   id="metadata481"><rdf:RDF><cc:Work
       rdf:about=""><dc:format>image/svg+xml</dc:format><dc:type
         rdf:resource="http://purl.org/dc/dcmitype/StillImage" /><dc:title /></cc:Work></rdf:RDF></metadata><defs
   id="defs479">
	
	
	
	
	

	
	
	
	
	
	
	
	
	
	
	

		
		
	
		
		
	
		
		
	
	
	
	
	
	
	
	
	
	
	
	
	
	
	
	
	

		
		
	
		
		
	
		
		
	
		
		
	
		
	
			
		
		
		
	
		
		
		
	
			
		</defs>
<style
   type="text/css"
   id="style2">
	.st0{opacity:0.51;fill:#CCE9FF;}
	.st1{fill:#F7F7F7;}
	.st2{fill:#084970;}
	.st3{fill:#D3D3D3;}
	.st4{fill:#CCE9FF;}
	.st5{fill:#2A94F4;}
	.st6{fill:#0b141a;}
	.st7{fill:none;stroke:#FFFFFF;stroke-width:1.0626;stroke-miterlimit:10;}
	.st8{fill:#0E538C;}
	.st9{fill:none;stroke:#FFFFFF;stroke-miterlimit:10;}
	.st10{fill:#2890DD;}
	.st11{fill:#FEE3CA;}
	.st12{fill:#EACDB5;}
	.st13{fill:#474747;}
	.st14{fill:#073951;}
	.st15{fill:#DB9E46;}
</style>






<g
   id="g575"><path
     class="st2"
     d="m 589.1046,30.291378 c 0,-10.620112 -6.70517,-19.227452 -14.98454,-19.227452 H 96.854801 c -8.272777,0 -14.984527,8.60734 -14.984527,19.227452 V 396.16223 H 589.09802 V 30.291378 Z"
     id="path8"
     style="stroke-width:0.999991" /><rect
     x="101.93307"
     y="41.489727"
     class="st3"
     width="469.0979"
     height="324.89084"
     id="rect10"
     style="stroke-width:0.999991" /><g
     id="g62"
     transform="matrix(0.42901712,0,0,0.47673294,85.510946,30.200563)"
     style="stroke-width:2.21119">
		<path
   class="st4"
   d="M 554.89,508.33 H 73 c -9.49,0 -17.17,-7.69 -17.17,-17.17 V 244.49 c 0,-9.49 7.69,-17.17 17.17,-17.17 h 481.89 c 9.49,0 17.17,7.69 17.17,17.17 v 246.66 c 0.01,9.49 -7.68,17.18 -17.17,17.18 z"
   id="path12"
   style="stroke-width:2.21119" />
		<g
   id="g44"
   style="stroke-width:2.21119">
			<path
   class="st5"
   d="m 279.77,417.33 v -24.55 c 0,-0.56 -0.47,-1.02 -1.04,-1.02 -0.57,0 -1.04,0.46 -1.04,1.02 v 24.55 c -1.88,0.18 -3.37,1.72 -3.37,3.65 v 18.28 c 0,1.93 1.49,3.46 3.37,3.65 v 11.01 c 0,0.56 0.47,1.02 1.04,1.02 0.57,0 1.04,-0.46 1.04,-1.02 V 442.9 c 1.88,-0.18 3.37,-1.72 3.37,-3.65 v -18.28 c 0,-1.93 -1.49,-3.46 -3.37,-3.64 z"
   id="path14"
   style="stroke-width:2.21119" />
			<path
   class="st5"
   d="m 298.6,381.59 v -24.55 c 0,-0.56 -0.47,-1.02 -1.04,-1.02 -0.57,0 -1.04,0.46 -1.04,1.02 v 24.55 c -1.88,0.18 -3.37,1.72 -3.37,3.65 v 45.37 c 0,1.93 1.49,3.46 3.37,3.65 v 11.01 c 0,0.56 0.47,1.02 1.04,1.02 0.58,0 1.04,-0.46 1.04,-1.02 v -11.01 c 1.88,-0.18 3.37,-1.72 3.37,-3.65 v -45.37 c 0,-1.93 -1.49,-3.46 -3.37,-3.65 z"
   id="path16"
   style="stroke-width:2.21119" />
			<path
   class="st6"
   d="m 317.43,355.55 v -11.01 c 0,-0.56 -0.47,-1.02 -1.04,-1.02 -0.58,0 -1.04,0.45 -1.04,1.02 v 11.01 c -1.88,0.18 -3.37,1.72 -3.37,3.65 v 86.01 c 0,1.93 1.49,3.46 3.37,3.65 v 24.56 c 0,0.56 0.47,1.02 1.04,1.02 0.58,0 1.04,-0.45 1.04,-1.02 v -24.56 c 1.88,-0.18 3.37,-1.72 3.37,-3.65 V 359.2 c 0,-1.93 -1.49,-3.47 -3.37,-3.65 z"
   id="path18"
   style="stroke-width:2.21119" />
			<path
   class="st5"
   d="M 336.26,380.61 V 369.6 c 0,-0.56 -0.47,-1.02 -1.04,-1.02 -0.57,0 -1.04,0.45 -1.04,1.02 v 11.01 c -1.88,0.18 -3.37,1.72 -3.37,3.65 v 45.37 c 0,1.93 1.49,3.46 3.37,3.65 v 11.01 c 0,0.56 0.47,1.02 1.04,1.02 0.58,0 1.04,-0.46 1.04,-1.02 v -11.01 c 1.88,-0.18 3.37,-1.72 3.37,-3.65 v -45.37 c 0,-1.93 -1.49,-3.47 -3.37,-3.65 z"
   id="path20"
   style="stroke-width:2.21119" />
			<path
   class="st5"
   d="M 355.09,401.81 V 390.8 c 0,-0.56 -0.47,-1.02 -1.04,-1.02 -0.57,0 -1.04,0.46 -1.04,1.02 v 11.01 c -1.88,0.18 -3.37,1.72 -3.37,3.65 v 31.82 c 0,1.93 1.49,3.46 3.37,3.65 v 38.1 c 0,0.56 0.47,1.02 1.04,1.02 0.57,0 1.04,-0.46 1.04,-1.02 v -38.1 c 1.88,-0.18 3.37,-1.72 3.37,-3.65 v -31.82 c 0,-1.93 -1.49,-3.47 -3.37,-3.65 z"
   id="path22"
   style="stroke-width:2.21119" />
			<path
   class="st5"
   d="m 373.91,413.16 v -11.01 c 0,-0.56 -0.47,-1.02 -1.04,-1.02 -0.57,0 -1.04,0.45 -1.04,1.02 v 11.01 c -1.88,0.18 -3.37,1.72 -3.37,3.65 v 18.28 c 0,1.93 1.49,3.46 3.37,3.65 v 11.01 c 0,0.56 0.47,1.02 1.04,1.02 0.58,0 1.04,-0.46 1.04,-1.02 v -11.01 c 1.88,-0.18 3.37,-1.72 3.37,-3.65 v -18.28 c 0.01,-1.93 -1.49,-3.47 -3.37,-3.65 z"
   id="path24"
   style="stroke-width:2.21119" />
			<path
   class="st5"
   d="m 392.74,415.12 v -11.01 c 0,-0.56 -0.47,-1.02 -1.04,-1.02 -0.57,0 -1.04,0.46 -1.04,1.02 v 11.01 c -1.88,0.18 -3.37,1.72 -3.37,3.65 v 4.73 c 0,1.93 1.49,3.46 3.37,3.65 v 11.01 c 0,0.56 0.47,1.02 1.04,1.02 0.57,0 1.04,-0.46 1.04,-1.02 v -11.01 c 1.88,-0.18 3.37,-1.72 3.37,-3.65 v -4.73 c 0.01,-1.93 -1.49,-3.47 -3.37,-3.65 z"
   id="path26"
   style="stroke-width:2.21119" />
			<path
   class="st6"
   d="m 411.57,369.76 v -24.55 c 0,-0.56 -0.47,-1.02 -1.04,-1.02 -0.57,0 -1.04,0.46 -1.04,1.02 v 24.55 c -1.88,0.18 -3.37,1.72 -3.37,3.65 v 31.82 c 0,1.93 1.49,3.46 3.37,3.65 v 11.01 c 0,0.56 0.47,1.02 1.04,1.02 0.58,0 1.04,-0.46 1.04,-1.02 v -11.01 c 1.88,-0.18 3.37,-1.72 3.37,-3.65 v -31.82 c 0.01,-1.93 -1.49,-3.46 -3.37,-3.65 z"
   id="path28"
   style="stroke-width:2.21119" />
			<path
   class="st5"
   d="m 430.4,347.73 v -11.01 c 0,-0.56 -0.47,-1.02 -1.04,-1.02 -0.57,0 -1.04,0.46 -1.04,1.02 v 11.01 c -1.88,0.18 -3.37,1.72 -3.37,3.65 v 45.37 c 0,1.93 1.49,3.46 3.37,3.65 v 11.01 c 0,0.56 0.47,1.02 1.04,1.02 0.57,0 1.04,-0.46 1.04,-1.02 V 400.4 c 1.88,-0.18 3.37,-1.72 3.37,-3.65 v -45.37 c 0.01,-1.93 -1.49,-3.46 -3.37,-3.65 z"
   id="path30"
   style="stroke-width:2.21119" />
			<path
   class="st6"
   d="m 449.23,311.99 v -11.01 c 0,-0.56 -0.47,-1.02 -1.04,-1.02 -0.57,0 -1.04,0.46 -1.04,1.02 v 11.01 c -1.88,0.18 -3.37,1.72 -3.37,3.65 v 86.01 c 0,1.93 1.49,3.47 3.37,3.65 v 11.01 c 0,0.56 0.47,1.02 1.04,1.02 0.58,0 1.04,-0.45 1.04,-1.02 V 405.3 c 1.88,-0.18 3.37,-1.72 3.37,-3.65 v -86.01 c 0,-1.93 -1.49,-3.47 -3.37,-3.65 z"
   id="path32"
   style="stroke-width:2.21119" />
			<path
   class="st5"
   d="m 468.06,333.78 v -24.56 c 0,-0.56 -0.47,-1.02 -1.04,-1.02 -0.57,0 -1.04,0.45 -1.04,1.02 v 24.56 c -1.88,0.18 -3.37,1.72 -3.37,3.65 v 31.82 c 0,1.93 1.49,3.46 3.37,3.65 v 24.55 c 0,0.56 0.47,1.02 1.04,1.02 0.57,0 1.04,-0.46 1.04,-1.02 V 372.9 c 1.88,-0.18 3.37,-1.72 3.37,-3.65 v -31.82 c 0,-1.93 -1.49,-3.47 -3.37,-3.65 z"
   id="path34"
   style="stroke-width:2.21119" />
			<path
   class="st5"
   d="m 486.89,303.93 v -11.01 c 0,-0.56 -0.47,-1.02 -1.04,-1.02 -0.57,0 -1.04,0.46 -1.04,1.02 v 11.01 c -1.88,0.18 -3.37,1.72 -3.37,3.65 v 4.73 c 0,1.93 1.49,3.46 3.37,3.65 v 11.01 c 0,0.56 0.47,1.02 1.04,1.02 0.58,0 1.04,-0.45 1.04,-1.02 v -11.01 c 1.88,-0.18 3.37,-1.72 3.37,-3.65 v -4.73 c 0,-1.93 -1.49,-3.47 -3.37,-3.65 z"
   id="path36"
   style="stroke-width:2.21119" />
			<path
   class="st5"
   d="m 505.72,289.4 v -11 c 0,-0.56 -0.47,-1.02 -1.04,-1.02 -0.57,0 -1.04,0.46 -1.04,1.02 v 11.01 c -1.88,0.18 -3.37,1.72 -3.37,3.65 v 45.37 c 0,1.93 1.49,3.46 3.37,3.65 v 11.01 c 0,0.56 0.47,1.02 1.04,1.02 0.57,0 1.04,-0.46 1.04,-1.02 v -11.01 c 1.88,-0.18 3.37,-1.72 3.37,-3.65 v -45.37 c 0,-1.94 -1.49,-3.48 -3.37,-3.66 z"
   id="path38"
   style="stroke-width:2.21119" />
			<path
   class="st6"
   d="m 524.55,265.25 v -11.01 c 0,-0.56 -0.47,-1.02 -1.04,-1.02 -0.57,0 -1.04,0.46 -1.04,1.02 v 11.01 c -1.88,0.18 -3.37,1.72 -3.37,3.65 v 72.46 c 0,1.93 1.49,3.46 3.37,3.65 v 11.01 c 0,0.56 0.47,1.02 1.04,1.02 0.58,0 1.04,-0.46 1.04,-1.02 v -11.01 c 1.88,-0.18 3.37,-1.72 3.37,-3.65 V 268.9 c 0,-1.93 -1.49,-3.47 -3.37,-3.65 z"
   id="path40"
   style="stroke-width:2.21119" />
			<path
   class="st5"
   d="m 543.38,297.54 v -51.65 c 0,-0.56 -0.47,-1.02 -1.04,-1.02 -0.57,0 -1.04,0.45 -1.04,1.02 v 51.65 c -1.88,0.18 -3.37,1.72 -3.37,3.65 v 113.1 c 0,1.93 1.49,3.46 3.37,3.65 v 24.56 c 0,0.56 0.47,1.02 1.04,1.02 0.57,0 1.04,-0.45 1.04,-1.02 v -24.56 c 1.88,-0.18 3.37,-1.72 3.37,-3.65 v -113.1 c 0,-1.93 -1.49,-3.47 -3.37,-3.65 z"
   id="path42"
   style="stroke-width:2.21119" />
		</g>
		<rect
   x="83.089996"
   y="257.89999"
   class="st5"
   width="172.23"
   height="11.31"
   id="rect46"
   style="stroke-width:2.21119" />
		<rect
   x="83.089996"
   y="278.60001"
   class="st6"
   width="110.67"
   height="11.31"
   id="rect48"
   style="stroke-width:2.21119" />
		<rect
   x="83.089996"
   y="319.48999"
   class="st6"
   width="138.49001"
   height="11.31"
   id="rect50"
   style="stroke-width:2.21119" />
		<rect
   x="83.089996"
   y="299.47"
   class="st5"
   width="150.44"
   height="11.31"
   id="rect52"
   style="stroke-width:2.21119" />
		<g
   id="g60"
   style="stroke-width:2.21119">
			<path
   class="st5"
   d="m 146.33,352.53 c -16.75,4.2 -31.92,14.75 -41.55,30.7 -19.35,32.04 -9.07,73.71 22.98,93.06 24.28,14.66 54.07,12.3 75.51,-3.64 L 162.8,418.27 Z"
   id="path54"
   style="stroke-width:2.21119" />
			<path
   class="st6"
   d="m 226.7,395.69 c -5.04,-14.29 -14.88,-26.99 -28.86,-35.43 -16.09,-9.72 -34.61,-11.96 -51.51,-7.73 l 16.47,65.75 z"
   id="path56"
   style="stroke-width:2.21119" />
			<path
   class="st5"
   d="m 226.7,395.69 -63.91,22.59 40.47,54.38 c 6.85,-5.1 12.86,-11.57 17.55,-19.33 10.91,-18.07 12.4,-39.18 5.89,-57.64 z"
   id="path58"
   style="stroke-width:2.21119" />
		</g>
	</g><g
     id="g264"
     transform="matrix(0.46868779,0,0,0.52081585,77.166537,-31.209968)"
     style="stroke-width:2.024">
		<path
   class="st4"
   d="M 987.47,585.47 H 622.06 c -8.17,0 -14.79,-6.62 -14.79,-14.79 V 328.04 c 0,-8.17 6.62,-14.79 14.79,-14.79 h 365.41 c 8.17,0 14.79,6.62 14.79,14.79 v 242.64 c -0.01,8.17 -6.63,14.79 -14.79,14.79 z"
   id="path64"
   style="stroke-width:2.024" />
		<g
   id="g94"
   style="stroke-width:2.024">
			<g
   id="g68"
   style="stroke-width:2.024">
				<path
   class="st6"
   d="m 631.8,546.3 c 0,-0.27 0.22,-0.49 0.49,-0.49 v 0 c 0.27,0 0.51,0.22 0.51,0.49 v 0 c 0,0.27 -0.23,0.51 -0.51,0.51 v 0 c -0.27,-0.01 -0.49,-0.24 -0.49,-0.51 z m 0,-2.64 c 0,-0.29 0.22,-0.51 0.49,-0.51 v 0 c 0.27,0 0.51,0.22 0.51,0.51 v 0 c 0,0.27 -0.23,0.49 -0.51,0.49 v 0 c -0.27,0 -0.49,-0.22 -0.49,-0.49 z m 0,-2.65 c 0,-0.27 0.22,-0.49 0.49,-0.49 v 0 c 0.27,0 0.51,0.22 0.51,0.49 v 0 c 0,0.27 -0.23,0.49 -0.51,0.49 v 0 c -0.27,0 -0.49,-0.22 -0.49,-0.49 z m 0,-2.65 c 0,-0.27 0.22,-0.49 0.49,-0.49 v 0 c 0.27,0 0.51,0.22 0.51,0.49 v 0 c 0,0.27 -0.23,0.49 -0.51,0.49 v 0 c -0.27,0.01 -0.49,-0.22 -0.49,-0.49 z m 0,-2.65 c 0,-0.27 0.22,-0.49 0.49,-0.49 v 0 c 0.27,0 0.51,0.22 0.51,0.49 v 0 c 0,0.27 -0.23,0.49 -0.51,0.49 v 0 c -0.27,0.01 -0.49,-0.21 -0.49,-0.49 z"
   id="path66"
   style="stroke-width:2.024" />
			</g>
			<g
   id="g72"
   style="stroke-width:2.024">
				<path
   class="st6"
   d="m 687,546.61 c 0,-0.27 0.22,-0.49 0.51,-0.49 v 0 c 0.27,0 0.49,0.22 0.49,0.49 v 0 c 0,0.27 -0.22,0.49 -0.49,0.49 v 0 c -0.29,0 -0.51,-0.22 -0.51,-0.49 z m 0,-2.65 c 0,-0.27 0.22,-0.49 0.51,-0.49 v 0 c 0.27,0 0.49,0.22 0.49,0.49 v 0 c 0,0.29 -0.22,0.51 -0.49,0.51 v 0 c -0.29,0 -0.51,-0.23 -0.51,-0.51 z m 0,-2.64 c 0,-0.29 0.22,-0.51 0.51,-0.51 v 0 c 0.27,0 0.49,0.22 0.49,0.51 v 0 c 0,0.27 -0.22,0.49 -0.49,0.49 v 0 c -0.29,0.01 -0.51,-0.21 -0.51,-0.49 z m 0,-2.65 c 0,-0.27 0.22,-0.49 0.51,-0.49 v 0 c 0.27,0 0.49,0.22 0.49,0.49 v 0 c 0,0.27 -0.22,0.49 -0.49,0.49 v 0 c -0.29,0.01 -0.51,-0.21 -0.51,-0.49 z m 0,-2.65 c 0,-0.27 0.22,-0.49 0.51,-0.49 v 0 c 0.27,0 0.49,0.22 0.49,0.49 v 0 c 0,0.27 -0.22,0.49 -0.49,0.49 v 0 c -0.29,0.01 -0.51,-0.21 -0.51,-0.49 z m 0,-2.64 c 0,-0.27 0.22,-0.49 0.51,-0.49 v 0 c 0.27,0 0.49,0.22 0.49,0.49 v 0 c 0,0.27 -0.22,0.49 -0.49,0.49 v 0 c -0.29,0 -0.51,-0.22 -0.51,-0.49 z m 0,-2.64 c 0,-0.29 0.22,-0.51 0.51,-0.51 v 0 c 0.27,0 0.49,0.22 0.49,0.51 v 0 c 0,0.27 -0.22,0.49 -0.49,0.49 v 0 c -0.29,0 -0.51,-0.22 -0.51,-0.49 z m 0,-2.65 c 0,-0.27 0.22,-0.49 0.51,-0.49 v 0 c 0.27,0 0.49,0.22 0.49,0.49 v 0 c 0,0.27 -0.22,0.49 -0.49,0.49 v 0 c -0.29,0 -0.51,-0.22 -0.51,-0.49 z m 0,-2.65 c 0,-0.27 0.22,-0.49 0.51,-0.49 v 0 c 0.27,0 0.49,0.22 0.49,0.49 v 0 c 0,0.27 -0.22,0.49 -0.49,0.49 v 0 c -0.29,0.01 -0.51,-0.22 -0.51,-0.49 z m 0,-2.65 c 0,-0.27 0.22,-0.49 0.51,-0.49 v 0 c 0.27,0 0.49,0.22 0.49,0.49 v 0 c 0,0.27 -0.22,0.51 -0.49,0.51 v 0 c -0.29,0 -0.51,-0.23 -0.51,-0.51 z m 0,-2.63 c 0,-0.29 0.22,-0.51 0.51,-0.51 v 0 c 0.27,0 0.49,0.22 0.49,0.51 v 0 c 0,0.27 -0.22,0.49 -0.49,0.49 v 0 c -0.29,0 -0.51,-0.22 -0.51,-0.49 z m 0,-2.65 c 0,-0.27 0.22,-0.49 0.51,-0.49 v 0 c 0.27,0 0.49,0.22 0.49,0.49 v 0 c 0,0.27 -0.22,0.49 -0.49,0.49 v 0 c -0.29,0 -0.51,-0.22 -0.51,-0.49 z m 0,-2.65 c 0,-0.27 0.22,-0.49 0.51,-0.49 v 0 c 0.27,0 0.49,0.22 0.49,0.49 v 0 c 0,0.27 -0.22,0.49 -0.49,0.49 v 0 c -0.29,0 -0.51,-0.22 -0.51,-0.49 z m 0,-2.65 c 0,-0.27 0.22,-0.49 0.51,-0.49 v 0 c 0.27,0 0.49,0.22 0.49,0.49 v 0 c 0,0.27 -0.22,0.49 -0.49,0.49 v 0 c -0.29,0 -0.51,-0.22 -0.51,-0.49 z m 0,-2.65 c 0,-0.27 0.22,-0.49 0.51,-0.49 v 0 c 0.27,0 0.49,0.22 0.49,0.49 v 0 c 0,0.29 -0.22,0.51 -0.49,0.51 v 0 c -0.29,0 -0.51,-0.22 -0.51,-0.51 z m 0,-2.64 c 0,-0.29 0.22,-0.51 0.51,-0.51 v 0 c 0.27,0 0.49,0.22 0.49,0.51 v 0 c 0,0.27 -0.22,0.49 -0.49,0.49 v 0 c -0.29,0.01 -0.51,-0.21 -0.51,-0.49 z m 0,-2.64 c 0,-0.27 0.22,-0.49 0.51,-0.49 v 0 c 0.27,0 0.49,0.22 0.49,0.49 v 0 c 0,0.27 -0.22,0.49 -0.49,0.49 v 0 c -0.29,0 -0.51,-0.22 -0.51,-0.49 z m 0,-2.65 c 0,-0.27 0.22,-0.49 0.51,-0.49 v 0 c 0.27,0 0.49,0.22 0.49,0.49 v 0 c 0,0.27 -0.22,0.49 -0.49,0.49 v 0 c -0.29,0 -0.51,-0.22 -0.51,-0.49 z m 0,-2.65 c 0,-0.27 0.22,-0.49 0.51,-0.49 v 0 c 0.27,0 0.49,0.22 0.49,0.49 v 0 c 0,0.27 -0.22,0.49 -0.49,0.49 v 0 c -0.29,0 -0.51,-0.22 -0.51,-0.49 z"
   id="path70"
   style="stroke-width:2.024" />
			</g>
			<g
   id="g76"
   style="stroke-width:2.024">
				<path
   class="st6"
   d="m 744.6,546.19 c 0,-0.27 0.22,-0.49 0.49,-0.49 v 0 c 0.29,0 0.51,0.22 0.51,0.49 v 0 c 0,0.27 -0.22,0.49 -0.51,0.49 v 0 c -0.27,0.01 -0.49,-0.21 -0.49,-0.49 z m 0,-2.65 c 0,-0.27 0.22,-0.49 0.49,-0.49 v 0 c 0.29,0 0.51,0.22 0.51,0.49 v 0 c 0,0.27 -0.22,0.49 -0.51,0.49 v 0 c -0.27,0.01 -0.49,-0.21 -0.49,-0.49 z m 0,-2.65 c 0,-0.27 0.22,-0.49 0.49,-0.49 v 0 c 0.29,0 0.51,0.22 0.51,0.49 v 0 c 0,0.29 -0.22,0.51 -0.51,0.51 v 0 c -0.27,0 -0.49,-0.22 -0.49,-0.51 z m 0,-2.63 c 0,-0.27 0.22,-0.49 0.49,-0.49 v 0 c 0.29,0 0.51,0.22 0.51,0.49 v 0 c 0,0.27 -0.22,0.49 -0.51,0.49 v 0 c -0.27,0 -0.49,-0.22 -0.49,-0.49 z m 0,-2.65 c 0,-0.27 0.22,-0.49 0.49,-0.49 v 0 c 0.29,0 0.51,0.22 0.51,0.49 v 0 c 0,0.27 -0.22,0.49 -0.51,0.49 v 0 c -0.27,0 -0.49,-0.22 -0.49,-0.49 z m 0,-2.65 c 0,-0.27 0.22,-0.49 0.49,-0.49 v 0 c 0.29,0 0.51,0.22 0.51,0.49 v 0 c 0,0.27 -0.22,0.49 -0.51,0.49 v 0 c -0.27,0 -0.49,-0.22 -0.49,-0.49 z m 0,-2.65 c 0,-0.27 0.22,-0.49 0.49,-0.49 v 0 c 0.29,0 0.51,0.22 0.51,0.49 v 0 c 0,0.29 -0.22,0.51 -0.51,0.51 v 0 c -0.27,0 -0.49,-0.22 -0.49,-0.51 z m 0,-2.63 c 0,-0.27 0.22,-0.49 0.49,-0.49 v 0 c 0.29,0 0.51,0.22 0.51,0.49 v 0 c 0,0.27 -0.22,0.49 -0.51,0.49 v 0 c -0.27,0 -0.49,-0.22 -0.49,-0.49 z m 0,-2.65 c 0,-0.27 0.22,-0.49 0.49,-0.49 v 0 c 0.29,0 0.51,0.22 0.51,0.49 v 0 c 0,0.27 -0.22,0.49 -0.51,0.49 v 0 c -0.27,0 -0.49,-0.22 -0.49,-0.49 z m 0,-2.65 c 0,-0.27 0.22,-0.49 0.49,-0.49 v 0 c 0.29,0 0.51,0.22 0.51,0.49 v 0 c 0,0.27 -0.22,0.49 -0.51,0.49 v 0 c -0.27,0 -0.49,-0.22 -0.49,-0.49 z m 0,-2.65 c 0,-0.27 0.22,-0.49 0.49,-0.49 v 0 c 0.29,0 0.51,0.22 0.51,0.49 v 0 c 0,0.29 -0.22,0.51 -0.51,0.51 v 0 c -0.27,-0.01 -0.49,-0.23 -0.49,-0.51 z m 0,-2.64 c 0,-0.27 0.22,-0.51 0.49,-0.51 v 0 c 0.29,0 0.51,0.23 0.51,0.51 v 0 c 0,0.27 -0.22,0.49 -0.51,0.49 v 0 c -0.27,0.01 -0.49,-0.21 -0.49,-0.49 z m 0,-2.65 c 0,-0.27 0.22,-0.49 0.49,-0.49 v 0 c 0.29,0 0.51,0.22 0.51,0.49 v 0 c 0,0.27 -0.22,0.49 -0.51,0.49 v 0 c -0.27,0.01 -0.49,-0.21 -0.49,-0.49 z m 0,-2.65 c 0,-0.27 0.22,-0.49 0.49,-0.49 v 0 c 0.29,0 0.51,0.22 0.51,0.49 v 0 c 0,0.27 -0.22,0.49 -0.51,0.49 v 0 c -0.27,0.01 -0.49,-0.21 -0.49,-0.49 z m 0,-2.64 c 0,-0.27 0.22,-0.49 0.49,-0.49 v 0 c 0.29,0 0.51,0.22 0.51,0.49 v 0 c 0,0.27 -0.22,0.51 -0.51,0.51 v 0 c -0.27,-0.01 -0.49,-0.24 -0.49,-0.51 z m 0,-2.65 c 0,-0.27 0.22,-0.49 0.49,-0.49 v 0 c 0.29,0 0.51,0.22 0.51,0.49 v 0 c 0,0.29 -0.22,0.51 -0.51,0.51 v 0 c -0.27,-0.01 -0.49,-0.23 -0.49,-0.51 z m 0,-2.64 c 0,-0.27 0.22,-0.51 0.49,-0.51 v 0 c 0.29,0 0.51,0.23 0.51,0.51 v 0 c 0,0.27 -0.22,0.49 -0.51,0.49 v 0 c -0.27,0 -0.49,-0.22 -0.49,-0.49 z m 0,-2.65 c 0,-0.27 0.22,-0.49 0.49,-0.49 v 0 c 0.29,0 0.51,0.22 0.51,0.49 v 0 c 0,0.27 -0.22,0.49 -0.51,0.49 v 0 c -0.27,0 -0.49,-0.22 -0.49,-0.49 z m 0,-2.65 c 0,-0.27 0.22,-0.49 0.49,-0.49 v 0 c 0.29,0 0.51,0.22 0.51,0.49 v 0 c 0,0.27 -0.22,0.49 -0.51,0.49 v 0 c -0.27,0.01 -0.49,-0.22 -0.49,-0.49 z m 0,-2.65 c 0,-0.27 0.22,-0.49 0.49,-0.49 v 0 c 0.29,0 0.51,0.22 0.51,0.49 v 0 c 0,0.27 -0.22,0.51 -0.51,0.51 v 0 c -0.27,0 -0.49,-0.23 -0.49,-0.51 z m 0,-2.63 c 0,-0.29 0.22,-0.51 0.49,-0.51 v 0 c 0.29,0 0.51,0.22 0.51,0.51 v 0 c 0,0.27 -0.22,0.49 -0.51,0.49 v 0 c -0.27,0 -0.49,-0.22 -0.49,-0.49 z m 0,-2.65 c 0,-0.27 0.22,-0.51 0.49,-0.51 v 0 c 0.29,0 0.51,0.23 0.51,0.51 v 0 c 0,0.27 -0.22,0.49 -0.51,0.49 v 0 c -0.27,0 -0.49,-0.22 -0.49,-0.49 z m 0,-2.65 c 0,-0.27 0.22,-0.49 0.49,-0.49 v 0 c 0.29,0 0.51,0.22 0.51,0.49 v 0 c 0,0.27 -0.22,0.49 -0.51,0.49 v 0 c -0.27,0 -0.49,-0.22 -0.49,-0.49 z m 0,-2.65 c 0,-0.27 0.22,-0.49 0.49,-0.49 v 0 c 0.29,0 0.51,0.22 0.51,0.49 v 0 c 0,0.27 -0.22,0.49 -0.51,0.49 v 0 c -0.27,0 -0.49,-0.22 -0.49,-0.49 z m 0,-2.65 c 0,-0.27 0.22,-0.49 0.49,-0.49 v 0 c 0.29,0 0.51,0.22 0.51,0.49 v 0 c 0,0.27 -0.22,0.51 -0.51,0.51 v 0 c -0.27,0 -0.49,-0.24 -0.49,-0.51 z m 0,-2.64 c 0,-0.29 0.22,-0.51 0.49,-0.51 v 0 c 0.29,0 0.51,0.22 0.51,0.51 v 0 c 0,0.27 -0.22,0.49 -0.51,0.49 v 0 c -0.27,0.01 -0.49,-0.21 -0.49,-0.49 z m 0,-2.64 c 0,-0.27 0.22,-0.49 0.49,-0.49 v 0 c 0.29,0 0.51,0.22 0.51,0.49 v 0 c 0,0.27 -0.22,0.49 -0.51,0.49 v 0 c -0.27,0 -0.49,-0.22 -0.49,-0.49 z m 0,-2.65 c 0,-0.27 0.22,-0.49 0.49,-0.49 v 0 c 0.29,0 0.51,0.22 0.51,0.49 v 0 c 0,0.27 -0.22,0.49 -0.51,0.49 v 0 c -0.27,0 -0.49,-0.22 -0.49,-0.49 z m 0,-2.65 c 0,-0.27 0.22,-0.49 0.49,-0.49 v 0 c 0.29,0 0.51,0.22 0.51,0.49 v 0 c 0,0.27 -0.22,0.49 -0.51,0.49 v 0 c -0.27,0 -0.49,-0.22 -0.49,-0.49 z m 0,-2.64 c 0,-0.29 0.22,-0.51 0.49,-0.51 v 0 c 0.29,0 0.51,0.22 0.51,0.51 v 0 c 0,0.27 -0.22,0.49 -0.51,0.49 v 0 c -0.27,0.01 -0.49,-0.22 -0.49,-0.49 z m 0,-2.65 c 0,-0.27 0.22,-0.49 0.49,-0.49 v 0 c 0.29,0 0.51,0.22 0.51,0.49 v 0 c 0,0.27 -0.22,0.49 -0.51,0.49 v 0 c -0.27,0.01 -0.49,-0.21 -0.49,-0.49 z m 0,-2.65 c 0,-0.27 0.22,-0.49 0.49,-0.49 v 0 c 0.29,0 0.51,0.22 0.51,0.49 v 0 c 0,0.27 -0.22,0.49 -0.51,0.49 v 0 c -0.27,0.01 -0.49,-0.21 -0.49,-0.49 z m 0,-2.65 c 0,-0.27 0.22,-0.49 0.49,-0.49 v 0 c 0.29,0 0.51,0.22 0.51,0.49 v 0 c 0,0.27 -0.22,0.49 -0.51,0.49 v 0 c -0.27,0.01 -0.49,-0.21 -0.49,-0.49 z"
   id="path74"
   style="stroke-width:2.024" />
			</g>
			<g
   id="g80"
   style="stroke-width:2.024">
				<path
   class="st6"
   d="m 804.16,547.8 c 0,-0.27 0.22,-0.49 0.49,-0.49 v 0 c 0.29,0 0.51,0.22 0.51,0.49 v 0 c 0,0.29 -0.22,0.51 -0.51,0.51 v 0 c -0.27,0 -0.49,-0.22 -0.49,-0.51 z m 0,-2.63 c 0,-0.29 0.22,-0.51 0.49,-0.51 v 0 c 0.29,0 0.51,0.22 0.51,0.51 v 0 c 0,0.27 -0.22,0.49 -0.51,0.49 v 0 c -0.27,0 -0.49,-0.22 -0.49,-0.49 z m 0,-2.65 c 0,-0.27 0.22,-0.49 0.49,-0.49 v 0 c 0.29,0 0.51,0.22 0.51,0.49 v 0 c 0,0.27 -0.22,0.49 -0.51,0.49 v 0 c -0.27,0 -0.49,-0.22 -0.49,-0.49 z m 0,-2.65 c 0,-0.27 0.22,-0.49 0.49,-0.49 v 0 c 0.29,0 0.51,0.22 0.51,0.49 v 0 c 0,0.27 -0.22,0.49 -0.51,0.49 v 0 c -0.27,0 -0.49,-0.22 -0.49,-0.49 z m 0,-2.65 c 0,-0.27 0.22,-0.49 0.49,-0.49 v 0 c 0.29,0 0.51,0.22 0.51,0.49 v 0 c 0,0.27 -0.22,0.49 -0.51,0.49 v 0 c -0.27,0 -0.49,-0.22 -0.49,-0.49 z m 0,-2.64 c 0,-0.29 0.22,-0.51 0.49,-0.51 v 0 c 0.29,0 0.51,0.22 0.51,0.51 v 0 c 0,0.27 -0.22,0.49 -0.51,0.49 v 0 c -0.27,0.01 -0.49,-0.21 -0.49,-0.49 z m 0,-2.64 c 0,-0.29 0.22,-0.51 0.49,-0.51 v 0 c 0.29,0 0.51,0.22 0.51,0.51 v 0 c 0,0.27 -0.22,0.49 -0.51,0.49 v 0 c -0.27,0 -0.49,-0.22 -0.49,-0.49 z m 0,-2.65 c 0,-0.27 0.22,-0.49 0.49,-0.49 v 0 c 0.29,0 0.51,0.22 0.51,0.49 v 0 c 0,0.27 -0.22,0.49 -0.51,0.49 v 0 c -0.27,0 -0.49,-0.22 -0.49,-0.49 z m 0,-2.65 c 0,-0.27 0.22,-0.49 0.49,-0.49 v 0 c 0.29,0 0.51,0.22 0.51,0.49 v 0 c 0,0.27 -0.22,0.49 -0.51,0.49 v 0 c -0.27,0 -0.49,-0.22 -0.49,-0.49 z m 0,-2.64 c 0,-0.29 0.22,-0.51 0.49,-0.51 v 0 c 0.29,0 0.51,0.22 0.51,0.51 v 0 c 0,0.26 -0.22,0.49 -0.51,0.49 v 0 c -0.27,0 -0.49,-0.23 -0.49,-0.49 z m 0,-2.65 c 0,-0.29 0.22,-0.49 0.49,-0.49 v 0 c 0.29,0 0.51,0.21 0.51,0.49 v 0 c 0,0.27 -0.22,0.49 -0.51,0.49 v 0 c -0.27,0 -0.49,-0.22 -0.49,-0.49 z m 0,-2.65 c 0,-0.27 0.22,-0.49 0.49,-0.49 v 0 c 0.29,0 0.51,0.22 0.51,0.49 v 0 c 0,0.27 -0.22,0.49 -0.51,0.49 v 0 c -0.27,0.01 -0.49,-0.21 -0.49,-0.49 z m 0,-2.65 c 0,-0.27 0.22,-0.49 0.49,-0.49 v 0 c 0.29,0 0.51,0.22 0.51,0.49 v 0 c 0,0.27 -0.22,0.49 -0.51,0.49 v 0 c -0.27,0.01 -0.49,-0.21 -0.49,-0.49 z"
   id="path78"
   style="stroke-width:2.024" />
			</g>
			<g
   id="g84"
   style="stroke-width:2.024">
				<path
   class="st6"
   d="m 862.16,547.39 c 0,-0.27 0.22,-0.49 0.49,-0.49 v 0 c 0.27,0 0.49,0.22 0.49,0.49 v 0 c 0,0.27 -0.22,0.49 -0.49,0.49 v 0 c -0.27,0 -0.49,-0.22 -0.49,-0.49 z m 0,-2.65 c 0,-0.27 0.22,-0.49 0.49,-0.49 v 0 c 0.27,0 0.49,0.22 0.49,0.49 v 0 c 0,0.27 -0.22,0.49 -0.49,0.49 v 0 c -0.27,0 -0.49,-0.22 -0.49,-0.49 z m 0,-2.65 c 0,-0.27 0.22,-0.49 0.49,-0.49 v 0 c 0.27,0 0.49,0.22 0.49,0.49 v 0 c 0,0.27 -0.22,0.49 -0.49,0.49 v 0 c -0.27,0 -0.49,-0.22 -0.49,-0.49 z m 0,-2.65 c 0,-0.27 0.22,-0.49 0.49,-0.49 v 0 c 0.27,0 0.49,0.22 0.49,0.49 v 0 c 0,0.29 -0.22,0.51 -0.49,0.51 v 0 c -0.27,0 -0.49,-0.22 -0.49,-0.51 z m 0,-2.64 c 0,-0.29 0.22,-0.51 0.49,-0.51 v 0 c 0.27,0 0.49,0.22 0.49,0.51 v 0 c 0,0.27 -0.22,0.49 -0.49,0.49 v 0 c -0.27,0.01 -0.49,-0.21 -0.49,-0.49 z m 0,-2.64 c 0,-0.27 0.22,-0.51 0.49,-0.51 v 0 c 0.27,0 0.49,0.23 0.49,0.51 v 0 c 0,0.27 -0.22,0.49 -0.49,0.49 v 0 c -0.27,0 -0.49,-0.22 -0.49,-0.49 z m 0,-2.65 c 0,-0.27 0.22,-0.49 0.49,-0.49 v 0 c 0.27,0 0.49,0.22 0.49,0.49 v 0 c 0,0.27 -0.22,0.49 -0.49,0.49 v 0 c -0.27,0 -0.49,-0.22 -0.49,-0.49 z m 0,-2.65 c 0,-0.27 0.22,-0.49 0.49,-0.49 v 0 c 0.27,0 0.49,0.22 0.49,0.49 v 0 c 0,0.27 -0.22,0.51 -0.49,0.51 v 0 c -0.27,-0.01 -0.49,-0.24 -0.49,-0.51 z m 0,-2.64 c 0,-0.29 0.22,-0.51 0.49,-0.51 v 0 c 0.27,0 0.49,0.22 0.49,0.51 v 0 c 0,0.27 -0.22,0.49 -0.49,0.49 v 0 c -0.27,0 -0.49,-0.22 -0.49,-0.49 z m 0,-2.65 c 0,-0.27 0.22,-0.49 0.49,-0.49 v 0 c 0.27,0 0.49,0.22 0.49,0.49 v 0 c 0,0.27 -0.22,0.49 -0.49,0.49 v 0 c -0.27,0.01 -0.49,-0.22 -0.49,-0.49 z m 0,-2.65 c 0,-0.27 0.22,-0.49 0.49,-0.49 v 0 c 0.27,0 0.49,0.22 0.49,0.49 v 0 c 0,0.27 -0.22,0.49 -0.49,0.49 v 0 c -0.27,0.01 -0.49,-0.21 -0.49,-0.49 z m 0,-2.65 c 0,-0.27 0.22,-0.49 0.49,-0.49 v 0 c 0.27,0 0.49,0.22 0.49,0.49 v 0 c 0,0.27 -0.22,0.49 -0.49,0.49 v 0 c -0.27,0.01 -0.49,-0.21 -0.49,-0.49 z m 0,-2.65 c 0,-0.27 0.22,-0.49 0.49,-0.49 v 0 c 0.27,0 0.49,0.22 0.49,0.49 v 0 c 0,0.27 -0.22,0.51 -0.49,0.51 v 0 c -0.27,0 -0.49,-0.23 -0.49,-0.51 z m 0,-2.63 c 0,-0.27 0.22,-0.49 0.49,-0.49 v 0 c 0.27,0 0.49,0.22 0.49,0.49 v 0 c 0,0.27 -0.22,0.49 -0.49,0.49 v 0 c -0.27,0 -0.49,-0.22 -0.49,-0.49 z m 0,-2.65 c 0,-0.27 0.22,-0.49 0.49,-0.49 v 0 c 0.27,0 0.49,0.22 0.49,0.49 v 0 c 0,0.27 -0.22,0.49 -0.49,0.49 v 0 c -0.27,0 -0.49,-0.22 -0.49,-0.49 z m 0,-2.65 c 0,-0.27 0.22,-0.49 0.49,-0.49 v 0 c 0.27,0 0.49,0.22 0.49,0.49 v 0 c 0,0.27 -0.22,0.49 -0.49,0.49 v 0 c -0.27,0 -0.49,-0.22 -0.49,-0.49 z m 0,-2.65 c 0,-0.27 0.22,-0.49 0.49,-0.49 v 0 c 0.27,0 0.49,0.22 0.49,0.49 v 0 c 0,0.29 -0.22,0.51 -0.49,0.51 v 0 c -0.27,0 -0.49,-0.22 -0.49,-0.51 z m 0,-2.63 c 0,-0.27 0.22,-0.51 0.49,-0.51 v 0 c 0.27,0 0.49,0.23 0.49,0.51 v 0 c 0,0.27 -0.22,0.49 -0.49,0.49 v 0 c -0.27,0 -0.49,-0.22 -0.49,-0.49 z m 0,-2.65 c 0,-0.27 0.22,-0.49 0.49,-0.49 v 0 c 0.27,0 0.49,0.22 0.49,0.49 v 0 c 0,0.27 -0.22,0.49 -0.49,0.49 v 0 c -0.27,0 -0.49,-0.22 -0.49,-0.49 z m 0,-2.65 c 0,-0.27 0.22,-0.49 0.49,-0.49 v 0 c 0.27,0 0.49,0.22 0.49,0.49 v 0 c 0,0.27 -0.22,0.49 -0.49,0.49 v 0 c -0.27,0 -0.49,-0.22 -0.49,-0.49 z m 0,-2.65 c 0,-0.27 0.22,-0.49 0.49,-0.49 v 0 c 0.27,0 0.49,0.22 0.49,0.49 v 0 c 0,0.27 -0.22,0.51 -0.49,0.51 v 0 c -0.27,0 -0.49,-0.24 -0.49,-0.51 z m 0,-2.65 c 0,-0.27 0.22,-0.49 0.49,-0.49 v 0 c 0.27,0 0.49,0.22 0.49,0.49 v 0 c 0,0.29 -0.22,0.51 -0.49,0.51 v 0 c -0.27,0 -0.49,-0.22 -0.49,-0.51 z m 0,-2.64 c 0,-0.27 0.22,-0.51 0.49,-0.51 v 0 c 0.27,0 0.49,0.23 0.49,0.51 v 0 c 0,0.27 -0.22,0.49 -0.49,0.49 v 0 c -0.27,0.01 -0.49,-0.21 -0.49,-0.49 z m 0,-2.65 c 0,-0.27 0.22,-0.49 0.49,-0.49 v 0 c 0.27,0 0.49,0.22 0.49,0.49 v 0 c 0,0.27 -0.22,0.49 -0.49,0.49 v 0 c -0.27,0.01 -0.49,-0.21 -0.49,-0.49 z m 0,-2.64 c 0,-0.27 0.22,-0.49 0.49,-0.49 v 0 c 0.27,0 0.49,0.22 0.49,0.49 v 0 c 0,0.27 -0.22,0.49 -0.49,0.49 v 0 c -0.27,0 -0.49,-0.22 -0.49,-0.49 z m 0,-2.65 c 0,-0.27 0.22,-0.49 0.49,-0.49 v 0 c 0.27,0 0.49,0.22 0.49,0.49 v 0 c 0,0.27 -0.22,0.51 -0.49,0.51 v 0 c -0.27,-0.01 -0.49,-0.24 -0.49,-0.51 z m 0,-2.64 c 0,-0.27 0.22,-0.51 0.49,-0.51 v 0 c 0.27,0 0.49,0.23 0.49,0.51 v 0 c 0,0.27 -0.22,0.49 -0.49,0.49 v 0 c -0.27,0 -0.49,-0.22 -0.49,-0.49 z m 0,-2.65 c 0,-0.27 0.22,-0.49 0.49,-0.49 v 0 c 0.27,0 0.49,0.22 0.49,0.49 v 0 c 0,0.27 -0.22,0.49 -0.49,0.49 v 0 c -0.27,0.01 -0.49,-0.22 -0.49,-0.49 z m 0,-2.65 c 0,-0.27 0.22,-0.49 0.49,-0.49 v 0 c 0.27,0 0.49,0.22 0.49,0.49 v 0 c 0,0.27 -0.22,0.49 -0.49,0.49 v 0 c -0.27,0.01 -0.49,-0.21 -0.49,-0.49 z m 0,-2.65 c 0,-0.27 0.22,-0.49 0.49,-0.49 v 0 c 0.27,0 0.49,0.22 0.49,0.49 v 0 c 0,0.27 -0.22,0.49 -0.49,0.49 v 0 c -0.27,0.01 -0.49,-0.21 -0.49,-0.49 z m 0,-2.63 c 0,-0.29 0.22,-0.51 0.49,-0.51 v 0 c 0.27,0 0.49,0.22 0.49,0.51 v 0 c 0,0.27 -0.22,0.49 -0.49,0.49 v 0 c -0.27,0 -0.49,-0.22 -0.49,-0.49 z m 0,-2.65 c 0,-0.27 0.22,-0.51 0.49,-0.51 v 0 c 0.27,0 0.49,0.23 0.49,0.51 v 0 c 0,0.27 -0.22,0.49 -0.49,0.49 v 0 c -0.27,0 -0.49,-0.22 -0.49,-0.49 z m 0,-2.65 c 0,-0.27 0.22,-0.49 0.49,-0.49 v 0 c 0.27,0 0.49,0.22 0.49,0.49 v 0 c 0,0.27 -0.22,0.49 -0.49,0.49 v 0 c -0.27,0 -0.49,-0.22 -0.49,-0.49 z m 0,-2.65 c 0,-0.27 0.22,-0.49 0.49,-0.49 v 0 c 0.27,0 0.49,0.22 0.49,0.49 v 0 c 0,0.27 -0.22,0.49 -0.49,0.49 v 0 c -0.27,0 -0.49,-0.22 -0.49,-0.49 z m 0,-2.65 c 0,-0.27 0.22,-0.49 0.49,-0.49 v 0 c 0.27,0 0.49,0.22 0.49,0.49 v 0 c 0,0.27 -0.22,0.51 -0.49,0.51 v 0 c -0.27,0 -0.49,-0.24 -0.49,-0.51 z m 0,-2.63 c 0,-0.29 0.22,-0.51 0.49,-0.51 v 0 c 0.27,0 0.49,0.22 0.49,0.51 v 0 c 0,0.27 -0.22,0.49 -0.49,0.49 v 0 c -0.27,0 -0.49,-0.22 -0.49,-0.49 z m 0,-2.65 c 0,-0.27 0.22,-0.49 0.49,-0.49 v 0 c 0.27,0 0.49,0.22 0.49,0.49 v 0 c 0,0.27 -0.22,0.49 -0.49,0.49 v 0 c -0.27,0 -0.49,-0.22 -0.49,-0.49 z m 0,-2.65 c 0,-0.27 0.22,-0.49 0.49,-0.49 v 0 c 0.27,0 0.49,0.22 0.49,0.49 v 0 c 0,0.27 -0.22,0.49 -0.49,0.49 v 0 c -0.27,0 -0.49,-0.22 -0.49,-0.49 z m 0,-2.65 c 0,-0.27 0.22,-0.49 0.49,-0.49 v 0 c 0.27,0 0.49,0.22 0.49,0.49 v 0 c 0,0.27 -0.22,0.49 -0.49,0.49 v 0 c -0.27,0 -0.49,-0.22 -0.49,-0.49 z m 0,-2.64 c 0,-0.29 0.22,-0.51 0.49,-0.51 v 0 c 0.27,0 0.49,0.22 0.49,0.51 v 0 c 0,0.27 -0.22,0.49 -0.49,0.49 v 0 c -0.27,0.01 -0.49,-0.22 -0.49,-0.49 z m 0,-2.65 c 0,-0.27 0.22,-0.49 0.49,-0.49 v 0 c 0.27,0 0.49,0.22 0.49,0.49 v 0 c 0,0.27 -0.22,0.49 -0.49,0.49 v 0 c -0.27,0.01 -0.49,-0.21 -0.49,-0.49 z"
   id="path82"
   style="stroke-width:2.024" />
			</g>
			<g
   id="g88"
   style="stroke-width:2.024">
				<path
   class="st6"
   d="m 920.15,546.61 c 0,-0.27 0.22,-0.49 0.49,-0.49 v 0 c 0.27,0 0.49,0.22 0.49,0.49 v 0 c 0,0.27 -0.22,0.49 -0.49,0.49 v 0 c -0.27,0 -0.49,-0.22 -0.49,-0.49 z m 0,-2.65 c 0,-0.27 0.22,-0.49 0.49,-0.49 v 0 c 0.27,0 0.49,0.22 0.49,0.49 v 0 c 0,0.29 -0.22,0.51 -0.49,0.51 v 0 c -0.27,0 -0.49,-0.23 -0.49,-0.51 z m 0,-2.64 c 0,-0.29 0.22,-0.51 0.49,-0.51 v 0 c 0.27,0 0.49,0.22 0.49,0.51 v 0 c 0,0.27 -0.22,0.49 -0.49,0.49 v 0 c -0.27,0.01 -0.49,-0.21 -0.49,-0.49 z m 0,-2.65 c 0,-0.27 0.22,-0.49 0.49,-0.49 v 0 c 0.27,0 0.49,0.22 0.49,0.49 v 0 c 0,0.27 -0.22,0.49 -0.49,0.49 v 0 c -0.27,0.01 -0.49,-0.21 -0.49,-0.49 z m 0,-2.65 c 0,-0.27 0.22,-0.49 0.49,-0.49 v 0 c 0.27,0 0.49,0.22 0.49,0.49 v 0 c 0,0.27 -0.22,0.49 -0.49,0.49 v 0 c -0.27,0.01 -0.49,-0.21 -0.49,-0.49 z m 0,-2.64 c 0,-0.27 0.22,-0.49 0.49,-0.49 v 0 c 0.27,0 0.49,0.22 0.49,0.49 v 0 c 0,0.27 -0.22,0.51 -0.49,0.51 v 0 c -0.27,-0.01 -0.49,-0.24 -0.49,-0.51 z m 0,-2.65 c 0,-0.27 0.22,-0.49 0.49,-0.49 v 0 c 0.27,0 0.49,0.22 0.49,0.49 v 0 c 0,0.29 -0.22,0.51 -0.49,0.51 v 0 c -0.27,-0.01 -0.49,-0.23 -0.49,-0.51 z m 0,-2.64 c 0,-0.27 0.22,-0.49 0.49,-0.49 v 0 c 0.27,0 0.49,0.22 0.49,0.49 v 0 c 0,0.27 -0.22,0.49 -0.49,0.49 v 0 c -0.27,0 -0.49,-0.22 -0.49,-0.49 z m 0,-2.65 c 0,-0.27 0.22,-0.49 0.49,-0.49 v 0 c 0.27,0 0.49,0.22 0.49,0.49 v 0 c 0,0.27 -0.22,0.49 -0.49,0.49 v 0 c -0.27,0.01 -0.49,-0.22 -0.49,-0.49 z m 0,-2.65 c 0,-0.27 0.22,-0.49 0.49,-0.49 v 0 c 0.27,0 0.49,0.22 0.49,0.49 v 0 c 0,0.27 -0.22,0.49 -0.49,0.49 v 0 c -0.27,0.01 -0.49,-0.21 -0.49,-0.49 z m 0,-2.65 c 0,-0.27 0.22,-0.49 0.49,-0.49 v 0 c 0.27,0 0.49,0.22 0.49,0.49 v 0 c 0,0.29 -0.22,0.51 -0.49,0.51 v 0 c -0.27,0 -0.49,-0.22 -0.49,-0.51 z m 0,-2.63 c 0,-0.27 0.22,-0.49 0.49,-0.49 v 0 c 0.27,0 0.49,0.22 0.49,0.49 v 0 c 0,0.27 -0.22,0.49 -0.49,0.49 v 0 c -0.27,0 -0.49,-0.22 -0.49,-0.49 z m 0,-2.65 c 0,-0.27 0.22,-0.49 0.49,-0.49 v 0 c 0.27,0 0.49,0.22 0.49,0.49 v 0 c 0,0.27 -0.22,0.49 -0.49,0.49 v 0 c -0.27,0 -0.49,-0.22 -0.49,-0.49 z m 0,-2.65 c 0,-0.27 0.22,-0.49 0.49,-0.49 v 0 c 0.27,0 0.49,0.22 0.49,0.49 v 0 c 0,0.27 -0.22,0.49 -0.49,0.49 v 0 c -0.27,0 -0.49,-0.22 -0.49,-0.49 z m 0,-2.64 c 0,-0.29 0.22,-0.51 0.49,-0.51 v 0 c 0.27,0 0.49,0.22 0.49,0.51 v 0 c 0,0.27 -0.22,0.49 -0.49,0.49 v 0 c -0.27,0.01 -0.49,-0.21 -0.49,-0.49 z m 0,-2.65 c 0,-0.27 0.22,-0.49 0.49,-0.49 v 0 c 0.27,0 0.49,0.22 0.49,0.49 v 0 c 0,0.27 -0.22,0.49 -0.49,0.49 v 0 c -0.27,0.01 -0.49,-0.21 -0.49,-0.49 z m 0,-2.64 c 0,-0.27 0.22,-0.49 0.49,-0.49 v 0 c 0.27,0 0.49,0.22 0.49,0.49 v 0 c 0,0.27 -0.22,0.49 -0.49,0.49 v 0 c -0.27,0 -0.49,-0.22 -0.49,-0.49 z m 0,-2.65 c 0,-0.27 0.22,-0.49 0.49,-0.49 v 0 c 0.27,0 0.49,0.22 0.49,0.49 v 0 c 0,0.27 -0.22,0.49 -0.49,0.49 v 0 c -0.27,0 -0.49,-0.22 -0.49,-0.49 z m 0,-2.65 c 0,-0.27 0.22,-0.49 0.49,-0.49 v 0 c 0.27,0 0.49,0.22 0.49,0.49 v 0 c 0,0.27 -0.22,0.51 -0.49,0.51 v 0 c -0.27,-0.01 -0.49,-0.24 -0.49,-0.51 z"
   id="path86"
   style="stroke-width:2.024" />
			</g>
			<g
   id="g92"
   style="stroke-width:2.024">
				<path
   class="st6"
   d="m 978.57,547.28 c 0,-0.27 0.21,-0.51 0.49,-0.51 v 0 c 0.27,0 0.49,0.23 0.49,0.51 v 0 c 0,0.27 -0.22,0.49 -0.49,0.49 v 0 c -0.28,0.01 -0.49,-0.21 -0.49,-0.49 z m 0,-2.65 c 0,-0.27 0.21,-0.49 0.49,-0.49 v 0 c 0.27,0 0.49,0.22 0.49,0.49 v 0 c 0,0.27 -0.22,0.49 -0.49,0.49 v 0 c -0.28,0.01 -0.49,-0.21 -0.49,-0.49 z m 0,-2.65 c 0,-0.27 0.21,-0.49 0.49,-0.49 v 0 c 0.27,0 0.49,0.22 0.49,0.49 v 0 c 0,0.27 -0.22,0.49 -0.49,0.49 v 0 c -0.28,0.01 -0.49,-0.21 -0.49,-0.49 z m 0,-2.64 c 0,-0.27 0.21,-0.49 0.49,-0.49 v 0 c 0.27,0 0.49,0.22 0.49,0.49 v 0 c 0,0.27 -0.22,0.49 -0.49,0.49 v 0 c -0.28,0 -0.49,-0.22 -0.49,-0.49 z m 0,-2.65 c 0,-0.27 0.21,-0.49 0.49,-0.49 v 0 c 0.27,0 0.49,0.22 0.49,0.49 v 0 c 0,0.29 -0.22,0.51 -0.49,0.51 v 0 c -0.28,-0.01 -0.49,-0.23 -0.49,-0.51 z m 0,-2.64 c 0,-0.29 0.21,-0.51 0.49,-0.51 v 0 c 0.27,0 0.49,0.22 0.49,0.51 v 0 c 0,0.27 -0.22,0.49 -0.49,0.49 v 0 c -0.28,0 -0.49,-0.22 -0.49,-0.49 z m 0,-2.65 c 0,-0.27 0.21,-0.49 0.49,-0.49 v 0 c 0.27,0 0.49,0.22 0.49,0.49 v 0 c 0,0.27 -0.22,0.49 -0.49,0.49 v 0 c -0.28,0.01 -0.49,-0.21 -0.49,-0.49 z m 0,-2.65 c 0,-0.27 0.21,-0.49 0.49,-0.49 v 0 c 0.27,0 0.49,0.22 0.49,0.49 v 0 c 0,0.27 -0.22,0.49 -0.49,0.49 v 0 c -0.28,0.01 -0.49,-0.21 -0.49,-0.49 z m 0,-2.65 c 0,-0.27 0.21,-0.49 0.49,-0.49 v 0 c 0.27,0 0.49,0.22 0.49,0.49 v 0 c 0,0.27 -0.22,0.51 -0.49,0.51 v 0 c -0.28,0 -0.49,-0.23 -0.49,-0.51 z m 0,-2.63 c 0,-0.27 0.21,-0.49 0.49,-0.49 v 0 c 0.27,0 0.49,0.22 0.49,0.49 v 0 c 0,0.27 -0.22,0.49 -0.49,0.49 v 0 c -0.28,0 -0.49,-0.22 -0.49,-0.49 z m 0,-2.65 c 0,-0.27 0.21,-0.49 0.49,-0.49 v 0 c 0.27,0 0.49,0.22 0.49,0.49 v 0 c 0,0.27 -0.22,0.49 -0.49,0.49 v 0 c -0.28,0 -0.49,-0.22 -0.49,-0.49 z m 0,-2.65 c 0,-0.27 0.21,-0.49 0.49,-0.49 v 0 c 0.27,0 0.49,0.22 0.49,0.49 v 0 c 0,0.27 -0.22,0.49 -0.49,0.49 v 0 c -0.28,0 -0.49,-0.22 -0.49,-0.49 z m 0,-2.65 c 0,-0.27 0.21,-0.49 0.49,-0.49 v 0 c 0.27,0 0.49,0.22 0.49,0.49 v 0 c 0,0.29 -0.22,0.51 -0.49,0.51 v 0 c -0.28,0 -0.49,-0.22 -0.49,-0.51 z m 0,-2.64 c 0,-0.29 0.21,-0.51 0.49,-0.51 v 0 c 0.27,0 0.49,0.22 0.49,0.51 v 0 c 0,0.27 -0.22,0.49 -0.49,0.49 v 0 c -0.28,0.01 -0.49,-0.21 -0.49,-0.49 z m 0,-2.64 c 0,-0.27 0.21,-0.51 0.49,-0.51 v 0 c 0.27,0 0.49,0.23 0.49,0.51 v 0 c 0,0.27 -0.22,0.49 -0.49,0.49 v 0 c -0.28,0 -0.49,-0.22 -0.49,-0.49 z m 0,-2.65 c 0,-0.27 0.21,-0.49 0.49,-0.49 v 0 c 0.27,0 0.49,0.22 0.49,0.49 v 0 c 0,0.27 -0.22,0.49 -0.49,0.49 v 0 c -0.28,0 -0.49,-0.22 -0.49,-0.49 z m 0,-2.65 c 0,-0.27 0.21,-0.49 0.49,-0.49 v 0 c 0.27,0 0.49,0.22 0.49,0.49 v 0 c 0,0.27 -0.22,0.49 -0.49,0.49 v 0 c -0.28,0 -0.49,-0.22 -0.49,-0.49 z m 0,-2.65 c 0,-0.27 0.21,-0.49 0.49,-0.49 v 0 c 0.27,0 0.49,0.22 0.49,0.49 v 0 c 0,0.27 -0.22,0.51 -0.49,0.51 v 0 c -0.28,0 -0.49,-0.24 -0.49,-0.51 z m 0,-2.64 c 0,-0.27 0.21,-0.51 0.49,-0.51 v 0 c 0.27,0 0.49,0.23 0.49,0.51 v 0 c 0,0.27 -0.22,0.49 -0.49,0.49 v 0 c -0.28,0.01 -0.49,-0.21 -0.49,-0.49 z m 0,-2.65 c 0,-0.27 0.21,-0.49 0.49,-0.49 v 0 c 0.27,0 0.49,0.22 0.49,0.49 v 0 c 0,0.27 -0.22,0.49 -0.49,0.49 v 0 c -0.28,0.01 -0.49,-0.21 -0.49,-0.49 z m 0,-2.65 c 0,-0.27 0.21,-0.49 0.49,-0.49 v 0 c 0.27,0 0.49,0.22 0.49,0.49 v 0 c 0,0.27 -0.22,0.49 -0.49,0.49 v 0 c -0.28,0.01 -0.49,-0.21 -0.49,-0.49 z m 0,-2.64 c 0,-0.27 0.21,-0.49 0.49,-0.49 v 0 c 0.27,0 0.49,0.22 0.49,0.49 v 0 c 0,0.27 -0.22,0.51 -0.49,0.51 v 0 c -0.28,-0.01 -0.49,-0.24 -0.49,-0.51 z m 0,-2.64 c 0,-0.27 0.21,-0.51 0.49,-0.51 v 0 c 0.27,0 0.49,0.23 0.49,0.51 v 0 c 0,0.27 -0.22,0.49 -0.49,0.49 v 0 c -0.28,0 -0.49,-0.22 -0.49,-0.49 z m 0,-2.65 c 0,-0.27 0.21,-0.49 0.49,-0.49 v 0 c 0.27,0 0.49,0.22 0.49,0.49 v 0 c 0,0.27 -0.22,0.49 -0.49,0.49 v 0 c -0.28,0 -0.49,-0.22 -0.49,-0.49 z m 0,-2.65 c 0,-0.27 0.21,-0.49 0.49,-0.49 v 0 c 0.27,0 0.49,0.22 0.49,0.49 v 0 c 0,0.27 -0.22,0.49 -0.49,0.49 v 0 c -0.28,0.01 -0.49,-0.22 -0.49,-0.49 z m 0,-2.65 c 0,-0.27 0.21,-0.49 0.49,-0.49 v 0 c 0.27,0 0.49,0.22 0.49,0.49 v 0 c 0,0.27 -0.22,0.49 -0.49,0.49 v 0 c -0.28,0.01 -0.49,-0.21 -0.49,-0.49 z m 0,-2.65 c 0,-0.27 0.21,-0.49 0.49,-0.49 v 0 c 0.27,0 0.49,0.22 0.49,0.49 v 0 c 0,0.29 -0.22,0.51 -0.49,0.51 v 0 c -0.28,0 -0.49,-0.22 -0.49,-0.51 z m 0,-2.63 c 0,-0.27 0.21,-0.51 0.49,-0.51 v 0 c 0.27,0 0.49,0.23 0.49,0.51 v 0 c 0,0.27 -0.22,0.49 -0.49,0.49 v 0 c -0.28,0 -0.49,-0.22 -0.49,-0.49 z m 0,-2.65 c 0,-0.27 0.21,-0.49 0.49,-0.49 v 0 c 0.27,0 0.49,0.22 0.49,0.49 v 0 c 0,0.27 -0.22,0.49 -0.49,0.49 v 0 c -0.28,0 -0.49,-0.22 -0.49,-0.49 z m 0,-2.65 c 0,-0.27 0.21,-0.49 0.49,-0.49 v 0 c 0.27,0 0.49,0.22 0.49,0.49 v 0 c 0,0.27 -0.22,0.49 -0.49,0.49 v 0 c -0.28,0 -0.49,-0.22 -0.49,-0.49 z m 0,-2.65 c 0,-0.27 0.21,-0.49 0.49,-0.49 v 0 c 0.27,0 0.49,0.22 0.49,0.49 v 0 c 0,0.27 -0.22,0.51 -0.49,0.51 v 0 c -0.28,0 -0.49,-0.24 -0.49,-0.51 z m 0,-2.64 c 0,-0.27 0.21,-0.51 0.49,-0.51 v 0 c 0.27,0 0.49,0.23 0.49,0.51 v 0 c 0,0.27 -0.22,0.49 -0.49,0.49 v 0 c -0.28,0.01 -0.49,-0.21 -0.49,-0.49 z m 0,-2.64 c 0,-0.27 0.21,-0.49 0.49,-0.49 v 0 c 0.27,0 0.49,0.22 0.49,0.49 v 0 c 0,0.27 -0.22,0.49 -0.49,0.49 v 0 c -0.28,0 -0.49,-0.22 -0.49,-0.49 z m 0,-2.65 c 0,-0.27 0.21,-0.49 0.49,-0.49 v 0 c 0.27,0 0.49,0.22 0.49,0.49 v 0 c 0,0.27 -0.22,0.49 -0.49,0.49 v 0 c -0.28,0 -0.49,-0.22 -0.49,-0.49 z m 0,-2.65 c 0,-0.27 0.21,-0.49 0.49,-0.49 v 0 c 0.27,0 0.49,0.22 0.49,0.49 v 0 c 0,0.27 -0.22,0.51 -0.49,0.51 v 0 c -0.28,-0.01 -0.49,-0.24 -0.49,-0.51 z m 0,-2.64 c 0,-0.29 0.21,-0.51 0.49,-0.51 v 0 c 0.27,0 0.49,0.22 0.49,0.51 v 0 c 0,0.27 -0.22,0.49 -0.49,0.49 v 0 c -0.28,0 -0.49,-0.22 -0.49,-0.49 z m 0,-2.65 c 0,-0.29 0.21,-0.51 0.49,-0.51 v 0 c 0.27,0 0.49,0.22 0.49,0.51 v 0 c 0,0.27 -0.22,0.49 -0.49,0.49 v 0 c -0.28,0.01 -0.49,-0.22 -0.49,-0.49 z m 0,-2.65 c 0,-0.27 0.21,-0.49 0.49,-0.49 v 0 c 0.27,0 0.49,0.22 0.49,0.49 v 0 c 0,0.27 -0.22,0.49 -0.49,0.49 v 0 c -0.28,0.01 -0.49,-0.21 -0.49,-0.49 z m 0,-2.65 c 0,-0.27 0.21,-0.49 0.49,-0.49 v 0 c 0.27,0 0.49,0.22 0.49,0.49 v 0 c 0,0.27 -0.22,0.49 -0.49,0.49 v 0 c -0.28,0.01 -0.49,-0.21 -0.49,-0.49 z m 0,-2.64 c 0,-0.27 0.21,-0.49 0.49,-0.49 v 0 c 0.27,0 0.49,0.22 0.49,0.49 v 0 c 0,0.27 -0.22,0.49 -0.49,0.49 v 0 c -0.28,0 -0.49,-0.22 -0.49,-0.49 z m 0,-2.64 c 0,-0.29 0.21,-0.51 0.49,-0.51 v 0 c 0.27,0 0.49,0.22 0.49,0.51 v 0 c 0,0.27 -0.22,0.49 -0.49,0.49 v 0 c -0.28,0 -0.49,-0.22 -0.49,-0.49 z m 0,-2.65 c 0,-0.27 0.21,-0.49 0.49,-0.49 v 0 c 0.27,0 0.49,0.22 0.49,0.49 v 0 c 0,0.27 -0.22,0.49 -0.49,0.49 v 0 c -0.28,0 -0.49,-0.22 -0.49,-0.49 z m 0,-2.65 c 0,-0.27 0.21,-0.49 0.49,-0.49 v 0 c 0.27,0 0.49,0.22 0.49,0.49 v 0 c 0,0.27 -0.22,0.49 -0.49,0.49 v 0 c -0.28,0.01 -0.49,-0.22 -0.49,-0.49 z m 0,-2.65 c 0,-0.27 0.21,-0.49 0.49,-0.49 v 0 c 0.27,0 0.49,0.22 0.49,0.49 v 0 c 0,0.27 -0.22,0.51 -0.49,0.51 v 0 c -0.28,0 -0.49,-0.24 -0.49,-0.51 z m 0,-2.63 c 0,-0.29 0.21,-0.51 0.49,-0.51 v 0 c 0.27,0 0.49,0.22 0.49,0.51 v 0 c 0,0.27 -0.22,0.49 -0.49,0.49 v 0 c -0.28,0 -0.49,-0.22 -0.49,-0.49 z m 0,-2.65 c 0,-0.27 0.21,-0.49 0.49,-0.49 v 0 c 0.27,0 0.49,0.22 0.49,0.49 v 0 c 0,0.27 -0.22,0.49 -0.49,0.49 v 0 c -0.28,0 -0.49,-0.22 -0.49,-0.49 z m 0,-2.65 c 0,-0.27 0.21,-0.49 0.49,-0.49 v 0 c 0.27,0 0.49,0.22 0.49,0.49 v 0 c 0,0.27 -0.22,0.49 -0.49,0.49 v 0 c -0.28,0 -0.49,-0.22 -0.49,-0.49 z m 0,-2.65 c 0,-0.27 0.21,-0.49 0.49,-0.49 v 0 c 0.27,0 0.49,0.22 0.49,0.49 v 0 c 0,0.27 -0.22,0.49 -0.49,0.49 v 0 c -0.28,0 -0.49,-0.22 -0.49,-0.49 z"
   id="path90"
   style="stroke-width:2.024" />
			</g>
		</g>
		<g
   id="g128"
   style="stroke-width:2.024">
			<g
   id="g98"
   style="stroke-width:2.024">
				<path
   class="st6"
   d="m 630.74,532.14 v -3.11 c 13.71,0 20.53,-9.17 27.74,-18.88 7.36,-9.9 14.96,-20.13 30.24,-20.13 13.81,0 20.62,-7.4 27.84,-15.23 7.35,-7.98 14.95,-16.24 30.13,-16.24 15.42,0 23.01,13.76 30.36,27.07 7.23,13.09 14.05,25.46 27.63,25.46 13.45,0 20.62,-17.75 27.55,-34.92 7.32,-18.12 14.89,-36.86 30.44,-36.86 15.43,0 23.03,14.3 30.37,28.13 7.23,13.62 14.06,26.48 27.62,26.48 13.44,0 20.62,-17.95 27.55,-35.3 7.32,-18.32 14.89,-37.26 30.44,-37.26 v 3.11 c -13.44,0 -20.62,17.95 -27.55,35.3 -7.32,18.32 -14.89,37.26 -30.44,37.26 -15.44,0 -23.03,-14.3 -30.37,-28.13 -7.23,-13.62 -14.06,-26.48 -27.62,-26.48 -13.45,0 -20.62,17.75 -27.55,34.92 -7.32,18.12 -14.89,36.86 -30.44,36.86 -15.42,0 -23.01,-13.76 -30.35,-27.07 -7.23,-13.09 -14.05,-25.46 -27.63,-25.46 -13.81,0 -20.62,7.4 -27.84,15.23 -7.35,7.98 -14.95,16.24 -30.13,16.24 -13.71,0 -20.53,9.17 -27.74,18.88 -7.37,9.89 -14.98,20.13 -30.25,20.13 z"
   id="path96"
   style="stroke-width:2.024" />
			</g>
			<g
   id="g102"
   style="stroke-width:2.024">
				<path
   class="st6"
   d="m 635.5,530.51 c 0,-1.77 -1.43,-3.21 -3.2,-3.21 -1.77,0 -3.2,1.44 -3.2,3.21 0,1.77 1.43,3.21 3.2,3.21 1.76,0.01 3.2,-1.43 3.2,-3.21 z"
   id="path100"
   style="stroke-width:2.024" />
			</g>
			<g
   id="g106"
   style="stroke-width:2.024">
				<path
   class="st6"
   d="m 690.7,491.48 c 0,-1.77 -1.43,-3.21 -3.2,-3.21 -1.77,0 -3.2,1.44 -3.2,3.21 0,1.77 1.43,3.21 3.2,3.21 1.76,0 3.2,-1.44 3.2,-3.21 z"
   id="path104"
   style="stroke-width:2.024" />
			</g>
			<g
   id="g110"
   style="stroke-width:2.024">
				<path
   class="st6"
   d="m 748.3,460.36 c 0,-1.77 -1.43,-3.21 -3.2,-3.21 -1.77,0 -3.2,1.44 -3.2,3.21 0,1.77 1.43,3.21 3.2,3.21 1.76,0 3.2,-1.43 3.2,-3.21 z"
   id="path108"
   style="stroke-width:2.024" />
			</g>
			<g
   id="g114"
   style="stroke-width:2.024">
				<path
   class="st6"
   d="m 807.86,512.63 c 0,-1.77 -1.43,-3.21 -3.2,-3.21 -1.77,0 -3.2,1.44 -3.2,3.21 0,1.77 1.43,3.21 3.2,3.21 1.77,0.01 3.2,-1.43 3.2,-3.21 z"
   id="path112"
   style="stroke-width:2.024" />
			</g>
			<g
   id="g118"
   style="stroke-width:2.024">
				<path
   class="st6"
   d="m 865.85,440.86 c 0,-1.77 -1.43,-3.21 -3.2,-3.21 -1.77,0 -3.2,1.44 -3.2,3.21 0,1.77 1.43,3.21 3.2,3.21 1.77,0 3.2,-1.44 3.2,-3.21 z"
   id="path116"
   style="stroke-width:2.024" />
			</g>
			<g
   id="g122"
   style="stroke-width:2.024">
				<path
   class="st6"
   d="m 923.84,495.47 c 0,-1.77 -1.43,-3.21 -3.2,-3.21 -1.77,0 -3.2,1.44 -3.2,3.21 0,1.77 1.43,3.21 3.2,3.21 1.77,0 3.2,-1.44 3.2,-3.21 z"
   id="path120"
   style="stroke-width:2.024" />
			</g>
			<g
   id="g126"
   style="stroke-width:2.024">
				<path
   class="st6"
   d="m 981.84,422.91 c 0,-1.77 -1.43,-3.21 -3.2,-3.21 -1.77,0 -3.2,1.44 -3.2,3.21 0,1.77 1.43,3.21 3.2,3.21 1.77,0 3.2,-1.43 3.2,-3.21 z"
   id="path124"
   style="stroke-width:2.024" />
			</g>
		</g>
		<g
   id="g262"
   style="stroke-width:2.024">
			<g
   id="g132"
   style="stroke-width:2.024">
				<rect
   x="634.76001"
   y="362.95999"
   class="st6"
   width="8.6300001"
   height="23.440001"
   id="rect130"
   style="stroke-width:2.024" />
			</g>
			<g
   id="g136"
   style="stroke-width:2.024">
				<rect
   x="648"
   y="352.64999"
   class="st5"
   width="8.6300001"
   height="33.75"
   id="rect134"
   style="stroke-width:2.024" />
			</g>
			<g
   id="g140"
   style="stroke-width:2.024">
				<rect
   x="634.69"
   y="389.54001"
   class="st5"
   width="22.02"
   height="2.8800001"
   id="rect138"
   style="stroke-width:2.024" />
			</g>
			<g
   id="g144"
   style="stroke-width:2.024">
				<rect
   x="666.63"
   y="349.25"
   class="st6"
   width="8.6300001"
   height="37.150002"
   id="rect142"
   style="stroke-width:2.024" />
			</g>
			<g
   id="g148"
   style="stroke-width:2.024">
				<rect
   x="679.87"
   y="338"
   class="st5"
   width="8.6300001"
   height="48.400002"
   id="rect146"
   style="stroke-width:2.024" />
			</g>
			<g
   id="g152"
   style="stroke-width:2.024">
				<rect
   x="666.57001"
   y="389.54001"
   class="st5"
   width="22.02"
   height="2.8800001"
   id="rect150"
   style="stroke-width:2.024" />
			</g>
			<g
   id="g156"
   style="stroke-width:2.024">
				<rect
   x="698.51001"
   y="349.25"
   class="st6"
   width="8.6300001"
   height="37.150002"
   id="rect154"
   style="stroke-width:2.024" />
			</g>
			<g
   id="g160"
   style="stroke-width:2.024">
				<rect
   x="711.75"
   y="360.03"
   class="st5"
   width="8.6300001"
   height="26.370001"
   id="rect158"
   style="stroke-width:2.024" />
			</g>
			<g
   id="g164"
   style="stroke-width:2.024">
				<rect
   x="698.44"
   y="389.54001"
   class="st5"
   width="22.02"
   height="2.8800001"
   id="rect162"
   style="stroke-width:2.024" />
			</g>
			<g
   id="g168"
   style="stroke-width:2.024">
				<rect
   x="730.38"
   y="367.82001"
   class="st6"
   width="8.6300001"
   height="18.58"
   id="rect166"
   style="stroke-width:2.024" />
			</g>
			<g
   id="g172"
   style="stroke-width:2.024">
				<rect
   x="743.62"
   y="360.97"
   class="st5"
   width="8.6300001"
   height="25.43"
   id="rect170"
   style="stroke-width:2.024" />
			</g>
			<g
   id="g176"
   style="stroke-width:2.024">
				<rect
   x="730.31"
   y="389.54001"
   class="st5"
   width="22.02"
   height="2.8800001"
   id="rect174"
   style="stroke-width:2.024" />
			</g>
			<g
   id="g180"
   style="stroke-width:2.024">
				<rect
   x="762.25"
   y="352.64999"
   class="st6"
   width="8.6300001"
   height="33.75"
   id="rect178"
   style="stroke-width:2.024" />
			</g>
			<g
   id="g184"
   style="stroke-width:2.024">
				<rect
   x="775.48999"
   y="340.53"
   class="st5"
   width="8.6300001"
   height="45.869999"
   id="rect182"
   style="stroke-width:2.024" />
			</g>
			<g
   id="g188"
   style="stroke-width:2.024">
				<rect
   x="762.19"
   y="389.54001"
   class="st5"
   width="22.02"
   height="2.8800001"
   id="rect186"
   style="stroke-width:2.024" />
			</g>
			<g
   id="g192"
   style="stroke-width:2.024">
				<rect
   x="794.13"
   y="354.39999"
   class="st6"
   width="8.6300001"
   height="31.99"
   id="rect190"
   style="stroke-width:2.024" />
			</g>
			<g
   id="g196"
   style="stroke-width:2.024">
				<rect
   x="807.37"
   y="369.51999"
   class="st5"
   width="8.6300001"
   height="16.879999"
   id="rect194"
   style="stroke-width:2.024" />
			</g>
			<g
   id="g200"
   style="stroke-width:2.024">
				<rect
   x="794.06"
   y="389.54001"
   class="st5"
   width="22.02"
   height="2.8800001"
   id="rect198"
   style="stroke-width:2.024" />
			</g>
			<g
   id="g204"
   style="stroke-width:2.024">
				<rect
   x="826"
   y="350.64999"
   class="st6"
   width="8.6300001"
   height="35.740002"
   id="rect202"
   style="stroke-width:2.024" />
			</g>
			<g
   id="g208"
   style="stroke-width:2.024">
				<rect
   x="839.23999"
   y="358.14999"
   class="st5"
   width="8.6300001"
   height="28.24"
   id="rect206"
   style="stroke-width:2.024" />
			</g>
			<g
   id="g212"
   style="stroke-width:2.024">
				<rect
   x="825.92999"
   y="389.54001"
   class="st5"
   width="22.02"
   height="2.8800001"
   id="rect210"
   style="stroke-width:2.024" />
			</g>
			<g
   id="g216"
   style="stroke-width:2.024">
				<rect
   x="857.87"
   y="358.14999"
   class="st6"
   width="8.6300001"
   height="28.24"
   id="rect214"
   style="stroke-width:2.024" />
			</g>
			<g
   id="g220"
   style="stroke-width:2.024">
				<rect
   x="871.10999"
   y="367.82001"
   class="st5"
   width="8.6300001"
   height="18.58"
   id="rect218"
   style="stroke-width:2.024" />
			</g>
			<g
   id="g224"
   style="stroke-width:2.024">
				<rect
   x="857.79999"
   y="389.54001"
   class="st5"
   width="22.02"
   height="2.8800001"
   id="rect222"
   style="stroke-width:2.024" />
			</g>
			<g
   id="g228"
   style="stroke-width:2.024">
				<rect
   x="889.73999"
   y="352.64999"
   class="st6"
   width="8.6300001"
   height="33.75"
   id="rect226"
   style="stroke-width:2.024" />
			</g>
			<g
   id="g232"
   style="stroke-width:2.024">
				<rect
   x="902.97998"
   y="341.26001"
   class="st5"
   width="8.6300001"
   height="45.130001"
   id="rect230"
   style="stroke-width:2.024" />
			</g>
			<g
   id="g236"
   style="stroke-width:2.024">
				<rect
   x="889.67999"
   y="389.54001"
   class="st5"
   width="22.02"
   height="2.8800001"
   id="rect234"
   style="stroke-width:2.024" />
			</g>
			<g
   id="g240"
   style="stroke-width:2.024">
				<rect
   x="921.62"
   y="354.39999"
   class="st6"
   width="8.6300001"
   height="31.99"
   id="rect238"
   style="stroke-width:2.024" />
			</g>
			<g
   id="g244"
   style="stroke-width:2.024">
				<rect
   x="934.85999"
   y="346.60001"
   class="st5"
   width="8.6300001"
   height="39.799999"
   id="rect242"
   style="stroke-width:2.024" />
			</g>
			<g
   id="g248"
   style="stroke-width:2.024">
				<rect
   x="921.54999"
   y="389.54001"
   class="st5"
   width="22.02"
   height="2.8800001"
   id="rect246"
   style="stroke-width:2.024" />
			</g>
			<g
   id="g252"
   style="stroke-width:2.024">
				<rect
   x="953.48999"
   y="335.39001"
   class="st6"
   width="8.6300001"
   height="51.009998"
   id="rect250"
   style="stroke-width:2.024" />
			</g>
			<g
   id="g256"
   style="stroke-width:2.024">
				<rect
   x="966.72998"
   y="343.39999"
   class="st5"
   width="8.6300001"
   height="43"
   id="rect254"
   style="stroke-width:2.024" />
			</g>
			<g
   id="g260"
   style="stroke-width:2.024">
				<rect
   x="953.41998"
   y="389.54001"
   class="st5"
   width="22.02"
   height="2.8800001"
   id="rect258"
   style="stroke-width:2.024" />
			</g>
		</g>
	</g><path
     class="st11"
     d="m 601.36337,257.32117 -3.71167,5.27437 -6.54037,-2.61056 c 0.0759,-0.92345 -0.88696,-3.78706 -0.55136,-7.19675 0.27968,-2.78368 0.51941,-5.17669 0.51941,-5.17669 l 9.43298,-4.57733 0.28367,-0.13763 c -0.004,0.0577 -0.008,0.11542 -0.008,0.17315 -0.028,0.45729 -0.044,0.90571 -0.052,1.34521 -0.1598,7.81833 0.62728,12.90623 0.62728,12.90623 z"
     id="path324"
     style="fill:#c87137;stroke-width:0.999992" /><path
     class="st12"
     d="m 600.78805,243.07416 c -0.028,0.45729 -0.044,0.90571 -0.052,1.34524 -1.82586,2.38412 -6.11686,7.47202 -10.17612,8.37328 0.27968,-2.78371 0.51939,-5.1767 0.51939,-5.1767 l 9.43298,-4.57733 z"
     id="path326"
     style="fill:#c87137;stroke-width:0.999992" /><path
     class="st11"
     d="m 589.06972,248.53945 c 0,0 12.3416,0.62598 12.57732,-7.92044 0.23173,-8.54642 1.98168,-14.2248 -5.88913,-14.98399 -7.87081,-0.76363 -9.49292,2.45071 -10.1921,5.2788 -0.70317,2.83253 0.29964,17.23936 3.50391,17.62563 z"
     id="path328"
     style="fill:#c87137;stroke-width:0.999992" /><path
     class="st8"
     d="m 601.57112,240.6412 c 0,0 -0.92292,-11.4056 -11.91807,-10.99713 -10.99517,0.40844 -6.23672,-11.1481 3.20825,-12.84851 0,0 -0.98684,4.07121 4.95821,4.71497 12.47743,1.34968 4.86232,17.32373 3.75161,19.13067 z"
     id="path330"
     style="fill:#241f1c;stroke-width:0.999992" /><path
     class="st11"
     d="m 601.57112,240.6412 c 0,0 1.50226,-3.81813 0.859,-5.24772 -0.64324,-1.42958 -1.74195,1.41626 -1.74195,1.41626 0,0 -1.05078,2.87693 -0.61928,3.59172 0.42749,0.7148 1.50223,0.23974 1.50223,0.23974 z"
     id="path332"
     style="fill:#c87137;stroke-width:0.999992" /><polygon
     class="st11"
     points="981.05,968.12 961.32,971.14 963.55,999.78 984.87,999.14 "
     id="polygon334"
     style="stroke-width:2.37436"
     transform="matrix(0.39953361,0,0,0.44397022,225.88568,49.48538)" /><g
     id="g338"
     style="stroke-width:2.37436"
     transform="matrix(0.39953361,0,0,0.44397022,225.88568,49.48538)">
			<path
   class="st13"
   d="m 992.24,1019.34 c 2.44,-8.17 -3.29,-14.11 -5.09,-21.32 -1.11,-4.45 -23.45,-7.2 -25.67,2.55 -2.12,9.33 -0.42,18.77 -0.42,18.77 z"
   id="path336"
   style="stroke-width:2.37436" />
		</g><polygon
     class="st11"
     points="868.83,965.19 847.52,963.84 844.84,1000.57 866.69,1000.57 "
     id="polygon342"
     style="stroke-width:2.37436"
     transform="matrix(0.39953361,0,0,0.44397022,225.88568,49.48538)" /><path
     class="st13"
     d="m 572.15746,492.58099 h -8.1345 c 0,0 -0.89097,0 -3.55986,3.1078 -2.66887,3.10776 -9.03743,0.14201 -11.96202,6.35765 h 24.29563 c -0.004,-0.005 2.40919,-4.94584 -0.63925,-9.46545 z"
     id="path344"
     style="stroke-width:0.999992" /><polygon
     class="st8"
     points="915.06,728.63 870.97,986.57 845.09,986.57 869.08,632.11 960.59,632.11 986.78,986.57 960.59,986.57 "
     id="polygon348"
     style="fill:#0b2228;stroke-width:2.37436"
     transform="matrix(0.39953361,0,0,0.44397022,225.88568,49.48538)" /><path
     class="st11"
     d="m 547.41434,271.24407 c 0,0 -2.07357,-3.71159 -1.77392,-5.80269 0.29964,-2.08665 0.29964,-4.6084 -0.72715,-6.03355 -1.02681,-1.42515 -0.75513,-3.10779 -1.83785,-2.64607 -0.34361,0.14656 -0.1798,2.67272 0.31562,3.86699 0,0 -3.06841,-6.93481 -3.5119,-7.72065 -0.44348,-0.78582 -1.16264,-0.28413 -1.10672,0.36406 0,0 -0.33559,-0.73255 -0.89495,-0.41733 -0.47942,0.27082 -0.2397,1.1188 -0.21974,1.48731 0,0 -0.73115,0.0666 -0.63925,0.96785 0.0599,0.57715 0.14784,0.95453 0.22773,1.2964 0,0 -0.3396,0.0753 -0.41952,0.75918 -0.0559,0.48393 0.0559,1.43845 0.33963,2.15325 0.68318,1.7226 0.19176,2.08666 0.91093,3.81814 0.71516,1.73148 2.51306,1.92684 3.32411,5.26104 0.81105,3.33424 1.13069,4.27545 1.13069,4.27545 z"
     id="path352"
     style="fill:#c87137;stroke-width:0.999992" /><path
     class="st6"
     d="m 573.42398,263.22595 c -2.02963,0.34187 -9.20925,17.03072 -13.15265,24.94227 -3.93941,7.91155 -3.93941,7.91155 -3.93941,7.91155 l -9.53286,-27.12215 c 0,0 -3.17629,-0.56383 -5.08607,2.54394 0,0 5.08607,36.5876 6.35659,40.68543 1.27052,4.09785 5.21391,7.06358 12.20575,-2.68602 6.99184,-9.74513 19.06974,-28.67602 20.08456,-30.79376 1.01481,-2.12219 4.8024,-17.45692 -6.93591,-15.48126 z"
     id="path354"
     style="stroke-width:0.999992" /><g
     id="g362"
     style="stroke-width:2.37436"
     transform="matrix(0.39953361,0,0,0.44397022,225.88568,49.48538)">
			<path
   class="st6"
   d="m 966.45,557.33 c -8.27,44.24 -5.85,74.78 -5.85,74.78 h -91.52 c 0,0 -3.8,-142.81 -1.7,-147.65 3.82,-8.77 42.19,-20.92 42.19,-20.92 l 8.53,12.94 23.95,-12.85 c 0,0 26.62,7.79 32.66,9.38 1.79,0.48 2.51,4.17 2.42,10.28 -0.15,14.55 -4.86,42.89 -10.68,74.04 z"
   id="path360"
   style="stroke-width:2.37436" />
		</g><path
     class="st6"
     d="m 612.01493,296.92331 c -3.30415,19.64123 -2.33727,33.2001 -2.33727,33.2001 h -4.24305 c 0,0 1.15065,-48.37945 7.47128,-63.91397 0.95089,-2.34416 2.10954,-2.90356 3.38006,-2.15769 -0.0639,6.45976 -1.94574,19.04187 -4.27102,32.87156 z"
     id="path364"
     style="stroke-width:0.999992" /><rect
     x="573.06439"
     y="330.12341"
     class="st14"
     width="36.609264"
     height="3.5650809"
     id="rect368"
     style="stroke-width:0.999992" /><g
     id="g372"
     style="stroke-width:1.79885"
     transform="matrix(0.52735679,0,0,0.58601005,112.71574,-4.0423303)">
			<path
   class="st5"
   d="M 886.61,594.76 H 776.04 l -26.49,-72.79 c -1.12,-3.09 1.16,-6.36 4.45,-6.36 h 100.49 c 1.99,0 3.77,1.25 4.45,3.12 z"
   id="path370"
   style="stroke-width:1.79885" />
		</g><g
     id="g376"
     style="stroke-width:2.37436"
     transform="matrix(0.39953361,0,0,0.44397022,225.88568,49.48538)">
			<path
   class="st13"
   d="M 952.33,601.64 H 842.45 c -1.9,0 -3.44,-1.54 -3.44,-3.44 v 0 c 0,-1.9 1.54,-3.44 3.44,-3.44 h 109.89 c 1.9,0 3.44,1.54 3.44,3.44 v 0 c -0.01,1.9 -1.55,3.44 -3.45,3.44 z"
   id="path374"
   style="stroke-width:2.37436" />
		</g><g
     id="g380"
     style="stroke-width:2.37436"
     transform="matrix(0.39953361,0,0,0.44397022,225.88568,49.48538)">
			<path
   class="st8"
   d="M 886.27,601.64 H 776.38 c -1.9,0 -3.44,-1.54 -3.44,-3.44 v 0 c 0,-1.9 1.54,-3.44 3.44,-3.44 h 109.89 c 1.9,0 3.44,1.54 3.44,3.44 v 0 c 0,1.9 -1.54,3.44 -3.44,3.44 z"
   id="path378"
   style="stroke-width:2.37436" />
		</g><path
     class="st6"
     d="m 590.48806,253.90703 c 0,0 0.0115,4.35536 2.21342,6.41094 0,0 -2.33328,2.06002 -3.63975,4.48409 -0.82704,-5.16337 0.23572,-9.51871 0.23572,-9.51871 z"
     id="path384"
     style="fill:#c87137;stroke-width:0.999992" /><path
     class="st6"
     d="m 600.92788,253.7472 c 0,0 -3.08041,5.48748 -8.2264,6.57077 0,0 1.702,3.15218 2.67688,5.89592 2.561,-1.93571 6.17278,-6.85934 6.88796,-10.89059 z"
     id="path386"
     style="fill:#c87137;stroke-width:0.999992" /><path
     class="st15"
     d="m 610.24899,274.51614 2.08957,27.1754 -4.17912,3.24544 c 0,-0.005 2.3133,-22.72684 2.08955,-30.42084 z"
     id="path388"
     style="stroke-width:0.999992" /><path
     class="st11"
     d="m 581.39469,311.47221 c 0,0 -3.79559,-0.20421 -5.2379,-1.08772 -1.44232,-0.88349 -5.07407,-1.0522 -5.82119,-1.0522 -0.74714,0 -0.048,1.38074 0.84699,1.54945 0.89497,0.16423 1.98968,1.0522 1.98968,1.0522 0,0 -5.62143,0.55497 -7.0158,0.44397 -1.39438,-0.11105 -3.03645,0.33298 -2.53704,1.10549 0.49941,0.77252 1.34242,0.83024 1.34242,0.83024 0,0 0.39954,1.16318 1.19462,1.32746 0,0 0.34759,0.83022 1.44232,0.99448 0,0 1.04676,0.55497 1.49424,0.55497 0,0 4.07924,0.8835 6.41652,0.44399 2.33726,-0.44399 6.36058,-0.70593 6.36058,-0.70593 z"
     id="path390"
     style="fill:#c87137;stroke-width:0.999992" /><path
     class="st6"
     d="m 615.17525,259.44779 c 0,0 6.12084,1.03 8.66188,12.04935 2.54104,11.01933 -2.53704,34.31446 -4.39887,42.04398 -1.09072,4.52405 -38.13148,4.52405 -38.13148,4.52405 0,0 -0.69519,-4.77712 -0.69519,-7.92488 0,0 25.28649,-4.57732 30.62824,-8.209 0,0 -1.13866,-18.80659 -1.39037,-26.05216 -0.2517,-7.34773 -0.98684,-15.67216 5.32579,-16.43134 z"
     id="path392"
     style="stroke-width:0.999992" /><path
     class="st11"
     d="m 186.89383,247.50221 3.3087,-4.19859 c 0,0 2.1583,-4.39796 3.09234,-5.99296 0.93402,-1.60086 3.88389,-4.55628 4.45909,-5.27754 0.57519,-0.72127 1.04484,0.63917 0.43272,1.91749 -0.61215,1.27835 -1.54089,4.05199 -1.54089,4.05199 0,0 6.35881,-4.80842 8.22688,-6.01054 1.86807,-1.19624 2.69656,-0.28146 2.5541,0.24041 0,0 1.15039,1.03794 0.21635,2.04068 0,0 1.00792,1.16106 -0.39578,2.39836 0,0 1.04485,1.16105 -0.97098,2.59771 -2.01582,1.43668 -3.16623,5.83464 -6.25855,7.19507 -3.09234,1.36044 -6.47492,4.11063 -8.31132,6.46795 z"
     id="path400"
     style="fill:#d38d5f;stroke-width:0.999988" /><g
     id="g475"
     transform="matrix(0.49557573,0,0,0.55069428,66.991935,23.800022)"
     style="stroke-width:1.91419"><g
       id="g404"
       style="stroke-width:2.24178"
       transform="matrix(0.85388335,0,0,0.85388335,-41.852024,-17.60654)">
			<path
   class="st6"
   d="m 227.28,507.56 c 0,0 9.4,9.23 26.95,26.8 15.83,15.85 33.21,25.98 42.04,20.44 8.83,-5.54 48.02,-46.7 48.02,-46.7 l -11.93,-11.75 -40.97,35.16 c 0,0 -26.92,-25.75 -32.54,-30.04 -5.62,-4.29 -24.56,-12.34 -30.52,-5.64 -5.97,6.7 -1.05,11.73 -1.05,11.73 z"
   id="path402"
   style="stroke-width:2.24178" />
		</g><g
       id="g414"
       style="stroke-width:2.24178"
       transform="matrix(0.85388335,0,0,0.85388335,-41.852024,-17.60654)">
		<polygon
   class="st11"
   points="228,968.01 229.45,993.62 245.48,993.62 247.58,969.96 "
   id="polygon408"
   style="stroke-width:2.24178" />
		<g
   id="g412"
   style="stroke-width:2.24178">
			<path
   class="st13"
   d="m 229.45,993.62 c 0,0 -4.03,5.11 -2.4,16.41 0.77,5.36 12.44,5.01 32.14,5.01 19.7,0 15.29,0 15.29,0 0,0 5.71,-6.17 -3.37,-8.98 -22.16,-6.86 -25.62,-12.44 -25.62,-12.44 z"
   id="path410"
   style="stroke-width:2.24178" />
		</g>
	</g><g
       id="g422"
       style="stroke-width:2.24178"
       transform="matrix(0.85388335,0,0,0.85388335,-41.852024,-17.60654)">
		<polygon
   class="st11"
   points="180.51,972.22 178.53,997.66 159.59,997.1 162.98,969.54 "
   id="polygon416"
   style="stroke-width:2.24178" />
		<g
   id="g420"
   style="stroke-width:2.24178">
			<path
   class="st13"
   d="m 153.04,1015.05 c -2.17,-7.26 2.92,-12.53 4.52,-18.94 0.99,-3.96 20.84,-6.39 22.8,2.26 1.88,8.29 0.38,16.68 0.38,16.68 z"
   id="path418"
   style="stroke-width:2.24178" />
		</g>
	</g><g
       id="g426"
       style="fill:#241f1c;stroke-width:2.24178"
       transform="matrix(0.85388335,0,0,0.85388335,-41.852024,-17.60654)">
		<path
   class="st2"
   d="m 239.16,422.34 c 0,0 10.25,3.09 9.43,17.56 -0.82,14.47 -4.4,21.57 -0.15,36.72 4.25,15.15 6.67,35.05 -19.35,33.35 -26.02,-1.7 -33.8,-3.86 -42.57,1.24 -8.77,5.11 -33.3,-17.26 -21.39,-32.49 11.92,-15.23 16.88,-24.21 14.63,-37.52 -2.25,-13.32 7.98,-26.21 24.24,-30.17 13.65,-3.33 41.07,-4.7 35.16,11.31 z"
   id="path424"
   style="fill:#241f1c;stroke-width:2.24178" />
	</g><g
       id="g432"
       style="stroke-width:2.24178"
       transform="matrix(0.85388335,0,0,0.85388335,-41.852024,-17.60654)">
		<g
   id="g430"
   style="stroke-width:2.24178">
			<path
   class="st8"
   d="m 170.77,559.38 c 3.38,17.32 3.01,30.09 3.02,60.39 h 75.27 c 0,0 -2.08,-24.42 1.31,-39.42 0.61,-2.75 1.41,-5.1 2.45,-6.75 5.36,-8.57 10.17,-16.57 10.22,-25.4 0,-2.13 -0.27,-4.35 -0.88,-6.62 -3.1,-11.55 -7.76,-37.14 -13.56,-44.24 -5.79,-7.12 -34.61,-6.21 -34.61,-6.21 0,0 -37.69,0.11 -48.98,6.43 -3.01,1.68 -4.16,5.47 -4.4,10.01 -0.78,14.11 7.47,37.99 10.16,51.81 z"
   id="path428"
   style="stroke-width:2.24178" />
		</g>
	</g><g
       id="g442"
       style="fill:#d38d5f;stroke-width:2.24178"
       transform="matrix(0.85388335,0,0,0.85388335,-41.852024,-17.60654)">
		<g
   id="g438"
   style="fill:#d38d5f;stroke-width:2.24178">
			<path
   class="st11"
   d="m 232.83,491.94 c 0,0 0.07,5.21 -1.97,11.21 -2.52,7.4 -11.27,10.54 -17.87,6.36 -6.58,-4.17 -14.69,-10.36 -18.84,-17.53 0,-0.01 19.93,-2.2 38.68,-0.04 z"
   id="path434"
   style="fill:#d38d5f;stroke-width:2.24178" />
			<path
   class="st11"
   d="m 228.51,491.52 c 0,0 -5.23,-0.53 -5.23,-6.67 0,-6.14 -0.61,-17.81 -0.61,-17.81 l -19.68,1.67 c 0,0 1.67,19.28 -1.5,22.81 -3.17,3.54 -3.17,3.54 -3.17,3.54 0,0 27.02,4.59 30.19,-3.54 z"
   id="path436"
   style="fill:#d38d5f;stroke-width:2.24178" />
		</g>
		<path
   class="st12"
   d="m 223.27,482.38 c 0,0 -12.94,2 -19.85,-3.5 l -0.44,-10.17 20.28,4.39 v 9.28 z"
   id="path440"
   style="fill:#d38d5f;stroke-width:2.24178" />
	</g><path
       class="st11"
       d="m 162.38833,350.06709 c 0,0 9.27318,42.21599 -11.93728,43.96646 -21.21047,1.75046 -22.56814,-20.2712 -22.56814,-20.2712 0,0 -5.15746,-1.981 -5.36239,-6.70298 -0.19639,-4.57681 5.77225,-2.04932 5.77225,-2.04932 0,0 -3.25329,-17.2826 9.93067,-21.17631 13.85852,-4.09864 22.38882,0.16224 24.16489,6.23335 z"
       id="path444"
       style="fill:#d38d5f;stroke-width:1.91419" /><g
       id="g448"
       style="fill:#241f1c;stroke-width:2.24178"
       transform="matrix(0.85388335,0,0,0.85388335,-41.852024,-17.60654)">
			<path
   class="st2"
   d="m 237.66,424.52 c 0,0 -9.07,25.71 -38.4,23.56 0,0 -4.98,-19.74 1.16,-26.99 6.13,-7.25 30.17,-9.07 37.24,3.43 z"
   id="path446"
   style="fill:#241f1c;stroke-width:2.24178" />
		</g><g
       id="g454"
       style="stroke-width:2.24178"
       transform="matrix(0.85388335,0,0,0.85388335,-41.852024,-17.60654)">
		<path
   class="st5"
   d="m 173.79,619.77 c 0,0 -26.53,51.76 -18.11,363.83 l 29.09,2.9 c 0,0 18.21,-212.75 24,-276.25 0.67,4.41 17.25,276.25 17.25,276.25 h 23.53 c 0,0 30.49,-330.37 -0.5,-366.73 z"
   id="path452"
   style="stroke-width:2.24178" />
	</g><path
       class="st6"
       d="m 123.92943,402.47845 c 0,0 9.20486,73.10949 7.54833,109.12629 -1.65654,36.0168 -37.152467,74.3647 -37.152467,74.3647 0,0 3.543616,-42.50631 7.855727,-70.17213 4.31211,-27.66582 1.06735,-59.70352 -2.655578,-71.54688 -3.722931,-11.83483 -8.035042,-34.47128 -0.478174,-37.00731 7.556872,-2.52749 24.882162,-4.76467 24.882162,-4.76467 z"
       id="path456"
       style="stroke-width:1.91419" /><path
       class="st11"
       d="m 114.99781,515.79731 7.59102,2.9032 c 0,0 7.21532,1.05882 9.92213,1.66508 2.70681,0.61479 8.40221,3.59485 9.70865,4.10718 1.30644,0.51233 -0.29032,1.90416 -2.3738,1.62237 -2.09201,-0.28178 -6.39558,-0.29032 -6.39558,-0.29032 0,0 10.13559,7.21532 12.82533,9.45249 2.68973,2.22864 1.89562,3.95348 1.10151,3.99618 0,0 -0.77704,2.27133 -2.66412,1.35767 0,0 -1.01612,2.11763 -3.50092,0.6148 0,0 -0.99905,2.16886 -4.0901,-0.16224 -3.0996,-2.3311 -9.74281,-1.85293 -13.33766,-5.86618 -3.59485,-4.00471 -9.24756,-7.75326 -13.49136,-9.35002 z"
       id="path458"
       style="fill:#d38d5f;stroke-width:1.91419" /><g
       id="g462"
       style="stroke-width:2.24178"
       transform="matrix(0.85388335,0,0,0.85388335,-41.852024,-17.60654)">
			<path
   class="st6"
   d="m 167.56,497.24 c 0,0 -15.96,8.21 -26.57,30.67 -10.76,22.79 -20.53,45.72 -20.47,55.82 0.07,10.42 61.4,56.38 61.4,56.38 l 8.92,-14.74 -42,-42.02 c -1.79,-1.79 -2.25,-4.53 -1.13,-6.8 4.92,-10.02 18.09,-36.73 21.53,-42.35 4.72,-7.71 13.67,-23.21 7.74,-29.94 -5.94,-6.72 -9.42,-7.02 -9.42,-7.02 z"
   id="path460"
   style="stroke-width:2.24178" />
		</g><path
       class="st6"
       d="m 156.95764,402.45284 c 0,0 14.47332,23.74649 10.46007,48.33833 -4.01325,24.59184 -5.24285,25.59942 -4.87568,52.19789 0.35863,26.59847 11.46766,69.71958 19.97234,85.7982 0,0 2.69827,-31.3119 -3.68878,-59.80599 -6.37851,-28.50263 -7.73618,-35.34223 -6.25897,-46.06701 1.47722,-10.72477 7.16409,-16.71903 9.54642,-27.2218 2.38233,-10.50276 -0.64895,-16.99228 -3.19352,-26.17152 -2.54458,-9.17071 -6.66029,-22.72184 -6.66029,-22.72184 0,0 -8.27413,-3.72293 -15.30159,-4.34626 z"
       id="path466"
       style="stroke-width:1.91419" /></g></g>
</svg>
