<?xml version="1.0" encoding="UTF-8" standalone="no"?>
<svg
   xmlns:dc="http://purl.org/dc/elements/1.1/"
   xmlns:cc="http://creativecommons.org/ns#"
   xmlns:rdf="http://www.w3.org/1999/02/22-rdf-syntax-ns#"
   xmlns:svg="http://www.w3.org/2000/svg"
   xmlns="http://www.w3.org/2000/svg"
   xmlns:xlink="http://www.w3.org/1999/xlink"
   xmlns:sodipodi="http://sodipodi.sourceforge.net/DTD/sodipodi-0.dtd"
   xmlns:inkscape="http://www.inkscape.org/namespaces/inkscape"
   id="Layer_1"
   data-name="Layer 1"
   viewBox="0 0 400.62 285.76"
   version="1.1"
   sodipodi:docname="team_presentation__monochromatic.svg"
   inkscape:version="1.0.1 (3bc2e813f5, 2020-09-07)"
   width="400.62"
   height="285.76001">
  <metadata
     id="metadata242">
    <rdf:RDF>
      <cc:Work
         rdf:about="">
        <dc:format>image/svg+xml</dc:format>
        <dc:type
           rdf:resource="http://purl.org/dc/dcmitype/StillImage" />
        <dc:title>1</dc:title>
      </cc:Work>
    </rdf:RDF>
  </metadata>
  <sodipodi:namedview
     pagecolor="#ffffff"
     bordercolor="#666666"
     borderopacity="1"
     objecttolerance="10"
     gridtolerance="10"
     guidetolerance="10"
     inkscape:pageopacity="0"
     inkscape:pageshadow="2"
     inkscape:window-width="1366"
     inkscape:window-height="702"
     id="namedview240"
     showgrid="false"
     showborder="false"
     inkscape:zoom="1.6587345"
     inkscape:cx="167.98949"
     inkscape:cy="137.49813"
     inkscape:window-x="-8"
     inkscape:window-y="-8"
     inkscape:window-maximized="1"
     inkscape:current-layer="Layer_1"
     inkscape:document-rotation="0" />
  <defs
     id="defs35">
    <linearGradient
       id="linear-gradient"
       x1="187.31"
       y1="197.19"
       x2="199.7"
       y2="16.99"
       gradientTransform="matrix(1,0,0,-1,0,352)"
       gradientUnits="userSpaceOnUse">
      <stop
         offset="0.01"
         id="stop2" />
      <stop
         offset="0.08"
         stop-opacity="0.69"
         id="stop4" />
      <stop
         offset="0.21"
         stop-opacity="0.32"
         id="stop6" />
      <stop
         offset="1"
         stop-opacity="0"
         id="stop8" />
    </linearGradient>
    <linearGradient
       id="linear-gradient-2"
       x1="219.36"
       y1="147.49001"
       x2="290.31"
       y2="148.99001"
       gradientTransform="matrix(1,0,0,-1,-11.52,323.36)"
       gradientUnits="userSpaceOnUse">
      <stop
         offset="0.01"
         id="stop11" />
      <stop
         offset="0.08"
         stop-opacity="0.69"
         id="stop13" />
      <stop
         offset="0.21"
         stop-opacity="0.32"
         id="stop15" />
      <stop
         offset="0.81"
         stop-opacity="0"
         id="stop17" />
    </linearGradient>
    <linearGradient
       id="linear-gradient-3"
       x1="-1396.15"
       y1="-140.39"
       x2="-1243.16"
       y2="-147.17"
       gradientTransform="matrix(-1,0,0,1,-1085.62,372.53)"
       xlink:href="#linear-gradient" />
    <linearGradient
       id="linear-gradient-4"
       x1="184.25999"
       y1="112.43"
       x2="205.66"
       y2="72.07"
       gradientTransform="matrix(0.92709191,0,0,-0.922215,-5.8786142,302.18949)"
       xlink:href="#linear-gradient" />
    <linearGradient
       id="linear-gradient-5"
       x1="182.36"
       y1="142.12"
       x2="217.27"
       y2="94.529999"
       gradientTransform="matrix(0.92709191,0,0,-0.922215,-5.8786142,302.18949)"
       xlink:href="#linear-gradient" />
    <linearGradient
       id="linear-gradient-6"
       x1="141.49001"
       y1="94.25"
       x2="174.33"
       y2="85.800003"
       xlink:href="#linear-gradient"
       gradientTransform="matrix(0.92709191,0,0,0.922215,-5.8786142,-22.430195)" />
    <linearGradient
       id="linear-gradient-7"
       x1="194.85001"
       y1="248.77"
       x2="201.82001"
       y2="31.799999"
       xlink:href="#linear-gradient"
       gradientTransform="matrix(0.92709191,0,0,0.922215,-5.8786142,-22.430195)" />
    <linearGradient
       id="linear-gradient-8"
       x1="188.17"
       y1="169.47"
       x2="190.28"
       y2="137.8"
       gradientTransform="matrix(1,0,0,-1,-11.52,323.36)"
       gradientUnits="userSpaceOnUse">
      <stop
         offset="0.01"
         stop-color="#fff"
         id="stop25" />
      <stop
         offset="1"
         stop-color="#fff"
         stop-opacity="0"
         id="stop27" />
    </linearGradient>
    <linearGradient
       id="linear-gradient-9"
       x1="205.82001"
       y1="158.14999"
       x2="150.07001"
       y2="159.56"
       xlink:href="#linear-gradient-2" />
    <linearGradient
       id="linear-gradient-10"
       x1="125.86"
       y1="86.339996"
       x2="158.71001"
       y2="77.900002"
       xlink:href="#linear-gradient"
       gradientTransform="matrix(0.92709191,0,0,0.922215,-5.8786142,-22.430195)" />
    <linearGradient
       id="linear-gradient-11"
       x1="186.86"
       y1="139.13"
       x2="218.77"
       y2="194.69"
       xlink:href="#linear-gradient-8" />
    <linearGradient
       id="linear-gradient-12"
       x1="175.45"
       y1="163.31"
       x2="201.82001"
       y2="134.96001"
       xlink:href="#linear-gradient-2" />
    <linearGradient
       id="linear-gradient-13"
       x1="166.61"
       y1="172.22"
       x2="199.84"
       y2="147.72"
       xlink:href="#linear-gradient-2" />
    <linearGradient
       inkscape:collect="always"
       xlink:href="#linear-gradient"
       id="linearGradient130"
       gradientUnits="userSpaceOnUse"
       gradientTransform="matrix(0.92709191,0,0,-0.922215,-5.8786142,302.18949)"
       x1="187.31"
       y1="197.19"
       x2="199.7"
       y2="16.99" />
    <linearGradient
       inkscape:collect="always"
       xlink:href="#linear-gradient-2"
       id="linearGradient132"
       gradientUnits="userSpaceOnUse"
       gradientTransform="matrix(0.92709191,0,0,-0.922215,-5.8786142,302.18949)"
       x1="219.36"
       y1="147.49001"
       x2="290.31"
       y2="148.99001" />
    <linearGradient
       inkscape:collect="always"
       xlink:href="#linear-gradient-8"
       id="linearGradient134"
       gradientUnits="userSpaceOnUse"
       gradientTransform="matrix(1,0,0,-1,-11.52,323.36)"
       x1="188.17"
       y1="169.47"
       x2="190.28"
       y2="137.8" />
  </defs>
  <title
     id="title37">1</title>
  <g
     id="g334">
    <path
       d="m 88.814553,221.67089 c 2.382627,0.51644 4.793066,-0.56255 7.231317,-0.71932 2.438252,-0.15678 5.44203,1.50321 4.96921,3.88252 a 78.413434,78.000945 0 0 0 24.75336,3.15398 8.1676797,8.1247142 0 0 0 -0.60261,-3.62431 632.05418,628.7293 0 0 1 65.88842,-5.53329 10.550306,10.494807 0 0 1 4.19973,0.43344 c 1.18667,0.45189 2.16939,1.2911 3.30971,1.84443 5.27516,2.45309 10.93042,-2.36087 16.68766,-3.34764 a 12.728972,12.662012 0 0 1 6.42475,0.54411 c 2.93888,1.0421 5.3864,3.10786 8.18622,4.46352 a 18.671631,18.57341 0 0 0 16.80817,-0.35044 3.096487,3.0801981 0 0 0 1.77075,-1.84443 c 0.45427,-2.21332 -3.48587,-3.54131 -2.97597,-5.73618 l 26.19035,-1.79832 c 5.90558,-0.40577 12.13563,-0.74699 17.45714,1.84443 a 11.727713,11.66602 0 0 1 -5.26588,3.58742 c 9.32654,1.35565 20.053,3.68886 24.31762,11.98879 -21.03572,3.86408 -43.13759,14.10989 -64.02497,9.58182 a 305.87543,304.26639 0 0 0 -98.4757,-5.17363 2.3084589,2.2963154 0 0 0 -1.31647,0.43344 c -1.0198,0.92222 0.29667,2.53609 0.33375,3.91019 0,2.01043 -2.53096,2.84965 -4.54275,3.06176 a 341.44795,339.65178 0 0 1 -84.615677,-1.5401 c -4.922858,-0.71011 -10.578119,-2.06576 -12.664075,-6.55695 q 16.882343,-2.76665 33.931563,-4.13152 a 63.709756,63.374615 0 0 1 -9.576859,-3.90097 4.3480611,4.3251884 0 0 1 -2.02106,-1.61388 3.0779451,3.0617538 0 0 1 1.029072,-3.63353 9.1782099,9.1299285 0 0 1 3.773264,-1.50321 39.688805,39.480024 0 0 0 18.819965,2.27787 z"
       fill="url(#linear-gradient)"
       id="path41"
       style="fill:url(#linearGradient130);stroke-width:0.887783" />
    <rect
       x="208.87296"
       y="112.74809"
       width="4.4963956"
       height="106.27605"
       fill="#68e1fd"
       id="rect43"
       style="stroke-width:0.887783" />
    <rect
       x="208.87296"
       y="112.74809"
       width="4.4963956"
       height="106.27605"
       fill="url(#linear-gradient-2)"
       id="rect45"
       style="fill:url(#linearGradient132);stroke-width:0.887783" />
    <rect
       x="177.84319"
       y="45.481716"
       width="70.273567"
       height="69.9039"
       fill="#fff"
       id="rect47"
       style="fill:#f4d7d7;stroke-width:1" />
    <path
       d="m 172.12303,203.75226 c 4.77453,-1.079 3.83816,5.65317 5.09901,8.1616 a 13.489187,13.418228 0 0 0 2.94815,3.35686 6.1373484,6.1050633 0 0 1 2.15085,3.82719 1.4648052,1.4570997 0 0 1 -0.17614,0.81155 1.5575144,1.5493212 0 0 1 -0.9271,0.57178 11.060206,11.002025 0 0 1 -8.16768,-0.80233 6.4896434,6.455505 0 0 1 -2.78127,-2.59143 9.0113334,8.9639298 0 0 1 -0.72313,-3.83641 c -0.1298,-2.80353 -1.38137,-8.62271 2.57731,-9.49881 z"
       fill="#fdb9a9"
       id="path49"
       style="stroke-width:0.887783" />
    <path
       d="m 176.36911,217.61315 c 0,0 13.5819,0.57177 7.82466,4.82318 -5.75724,4.25141 -14.34211,-1.0421 -15.1765,-2.01043 -0.83438,-0.96832 -0.1576,-2.62831 -0.1576,-2.62831 z"
       fill="#68e1fd"
       id="path51"
       style="stroke-width:0.887783" />
    <path
       d="m 169.61061,219.47602 c 1.21449,1.46632 7.59289,3.43986 10.41125,3.23698 2.81835,-0.20289 5.36786,-1.51244 5.08973,-3.31998 -0.27813,-1.80754 -5.26588,-6.04973 -6.20224,-6.04051 -0.93637,0.009 -1.68731,2.17643 -3.57858,2.61909 a 4.9877545,4.9615167 0 0 1 -4.63546,-1.63232 1.260845,1.2542124 0 0 0 -1.54824,-0.40577 c -0.60261,0.93144 -0.73241,4.07619 0.46354,5.54251 z"
       fill="#ffffff"
       id="path53"
       style="stroke-width:0.887783" />
    <path
       d="m 155.76913,206.40824 c 4.77452,-1.09744 3.83816,5.62551 5.09901,8.12471 a 13.229602,13.160008 0 0 0 2.94815,3.37531 6.0817229,6.0497304 0 0 1 2.14158,3.82719 1.3535542,1.3464339 0 0 1 -0.16688,0.80233 1.5575144,1.5493212 0 0 1 -0.92709,0.57177 11.125103,11.06658 0 0 1 -8.17695,-0.80233 6.4340179,6.4001721 0 0 1 -2.78127,-2.5822 9.0113334,8.9639298 0 0 1 -0.72314,-3.83641 c -0.14833,-2.84043 -1.3999,-8.63194 2.58659,-9.48037 z"
       fill="#fdb9a9"
       id="path55"
       style="stroke-width:0.887783" />
    <path
       d="m 159.9874,220.20457 c 0,0 13.59117,0.57177 7.83393,4.82319 -5.75724,4.25141 -14.34212,-1.03288 -15.1765,-2.00121 -0.83438,-0.96833 -0.1576,-2.62831 -0.1576,-2.62831 z"
       fill="#68e1fd"
       id="path57"
       style="stroke-width:0.887783" />
    <path
       d="m 153.2289,222.049 c 1.21449,1.47555 7.59288,3.43986 10.42051,3.2462 2.82763,-0.19367 5.35859,-1.51243 5.08047,-3.3292 -0.27813,-1.81676 -5.26589,-6.04973 -6.20225,-6.03128 -0.93636,0.0184 -1.68731,2.1672 -3.5693,2.60986 a 5.0341091,5.0076274 0 0 1 -4.63546,-1.64154 1.2423032,1.2357681 0 0 0 -1.53897,-0.38733 c -0.61189,0.94988 -0.76949,4.05775 0.445,5.53329 z"
       fill="#ffffff"
       id="path59"
       style="stroke-width:0.887783" />
    <path
       d="m 168.07164,145.11783 -6.37839,66.81447 -9.20602,-1.13432 c -3.6342,-16.30476 -2.73493,-65.08071 -2.73493,-65.08071 z"
       fill="#473f47"
       id="path61"
       style="stroke-width:0.887783" />
    <path
       d="m 161.69325,143.31028 6.37839,66.81448 9.27092,-1.13432 c 5.25661,-42.27434 0.92709,-68.59435 0.92709,-68.59435 z"
       fill="#473f47"
       id="path63"
       style="stroke-width:0.887783" />
    <path
       d="M 187.94849,112.54519 174.18118,98.518302 v 18.850078 a 34.775218,34.592285 0 0 0 3.08721,2.4992 c 2.59586,1.84443 6.30423,4.02086 9.13186,3.45831 a 2.7812757,2.766645 0 0 0 0.39865,-0.11067 c 1.53897,-0.50722 2.11377,-2.04732 2.21575,-3.80875 a 21.749576,21.635164 0 0 0 -1.06616,-6.86128 z"
       fill="#68e1fd"
       id="path65"
       style="fill:#1c2422;stroke-width:1" />
    <path
       d="m 177.40746,119.14825 c 0.11125,-1.22654 0.445,-2.44387 0.57479,-3.68886 a 27.979634,27.832449 0 0 0 -0.14833,-7.58061 28.452451,28.302778 0 0 0 -2.40117,-7.71894 c -1.05688,-2.12109 -2.97596,-3.015638 -5.13609,-4.076185 a 18.347149,18.250635 0 0 0 -5.78505,-1.955096 14.453363,14.377332 0 0 0 -4.28317,0.239776 c -4.33879,0.811549 -10.04967,3.043309 -12.97928,6.455505 -2.22502,2.55454 -2.48461,6.21573 -2.54951,9.60026 q -0.13906,6.99961 0.2874,13.99 c 0,0.67322 0.0834,1.34643 0.13907,2.02887 0.38937,5.10907 0.81584,10.42103 2.28064,15.3641 0.45428,1.54933 0.92709,3.10787 2.38263,3.93786 3.39315,1.96432 8.58487,0.92222 12.24688,0.37811 4.86724,-0.69166 9.85499,-1.41099 14.17524,-3.75341 a 4.0884753,4.0669681 0 0 0 2.04887,-1.96432 c 0.37084,-1.05133 -0.0834,-2.19487 -0.40792,-3.25542 -1.4648,-4.77708 -0.33375,-9.79392 -0.33375,-14.67244 0,-0.92222 -0.11125,-1.77988 -0.11125,-2.65598 a 5.497655,5.4687349 0 0 1 0,-0.67322 z"
       fill="#68e1fd"
       id="path67"
       style="fill:#165044;stroke-width:1" />
    <path
       d="m 157.96634,146.96226 c 0.47282,-0.92222 -0.52844,-3.40298 -0.14834,-4.68486 0.66751,-2.3332 1.49262,-4.13152 1.38137,-6.71372 a 34.172608,33.992845 0 0 0 -0.85292,-5.53329 l -3.10576,-14.75544 c -0.56553,-2.69287 -1.79856,-15.677656 -5.94266,-14.22978 a 8.5848711,8.5397109 0 0 0 -4.85796,5.36729 22.250206,22.13316 0 0 0 -0.8622,7.37772 c 0.0742,6.45551 1.3721,13.13234 2.20648,19.57863 0.31521,2.43464 0.70459,11.50002 3.94941,12.29312 0.62115,0.166 1.25158,0.48878 1.85419,0.59944 1.08469,0.19367 4.3666,1.48477 5.78505,1.06977 a 0.92709191,0.922215 0 0 0 0.59334,-0.36888 z"
       fill="#020202"
       opacity="0.1"
       style="isolation:isolate;stroke-width:0.887783"
       id="path69" />
    <path
       d="m 168.0531,87.414834 a 35.127512,34.942726 0 0 0 -0.24104,-3.827193 c -0.13907,-1.24499 -0.2874,-2.23176 -0.50991,-3.338418 a 2.2991879,2.2870932 0 0 0 -0.85292,-1.687653 10.615202,10.559362 0 0 0 -5.7387,-1.558544 4.6354595,4.611075 0 0 0 -5.27515,3.854859 4.2831646,4.2606333 0 0 0 -0.0556,0.682439 c -0.30594,2.766645 0.42646,5.597845 0.83439,8.401379 a 34.524903,34.343287 0 0 1 0.34302,6.529282 7.8710103,7.8296054 0 0 0 3.55076,1.254212 5.8777627,5.8468431 0 0 0 1.74293,-0.295108 1.2793868,1.2726567 0 0 0 0.77876,-0.507219 1.4091797,1.4017668 0 0 0 0.0556,-0.72855 c 0,-0.230553 -0.0556,-0.451885 -0.0556,-0.682439 v 0 a 21.434365,21.321611 0 0 1 0.0742,-3.836414 0.36156584,0.35966385 0 0 1 0.11125,-0.285887 0.44500412,0.4426632 0 0 1 0.26886,0 h 0.35229 a 11.125103,11.06658 0 0 0 1.92835,0 3.1799253,3.1631975 0 0 0 1.99325,-0.995992 4.1441008,4.122301 0 0 0 0.69532,-2.978754 z"
       fill="#fdb9a9"
       id="path71"
       style="stroke-width:0.887783" />
    <path
       d="m 165.49433,79.124121 a 5.275153,5.2474034 0 0 0 3.55076,-2.157983 3.7732641,3.7534151 0 0 0 -0.11125,-4.251411 6.4340179,6.4001721 0 0 0 -3.14285,-1.789098 3.6249294,3.6058607 0 0 1 0.2874,1.06977 8.0842415,8.0417148 0 0 0 -2.15085,-0.98677 7.2591297,7.2209434 0 0 1 0.85292,1.63232 7.4167353,7.37772 0 0 1 -2.56804,0.627107 c -1.06616,0.119888 -2.13231,0.267442 -3.1892,0.461107 a 10.568848,10.513251 0 0 0 -4.63546,1.696876 4.3480611,4.3251884 0 0 0 -1.79855,4.306744 0.84365364,0.83921565 0 0 1 0.0556,0.368886 c 0,0.221331 -0.26886,0.359664 -0.46354,0.479552 a 3.8659733,3.8456366 0 0 0 -1.17741,1.143546 3.4765947,3.4583063 0 0 0 -0.63042,1.779875 c -0.0742,1.576988 1.05688,2.951088 2.27137,3.956302 0.68605,0.571774 1.41845,1.078992 2.08596,1.659987 a 9.2709191,9.22215 0 0 1 0.92709,0.977548 c 0.17615,0.221332 0.37084,0.746994 0.68605,0.802327 0.31521,0.05533 0.53771,-0.276664 0.63042,-0.571773 a 5.8128663,5.782288 0 0 0 -0.25959,-3.81797 4.3109774,4.2882997 0 0 1 -0.63042,-1.945874 c 0.0742,-0.682439 1.00126,-1.217323 1.44627,-0.820771 0.445,0.396552 0.52844,1.383322 1.07542,1.189657 -0.63042,-1.945873 0.19469,-4.398965 2.07669,-5.164404 1.38137,-0.544107 2.95742,-0.304331 4.40368,-0.544107 z"
       fill="#2f3554"
       id="path73"
       style="stroke-width:0.887783" />
    <path
       d="m 163.41764,91.352692 a 22.250206,22.13316 0 0 1 -4.33879,-1.281879 c -0.12979,4.509631 3.56003,5.441068 3.56003,5.441068 v 0 a 21.434365,21.321611 0 0 1 0.0742,-3.836414 0.39864952,0.39655245 0 0 1 0.11125,-0.285887 0.44500412,0.4426632 0 0 1 0.26886,0 h 0.32448 z"
       fill="#de9f93"
       id="path75"
       style="stroke-width:0.887783" />
    <path
       d="m 199.93579,112.73886 c -0.39865,-1.13433 -0.92709,-2.43465 -1.58533,-2.69287 -1.10324,-0.45189 -10.42051,2.4992 -10.42051,2.4992 0,0 -4.08848,2.18565 -3.94014,5.93907 a 6.9717312,6.9350568 0 0 0 1.5946,3.91019 2.4567936,2.4438697 0 0 0 1.19595,0.82077 2.1230405,2.1118724 0 0 0 0.87146,0.0922 13.229602,13.160008 0 0 0 6.21152,-2.21331 27.256502,27.113121 0 0 0 6.61943,-6.55695 18.745798,18.647187 0 0 0 -0.54698,-1.79832 z"
       fill="#68e1fd"
       id="path77"
       style="fill:#0b2822;stroke-width:1" />
    <path
       d="m 199.93579,112.74808 a 44.148117,43.915878 0 0 1 -9.5954,6.25262 5.2380693,5.2105148 0 0 1 -1.34428,0.40577 8.3994527,8.3552679 0 0 1 -5.03411,-0.92221 22.250206,22.13316 0 0 1 -5.83141,-4.30675 l -0.88074,5.63474 v 0.0553 c 2.59586,1.84443 6.30423,4.02086 9.13186,3.45831 a 2.7812757,2.766645 0 0 0 0.39865,-0.11067 2.1230405,2.1118724 0 0 0 0.87146,0.0922 13.229602,13.160008 0 0 0 6.21152,-2.21331 27.256502,27.113121 0 0 0 6.61943,-6.55695 18.180272,18.084636 0 0 0 -0.54698,-1.7891 z"
       fill="#020202"
       opacity="0.1"
       style="isolation:isolate;stroke-width:0.887783"
       id="path79" />
    <path
       d="m 198.59151,113.23685 a 1.8541838,1.84443 0 0 0 1.09397,0.14756 17.614746,17.522085 0 0 0 4.34806,-0.62711 6.9810021,6.9442789 0 0 0 3.61565,-2.37009 4.4036866,4.3805212 0 0 0 0.70459,-4.13152 1.1681358,1.1619909 0 0 0 -0.57479,-0.71011 1.3628251,1.355656 0 0 0 -0.81584,0 30.399344,30.23943 0 0 0 -3.38389,1.0421 3.2448217,3.2277525 0 0 1 -1.21449,0.29511 1.029072,1.0236586 0 0 1 -0.99199,-0.6271 2.0303313,2.0196509 0 0 0 -0.1576,-0.50722 0.59333882,0.5902176 0 0 0 -0.81584,-0.0553 1.7892874,1.7798749 0 0 0 -0.47282,0.76544 c -0.46355,1.14355 -3.13357,5.75463 -1.33501,6.77828 z"
       fill="#fdb9a9"
       id="path81"
       style="stroke-width:0.887783" />
    <rect
       x="263.90515"
       y="183.30675"
       width="3.1521125"
       height="28.95755"
       fill="#4c506d"
       id="rect83"
       style="stroke-width:0.887783" />
    <path
       d="m 249.07166,215.50127 c 0,2.13954 7.34257,3.88253 16.40026,3.88253 9.05768,0 16.39098,-1.74299 16.39098,-3.88253 a 17.698185,17.605084 0 0 0 0,-2.4162 c -1.16813,-1.84443 -8.15841,-1.46632 -16.39098,-1.46632 -7.92664,0 -14.83347,-0.30433 -16.40026,1.46632 a 9.6788395,9.6279246 0 0 0 0,2.4162 z"
       fill="#2f3554"
       id="path85"
       style="stroke-width:0.887783" />
    <ellipse
       cx="265.48117"
       cy="213.11275"
       rx="16.390985"
       ry="3.8825252"
       fill="#4c506d"
       id="ellipse87"
       style="stroke-width:0.887783" />
    <path
       d="m 260.47489,178.03168 h 27.12671 l 6.48964,-35.04417 a 4.1997264,4.177634 0 0 0 -3.36534,-4.87852 4.4314993,4.4081877 0 0 0 -0.77876,-0.0738 h -18.54183 a 4.2182682,4.1960782 0 0 0 -4.15338,3.43064 z"
       fill="#4c506d"
       id="path89"
       style="stroke-width:0.887783" />
    <path
       d="m 253.25285,178.03168 h 27.1267 l 6.48965,-35.04417 a 4.1997264,4.177634 0 0 0 -3.36535,-4.87852 4.4314993,4.4081877 0 0 0 -0.77875,-0.0738 h -18.54184 a 4.2182682,4.1960782 0 0 0 -4.15337,3.43064 z"
       fill="#2f3554"
       id="path91"
       style="stroke-width:0.887783" />
    <rect
       x="257.60089"
       y="172.74739"
       width="30.167572"
       height="10.568583"
       rx="5.3122368"
       fill="#4c506d"
       id="rect93"
       style="stroke-width:0.887783" />
    <path
       d="m 267.22412,114.75851 c -1.14032,-2.21332 -6.57308,-3.55053 -8.99279,-3.96553 -2.99451,-0.52566 -6.38766,0 -8.50143,2.2041 -2.11377,2.20409 -2.26211,6.26184 0.2225,8.03249 0.55625,0.40577 1.20522,0.67322 1.73366,1.11588 1.38137,1.18044 1.48335,3.30153 1.12178,5.08141 -0.36156,1.77987 -1.11251,3.52286 -1.06615,5.33962 0.0463,1.81676 1.27938,3.81797 3.10575,3.86408 1.06616,0 2.30846,-0.56255 3.08722,0.15678 a 2.289917,2.2778711 0 0 1 0.54698,1.30032 c 0.75095,3.91019 1.0847,8.13394 3.70837,11.06658 a 11.421772,11.361689 0 0 0 6.86048,3.38453 c 3.17993,0.47955 6.73069,-0.12911 8.95571,-2.44387 a 8.4643491,8.419823 0 0 0 2.09523,-6.65839 11.829693,11.767463 0 0 0 -3.05941,-6.4094 2.0766859,2.0657616 0 0 1 -0.54698,-0.84843 c -0.16688,-0.71011 0.49136,-1.30033 0.88074,-1.94588 a 3.8288896,3.8087479 0 0 0 -0.65824,-4.27908 9.5305048,9.4803702 0 0 0 -3.9216,-2.40698 8.3438272,8.299935 0 0 1 -3.11503,-1.70609 c -1.52043,-1.57699 -1.37209,-4.05775 -1.25157,-6.23418 0.48209,-8.04171 -8.1306,-12.74501 -15.32483,-9.98759 -3.16138,1.20811 -2.17867,3.68886 -2.17867,3.68886 0,0 3.87525,-1.00521 6.61944,0 2.74419,1.00522 1.31647,3.34764 1.38137,4.16842 a 5.1453601,5.1182932 0 0 0 1.96543,3.60586 c 0.56553,-0.43345 1.3721,-0.83 1.96544,0.22133 0.46354,0.82077 -0.98272,3.52286 -2.08596,3.43064 0,0 -1.05688,0.69166 -0.55625,2.60064 0,0 4.3017,-1.84443 5.72015,-3.7903 1.41845,-1.94587 2.41971,-6.36328 1.28866,-8.58582 z"
       fill="#ff681c"
       id="path95"
       style="fill:#241c1c;stroke-width:1" />
    <path
       d="m 270.82124,143.68839 c -2.63294,1.50321 -4.86724,-0.0738 -5.5162,-2.76664 -0.2874,-1.21733 -0.39865,-2.47154 -0.7973,-3.64275 a 17.967041,17.872527 0 0 0 -2.45679,-4.22375 12.052195,11.988795 0 0 1 -2.11377,-4.38974 4.6354595,4.611075 0 0 1 1.42772,-4.44508 1.4648052,1.4570997 0 0 1 1.05688,-0.36888 c 0.61189,0.0645 0.97345,0.74699 1.06616,1.36488 a 8.3438272,8.299935 0 0 0 0.2874,1.84443 3.7083676,3.68886 0 0 0 2.18794,1.65076 c 2.04887,0.82999 4.25535,1.57699 5.70161,3.2462 a 7.7412174,7.7004952 0 0 1 1.64095,5.46873 c -0.0834,1.82599 -0.64896,5.21974 -2.4846,6.26184 z"
       fill="#ff681c"
       id="path97"
       style="fill:#241c1c;stroke-width:1" />
    <path
       d="m 245.46527,156.75618 2.97597,11.13113 c 8.66831,1.77988 18.54184,-1.65076 18.54184,-1.65076 -0.47282,-4.95229 0,-11.73058 0.92709,-13.83323 2.44752,-5.63473 5.47911,-13.08623 1.95616,-17.34686 -2.82763,-3.42142 -8.01934,-3.08942 -11.19,-3.00642 a 86.117568,85.664551 0 0 1 -9.40998,-0.35044 c -12.07074,12.85568 -3.80108,25.05658 -3.80108,25.05658 z"
       fill="#4c506d"
       id="path99"
       style="stroke-width:0.887783" />
    <path
       d="m 256.21027,111.1342 -3.70837,10.45792 c 0,0 -6.04464,0.11067 -4.80233,-5.92062 1.2423,-6.03128 5.43275,-6.27106 5.43275,-6.27106 z"
       fill="#ff681c"
       id="path101"
       style="fill:#241c1c;stroke-width:1" />
    <path
       d="m 261.63376,111.29098 c 0,0 -10.10531,-2.82198 -11.7648,4.22374 a 18.643818,18.545744 0 0 0 -0.5099,4.4543 14.230861,14.156 0 0 0 0.0556,1.53088 c 0.45427,4.61108 2.78127,8.12471 6.53599,7.81116 6.58236,-0.58099 13.60044,-14.51566 5.68308,-18.02008 z"
       fill="#ec9c7d"
       id="path103"
       style="stroke-width:0.887783" />
    <path
       d="m 260.47489,124.44177 a 0.66750618,0.6639948 0 0 0 0.92709,0 8.1027833,8.0601591 0 0 0 -1.35355,3.68886 c -0.5099,3.81797 1.35355,3.96552 1.35355,3.96552 -6.89756,3.84564 -7.91736,1.23577 -7.91736,1.23577 a 4.0328498,4.0116352 0 0 0 0.24104,-4.27908 c 3.13357,0.85766 5.88704,-2.82198 6.54527,-4.89696 a 0.6304225,0.6271062 0 0 0 0.20396,0.28589 z"
       fill="#d68369"
       id="path105"
       style="stroke-width:0.887783" />
    <path
       d="m 254.37463,110.21199 a 4.1904554,4.1684118 0 0 1 1.65949,-0.22133 c 2.78128,0 5.72943,0.166 8.25112,1.41099 1.5946,0.7931 3.06867,2.18565 3.1892,3.9563 a 7.2035041,7.1656105 0 0 1 -0.50063,2.63753 7.7319465,7.6912731 0 0 0 -0.55626,2.02888 c 0,0.53488 0.20396,1.08821 0.20396,1.64154 a 6.0817229,6.0497304 0 0 1 -1.06615,3.42142 12.052195,11.988795 0 0 1 -1.90981,2.02887 l -1.49262,1.36488 a 0.45427504,0.45188535 0 0 1 -0.25032,0.13833 0.38010768,0.37810815 0 0 1 -0.2225,-0.0738 3.3097181,3.2923076 0 0 1 -1.64095,-3.13553 1.9098093,1.8997629 0 0 1 0.56552,-1.23577 6.1280775,6.0958411 0 0 1 0.9271,-0.52566 2.4475226,2.4346476 0 0 0 1.16813,-2.0842 1.0568848,1.0513251 0 0 0 -0.40792,-0.92222 0.8714664,0.8668821 0 0 0 -1.01053,0.17522 c -0.39865,0.35966 -0.35229,0.75622 -0.86219,0.86688 a 2.8461722,2.8312001 0 0 1 -1.53898,-0.47955 c -3.3468,-1.84443 -4.63546,-6.71372 -5.65526,-10.14436 0.48209,-0.11989 0.66751,-0.64555 1.1496,-0.84844 z"
       fill="#ff681c"
       id="path107"
       style="fill:#241c1c;stroke-width:1" />
    <path
       d="m 262.35689,146.05849 c 2.78127,-8.04172 4.63546,-11.9888 7.46309,-10.99281 0,0 3.70837,1.84443 1.60387,9.22215 -2.34555,8.29994 -8.58487,16.03732 -8.58487,16.03732 l -2.89253,-6.31717 c 0,0 0.89001,-3.52286 2.41044,-7.94949 z"
       fill="#ec9c7d"
       id="path109"
       style="stroke-width:0.887783" />
    <path
       d="m 232.84755,175.52325 c 0.17615,-0.2121 0.75095,-0.92221 1.61314,-1.84443 l -0.21323,0.22134 c -0.49136,0.50721 -0.93636,1.06977 -1.39991,1.62309 z"
       fill="#dc9bd5"
       id="path111"
       style="stroke-width:0.887783" />
    <path
       d="m 266.53807,163.85723 c -3.82889,0.22134 -7.85247,0.48878 -11.77406,1.06055 0,0 -15.41754,12.91101 -17.37371,16.0281 -4.56129,7.25783 -8.98352,5.19207 -2.39189,15.79754 l 13.21106,21.21095 c 2.25283,0.75621 4.63546,-1.2081 5.29369,-3.4952 0.65824,-2.28709 0,-4.68485 -0.69532,-6.9535 q -2.01179,-6.87972 -3.98649,-13.72256 c -0.27813,-1.03288 -0.56553,-2.21331 0,-3.12631 a 3.9030569,3.8825252 0 0 1 1.43699,-1.18965 c 1.55751,-0.92222 2.63294,-3.12631 4.3666,-3.68886 a 29.036519,28.883774 0 0 0 8.34383,-3.68886 11.736984,11.675242 0 0 0 5.07119,-7.31317 c 0.62115,-3.5413 -1.07543,-7.17483 -1.50189,-10.91903 z"
       fill="#68e1fd"
       id="path113"
       style="fill:#ff0000;stroke-width:1" />
    <path
       d="m 254.72692,164.98234 c -3.15211,0.38733 -8.39018,-1.05133 -8.39018,-1.05133 -4.50567,2.00121 -9.38217,6.97195 -11.88532,9.75704 v 0 c -0.85292,0.92221 -1.42772,1.64154 -1.60387,1.84443 v 0 l -0.25031,0.31355 c -2.78128,3.68886 -4.53348,8.04171 -6.2486,12.31157 l -8.69612,21.55216 a 5.2009856,5.1736262 0 0 0 -0.52845,2.16721 c 0.1298,2.6652 3.70837,3.37531 6.38767,3.31075 l 11.56083,-18.4443 c 0,0 -2.18793,-6.57539 2.38263,-15.79754 1.68731,-3.30153 17.3737,-16.0281 17.3737,-16.0281 z"
       fill="#68e1fd"
       id="path115"
       style="stroke-width:0.887783" />
    <path
       d="m 254.72692,164.98234 c -3.15211,0.38733 -8.39018,-1.05133 -8.39018,-1.05133 -4.50567,2.00121 -9.38217,6.97195 -11.88532,9.75704 v 0 c -0.85292,0.92221 -1.42772,1.64154 -1.60387,1.84443 v 0 l -0.25031,0.31355 c -2.78128,3.68886 -4.53348,8.04171 -6.2486,12.31157 l -8.69612,21.55216 a 5.2009856,5.1736262 0 0 0 -0.52845,2.16721 c 0.1298,2.6652 3.70837,3.37531 6.38767,3.31075 l 11.56083,-18.4443 c 0,0 -2.18793,-6.57539 2.38263,-15.79754 1.68731,-3.30153 17.3737,-16.0281 17.3737,-16.0281 z"
       fill="url(#linear-gradient-3)"
       id="path117"
       style="fill:#ff0000;stroke-width:1" />
    <path
       d="m 248.45978,219.81724 a 16.492965,16.406205 0 0 1 0.87147,-1.92743 12.265426,12.200904 0 0 1 1.85418,-1.4571 c 0.26886,-0.23977 1.85418,-1.56776 1.76148,-1.94587 a 21.137696,21.026502 0 0 0 1.42772,3.68886 3.8474314,3.8271923 0 0 1 0.64896,2.29631 3.4487819,3.4306398 0 0 1 -1.41845,1.84443 c -2.46606,2.01965 -5.40495,3.93786 -8.5756,3.58742 a 0.76948629,0.76543845 0 0 1 -0.53771,-0.21211 0.68604801,0.6824391 0 0 1 -0.11125,-0.39655 c -0.0556,-1.39255 1.32574,-2.34243 2.35481,-3.29231 a 8.9927915,8.9454855 0 0 0 1.72439,-2.18565 z"
       fill="#ec9c7d"
       id="path119"
       style="stroke-width:0.887783" />
    <path
       d="m 217.43929,213.73984 c 0.63042,-0.72855 0.69531,-0.74699 1.63168,-0.33199 a 12.552824,12.486791 0 0 1 1.96543,1.1251 0.32448217,0.32277525 0 0 1 0.17615,0.20289 0.41719136,0.41499675 0 0 1 0,0.25822 l -0.92709,2.76664 a 1.9376221,1.9274293 0 0 1 -0.60261,1.0421 1.9839767,1.9735401 0 0 1 -0.85293,0.25822 20.396022,20.28873 0 0 1 -6.96246,0.19367 c -0.59334,-0.11989 -1.25157,-0.43344 -1.25157,-1.01444 a 1.0846975,1.0789915 0 0 1 0.24104,-0.59021 c 0.70459,-0.92222 1.99325,-1.15277 3.10576,-1.5401 a 8.2696598,8.2261578 0 0 0 3.4766,-2.3701 z"
       fill="#ec9c7d"
       id="path121"
       style="stroke-width:0.887783" />
    <path
       d="m 219.27493,218.44314 a 4.7188978,4.6940743 0 0 0 -1.85419,0.32278 13.776586,13.704115 0 0 1 -2.14158,0.24899 2.289917,2.2778711 0 0 1 -1.7522,-0.4611 c -0.42647,-0.43344 -0.47282,-1.11588 -0.85293,-1.58621 a 1.8541838,1.84443 0 0 0 -1.44626,-0.65478 4.7281687,4.7032965 0 0 0 -1.5946,0.34122 7.7041338,7.6636066 0 0 0 -3.48586,2.3701 0.71386077,0.71010555 0 0 0 -0.18542,0.43344 0.57479698,0.5717733 0 0 0 0.12979,0.29511 3.4858656,3.4675284 0 0 0 2.45679,1.07899 41.199964,40.983235 0 0 0 6.3135,0.57177 16.020148,15.935875 0 0 1 3.1243,0.11067 0.8714664,0.8668821 0 0 0 0.5748,0 0.76948629,0.76543845 0 0 0 0.27812,-0.31356 c 0.3523,-0.6271 1.66877,-2.44387 0.43574,-2.75742 z"
       fill="#68e1fd"
       id="path123"
       style="stroke-width:0.887783;fill:#ffff00" />
    <path
       d="m 254.49515,219.19013 c -0.61188,0.19367 -1.12178,1.05133 -1.55752,1.49399 a 15.157953,15.078215 0 0 1 -1.85418,1.58621 2.632941,2.6190906 0 0 1 -1.96543,0.65478 c -0.67678,-0.13834 -1.17741,-0.75622 -1.85419,-0.92222 a 2.1508532,2.1395388 0 0 0 -1.78929,0.30433 5.154631,5.1275154 0 0 0 -1.3072,1.30032 8.9557079,8.9085969 0 0 0 -1.78928,4.4543 0.80656996,0.80232705 0 0 0 0.10198,0.52567 0.68604801,0.6824391 0 0 0 0.30594,0.20288 3.9494115,3.9286359 0 0 0 3.02232,-0.5441 48.449823,48.194956 0 0 0 6.35985,-3.43987 16.910156,16.821202 0 0 1 3.03159,-1.84443 1.0012593,0.9959922 0 0 0 0.53771,-0.36888 0.85292456,0.8484378 0 0 0 0.0556,-0.47955 c -0.0464,-0.85766 0.0278,-3.42142 -1.29793,-2.92343 z"
       fill="#68e1fd"
       id="path125"
       style="stroke-width:0.887783;fill:#ffff00" />
    <path
       d="m 272.48073,137.41733 c -0.70459,-1.89054 -4.21827,-6.06817 -6.59162,-4.34363 a 8.3438272,8.299935 0 0 0 -3.08722,4.55574 c -0.2225,0.83922 -0.29667,1.73376 -0.5099,2.60065 -0.2874,1.06977 -0.74167,2.0842 -0.92709,3.16319 a 13.498458,13.42745 0 0 0 -0.0649,3.43987 c 2.26211,-0.31356 4.52421,-0.64555 6.76777,-0.98677 l 3.38389,-0.53489 c 0.63042,-0.0922 1.90054,0.15678 2.21575,-0.48877 a 2.1044986,2.0934281 0 0 0 0.0649,-1.18966 l -0.27813,-1.89976 a 20.720504,20.611505 0 0 0 -0.92709,-4.14997 z"
       fill="#4c506d"
       id="path127"
       style="stroke-width:0.887783" />
    <path
       d="m 191.18404,219.39302 c 0,2.13954 -7.33329,3.88253 -16.39098,3.88253 -9.05769,0 -16.39099,-1.74299 -16.39099,-3.88253 a 17.698185,17.605084 0 0 1 0,-2.4162 c 1.15887,-1.84443 8.15841,-1.46632 16.39099,-1.46632 7.92663,0 14.83347,-0.30433 16.39098,1.46632 0.2225,0.249 0,2.14876 0,2.4162 z"
       fill="#68e1fd"
       id="path129"
       style="stroke-width:0.887783" />
    <ellipse
       cx="174.79306"
       cy="216.97682"
       rx="16.390985"
       ry="3.8825252"
       fill="#68e1fd"
       id="ellipse131"
       style="stroke-width:0.887783" />
    <ellipse
       cx="174.79306"
       cy="216.97682"
       rx="16.390985"
       ry="3.8825252"
       fill="url(#linear-gradient-4)"
       id="ellipse133"
       style="fill:url(#linear-gradient-4);stroke-width:0.887783" />
    <ellipse
       cx="83.520859"
       cy="221.44034"
       rx="16.390985"
       ry="3.8825252"
       fill="#4c506d"
       id="ellipse135"
       style="stroke-width:0.887783" />
    <rect
       x="172.91106"
       y="180.55855"
       width="3.8010767"
       height="36.685711"
       fill="#68e1fd"
       id="rect137"
       style="stroke-width:0.887783" />
    <rect
       x="172.91106"
       y="180.55855"
       width="3.8010767"
       height="12.671234"
       fill="url(#linear-gradient-5)"
       id="rect139"
       style="fill:url(#linear-gradient-5);stroke-width:0.887783" />
    <path
       d="m 127.41866,215.15083 v 5.5794 h 20.09935 c 0,0 -1.16813,-4.2883 -9.13185,-5.5794 l -2.6144,-2.11187 z"
       fill="#68e1fd"
       id="path141"
       style="stroke-width:0.887783" />
    <path
       d="m 127.41866,215.15083 v 5.5794 h 20.09935 c 0,0 -1.16813,-4.2883 -9.13185,-5.5794 l -2.6144,-2.11187 z"
       fill="url(#linear-gradient-6)"
       id="path143"
       style="fill:url(#linear-gradient-6);stroke-width:0.887783" />
    <rect
       x="126.51011"
       y="220.73024"
       width="21.66614"
       height="1.4294332"
       fill="#68e1fd"
       id="rect145"
       style="stroke-width:0.887783" />
    <rect
       x="81.954071"
       y="189.22737"
       width="3.1521125"
       height="28.95755"
       fill="#4c506d"
       id="rect147"
       style="stroke-width:0.887783" />
    <path
       d="m 99.921115,221.44034 c 0,2.14876 -7.342568,3.88252 -16.400256,3.88252 -9.057688,0 -16.390985,-1.73376 -16.390985,-3.88252 a 17.559121,17.466752 0 0 1 0,-2.40698 c 1.168136,-1.84443 8.158409,-1.46632 16.390985,-1.46632 7.926636,0 14.83347,-0.30433 16.400256,1.46632 a 9.6046722,9.5541474 0 0 1 0,2.40698 z"
       fill="#2f3554"
       id="path149"
       style="stroke-width:0.887783" />
    <ellipse
       cx="83.520859"
       cy="219.03336"
       rx="16.390985"
       ry="3.8825252"
       fill="#4c506d"
       id="ellipse151"
       style="stroke-width:0.887783" />
    <path
       d="M 88.527155,183.94308 H 61.400446 l -6.489644,-35.04417 a 4.2182682,4.1960782 0 0 1 3.356073,-4.90619 4.125559,4.1038567 0 0 1 0.750945,-0.0738 h 18.541838 a 4.2275391,4.2053004 0 0 1 4.153371,3.43986 z"
       fill="#4c506d"
       id="path153"
       style="stroke-width:0.887783" />
    <path
       d="M 95.749201,183.94308 H 68.622492 l -6.489644,-35.04417 a 4.2089973,4.1868561 0 0 1 3.374615,-4.88774 4.3295192,4.306744 0 0 1 0.769486,-0.0738 h 18.541838 a 4.2275391,4.2053004 0 0 1 4.153372,3.43986 z"
       fill="#2f3554"
       id="path155"
       style="stroke-width:0.887783" />
    <rect
       x="61.233566"
       y="178.65878"
       width="30.167572"
       height="10.568583"
       rx="5.3122368"
       fill="#4c506d"
       id="rect157"
       style="stroke-width:0.887783" />
    <rect
       x="73.165237"
       y="178.65878"
       width="30.167572"
       height="10.568583"
       rx="5.3122368"
       fill="#2f3554"
       id="rect159"
       style="stroke-width:0.887783" />
    <path
       d="m 75.075051,150.12545 a 19.181532,19.080628 0 0 1 1.251574,3.59664 c 0.278128,1.52166 0.713861,2.9972 1.010531,4.51886 a 52.705175,52.427923 0 0 1 0.760215,9.30514 c 0,1.22655 0,2.60987 0.927092,3.46753 a 4.4036866,4.3805212 0 0 0 2.262104,0.92222 c 1.603869,0.32277 3.050133,0.92221 4.63546,1.22654 a 31.150288,30.986424 0 0 0 5.256611,0.30434 c 5.182444,0 14.833472,-0.57178 14.508992,-7.79272 -0.3523,-8.17083 -0.99199,-16.12032 -2.13232,-24.26348 -0.39864,-2.76664 -0.47281,-5.87451 -1.30719,-8.50282 -0.71387,-2.20409 -3.28191,-2.22254 -5.423492,-2.00121 h -0.407921 a 9.1411262,9.0930399 0 0 0 -1.233032,0.14756 59.129922,58.818873 0 0 1 -8.594142,0.249 c -3.235551,-0.10145 -8.399453,-0.42422 -11.570107,2.60064 a 6.1095357,6.0773968 0 0 0 -0.621152,0.67322 c -3.23555,3.84564 -1.474076,10.07059 0.676777,15.54854 z"
       fill="#ffffff"
       id="path161"
       style="stroke-width:0.887783" />
    <path
       d="m 116.8869,148.17958 a 34.09844,33.919068 0 0 1 0.42646,5.20129 3.1799253,3.1631975 0 0 1 -0.38011,1.76143 3.0130487,2.9971987 0 0 1 -2.66075,0.92222 11.968757,11.905796 0 0 1 -8.34383,-3.46753 51.286724,51.016934 0 0 1 -5.63672,-6.60306 5.4791132,5.4502907 0 0 1 -1.279386,-4.00241 c 0,-1.97354 0.08344,-3.95631 0.259586,-5.92985 0,-0.4611 3.24482,-0.0922 3.56003,0 a 12.923661,12.855677 0 0 1 3.38389,1.51244 26.616809,26.476793 0 0 0 -0.3523,-4.09464 1.9839767,1.9735401 0 0 1 0.1298,-1.15277 c 0.36156,-0.64555 1.27011,-0.7101 2.02106,-0.63632 1.60387,0.11066 3.37461,0.3781 4.3666,1.62309 a 5.9797428,5.9482867 0 0 1 0.92709,1.9551 77.792282,77.383061 0 0 1 3.57858,12.91101 z"
       fill="#ffffff"
       id="path163"
       style="stroke-width:0.887783" />
    <path
       d="m 112.14019,149.85801 a 2.8554431,2.8404222 0 0 1 -0.19469,1.92743 c -0.71386,1.07899 -2.34555,0.71011 -3.51368,0.18444 a 28.54516,28.395 0 0 1 -4.42223,-2.64675 1.1774067,1.171213 0 0 0 -0.87147,-0.34122 1.0846975,1.0789915 0 0 0 -0.58406,0.42422 23.00115,22.880154 0 0 1 -7.759764,5.53329 c -1.01053,0.44266 -2.336271,0.7101 -3.059403,-0.0738 -0.723132,-0.78388 -0.148335,-2.26865 0.491359,-3.2462 l 7.639237,-11.7398 a 0.83438272,0.8299935 0 0 1 0.398651,-0.39655 c 0.29667,-0.0922 0.58407,0.11989 0.82511,0.32278 a 15.686395,15.603878 0 0 0 3.46732,2.26865 2.058144,2.0473173 0 0 0 1.47408,0.25822 c 0.71386,-0.23978 0.92709,-1.10666 1.04761,-1.84443 a 19.839767,19.735401 0 0 0 0.10198,-3.68886 3.4209691,3.4029734 0 0 1 0.0927,-1.52166 1.7058491,1.6968756 0 0 1 2.28065,-0.7931 v 0 l 0.16688,0.083 c 0.92709,0.7101 0.78802,3.39375 0.92709,4.52807 z"
       fill="#d8dae1"
       id="path165"
       style="stroke-width:0.887783" />
    <path
       d="m 85.745879,149.44301 a 10.754266,10.697694 0 0 0 2.781276,3.26465 c 1.242303,0.96832 4.125559,4.75863 5.914846,3.60586 a 7.2962133,7.257832 0 0 1 -2.716379,1.48476 c 2.781276,1.93665 6.2486,2.45309 9.567588,3.07098 a 6.3876633,6.3540613 0 0 1 2.44752,0.82077 2.2991879,2.2870932 0 0 1 1.13106,2.17643 c -0.24105,1.48476 -2.14159,1.92743 -3.70837,2.01965 -3.70837,0.23055 -7.472363,0.30433 -11.125105,0.76544 -3.161384,0.3781 -6.55454,1.19888 -8.501433,3.68886 a 1.4277215,1.4202111 0 0 1 -0.556255,0.51644 0.92709191,0.922215 0 0 1 -1.001259,-0.48878 2.5958573,2.582202 0 0 1 -0.203961,-1.18043 34.246775,34.066622 0 0 0 -1.427721,-9.08382 c -0.352295,-1.18966 -0.39865,-2.39776 -0.750945,-3.54131 -0.426462,-1.41098 -1.195948,-2.76664 -1.687307,-4.13152 a 40.94965,40.734237 0 0 1 -1.937622,-8.69649 c -0.231773,-2.07498 -0.08344,-4.61107 1.71512,-5.67162 a 3.9494115,3.9286359 0 0 1 4.273894,0.44266 8.9186242,8.8717083 0 0 1 2.614399,3.62431 c 1.038343,2.36087 1.854184,5.06296 3.170654,7.31316 z"
       fill="#d8dae1"
       id="path167"
       style="stroke-width:0.887783" />
    <path
       d="m 93.440742,136.50434 a 1.3813669,1.3741003 0 0 0 -0.241044,0.44266 1.0105302,1.0052144 0 0 0 0.111251,0.51644 96.844021,96.334579 0 0 1 3.93087,13.48278 69.531893,69.166125 0 0 1 2.132311,12.19169 2.2342915,2.2225382 0 0 1 -0.0649,0.92221 c -0.30594,1.01444 -1.650224,1.33721 -2.234292,2.23176 l -1.854183,-2.21331 a 1.4648052,1.4570997 0 0 1 -0.305941,-0.44267 1.5482435,1.540099 0 0 1 0,-0.7101 c 0.667506,-4.40819 -0.0649,-8.9086 -1.103239,-13.24301 -0.927092,-3.68886 -2.02106,-7.46072 -1.946893,-11.29713 A 1.6409527,1.6323205 0 0 0 91.466036,137.113 2.289917,2.2778711 0 0 0 90.826343,136.79945 2.1508532,2.1395388 0 0 1 89.788,133.97747 l 0.05563,-0.10144 a 2.6143992,2.6006463 0 0 0 1.177406,-0.30434 1.724391,1.7153199 0 0 1 1.195949,-0.15677 c 0.843653,0.32277 1.733662,2.24098 1.223761,3.08942 z"
       fill="#68e1fd"
       id="path169"
       style="stroke-width:0.887783;fill:#241c1c" />
    <path
       d="m 74.9638,133.94058 c 3.179926,-3.02486 8.343828,-2.71131 11.570107,-2.60987 a 57.933973,57.629215 0 0 0 8.603413,-0.249 l 1.223762,-0.14755 c -1.696579,-0.71011 -4.116288,-0.23055 -5.94266,-0.166 -2.781275,0.083 -5.562551,0.25822 -8.269659,0.498 -2.707109,0.23977 -5.516197,0.68244 -7.184963,2.67442 z"
       fill="#ffffff"
       id="path171"
       style="stroke-width:0.887783" />
    <path
       d="m 84.74462,122.625 a 5.8221372,5.7915102 0 0 0 7.073711,3.47675 c 0,0 -1.335012,4.06697 0.343024,6.52929 0.315212,0.4611 -1.798558,0.92221 -1.91908,0.92221 a 8.7981022,8.7518204 0 0 1 -3.476595,-0.73777 23.362716,23.239818 0 0 0 -5.312236,-1.75221 3.7083676,3.68886 0 0 0 1.928351,-1.99198 c 0.982717,-2.04732 0.658235,-3.89175 0.268857,-5.98518 a 0.7787572,0.7746606 0 0 0 0.927091,-0.0922 0.67677709,0.67321695 0 0 0 0.166877,-0.36889 z"
       fill="#d68369"
       id="path173"
       style="stroke-width:0.887783" />
    <path
       d="m 88.434446,127.89085 c 3.967953,1.16199 7.203504,-2.09343 8.668309,-6.89817 0.157606,-0.51644 0.29667,-1.06977 0.407921,-1.6231 a 21.072799,20.961947 0 0 0 0.435733,-4.86007 c -0.213231,-7.87572 -11.59792,-7.08261 -11.59792,-7.08261 -9.215294,2.01965 -4.811607,18.41663 2.085957,20.46395 z"
       fill="#ec9c7d"
       id="path175"
       style="stroke-width:0.887783" />
    <path
       d="m 94.247312,106.10813 a 5.9797428,5.9482867 0 0 1 3.560033,2.46232 18.235898,18.139969 0 0 0 1.242303,1.97354 c 0.713861,0.85766 1.770742,1.47554 2.141582,2.52686 a 8.019345,7.9771597 0 0 1 -5.228798,-0.92221 1.4462634,1.4386554 0 0 1 -1.242303,0.70088 4.23681,4.2145225 0 0 1 -1.474076,-0.27666 1.372096,1.3648782 0 0 0 -0.815841,-0.0646 1.7336619,1.7245421 0 0 0 -0.546984,0.38733 3.6527421,3.6335271 0 0 1 -3.43024,0.71011 c -0.713861,-0.21211 -1.427722,-0.64555 -2.085957,-0.42422 a 2.178666,2.1672053 0 0 0 -1.121781,2.01965 c 0,0.47955 0.241044,0.92222 0.250314,1.42943 a 4.2831646,4.2606333 0 0 1 -0.222502,1.52166 3.7083676,3.68886 0 0 0 -0.927092,-0.92222 1.2793868,1.2726567 0 0 0 -1.251574,-0.0461 1.2979287,1.291101 0 0 0 -0.389378,0.38733 2.4846063,2.4715362 0 0 0 0.398649,3.14476 c -0.129793,0.48877 -0.250314,0.98677 -0.352295,1.48476 a 8.3438272,8.299935 0 0 1 -1.483347,-2.32398 13.906379,13.833225 0 0 0 -1.195948,-2.76664 6.6194362,6.5846151 0 0 1 -0.927092,-1.27266 7.7504884,7.7097174 0 0 0 -0.370837,-1.00521 c -0.472817,-0.82078 -1.11251,-1.63232 -0.843654,-2.64676 0.268857,-1.01444 1.483348,-1.84443 1.186678,-2.85887 -0.0649,-0.18444 -0.120522,-0.37811 -0.176147,-0.57177 a 1.5667853,1.5585433 0 0 1 0.185418,-0.83922 7.8246557,7.7834946 0 0 1 5.386404,-4.08541 17.225368,17.134755 0 0 1 6.953189,0.083 c 2.308459,0.39655 4.63546,0.96833 6.925377,1.14355 a 0.54698423,0.54410685 0 0 1 0.50063,0.22133 0.41719136,0.41499675 0 0 1 0,0.25822 c -0.09271,0.49799 -0.565527,0.82999 -0.927092,1.17121 -0.361566,0.34122 -0.70459,0.92222 -0.426463,1.34644"
       fill="#2f3554"
       id="path177"
       style="fill:#241c1c;stroke-width:1" />
    <path
       d="m 85.680983,167.73976 c 0,0 4.820878,11.9888 8.696122,13.24301 3.875244,1.25421 18.208085,5.60706 18.208085,5.60706 l 15.36191,31.00487 7.83393,-4.79551 -12.97929,-37.34971 -15.64931,-7.90339 c 0,0 -3.99576,0.0646 -21.471447,0.19367 z"
       fill="#2f3554"
       id="path179"
       style="stroke-width:0.887783" />
    <path
       d="m 78.99665,170.03608 c 0,0 -0.927092,10.93747 2.966694,12.2009 3.893786,1.26343 18.198816,5.59784 18.198816,5.59784 l 12.77532,34.59229 8.34383,-2.11187 -10.9026,-43.60233 -15.602956,-7.95871 c 0,0 -9.066958,-3.28309 -15.779104,1.28188 z"
       fill="#4c506d"
       id="path181"
       style="stroke-width:0.887783" />
    <path
       d="m 73.081804,139.6122 c 0,0 6.804854,15.16122 14.008359,17.20853 7.203504,2.04732 15.890357,-19.20051 15.890357,-19.20051 l -5.785056,-2.16721 -9.706652,9.71093 c 0,0 -6.016826,-12.71735 -8.455078,-12.13635 -2.438252,0.58099 -6.869751,3.97474 -5.95193,6.58461 z"
       fill="#ffffff"
       id="path183"
       style="stroke-width:0.887783" />
    <path
       d="m 104.44532,126.96864 a 3.0501324,3.0340874 0 0 0 0.71386,1.59543 10.198011,10.144365 0 0 1 0.9271,3.00642 6.3783923,6.3448392 0 0 0 1.22376,2.87731 2.4938772,2.4807584 0 0 0 2.84617,0.74699 2.3918971,2.3793147 0 0 0 1.16814,-1.78909 5.1917147,5.164404 0 0 0 -0.25032,-2.18565 13.359394,13.289118 0 0 0 -1.04761,-2.67443 6.8141255,6.7782802 0 0 0 -1.63169,-2.12109 c -1.0198,-0.81155 -3.80107,-1.53088 -3.94941,0.54411 z"
       fill="#d68369"
       id="path185"
       style="stroke-width:0.887783" />
    <path
       d="m 101.56207,127.89085 a 4.0235789,4.0024131 0 0 1 1.5297,-1.5401 4.4593121,4.4358541 0 0 1 1.93762,-0.26744 c 1.27939,0 2.78128,0.23055 3.38389,1.34643 a 2.8739849,2.8588665 0 0 1 -0.27813,2.76665 c -0.49136,0.82999 -1.18668,1.52165 -1.69658,2.35165 -0.70459,1.17121 -1.04761,2.64675 -2.13231,3.50441 a 3.9123279,3.8917473 0 0 1 -1.55752,0.71011 c -1.85418,0.43344 -4.338785,-0.46111 -3.903052,-2.69287 a 19.57091,19.467959 0 0 1 2.716382,-6.17884 z"
       fill="#ec9c7d"
       id="path187"
       style="stroke-width:0.887783" />
    <path
       d="m 267.86381,170.88451 c 0,7.89416 -40.20797,14.28511 -89.80739,14.28511 -49.59942,0 -89.807393,-6.39095 -89.807393,-14.28511 0,-0.32277 -0.129792,-4.2883 0,-4.61107 3.142842,-7.44228 42.266123,-9.67404 89.807393,-9.67404 46.49366,0 85.20902,2.47154 89.80739,9.67404 0.30594,0.48877 0,4.1223 0,4.61107 z"
       fill="#68e1fd"
       id="path189"
       style="stroke-width:0.887783" />
    <path
       d="m 88.249027,170.88451 c 0,7.89416 40.207973,14.28511 89.807393,14.28511 49.59942,0 89.80739,-6.39095 89.80739,-14.28511 0,-0.92221 0.0927,-1.84443 0,-2.76664 a 3.8381605,3.8179701 0 0 0 -0.64896,-1.57699 5.5625515,5.53329 0 0 0 -2.38263,-2.59142 5.3400494,5.3119584 0 0 0 -2.05814,-0.26745 q -3.11503,0 -6.22079,0.12911 a 82.390658,81.957247 0 0 0 -8.54778,0.72855 c -2.11377,0.30434 -4.21827,0.72855 -6.35986,0.84844 -4.39441,0.249 -8.76101,-0.77466 -13.1647,-0.92221 a 2.864714,2.8496443 0 0 0 -0.97345,0.0553 4.468583,4.4450763 0 0 0 -1.01053,0.44266 8.7610185,8.7149318 0 0 1 -5.17317,0.85766 c -15.96452,1.07899 -31.89196,0 -47.79159,-1.84443 -13.28522,-1.5401 -26.56118,-3.42141 -39.92985,-3.76263 a 174.39526,173.47786 0 0 0 -41.617152,3.92863 c -1.854184,0.40578 -4.097746,1.2911 -4.181185,3.17242 -0.04635,1.27266 1.288658,2.55454 0.445004,3.56897 z"
       fill="url(#linear-gradient-7)"
       id="path191"
       style="fill:url(#linear-gradient-7);stroke-width:0.887783" />
    <ellipse
       cx="178.05643"
       cy="166.28267"
       rx="89.807396"
       ry="14.28511"
       fill="#68e1fd"
       id="ellipse193"
       style="stroke-width:0.887783" />
    <polygon
       points="204.24,169.52 150.82,162.41 150.82,164.73 170.06,173.67 203.78,171.28 "
       fill="#68e1fd"
       id="polygon195"
       style="stroke-width:0.960128"
       transform="matrix(0.92709191,0,0,0.922215,4.8014846,3.9820426)" />
    <polygon
       points="204.24,169.52 150.82,162.41 150.82,164.73 170.06,173.67 203.78,171.28 "
       fill="url(#linear-gradient-8)"
       id="polygon197"
       style="fill:url(#linearGradient134);stroke-width:0.960128"
       transform="matrix(0.92709191,0,0,0.922215,4.8014846,3.9820426)" />
    <polygon
       points="150.82,162.41 179.85,157.48 171.12,171.98 "
       fill="#68e1fd"
       id="polygon199"
       style="stroke-width:0.960128"
       transform="matrix(0.92709191,0,0,0.922215,4.8014846,3.9820426)" />
    <polygon
       points="150.82,162.41 179.85,157.48 171.12,171.98 "
       fill="url(#linear-gradient-9)"
       id="polygon201"
       style="fill:url(#linear-gradient-9);stroke-width:0.960128"
       transform="matrix(0.92709191,0,0,0.922215,4.8014846,3.9820426)" />
    <path
       d="m 112.93748,222.43633 v 5.58862 h 20.09936 c 0,0 -1.17741,-4.2883 -9.14113,-5.58862 l -2.60513,-2.11187 z"
       fill="#68e1fd"
       id="path203"
       style="stroke-width:0.887783" />
    <path
       d="m 112.93748,222.43633 v 5.58862 h 20.09936 c 0,0 -1.17741,-4.2883 -9.14113,-5.58862 l -2.60513,-2.11187 z"
       fill="url(#linear-gradient-10)"
       id="path205"
       style="fill:url(#linear-gradient-10);stroke-width:0.887783" />
    <rect
       x="112.01967"
       y="228.02496"
       width="21.66614"
       height="1.4294332"
       fill="#68e1fd"
       id="rect207"
       style="stroke-width:0.887783" />
    <path
       d="m 83.168564,130.12261 a 1.5760562,1.5677655 0 0 0 -0.927092,0 c -0.472817,0.19367 -0.676777,0.79311 -1.158865,0.96833 1.11251,1.01443 2.614399,1.47554 3.884515,2.27787 a 16.585674,16.498426 0 0 1 3.504407,3.26464 c 1.195949,-0.664 1.121782,-2.50843 2.169396,-3.39375 a 7.3611098,7.3223871 0 0 1 -2.104499,-0.92222 11.959486,11.896574 0 0 1 -1.501889,-0.83921 11.264167,11.204912 0 0 0 -3.865973,-1.35566 z"
       fill="#ffffff"
       id="path209"
       style="stroke-width:0.887783" />
    <path
       d="m 93.477826,130.82349 a 6.8233965,6.7875024 0 0 1 1.019801,1.10666 l 1.186678,1.51243 a 0.60260974,0.59943975 0 0 1 0.176147,0.45189 0.42646228,0.4242189 0 0 1 -0.491359,0.25822 3.2633635,3.2461968 0 0 1 -0.574797,-0.20289 4.6354595,4.611075 0 0 0 -1.335012,-0.083 5.3307785,5.3027362 0 0 1 -1.594598,-0.41499 0.23177298,0.23055375 0 0 1 -0.157606,-0.10145 0.28739849,0.28588665 0 0 1 0,-0.17522 3.7083676,3.68886 0 0 0 -0.231773,-1.54932 c -0.139064,-0.36889 -0.380107,-0.7931 -0.139064,-1.17121 0.454276,-0.71933 1.668766,-0.0185 2.141583,0.36888 z"
       fill="#ffffff"
       id="path211"
       style="stroke-width:0.887783" />
    <polygon
       points="141.28,178.32 113.54,175.99 123.82,168.18 149.02,169.31 "
       fill="#ffffff"
       id="polygon213"
       style="stroke-width:0.960128"
       transform="matrix(0.92709191,0,0,0.922215,4.8014846,3.9820426)" />
    <path
       d="m 216.69761,159.08016 c -1.3072,0.12911 -22.97334,6.36328 -22.97334,6.36328 l 12.52502,9.60949 24.7997,-6.58462 z"
       fill="#ffffff"
       id="path215"
       style="stroke-width:0.887783" />
    <polygon
       points="177.38,145.07 212.23,142.98 204.24,169.52 171.12,171.98 "
       fill="#68e1fd"
       id="polygon217"
       style="stroke-width:0.960128"
       transform="matrix(0.92709191,0,0,0.922215,4.8014846,3.9820426)" />
    <polygon
       points="177.38,145.07 212.23,142.98 204.24,169.52 171.12,171.98 "
       fill="url(#linear-gradient-11)"
       id="polygon219"
       style="fill:#666666;stroke-width:0.960128"
       transform="matrix(0.92709191,0,0,0.922215,4.8014846,3.9820426)" />
    <polygon
       points="255.91,168.18 238.22,171.7 225.27,149.36 245.98,145.33 "
       fill="#ffffff"
       id="polygon221"
       style="stroke-width:0.960128"
       transform="matrix(0.92709191,0,0,0.922215,4.8014846,3.9820426)" />
    <path
       d="m 238.61406,152.28344 1.6595,-1.89977 c 0,0 17.61475,2.76665 20.15498,3.77186 2.54023,1.00522 2.41044,6.1604 2.41044,6.1604 -6.89757,1.89976 -24.22492,-8.03249 -24.22492,-8.03249 z"
       fill="#ec9c7d"
       id="path223"
       style="stroke-width:0.887783" />
    <path
       d="m 241.78472,152.79066 a 1.0198011,1.0144365 0 0 1 -0.3523,0.5441 1.5667853,1.5585433 0 0 1 -0.60261,0.21211 c -1.2423,0.29511 -2.1972,1.27266 -3.39315,1.73377 -1.61314,0.63632 -3.42097,0.24899 -5.09901,-0.15678 a 1.372096,1.3648782 0 0 1 -1.4648,-1.26344 1.3906379,1.3833225 0 0 1 0.46354,-1.1251 7.101524,7.0641669 0 0 1 1.68731,-2.14876 c 1.48335,-1.09743 3.53222,-0.86688 5.34932,-0.58099 1.65949,0.24899 4.15337,0.33199 3.4117,2.78509 z"
       fill="#ec9c7d"
       id="path225"
       style="stroke-width:0.887783" />
    <polygon
       points="163.61,165.88 171.12,170.96 173.04,163.68 "
       fill="url(#linear-gradient-12)"
       id="polygon227"
       style="fill:url(#linear-gradient-12);stroke-width:0.960128"
       transform="matrix(0.92709191,0,0,0.922215,4.8014846,3.9820426)" />
    <polygon
       points="168.39,163.77 173.04,162.53 170.81,159.9 165.51,161.21 "
       fill="url(#linear-gradient-13)"
       id="polygon229"
       style="fill:url(#linear-gradient-13);stroke-width:0.960128"
       transform="matrix(0.92709191,0,0,0.922215,4.8014846,3.9820426)" />
    <path
       d="m 143.21631,111.61376 c -0.9271,5.60706 0.86219,11.31557 3.22628,16.49842 2.36408,5.18285 5.29369,10.14437 6.77704,15.67766 a 12.664075,12.597457 0 0 0 8.90008,-2.07499 l -9.46561,-34.54617 c -0.54698,-1.9551 -2.2621,-7.211722 -5.03411,-6.03129 -2.25283,0.93144 -4.04212,8.30916 -4.40368,10.47637 z"
       fill="#68e1fd"
       id="path231"
       style="fill:#0b2822;stroke-width:1" />
    <path
       d="m 163.89973,146.00315 a 10.049676,9.9968106 0 0 1 1.04761,6.33562 0.59333882,0.5902176 0 0 1 -0.33375,0.55333 0.50990055,0.50721825 0 0 1 -0.41719,-0.0738 c -0.82512,-0.50722 -0.73241,-2.14876 -1.70585,-2.20409 a 1.2701159,1.2634346 0 0 0 -0.58407,0.14755 14.01763,13.943891 0 0 1 -2.62367,0.92222 3.5971166,3.5781942 0 0 1 -2.67003,-0.45189 4.1811845,4.1591896 0 0 1 -1.43699,-3.20008 18.272982,18.176858 0 0 0 -0.27813,-3.60587 c -0.61188,-2.30553 2.68857,-2.89575 4.48713,-2.88653 2.16012,-0.009 3.67128,2.79431 4.51494,4.46352 z"
       fill="#fdb9a9"
       id="path233"
       style="stroke-width:0.887783" />
    <rect
       x="171.53897"
       y="43.148514"
       width="83.01181"
       height="3.633527"
       fill="#68e1fd"
       id="rect235"
       style="stroke-width:0.887783" />
    <polyline
       points="194.11 88.36 216.45 72.59 227.34 80.48 249.81 63.96"
       fill="none"
       stroke="#68e1fd"
       stroke-miterlimit="10"
       id="polyline237"
       style="stroke-width:0.960128"
       transform="matrix(0.92709191,0,0,0.922215,4.8014846,3.9820426)" />
  </g>
</svg>
